# GloomhavenVR haunt figure — CC0, MakeHuman hm08 base mesh.
# See Assets/Editor/haunt_figures_pipeline.py for provenance.
v -0.01849 0.05579 0.13639
v -0.01128 0.04718 0.14466
v -0.00885 0.06738 0.14957
v 0.00030 0.06188 0.15068
v -0.05356 0.06572 0.12891
v -0.04738 0.05569 0.13230
v -0.04954 0.03328 0.13390
v -0.03543 0.07368 0.14187
v -0.03059 0.10572 0.14208
v -0.02320 0.11825 0.14141
v -0.06409 0.04427 0.11395
v 0.00020 0.03995 0.15883
v -0.00637 0.01331 0.15802
v 0.00324 -0.00604 0.15983
v -0.00315 -0.02189 0.15488
v -0.01720 -0.00924 0.14573
v -0.02390 -0.01021 0.13994
v -0.01069 -0.01138 0.15208
v -0.00413 -0.00265 0.15162
v -0.01904 0.00966 0.13706
v -0.01248 -0.02931 0.13450
v 0.00047 0.00983 0.14914
v -0.02608 0.02157 0.10778
v -0.02452 -0.02122 0.13031
v -0.02162 -0.02680 0.10389
v 0.00000 0.02399 0.12670
v -0.03697 0.00432 0.10211
v -0.03047 -0.02192 0.08790
v -0.00246 0.02805 0.10435
v -0.02366 0.01537 0.07296
v -0.02306 -0.04176 0.07199
v 0.00492 -0.04890 0.06803
v -0.01866 -0.02856 0.05898
v -0.00446 0.02144 0.07673
v -0.01586 -0.00530 0.05565
v -0.05123 0.09321 0.12921
v -0.05233 -0.02301 0.09324
v -0.04436 -0.03246 0.04324
v -0.04399 -0.06494 0.03410
v -0.03486 -0.05615 0.05591
v -0.05247 -0.09238 0.02809
v -0.04525 -0.09356 0.04255
v -0.00082 -0.05468 0.10593
v -0.02631 -0.04471 0.09069
v -0.02722 -0.04868 0.06934
v -0.01587 -0.06355 0.06944
v -0.00536 -0.08744 0.06930
v -0.03114 -0.07418 0.05865
v -0.00003 -0.11862 0.07151
v -0.02617 -0.11175 0.07225
v -0.06000 -0.08237 -0.00024
v -0.04593 -0.02047 0.01449
v -0.03921 -0.03017 -0.00612
v -0.04757 -0.05933 -0.00573
v -0.04799 0.14797 0.00069
v -0.06863 0.13373 0.03699
v -0.04696 0.16265 0.03085
v -0.01614 0.17551 0.03069
v 0.00000 0.17787 0.06961
v -0.04284 0.15573 0.10063
v -0.05020 -0.00924 0.04926
v -0.00722 0.02390 0.16621
v -0.06671 0.00855 0.07279
v -0.03663 -0.04112 0.10883
v -0.05559 0.01951 0.01970
v -0.03984 0.06322 -0.02865
v 0.00501 0.04655 -0.03640
v -0.05295 0.05755 -0.01230
v -0.05148 0.09867 -0.01998
v -0.03701 0.10255 -0.03183
v -0.04814 0.12756 -0.01664
v -0.05451 0.15638 0.07429
v -0.07157 0.11449 0.08734
v -0.06774 0.13715 0.07695
v -0.03869 0.13848 0.12065
v -0.06370 0.03806 0.02757
v -0.01693 0.13524 -0.02636
v -0.01765 -0.03231 -0.01146
v 0.00000 -0.01715 -0.00970
v 0.00052 -0.05266 -0.01223
v -0.04356 -0.02528 0.06631
v -0.01818 -0.06862 -0.02128
v -0.01160 0.16895 0.09803
v -0.03402 0.17272 0.06842
v -0.00976 0.15137 0.12358
v -0.03568 0.06332 0.13903
v -0.04379 0.06900 0.12566
v -0.04431 0.04582 0.12551
v -0.02702 0.04562 0.13572
v -0.02488 0.06980 0.13385
v -0.02037 0.06900 0.11794
v -0.04508 0.05870 0.11506
v -0.01637 0.04770 0.12240
v -0.03749 0.04830 0.11048
v -0.02452 0.04679 0.11091
v -0.22102 -0.14282 0.02621
v -0.20945 -0.15693 0.05618
v -0.16331 -0.14466 0.07840
v -0.20166 -0.13191 0.05444
v -0.13137 -0.16227 0.09120
v -0.11428 -0.17800 0.10159
v -0.15329 -0.12440 0.07603
v -0.18042 -0.11108 0.05691
v -0.10982 -0.14881 0.09491
v -0.14805 -0.10321 0.05217
v -0.08269 -0.14172 0.09420
v -0.07644 -0.17135 0.10998
v -0.06463 -0.13403 0.09025
v -0.23869 -0.17744 0.02413
v -0.23441 -0.17795 0.03797
v -0.22434 -0.15531 0.04150
v -0.05069 -0.09456 -0.03725
v -0.11099 -0.11296 -0.03615
v -0.11348 -0.10212 0.01036
v -0.09982 -0.10057 -0.01675
v -0.04994 -0.07840 -0.01915
v -0.00353 -0.08010 -0.02438
v -0.08592 -0.09478 -0.00282
v -0.01866 -0.13809 0.09235
v -0.02997 -0.17737 0.10746
v -0.04672 -0.13307 0.08871
v -0.06844 -0.10206 0.02883
v -0.09400 -0.10922 0.03459
v -0.00204 -0.15227 0.09647
v -0.04744 -0.16065 0.10257
v -0.03758 -0.11173 -0.04692
v -0.09619 -0.13330 -0.04914
v -0.13701 -0.10577 -0.02290
v -0.15355 -0.09579 0.00679
v -0.04364 -0.13132 -0.05129
v -0.00568 -0.14770 -0.04933
v -0.15033 -0.12412 -0.03969
v -0.17540 -0.11546 -0.02401
v -0.18976 -0.10695 -0.00090
v -0.11260 -0.15952 -0.05386
v -0.10017 -0.17170 -0.05789
v -0.08205 -0.15287 -0.05458
v -0.07926 -0.17429 -0.06077
v -0.06007 -0.15819 -0.04791
v -0.05680 -0.17754 -0.04852
v -0.03711 -0.15875 -0.05292
v -0.00489 -0.16841 -0.05072
v -0.17465 -0.13449 -0.03856
v -0.20448 -0.14959 -0.02960
v -0.20588 -0.13201 -0.01089
v -0.22513 -0.14722 0.00662
v -0.16208 -0.15785 -0.04432
v -0.15121 -0.17476 -0.04327
v -0.20647 -0.17665 -0.02983
v -0.23366 -0.17481 -0.00987
v -0.22006 -0.17011 0.05193
v -0.03426 -0.00150 0.06490
v -0.03073 -0.00394 0.12749
v -0.06016 -0.12057 0.05662
v -0.09970 -0.11934 0.07085
v -0.12863 -0.11885 0.07560
v -0.18604 -0.17663 0.06210
v -0.03413 0.06659 0.11086
v -0.02683 -0.00325 0.14413
v -0.00071 -0.05547 0.13966
v -0.06260 0.01322 0.10512
v -0.07108 0.04475 0.08346
v -0.02508 -0.03151 0.13953
v -0.03571 -0.01715 0.13413
v -0.05224 -0.01793 0.10647
v -0.00053 0.10952 0.14931
v -0.06339 0.07745 0.10980
v -0.02921 0.00259 -0.01322
v -0.04648 0.00199 0.00534
v -0.05340 0.01191 0.12576
v -0.01790 -0.05182 0.13294
v -0.03686 -0.03368 0.12290
v -0.03327 0.04943 0.13892
v -0.00389 0.08745 0.15389
v -0.01857 0.01829 0.14807
v -0.03937 0.02378 0.14130
v -0.06582 0.12253 0.01033
v -0.07768 0.09965 0.05051
v -0.02564 0.15694 -0.00406
v -0.01737 0.11080 -0.03628
v -0.07338 0.08203 0.01892
v -0.01954 0.08343 -0.03863
v -0.07218 0.07675 0.07781
v -0.07276 0.02840 0.05873
v -0.08839 0.06080 0.04126
v -0.02222 0.03895 -0.02971
v -0.05890 0.11614 0.11285
v -0.00286 0.14139 0.13335
v -0.04357 0.01785 -0.00641
v -0.07598 0.04181 0.05241
v -0.08502 0.04075 0.03537
v -0.07697 0.05427 0.05688
v -0.07952 0.03545 0.04682
v -0.08576 0.05284 0.04418
v -0.07508 0.06272 0.05660
v -0.07466 0.01736 0.04658
v -0.07262 0.04630 0.06580
v -0.07328 0.03963 0.04036
v -0.07465 0.01703 0.05518
v -0.07390 0.06003 0.04038
v -0.05875 0.01200 0.04698
v 0.04035 0.06257 0.13764
v 0.04477 0.05515 0.13409
v 0.05399 0.06418 0.12846
v 0.02701 0.14179 0.12539
v 0.02556 0.09206 0.14747
v 0.06292 0.05226 0.11522
v 0.06260 0.01322 0.10512
v 0.00982 0.01938 0.16340
v 0.00873 0.01000 0.15360
v -0.00961 0.00016 0.15702
v 0.01861 -0.00806 0.14852
v 0.02494 -0.01014 0.14140
v -0.00319 -0.02082 0.15054
v 0.01107 -0.01104 0.14868
v 0.00291 -0.03284 0.13246
v 0.02342 -0.02479 0.12806
v 0.00285 -0.03225 0.10244
v 0.03742 0.00370 0.09990
v 0.02818 -0.02358 0.10186
v 0.02606 0.02225 0.10259
v 0.03351 0.00194 0.06495
v 0.03129 -0.01637 0.08157
v 0.02566 -0.03774 0.07571
v 0.01150 0.02524 0.08311
v 0.02190 -0.01419 0.05632
v 0.00346 -0.03670 0.05994
v -0.00185 -0.03461 0.15083
v 0.04093 -0.03294 0.05527
v 0.05251 -0.08997 0.02470
v 0.04011 -0.03059 0.07386
v 0.02505 -0.05268 0.06556
v 0.03272 -0.07555 0.05803
v 0.03928 -0.06031 0.04955
v 0.04462 -0.09451 0.04399
v 0.02363 -0.04643 0.09265
v 0.01092 -0.08430 0.06738
v 0.00813 -0.06505 0.07375
v 0.04508 -0.02646 0.01118
v 0.04517 -0.04884 0.02363
v 0.04771 -0.05997 -0.00331
v 0.05752 -0.07824 -0.00725
v 0.02065 -0.02224 -0.01061
v 0.03910 -0.04912 -0.00917
v 0.03282 -0.07949 -0.02779
v 0.04799 0.14797 0.00069
v 0.06671 0.00855 0.07279
v 0.06901 0.03506 0.09392
v 0.06346 0.03080 0.03717
v 0.04696 0.16265 0.03085
v 0.04964 -0.01170 0.05189
v 0.03989 -0.00371 -0.00538
v 0.05609 -0.01620 0.09104
v 0.02069 -0.01855 0.14555
v 0.04959 0.03973 -0.00768
v 0.04026 0.01868 -0.00988
v 0.07390 0.06003 0.04038
v 0.06351 0.06151 0.00205
v 0.07338 0.08203 0.01892
v 0.05587 0.11518 -0.01246
v 0.03200 0.13294 -0.02405
v 0.04802 0.16391 0.06591
v 0.06970 0.13456 0.06085
v 0.06794 0.13138 0.02481
v 0.06667 0.13033 0.08926
v 0.02572 -0.04808 0.12873
v 0.04225 -0.03638 0.10534
v 0.04520 0.15575 0.09814
v 0.02445 0.17502 0.06922
v 0.00000 -0.05599 0.08503
v 0.02472 0.01692 -0.01807
v 0.01846 0.07073 -0.03940
v 0.02474 0.17321 0.03056
v 0.02037 0.16581 0.10012
v 0.02463 0.05018 0.13855
v 0.02488 0.06980 0.13385
v 0.04048 0.07107 0.12276
v 0.01594 0.05585 0.13093
v 0.04792 0.05488 0.12235
v 0.04020 0.04261 0.12057
v 0.02093 0.04297 0.12149
v 0.03601 0.05964 0.10745
v 0.01801 0.05585 0.11321
v 0.02037 0.06900 0.11794
v 0.16331 -0.14466 0.07840
v 0.11428 -0.17800 0.10159
v 0.10982 -0.14881 0.09491
v 0.07644 -0.17135 0.10998
v 0.12863 -0.11885 0.07560
v 0.10011 -0.12392 0.08063
v 0.06909 -0.13475 0.09106
v 0.23869 -0.17744 0.02413
v 0.20945 -0.15693 0.05618
v 0.13137 -0.16227 0.09120
v 0.20166 -0.13191 0.05444
v 0.18042 -0.11108 0.05691
v 0.14805 -0.10321 0.05217
v 0.23441 -0.17795 0.03797
v 0.03800 -0.12258 0.07721
v 0.02510 -0.13389 0.09068
v 0.05216 -0.11331 0.05294
v 0.00000 -0.11281 -0.03982
v 0.07483 -0.09615 -0.03120
v 0.04520 -0.14635 0.09618
v 0.10663 -0.10842 -0.03160
v 0.11030 -0.10010 -0.01234
v 0.11348 -0.10212 0.01036
v 0.08884 -0.09644 -0.01397
v 0.05896 -0.10642 -0.04327
v 0.01227 -0.07872 -0.02499
v 0.05973 -0.08888 0.00956
v 0.07088 -0.10019 0.02405
v 0.06224 -0.12451 0.06533
v 0.09400 -0.10922 0.03459
v 0.03005 -0.17740 0.10747
v 0.10608 -0.12024 -0.04151
v 0.13701 -0.10577 -0.02290
v 0.15355 -0.09579 0.00679
v 0.04015 -0.12119 -0.05010
v 0.14802 -0.11644 -0.03424
v 0.16793 -0.11233 -0.02357
v 0.18516 -0.10831 -0.00910
v 0.18999 -0.10758 0.01137
v 0.11244 -0.13752 -0.04912
v 0.11260 -0.15952 -0.05386
v 0.10017 -0.17170 -0.05789
v 0.08205 -0.15287 -0.05458
v 0.07926 -0.17429 -0.06077
v 0.06007 -0.15819 -0.04791
v 0.05680 -0.17754 -0.04852
v 0.03540 -0.15592 -0.05303
v 0.01977 -0.16786 -0.05200
v 0.18760 -0.12678 -0.02671
v 0.20588 -0.13201 -0.01089
v 0.17465 -0.13449 -0.03856
v 0.15121 -0.17476 -0.04327
v 0.16208 -0.15785 -0.04432
v 0.20647 -0.17665 -0.02983
v 0.23136 -0.17338 -0.01228
v 0.23936 -0.17649 0.00819
v 0.22513 -0.14722 0.00662
v 0.20448 -0.14959 -0.02960
v 0.22006 -0.17011 0.05193
v 0.22138 -0.14657 0.03881
v 0.02718 -0.10414 0.06815
v 0.03123 -0.00199 0.12605
v 0.01731 0.01383 0.13703
v 0.04603 0.08059 0.13552
v 0.15329 -0.12440 0.07603
v 0.18604 -0.17663 0.06210
v 0.01242 0.05070 0.14231
v 0.02574 0.06207 0.14026
v 0.03202 0.03322 0.14378
v 0.01829 0.02123 0.14800
v 0.05713 0.03373 0.12725
v 0.01575 -0.04447 0.14368
v 0.04125 -0.01447 0.12945
v 0.02535 0.11899 0.14061
v 0.04871 0.00026 0.01309
v 0.00109 0.00929 -0.01639
v 0.04530 0.01188 0.13485
v 0.00400 0.00390 0.05914
v 0.01457 0.16026 -0.00477
v 0.03092 0.10689 -0.03458
v 0.04069 0.06572 -0.02876
v 0.07768 0.09965 0.05051
v 0.07656 0.06059 0.05677
v 0.07702 0.02068 0.04730
v 0.08738 0.05791 0.04196
v 0.08502 0.04075 0.03537
v 0.05572 0.11604 0.11826
v 0.06821 0.09206 0.09993
v 0.05510 0.01335 0.02681
v 0.07048 0.06723 0.08438
v 0.07248 0.04715 0.06738
v 0.07429 0.04326 0.05680
v 0.06870 0.03298 0.05498
v 0.07939 0.03906 0.04681
v 0.07328 0.03963 0.04036
v 0.07194 0.02442 0.06310
v 0.06696 0.01157 0.06447
v 0.06162 0.01668 0.04860
v -0.02702 0.04562 0.13572
v -0.03327 0.04943 0.13892
v -0.01849 0.05579 0.13639
v -0.01849 0.05579 0.13639
v -0.03568 0.06332 0.13903
v -0.02488 0.06980 0.13385
v -0.04379 0.06900 0.12566
v -0.03568 0.06332 0.13903
v -0.04738 0.05569 0.13230
v -0.04431 0.04582 0.12551
v -0.04738 0.05569 0.13230
v -0.03327 0.04943 0.13892
v -0.22102 -0.14282 0.02621
v -0.23869 -0.17744 0.02413
v -0.23441 -0.17795 0.03797
v -0.07328 0.03963 0.04036
v -0.07465 0.01703 0.05518
v -0.07466 0.01736 0.04658
v -0.00319 -0.02082 0.15054
v -0.01069 -0.01138 0.15208
v 0.01107 -0.01104 0.14868
v 0.02488 0.06980 0.13385
v 0.04035 0.06257 0.13764
v 0.02574 0.06207 0.14026
v 0.04048 0.07107 0.12276
v 0.04477 0.05515 0.13409
v 0.04035 0.06257 0.13764
v 0.07656 0.06059 0.05677
v 0.08738 0.05791 0.04196
v 0.07390 0.06003 0.04038
v 0.23441 -0.17795 0.03797
v 0.18604 -0.17663 0.06210
v 0.11428 -0.17800 0.10159
v -0.11428 -0.17800 0.10159
v -0.18604 -0.17663 0.06210
v -0.23441 -0.17795 0.03797
vn -0.93254 -0.20933 0.29419
vn -0.49480 0.27113 0.82563
vn -0.29017 -0.33058 0.89806
vn 0.11164 -0.07951 0.99056
vn -0.74447 0.00534 0.66763
vn -0.46569 0.05330 0.88334
vn -0.67883 0.03515 0.73345
vn -0.44967 -0.01874 0.89300
vn -0.49669 0.21834 0.84002
vn -0.30080 0.44064 0.84579
vn -0.90810 -0.03044 0.41765
vn 0.05338 0.45684 0.88795
vn -0.23621 -0.42717 0.87277
vn 0.18127 -0.44038 0.87932
vn -0.07160 -0.10748 0.99163
vn 0.28083 -0.92770 -0.24598
vn 0.84440 -0.16193 0.51065
vn -0.24340 0.78291 0.57255
vn 0.25739 -0.46904 -0.84484
vn 0.57651 -0.58405 -0.57141
vn 0.39364 0.87928 -0.26818
vn -0.01450 -0.63027 -0.77624
vn 0.60392 -0.78037 -0.16218
vn 0.82057 0.49969 -0.27744
vn 0.40001 0.89891 -0.17877
vn 0.03385 -0.93099 -0.36346
vn 0.99552 -0.08541 -0.04055
vn 0.92973 0.36744 0.02409
vn 0.09263 -0.99467 0.04535
vn 0.48549 -0.79187 0.37047
vn 0.47968 0.87646 -0.04157
vn -0.13814 0.97058 -0.19720
vn 0.63140 0.33312 0.70026
vn 0.11631 -0.81803 0.56329
vn 0.10731 -0.27325 0.95594
vn -0.72309 0.11976 0.68029
vn -0.83721 -0.54350 -0.06082
vn -0.97577 -0.14897 0.16026
vn -0.95348 0.14988 0.26155
vn -0.83493 -0.06291 0.54676
vn -0.69468 0.58826 0.41396
vn -0.72741 0.36542 0.58081
vn 0.01082 -0.99953 -0.02878
vn -0.52074 -0.85294 -0.03647
vn -0.73282 -0.56421 0.38032
vn -0.43460 -0.32235 0.84096
vn -0.12012 0.03988 0.99196
vn -0.58347 0.08380 0.80780
vn 0.00536 0.43708 0.89941
vn -0.30934 0.50649 0.80484
vn -0.78183 0.60050 0.16777
vn -0.98815 -0.09159 -0.12316
vn -0.59871 0.09122 -0.79575
vn -0.92598 0.24421 -0.28798
vn -0.70374 0.58713 -0.40003
vn -0.88725 0.44433 -0.12390
vn -0.60279 0.77576 -0.18668
vn -0.13156 0.96178 -0.24016
vn 0.00096 0.99538 0.09600
vn -0.51448 0.71445 0.47422
vn -0.91931 -0.37057 -0.13248
vn -0.47571 0.09028 0.87496
vn -0.93159 -0.36341 0.00850
vn -0.69041 -0.72053 0.06457
vn -0.92944 -0.25555 -0.26614
vn -0.55088 -0.14689 -0.82155
vn 0.08096 -0.31167 -0.94673
vn -0.82238 -0.22161 -0.52401
vn -0.81686 0.02275 -0.57638
vn -0.45015 0.16187 -0.87816
vn -0.58732 0.40366 -0.70151
vn -0.73957 0.66961 0.06821
vn -0.96029 0.07850 0.26773
vn -0.87985 0.40554 0.24777
vn -0.57495 0.48628 0.65801
vn -0.88890 -0.27820 -0.36394
vn -0.09492 0.51153 -0.85401
vn -0.02166 0.09067 -0.99565
vn -0.00111 -0.07112 -0.99747
vn -0.03801 0.23962 -0.97012
vn -0.81390 -0.58095 0.00815
vn -0.13272 0.39685 -0.90824
vn -0.14237 0.89672 0.41909
vn -0.36456 0.92417 0.11405
vn -0.16070 0.75295 0.63816
vn -0.25829 -0.81330 0.52138
vn 0.58855 -0.80840 -0.00996
vn 0.60455 0.79639 0.01656
vn -0.17081 0.95952 -0.22392
vn -0.26908 -0.86286 -0.42786
vn -0.68269 -0.63992 0.35276
vn 0.87185 -0.08776 0.48185
vn -0.93433 0.34196 0.10044
vn 0.39482 0.39218 0.83085
vn -0.34962 0.66968 0.65520
vn -0.77951 0.60651 0.15657
vn -0.46409 -0.00507 0.88578
vn -0.38979 0.19002 0.90108
vn -0.66459 0.56075 0.49384
vn -0.40337 -0.01585 0.91490
vn -0.20590 -0.77995 0.59101
vn -0.21541 0.51714 0.82835
vn -0.41774 0.80476 0.42173
vn -0.19906 0.34714 0.91645
vn 0.04970 0.94569 0.32125
vn -0.02195 0.55510 0.83150
vn -0.06962 0.24158 0.96788
vn 0.04498 0.76628 0.64093
vn -0.02697 -0.99961 -0.00712
vn -0.18951 -0.97544 0.11227
vn -0.78133 0.38919 0.48791
vn -0.11162 0.54997 -0.82769
vn -0.18981 0.68774 -0.70070
vn 0.03518 0.98326 0.17879
vn -0.16661 0.96461 -0.20438
vn -0.38497 0.79966 -0.46081
vn 0.08388 0.44630 -0.89094
vn -0.34514 0.91686 0.20058
vn 0.09062 0.49258 0.86554
vn 0.00456 -0.99653 0.08309
vn -0.12630 0.68828 0.71437
vn -0.28237 0.84749 0.44947
vn 0.09416 0.93725 0.33570
vn -0.00928 0.44750 0.89424
vn 0.03979 0.42086 0.90625
vn 0.04419 0.38315 -0.92263
vn -0.09964 0.34508 -0.93327
vn -0.14002 0.85646 -0.49686
vn -0.10321 0.99464 -0.00612
vn 0.05651 0.13215 -0.98962
vn 0.04079 0.16323 -0.98574
vn -0.15277 0.41609 -0.89640
vn -0.38963 0.67406 -0.62755
vn -0.54872 0.83184 -0.08335
vn -0.15898 0.14771 -0.97617
vn -0.17854 0.05667 -0.98230
vn 0.03984 0.16117 -0.98612
vn 0.01642 -0.97349 -0.22813
vn 0.12945 0.01013 -0.99153
vn -0.00202 -0.99767 -0.06821
vn -0.02735 -0.01783 -0.99947
vn 0.00608 -0.14799 -0.98897
vn -0.31904 0.32595 -0.88993
vn -0.53022 0.29201 -0.79599
vn -0.68510 0.54483 -0.48352
vn -0.83812 0.52438 -0.15029
vn -0.23184 0.03225 -0.97222
vn -0.22815 -0.17275 -0.95818
vn -0.15856 -0.89999 -0.40604
vn -0.85035 0.15480 -0.50294
vn -0.51978 -0.11603 0.84638
vn 0.91328 -0.01524 0.40705
vn 0.91047 -0.19708 -0.36361
vn -0.16742 0.85232 0.49550
vn 0.09393 0.89257 0.44101
vn 0.04181 0.78390 0.61948
vn -0.42460 -0.11972 0.89743
vn 0.07656 -0.48337 0.87206
vn -0.54236 -0.17282 0.82218
vn 0.05682 -0.92900 0.36570
vn -0.94830 -0.21747 0.23115
vn -0.97972 -0.06391 0.18992
vn -0.58720 -0.26419 0.76512
vn -0.72043 -0.27605 0.63622
vn -0.85511 -0.36416 0.36901
vn 0.00820 0.31861 0.94785
vn -0.93082 0.03430 0.36386
vn -0.29663 -0.20520 -0.93269
vn -0.85938 -0.11478 -0.49828
vn -0.79076 -0.21650 0.57257
vn -0.49038 -0.82374 0.28458
vn -0.78062 -0.43886 0.44501
vn -0.27213 0.36494 0.89037
vn -0.12787 0.03886 0.99103
vn -0.51359 0.14456 0.84577
vn -0.48036 -0.03050 0.87654
vn -0.91104 0.21045 -0.35457
vn -0.99569 0.08988 -0.02269
vn -0.25651 0.78795 -0.55976
vn -0.03166 0.20064 -0.97915
vn -0.93251 -0.06867 -0.35455
vn -0.18174 -0.06687 -0.98107
vn -0.97902 -0.02891 0.20171
vn -0.96112 -0.08096 0.26401
vn -0.45131 0.59560 -0.66451
vn -0.33126 -0.31468 -0.88952
vn -0.78084 0.28246 0.55723
vn -0.00166 0.59060 0.80696
vn -0.73708 -0.25557 -0.62562
vn -0.88543 -0.17329 0.43126
vn -0.82018 -0.32349 -0.47187
vn -0.83930 -0.05131 0.54125
vn -0.92841 -0.10770 0.35562
vn -0.83658 -0.26494 0.47951
vn -0.98661 0.07893 0.14275
vn -0.25169 -0.68298 -0.68570
vn -0.98396 -0.04220 0.17330
vn -0.28842 -0.28020 -0.91559
vn -0.75408 -0.60320 -0.25984
vn -0.94795 -0.03911 -0.31600
vn -0.79215 -0.48332 -0.37270
vn 0.09442 -0.78161 0.61658
vn 0.06237 0.38230 0.92193
vn 0.77587 0.07088 0.62690
vn 0.40209 0.59242 0.69811
vn 0.40827 0.06186 0.91076
vn 0.93817 0.00699 0.34611
vn 0.90722 -0.26021 0.33052
vn 0.52069 -0.09266 0.84870
vn 0.42403 -0.10815 0.89917
vn -0.38395 -0.06901 0.92077
vn 0.10852 -0.96193 -0.25082
vn 0.05953 -0.09508 0.99369
vn -0.03446 0.66802 -0.74334
vn -0.31145 0.91430 -0.25896
vn -0.04834 0.98406 -0.17114
vn -0.68034 0.67503 -0.28543
vn -0.05778 0.96374 -0.26052
vn -0.99747 0.01661 -0.06911
vn -0.66504 0.70753 -0.23901
vn -0.60490 -0.79147 -0.08755
vn -0.72941 -0.46053 0.50585
vn -0.95143 0.27012 0.14770
vn -0.76825 0.55887 0.31217
vn -0.25076 -0.86881 0.42694
vn -0.51195 0.19372 0.83689
vn -0.09437 0.31114 0.94567
vn -0.10185 -0.36199 0.92660
vn 0.90789 -0.30102 0.29176
vn 0.89969 0.34463 0.26794
vn 0.77105 -0.63458 -0.05279
vn 0.70004 -0.48877 0.52062
vn 0.61641 0.01830 0.78722
vn 0.89998 0.02398 0.43528
vn 0.74419 0.33271 0.57921
vn 0.47640 -0.87898 0.02077
vn 0.21443 0.02937 0.97630
vn 0.25423 -0.30559 0.91760
vn 0.98306 -0.01335 -0.18279
vn 0.99260 0.00719 0.12119
vn 0.93756 0.28439 -0.20023
vn 0.59580 0.78642 -0.16301
vn 0.11776 0.01686 -0.99290
vn 0.49672 0.23076 -0.83667
vn 0.18894 0.58850 -0.78611
vn 0.62271 0.60827 -0.49217
vn 0.93702 -0.34807 0.02912
vn 0.97331 -0.08592 0.21279
vn 0.89168 -0.30568 -0.33387
vn 0.57892 0.78815 -0.20899
vn 0.93143 -0.34819 -0.10587
vn 0.73526 -0.03804 -0.67672
vn 0.88240 -0.46408 0.07739
vn 0.55103 -0.16807 0.81739
vn 0.78428 -0.28550 -0.55082
vn 0.64723 -0.20384 -0.73454
vn 0.94402 -0.11637 -0.30868
vn 0.87639 -0.19082 -0.44219
vn 0.95214 0.02690 -0.30447
vn 0.80350 0.14054 -0.57847
vn 0.29764 0.51015 -0.80694
vn 0.72611 0.68428 0.06721
vn 0.90991 0.41407 0.02477
vn 0.90472 0.36409 -0.22118
vn 0.90326 0.32770 0.27702
vn 0.59836 -0.74912 0.28424
vn 0.77280 -0.62608 0.10397
vn 0.59432 0.66449 0.45303
vn 0.32727 0.93773 0.11641
vn -0.03906 -0.93069 0.36371
vn 0.34247 -0.31569 -0.88490
vn 0.12496 -0.00665 -0.99214
vn 0.18207 0.96296 -0.19890
vn 0.18232 0.84774 0.49810
vn 0.28488 0.94477 0.16202
vn 0.28803 -0.86835 -0.40374
vn -0.50666 -0.85236 0.12958
vn 0.96611 -0.03715 -0.25543
vn -0.95058 -0.01464 0.31014
vn -0.37700 0.92230 0.08502
vn 0.39969 0.85263 0.33655
vn -0.21631 0.01109 0.97626
vn 0.74731 0.10534 0.65607
vn 0.49709 -0.77806 0.38408
vn 0.38979 0.19002 0.90108
vn 0.20629 -0.77921 0.59184
vn 0.17398 0.38134 0.90792
vn 0.04871 0.28820 0.95633
vn -0.05493 0.80598 0.58938
vn -0.07400 0.84578 0.52838
vn 0.01682 0.64887 0.76071
vn 0.02019 -0.99979 -0.00386
vn 0.47819 0.00535 0.87824
vn 0.40337 -0.01585 0.91490
vn 0.64220 0.51461 0.56811
vn 0.39704 0.79578 0.45727
vn -0.04970 0.94569 0.32125
vn 0.14623 -0.98240 0.11622
vn 0.23814 0.73595 0.63377
vn -0.06216 0.51035 0.85772
vn 0.37356 0.72847 0.57427
vn -0.00394 0.30104 -0.95360
vn 0.28782 0.76710 -0.57333
vn -0.04274 0.46588 0.88381
vn 0.16558 0.81485 -0.55552
vn 0.09153 0.98509 -0.14567
vn -0.00582 0.97860 0.20569
vn 0.37189 0.91991 -0.12436
vn 0.11251 0.47888 -0.87064
vn -0.05318 0.38463 -0.92154
vn 0.32678 0.91309 0.24388
vn 0.29798 0.82528 0.47972
vn 0.01248 0.91248 0.40892
vn -0.07324 0.92993 0.36037
vn -0.02377 -0.89540 0.44463
vn 0.15743 0.54140 -0.82590
vn 0.11660 0.88901 -0.44278
vn 0.10905 0.99400 -0.00891
vn -0.05355 0.25648 -0.96507
vn 0.16107 0.57265 -0.80382
vn 0.35345 0.71107 -0.60782
vn 0.45250 0.81642 -0.35874
vn 0.60779 0.78989 0.08171
vn 0.12011 0.29320 -0.94847
vn 0.16958 0.09666 -0.98076
vn 0.17854 0.05667 -0.98230
vn -0.03863 0.15615 -0.98698
vn -0.01642 -0.97349 -0.22813
vn -0.11496 0.02332 -0.99310
vn 0.00921 -0.96560 -0.25986
vn -0.02170 0.09938 -0.99481
vn -0.02957 -0.08885 -0.99561
vn 0.45500 0.59968 -0.65830
vn 0.67963 0.55613 -0.47836
vn 0.23872 0.30453 -0.92210
vn 0.22815 -0.17275 -0.95818
vn 0.23230 0.03083 -0.97216
vn 0.15420 -0.90307 -0.40086
vn 0.78875 0.26507 -0.55463
vn 0.92398 -0.31231 -0.22075
vn 0.81341 0.57189 -0.10630
vn 0.52118 0.24110 -0.81868
vn 0.57002 -0.03430 0.82092
vn 0.79463 0.54083 0.27581
vn 0.33573 0.42788 0.83917
vn -0.92664 -0.19751 -0.31990
vn -0.58367 -0.64358 -0.49511
vn 0.67638 0.05952 0.73415
vn 0.21541 0.51714 0.82835
vn 0.42460 -0.11972 0.89743
vn 0.47310 0.16689 0.86506
vn 0.47225 -0.26957 0.83923
vn 0.38340 0.10408 0.91770
vn 0.54404 0.06146 0.83680
vn 0.79493 -0.07005 0.60264
vn 0.45226 -0.39039 0.80191
vn 0.80072 -0.31568 0.50911
vn 0.37242 0.38250 0.84558
vn 0.94210 -0.19166 -0.27515
vn -0.02146 -0.35825 -0.93338
vn 0.64319 -0.17940 0.74439
vn -0.06562 -0.40838 0.91045
vn 0.13270 0.81425 -0.56514
vn 0.28649 0.20271 -0.93639
vn 0.61295 -0.16390 -0.77293
vn 0.99625 0.07560 0.04201
vn 0.98447 0.03062 0.17285
vn 0.79530 -0.54383 -0.26786
vn 0.96763 0.22813 -0.10795
vn 0.68280 -0.28643 -0.67212
vn 0.71171 0.29241 0.63872
vn 0.93433 0.06031 0.35127
vn 0.91151 -0.31025 -0.27000
vn 0.97887 -0.01828 0.20367
vn 0.98611 -0.05302 0.15743
vn 0.91742 -0.19803 0.34516
vn 0.92397 -0.04778 0.37947
vn 0.81321 -0.20872 0.54326
vn 0.04913 -0.18028 -0.98239
vn 0.98678 -0.11350 0.11571
vn 0.80011 -0.55708 -0.22245
vn 0.74206 -0.49917 -0.44741
vn -0.28391 0.29827 -0.91128
vn -0.28391 0.29827 -0.91128
vn -0.28391 0.29827 -0.91128
vn -0.26772 -0.28870 -0.91923
vn -0.26772 -0.28870 -0.91923
vn -0.26772 -0.28870 -0.91923
vn 0.65037 -0.47238 -0.59488
vn 0.65037 -0.47238 -0.59488
vn 0.65037 -0.47238 -0.59488
vn 0.54230 0.58436 -0.60368
vn 0.54230 0.58436 -0.60368
vn 0.54230 0.58436 -0.60368
vn -0.86130 0.42275 0.28187
vn -0.86130 0.42275 0.28187
vn -0.86130 0.42275 0.28187
vn 0.99801 -0.06301 -0.00376
vn 0.99801 -0.06301 -0.00376
vn 0.99801 -0.06301 -0.00376
vn -0.15480 0.03800 -0.98721
vn -0.15480 0.03800 -0.98721
vn -0.15480 0.03800 -0.98721
vn -0.11424 -0.64181 -0.75830
vn -0.11424 -0.64181 -0.75830
vn -0.11424 -0.64181 -0.75830
vn -0.88004 -0.40903 -0.24130
vn -0.88004 -0.40903 -0.24130
vn -0.88004 -0.40903 -0.24130
vn 0.16200 0.98499 -0.05957
vn 0.16200 0.98499 -0.05957
vn 0.16200 0.98499 -0.05957
vn 0.33410 0.69979 0.63141
vn 0.33410 0.69979 0.63141
vn 0.33410 0.69979 0.63141
vn -0.33410 0.69979 0.63141
vn -0.33410 0.69979 0.63141
vn -0.33410 0.69979 0.63141
f 12//12 4//4 2//2
f 2//2 1//1 173//173
f 86//86 1//1 3//3
f 5//5 86//86 8//8
f 36//36 5//5 8//8
f 11//11 6//6 5//5
f 187//187 73//73 167//167
f 57//57 72//72 84//84
f 13//13 209//209 62//62
f 211//211 13//13 175//175
f 13//13 62//62 175//175
f 17//17 163//163 18//18
f 16//16 159//159 17//17
f 24//24 17//17 18//18
f 24//24 18//18 214//214
f 21//21 24//24 214//214
f 31//31 32//32 227//227
f 31//31 227//227 33//33
f 17//17 20//20 16//16
f 218//218 32//32 31//31
f 218//218 25//25 216//216
f 216//216 25//25 21//21
f 21//21 214//214 216//216
f 24//24 21//21 25//25
f 28//28 24//24 25//25
f 31//31 25//25 218//218
f 29//29 30//30 34//34
f 28//28 25//25 31//31
f 33//33 28//28 31//31
f 35//35 362//362 34//34
f 35//35 34//34 30//30
f 228//228 15//15 163//163
f 41//41 42//42 39//39
f 42//42 40//40 39//39
f 171//171 43//43 160//160
f 270//270 46//46 238//238
f 48//48 47//47 46//46
f 46//46 47//47 238//238
f 40//40 42//42 48//48
f 37//37 64//64 165//165
f 81//81 38//38 45//45
f 38//38 40//40 45//45
f 38//38 39//39 40//40
f 81//81 61//61 38//38
f 39//39 51//51 41//41
f 39//39 54//54 51//51
f 61//61 52//52 38//38
f 38//38 54//54 39//39
f 38//38 52//52 54//54
f 169//169 53//53 52//52
f 54//54 116//116 51//51
f 52//52 53//53 54//54
f 169//169 168//168 53//53
f 168//168 78//78 53//53
f 54//54 82//82 116//116
f 53//53 78//78 82//82
f 53//53 82//82 54//54
f 79//79 80//80 78//78
f 71//71 55//55 179//179
f 71//71 179//179 77//77
f 177//177 55//55 71//71
f 74//74 56//56 178//178
f 56//56 74//74 72//72
f 56//56 72//72 57//57
f 65//65 68//68 189//189
f 52//52 61//61 65//65
f 169//169 52//52 65//65
f 7//7 6//6 11//11
f 7//7 173//173 6//6
f 3//3 1//1 4//4
f 8//8 86//86 3//3
f 1//1 2//2 4//4
f 64//64 171//171 172//172
f 46//46 270//270 45//45
f 47//47 50//50 49//49
f 48//48 50//50 47//47
f 172//172 165//165 64//64
f 44//44 37//37 81//81
f 61//61 81//81 37//37
f 61//61 37//37 63//63
f 200//200 178//178 181//181
f 77//77 179//179 363//363
f 65//65 61//61 201//201
f 186//186 67//67 360//360
f 189//189 168//168 169//169
f 76//76 68//68 65//65
f 68//68 69//69 66//66
f 66//66 69//69 70//70
f 69//69 71//71 70//70
f 69//69 177//177 71//71
f 181//181 177//177 69//69
f 83//83 59//59 84//84
f 72//72 60//60 84//84
f 187//187 9//9 75//75
f 84//84 58//58 57//57
f 68//68 66//66 186//186
f 68//68 186//186 189//189
f 75//75 9//9 10//10
f 178//178 73//73 74//74
f 64//64 44//44 171//171
f 63//63 201//201 61//61
f 74//74 60//60 72//72
f 59//59 58//58 84//84
f 83//83 60//60 85//85
f 168//168 79//79 78//78
f 82//82 80//80 117//117
f 78//78 80//80 82//82
f 8//8 3//3 174//174
f 18//18 163//163 15//15
f 171//171 44//44 43//43
f 45//45 44//44 81//81
f 44//44 45//45 270//270
f 270//270 43//43 44//44
f 45//45 40//40 46//46
f 188//188 85//85 75//75
f 188//188 75//75 10//10
f 79//79 168//168 360//360
f 70//70 71//71 77//77
f 70//70 77//77 180//180
f 66//66 70//70 182//182
f 60//60 83//83 84//84
f 85//85 60//60 75//75
f 383//383 384//384 385//385
f 386//386 387//387 388//388
f 389//389 390//390 391//391
f 87//87 6//6 88//88
f 87//87 90//90 86//86
f 95//95 89//89 93//93
f 92//92 87//87 88//88
f 91//91 1//1 90//90
f 91//91 93//93 1//1
f 87//87 91//91 90//90
f 392//392 393//393 394//394
f 92//92 158//158 87//87
f 87//87 158//158 91//91
f 158//158 92//92 94//94
f 91//91 158//158 95//95
f 95//95 93//93 91//91
f 99//99 111//111 97//97
f 111//111 151//151 97//97
f 123//123 105//105 156//156
f 123//123 156//156 155//155
f 105//105 103//103 102//102
f 105//105 102//102 156//156
f 103//103 99//99 98//98
f 103//103 98//98 102//102
f 99//99 97//97 98//98
f 104//104 98//98 100//100
f 106//106 104//104 107//107
f 104//104 100//100 101//101
f 104//104 101//101 107//107
f 154//154 42//42 122//122
f 114//114 129//129 105//105
f 114//114 105//105 123//123
f 129//129 134//134 103//103
f 129//129 103//103 105//105
f 134//134 96//96 99//99
f 134//134 99//99 103//103
f 96//96 111//111 99//99
f 395//395 396//396 397//397
f 96//96 110//110 111//111
f 108//108 106//106 125//125
f 108//108 125//125 121//121
f 121//121 125//125 119//119
f 122//122 42//42 41//41
f 118//118 51//51 116//116
f 117//117 112//112 82//82
f 122//122 41//41 118//118
f 112//112 116//116 82//82
f 118//118 41//41 51//51
f 114//114 122//122 118//118
f 115//115 118//118 116//116
f 126//126 117//117 302//302
f 117//117 126//126 112//112
f 113//113 115//115 116//116
f 113//113 116//116 112//112
f 114//114 118//118 115//115
f 154//154 122//122 123//123
f 119//119 50//50 121//121
f 155//155 154//154 123//123
f 122//122 114//114 123//123
f 119//119 124//124 49//49
f 119//119 125//125 120//120
f 119//119 49//49 50//50
f 125//125 106//106 107//107
f 125//125 107//107 120//120
f 129//129 114//114 115//115
f 129//129 115//115 128//128
f 126//126 302//302 130//130
f 128//128 115//115 113//113
f 113//113 112//112 127//127
f 127//127 112//112 126//126
f 127//127 126//126 130//130
f 131//131 130//130 302//302
f 134//134 129//129 128//128
f 134//134 128//128 133//133
f 133//133 128//128 132//132
f 132//132 128//128 113//113
f 127//127 135//135 132//132
f 137//137 135//135 127//127
f 137//137 138//138 136//136
f 137//137 136//136 135//135
f 139//139 140//140 138//138
f 139//139 138//138 137//137
f 131//131 142//142 141//141
f 132//132 113//113 127//127
f 137//137 127//127 130//130
f 137//137 130//130 139//139
f 130//130 141//141 139//139
f 141//141 130//130 131//131
f 146//146 134//134 145//145
f 145//145 134//134 133//133
f 133//133 132//132 143//143
f 145//145 133//133 144//144
f 144//144 133//133 143//143
f 146//146 145//145 150//150
f 150//150 145//145 144//144
f 144//144 143//143 147//147
f 150//150 144//144 149//149
f 96//96 134//134 146//146
f 146//146 150//150 109//109
f 146//146 109//109 96//96
f 154//154 50//50 42//42
f 50//50 48//48 42//42
f 48//48 46//46 40//40
f 28//28 152//152 27//27
f 35//35 30//30 152//152
f 27//27 152//152 30//30
f 27//27 30//30 23//23
f 153//153 27//27 23//23
f 153//153 23//23 20//20
f 154//154 155//155 108//108
f 154//154 108//108 121//121
f 98//98 97//97 100//100
f 157//157 97//97 151//151
f 37//37 44//44 64//64
f 24//24 153//153 17//17
f 27//27 153//153 24//24
f 27//27 24//24 28//28
f 28//28 33//33 152//152
f 33//33 35//35 152//152
f 17//17 153//153 20//20
f 8//8 9//9 36//36
f 121//121 50//50 154//154
f 106//106 108//108 155//155
f 106//106 155//155 156//156
f 104//104 106//106 156//156
f 104//104 156//156 102//102
f 98//98 104//104 102//102
f 143//143 132//132 147//147
f 132//132 135//135 147//147
f 6//6 86//86 5//5
f 174//174 166//166 9//9
f 8//8 174//174 9//9
f 63//63 162//162 184//184
f 89//89 1//1 93//93
f 88//88 94//94 92//92
f 13//13 211//211 210//210
f 164//164 163//163 17//17
f 228//228 171//171 160//160
f 164//164 172//172 163//163
f 163//163 171//171 228//228
f 170//170 11//11 161//161
f 2//2 175//175 12//12
f 175//175 2//2 173//173
f 176//176 175//175 173//173
f 172//172 164//164 165//165
f 187//187 36//36 9//9
f 183//183 167//167 73//73
f 36//36 187//187 167//167
f 162//162 167//167 183//183
f 161//161 63//63 37//37
f 188//188 10//10 166//166
f 161//161 162//162 63//63
f 159//159 164//164 17//17
f 175//175 62//62 12//12
f 36//36 167//167 5//5
f 189//189 186//186 168//168
f 164//164 159//159 170//170
f 170//170 165//165 164//164
f 163//163 172//172 171//171
f 165//165 161//161 37//37
f 165//165 170//170 161//161
f 11//11 162//162 161//161
f 167//167 162//162 11//11
f 9//9 166//166 10//10
f 7//7 176//176 173//173
f 158//158 94//94 95//95
f 94//94 88//88 95//95
f 89//89 95//95 88//88
f 88//88 173//173 89//89
f 159//159 175//175 176//176
f 159//159 176//176 170//170
f 211//211 159//159 16//16
f 159//159 211//211 175//175
f 176//176 7//7 170//170
f 16//16 19//19 14//14
f 16//16 14//14 211//211
f 16//16 20//20 19//19
f 20//20 22//22 19//19
f 20//20 23//23 26//26
f 20//20 26//26 22//22
f 23//23 29//29 26//26
f 33//33 227//227 35//35
f 227//227 362//362 35//35
f 30//30 29//29 23//23
f 170//170 7//7 11//11
f 11//11 5//5 167//167
f 182//182 180//180 272//272
f 181//181 69//69 68//68
f 70//70 180//180 182//182
f 183//183 73//73 178//178
f 184//184 162//162 197//197
f 199//199 201//201 63//63
f 199//199 63//63 184//184
f 197//197 183//183 195//195
f 198//198 76//76 201//201
f 198//198 191//191 185//185
f 198//198 196//196 191//191
f 184//184 197//197 190//190
f 195//195 192//192 197//197
f 196//196 193//193 191//191
f 191//191 194//194 185//185
f 197//197 192//192 190//190
f 168//168 186//186 360//360
f 73//73 187//187 74//74
f 74//74 187//187 75//75
f 74//74 75//75 60//60
f 65//65 201//201 76//76
f 65//65 189//189 169//169
f 196//196 199//199 193//193
f 190//190 193//193 184//184
f 184//184 193//193 199//199
f 193//193 190//190 191//191
f 194//194 191//191 190//190
f 185//185 194//194 192//192
f 200//200 198//198 185//185
f 199//199 198//198 201//201
f 195//195 200//200 185//185
f 398//398 399//399 400//400
f 178//178 195//195 183//183
f 183//183 197//197 162//162
f 194//194 190//190 192//192
f 200//200 76//76 198//198
f 76//76 200//200 181//181
f 181//181 68//68 76//76
f 185//185 192//192 195//195
f 195//195 178//178 200//200
f 177//177 181//181 178//178
f 177//177 178//178 56//56
f 55//55 177//177 56//56
f 55//55 56//56 57//57
f 179//179 55//55 57//57
f 179//179 57//57 58//58
f 363//363 179//179 58//58
f 186//186 66//66 182//182
f 182//182 67//67 186//186
f 182//182 272//272 67//67
f 4//4 351//351 352//352
f 12//12 351//351 4//4
f 348//348 352//352 202//202
f 204//204 348//348 202//202
f 206//206 352//352 348//348
f 206//206 174//174 4//4
f 174//174 3//3 4//4
f 12//12 209//209 354//354
f 62//62 209//209 12//12
f 213//213 215//215 254//254
f 215//215 15//15 254//254
f 14//14 19//19 212//212
f 212//212 19//19 22//22
f 213//213 212//212 347//347
f 217//217 216//216 214//214
f 217//217 214//214 215//215
f 220//220 218//218 217//217
f 346//346 213//213 347//347
f 401//401 402//402 403//403
f 347//347 22//22 26//26
f 218//218 216//216 217//217
f 32//32 218//218 220//220
f 32//32 220//220 224//224
f 215//215 18//18 15//15
f 26//26 29//29 221//221
f 221//221 29//29 225//225
f 223//223 224//224 220//220
f 225//225 222//222 221//221
f 227//227 32//32 224//224
f 227//227 224//224 226//226
f 222//222 223//223 219//219
f 225//225 29//29 34//34
f 225//225 34//34 362//362
f 226//226 224//224 223//223
f 222//222 362//362 226//226
f 228//228 254//254 15//15
f 234//234 240//240 229//229
f 230//230 240//240 234//234
f 232//232 234//234 229//229
f 233//233 234//234 232//232
f 235//235 234//234 233//233
f 266//266 160//160 43//43
f 236//236 43//43 270//270
f 238//238 47//47 237//237
f 237//237 47//47 49//49
f 237//237 49//49 345//345
f 251//251 253//253 231//231
f 251//251 231//231 229//229
f 234//234 235//235 230//230
f 229//229 240//240 251//251
f 251//251 239//239 359//359
f 230//230 311//311 242//242
f 230//230 242//242 241//241
f 251//251 240//240 239//239
f 240//240 230//230 241//241
f 239//239 240//240 241//241
f 359//359 239//239 252//252
f 239//239 244//244 252//252
f 239//239 241//241 244//244
f 241//241 242//242 245//245
f 241//241 245//245 244//244
f 252//252 244//244 243//243
f 80//80 310//310 117//117
f 261//261 363//363 246//246
f 260//260 246//246 264//264
f 260//260 261//261 246//246
f 259//259 260//260 264//264
f 248//248 375//375 374//374
f 263//263 366//366 264//264
f 264//264 250//250 262//262
f 264//264 262//262 263//263
f 359//359 373//373 251//251
f 355//355 207//207 204//204
f 355//355 204//204 203//203
f 238//238 232//232 270//270
f 233//233 237//237 345//345
f 237//237 233//233 238//238
f 236//236 231//231 267//267
f 251//251 247//247 253//253
f 267//267 231//231 253//253
f 257//257 259//259 366//366
f 261//261 77//77 363//363
f 258//258 365//365 260//260
f 373//373 382//382 251//251
f 271//271 360//360 67//67
f 256//256 252//252 243//243
f 256//256 243//243 271//271
f 260//260 364//364 261//261
f 364//364 180//180 77//77
f 364//364 77//77 261//261
f 274//274 269//269 59//59
f 274//274 59//59 83//83
f 265//265 371//371 372//372
f 269//269 262//262 250//250
f 269//269 250//250 273//273
f 255//255 256//256 271//271
f 255//255 271//271 365//365
f 371//371 205//205 358//358
f 271//271 67//67 365//365
f 366//366 263//263 265//265
f 236//236 267//267 266//266
f 247//247 251//251 381//381
f 382//382 381//381 251//251
f 249//249 382//382 373//373
f 265//265 372//372 366//366
f 243//243 80//80 79//79
f 59//59 269//269 273//273
f 59//59 273//273 58//58
f 265//265 263//263 262//262
f 265//265 262//262 268//268
f 274//274 83//83 85//85
f 360//360 243//243 79//79
f 371//371 268//268 205//205
f 352//352 206//206 4//4
f 266//266 43//43 236//236
f 232//232 229//229 231//231
f 232//232 231//231 236//236
f 236//236 270//270 232//232
f 188//188 358//358 205//205
f 365//365 67//67 272//272
f 244//244 245//245 310//310
f 365//365 272//272 364//364
f 243//243 244//244 310//310
f 243//243 310//310 80//80
f 268//268 262//262 269//269
f 268//268 269//269 274//274
f 188//188 205//205 274//274
f 205//205 268//268 274//274
f 275//275 352//352 351//351
f 404//404 405//405 406//406
f 279//279 280//280 203//203
f 278//278 276//276 352//352
f 277//277 202//202 276//276
f 407//407 408//408 409//409
f 284//284 276//276 278//278
f 277//277 279//279 203//203
f 281//281 283//283 278//278
f 284//284 278//278 283//283
f 277//277 276//276 284//284
f 279//279 277//277 282//282
f 277//277 284//284 282//282
f 284//284 283//283 282//282
f 281//281 280//280 282//282
f 295//295 293//293 344//344
f 344//344 293//293 343//343
f 314//314 290//290 289//289
f 314//314 289//289 297//297
f 297//297 289//289 349//349
f 297//297 349//349 296//296
f 296//296 349//349 285//285
f 296//296 285//285 295//295
f 295//295 285//285 293//293
f 290//290 291//291 287//287
f 287//287 294//294 285//285
f 291//291 288//288 287//287
f 287//287 288//288 286//286
f 287//287 286//286 294//294
f 307//307 314//314 297//297
f 307//307 297//297 318//318
f 318//318 297//297 296//296
f 318//318 296//296 323//323
f 323//323 296//296 295//295
f 323//323 295//295 344//344
f 344//344 298//298 292//292
f 300//300 299//299 345//345
f 299//299 301//301 345//345
f 312//312 230//230 235//235
f 308//308 303//303 242//242
f 311//311 308//308 242//242
f 312//312 311//311 230//230
f 303//303 245//245 242//242
f 307//307 306//306 311//311
f 309//309 245//245 303//303
f 307//307 311//311 312//312
f 319//319 302//302 310//310
f 306//306 308//308 311//311
f 310//310 245//245 319//319
f 302//302 117//117 310//310
f 305//305 303//303 308//308
f 319//319 245//245 309//309
f 306//306 305//305 308//308
f 313//313 314//314 301//301
f 299//299 313//313 301//301
f 235//235 301//301 312//312
f 290//290 314//314 313//313
f 312//312 314//314 307//307
f 291//291 313//313 299//299
f 312//312 301//301 314//314
f 304//304 291//291 299//299
f 304//304 299//299 300//300
f 300//300 315//315 304//304
f 300//300 345//345 49//49
f 124//124 300//300 49//49
f 304//304 315//315 288//288
f 304//304 288//288 291//291
f 318//318 317//317 306//306
f 318//318 306//306 307//307
f 317//317 305//305 306//306
f 305//305 316//316 303//303
f 316//316 324//324 309//309
f 316//316 309//309 303//303
f 324//324 319//319 309//309
f 323//323 322//322 318//318
f 331//331 131//131 302//302
f 331//331 302//302 319//319
f 322//322 321//321 317//317
f 322//322 317//317 318//318
f 321//321 320//320 317//317
f 320//320 316//316 305//305
f 320//320 305//305 317//317
f 327//327 324//324 325//325
f 327//327 325//325 326//326
f 327//327 326//326 328//328
f 329//329 327//327 328//328
f 329//329 328//328 330//330
f 131//131 331//331 332//332
f 131//131 332//332 142//142
f 327//327 329//329 319//319
f 327//327 319//319 324//324
f 319//319 329//329 331//331
f 341//341 334//334 322//322
f 341//341 322//322 323//323
f 334//334 333//333 321//321
f 334//334 321//321 322//322
f 333//333 335//335 320//320
f 333//333 320//320 321//321
f 334//334 342//342 333//333
f 342//342 335//335 333//333
f 341//341 339//339 334//334
f 339//339 342//342 334//334
f 342//342 337//337 335//335
f 340//340 339//339 341//341
f 339//339 338//338 342//342
f 344//344 341//341 323//323
f 341//341 344//344 292//292
f 341//341 292//292 340//340
f 301//301 235//235 345//345
f 345//345 235//235 233//233
f 220//220 219//219 223//223
f 223//223 222//222 226//226
f 219//219 221//221 222//222
f 313//313 291//291 290//290
f 285//285 294//294 293//293
f 350//350 343//343 293//293
f 233//233 232//232 238//238
f 215//215 213//213 217//217
f 217//217 213//213 346//346
f 219//219 220//220 217//217
f 219//219 217//217 346//346
f 221//221 219//219 346//346
f 221//221 346//346 347//347
f 207//207 372//372 204//204
f 287//287 349//349 289//289
f 287//287 289//289 290//290
f 285//285 349//349 287//287
f 320//320 335//335 324//324
f 320//320 324//324 316//316
f 335//335 337//337 324//324
f 324//324 337//337 325//325
f 203//203 204//204 202//202
f 206//206 166//166 174//174
f 209//209 13//13 210//210
f 247//247 380//380 248//248
f 351//351 353//353 275//275
f 275//275 281//281 278//278
f 279//279 282//282 280//280
f 282//282 283//283 281//281
f 209//209 210//210 354//354
f 357//357 213//213 254//254
f 354//354 212//212 213//213
f 355//355 208//208 248//248
f 371//371 358//358 206//206
f 371//371 206//206 348//348
f 254//254 266//266 357//357
f 254//254 356//356 266//266
f 353//353 354//354 361//361
f 357//357 266//266 267//267
f 208//208 253//253 247//247
f 188//188 166//166 358//358
f 208//208 247//247 248//248
f 351//351 354//354 353//353
f 354//354 351//351 12//12
f 228//228 356//356 254//254
f 348//348 204//204 372//372
f 359//359 252//252 256//256
f 243//243 360//360 271//271
f 357//357 361//361 213//213
f 354//354 213//213 361//361
f 356//356 160//160 266//266
f 253//253 357//357 267//267
f 355//355 361//361 208//208
f 361//361 355//355 353//353
f 357//357 253//253 208//208
f 357//357 208//208 361//361
f 355//355 203//203 353//353
f 248//248 374//374 207//207
f 374//374 372//372 207//207
f 372//372 371//371 348//348
f 206//206 358//358 166//166
f 275//275 353//353 203//203
f 275//275 280//280 281//281
f 280//280 275//275 203//203
f 278//278 352//352 275//275
f 14//14 210//210 211//211
f 210//210 212//212 354//354
f 14//14 212//212 210//210
f 212//212 22//22 347//347
f 347//347 26//26 221//221
f 226//226 362//362 227//227
f 225//225 362//362 222//222
f 248//248 207//207 355//355
f 365//365 364//364 260//260
f 272//272 180//180 364//364
f 259//259 258//258 260//260
f 373//373 255//255 258//258
f 249//249 373//373 258//258
f 374//374 366//366 372//372
f 380//380 375//375 248//248
f 381//381 380//380 247//247
f 375//375 367//367 374//374
f 379//379 369//369 370//370
f 379//379 370//370 368//368
f 380//380 376//376 375//375
f 381//381 368//368 380//380
f 368//368 370//370 378//378
f 375//375 376//376 367//367
f 265//265 268//268 371//371
f 274//274 85//85 188//188
f 255//255 359//359 256//256
f 255//255 373//373 359//359
f 380//380 377//377 376//376
f 380//380 368//368 377//377
f 376//376 377//377 378//378
f 369//369 367//367 376//376
f 377//377 368//368 378//378
f 369//369 378//378 370//370
f 381//381 382//382 368//368
f 257//257 369//369 379//379
f 382//382 249//249 379//379
f 410//410 411//411 412//412
f 379//379 368//368 382//382
f 366//366 374//374 367//367
f 369//369 376//376 378//378
f 257//257 379//379 249//249
f 258//258 259//259 257//257
f 258//258 257//257 249//249
f 367//367 257//257 366//366
f 264//264 366//366 259//259
f 246//246 250//250 264//264
f 363//363 273//273 250//250
f 363//363 250//250 246//246
f 363//363 58//58 273//273
f 258//258 255//255 365//365
f 356//356 228//228 160//160
f 331//331 329//329 330//330
f 140//140 139//139 141//141
f 124//124 119//119 120//120
f 315//315 300//300 124//124
f 100//100 97//97 157//157
f 350//350 293//293 294//294
f 337//337 342//342 338//338
f 149//149 144//144 147//147
f 151//151 111//111 110//110
f 298//298 344//344 343//343
f 315//315 124//124 120//120
f 140//140 141//141 142//142
f 332//332 331//331 330//330
f 298//298 343//343 350//350
f 157//157 151//151 110//110
f 142//142 332//332 330//330
f 140//140 142//142 330//330
f 148//148 147//147 135//135
f 325//325 337//337 336//336
f 101//101 100//100 157//157
f 350//350 294//294 286//286
f 148//148 135//135 136//136
f 326//326 325//325 336//336
f 286//286 288//288 315//315
f 120//120 107//107 101//101
f 336//336 337//337 338//338
f 149//149 147//147 148//148
f 328//328 326//326 336//336
f 148//148 136//136 138//138
f 328//328 336//336 338//338
f 149//149 148//148 138//138
f 413//413 414//414 415//415
f 416//416 417//417 418//418
f 338//338 339//339 340//340
f 338//338 340//340 292//292
f 328//328 338//338 292//292
f 109//109 150//150 149//149
f 109//109 149//149 138//138
f 109//109 138//138 140//140
f 330//330 328//328 292//292
f 140//140 330//330 292//292
f 109//109 140//140 292//292
f 298//298 286//286 315//315
f 120//120 101//101 110//110
f 120//120 110//110 109//109
f 120//120 109//109 292//292
f 315//315 120//120 292//292
f 298//298 315//315 292//292
