# GloomhavenVR haunt figure — CC0, MakeHuman hm08 base mesh.
# See Assets/Editor/haunt_figures_pipeline.py for provenance.
v -0.07402 1.55121 0.11644
v -0.08621 1.57244 0.11193
v -0.09841 1.49346 0.11201
v -0.11933 1.59036 0.10307
v -0.03737 1.50213 0.13512
v -0.04306 1.47332 0.11735
v -0.07189 1.51743 0.09802
v -0.04937 1.45308 0.06430
v -0.01273 1.44938 0.05755
v -0.06438 1.47045 0.03976
v -0.04391 1.38933 0.03721
v -0.05112 1.39448 -0.00551
v -0.04467 1.44444 0.07500
v -0.04185 1.41825 0.05185
v -0.01635 1.39946 0.06746
v -0.07135 1.43661 0.02141
v -0.08272 1.45459 -0.02495
v -0.05505 1.42422 -0.01513
v -0.14911 1.49718 -0.01168
v -0.13306 1.63562 -0.01645
v -0.17425 1.60631 0.03470
v -0.10196 1.52705 0.10955
v -0.09226 1.45491 0.07465
v -0.17850 1.57898 0.03842
v -0.17272 1.53828 0.03580
v -0.17629 1.58933 -0.02084
v -0.03113 1.44911 -0.01931
v -0.01552 1.44117 0.07336
v -0.16292 1.56038 -0.05664
v -0.08449 1.53916 0.09194
v -0.11162 1.51929 0.08503
v -0.15256 1.33264 0.08257
v -0.10967 1.32417 0.10032
v -0.09751 1.26062 0.13066
v -0.06083 1.25040 0.13902
v 0.00135 1.27961 0.11880
v -0.13443 1.27977 0.07928
v -0.12421 1.23575 0.07635
v -0.21182 1.29307 0.05710
v -0.15047 1.26984 0.01379
v -0.14275 1.23997 0.00045
v -0.17091 1.28445 0.03100
v -0.12387 1.27873 0.10277
v -0.18563 1.28176 0.04525
v -0.13303 1.20756 0.03313
v -0.22211 1.32313 0.04657
v -0.18679 1.34174 0.06526
v -0.08095 1.36114 -0.02852
v -0.01959 1.40034 -0.02433
v -0.02841 1.32091 0.10448
v -0.06290 1.36768 0.04428
v -0.03446 1.35603 0.09317
v -0.08866 1.36600 0.00658
v -0.14672 1.33676 -0.04306
v -0.10700 1.26946 -0.05413
v -0.06300 1.34430 -0.04731
v -0.05187 1.28473 -0.05052
v -0.01962 1.33182 -0.05129
v -0.23247 1.32494 0.00879
v -0.21003 1.32618 -0.02884
v -0.15826 1.27046 -0.01136
v -0.19533 1.28459 -0.03191
v -0.16495 1.27295 0.00745
v -0.16295 1.30805 0.06700
v -0.25443 1.25114 -0.01119
v -0.19864 1.22356 0.00557
v -0.21492 1.20971 -0.02165
v -0.25487 1.26841 0.02979
v -0.27702 1.19642 0.05478
v -0.06807 1.19861 0.16240
v -0.03461 1.18075 0.15449
v -0.10363 1.19227 0.14248
v -0.11176 1.20149 0.10275
v -0.08866 1.17085 0.13881
v -0.31858 0.91015 0.30514
v -0.32037 0.93982 0.28647
v -0.31645 0.91999 0.30990
v -0.31399 0.91365 0.29499
v -0.31534 0.87311 0.28621
v -0.31413 0.88751 0.29019
v -0.31399 0.85936 0.26918
v -0.32555 0.88133 0.25034
v -0.32817 0.90057 0.22778
v -0.31612 0.86889 0.25211
v -0.31709 0.87316 0.22704
v -0.29601 0.96972 0.27570
v -0.30969 0.90191 0.31666
v -0.30727 0.97939 0.22096
v -0.33257 0.92363 0.24682
v -0.33270 0.93755 0.18909
v -0.32476 0.92439 0.26730
v -0.32104 0.89614 0.25120
v -0.24788 1.17929 0.05258
v -0.24816 1.13679 0.01955
v -0.28362 1.13363 -0.01215
v -0.29735 1.15157 0.00242
v -0.29364 1.17916 0.03324
v -0.28671 1.16415 0.06232
v -0.28478 1.08683 0.10587
v -0.27158 1.08980 0.07971
v -0.30907 1.10338 0.10895
v -0.31673 1.12867 0.06423
v -0.31329 1.07586 0.04760
v -0.33025 1.07174 0.10999
v -0.32122 1.04576 0.08029
v -0.33565 1.01914 0.13542
v -0.29584 1.04591 0.13254
v -0.33695 0.98760 0.19522
v -0.30349 0.99032 0.26175
v -0.31422 0.97142 0.25033
v -0.32526 1.00165 0.22259
v -0.31947 0.94117 0.24696
v -0.32042 0.91830 0.19202
v -0.31988 1.00145 0.19267
v -0.08436 1.48416 0.07319
v -0.13149 1.35631 0.07979
v -0.32587 1.01916 0.18262
v -0.25210 1.20001 -0.02708
v -0.29509 1.05162 0.07830
v -0.32967 0.97945 0.15602
v -0.32141 0.90261 0.22269
v -0.32081 0.91210 0.24405
v -0.32904 0.94088 0.27599
v -0.08689 1.30733 -0.06225
v -0.14699 1.28468 -0.03485
v -0.16940 1.27100 -0.02258
v -0.26089 1.13481 -0.00915
v -0.26504 1.15108 0.05302
v -0.31676 0.97625 0.16826
v -0.06085 1.22700 -0.04194
v -0.00004 1.24728 -0.04205
v -0.10587 1.18306 -0.00832
v -0.00570 1.17094 -0.02697
v -0.10704 1.13612 0.02346
v -0.11601 1.13670 0.08501
v -0.05816 1.15277 -0.02239
v -0.07463 1.07294 0.00017
v -0.04251 1.10833 -0.01831
v -0.10993 1.08166 0.04603
v -0.03619 1.02040 0.14137
v -0.09606 1.02801 -0.00793
v -0.00413 1.14146 0.16358
v -0.05613 1.09483 0.15036
v -0.06393 1.13977 0.15303
v -0.00289 1.00611 0.13980
v -0.12045 1.04227 0.04383
v -0.11296 1.04681 0.10006
v -0.07042 1.02872 -0.02017
v -0.01473 1.07523 -0.01976
v 0.03002 1.02004 0.14256
v -0.09195 1.04288 0.12242
v -0.14419 0.97376 0.03141
v -0.12161 0.98451 -0.02389
v -0.02678 0.95403 -0.06327
v -0.08121 0.87935 -0.10227
v -0.03612 0.88729 -0.09414
v -0.00360 0.88083 -0.07874
v -0.02463 0.83246 -0.09185
v -0.06647 0.82507 -0.09552
v -0.10676 0.87072 -0.08755
v -0.08723 0.75885 -0.06214
v -0.02781 0.77444 -0.04379
v -0.00253 0.80880 -0.05055
v -0.13562 0.87305 -0.02457
v -0.14648 0.88522 0.04248
v -0.14235 0.85027 0.07888
v -0.14332 0.77993 0.09979
v -0.03928 0.92772 0.14056
v -0.07640 0.88968 0.11935
v -0.11689 0.92011 0.10496
v -0.09725 0.84637 0.11591
v -0.06779 0.85265 0.11681
v -0.02588 0.87409 0.13658
v -0.10700 0.98658 0.11162
v -0.01889 0.77318 -0.00738
v -0.02481 0.78121 0.06960
v 0.00819 0.93049 -0.06917
v -0.07645 0.92829 -0.08606
v -0.13565 0.96292 0.08149
v -0.04427 0.80562 0.10339
v -0.09552 0.77352 0.11399
v -0.08257 0.71989 0.10078
v -0.12729 0.79697 0.11013
v -0.04772 0.75175 0.07960
v -0.06366 0.73779 -0.04128
v -0.10908 0.77307 -0.06036
v -0.14758 0.79873 0.00767
v -0.03708 0.74782 0.00448
v -0.10215 0.70266 -0.05589
v -0.13205 0.78401 -0.04397
v -0.14926 0.72090 -0.02203
v -0.16471 0.65555 0.05099
v -0.15560 0.76390 0.07114
v -0.09601 0.67421 0.09522
v -0.08079 0.64832 0.05878
v -0.06917 0.66479 0.01019
v -0.08089 0.68030 -0.03261
v -0.11733 0.64136 -0.04673
v -0.12225 0.56767 0.09057
v -0.14614 0.67721 0.11200
v -0.15955 0.61010 0.09881
v -0.14570 0.57123 -0.03506
v -0.16893 0.56508 -0.01170
v -0.12464 0.53429 0.06352
v -0.17600 0.53917 0.05785
v -0.14558 0.51019 0.08052
v -0.17528 0.49512 -0.02412
v -0.15498 0.56781 0.10118
v -0.16980 0.50470 0.08723
v -0.14892 0.48892 -0.01987
v -0.18861 0.46773 0.04041
v -0.16499 0.48153 -0.03463
v -0.18707 0.41935 -0.04755
v -0.19815 0.41712 -0.00003
v -0.17274 0.45572 0.08660
v -0.19398 0.34288 -0.06716
v -0.16086 0.42040 -0.01505
v -0.18146 0.35527 -0.06208
v -0.17619 0.31990 -0.01813
v -0.20019 0.29659 -0.03605
v -0.19542 0.26591 -0.05421
v -0.19210 0.24697 0.00939
v -0.20015 0.21365 -0.02694
v -0.19814 0.31413 0.04415
v -0.20071 0.14987 0.00957
v -0.20075 0.21142 0.04271
v -0.20219 0.14506 0.03904
v -0.09898 1.54544 0.10595
v -0.20836 -0.05555 0.08172
v -0.20790 -0.06442 0.11112
v -0.20800 -0.06326 0.09087
v -0.20666 -0.06052 0.10906
v -0.20728 -0.05127 0.08347
v -0.20552 -0.04680 0.08548
v -0.06539 1.51776 0.12608
v -0.11182 1.54549 0.07969
v -0.03885 1.46629 0.13265
v -0.12466 1.52688 0.10075
v -0.06158 1.48606 0.12442
v -0.16412 1.53275 -0.03979
v -0.12359 1.60519 -0.06197
v -0.12688 1.51573 -0.06942
v -0.14504 1.56657 0.09163
v -0.12422 1.63749 0.05793
v -0.13935 1.48866 0.03319
v -0.14047 1.47130 0.02222
v -0.12480 1.48853 0.07417
v -0.11760 1.45776 0.03992
v -0.11015 1.46568 0.02756
v -0.20571 -0.04580 0.06340
v -0.20399 -0.05462 0.09783
v -0.20110 -0.04509 0.07937
v -0.19524 -0.02907 0.06192
v -0.19501 -0.03642 0.05163
v -0.20729 -0.04136 0.10086
v -0.20414 0.08235 0.04309
v -0.20787 -0.01017 0.02623
v -0.20753 0.01927 -0.00746
v -0.20576 0.07683 -0.08140
v -0.20360 0.12247 -0.02478
v -0.03385 0.75340 0.04458
v -0.13506 0.49235 0.01948
v -0.15849 0.42661 0.04375
v -0.18019 0.34164 0.02832
v -0.20508 0.03557 0.05484
v 0.01639 0.77937 0.06922
v -0.19846 0.06968 -0.00706
v -0.19848 0.04620 -0.05310
v -0.19904 -0.00133 0.00649
v -0.20647 -0.02129 0.08140
v -0.20849 0.04783 -0.05486
v -0.11130 0.56574 -0.00849
v -0.13825 0.66784 -0.04724
v -0.15592 0.68297 0.09685
v -0.13078 0.64415 0.11160
v -0.02480 1.57782 0.07745
v -0.05935 1.55899 0.09838
v -0.04744 1.58106 0.09388
v -0.03329 1.59396 0.05933
v -0.04378 1.53927 0.11695
v -0.01669 1.51626 0.11505
v -0.04926 1.52641 0.11845
v -0.01721 1.49381 0.12291
v -0.00437 1.48761 0.07035
v -0.02368 1.52887 0.06254
v -0.05701 1.50906 0.04849
v -0.02164 1.49861 0.03261
v 0.01313 1.48987 0.09472
v 0.00565 1.49209 0.03347
v 0.05279 1.41693 0.02973
v 0.04441 1.43296 -0.01366
v 0.01104 1.41296 -0.02378
v 0.05918 1.40368 -0.03739
v -0.09131 1.62760 -0.04602
v 0.00424 1.46050 0.05777
v -0.03220 1.52168 -0.05065
v -0.02416 1.55948 -0.03126
v -0.08267 1.57851 -0.08226
v -0.04234 1.60769 -0.02512
v -0.04594 1.62234 0.01329
v -0.08568 1.64701 0.01380
v -0.01480 1.45509 0.12544
v -0.00108 1.53223 0.02277
v -0.07675 1.50833 -0.07233
v -0.03354 1.57086 0.08834
v -0.05984 1.56145 0.06656
v -0.06120 1.58334 0.07909
v 0.11266 1.28820 0.11220
v 0.19426 1.37874 0.06674
v 0.14089 1.39367 0.08100
v 0.15228 1.43671 0.00342
v 0.08658 1.31996 0.10937
v 0.08981 1.37614 0.08788
v 0.11639 1.40965 0.04253
v 0.16506 1.30257 0.05977
v 0.13621 1.28034 0.07609
v 0.17587 1.27743 0.03352
v 0.15375 1.30977 0.07626
v 0.11712 1.25091 0.11677
v 0.21951 1.36783 0.04423
v 0.18318 1.42063 0.05533
v 0.14888 1.42784 0.05004
v 0.24597 1.28529 0.03428
v 0.10574 1.41629 -0.00387
v 0.02726 1.39256 0.07167
v 0.05594 1.36753 0.08676
v 0.09529 1.41091 0.01953
v 0.00860 1.34724 0.09643
v 0.03620 1.33617 -0.05201
v 0.16024 1.41000 -0.02633
v 0.19163 1.42375 -0.00228
v 0.14066 1.32652 -0.04793
v 0.08005 1.35277 -0.05000
v 0.08212 1.30283 -0.06109
v 0.08835 1.23325 -0.03822
v 0.05378 1.28766 -0.05056
v 0.03821 1.20371 -0.03903
v 0.17554 1.36217 -0.04026
v 0.20317 1.38049 -0.01996
v 0.21232 1.32493 -0.02714
v 0.23872 1.31702 0.00345
v 0.22257 1.37257 0.01241
v 0.24523 1.28321 -0.00627
v 0.19891 1.29208 -0.03303
v 0.17432 1.26299 -0.02204
v 0.22551 1.30589 0.04835
v 0.12958 1.22739 -0.01359
v 0.23200 1.20984 0.05216
v 0.27731 1.21100 0.00402
v 0.24625 1.22288 -0.02690
v 0.21863 1.20626 -0.02278
v 0.20861 1.20812 0.00797
v 0.25399 1.22383 0.05745
v 0.27575 1.21765 0.04106
v 0.08593 1.20249 0.15863
v 0.03321 1.19301 0.15430
v 0.01629 1.24658 0.13413
v 0.31986 0.94145 0.28063
v 0.32435 0.92383 0.29422
v 0.31650 0.91684 0.28789
v 0.31220 0.90936 0.31400
v 0.31084 0.86978 0.29993
v 0.32970 0.91602 0.26045
v 0.31827 0.90797 0.26694
v 0.31894 0.88980 0.24404
v 0.31420 0.85775 0.26498
v 0.32290 0.89158 0.21267
v 0.30829 0.96948 0.25728
v 0.32013 0.89300 0.28597
v 0.31699 0.87671 0.27925
v 0.32579 0.88408 0.24220
v 0.32388 0.89424 0.25386
v 0.31595 0.86984 0.23081
v 0.32005 0.91147 0.24331
v 0.32630 0.88811 0.21972
v 0.30265 0.99020 0.24328
v 0.32820 0.91346 0.24430
v 0.33556 0.94352 0.22579
v 0.32640 0.93188 0.26372
v 0.32490 0.90105 0.22650
v 0.23773 1.15612 0.01927
v 0.26769 1.17564 -0.02285
v 0.30684 1.13884 0.02011
v 0.25905 1.14705 0.04719
v 0.28398 1.13903 -0.01372
v 0.30288 1.16066 0.04728
v 0.28114 1.16644 0.05820
v 0.29817 1.13268 0.08846
v 0.25686 1.11927 0.03004
v 0.29159 1.10350 0.01274
v 0.26587 1.10352 0.07460
v 0.32400 1.09939 0.08200
v 0.29087 1.05651 0.12004
v 0.31824 1.05403 0.06950
v 0.29509 1.05162 0.07830
v 0.32483 1.03459 0.16906
v 0.33342 1.03446 0.11628
v 0.32955 0.97713 0.15758
v 0.32732 1.00813 0.19686
v 0.29880 0.97926 0.27756
v 0.32807 0.98853 0.23506
v 0.31751 0.95223 0.24370
v 0.31958 0.93859 0.20720
v 0.32452 0.92937 0.18306
v 0.18525 1.32870 0.06755
v 0.20299 1.29514 0.05670
v 0.33778 0.98300 0.18473
v 0.32539 0.94992 0.27243
v 0.31619 0.98679 0.17429
v 0.15015 1.26302 -0.01596
v 0.25190 1.14524 -0.01037
v 0.11022 1.27236 -0.05172
v 0.31909 0.97337 0.16456
v 0.12421 1.23575 0.07635
v 0.13461 1.21499 0.02909
v 0.07391 1.13881 -0.01354
v 0.11139 1.19351 -0.00995
v 0.11141 1.13286 0.04114
v 0.11301 1.08874 0.10037
v 0.05235 1.08248 -0.01470
v 0.09601 1.09758 0.02336
v 0.06855 1.04430 -0.01582
v 0.11809 1.03939 0.08915
v 0.10736 1.07704 0.03655
v 0.10005 1.17744 0.12822
v 0.11274 1.13454 0.09749
v 0.06688 1.08880 0.14550
v 0.05861 1.16923 0.15513
v 0.09833 1.02242 0.11749
v 0.12224 1.02011 0.01303
v 0.02192 1.03195 -0.03124
v -0.01511 1.02129 -0.03267
v 0.07959 1.02027 -0.02249
v 0.11411 0.96533 -0.04155
v 0.08370 0.94472 -0.07420
v 0.07229 0.90130 -0.09917
v 0.01980 0.87542 -0.09191
v 0.04972 0.82072 -0.09480
v 0.01794 0.78658 -0.05806
v 0.10292 0.85344 -0.08947
v 0.06847 0.76443 -0.06530
v 0.14448 0.97167 0.05298
v 0.13389 0.86948 -0.02954
v 0.14499 0.96464 0.02259
v 0.10963 0.89249 -0.08216
v 0.14484 0.85591 0.02279
v 0.13410 0.96228 0.08468
v 0.13816 0.83246 0.08623
v 0.07077 0.70770 0.10467
v 0.02755 0.93111 0.14460
v 0.11259 0.94357 0.10564
v 0.11843 0.86957 0.10672
v 0.08088 0.87410 0.11792
v 0.03447 0.86229 0.13142
v 0.08904 0.79188 0.11494
v -0.00329 0.80334 0.11451
v 0.04044 0.80418 0.10365
v 0.01149 0.77238 0.00998
v 0.04658 0.98272 -0.04891
v 0.11223 0.76976 -0.05488
v 0.13725 0.79163 -0.01888
v 0.12413 0.77414 0.11039
v 0.03398 0.69662 0.00700
v 0.02915 0.75573 -0.03133
v 0.14602 0.75772 0.03477
v 0.11881 0.73071 -0.04717
v 0.05141 0.72669 -0.04115
v 0.09032 0.71036 -0.05955
v 0.11164 0.65306 0.11272
v 0.13905 0.73147 0.09372
v 0.05330 0.60000 -0.02720
v 0.07529 0.64070 -0.04869
v 0.11193 0.65748 -0.03979
v 0.09652 0.64832 -0.04956
v 0.05277 0.56794 0.08960
v 0.03955 0.61176 0.00016
v 0.11896 0.61743 0.00384
v 0.09495 0.57643 0.10403
v 0.11697 0.61069 0.08460
v 0.06832 0.55167 -0.03276
v 0.08984 0.52678 -0.01559
v 0.03955 0.51018 0.06536
v 0.03351 0.47993 0.01979
v 0.03731 0.52625 -0.00253
v 0.08666 0.49404 0.05224
v 0.05309 0.51173 0.08723
v 0.07495 0.50956 0.09068
v 0.07833 0.51618 -0.02803
v 0.05773 0.45281 0.09018
v 0.03640 0.43787 0.06105
v 0.03323 0.47008 0.00598
v 0.05395 0.46958 -0.03186
v 0.06539 0.43645 0.08091
v 0.05198 0.43043 -0.04018
v 0.06584 0.40835 0.04539
v 0.02689 0.43158 0.02540
v 0.04933 0.42420 0.08271
v 0.05347 0.38283 0.06349
v 0.04061 0.35359 0.04991
v 0.04893 0.37292 -0.05727
v 0.07144 0.43714 -0.01444
v 0.02990 0.38395 -0.01437
v 0.04307 0.31524 -0.06744
v 0.03117 0.33704 -0.05019
v 0.05610 0.34468 -0.04223
v 0.05324 0.33262 0.03971
v 0.03272 0.24815 -0.05783
v 0.03605 0.27672 0.04698
v 0.03428 0.24540 0.02810
v 0.02416 0.25643 0.00721
v 0.02148 0.25661 -0.02562
v 0.01039 0.14591 0.01668
v 0.01891 0.19092 -0.02522
v 0.01754 0.17768 0.04681
v -0.01543 -0.07214 0.08638
v -0.01820 -0.07516 0.06713
v -0.00904 1.54990 0.09150
v -0.05799 1.53534 0.13907
v -0.03758 1.51311 0.13241
v -0.00490 1.47182 0.13286
v 0.00137 1.54587 0.03548
v -0.06748 1.61552 0.08217
v -0.01156 1.48629 -0.03154
v -0.07009 1.59294 -0.06914
v -0.01761 1.57698 0.00638
v -0.00455 1.55598 0.01160
v -0.00502 1.55653 -0.00224
v -0.01451 -0.04283 0.06210
v -0.01787 -0.07229 0.08303
v -0.01843 -0.06732 0.06262
v -0.02419 -0.06236 0.06279
v -0.02248 -0.02396 0.03945
v -0.00994 -0.00081 0.04377
v -0.02320 0.02407 -0.02091
v -0.00857 0.06315 0.00983
v 0.00097 0.08303 0.02871
v -0.02139 -0.05988 0.04091
v -0.03084 -0.02804 0.00706
v -0.02611 0.00846 -0.04420
v -0.01838 -0.01624 -0.00016
v -0.01919 0.04052 -0.08749
v -0.01246 0.02634 -0.01876
v -0.01405 0.07325 -0.03792
v -0.01516 0.07347 -0.08607
v -0.00024 0.10809 -0.02972
v 0.02989 0.73439 0.06504
v 0.03244 0.37619 0.03401
v -0.02724 0.03636 -0.07362
v 0.05953 0.63490 0.09120
v 0.04003 0.63456 0.04412
v 0.12900 0.71579 -0.02761
v 0.07921 0.60402 0.10727
v -0.04306 1.47332 0.11735
v -0.06158 1.48606 0.12442
v -0.03737 1.50213 0.13512
v -0.03758 1.51311 0.13241
v -0.06158 1.48606 0.12442
v -0.04926 1.52641 0.11845
v -0.11162 1.51929 0.08503
v -0.12466 1.52688 0.10075
v -0.10196 1.52705 0.10955
v -0.11182 1.54549 0.07969
v -0.09898 1.54544 0.10595
v -0.12466 1.52688 0.10075
v -0.31413 0.88751 0.29019
v -0.32476 0.92439 0.26730
v -0.31534 0.87311 0.28621
v -0.32081 0.91210 0.24405
v -0.32555 0.88133 0.25034
v -0.32104 0.89614 0.25120
v -0.32141 0.90261 0.22269
v -0.32817 0.90057 0.22778
v -0.31709 0.87316 0.22704
v -0.30349 0.99032 0.26175
v -0.31422 0.97142 0.25033
v -0.29601 0.96972 0.27570
v -0.32904 0.94088 0.27599
v -0.32476 0.92439 0.26730
v -0.31399 0.91365 0.29499
v -0.32081 0.91210 0.24405
v -0.31413 0.88751 0.29019
v -0.33257 0.92363 0.24682
v -0.33257 0.92363 0.24682
v -0.31413 0.88751 0.29019
v -0.31534 0.87311 0.28621
v -0.17274 0.45572 0.08660
v -0.19814 0.31413 0.04415
v -0.18019 0.34164 0.02832
v -0.20075 0.21142 0.04271
v -0.19210 0.24697 0.00939
v -0.19814 0.31413 0.04415
v -0.20071 0.14987 0.00957
v -0.20015 0.21365 -0.02694
v -0.20360 0.12247 -0.02478
v -0.10196 1.52705 0.10955
v -0.09898 1.54544 0.10595
v -0.08449 1.53916 0.09194
v -0.11015 1.46568 0.02756
v -0.14047 1.47130 0.02222
v -0.13935 1.48866 0.03319
v -0.20552 -0.04680 0.08548
v -0.20666 -0.06052 0.10906
v -0.20647 -0.02129 0.08140
v -0.19846 0.06968 -0.00706
v -0.20414 0.08235 0.04309
v -0.20219 0.14506 0.03904
v -0.20508 0.03557 0.05484
v -0.20414 0.08235 0.04309
v -0.19846 0.06968 -0.00706
v -0.19848 0.04620 -0.05310
v -0.20753 0.01927 -0.00746
v -0.19904 -0.00133 0.00649
v -0.20728 -0.05127 0.08347
v -0.20729 -0.04136 0.10086
v -0.20647 -0.02129 0.08140
v -0.20728 -0.05127 0.08347
v -0.20571 -0.04580 0.06340
v -0.20836 -0.05555 0.08172
v -0.20552 -0.04680 0.08548
v -0.20647 -0.02129 0.08140
v -0.20399 -0.05462 0.09783
v -0.20110 -0.04509 0.07937
v -0.20552 -0.04680 0.08548
v -0.20399 -0.05462 0.09783
v -0.20790 -0.06442 0.11112
v -0.20729 -0.04136 0.10086
v -0.20800 -0.06326 0.09087
v -0.20508 0.03557 0.05484
v -0.19524 -0.02907 0.06192
v -0.20647 -0.02129 0.08140
v -0.01721 1.49381 0.12291
v -0.03737 1.50213 0.13512
v -0.01669 1.51626 0.11505
v -0.06120 1.58334 0.07909
v -0.04744 1.58106 0.09388
v -0.05935 1.55899 0.09838
v -0.06120 1.58334 0.07909
v -0.03354 1.57086 0.08834
v -0.04744 1.58106 0.09388
v 0.31650 0.91684 0.28789
v 0.32435 0.92383 0.29422
v 0.31220 0.90936 0.31400
v 0.32005 0.91147 0.24331
v 0.31894 0.88980 0.24404
v 0.32820 0.91346 0.24430
v 0.32490 0.90105 0.22650
v 0.31595 0.86984 0.23081
v 0.32630 0.88811 0.21972
v 0.32820 0.91346 0.24430
v 0.31894 0.88980 0.24404
v 0.32388 0.89424 0.25386
v 0.31986 0.94145 0.28063
v 0.31827 0.90797 0.26694
v 0.32640 0.93188 0.26372
v 0.32452 0.92937 0.18306
v 0.32290 0.89158 0.21267
v 0.31958 0.93859 0.20720
v 0.01754 0.17768 0.04681
v 0.03428 0.24540 0.02810
v 0.03605 0.27672 0.04698
v -0.20015 0.21365 -0.02694
v -0.20019 0.29659 -0.03605
v -0.19542 0.26591 -0.05421
v 0.01039 0.14591 0.01668
v 0.01754 0.17768 0.04681
v 0.00097 0.08303 0.02871
v 0.01039 0.14591 0.01668
v -0.00024 0.10809 -0.02972
v 0.01891 0.19092 -0.02522
v -0.03758 1.51311 0.13241
v -0.04926 1.52641 0.11845
v -0.01669 1.51626 0.11505
v -0.00994 -0.00081 0.04377
v -0.00857 0.06315 0.00983
v 0.00097 0.08303 0.02871
v -0.01405 0.07325 -0.03792
v -0.01516 0.07347 -0.08607
v -0.00024 0.10809 -0.02972
v -0.01919 0.04052 -0.08749
v -0.01516 0.07347 -0.08607
v -0.02724 0.03636 -0.07362
v -0.01820 -0.07516 0.06713
v -0.02139 -0.05988 0.04091
v -0.01843 -0.06732 0.06262
v -0.01787 -0.07229 0.08303
v -0.01451 -0.04283 0.06210
v -0.01843 -0.06732 0.06262
v -0.00994 -0.00081 0.04377
v -0.01451 -0.04283 0.06210
v -0.02248 -0.02396 0.03945
vn -0.17011 0.43030 0.88651
vn 0.11979 0.32241 0.93899
vn -0.52803 -0.39386 0.75237
vn -0.37099 0.46906 0.80146
vn -0.11832 0.60852 0.78467
vn -0.10790 0.84610 -0.52199
vn 0.72654 -0.68665 -0.02554
vn 0.40636 0.90213 -0.14505
vn -0.56429 0.78931 0.24200
vn 0.38853 0.35831 0.84892
vn -0.78105 0.49361 0.38250
vn -0.95514 0.25781 -0.14578
vn -0.34154 -0.88061 0.32844
vn -0.72473 -0.41584 0.54940
vn -0.46693 0.31240 0.82727
vn -0.72648 -0.67099 0.14832
vn -0.29971 -0.75034 -0.58921
vn -0.54070 -0.36498 -0.75791
vn -0.69407 -0.68952 -0.20694
vn -0.45382 0.85921 -0.23624
vn -0.74361 0.60211 0.29072
vn -0.53653 0.36016 0.76316
vn -0.42150 -0.81295 0.40181
vn -0.96426 -0.01752 0.26439
vn -0.91491 -0.34288 0.21299
vn -0.91617 0.27121 -0.29510
vn -0.07989 -0.14428 -0.98631
vn 0.12476 -0.43560 0.89145
vn -0.54597 0.10044 -0.83176
vn -0.91339 0.13407 0.38438
vn -0.13071 0.82367 0.55180
vn -0.45626 0.00293 0.88984
vn -0.17958 0.36555 0.91330
vn -0.27936 0.35887 0.89060
vn 0.03351 0.42494 0.90460
vn 0.00931 0.37536 0.92683
vn -0.89075 -0.31366 0.32889
vn -0.94650 -0.11647 0.30094
vn -0.22431 -0.00393 0.97451
vn -0.71209 -0.61867 0.33193
vn -0.92364 -0.37157 -0.09394
vn 0.46101 -0.71244 0.52906
vn -0.82856 -0.01736 0.55964
vn 0.66232 -0.43405 0.61068
vn -0.97021 -0.24219 -0.00663
vn -0.72152 0.39471 0.56887
vn -0.38378 0.89484 0.22796
vn -0.35480 0.77954 -0.51618
vn -0.19846 0.34156 -0.91867
vn -0.01650 0.37105 0.92847
vn -0.32317 0.89874 0.29635
vn -0.13403 0.62168 0.77172
vn -0.31586 0.94611 -0.07144
vn -0.28390 0.68381 -0.67217
vn -0.22973 -0.32199 -0.91845
vn -0.03505 0.38323 -0.92299
vn 0.10537 -0.09367 -0.99001
vn -0.02596 0.10814 -0.99380
vn -0.50900 0.84892 -0.14231
vn -0.42694 0.24316 -0.87097
vn 0.07210 -0.97391 -0.21519
vn -0.12112 -0.04338 -0.99169
vn 0.59591 -0.69250 0.40661
vn -0.32523 -0.69256 0.64389
vn -0.78675 0.29542 -0.54199
vn 0.82918 -0.54109 0.14030
vn 0.59271 -0.44130 -0.67375
vn -0.87822 0.39162 0.27454
vn -0.42904 0.24802 0.86857
vn -0.07283 0.15342 0.98547
vn -0.04553 0.12209 0.99147
vn -0.79377 -0.05413 0.60580
vn -0.93924 -0.15030 0.30861
vn -0.73366 -0.12378 0.66814
vn -0.90709 -0.41994 0.02898
vn 0.98376 0.13706 0.11585
vn -0.01960 0.64120 0.76712
vn 0.81945 -0.38666 -0.42307
vn -0.93272 -0.04681 0.35754
vn 0.91037 -0.23821 -0.33835
vn -0.18395 -0.00037 0.98294
vn -0.97487 -0.09145 0.20314
vn -0.90896 -0.38480 -0.16036
vn 0.83146 -0.22451 -0.50821
vn -0.07514 -0.88679 -0.45603
vn 0.85195 -0.52014 0.06031
vn 0.89671 -0.33449 0.28986
vn 0.98427 -0.10742 -0.14029
vn -0.98615 -0.15858 0.04865
vn -0.96612 -0.19003 -0.17466
vn 0.59465 -0.22651 0.77141
vn 0.99204 0.08501 0.09291
vn 0.45046 -0.24807 0.85764
vn 0.87431 -0.46391 0.14274
vn -0.41419 -0.31056 -0.85557
vn -0.87884 0.16637 -0.44717
vn -0.91500 0.40341 -0.00640
vn -0.09042 0.58643 0.80494
vn 0.62653 0.33890 0.70186
vn 0.95013 -0.22755 0.21327
vn -0.12963 0.64023 0.75717
vn -0.95387 0.30019 0.00309
vn -0.71309 -0.37613 -0.59163
vn -0.97615 0.21349 0.03933
vn -0.68166 -0.46962 -0.56106
vn -0.99800 -0.03313 -0.05391
vn 0.94348 -0.12994 0.30490
vn -0.99461 0.09660 0.03761
vn 0.53832 0.80150 0.26040
vn 0.25817 0.10075 0.96083
vn -0.66831 0.59647 0.44451
vn 0.98617 -0.16571 0.00320
vn 0.88873 -0.30990 -0.33781
vn 0.88507 0.45640 -0.09136
vn 0.94365 0.32781 -0.04541
vn -0.18104 0.90372 0.38797
vn -0.37963 0.58089 0.72003
vn -0.27615 0.01141 -0.96105
vn 0.64118 -0.68229 -0.35124
vn -0.26617 -0.71997 -0.64094
vn 0.99203 -0.02682 0.12312
vn 0.97990 -0.14952 0.13205
vn -0.93144 0.18276 0.31466
vn -0.11514 0.05637 -0.99175
vn -0.42182 -0.28412 -0.86101
vn 0.48865 -0.55595 -0.67241
vn 0.43351 -0.62024 -0.65373
vn 0.72725 0.09344 0.67999
vn 0.98843 -0.13417 -0.07072
vn -0.07390 -0.26177 -0.96230
vn -0.00772 -0.14474 -0.98944
vn -0.60365 -0.36132 -0.71067
vn -0.03305 -0.18339 -0.98248
vn -0.91471 -0.22585 -0.33510
vn -0.98208 -0.07750 0.17177
vn -0.24586 -0.20667 -0.94702
vn -0.65330 -0.03263 -0.75640
vn -0.11930 -0.04019 -0.99204
vn -0.94633 0.08799 -0.31098
vn -0.15140 -0.12169 0.98095
vn -0.66032 0.44241 -0.60683
vn 0.01396 -0.07645 0.99698
vn -0.27051 -0.15562 0.95006
vn -0.46546 -0.03428 0.88441
vn -0.03946 0.00797 0.99919
vn -0.90546 0.37109 -0.20598
vn -0.90977 0.07801 0.40771
vn -0.22000 0.41140 -0.88450
vn 0.01095 0.17474 -0.98455
vn 0.15380 -0.11446 0.98145
vn -0.47688 -0.06362 0.87667
vn -0.98240 0.16600 -0.08560
vn -0.76531 0.32799 -0.55383
vn 0.10599 0.42144 -0.90064
vn -0.11123 0.08003 -0.99057
vn 0.25308 0.18406 -0.94978
vn 0.24113 0.04587 -0.96941
vn 0.43332 -0.38276 -0.81592
vn -0.13876 -0.24961 -0.95835
vn -0.74705 0.05605 -0.66240
vn 0.22729 -0.44810 -0.86461
vn 0.56032 -0.61409 -0.55583
vn -0.17408 -0.60807 -0.77457
vn -0.94665 0.07215 -0.31409
vn -0.99942 0.03386 -0.00270
vn -0.94972 0.08573 0.30113
vn -0.85001 0.12395 0.51197
vn -0.25778 -0.04089 0.96534
vn -0.35539 -0.06727 0.93229
vn -0.59055 0.04641 0.80567
vn -0.18441 0.01482 0.98274
vn -0.09326 -0.21820 0.97144
vn -0.12417 -0.21843 0.96792
vn -0.53829 -0.02041 0.84251
vn 0.48306 -0.87203 -0.07882
vn 0.35476 -0.85094 0.38737
vn -0.12005 0.37150 -0.92064
vn -0.22297 0.45939 -0.85979
vn -0.91628 0.08357 0.39173
vn 0.30456 -0.35682 0.88313
vn 0.11931 -0.08687 0.98905
vn 0.41418 -0.18346 0.89151
vn -0.49755 0.07715 0.86400
vn 0.77422 -0.35530 0.52378
vn 0.66458 -0.41569 -0.62091
vn -0.39314 -0.14730 -0.90760
vn -0.98831 0.08289 -0.12792
vn 0.85723 -0.45375 -0.24345
vn 0.33400 -0.21504 -0.91771
vn -0.86172 0.03376 -0.50627
vn -0.96120 0.09832 -0.25774
vn -0.99556 0.09204 -0.01993
vn -0.99119 0.10825 0.07627
vn 0.71227 -0.26262 0.65092
vn 0.90330 -0.35819 0.23612
vn 0.92065 -0.37559 -0.10650
vn 0.77698 -0.32228 -0.54077
vn 0.30725 -0.24443 -0.91970
vn 0.68302 -0.27247 0.67768
vn -0.14852 -0.01678 0.98877
vn -0.89620 0.03443 0.44231
vn 0.00820 -0.12749 -0.99181
vn -0.96522 0.11137 -0.23653
vn 0.92180 -0.36161 0.13969
vn -0.98648 0.10728 0.12386
vn 0.75741 -0.33294 0.56168
vn -0.92230 0.20437 -0.32801
vn -0.30329 -0.14460 0.94186
vn -0.77863 0.03183 0.62668
vn 0.80021 -0.23694 -0.55092
vn -0.99013 0.12869 0.05548
vn 0.54468 0.02199 -0.83835
vn -0.80421 0.24259 -0.54259
vn -0.99505 0.09591 0.02595
vn -0.49467 -0.18747 0.84862
vn -0.93675 0.07703 -0.34142
vn 0.97124 -0.18919 -0.14454
vn 0.87312 -0.07335 -0.48196
vn 0.98309 -0.17268 -0.06101
vn -0.99925 0.01547 -0.03541
vn 0.72149 -0.29014 -0.62870
vn 0.98157 -0.13399 0.13626
vn 0.65186 -0.60942 -0.45132
vn -0.93798 -0.01846 0.34621
vn -0.99989 0.00160 0.01441
vn -0.99595 0.00576 0.08974
vn 0.99241 -0.10133 -0.06966
vn -0.33198 -0.22854 0.91518
vn 0.99848 -0.05164 0.01911
vn 0.99878 -0.01070 -0.04829
vn -0.99789 0.06444 0.00840
vn 0.81413 -0.06178 -0.57739
vn -0.96656 0.25543 -0.02289
vn -0.91314 0.40722 -0.01850
vn -0.41227 -0.05056 0.90966
vn 0.34945 -0.68256 0.64187
vn -0.32136 -0.66064 0.67844
vn -0.65742 -0.28999 0.69549
vn 0.23453 -0.57321 0.78513
vn -0.89910 -0.35536 -0.25560
vn -0.38508 0.54699 -0.74332
vn -0.40446 -0.45238 -0.79484
vn -0.71352 0.01358 0.70050
vn -0.29342 0.87181 0.39225
vn -0.80326 -0.57860 0.14136
vn -0.53899 -0.52322 -0.66010
vn -0.74855 -0.49370 0.44264
vn -0.62721 -0.73375 0.26120
vn -0.47651 -0.87512 -0.08425
vn 0.87890 0.40129 0.25786
vn -0.78700 -0.12607 -0.60393
vn -0.95687 0.18863 -0.22097
vn -0.98671 -0.09029 -0.13510
vn -0.79874 0.52555 0.29293
vn 0.99439 -0.08889 0.05735
vn 0.99269 -0.05812 -0.10582
vn 0.99618 0.06856 0.05412
vn 0.97307 0.18705 0.13471
vn -0.21722 -0.35256 0.91023
vn 0.97670 -0.18976 0.10028
vn 0.90419 -0.40544 0.13436
vn 0.94688 -0.32153 0.00529
vn 0.93013 -0.29642 0.21676
vn 0.93524 -0.22991 0.26922
vn 0.90031 -0.23647 -0.36541
vn -0.36018 -0.85612 0.37057
vn -0.99869 -0.03690 -0.03558
vn -0.98305 0.07708 0.16637
vn -0.93752 0.24956 0.24245
vn 0.91555 -0.16175 -0.36824
vn 0.99991 -0.00096 0.01366
vn 0.88792 -0.35662 -0.29056
vn -0.63294 0.00505 -0.77418
vn -0.92940 0.07816 0.36069
vn 0.23407 -0.13055 0.96341
vn 0.75650 0.59697 0.26709
vn 0.48326 0.63083 0.60705
vn 0.56165 0.38949 0.72996
vn 0.76410 0.61173 0.20480
vn 0.35233 0.65261 0.67079
vn 0.47693 -0.00504 0.87893
vn 0.22340 -0.90094 -0.37203
vn -0.93324 0.12859 -0.33545
vn -0.99012 0.08403 -0.11230
vn -0.41611 -0.88938 0.18935
vn 0.53672 -0.60830 0.58473
vn -0.40366 -0.12214 0.90672
vn 0.98023 0.05421 0.19031
vn 0.92820 0.36762 -0.05746
vn 0.59194 0.63945 0.49062
vn 0.57954 0.72868 -0.36492
vn -0.06420 0.21816 -0.97380
vn 0.01618 0.45049 -0.89264
vn 0.18769 0.83739 -0.51337
vn 0.86085 0.03928 0.50734
vn 0.72319 0.06578 -0.68751
vn 0.78795 0.16775 -0.59244
vn 0.12459 0.08140 -0.98886
vn 0.66860 0.63284 -0.39050
vn 0.68946 0.71958 0.08272
vn 0.24185 0.97023 -0.01246
vn 0.48213 -0.81410 0.32372
vn 0.92946 0.08662 -0.35861
vn 0.18188 -0.41420 -0.89183
vn -0.01181 0.54679 0.83719
vn 0.01852 0.62180 0.78295
vn 0.49952 -0.79515 0.34383
vn 0.29898 0.31881 0.89943
vn 0.42868 0.06977 0.90076
vn 0.06156 0.46523 0.88305
vn -0.10224 0.98945 -0.10262
vn 0.12923 0.25411 0.95850
vn -0.19037 0.69529 0.69305
vn -0.38304 0.85172 0.35758
vn 0.29344 -0.74716 0.59636
vn 0.89679 -0.30803 0.31763
vn -0.64992 -0.57492 0.49706
vn 0.49792 -0.09019 0.86252
vn 0.89648 -0.07485 0.43672
vn 0.86894 0.36393 0.33542
vn 0.52146 0.71544 0.46500
vn -0.22773 0.86525 0.44663
vn 0.89438 0.32220 0.31026
vn -0.05222 0.96400 -0.26074
vn 0.24803 0.43488 0.86566
vn 0.04056 0.64914 0.75959
vn 0.01473 0.89638 0.44303
vn -0.01046 0.40927 0.91235
vn -0.06108 0.19083 -0.97972
vn 0.11879 0.59614 -0.79404
vn 0.69704 0.69272 -0.18516
vn 0.19852 -0.10423 -0.97454
vn 0.02055 0.18662 -0.98222
vn -0.01004 -0.04737 -0.99883
vn 0.21644 -0.30155 -0.92856
vn -0.05370 -0.10462 -0.99306
vn 0.05588 -0.18829 -0.98052
vn 0.19134 0.19912 -0.96111
vn 0.65831 0.32550 -0.67873
vn 0.59292 0.13765 -0.79341
vn 0.92971 0.28239 -0.23642
vn 0.90708 0.39194 -0.15355
vn 0.82554 0.30329 -0.47593
vn 0.23539 -0.05251 -0.97048
vn -0.47858 -0.54970 -0.68469
vn 0.52946 0.11152 0.84097
vn 0.63663 -0.45858 -0.62001
vn -0.59797 -0.31913 0.73525
vn 0.87605 0.32644 -0.35492
vn 0.31927 0.08475 -0.94387
vn -0.57385 -0.42575 -0.69960
vn -0.84435 -0.50529 0.17818
vn 0.32413 0.17028 0.93056
vn 0.87113 0.41437 0.26349
vn 0.25224 0.23458 0.93880
vn -0.04998 0.22834 0.97230
vn 0.03014 0.35515 0.93432
vn -0.97506 0.16279 0.15084
vn 0.95626 -0.07810 0.28191
vn -0.72765 -0.52554 -0.44083
vn -0.74143 0.28107 0.60934
vn -0.97660 0.11208 0.18354
vn 0.96931 -0.23175 0.08205
vn -0.94785 0.16703 0.27145
vn -0.99779 0.01343 -0.06511
vn -0.44620 -0.70966 0.54524
vn 0.17637 -0.55984 -0.80961
vn -0.64237 -0.25128 0.72403
vn 0.76431 0.20904 0.61003
vn 0.49776 -0.75346 -0.42957
vn 0.92317 -0.35240 -0.15355
vn 0.42018 0.22111 0.88009
vn -0.91308 -0.26264 0.31193
vn -0.98296 -0.15975 -0.09090
vn 0.96637 -0.25487 0.03425
vn -0.98412 0.17240 -0.04221
vn 0.97702 -0.13322 0.16641
vn 0.99690 -0.07311 0.02908
vn 0.96960 -0.15107 0.19249
vn -0.78334 -0.62054 0.03635
vn -0.87807 -0.45413 0.15088
vn 0.46513 0.03748 -0.88445
vn 0.91413 0.08341 -0.39675
vn -0.75244 -0.14166 0.64325
vn 0.44185 -0.27493 -0.85392
vn 0.87758 0.44612 0.17560
vn -0.11911 0.26221 0.95763
vn -0.07788 0.60426 0.79297
vn -0.80880 -0.56000 -0.17955
vn -0.00309 -0.70164 -0.71252
vn -0.89427 -0.01460 0.44729
vn 0.96142 0.26802 0.06200
vn -0.92548 -0.06352 0.37343
vn 0.70484 -0.41501 -0.57530
vn -0.68058 -0.65966 -0.31884
vn 0.37056 0.59452 0.71361
vn 0.99495 0.02259 -0.09779
vn -0.10564 -0.79973 -0.59099
vn -0.04534 0.95613 0.28942
vn 0.28347 0.58870 0.75702
vn 0.83482 0.41368 0.36324
vn -0.98126 -0.18802 0.04220
vn -0.98046 -0.17470 -0.09045
vn 0.74919 -0.44857 -0.48734
vn 0.33134 -0.16126 0.92963
vn -0.13280 -0.19230 0.97231
vn 0.99924 0.03905 0.00160
vn 0.83560 0.25335 0.48742
vn -0.99971 0.00488 0.02368
vn 0.74922 -0.62758 -0.21170
vn -0.54737 -0.55990 -0.62201
vn 0.40266 -0.31149 -0.86072
vn -0.92589 -0.18478 -0.32952
vn 0.94820 -0.12000 0.29413
vn 0.96984 -0.24234 0.02609
vn 0.45833 -0.26553 -0.84819
vn 0.74067 -0.33676 -0.58138
vn 0.96412 -0.18926 -0.18614
vn 0.94272 0.02162 0.33289
vn 0.22990 -0.08545 -0.96946
vn 0.73952 -0.24732 -0.62605
vn 0.41729 0.34607 -0.84030
vn 0.96029 0.21879 0.17313
vn 0.89829 0.19885 -0.39182
vn 0.81741 -0.14569 0.55733
vn 0.94040 -0.10142 0.32460
vn 0.46050 -0.10259 0.88171
vn 0.29404 -0.09784 0.95077
vn 0.52950 -0.03465 0.84760
vn 0.83555 0.41019 -0.36553
vn 0.11393 0.35658 -0.92729
vn -0.05729 0.34650 -0.93630
vn 0.33571 0.51447 -0.78906
vn 0.78273 0.30921 -0.54012
vn 0.28624 0.49365 -0.82120
vn -0.01556 0.25247 -0.96748
vn -0.39772 -0.02999 -0.91702
vn -0.09563 -0.29208 -0.95160
vn -0.47766 -0.53179 -0.69931
vn 0.65207 -0.13414 -0.74620
vn -0.20407 -0.39120 -0.89739
vn 0.97842 0.16924 0.11851
vn 0.93486 0.04716 -0.35188
vn 0.98034 0.08828 -0.17649
vn 0.76072 0.19057 -0.62047
vn 0.99865 0.00564 -0.05170
vn 0.82420 0.07018 0.56193
vn 0.96518 0.01848 0.26093
vn -0.48806 -0.07873 0.86925
vn 0.22072 -0.04925 0.97409
vn 0.46976 -0.01635 0.88264
vn 0.50022 0.04017 0.86497
vn 0.25054 -0.09384 0.96355
vn 0.17890 -0.27504 0.94464
vn -0.05465 -0.02740 0.99813
vn -0.04741 -0.54931 0.83427
vn -0.25041 -0.30612 0.91847
vn -0.83186 -0.54660 -0.09607
vn -0.02980 0.44812 -0.89347
vn 0.55442 -0.19025 -0.81020
vn 0.93626 -0.04188 -0.34880
vn 0.48405 0.02132 0.87478
vn -0.97001 -0.15994 -0.18301
vn -0.77747 -0.45556 -0.43359
vn 0.99592 -0.08294 -0.03563
vn 0.62890 -0.09890 -0.77117
vn -0.72099 -0.14938 -0.67666
vn -0.02715 -0.11545 -0.99294
vn 0.27577 -0.08685 0.95729
vn 0.97167 -0.12914 0.19794
vn -0.80998 -0.05967 -0.58342
vn -0.40812 -0.10548 -0.90681
vn 0.83897 -0.20568 -0.50381
vn 0.29807 -0.16451 -0.94026
vn -0.84548 0.04360 0.53223
vn -0.99567 -0.00148 -0.09290
vn 0.97310 -0.21402 -0.08526
vn 0.53049 -0.25957 0.80697
vn 0.95379 -0.24568 0.17299
vn -0.42131 -0.06539 -0.90456
vn 0.94459 -0.23927 -0.22473
vn -0.98579 0.03451 0.16438
vn -0.99160 0.09244 0.09043
vn -0.94700 0.03761 -0.31903
vn 0.96364 -0.25518 0.07925
vn -0.60524 -0.04709 0.79465
vn 0.61671 -0.29708 0.72898
vn 0.55796 -0.16305 -0.81369
vn 0.12190 -0.13675 0.98308
vn -0.93064 -0.00502 0.36590
vn -0.93062 0.03667 -0.36415
vn -0.68082 0.08583 -0.72741
vn 0.86904 -0.24115 0.43200
vn -0.62295 0.14635 -0.76845
vn 0.97140 -0.21778 0.09468
vn -0.99433 0.05841 -0.08890
vn -0.55548 -0.22004 0.80189
vn 0.67064 -0.29014 0.68269
vn -0.88940 -0.05437 0.45388
vn 0.00465 0.26100 -0.96533
vn 0.97490 -0.16200 -0.15273
vn -0.98018 0.11502 -0.16128
vn 0.31434 -0.03660 -0.94860
vn -0.92211 0.11015 -0.37091
vn 0.98011 -0.17151 -0.09983
vn 0.97793 -0.20144 0.05536
vn 0.93332 -0.29006 -0.21159
vn -0.58964 -0.03719 0.80681
vn 0.97423 -0.22506 0.01491
vn -0.98523 0.07150 0.15558
vn -0.99649 0.05119 -0.06624
vn 0.97173 -0.22619 -0.06762
vn -0.82546 -0.43906 -0.35474
vn -0.98193 0.14621 0.12015
vn 0.93431 -0.15631 -0.32036
vn -0.97242 0.15926 0.17041
vn 0.75343 0.46356 0.46632
vn 0.00252 0.38859 0.92141
vn 0.50010 0.10038 0.86013
vn 0.57942 0.10866 0.80775
vn 0.92979 0.36702 0.02794
vn 0.32676 0.76975 0.54836
vn 0.58883 -0.02178 -0.80797
vn 0.47660 0.50488 -0.71969
vn 0.83982 0.54285 0.00322
vn 0.94369 0.32367 -0.06849
vn 0.88978 0.27722 -0.36254
vn -0.99421 0.10746 0.00028
vn -0.04223 -0.01424 -0.99901
vn 0.93874 0.33578 -0.07754
vn 0.97308 -0.08271 -0.21513
vn 0.93696 -0.21255 -0.27735
vn -0.95682 0.00604 -0.29061
vn 0.96801 -0.20484 -0.14491
vn 0.94799 -0.21934 -0.23067
vn -0.98603 0.14958 0.07324
vn -0.26669 0.80947 0.52310
vn 0.99503 0.09120 0.04000
vn 0.84332 0.42424 0.32989
vn -0.88680 0.37101 0.27555
vn -0.89750 0.31944 0.30407
vn -0.98121 0.14967 0.12174
vn 0.95878 -0.26953 -0.08992
vn -0.97663 0.06569 0.20462
vn -0.98567 0.12175 0.11676
vn -0.90403 -0.19203 0.38190
vn -0.98661 -0.00154 0.16309
vn 0.98586 -0.16755 0.00393
vn -0.81366 -0.04190 0.57982
vn -0.98170 -0.03780 0.18662
vn 0.94622 -0.11851 -0.30103
vn -0.32629 -0.05768 0.94351
vn 0.03166 0.52019 -0.85346
vn 0.03166 0.52019 -0.85346
vn 0.03166 0.52019 -0.85346
vn 0.58008 -0.28990 -0.76123
vn 0.58008 -0.28990 -0.76123
vn 0.58008 -0.28990 -0.76123
vn 0.12655 0.93033 -0.34421
vn 0.12655 0.93033 -0.34421
vn 0.12655 0.93033 -0.34421
vn 0.59813 -0.74553 -0.29398
vn 0.59813 -0.74553 -0.29398
vn 0.59813 -0.74553 -0.29398
vn -0.92316 -0.02802 0.38339
vn -0.92316 -0.02802 0.38339
vn -0.92316 -0.02802 0.38339
vn -0.84340 0.22944 0.48583
vn -0.84340 0.22944 0.48583
vn -0.84340 0.22944 0.48583
vn 0.54971 0.20036 0.81097
vn 0.54971 0.20036 0.81097
vn 0.54971 0.20036 0.81097
vn -0.80474 0.10377 0.58449
vn -0.80474 0.10377 0.58449
vn -0.80474 0.10377 0.58449
vn -0.91063 -0.35115 0.21781
vn -0.91063 -0.35115 0.21781
vn -0.91063 -0.35115 0.21781
vn -0.70712 -0.66136 -0.25015
vn -0.70712 -0.66136 -0.25015
vn -0.70712 -0.66136 -0.25015
vn 0.92731 0.02492 -0.37347
vn 0.92731 0.02492 -0.37347
vn 0.92731 0.02492 -0.37347
vn 0.84252 -0.28765 0.45543
vn 0.84252 -0.28765 0.45543
vn 0.84252 -0.28765 0.45543
vn 0.97434 -0.02788 0.22333
vn 0.97434 -0.02788 0.22333
vn 0.97434 -0.02788 0.22333
vn -0.99783 0.03908 0.05296
vn -0.99783 0.03908 0.05296
vn -0.99783 0.03908 0.05296
vn -0.70078 -0.02588 -0.71291
vn -0.70078 -0.02588 -0.71291
vn -0.70078 -0.02588 -0.71291
vn 0.23978 0.50759 -0.82756
vn 0.23978 0.50759 -0.82756
vn 0.23978 0.50759 -0.82756
vn -0.99580 -0.04965 -0.07698
vn -0.99580 -0.04965 -0.07698
vn -0.99580 -0.04965 -0.07698
vn -0.99271 0.02326 -0.11825
vn -0.99271 0.02326 -0.11825
vn -0.99271 0.02326 -0.11825
vn -0.99384 -0.00774 -0.11055
vn -0.99384 -0.00774 -0.11055
vn -0.99384 -0.00774 -0.11055
vn 0.64972 0.59133 0.47770
vn 0.64972 0.59133 0.47770
vn 0.64972 0.59133 0.47770
vn -0.99955 0.02588 -0.01504
vn -0.99955 0.02588 -0.01504
vn -0.99955 0.02588 -0.01504
vn -0.96861 0.24845 -0.00839
vn -0.96861 0.24845 -0.00839
vn -0.96861 0.24845 -0.00839
vn 0.99364 0.01953 -0.11091
vn 0.99364 0.01953 -0.11091
vn 0.99364 0.01953 -0.11091
vn 0.33916 0.81325 0.47286
vn 0.33916 0.81325 0.47286
vn 0.33916 0.81325 0.47286
vn -0.99954 0.02958 0.00693
vn -0.99954 0.02958 0.00693
vn -0.99954 0.02958 0.00693
vn -0.88150 -0.18193 -0.43572
vn -0.88150 -0.18193 -0.43572
vn -0.88150 -0.18193 -0.43572
vn -0.57629 -0.25784 -0.77551
vn -0.57629 -0.25784 -0.77551
vn -0.57629 -0.25784 -0.77551
vn 0.61267 -0.46180 -0.64139
vn 0.61267 -0.46180 -0.64139
vn 0.61267 -0.46180 -0.64139
vn -0.47606 -0.82062 0.31616
vn -0.47606 -0.82062 0.31616
vn -0.47606 -0.82062 0.31616
vn 0.70075 -0.70800 -0.08771
vn 0.70075 -0.70800 -0.08771
vn 0.70075 -0.70800 -0.08771
vn -0.13047 0.03979 0.99065
vn -0.13047 0.03979 0.99065
vn -0.13047 0.03979 0.99065
vn 0.84570 -0.17286 0.50489
vn 0.84570 -0.17286 0.50489
vn 0.84570 -0.17286 0.50489
vn -0.89193 0.34578 0.29137
vn -0.89193 0.34578 0.29137
vn -0.89193 0.34578 0.29137
vn 0.85716 -0.22934 0.46118
vn 0.85716 -0.22934 0.46118
vn 0.85716 -0.22934 0.46118
vn -0.98194 -0.08870 -0.16713
vn -0.98194 -0.08870 -0.16713
vn -0.98194 -0.08870 -0.16713
vn 0.96134 -0.17994 0.20844
vn 0.96134 -0.17994 0.20844
vn 0.96134 -0.17994 0.20844
vn -0.97618 -0.02416 -0.21560
vn -0.97618 -0.02416 -0.21560
vn -0.97618 -0.02416 -0.21560
vn 0.98496 -0.15994 -0.06537
vn 0.98496 -0.15994 -0.06537
vn 0.98496 -0.15994 -0.06537
vn 0.97394 -0.22299 -0.04134
vn 0.97394 -0.22299 -0.04134
vn 0.97394 -0.22299 -0.04134
vn -0.30356 -0.80393 -0.51142
vn -0.30356 -0.80393 -0.51142
vn -0.30356 -0.80393 -0.51142
vn 0.94057 -0.17470 -0.29121
vn 0.94057 -0.17470 -0.29121
vn 0.94057 -0.17470 -0.29121
vn 0.93127 -0.36358 -0.02318
vn 0.93127 -0.36358 -0.02318
vn 0.93127 -0.36358 -0.02318
vn 0.87419 -0.12718 0.46864
vn 0.87419 -0.12718 0.46864
vn 0.87419 -0.12718 0.46864
vn 0.98616 -0.05939 -0.15477
vn 0.98616 -0.05939 -0.15477
vn 0.98616 -0.05939 -0.15477
vn -0.98507 0.15908 0.06577
vn -0.98507 0.15908 0.06577
vn -0.98507 0.15908 0.06577
vn 0.77783 -0.32051 -0.54061
vn 0.77783 -0.32051 -0.54061
vn 0.77783 -0.32051 -0.54061
f 1//1 228//228 22//22
f 1//1 2//2 228//228
f 243//243 238//238 228//228
f 4//4 228//228 2//2
f 239//239 237//237 5//5
f 553//553 554//554 555//555
f 6//6 5//5 283//283
f 556//556 557//557 558//558
f 8//8 6//6 9//9
f 239//239 7//7 282//282
f 7//7 239//239 115//115
f 115//115 286//286 7//7
f 286//286 10//10 287//287
f 8//8 9//9 10//10
f 13//13 249//249 16//16
f 14//14 13//13 16//16
f 13//13 28//28 302//302
f 16//16 12//12 14//14
f 14//14 12//12 11//11
f 16//16 17//17 18//18
f 16//16 18//18 12//12
f 18//18 49//49 12//12
f 49//49 27//27 292//292
f 26//26 24//24 21//21
f 25//25 24//24 26//26
f 17//17 16//16 249//249
f 3//3 22//22 238//238
f 13//13 302//302 237//237
f 14//14 11//11 15//15
f 29//29 241//241 298//298
f 19//19 240//240 242//242
f 249//249 19//19 17//17
f 240//240 29//29 242//242
f 242//242 29//29 298//298
f 21//21 244//244 20//20
f 25//25 238//238 243//243
f 243//243 4//4 21//21
f 17//17 304//304 523//523
f 249//249 13//13 23//23
f 249//249 245//245 19//19
f 17//17 27//27 18//18
f 20//20 26//26 21//21
f 18//18 27//27 49//49
f 243//243 21//21 24//24
f 228//228 4//4 243//243
f 4//4 244//244 21//21
f 17//17 242//242 304//304
f 236//236 30//30 228//228
f 559//559 560//560 561//561
f 562//562 563//563 564//564
f 236//236 238//238 31//31
f 46//46 39//39 47//47
f 116//116 33//33 52//52
f 116//116 32//32 33//33
f 64//64 44//44 42//42
f 52//52 33//33 50//50
f 32//32 64//64 37//37
f 64//64 42//42 40//40
f 42//42 63//63 40//40
f 33//33 32//32 43//43
f 32//32 37//37 43//43
f 64//64 40//40 37//37
f 50//50 33//33 34//34
f 33//33 43//43 34//34
f 40//40 41//41 37//37
f 50//50 34//34 35//35
f 37//37 45//45 38//38
f 37//37 41//41 45//45
f 51//51 15//15 11//11
f 51//51 53//53 116//116
f 53//53 47//47 116//116
f 47//47 59//59 46//46
f 59//59 68//68 46//46
f 52//52 50//50 328//328
f 52//52 15//15 51//51
f 53//53 12//12 48//48
f 53//53 11//11 12//12
f 48//48 12//12 49//49
f 53//53 51//51 11//11
f 36//36 50//50 35//35
f 52//52 325//325 15//15
f 328//328 325//325 52//52
f 58//58 49//49 292//292
f 49//49 58//58 56//56
f 53//53 48//48 54//54
f 48//48 49//49 56//56
f 54//54 48//48 56//56
f 59//59 53//53 54//54
f 57//57 130//130 55//55
f 56//56 124//124 54//54
f 131//131 130//130 57//57
f 47//47 53//53 59//59
f 60//60 59//59 54//54
f 60//60 125//125 62//62
f 125//125 41//41 61//61
f 125//125 61//61 126//126
f 65//65 59//59 60//60
f 65//65 60//60 62//62
f 54//54 125//125 60//60
f 61//61 40//40 63//63
f 43//43 37//37 38//38
f 68//68 59//59 65//65
f 40//40 61//61 41//41
f 124//124 125//125 54//54
f 126//126 61//61 66//66
f 68//68 39//39 46//46
f 61//61 63//63 66//66
f 118//118 65//65 62//62
f 118//118 62//62 67//67
f 42//42 66//66 63//63
f 126//126 66//66 67//67
f 42//42 44//44 66//66
f 68//68 69//69 39//39
f 44//44 93//93 94//94
f 44//44 94//94 66//66
f 69//69 68//68 97//97
f 97//97 68//68 65//65
f 67//67 66//66 94//94
f 70//70 35//35 34//34
f 70//70 34//34 72//72
f 70//70 74//74 71//71
f 74//74 72//72 73//73
f 70//70 71//71 357//357
f 35//35 70//70 357//357
f 72//72 34//34 43//43
f 70//70 72//72 74//74
f 36//36 35//35 357//357
f 77//77 76//76 123//123
f 77//77 123//123 75//75
f 91//91 76//76 78//78
f 112//112 76//76 91//91
f 87//87 77//77 75//75
f 91//91 89//89 79//79
f 565//565 566//566 567//567
f 122//122 112//112 91//91
f 122//122 91//91 80//80
f 83//83 92//92 84//84
f 121//121 92//92 83//83
f 84//84 81//81 82//82
f 122//122 83//83 82//82
f 568//568 569//569 570//570
f 84//84 82//82 83//83
f 571//571 572//572 573//573
f 574//574 575//575 576//576
f 75//75 123//123 78//78
f 577//577 578//578 579//579
f 81//81 92//92 82//82
f 78//78 76//76 77//77
f 87//87 78//78 77//77
f 75//75 78//78 87//87
f 580//580 581//581 582//582
f 583//583 584//584 585//585
f 92//92 81//81 84//84
f 121//121 85//85 113//113
f 83//83 113//113 85//85
f 83//83 90//90 113//113
f 108//108 89//89 123//123
f 122//122 92//92 121//121
f 65//65 118//118 96//96
f 98//98 69//69 97//97
f 127//127 67//67 94//94
f 96//96 118//118 95//95
f 97//97 65//65 96//96
f 93//93 128//128 94//94
f 102//102 97//97 96//96
f 102//102 98//98 97//97
f 103//103 96//96 95//95
f 128//128 99//99 100//100
f 128//128 100//100 94//94
f 127//127 103//103 95//95
f 119//119 127//127 94//94
f 102//102 101//101 98//98
f 119//119 94//94 100//100
f 102//102 96//96 103//103
f 104//104 102//102 103//103
f 104//104 103//103 105//105
f 100//100 99//99 107//107
f 104//104 101//101 102//102
f 101//101 104//104 117//117
f 107//107 119//119 100//100
f 106//106 104//104 105//105
f 117//117 104//104 106//106
f 119//119 120//120 105//105
f 106//106 105//105 120//120
f 120//120 119//119 107//107
f 120//120 107//107 129//129
f 129//129 107//107 117//117
f 117//117 106//106 120//120
f 108//108 117//117 120//120
f 129//129 117//117 114//114
f 108//108 111//111 117//117
f 86//86 110//110 88//88
f 86//86 88//88 109//109
f 110//110 109//109 111//111
f 112//112 129//129 88//88
f 112//112 113//113 129//129
f 108//108 123//123 111//111
f 90//90 89//89 108//108
f 109//109 114//114 111//111
f 108//108 120//120 90//90
f 28//28 13//13 14//14
f 13//13 237//237 23//23
f 6//6 115//115 239//239
f 115//115 8//8 10//10
f 51//51 116//116 52//52
f 32//32 116//116 47//47
f 32//32 39//39 64//64
f 39//39 44//44 64//64
f 39//39 93//93 44//44
f 93//93 39//39 69//69
f 15//15 28//28 14//14
f 115//115 6//6 8//8
f 47//47 39//39 32//32
f 117//117 111//111 114//114
f 56//56 57//57 124//124
f 58//58 57//57 56//56
f 62//62 126//126 67//67
f 95//95 118//118 127//127
f 103//103 127//127 119//119
f 105//105 103//103 119//119
f 113//113 120//120 129//129
f 83//83 122//122 89//89
f 76//76 110//110 123//123
f 122//122 121//121 113//113
f 123//123 89//89 91//91
f 123//123 110//110 111//111
f 88//88 114//114 109//109
f 88//88 129//129 114//114
f 83//83 89//89 90//90
f 113//113 112//112 122//122
f 112//112 110//110 76//76
f 57//57 55//55 124//124
f 58//58 131//131 57//57
f 125//125 126//126 62//62
f 90//90 120//120 113//113
f 127//127 118//118 67//67
f 128//128 98//98 99//99
f 99//99 98//98 101//101
f 69//69 98//98 128//128
f 101//101 117//117 107//107
f 101//101 107//107 99//99
f 69//69 128//128 93//93
f 112//112 88//88 110//110
f 55//55 132//132 125//125
f 125//125 132//132 41//41
f 132//132 45//45 41//41
f 131//131 133//133 130//130
f 130//130 136//136 132//132
f 132//132 134//134 45//45
f 45//45 135//135 38//38
f 45//45 134//134 135//135
f 133//133 136//136 130//130
f 133//133 138//138 136//136
f 134//134 139//139 135//135
f 136//136 137//137 132//132
f 139//139 147//147 135//135
f 136//136 138//138 137//137
f 134//134 137//137 139//139
f 139//139 146//146 147//147
f 138//138 148//148 137//137
f 149//149 148//148 138//138
f 141//141 146//146 139//139
f 149//149 432//432 148//148
f 73//73 72//72 43//43
f 73//73 43//43 38//38
f 147//147 74//74 135//135
f 140//140 145//145 150//150
f 144//144 143//143 142//142
f 144//144 151//151 143//143
f 38//38 135//135 73//73
f 74//74 73//73 135//135
f 71//71 144//144 142//142
f 144//144 74//74 147//147
f 151//151 144//144 147//147
f 71//71 74//74 144//144
f 140//140 143//143 151//151
f 141//141 139//139 137//137
f 147//147 174//174 151//151
f 146//146 152//152 147//147
f 143//143 140//140 142//142
f 142//142 140//140 150//150
f 140//140 168//168 145//145
f 153//153 152//152 146//146
f 147//147 179//179 174//174
f 152//152 179//179 147//147
f 153//153 146//146 141//141
f 157//157 158//158 156//156
f 156//156 158//158 159//159
f 156//156 159//159 155//155
f 157//157 163//163 158//158
f 158//158 162//162 161//161
f 163//163 162//162 158//158
f 158//158 161//161 159//159
f 160//160 186//186 190//190
f 163//163 175//175 162//162
f 152//152 165//165 179//179
f 164//164 165//165 152//152
f 164//164 190//190 187//187
f 164//164 187//187 165//165
f 165//165 187//187 166//166
f 181//181 182//182 180//180
f 160//160 190//190 164//164
f 174//174 169//169 168//168
f 174//174 170//170 169//169
f 169//169 172//172 173//173
f 171//171 172//172 169//169
f 173//173 172//172 456//456
f 170//170 183//183 171//171
f 172//172 180//180 456//456
f 183//183 181//181 171//171
f 171//171 181//181 172//172
f 450//450 168//168 173//173
f 154//154 178//178 148//148
f 166//166 183//183 170//170
f 179//179 166//166 170//170
f 179//179 170//170 174//174
f 166//166 167//167 183//183
f 124//124 55//55 125//125
f 132//132 55//55 130//130
f 132//132 137//137 134//134
f 137//137 148//148 141//141
f 148//148 153//153 141//141
f 148//148 178//178 153//153
f 178//178 155//155 160//160
f 155//155 159//159 160//160
f 186//186 160//160 159//159
f 180//180 172//172 181//181
f 187//187 193//193 166//166
f 159//159 161//161 186//186
f 261//261 176//176 184//184
f 193//193 167//167 166//166
f 162//162 185//185 161//161
f 185//185 189//189 161//161
f 195//195 261//261 184//184
f 190//190 191//191 187//187
f 275//275 194//194 182//182
f 272//272 197//197 196//196
f 197//197 198//198 189//189
f 198//198 273//273 186//186
f 198//198 186//186 189//189
f 205//205 201//201 192//192
f 192//192 203//203 205//205
f 201//201 205//205 208//208
f 203//203 202//202 207//207
f 205//205 209//209 208//208
f 272//272 210//210 202//202
f 202//202 212//212 207//207
f 202//202 210//210 212//212
f 208//208 206//206 199//199
f 209//209 206//206 208//208
f 211//211 205//205 203//203
f 262//262 204//204 206//206
f 206//206 209//209 215//215
f 209//209 205//205 211//211
f 203//203 207//207 211//211
f 263//263 262//262 206//206
f 210//210 217//217 212//212
f 215//215 209//209 211//211
f 207//207 212//212 213//213
f 207//207 214//214 211//211
f 207//207 213//213 214//214
f 212//212 218//218 213//213
f 217//217 218//218 212//212
f 211//211 214//214 215//215
f 586//586 587//587 588//588
f 214//214 224//224 215//215
f 218//218 216//216 213//213
f 213//213 216//216 214//214
f 216//216 220//220 214//214
f 224//224 214//214 220//220
f 219//219 223//223 221//221
f 219//219 221//221 218//218
f 218//218 221//221 216//216
f 222//222 264//264 224//224
f 222//222 219//219 264//264
f 220//220 216//216 221//221
f 589//589 590//590 591//591
f 225//225 226//226 223//223
f 226//226 225//225 227//227
f 267//267 225//225 260//260
f 592//592 593//593 594//594
f 225//225 267//267 227//227
f 234//234 233//233 232//232
f 3//3 238//238 247//247
f 1//1 22//22 235//235
f 595//595 596//596 597//597
f 31//31 30//30 236//236
f 247//247 238//238 25//25
f 302//302 520//520 237//237
f 239//239 23//23 237//237
f 3//3 247//247 23//23
f 235//235 3//3 239//239
f 235//235 518//518 1//1
f 3//3 23//23 239//239
f 3//3 235//235 22//22
f 31//31 22//22 30//30
f 235//235 239//239 519//519
f 115//115 10//10 286//286
f 304//304 242//242 298//298
f 245//245 247//247 25//25
f 248//248 249//249 23//23
f 598//598 599//599 600//600
f 248//248 247//247 245//245
f 17//17 523//523 27//27
f 25//25 243//243 24//24
f 245//245 246//246 248//248
f 246//246 249//249 248//248
f 247//247 248//248 23//23
f 19//19 245//245 25//25
f 240//240 19//19 25//25
f 240//240 25//25 26//26
f 29//29 240//240 26//26
f 241//241 29//29 26//26
f 241//241 26//26 20//20
f 19//19 242//242 17//17
f 233//233 270//270 232//232
f 601//601 602//602 603//603
f 250//250 252//252 254//254
f 259//259 260//260 271//271
f 604//604 605//605 606//606
f 257//257 258//258 265//265
f 268//268 269//269 267//267
f 269//269 258//258 257//257
f 269//269 253//253 267//267
f 260//260 256//256 271//271
f 271//271 256//256 265//265
f 265//265 258//258 271//271
f 267//267 253//253 265//265
f 257//257 265//265 270//270
f 268//268 267//267 260//260
f 268//268 260//260 259//259
f 607//607 608//608 609//609
f 610//610 611//611 612//612
f 271//271 258//258 268//268
f 259//259 271//271 268//268
f 233//233 231//231 255//255
f 613//613 614//614 615//615
f 229//229 231//231 233//233
f 616//616 617//617 618//618
f 269//269 254//254 253//253
f 619//619 620//620 621//621
f 622//622 623//623 624//624
f 250//250 234//234 252//252
f 233//233 234//234 250//250
f 250//250 255//255 229//229
f 250//250 270//270 255//255
f 229//229 230//230 231//231
f 229//229 255//255 230//230
f 251//251 270//270 252//252
f 215//215 264//264 263//263
f 215//215 263//263 206//206
f 210//210 272//272 262//262
f 199//199 206//206 204//204
f 180//180 182//182 184//184
f 180//180 184//184 176//176
f 456//456 180//180 176//176
f 175//175 261//261 188//188
f 270//270 253//253 252//252
f 250//250 254//254 269//269
f 250//250 269//269 257//257
f 252//252 253//253 254//254
f 625//625 626//626 627//627
f 628//628 629//629 630//630
f 250//250 257//257 270//270
f 227//227 256//256 260//260
f 260//260 223//223 227//227
f 219//219 222//222 223//223
f 219//219 218//218 217//217
f 210//210 262//262 217//217
f 167//167 193//193 274//274
f 274//274 200//200 183//183
f 274//274 183//183 167//167
f 188//188 197//197 185//185
f 188//188 185//185 162//162
f 175//175 188//188 162//162
f 458//458 175//175 163//163
f 175//175 458//458 266//266
f 175//175 266//266 176//176
f 176//176 261//261 175//175
f 181//181 183//183 200//200
f 181//181 200//200 182//182
f 204//204 262//262 272//272
f 262//262 263//263 217//217
f 263//263 264//264 217//217
f 264//264 219//219 217//217
f 192//192 193//193 187//187
f 187//187 191//191 192//192
f 273//273 191//191 190//190
f 190//190 186//186 273//273
f 189//189 186//186 161//161
f 197//197 189//189 185//185
f 196//196 197//197 188//188
f 188//188 261//261 196//196
f 261//261 195//195 196//196
f 194//194 195//195 184//184
f 194//194 184//184 182//182
f 275//275 200//200 201//201
f 275//275 201//201 208//208
f 201//201 200//200 274//274
f 274//274 192//192 201//201
f 203//203 192//192 191//191
f 203//203 273//273 202//202
f 202//202 273//273 198//198
f 272//272 202//202 198//198
f 272//272 195//195 204//204
f 195//195 199//199 204//204
f 208//208 199//199 275//275
f 275//275 199//199 194//194
f 199//199 195//195 194//194
f 196//196 195//195 272//272
f 272//272 198//198 197//197
f 203//203 191//191 273//273
f 274//274 193//193 192//192
f 182//182 200//200 275//275
f 305//305 276//276 278//278
f 2//2 1//1 277//277
f 2//2 277//277 278//278
f 279//279 278//278 276//276
f 278//278 279//279 522//522
f 518//518 235//235 519//519
f 518//518 519//519 280//280
f 631//631 632//632 633//633
f 284//284 9//9 6//6
f 6//6 283//283 284//284
f 282//282 7//7 285//285
f 285//285 7//7 286//286
f 287//287 284//284 285//285
f 286//286 287//287 285//285
f 287//287 9//9 284//284
f 9//9 287//287 10//10
f 325//325 295//295 28//28
f 28//28 15//15 325//325
f 289//289 290//290 291//291
f 289//289 291//291 523//523
f 523//523 291//291 292//292
f 292//292 291//291 293//293
f 524//524 298//298 241//241
f 524//524 241//241 294//294
f 524//524 294//294 299//299
f 299//299 294//294 301//301
f 517//517 288//288 521//521
f 523//523 303//303 289//289
f 517//517 276//276 305//305
f 295//295 289//289 288//288
f 289//289 295//295 290//290
f 289//289 521//521 288//288
f 297//297 296//296 298//298
f 297//297 524//524 299//299
f 300//300 522//522 279//279
f 20//20 301//301 294//294
f 523//523 304//304 296//296
f 300//300 299//299 301//301
f 521//521 289//289 303//303
f 523//523 292//292 27//27
f 522//522 301//301 244//244
f 288//288 520//520 302//302
f 288//288 302//302 295//295
f 302//302 28//28 295//295
f 296//296 304//304 298//298
f 244//244 301//301 20//20
f 634//634 635//635 636//636
f 306//306 307//307 277//277
f 637//637 638//638 639//639
f 305//305 307//307 306//306
f 321//321 309//309 320//320
f 320//320 309//309 346//346
f 320//320 346//346 323//323
f 314//314 313//313 310//310
f 314//314 310//310 322//322
f 322//322 310//310 321//321
f 321//321 310//310 309//309
f 309//309 405//405 346//346
f 346//346 405//405 406//406
f 313//313 312//312 310//310
f 310//310 312//312 309//309
f 309//309 312//312 318//318
f 309//309 318//318 405//405
f 312//312 308//308 318//318
f 318//318 308//308 316//316
f 318//318 316//316 315//315
f 50//50 312//312 328//328
f 308//308 319//319 316//316
f 316//316 414//414 415//415
f 314//314 322//322 311//311
f 311//311 322//322 321//321
f 311//311 321//321 331//331
f 331//331 321//321 320//320
f 331//331 320//320 342//342
f 342//342 320//320 341//341
f 341//341 320//320 323//323
f 326//326 328//328 312//312
f 326//326 312//312 313//313
f 324//324 293//293 291//291
f 327//327 324//324 291//291
f 327//327 291//291 290//290
f 330//330 293//293 324//324
f 328//328 326//326 325//325
f 313//313 314//314 327//327
f 313//313 327//327 326//326
f 324//324 327//327 314//314
f 327//327 290//290 326//326
f 50//50 36//36 312//312
f 36//36 357//357 312//312
f 329//329 58//58 292//292
f 311//311 330//330 324//324
f 329//329 292//292 293//293
f 331//331 330//330 311//311
f 329//329 293//293 333//333
f 333//333 338//338 332//332
f 334//334 412//412 335//335
f 333//333 332//332 334//334
f 336//336 334//334 335//335
f 336//336 335//335 337//337
f 333//333 334//334 336//336
f 329//329 333//333 336//336
f 131//131 336//336 337//337
f 338//338 333//333 293//293
f 311//311 324//324 314//314
f 342//342 339//339 331//331
f 339//339 330//330 331//331
f 339//339 338//338 330//330
f 412//412 410//410 347//347
f 344//344 345//345 332//332
f 342//342 341//341 339//339
f 341//341 340//340 339//339
f 340//340 338//338 339//339
f 340//340 344//344 338//338
f 410//410 345//345 317//317
f 317//317 315//315 410//410
f 343//343 344//344 340//340
f 316//316 415//415 410//410
f 410//410 315//315 316//316
f 338//338 344//344 332//332
f 341//341 343//343 340//340
f 405//405 318//318 315//315
f 319//319 414//414 316//316
f 323//323 343//343 341//341
f 323//323 346//346 353//353
f 346//346 406//406 353//353
f 350//350 344//344 343//343
f 350//350 351//351 345//345
f 350//350 345//345 344//344
f 345//345 352//352 317//317
f 349//349 350//350 343//343
f 354//354 349//349 343//343
f 317//317 352//352 348//348
f 354//354 343//343 323//323
f 323//323 353//353 354//354
f 345//345 351//351 352//352
f 354//354 353//353 387//387
f 382//382 351//351 350//350
f 348//348 352//352 381//381
f 351//351 381//381 352//352
f 349//349 382//382 350//350
f 355//355 357//357 356//356
f 425//425 319//319 355//355
f 355//355 319//319 308//308
f 355//355 308//308 357//357
f 355//355 428//428 425//425
f 356//356 428//428 355//355
f 308//308 312//312 357//357
f 357//357 71//71 356//356
f 640//640 641//641 642//642
f 379//379 360//360 358//358
f 408//408 359//359 379//379
f 408//408 358//358 359//359
f 379//379 359//359 360//360
f 358//358 361//361 359//359
f 363//363 374//374 377//377
f 370//370 369//369 362//362
f 369//369 363//363 364//364
f 363//363 369//369 370//370
f 363//363 370//370 374//374
f 370//370 362//362 364//364
f 364//364 362//362 369//369
f 377//377 372//372 371//371
f 366//366 371//371 372//372
f 377//377 371//371 380//380
f 643//643 644//644 645//645
f 380//380 371//371 365//365
f 380//380 365//365 374//374
f 371//371 366//366 365//365
f 373//373 367//367 375//375
f 368//368 400//400 376//376
f 364//364 363//363 379//379
f 646//646 647//647 648//648
f 360//360 361//361 358//358
f 374//374 370//370 364//364
f 365//365 366//366 372//372
f 649//649 650//650 651//651
f 380//380 367//367 373//373
f 358//358 374//374 364//364
f 402//402 374//374 358//358
f 404//404 378//378 367//367
f 652//652 653//653 654//654
f 348//348 381//381 384//384
f 354//354 387//387 386//386
f 411//411 381//381 351//351
f 386//386 349//349 354//354
f 383//383 385//385 382//382
f 383//383 382//382 349//349
f 386//386 383//383 349//349
f 381//381 389//389 384//384
f 390//390 389//389 411//411
f 389//389 381//381 411//411
f 383//383 390//390 385//385
f 384//384 389//389 391//391
f 386//386 387//387 388//388
f 394//394 390//390 383//383
f 395//395 389//389 390//390
f 388//388 392//392 386//386
f 392//392 383//383 386//386
f 395//395 391//391 389//389
f 392//392 394//394 383//383
f 395//395 393//393 391//391
f 396//396 392//392 388//388
f 397//397 394//394 392//392
f 396//396 397//397 392//392
f 398//398 409//409 393//393
f 398//398 393//393 395//395
f 396//396 407//407 397//397
f 397//397 398//398 394//394
f 407//407 398//398 397//397
f 396//396 393//393 409//409
f 413//413 409//409 398//398
f 396//396 409//409 399//399
f 407//407 396//396 399//399
f 375//375 367//367 378//378
f 375//375 378//378 380//380
f 368//368 401//401 400//400
f 402//402 376//376 403//403
f 376//376 401//401 399//399
f 403//403 374//374 402//402
f 378//378 379//379 377//377
f 407//407 401//401 378//378
f 376//376 402//402 368//368
f 401//401 376//376 400//400
f 326//326 290//290 325//325
f 325//325 290//290 295//295
f 285//285 284//284 283//283
f 405//405 315//315 406//406
f 406//406 315//315 317//317
f 406//406 317//317 348//348
f 348//348 353//353 406//406
f 285//285 283//283 281//281
f 285//285 281//281 282//282
f 353//353 348//348 387//387
f 407//407 399//399 401//401
f 334//334 332//332 412//412
f 58//58 329//329 336//336
f 385//385 411//411 382//382
f 394//394 395//395 390//390
f 404//404 413//413 398//398
f 377//377 380//380 378//378
f 403//403 367//367 380//380
f 379//379 363//363 377//377
f 374//374 403//403 380//380
f 408//408 379//379 378//378
f 401//401 368//368 408//408
f 378//378 401//401 408//408
f 404//404 403//403 413//413
f 409//409 403//403 376//376
f 413//413 403//403 409//409
f 404//404 407//407 378//378
f 655//655 656//656 657//657
f 402//402 358//358 408//408
f 58//58 336//336 131//131
f 332//332 345//345 410//410
f 332//332 410//410 412//412
f 411//411 351//351 382//382
f 390//390 411//411 385//385
f 398//398 395//395 394//394
f 388//388 393//393 396//396
f 393//393 388//388 391//391
f 391//391 388//388 387//387
f 391//391 387//387 384//384
f 387//387 348//348 384//384
f 402//402 408//408 368//368
f 376//376 399//399 409//409
f 404//404 398//398 407//407
f 337//337 335//335 416//416
f 347//347 410//410 415//415
f 131//131 337//337 133//133
f 335//335 417//417 416//416
f 347//347 415//415 417//417
f 415//415 414//414 426//426
f 415//415 426//426 418//418
f 417//417 415//415 418//418
f 418//418 426//426 419//419
f 133//133 337//337 420//420
f 416//416 417//417 421//421
f 417//417 418//418 421//421
f 337//337 416//416 420//420
f 418//418 424//424 421//421
f 418//418 419//419 424//424
f 133//133 420//420 138//138
f 420//420 422//422 149//149
f 424//424 419//419 423//423
f 149//149 422//422 431//431
f 424//424 430//430 422//422
f 424//424 423//423 430//430
f 330//330 338//338 293//293
f 425//425 414//414 319//319
f 425//425 428//428 427//427
f 428//428 142//142 427//427
f 414//414 425//425 426//426
f 425//425 427//427 426//426
f 427//427 419//419 426//426
f 427//427 429//429 419//419
f 420//420 421//421 424//424
f 429//429 427//427 150//150
f 430//430 423//423 442//442
f 149//149 431//431 432//432
f 427//427 142//142 150//150
f 419//419 429//429 423//423
f 422//422 420//420 424//424
f 423//423 429//429 447//447
f 442//442 423//423 447//447
f 450//450 145//145 168//168
f 168//168 140//140 151//151
f 168//168 151//151 174//174
f 177//177 157//157 154//154
f 430//430 433//433 422//422
f 431//431 422//422 433//433
f 431//431 433//433 459//459
f 432//432 154//154 148//148
f 432//432 177//177 154//154
f 432//432 459//459 177//177
f 459//459 432//432 431//431
f 459//459 436//436 177//177
f 154//154 157//157 156//156
f 154//154 156//156 178//178
f 178//178 156//156 155//155
f 178//178 160//160 153//153
f 153//153 160//160 164//164
f 153//153 164//164 152//152
f 157//157 177//177 437//437
f 436//436 440//440 438//438
f 437//437 436//436 438//438
f 157//157 437//437 163//163
f 437//437 438//438 163//163
f 163//163 438//438 439//439
f 438//438 441//441 439//439
f 163//163 439//439 464//464
f 163//163 464//464 458//458
f 179//179 165//165 166//166
f 169//169 170//170 171//171
f 173//173 168//168 169//169
f 456//456 454//454 173//173
f 443//443 444//444 446//446
f 444//444 448//448 446//446
f 443//443 446//446 461//461
f 446//446 465//465 461//461
f 446//446 448//448 465//465
f 434//434 444//444 443//443
f 434//434 443//443 445//445
f 454//454 453//453 450//450
f 440//440 445//445 443//443
f 440//440 443//443 461//461
f 440//440 461//461 460//460
f 429//429 450//450 451//451
f 450//450 173//173 454//454
f 450//450 453//453 451//451
f 451//451 453//453 452//452
f 452//452 447//447 451//451
f 448//448 442//442 447//447
f 442//442 448//448 444//444
f 453//453 457//457 455//455
f 453//453 454//454 457//457
f 452//452 453//453 455//455
f 452//452 455//455 462//462
f 435//435 445//445 436//436
f 454//454 456//456 457//457
f 459//459 433//433 435//435
f 433//433 434//434 435//435
f 430//430 444//444 434//434
f 430//430 434//434 433//433
f 442//442 444//444 430//430
f 459//459 435//435 436//436
f 447//447 429//429 451//451
f 150//150 450//450 429//429
f 447//447 452//452 448//448
f 448//448 452//452 462//462
f 412//412 347//347 335//335
f 417//417 335//335 347//347
f 416//416 421//421 420//420
f 450//450 150//150 145//145
f 435//435 434//434 445//445
f 437//437 177//177 436//436
f 436//436 445//445 440//440
f 460//460 438//438 440//440
f 455//455 457//457 449//449
f 438//438 460//460 441//441
f 546//546 266//266 458//458
f 470//470 465//465 448//448
f 464//464 439//439 441//441
f 464//464 441//441 467//467
f 448//448 462//462 470//470
f 441//441 460//460 468//468
f 466//466 468//468 460//460
f 467//467 441//441 468//468
f 461//461 465//465 551//551
f 460//460 461//461 551//551
f 460//460 551//551 466//466
f 552//552 449//449 549//549
f 550//550 475//475 549//549
f 471//471 476//476 463//463
f 472//472 468//468 474//474
f 473//473 466//466 551//551
f 485//485 481//481 477//477
f 487//487 479//479 478//478
f 552//552 475//475 486//486
f 552//552 486//486 487//487
f 477//477 479//479 485//485
f 471//471 480//480 484//484
f 487//487 478//478 552//552
f 484//484 480//480 492//492
f 480//480 488//488 492//492
f 487//487 485//485 479//479
f 483//483 490//490 482//482
f 487//487 486//486 489//489
f 488//488 481//481 501//501
f 485//485 489//489 493//493
f 491//491 492//492 494//494
f 492//492 488//488 494//494
f 501//501 494//494 488//488
f 489//489 485//485 487//487
f 481//481 485//485 501//501
f 496//496 490//490 483//483
f 485//485 493//493 495//495
f 497//497 493//493 489//489
f 485//485 495//495 501//501
f 547//547 490//490 496//496
f 495//495 493//493 498//498
f 502//502 494//494 500//500
f 500//500 494//494 501//501
f 497//497 498//498 493//493
f 547//547 499//499 490//490
f 499//499 498//498 497//497
f 502//502 500//500 504//504
f 500//500 503//503 504//504
f 501//501 495//495 506//506
f 498//498 506//506 495//495
f 505//505 503//503 500//500
f 506//506 505//505 501//501
f 510//510 499//499 547//547
f 508//508 506//506 498//498
f 498//498 499//499 508//508
f 500//500 501//501 505//505
f 505//505 507//507 503//503
f 504//504 507//507 511//511
f 506//506 507//507 505//505
f 504//504 503//503 507//507
f 509//509 507//507 506//506
f 508//508 509//509 506//506
f 514//514 508//508 510//510
f 658//658 659//659 660//660
f 507//507 509//509 513//513
f 507//507 513//513 511//511
f 220//220 223//223 226//226
f 661//661 662//662 663//663
f 222//222 227//227 223//223
f 220//220 226//226 224//224
f 227//227 222//222 226//226
f 513//513 514//514 510//510
f 513//513 510//510 511//511
f 535//535 543//543 512//512
f 664//664 665//665 666//666
f 667//667 668//668 669//669
f 512//512 536//536 535//535
f 516//516 515//515 528//528
f 522//522 4//4 2//2
f 280//280 519//519 517//517
f 305//305 277//277 280//280
f 281//281 520//520 288//288
f 244//244 4//4 522//522
f 1//1 280//280 277//277
f 280//280 1//1 518//518
f 5//5 520//520 281//281
f 519//519 281//281 517//517
f 517//517 305//305 280//280
f 281//281 288//288 517//517
f 517//517 521//521 276//276
f 276//276 521//521 279//279
f 305//305 306//306 277//277
f 670//670 671//671 672//672
f 278//278 522//522 2//2
f 297//297 298//298 524//524
f 299//299 527//527 297//297
f 303//303 296//296 297//297
f 300//300 279//279 525//525
f 525//525 279//279 521//521
f 527//527 303//303 297//297
f 526//526 521//521 303//303
f 303//303 527//527 526//526
f 525//525 521//521 526//526
f 300//300 301//301 522//522
f 303//303 523//523 296//296
f 526//526 527//527 525//525
f 299//299 525//525 527//527
f 299//299 300//300 525//525
f 241//241 20//20 294//294
f 536//536 542//542 533//533
f 531//531 529//529 530//530
f 532//532 537//537 538//538
f 542//542 536//536 544//544
f 673//673 674//674 675//675
f 540//540 528//528 542//542
f 539//539 534//534 538//538
f 538//538 540//540 539//539
f 512//512 513//513 509//509
f 676//676 677//677 678//678
f 512//512 543//543 545//545
f 534//534 532//532 538//538
f 534//534 543//543 535//535
f 544//544 543//543 548//548
f 543//543 534//534 548//548
f 539//539 548//548 534//534
f 532//532 534//534 535//535
f 533//533 532//532 535//535
f 542//542 541//541 540//540
f 541//541 548//548 539//539
f 541//541 539//539 540//540
f 679//679 680//680 681//681
f 544//544 541//541 542//542
f 530//530 528//528 515//515
f 530//530 515//515 516//516
f 682//682 683//683 684//684
f 537//537 531//531 530//530
f 516//516 528//528 537//537
f 542//542 528//528 533//533
f 685//685 686//686 687//687
f 531//531 528//528 529//529
f 499//499 510//510 508//508
f 497//497 490//490 499//499
f 489//489 490//490 497//497
f 491//491 483//483 484//484
f 486//486 482//482 490//490
f 486//486 490//490 489//489
f 482//482 486//486 475//475
f 551//551 465//465 477//477
f 477//477 465//465 470//470
f 477//477 470//470 479//479
f 457//457 266//266 546//546
f 457//457 546//546 449//449
f 456//456 266//266 457//457
f 266//266 456//456 176//176
f 532//532 528//528 531//531
f 688//688 689//689 690//690
f 537//537 528//528 540//540
f 537//537 540//540 538//538
f 532//532 531//531 537//537
f 544//544 536//536 545//545
f 545//545 536//536 514//514
f 545//545 514//514 513//513
f 514//514 512//512 509//509
f 504//504 511//511 502//502
f 502//502 496//496 494//494
f 494//494 496//496 491//491
f 492//492 491//491 484//484
f 470//470 462//462 469//469
f 467//467 463//463 464//464
f 458//458 464//464 463//463
f 463//463 546//546 458//458
f 546//546 463//463 550//550
f 455//455 469//469 462//462
f 449//449 469//469 455//455
f 482//482 484//484 483//483
f 483//483 491//491 496//496
f 496//496 502//502 547//547
f 547//547 502//502 511//511
f 547//547 511//511 510//510
f 472//472 467//467 468//468
f 471//471 467//467 472//472
f 467//467 471//471 463//463
f 550//550 549//549 546//546
f 449//449 546//546 549//549
f 552//552 478//478 469//469
f 479//479 469//469 478//478
f 481//481 473//473 477//477
f 473//473 481//481 488//488
f 473//473 488//488 474//474
f 480//480 472//472 474//474
f 480//480 474//474 488//488
f 471//471 472//472 480//480
f 484//484 476//476 471//471
f 476//476 484//484 482//482
f 476//476 482//482 550//550
f 550//550 482//482 475//475
f 552//552 549//549 475//475
f 550//550 463//463 476//476
f 466//466 473//473 474//474
f 466//466 474//474 468//468
f 473//473 551//551 477//477
f 479//479 470//470 469//469
f 449//449 552//552 469//469
f 520//520 5//5 237//237
f 356//356 71//71 142//142
f 356//356 142//142 428//428
f 138//138 420//420 149//149
