# GloomhavenVR haunt figure — CC0, MakeHuman hm08 base mesh.
# See Assets/Editor/haunt_figures_pipeline.py for provenance.
v -0.04754 1.53801 0.13423
v 0.00072 1.55302 0.15120
v -0.01009 1.60260 0.15152
v -0.00109 1.51052 0.16862
v -0.03406 1.50526 0.11072
v -0.02065 1.47858 0.14687
v -0.02540 1.51389 0.09544
v -0.02934 1.46381 0.09635
v -0.01798 1.44355 0.06681
v -0.00495 1.47060 0.15389
v -0.04042 1.46034 0.06017
v -0.02818 1.42415 0.06038
v -0.04575 1.40726 0.03522
v -0.00981 1.43506 0.14018
v 0.01773 1.37622 0.07231
v -0.05523 1.41175 -0.00071
v -0.04524 1.40771 -0.02838
v -0.03396 1.46875 -0.00833
v -0.06994 1.50429 0.06956
v -0.00021 1.66774 0.02990
v -0.05036 1.64158 0.00235
v 0.01483 1.66725 0.06934
v -0.03124 1.66134 0.08570
v -0.07274 1.62171 0.06075
v -0.06316 1.62034 0.10352
v -0.04818 1.47892 0.03961
v -0.06300 1.54071 0.01009
v -0.00357 1.40998 -0.02459
v -0.03111 1.56595 -0.04048
v -0.01655 1.54370 0.13725
v -0.01933 1.54903 0.10982
v -0.04432 1.55696 0.11711
v -0.13810 1.29423 0.08444
v -0.19099 1.38243 -0.00282
v -0.17658 1.37501 0.06527
v -0.11037 1.32395 0.09967
v -0.11603 1.36854 0.07933
v -0.14631 1.27462 0.03423
v -0.24512 1.27161 0.04359
v -0.16022 1.30385 0.06508
v -0.15459 1.39586 0.00585
v -0.08067 1.37490 0.04392
v -0.22322 1.32996 0.04755
v -0.03072 1.37747 0.06968
v -0.08556 1.39554 0.00483
v -0.11054 1.39130 -0.01692
v -0.04230 1.35481 0.09170
v 0.00164 1.24940 0.13096
v -0.07324 1.31540 0.11107
v -0.04288 1.36554 -0.05105
v -0.16624 1.35398 -0.04300
v -0.11277 1.27117 -0.05202
v -0.07502 1.35867 -0.05078
v -0.03719 1.29613 -0.05275
v -0.22383 1.33717 -0.01358
v -0.11803 1.20814 -0.01406
v -0.15486 1.27176 -0.01621
v -0.25012 1.29259 0.01242
v -0.17204 1.28347 0.03304
v -0.21130 1.28937 -0.03312
v -0.22618 1.22342 -0.03472
v -0.22932 1.26525 0.05278
v -0.21636 1.19874 -0.00152
v -0.18816 1.23816 -0.01239
v -0.26643 1.20514 0.04902
v -0.29469 1.18306 0.03298
v -0.28551 1.21203 0.00231
v -0.26354 1.20886 -0.03053
v -0.06428 1.20494 0.16018
v -0.08530 1.19335 0.15876
v -0.10585 1.19596 0.13921
v -0.10536 1.18052 0.11735
v -0.11915 1.25778 0.11222
v -0.08874 1.25845 0.13445
v -0.03811 1.17638 0.15579
v -0.33529 0.89633 0.26009
v -0.35073 0.91776 0.24179
v -0.34050 0.90457 0.26347
v -0.34293 0.89109 0.26286
v -0.34354 0.90157 0.24146
v -0.33630 0.88707 0.27657
v -0.35239 0.88365 0.22101
v -0.34183 0.87768 0.23098
v -0.34543 0.86573 0.21494
v -0.35362 0.89078 0.20154
v -0.35396 0.88430 0.18512
v -0.31623 0.96111 0.24449
v -0.34341 0.92540 0.24144
v -0.34420 0.87302 0.24752
v -0.34559 0.90212 0.19680
v -0.33090 0.95736 0.21369
v -0.34513 0.90078 0.15627
v -0.35842 0.92584 0.19549
v -0.34819 0.87402 0.17774
v -0.34381 0.91377 0.21792
v -0.28514 1.16713 0.04602
v -0.26641 1.15050 0.03928
v -0.25108 1.14269 0.00464
v -0.28931 1.14987 -0.02941
v -0.31467 1.15116 0.01509
v -0.33346 1.10723 0.05516
v -0.31787 1.10552 0.00687
v -0.31262 1.13476 0.06335
v -0.33317 1.05258 0.04673
v -0.33736 1.05570 0.11465
v -0.35216 1.01646 0.09937
v -0.28729 1.07724 0.07416
v -0.35066 0.99745 0.15832
v -0.31890 0.97794 0.21541
v -0.33207 0.97541 0.15075
v -0.35790 0.92061 0.15436
v -0.04568 1.45615 0.10628
v -0.03093 1.48549 0.05947
v -0.19734 1.35414 0.06239
v -0.19302 1.30792 0.05809
v -0.21455 1.23840 0.04559
v -0.24129 1.20142 0.04678
v -0.32564 1.02697 0.13341
v -0.33143 1.00857 0.08828
v -0.35172 0.96833 0.12104
v -0.34355 0.95352 0.21744
v -0.07331 1.30495 -0.05785
v -0.16611 1.28819 -0.03324
v -0.26079 1.14771 -0.02499
v -0.28965 1.09201 0.01561
v -0.29204 1.10496 0.08000
v -0.33649 0.97259 0.12840
v -0.08187 1.23796 -0.04146
v -0.13688 1.22263 0.02592
v -0.12482 1.17288 0.04123
v -0.03917 1.19950 -0.03888
v -0.11962 1.19439 0.08392
v -0.08495 1.16130 -0.01596
v -0.04114 1.14637 -0.02550
v 0.00588 1.17062 -0.02694
v -0.10783 1.12467 0.03127
v 0.01716 1.09393 -0.01714
v -0.11492 1.08199 0.06965
v -0.07701 1.08043 0.00207
v -0.04825 1.08171 -0.01631
v -0.01749 1.02892 -0.03074
v -0.11493 1.03110 0.00824
v -0.07417 1.03453 -0.01734
v -0.03612 1.12810 0.16071
v -0.08010 1.16774 0.14321
v -0.08224 1.07331 0.13246
v 0.01559 1.14631 0.16294
v -0.09627 1.14892 0.12482
v -0.04306 1.01036 0.13904
v -0.11545 1.03805 0.09623
v -0.00554 0.99927 0.14157
v -0.10232 1.07896 0.02583
v -0.14184 0.98858 0.04383
v -0.09859 1.01922 0.11520
v -0.06191 0.99422 -0.04454
v -0.08519 0.94023 -0.08004
v -0.00528 0.93298 -0.06885
v -0.07636 0.85737 -0.09940
v -0.10219 0.90926 -0.09007
v -0.02433 0.82001 -0.07685
v -0.11034 0.83684 -0.07878
v -0.00318 0.84093 -0.06986
v -0.00399 0.79226 -0.02750
v -0.06831 0.76610 -0.03786
v -0.02254 0.75956 0.00559
v -0.00517 0.77405 0.02282
v -0.14269 0.86087 0.07911
v -0.13920 0.86805 -0.02903
v -0.14989 0.87487 0.01283
v -0.02715 0.88385 0.14150
v -0.11214 0.94113 0.10272
v -0.11415 0.87741 0.10971
v -0.04691 0.83532 0.13046
v -0.01427 0.82555 0.13702
v -0.00427 0.79661 0.11187
v -0.00044 0.77556 0.06022
v -0.02445 0.80418 0.11870
v -0.11997 0.96708 -0.04268
v -0.14343 0.97588 0.01239
v -0.13842 0.96197 0.07490
v -0.09264 0.81654 0.14584
v -0.12473 0.83268 0.12290
v -0.15233 0.78918 0.13005
v -0.05673 0.72315 0.03565
v -0.13138 0.75977 -0.00724
v -0.14956 0.79617 0.02546
v -0.04898 0.76346 0.15415
v -0.05048 0.71770 0.14955
v -0.09282 0.68621 0.04054
v -0.12504 0.70292 0.03053
v -0.15792 0.77490 0.08327
v -0.14775 0.73681 0.04263
v -0.10871 0.74646 0.19839
v -0.07133 0.77776 0.17064
v -0.14375 0.75340 0.18377
v -0.06669 0.68385 0.06988
v -0.08511 0.70408 0.20233
v -0.07370 0.66569 0.19415
v -0.12734 0.63706 0.07183
v -0.15569 0.70403 0.16941
v -0.09578 0.60808 0.24051
v -0.13487 0.56238 0.12270
v -0.11619 0.64853 0.23403
v -0.13753 0.66713 0.21834
v -0.09767 0.56849 0.12074
v -0.14754 0.61484 0.12172
v -0.12470 0.56631 0.24736
v -0.13974 0.54649 0.22650
v -0.10510 0.55633 0.24878
v -0.09022 0.53810 0.23379
v -0.08209 0.55056 0.15895
v -0.11709 0.51667 0.13839
v -0.13926 0.51489 0.15511
v -0.14349 0.53728 0.19932
v -0.08782 0.49747 0.19754
v -0.11740 0.47336 0.15261
v -0.09673 0.48775 0.24929
v -0.12517 0.49472 0.27567
v -0.11058 0.43300 0.26494
v -0.12352 0.42008 0.16190
v -0.13601 0.45942 0.16357
v -0.14306 0.46508 0.18093
v -0.14633 0.39792 0.18792
v -0.14835 0.40392 0.21090
v -0.12249 0.39040 0.27695
v -0.11443 0.36464 0.17815
v -0.13880 0.37334 0.17373
v -0.14072 0.44263 0.25341
v -0.10162 0.41474 0.20592
v -0.12382 0.27426 0.21302
v -0.14315 0.33740 0.19401
v -0.13171 0.34346 0.17329
v -0.11612 0.26434 0.26860
v -0.13404 0.37614 0.28508
v -0.13528 0.28625 0.21235
v -0.14014 0.30133 0.22421
v -0.14086 0.31907 0.26847
v -0.12958 0.30394 0.30862
v -0.12681 0.18856 0.27023
v -0.13011 0.20418 0.30287
v -0.12520 0.20257 0.34438
v -0.11307 0.13088 0.50671
v -0.11279 0.15334 0.52459
v -0.11567 0.15549 0.52157
v -0.00112 1.53612 0.15467
v -0.01806 1.50908 0.14889
v -0.04766 1.48832 0.12921
v -0.04864 1.55829 0.13648
v -0.06821 1.54505 0.09849
v 0.00227 1.64420 -0.01626
v -0.07259 1.58528 0.01522
v -0.07754 1.55083 0.05044
v -0.03506 1.53155 -0.02565
v -0.07282 1.52127 0.04357
v -0.07383 1.52799 0.05489
v -0.11041 0.11957 0.47874
v -0.11672 0.14133 0.48364
v -0.11613 0.14848 0.51801
v -0.11587 0.14111 0.50157
v -0.11923 0.14033 0.42329
v -0.11321 0.10683 0.43961
v -0.11453 0.15463 0.45482
v -0.11456 0.13200 0.37293
v -0.11788 0.16263 0.32192
v -0.11410 0.06106 0.32217
v -0.12331 0.15093 0.34978
v -0.12122 0.11545 0.30536
v -0.01438 0.77584 0.06765
v -0.05031 0.69211 0.11406
v -0.07412 0.59039 0.18369
v -0.09356 0.46376 0.19642
v -0.10539 0.34238 0.24325
v -0.11823 0.15941 0.39076
v -0.11462 0.08353 0.38247
v -0.11551 0.13652 0.50208
v 0.04696 1.53843 0.13470
v 0.06632 1.51205 0.10234
v 0.01529 1.50640 0.15076
v 0.00330 1.48970 0.15732
v 0.02469 1.47901 0.13977
v -0.01158 1.46187 0.14568
v -0.00326 1.51062 0.13908
v 0.02735 1.46274 0.10698
v 0.01827 1.51639 0.11498
v 0.02392 1.45100 0.07651
v 0.01160 1.51388 0.08342
v 0.02633 1.48273 0.05455
v -0.00228 1.49153 0.05675
v 0.04962 1.38892 0.04061
v 0.00081 1.40331 0.07030
v 0.04864 1.47275 0.04620
v 0.03820 1.43786 0.05178
v 0.03994 1.47367 -0.00604
v 0.06047 1.63944 0.02369
v 0.02495 1.49709 -0.01486
v 0.05012 1.51932 -0.00109
v 0.03274 1.54657 -0.03375
v 0.03733 1.60398 -0.03442
v 0.02987 1.44598 0.09738
v 0.05454 1.64413 0.08926
v -0.00680 1.43117 0.08289
v 0.01532 1.54127 0.13457
v 0.04018 1.54928 0.10794
v 0.14576 1.36567 0.08038
v 0.10815 1.33832 0.09756
v 0.18044 1.37972 0.05585
v 0.05426 1.35496 0.08955
v 0.22753 1.32022 0.04828
v 0.13604 1.30173 0.08746
v 0.15528 1.26585 -0.00415
v 0.14105 1.23358 0.01907
v 0.14390 1.38495 0.05232
v 0.10444 1.37714 -0.03733
v 0.09910 1.39136 0.00162
v 0.05149 1.41515 -0.01491
v 0.02134 1.32724 0.10110
v 0.15219 1.39359 -0.00228
v 0.04781 1.37197 -0.04995
v 0.10988 1.26428 -0.05082
v 0.08441 1.30502 -0.06152
v 0.09179 1.23403 -0.03828
v 0.02501 1.31672 -0.05407
v 0.04232 1.20864 -0.04022
v -0.00059 1.25671 -0.04371
v 0.17718 1.35790 -0.03886
v 0.19064 1.38121 -0.00255
v 0.12868 1.32594 -0.05228
v 0.23235 1.33479 0.02550
v 0.22156 1.32006 -0.02046
v 0.25452 1.27849 0.02644
v 0.15996 1.27062 -0.01509
v 0.25151 1.25792 -0.00729
v 0.17366 1.25971 0.00195
v 0.16920 1.29808 0.04814
v 0.17173 1.32461 0.07280
v 0.12476 1.25646 0.08621
v 0.19288 1.27870 -0.03075
v 0.25866 1.24168 0.06024
v 0.22127 1.19140 0.01434
v 0.23846 1.21018 -0.02306
v 0.08210 1.19607 0.16316
v 0.07013 1.25939 0.13590
v 0.10631 1.26158 0.12705
v 0.35227 0.97772 0.31849
v 0.34270 0.98063 0.32310
v 0.34577 0.96133 0.30818
v 0.35326 0.93846 0.32079
v 0.34535 0.91945 0.31508
v 0.35384 0.92803 0.27933
v 0.34358 0.87738 0.31117
v 0.34686 0.92721 0.29080
v 0.34530 0.89228 0.27681
v 0.31434 0.99906 0.31041
v 0.34525 0.96125 0.34675
v 0.33730 0.96200 0.33474
v 0.34229 0.91550 0.33861
v 0.35286 0.90142 0.30705
v 0.33721 0.94248 0.35465
v 0.34328 0.89290 0.34112
v 0.34826 0.92598 0.25860
v 0.35645 0.95313 0.29164
v 0.31994 1.01591 0.26804
v 0.33990 0.96765 0.22159
v 0.35864 0.97298 0.27935
v 0.29618 1.19152 0.04767
v 0.25598 1.13634 0.03972
v 0.26730 1.15406 0.06377
v 0.28549 1.15994 -0.00418
v 0.30713 1.16516 0.03214
v 0.28790 1.17486 0.07098
v 0.31384 1.10219 0.04626
v 0.33143 1.05691 0.11124
v 0.29115 1.09175 0.12369
v 0.32344 1.13745 0.09750
v 0.33786 1.09567 0.10277
v 0.30048 1.06632 0.11149
v 0.33473 1.07241 0.18146
v 0.31184 1.06062 0.16824
v 0.34589 1.07296 0.16070
v 0.33497 1.00659 0.20537
v 0.34944 1.03824 0.22090
v 0.34094 1.01377 0.17563
v 0.35034 1.04831 0.15796
v 0.35827 1.00955 0.23915
v 0.34315 1.03035 0.26619
v 0.35545 0.92382 0.26519
v 0.31922 1.01561 0.29898
v 0.34440 0.95887 0.28062
v 0.03865 1.49398 0.09645
v 0.03627 1.58248 0.14423
v 0.18602 1.28899 0.05349
v 0.23672 1.21619 0.06174
v 0.30571 1.06893 0.09171
v 0.33558 0.99643 0.28255
v 0.05530 1.30984 -0.04891
v 0.21630 1.20311 -0.00610
v 0.25845 1.14132 0.00428
v 0.35625 0.96379 0.23395
v 0.30868 1.12321 0.12238
v 0.33737 1.03102 0.22539
v 0.34879 1.00111 0.19578
v 0.13535 1.23213 -0.00708
v 0.08555 1.17603 -0.01833
v 0.12005 1.15854 0.08092
v 0.11726 1.17761 0.00767
v 0.10504 1.12199 0.03084
v 0.04539 1.13202 -0.02193
v 0.06208 1.09948 -0.01463
v 0.11569 1.10660 0.07874
v 0.10944 1.07451 0.04123
v 0.09589 1.04355 0.00649
v 0.12159 1.04368 0.06412
v 0.11970 1.02253 0.01343
v 0.10786 1.19870 0.12809
v 0.09419 1.17077 0.13229
v 0.05146 1.17413 0.15620
v 0.10993 1.05648 0.11367
v 0.00210 1.03001 0.14276
v 0.03973 1.00345 0.14103
v 0.05859 1.05290 -0.01422
v 0.05610 1.09454 0.14997
v 0.14235 0.99015 0.04054
v 0.01857 1.04861 -0.02343
v 0.07939 0.95629 -0.06564
v 0.04245 0.95017 -0.06875
v -0.00817 0.87948 -0.08050
v 0.11459 0.92185 -0.06151
v 0.02797 0.85576 -0.10802
v 0.04655 0.88414 -0.10377
v 0.09039 0.88612 -0.09705
v 0.02719 0.80452 -0.09398
v 0.08909 0.80721 -0.11078
v 0.05441 0.77770 -0.10832
v 0.14268 0.94550 0.08701
v 0.14948 0.91857 0.03102
v 0.13636 0.87380 0.09645
v 0.14329 0.83226 -0.03155
v 0.08146 0.89619 0.12072
v 0.12066 0.89880 0.11083
v 0.04482 0.87535 0.13118
v 0.08901 0.84912 0.11185
v 0.12331 0.82091 0.09830
v 0.05165 0.82236 0.09747
v 0.04302 0.78965 0.07104
v 0.09100 0.81641 0.10166
v 0.09393 0.76933 0.07515
v 0.01140 0.82326 0.11446
v 0.00983 0.95101 0.14679
v 0.00784 0.77834 0.05905
v 0.01437 0.77853 0.00502
v 0.00781 0.79384 -0.05295
v 0.01620 0.78919 -0.04880
v 0.02287 0.77730 0.02963
v 0.12251 0.99671 0.10556
v 0.12210 0.97836 -0.02510
v 0.04140 0.74699 0.01503
v 0.06800 0.73826 0.04053
v 0.04610 0.71571 -0.04045
v 0.14987 0.82544 0.05931
v 0.13902 0.76307 0.06801
v 0.12543 0.80811 -0.08744
v 0.14629 0.77932 -0.07076
v 0.07205 0.68809 -0.01039
v 0.10778 0.74889 -0.14429
v 0.10703 0.68962 0.01613
v 0.15951 0.74009 -0.00064
v 0.13895 0.68487 0.01809
v 0.15344 0.73052 0.02675
v 0.08913 0.60336 -0.04268
v 0.08657 0.58238 -0.17012
v 0.11755 0.63308 -0.16995
v 0.11613 0.60953 -0.01931
v 0.15096 0.66261 -0.09572
v 0.14145 0.60738 -0.02823
v 0.14154 0.62514 -0.14482
v 0.08676 0.53482 -0.10681
v 0.12232 0.56216 -0.19426
v 0.12648 0.51659 -0.08299
v 0.10583 0.51748 -0.08850
v 0.14241 0.54673 -0.08421
v 0.09376 0.47076 -0.15208
v 0.08742 0.50514 -0.16896
v 0.11599 0.53018 -0.21273
v 0.14392 0.54105 -0.11023
v 0.14295 0.51948 -0.17184
v 0.09869 0.46745 -0.20580
v 0.12797 0.45130 -0.11170
v 0.10712 0.50159 -0.21707
v 0.12756 0.48490 -0.24270
v 0.14747 0.41371 -0.19893
v 0.11375 0.42589 -0.28296
v 0.13143 0.40209 -0.16160
v 0.13453 0.42134 -0.28515
v 0.11573 0.36518 -0.30361
v 0.13213 0.38382 -0.30331
v 0.14665 0.41518 -0.25024
v 0.12092 0.34694 -0.21444
v 0.11533 0.32222 -0.27051
v 0.13420 0.30708 -0.21875
v 0.12656 0.27147 -0.32896
v 0.13255 0.25493 -0.28636
v 0.11887 0.26575 -0.26975
v 0.12413 0.20227 -0.27530
v 0.03876 1.56156 0.13615
v 0.11308 0.03101 -0.18313
v 0.11016 0.04001 -0.21011
v 0.11308 0.04958 -0.19934
v 0.11253 0.02444 -0.20141
v 0.11545 0.03261 -0.18648
v 0.02246 1.44304 0.13660
v 0.06206 1.55321 0.11692
v 0.04659 1.46206 0.11427
v 0.04121 1.49751 0.13681
v 0.07587 1.57375 0.01827
v 0.07697 1.54621 0.04228
v 0.01694 1.64831 0.11595
v 0.06661 1.51270 0.04637
v 0.07174 1.59966 0.08988
v 0.07500 1.53273 0.05328
v 0.07176 1.50900 0.06067
v 0.07292 1.55292 0.06824
v 0.11275 0.04186 -0.24661
v 0.10913 0.06356 -0.24929
v 0.11473 0.03581 -0.21220
v 0.11584 0.04906 -0.19847
v 0.11587 0.04632 -0.21658
v 0.11503 0.05614 -0.21584
v 0.11590 0.03525 -0.19601
v 0.11619 0.04062 -0.20623
v 0.11683 0.05130 -0.20755
v 0.11616 0.04389 -0.21129
v 0.11421 0.03892 -0.22722
v 0.12078 0.14649 -0.28024
v 0.11457 0.13148 -0.30379
v 0.11396 0.10325 -0.37256
v 0.12313 0.16618 -0.32697
v 0.11461 0.06799 -0.28422
v 0.11554 0.13933 -0.39057
v 0.12007 0.19218 -0.34966
v 0.02600 0.76631 -0.04686
v 0.05175 0.70610 -0.09719
v 0.06712 0.62745 -0.10690
v 0.10653 0.42754 -0.17702
v 0.10362 0.39460 -0.23917
v 0.11543 0.03801 -0.21901
v 0.11505 0.04489 -0.22669
v 0.11618 0.05789 -0.23379
v 0.11580 0.09696 -0.24716
v 0.07334 0.63471 -0.05608
v 0.07154 0.67363 -0.14203
v 0.09251 0.72790 -0.14804
v 0.13909 0.71917 -0.12700
v -0.04864 1.55829 0.13648
v -0.04754 1.53801 0.13423
v -0.04432 1.55696 0.11711
v -0.04432 1.55696 0.11711
v -0.01933 1.54903 0.10982
v -0.01655 1.54370 0.13725
v -0.34420 0.87302 0.24752
v -0.35239 0.88365 0.22101
v -0.34183 0.87768 0.23098
v -0.34559 0.90212 0.19680
v -0.35362 0.89078 0.20154
v -0.34543 0.86573 0.21494
v -0.34513 0.90078 0.15627
v -0.35396 0.88430 0.18512
v -0.34819 0.87402 0.17774
v -0.34355 0.95352 0.21744
v -0.34341 0.92540 0.24144
v -0.34381 0.91377 0.21792
v -0.33090 0.95736 0.21369
v -0.31623 0.96111 0.24449
v -0.34355 0.95352 0.21744
v -0.00495 1.47060 0.15389
v -0.01158 1.46187 0.14568
v -0.02065 1.47858 0.14687
v -0.11587 0.14111 0.50157
v -0.11672 0.14133 0.48364
v -0.11613 0.14848 0.51801
v -0.11041 0.11957 0.47874
v -0.11307 0.13088 0.50671
v -0.11551 0.13652 0.50208
v -0.11321 0.10683 0.43961
v -0.11041 0.11957 0.47874
v -0.11672 0.14133 0.48364
v -0.11453 0.15463 0.45482
v -0.11823 0.15941 0.39076
v -0.11923 0.14033 0.42329
v -0.11551 0.13652 0.50208
v -0.11307 0.13088 0.50671
v -0.11567 0.15549 0.52157
v -0.11823 0.15941 0.39076
v -0.12520 0.20257 0.34438
v -0.12331 0.15093 0.34978
v -0.11551 0.13652 0.50208
v -0.11587 0.14111 0.50157
v -0.11613 0.14848 0.51801
v -0.11307 0.13088 0.50671
v -0.11672 0.14133 0.48364
v -0.11567 0.15549 0.52157
v -0.11279 0.15334 0.52459
v -0.11672 0.14133 0.48364
v -0.11307 0.13088 0.50671
v -0.11672 0.14133 0.48364
v -0.11279 0.15334 0.52459
v -0.11453 0.15463 0.45482
v 0.03876 1.56156 0.13615
v 0.04018 1.54928 0.10794
v 0.04696 1.53843 0.13470
v 0.33730 0.96200 0.33474
v 0.34577 0.96133 0.30818
v 0.35227 0.97772 0.31849
v 0.35286 0.90142 0.30705
v 0.35645 0.95313 0.29164
v 0.34686 0.92721 0.29080
v 0.34826 0.92598 0.25860
v 0.34530 0.89228 0.27681
v 0.35384 0.92803 0.27933
v 0.34525 0.96125 0.34675
v 0.33730 0.96200 0.33474
v 0.33721 0.94248 0.35465
v 0.31434 0.99906 0.31041
v 0.33558 0.99643 0.28255
v 0.31922 1.01561 0.29898
v 0.11421 0.03892 -0.22722
v 0.11253 0.02444 -0.20141
v 0.11016 0.04001 -0.21011
v 0.11543 0.03801 -0.21901
v 0.11587 0.04632 -0.21658
v 0.11421 0.03892 -0.22722
v 0.12313 0.16618 -0.32697
v 0.11554 0.13933 -0.39057
v 0.12007 0.19218 -0.34966
v 0.11421 0.03892 -0.22722
v 0.11616 0.04389 -0.21129
v 0.11618 0.05789 -0.23379
v 0.11396 0.10325 -0.37256
v 0.11461 0.06799 -0.28422
v 0.11457 0.13148 -0.30379
v 0.12078 0.14649 -0.28024
v 0.11457 0.13148 -0.30379
v 0.11580 0.09696 -0.24716
v 0.11503 0.05614 -0.21584
v 0.11587 0.04632 -0.21658
v 0.11683 0.05130 -0.20755
v 0.11543 0.03801 -0.21901
v 0.11683 0.05130 -0.20755
v 0.11587 0.04632 -0.21658
v 0.11587 0.04632 -0.21658
v 0.11503 0.05614 -0.21584
v 0.11584 0.04906 -0.19847
v 0.11619 0.04062 -0.20623
v 0.11683 0.05130 -0.20755
v 0.11590 0.03525 -0.19601
v 0.11619 0.04062 -0.20623
v 0.11503 0.05614 -0.21584
v 0.11683 0.05130 -0.20755
v 0.02469 1.47901 0.13977
v -0.01158 1.46187 0.14568
v -0.00495 1.47060 0.15389
vn -0.53440 0.22222 0.81550
vn 0.00597 -0.14341 0.98964
vn -0.24285 0.41878 0.87501
vn -0.05180 0.05219 0.99729
vn 0.96502 -0.11991 -0.23316
vn 0.04306 -0.62308 0.78097
vn 0.28336 -0.92296 0.26047
vn 0.72259 0.66567 -0.18641
vn 0.23921 0.67334 0.69957
vn 0.14388 -0.14421 0.97903
vn -0.86133 -0.48473 0.15216
vn -0.64687 -0.08252 0.75812
vn -0.86514 0.18509 0.46612
vn -0.31025 -0.83198 0.45994
vn 0.19382 0.45374 0.86980
vn -0.92209 0.36930 -0.11564
vn -0.27026 0.59859 -0.75409
vn -0.50091 0.00980 -0.86545
vn -0.93915 -0.33377 0.08125
vn -0.01025 0.96949 -0.24492
vn -0.63484 0.61949 -0.46174
vn 0.27468 0.95562 0.10651
vn -0.43524 0.84857 0.30082
vn -0.94193 0.33299 0.04338
vn -0.76588 0.34589 0.54202
vn -0.97436 -0.17788 -0.13778
vn -0.85969 -0.22730 -0.45746
vn 0.04160 0.33539 -0.94116
vn -0.36303 0.04882 -0.93050
vn -0.60033 -0.08522 0.79520
vn -0.19339 0.67569 0.71137
vn 0.12009 -0.88939 0.44110
vn -0.77326 -0.15258 0.61545
vn -0.63957 0.75975 -0.11719
vn -0.29595 0.74661 0.59580
vn -0.35126 0.22970 0.90767
vn -0.00284 0.79364 0.60838
vn -0.81321 -0.50479 0.28962
vn -0.79937 0.34056 0.49500
vn -0.44885 -0.58498 0.67553
vn -0.04295 0.99882 0.02260
vn -0.02129 0.93592 0.35157
vn -0.77887 0.44322 0.44375
vn -0.39491 0.53581 0.74630
vn -0.45213 0.82083 0.34902
vn -0.16604 0.88167 -0.44170
vn 0.00059 0.63823 0.76984
vn -0.00088 0.33658 0.94165
vn -0.00035 0.39109 0.92035
vn 0.06167 0.24539 -0.96746
vn -0.24315 0.29673 -0.92349
vn -0.30613 -0.26910 -0.91316
vn -0.09412 0.35796 -0.92898
vn 0.03229 -0.09005 -0.99541
vn -0.77200 0.44229 -0.45650
vn -0.70005 -0.39897 -0.59224
vn -0.58480 -0.74929 -0.31077
vn -0.87319 0.40331 -0.27364
vn 0.44702 -0.71722 0.53457
vn -0.42831 0.16255 -0.88889
vn 0.32563 -0.27498 -0.90463
vn -0.12565 -0.00551 0.99206
vn 0.84249 -0.53863 0.00936
vn 0.76740 -0.64047 -0.02979
vn -0.33338 0.11013 0.93634
vn -0.80460 0.46042 0.37500
vn -0.89621 0.40895 -0.17195
vn -0.52915 0.26579 -0.80583
vn -0.01041 0.31074 0.95044
vn -0.41913 -0.37395 0.82734
vn -0.70281 0.09654 0.70480
vn -0.89610 -0.24009 0.37330
vn -0.91509 -0.08168 0.39489
vn -0.23644 0.34638 0.90781
vn 0.00183 0.15293 0.98824
vn 0.97665 -0.08133 -0.19884
vn -0.96893 -0.19557 0.15144
vn -0.69717 0.35041 0.62543
vn -0.85196 -0.52208 -0.03990
vn 0.09880 -0.85439 -0.51015
vn 0.40742 -0.11447 0.90604
vn -0.98030 -0.17492 0.09176
vn 0.93888 -0.28690 -0.19026
vn 0.83700 -0.51479 0.18554
vn -0.81889 0.00859 0.57388
vn -0.82893 -0.55165 -0.09247
vn 0.34973 -0.27842 0.89452
vn 0.33605 0.80813 0.48372
vn -0.58799 0.24635 0.77044
vn 0.96399 -0.25951 -0.05803
vn 0.93116 -0.36294 -0.03481
vn 0.86642 -0.35811 -0.34796
vn -0.98347 0.08400 0.16041
vn -0.70415 -0.50185 -0.50232
vn 0.80766 -0.16358 0.56650
vn 0.08286 0.25183 0.96422
vn 0.76955 -0.09197 0.63193
vn 0.86804 -0.48420 0.10981
vn -0.65735 0.08748 -0.74849
vn -0.91723 0.30771 -0.25300
vn -0.96193 0.27290 -0.01457
vn -0.63652 -0.28474 -0.71677
vn -0.38530 0.57623 0.72077
vn -0.65159 -0.37904 -0.65708
vn -0.60135 0.53647 0.59209
vn -0.98787 0.04653 -0.14817
vn 0.92003 -0.37458 0.11509
vn -0.86572 0.41122 0.28536
vn 0.46029 0.83098 0.31242
vn 0.99606 -0.08650 -0.01955
vn -0.98477 -0.05821 -0.16384
vn -0.78277 -0.61204 0.11258
vn 0.86076 -0.10579 0.49789
vn -0.58549 0.18007 0.79043
vn -0.01709 -0.23601 0.97160
vn 0.64756 -0.45667 0.61001
vn 0.57419 -0.37703 0.72674
vn 0.74592 0.12671 0.65387
vn 0.44990 -0.70042 -0.55408
vn -0.81580 -0.26689 -0.51307
vn -0.72259 0.43509 0.53718
vn -0.03233 -0.01748 -0.99932
vn -0.00687 -0.29465 -0.95558
vn 0.40949 -0.48537 -0.77249
vn 0.52635 -0.68534 -0.50325
vn 0.41065 0.37961 0.82901
vn 0.90440 -0.39273 -0.16680
vn -0.10665 -0.25426 -0.96124
vn -0.96111 -0.24908 0.11931
vn -0.97461 -0.19791 -0.10468
vn -0.04554 -0.20247 -0.97823
vn -0.95328 -0.10811 0.28209
vn -0.47517 -0.28959 -0.83087
vn -0.13417 -0.17588 -0.97522
vn 0.00501 -0.18281 -0.98314
vn -0.83679 -0.23782 -0.49318
vn 0.03715 -0.05454 -0.99782
vn -0.99601 0.07487 0.04853
vn -0.60592 -0.06095 -0.79319
vn -0.16517 0.08417 -0.98267
vn -0.05645 0.34435 -0.93714
vn -0.72209 0.45486 -0.52124
vn -0.41067 0.34525 -0.84389
vn -0.19514 -0.10894 0.97471
vn -0.50584 -0.14090 0.85104
vn -0.53435 -0.10067 0.83925
vn 0.05621 -0.06876 0.99605
vn -0.87387 -0.03533 0.48488
vn -0.25287 -0.08104 0.96410
vn -0.88545 0.09065 0.45581
vn -0.01984 0.04908 0.99860
vn -0.79113 0.21768 -0.57161
vn -0.97732 0.20574 0.05024
vn -0.51896 -0.04517 0.85361
vn -0.14182 0.51541 -0.84513
vn -0.05250 0.49088 -0.86964
vn 0.05549 0.33289 -0.94133
vn 0.03085 -0.16573 -0.98569
vn -0.50355 0.17522 -0.84601
vn 0.28091 -0.50307 -0.81732
vn -0.62744 -0.33075 -0.70493
vn -0.51040 -0.39238 -0.76520
vn 0.32665 -0.75878 -0.56351
vn 0.05129 -0.68551 -0.72625
vn 0.57458 -0.76990 -0.27768
vn 0.48785 -0.86814 -0.09132
vn -0.92312 0.17432 0.34271
vn -0.91830 -0.00183 -0.39587
vn -0.99852 0.05332 -0.01024
vn -0.21074 -0.08542 0.97380
vn -0.51882 0.01231 0.85479
vn -0.38023 0.29935 0.87511
vn -0.03725 0.18920 0.98123
vn 0.20794 -0.25882 0.94328
vn 0.40318 -0.73541 0.54463
vn 0.09381 -0.99537 0.02108
vn 0.77444 -0.24702 0.58243
vn -0.71790 0.36466 -0.59299
vn -0.94059 0.18878 -0.28222
vn -0.91592 0.06358 0.39630
vn -0.06348 0.55141 0.83181
vn -0.47919 0.54358 0.68913
vn -0.92610 0.26828 0.26526
vn 0.65764 -0.66498 -0.35399
vn -0.71924 -0.36935 -0.58845
vn -0.96232 -0.08432 -0.25850
vn 0.76691 0.09573 0.63457
vn 0.94534 -0.15402 0.28743
vn 0.31401 -0.61639 -0.72212
vn -0.39899 -0.54940 -0.73414
vn -0.99949 0.00390 -0.03168
vn -0.92187 -0.20381 -0.32957
vn -0.04538 0.47852 0.87691
vn 0.38649 0.39333 0.83422
vn -0.66618 0.39616 0.63188
vn 0.80598 -0.43494 -0.40153
vn 0.57662 0.22219 0.78622
vn 0.89489 0.00414 0.44627
vn -0.46231 -0.47776 -0.74700
vn -0.99320 -0.01391 0.11561
vn 0.68269 0.13407 0.71830
vn -0.47883 -0.41853 -0.77172
vn 0.01146 0.27513 0.96134
vn -0.73943 0.16524 0.65264
vn 0.43760 -0.51132 -0.73963
vn -0.98517 -0.11953 -0.12311
vn -0.56856 0.18867 0.80071
vn -0.97781 -0.01403 0.20904
vn 0.42937 0.15236 0.89018
vn 0.94352 -0.04875 0.32771
vn 0.89666 -0.31435 -0.31176
vn 0.21854 -0.42082 -0.88043
vn -0.92185 -0.15653 -0.35454
vn -0.99662 0.00971 0.08159
vn 0.97210 -0.20926 -0.10600
vn 0.61498 -0.29282 -0.73216
vn 0.91938 -0.06140 0.38854
vn -0.52949 0.11986 0.83981
vn 0.82020 -0.05096 0.56980
vn 0.47990 -0.14060 -0.86599
vn -0.73438 -0.08039 -0.67396
vn -0.99814 0.02437 -0.05588
vn -0.96388 -0.02081 -0.26554
vn -0.99842 0.00695 0.05579
vn 0.80182 0.09481 0.59000
vn 0.87285 -0.17532 -0.45541
vn -0.75568 -0.08816 -0.64898
vn -0.94939 0.07116 0.30593
vn 0.99195 -0.12634 -0.00801
vn 0.91258 -0.24477 -0.32753
vn -0.98542 -0.11671 -0.12381
vn -0.10774 -0.35642 -0.92809
vn 0.99510 -0.02420 0.09587
vn -0.82789 0.14878 0.54080
vn -0.81591 -0.33893 -0.46843
vn -0.99242 -0.11838 -0.03309
vn -0.99098 -0.02490 0.13170
vn 0.61885 0.20142 0.75925
vn 0.18758 -0.62035 -0.76156
vn -0.99567 -0.08805 0.02996
vn 0.03821 0.30630 0.95117
vn 0.18467 -0.65759 0.73039
vn 0.96170 0.25846 0.09126
vn 0.96382 0.26647 0.00655
vn 0.05356 0.38233 0.92247
vn -0.52292 0.05525 0.85059
vn -0.81723 -0.20277 0.53947
vn -0.65217 -0.01568 0.75791
vn -0.95105 -0.03050 0.30753
vn 0.01931 0.64812 -0.76129
vn -0.91321 0.07613 -0.40033
vn -0.99905 0.00437 0.04334
vn -0.38766 -0.27919 -0.87850
vn -0.90668 -0.28523 -0.31077
vn -0.98571 -0.10782 0.12939
vn 0.99834 -0.05763 0.00202
vn -0.99695 -0.04971 0.06016
vn -0.99632 -0.07209 0.04629
vn -0.99692 0.02921 0.07275
vn -0.99741 -0.04638 0.05494
vn 0.99633 -0.08385 0.01734
vn 0.97060 0.23469 -0.05349
vn 0.99894 0.04449 -0.01192
vn 0.99776 0.03301 -0.05813
vn 0.99544 -0.02863 -0.09102
vn -0.99581 -0.06886 0.06022
vn -0.98605 -0.14993 -0.07234
vn 0.85613 -0.51238 0.06719
vn 0.95576 -0.28924 -0.05358
vn 0.97846 -0.12727 0.16255
vn 0.96570 -0.13537 -0.22158
vn 0.99114 -0.08108 0.10519
vn 0.96744 0.24505 0.06330
vn -0.97770 -0.19744 0.07159
vn -0.96938 -0.23843 0.05882
vn 0.50806 0.16842 0.84469
vn 0.92906 -0.13911 0.34278
vn 0.49624 0.18310 0.84866
vn -0.25850 -0.91992 0.29482
vn -0.93742 -0.12089 0.32655
vn 0.29231 0.90418 -0.31148
vn 0.26010 -0.88117 -0.39483
vn -0.80086 0.57609 -0.16353
vn -0.61893 -0.70995 -0.33600
vn -0.22138 0.97503 -0.01731
vn -0.19595 -0.92598 0.32275
vn -0.67505 0.03004 0.73716
vn 0.11116 -0.43248 0.89477
vn 0.59367 0.62273 0.50966
vn 0.08075 -0.00539 0.99672
vn 0.90727 -0.40083 -0.12723
vn 0.91267 -0.09830 0.39669
vn 0.64656 0.05745 -0.76070
vn 0.74513 0.61099 -0.26734
vn 0.11724 -0.31969 -0.94024
vn 0.85051 -0.26342 -0.45524
vn 0.47733 -0.18998 -0.85794
vn 0.47833 0.26626 -0.83685
vn 0.56747 -0.81796 0.09442
vn 0.70161 0.60491 0.37660
vn -0.17277 -0.92560 0.33677
vn 0.50167 0.06466 0.86264
vn -0.01008 -0.06608 0.99776
vn 0.27216 0.39433 0.87774
vn 0.16831 0.37425 0.91193
vn 0.51183 0.75256 0.41434
vn 0.00289 0.79450 0.60726
vn 0.51279 0.22125 0.82951
vn 0.63849 -0.06873 0.76655
vn 0.76662 -0.59398 0.24390
vn 0.96881 -0.23016 0.09179
vn -0.07414 0.94029 0.33219
vn 0.17075 0.65329 -0.73760
vn 0.09233 0.97258 0.21345
vn 0.63102 0.65871 -0.40979
vn -0.00540 0.41532 0.90966
vn 0.13479 0.96684 -0.21692
vn -0.00871 0.32630 -0.94523
vn 0.42230 -0.33027 -0.84415
vn -0.08787 -0.06948 -0.99371
vn 0.21039 -0.29296 -0.93269
vn 0.02766 0.02956 -0.99918
vn 0.05141 -0.19372 -0.97971
vn -0.00337 -0.16406 -0.98644
vn 0.32109 0.35596 -0.87761
vn 0.64051 0.73112 -0.23498
vn 0.21233 0.00775 -0.97717
vn 0.83725 0.54681 0.00428
vn 0.71466 0.29543 -0.63402
vn 0.91513 0.40277 -0.01754
vn 0.12308 -0.55414 -0.82327
vn 0.73546 0.26549 -0.62339
vn -0.72961 -0.58975 0.34621
vn 0.49605 -0.67966 0.54036
vn 0.37543 -0.20681 0.90348
vn 0.92148 -0.19926 0.33341
vn 0.11989 -0.17351 -0.97751
vn 0.38816 0.30197 0.87072
vn -0.81976 -0.48343 0.30708
vn 0.08305 -0.14172 -0.98642
vn 0.18062 0.14441 0.97289
vn -0.01289 0.40262 0.91528
vn 0.64773 0.17749 0.74091
vn 0.89823 0.24025 0.36806
vn -0.88207 0.40117 0.24703
vn -0.92132 -0.13188 0.36574
vn 0.95890 0.04697 0.27984
vn -0.67804 -0.53553 -0.50346
vn 0.11515 -0.91700 -0.38190
vn -0.73642 -0.47493 -0.48179
vn -0.95132 0.10758 0.28881
vn -0.44976 -0.86881 0.20708
vn -0.77072 -0.63673 -0.02404
vn 0.19700 0.60782 0.76925
vn -0.93488 -0.35495 -0.00231
vn -0.87390 0.23627 0.42482
vn 0.85455 -0.01129 0.51925
vn 0.46295 -0.81093 -0.35788
vn 0.91621 -0.39721 0.05266
vn -0.88747 -0.40211 -0.22517
vn 0.97415 -0.07898 0.21163
vn -0.99541 -0.05773 -0.07635
vn -0.88148 -0.40586 -0.24139
vn 0.99133 0.08019 0.10411
vn 0.86663 0.48827 0.10272
vn -0.87889 -0.43549 0.19466
vn -0.71175 0.10956 0.69384
vn 0.58991 -0.06724 -0.80466
vn 0.91393 0.23459 -0.33121
vn 0.02695 0.42962 0.90261
vn 0.59221 -0.46452 -0.65841
vn 0.52601 -0.65082 -0.54750
vn -0.86820 0.08629 0.48865
vn 0.75931 0.59455 0.26450
vn 0.96482 0.06622 -0.25444
vn -0.76779 -0.63711 -0.06779
vn -0.16010 0.71677 0.67868
vn -0.94475 -0.18003 0.27392
vn 0.90591 0.40196 0.13328
vn -0.95638 -0.24161 -0.16418
vn 0.80041 0.54902 0.24066
vn -0.40506 -0.83603 -0.37011
vn 0.97552 -0.07797 -0.20564
vn 0.99440 0.10563 -0.00289
vn 0.58789 0.70540 0.39597
vn 0.97923 -0.17476 -0.10279
vn 0.25753 0.70163 0.66438
vn -0.95780 -0.28135 0.05888
vn -0.96823 -0.24912 0.02158
vn 0.55001 0.23087 0.80261
vn -0.44377 -0.31773 0.83792
vn -0.57865 -0.24451 0.77806
vn -0.38993 -0.81661 -0.42556
vn -0.77264 -0.04896 0.63295
vn -0.14850 -0.13029 -0.98029
vn -0.61130 -0.52799 -0.58953
vn -0.40474 -0.68684 -0.60369
vn 0.93717 -0.20108 -0.28508
vn -0.40009 0.57694 0.71208
vn -0.83002 0.47056 0.29940
vn 0.81367 -0.36053 -0.45603
vn 0.65897 -0.47920 -0.57977
vn 0.49890 -0.28756 -0.81757
vn 0.97022 -0.15033 0.18995
vn 0.85226 -0.33173 -0.40448
vn 0.81254 -0.22310 -0.53852
vn 0.10526 -0.18114 -0.97781
vn 0.58333 -0.06972 -0.80924
vn 0.99723 -0.02166 0.07115
vn 0.87202 0.17169 -0.45837
vn 0.57415 0.41309 -0.70690
vn 0.97359 0.22410 0.04355
vn 0.83755 0.40826 -0.36308
vn 0.89396 -0.08352 0.44030
vn 0.73549 -0.11227 0.66817
vn 0.10117 0.09444 0.99038
vn 0.71810 -0.02396 0.69553
vn 0.01779 -0.14762 0.98888
vn 0.30743 -0.06051 0.94964
vn 0.31623 0.32488 -0.89132
vn 0.32913 -0.11270 0.93754
vn 0.96951 0.24104 -0.04424
vn 0.01008 0.35453 -0.93499
vn 0.28590 0.47460 -0.83247
vn -0.13738 0.39455 -0.90855
vn -0.08300 0.14521 -0.98591
vn 0.84110 0.22222 -0.49312
vn -0.27792 -0.01526 -0.96048
vn -0.13700 0.40422 -0.90434
vn 0.37841 0.25656 -0.88937
vn -0.58032 -0.28243 -0.76385
vn 0.06546 0.20555 -0.97646
vn -0.73983 0.04410 -0.67134
vn 0.94668 0.07389 0.31360
vn 0.98151 0.08818 -0.16990
vn 0.82029 -0.07316 0.56725
vn 0.96848 0.13891 -0.20676
vn 0.30605 -0.08996 0.94776
vn 0.44151 -0.03553 0.89655
vn 0.25224 -0.22338 0.94153
vn 0.07889 -0.20476 0.97563
vn 0.33301 -0.28721 0.89812
vn 0.13056 -0.53031 0.83769
vn -0.32523 -0.65093 0.68594
vn -0.09249 -0.46091 0.88261
vn -0.10219 -0.55251 0.82722
vn 0.38882 -0.45885 0.79892
vn 0.05338 -0.03272 0.99804
vn 0.31456 -0.82108 0.47632
vn -0.53579 -0.84246 -0.05653
vn -0.54759 -0.73161 -0.40608
vn -0.72051 -0.62240 -0.30575
vn -0.70679 -0.68385 0.18111
vn 0.63982 0.07711 0.76465
vn 0.79377 0.31749 -0.51877
vn -0.71652 -0.57761 0.39110
vn -0.45992 -0.61475 0.64075
vn -0.92067 -0.37141 0.12009
vn 0.99298 0.01516 0.11734
vn 0.49782 -0.39605 0.77157
vn 0.74979 0.29442 -0.59256
vn 0.96356 0.14985 -0.22158
vn -0.69749 -0.46989 0.54102
vn 0.30549 0.39663 -0.86566
vn -0.24477 -0.54784 0.79997
vn 0.99999 -0.00408 -0.00333
vn 0.26261 -0.47707 0.83872
vn 0.91861 -0.18067 0.35146
vn -0.73901 -0.39136 0.54836
vn -0.74809 0.09354 -0.65697
vn 0.28297 0.23629 -0.92957
vn -0.26410 -0.48746 0.83225
vn 0.98989 0.01846 -0.14066
vn 0.86336 -0.30131 0.40475
vn 0.94265 0.07985 -0.32410
vn -0.93615 -0.26557 0.23043
vn 0.51450 0.29603 -0.80477
vn 0.44945 -0.49507 0.74357
vn -0.63119 -0.46491 0.62085
vn 0.90173 -0.32238 0.28801
vn -0.90168 -0.34807 0.25656
vn -0.97723 -0.06779 -0.20107
vn -0.26817 0.39611 -0.87817
vn 0.99417 -0.09984 0.04068
vn 0.99149 0.07589 -0.10573
vn -0.98902 -0.03601 -0.14334
vn 0.66758 -0.44372 0.59787
vn -0.83255 0.29065 -0.47158
vn 0.65299 0.48587 -0.58098
vn 0.98806 -0.08312 0.12972
vn -0.83387 0.24682 -0.49370
vn 0.06784 -0.59413 0.80150
vn 0.71081 0.38504 -0.58864
vn -0.93716 0.01226 -0.34867
vn 0.71427 0.16769 -0.67949
vn 0.98539 0.04562 -0.16409
vn -0.90891 -0.26278 0.32377
vn -0.99368 -0.11003 -0.02200
vn 0.73384 -0.38706 0.55827
vn 0.47552 -0.00824 -0.87967
vn 0.99534 -0.08919 -0.03670
vn -0.99313 -0.06554 0.09697
vn -0.52466 -0.50487 0.68545
vn 0.64473 -0.15016 0.74951
vn -0.96491 -0.00071 0.26257
vn -0.99941 -0.01727 0.02986
vn 0.91188 0.29739 0.28290
vn 0.97966 -0.19988 0.01798
vn 0.99476 -0.10090 0.01672
vn 0.54096 -0.56466 0.62332
vn 0.89964 0.03920 0.43487
vn 0.85755 -0.46104 0.22813
vn 0.68757 -0.16587 0.70692
vn 0.94232 0.04223 -0.33204
vn 0.94566 -0.21545 -0.24352
vn 0.20225 0.70543 0.67931
vn 0.86991 -0.34655 -0.35095
vn 0.95152 0.17991 0.24948
vn 0.98909 -0.14643 -0.01600
vn 0.94206 -0.33518 0.01306
vn 0.98824 -0.01270 0.15238
vn -0.37454 -0.82362 -0.42587
vn -0.99843 0.05410 0.01417
vn -0.99880 -0.03091 0.03807
vn -0.97461 0.16755 0.14851
vn 0.99735 -0.07160 0.01329
vn -0.05291 0.67517 0.73576
vn -0.99681 0.06518 0.04616
vn 0.99611 -0.03522 -0.08080
vn -0.99951 0.02115 0.02286
vn -0.98794 0.13124 0.08211
vn 0.25954 -0.93941 -0.22395
vn 0.99606 -0.05872 0.06645
vn -0.99692 0.07539 0.02179
vn 0.97588 -0.20021 -0.08704
vn 0.99580 -0.08147 -0.04171
vn 0.96176 -0.23064 -0.14773
vn -0.97545 0.11532 -0.18760
vn -0.99135 0.08468 -0.10029
vn -0.92977 -0.31650 -0.18802
vn -0.95556 -0.14284 -0.25787
vn -0.98324 -0.17157 -0.06162
vn -0.90230 -0.32849 0.27921
vn -0.99403 -0.10814 -0.01483
vn 0.99980 0.01354 0.01494
vn 0.98721 -0.13313 -0.08777
vn 0.99885 -0.04250 -0.02200
vn 0.44965 0.58058 0.67878
vn -0.91795 -0.29896 0.26076
vn -0.85721 0.00548 -0.51493
vn -0.41677 0.19381 -0.88811
vn 0.84448 0.20317 -0.49555
vn 0.97600 0.02909 0.21581
vn 0.97600 0.02909 0.21581
vn 0.97600 0.02909 0.21581
vn -0.33783 -0.92975 -0.14641
vn -0.33783 -0.92975 -0.14641
vn -0.33783 -0.92975 -0.14641
vn -0.24417 -0.92378 -0.29497
vn -0.24417 -0.92378 -0.29497
vn -0.24417 -0.92378 -0.29497
vn -0.09990 0.44346 0.89071
vn -0.09990 0.44346 0.89071
vn -0.09990 0.44346 0.89071
vn 0.89198 0.21650 0.39686
vn 0.89198 0.21650 0.39686
vn 0.89198 0.21650 0.39686
vn 0.99988 -0.00660 -0.01366
vn 0.99988 -0.00660 -0.01366
vn 0.99988 -0.00660 -0.01366
vn 0.28509 -0.95831 -0.01911
vn 0.28509 -0.95831 -0.01911
vn 0.28509 -0.95831 -0.01911
vn 0.52236 0.33913 -0.78239
vn 0.52236 0.33913 -0.78239
vn 0.52236 0.33913 -0.78239
vn 0.98960 0.13654 -0.04518
vn 0.98960 0.13654 -0.04518
vn 0.98960 0.13654 -0.04518
vn -0.93229 -0.35743 0.05551
vn -0.93229 -0.35743 0.05551
vn -0.93229 -0.35743 0.05551
vn -0.93601 -0.30935 0.16790
vn -0.93601 -0.30935 0.16790
vn -0.93601 -0.30935 0.16790
vn -0.98299 0.17007 0.06941
vn -0.98299 0.17007 0.06941
vn -0.98299 0.17007 0.06941
vn -0.94825 -0.23136 0.21749
vn -0.94825 -0.23136 0.21749
vn -0.94825 -0.23136 0.21749
vn -0.99156 -0.02295 0.12758
vn -0.99156 -0.02295 0.12758
vn -0.99156 -0.02295 0.12758
vn 0.99700 0.07531 -0.01761
vn 0.99700 0.07531 -0.01761
vn 0.99700 0.07531 -0.01761
vn 0.98421 0.15520 -0.08511
vn 0.98421 0.15520 -0.08511
vn 0.98421 0.15520 -0.08511
vn -0.98948 -0.08221 0.11900
vn -0.98948 -0.08221 0.11900
vn -0.98948 -0.08221 0.11900
vn -0.97469 0.22173 0.02843
vn -0.97469 0.22173 0.02843
vn -0.97469 0.22173 0.02843
vn -0.93577 -0.33814 0.10002
vn -0.93577 -0.33814 0.10002
vn -0.93577 -0.33814 0.10002
vn 0.82204 -0.49881 0.27467
vn 0.82204 -0.49881 0.27467
vn 0.82204 -0.49881 0.27467
vn -0.71754 0.24417 0.65232
vn -0.71754 0.24417 0.65232
vn -0.71754 0.24417 0.65232
vn -0.94900 0.21023 0.23495
vn -0.94900 0.21023 0.23495
vn -0.94900 0.21023 0.23495
vn -0.70169 0.51039 0.49712
vn -0.70169 0.51039 0.49712
vn -0.70169 0.51039 0.49712
vn 0.79114 0.17207 0.58693
vn 0.79114 0.17207 0.58693
vn 0.79114 0.17207 0.58693
vn -0.94330 -0.25967 -0.20680
vn -0.94330 -0.25967 -0.20680
vn -0.94330 -0.25967 -0.20680
vn -0.98892 0.00888 0.14819
vn -0.98892 0.00888 0.14819
vn -0.98892 0.00888 0.14819
vn 0.99241 0.00975 -0.12256
vn 0.99241 0.00975 -0.12256
vn 0.99241 0.00975 -0.12256
vn -0.98815 0.13070 0.08049
vn -0.98815 0.13070 0.08049
vn -0.98815 0.13070 0.08049
vn -0.99997 0.00175 0.00808
vn -0.99997 0.00175 0.00808
vn -0.99997 0.00175 0.00808
vn -0.97252 0.18876 0.13628
vn -0.97252 0.18876 0.13628
vn -0.97252 0.18876 0.13628
vn -0.98281 -0.09627 0.15751
vn -0.98281 -0.09627 0.15751
vn -0.98281 -0.09627 0.15751
vn -0.99545 0.02572 0.09172
vn -0.99545 0.02572 0.09172
vn -0.99545 0.02572 0.09172
vn 0.99620 0.08631 -0.01154
vn 0.99620 0.08631 -0.01154
vn 0.99620 0.08631 -0.01154
vn 0.99820 -0.05987 -0.00247
vn 0.99820 -0.05987 -0.00247
vn 0.99820 -0.05987 -0.00247
vn 0.96103 -0.08964 -0.26149
vn 0.96103 -0.08964 -0.26149
vn 0.96103 -0.08964 -0.26149
vn -0.43914 0.76912 -0.46434
vn -0.43914 0.76912 -0.46434
vn -0.43914 0.76912 -0.46434
f 2//2 30//30 245//245
f 248//248 2//2 3//3
f 249//249 1//1 248//248
f 21//21 24//24 23//23
f 246//246 279//279 4//4
f 10//10 6//6 14//14
f 6//6 282//282 279//279
f 8//8 285//285 9//9
f 285//285 8//8 281//281
f 285//285 281//281 283//283
f 5//5 282//282 6//6
f 5//5 7//7 282//282
f 7//7 286//286 282//282
f 288//288 7//7 113//113
f 7//7 288//288 286//286
f 113//113 5//5 8//8
f 12//12 11//11 13//13
f 12//12 290//290 301//301
f 44//44 15//15 290//290
f 11//11 26//26 13//13
f 13//13 26//26 16//16
f 26//26 18//18 16//16
f 16//16 18//18 17//17
f 18//18 28//28 17//17
f 112//112 19//19 11//11
f 2//2 248//248 30//30
f 12//12 44//44 290//290
f 112//112 301//301 14//14
f 26//26 11//11 19//19
f 254//254 252//252 251//251
f 27//27 18//18 26//26
f 27//27 29//29 253//253
f 251//251 21//21 29//29
f 29//29 250//250 298//298
f 25//25 23//23 24//24
f 23//23 20//20 21//21
f 253//253 29//29 295//295
f 254//254 251//251 27//27
f 22//22 20//20 23//23
f 25//25 3//3 23//23
f 301//301 11//11 12//12
f 29//29 21//21 250//250
f 516//516 23//23 3//3
f 553//553 554//554 555//555
f 32//32 30//30 248//248
f 556//556 557//557 558//558
f 31//31 32//32 1//1
f 42//42 41//41 37//37
f 41//41 35//35 37//37
f 43//43 58//58 39//39
f 43//43 115//115 114//114
f 39//39 62//62 43//43
f 37//37 35//35 36//36
f 35//35 114//114 36//36
f 114//114 33//33 36//36
f 114//114 40//40 33//33
f 37//37 36//36 49//49
f 40//40 59//59 38//38
f 40//40 38//38 33//33
f 36//36 74//74 49//49
f 36//36 33//33 74//74
f 74//74 33//33 73//73
f 33//33 38//38 129//129
f 33//33 129//129 73//73
f 41//41 34//34 35//35
f 34//34 114//114 35//35
f 34//34 43//43 114//114
f 47//47 37//37 49//49
f 316//316 49//49 48//48
f 47//47 49//49 316//316
f 45//45 13//13 16//16
f 45//45 16//16 17//17
f 45//45 17//17 46//46
f 28//28 50//50 17//17
f 47//47 15//15 44//44
f 47//47 44//44 42//42
f 46//46 42//42 45//45
f 47//47 316//316 15//15
f 49//49 74//74 48//48
f 50//50 28//28 322//322
f 53//53 46//46 17//17
f 53//53 17//17 50//50
f 34//34 41//41 51//51
f 51//51 41//41 46//46
f 51//51 46//46 53//53
f 53//53 122//122 51//51
f 122//122 128//128 52//52
f 54//54 128//128 122//122
f 50//50 54//54 53//53
f 324//324 128//128 54//54
f 322//322 54//54 50//50
f 322//322 324//324 54//54
f 41//41 42//42 46//46
f 55//55 34//34 51//51
f 51//51 123//123 60//60
f 52//52 56//56 57//57
f 123//123 52//52 57//57
f 57//57 38//38 59//59
f 58//58 55//55 60//60
f 123//123 57//57 64//64
f 38//38 57//57 129//129
f 55//55 51//51 60//60
f 43//43 34//34 55//55
f 58//58 43//43 55//55
f 57//57 59//59 64//64
f 58//58 60//60 68//68
f 59//59 116//116 64//64
f 67//67 58//58 68//68
f 68//68 60//60 61//61
f 116//116 63//63 64//64
f 39//39 58//58 67//67
f 64//64 63//63 61//61
f 66//66 39//39 67//67
f 39//39 66//66 65//65
f 39//39 65//65 62//62
f 124//124 68//68 61//61
f 116//116 117//117 63//63
f 61//61 63//63 124//124
f 63//63 98//98 124//124
f 70//70 75//75 69//69
f 71//71 70//70 69//69
f 75//75 70//70 145//145
f 70//70 72//72 145//145
f 72//72 70//70 71//71
f 69//69 75//75 48//48
f 74//74 69//69 48//48
f 71//71 74//74 73//73
f 145//145 72//72 148//148
f 71//71 73//73 72//72
f 71//71 69//69 74//74
f 73//73 129//129 132//132
f 73//73 132//132 72//72
f 77//77 95//95 80//80
f 78//78 79//79 81//81
f 78//78 77//77 80//80
f 80//80 88//88 76//76
f 78//78 80//80 79//79
f 95//95 88//88 80//80
f 95//95 82//82 89//89
f 559//559 560//560 561//561
f 95//95 89//89 83//83
f 90//90 95//95 83//83
f 90//90 83//83 82//82
f 84//84 85//85 86//86
f 86//86 90//90 84//84
f 562//562 563//563 564//564
f 565//565 566//566 567//567
f 91//91 109//109 87//87
f 78//78 88//88 77//77
f 82//82 93//93 90//90
f 81//81 76//76 78//78
f 88//88 78//78 76//76
f 79//79 76//76 81//81
f 79//79 80//80 76//76
f 568//568 569//569 570//570
f 88//88 93//93 77//77
f 95//95 91//91 121//121
f 108//108 93//93 121//121
f 95//95 93//93 82//82
f 92//92 90//90 86//86
f 117//117 97//97 98//98
f 117//117 98//98 63//63
f 66//66 96//96 65//65
f 124//124 99//99 68//68
f 100//100 67//67 99//99
f 99//99 67//67 68//68
f 66//66 67//67 100//100
f 100//100 99//99 102//102
f 101//101 66//66 100//100
f 124//124 102//102 99//99
f 103//103 66//66 101//101
f 66//66 103//103 96//96
f 97//97 126//126 107//107
f 124//124 125//125 102//102
f 97//97 107//107 98//98
f 125//125 124//124 98//98
f 125//125 104//104 102//102
f 125//125 98//98 107//107
f 101//101 100//100 102//102
f 103//103 101//101 105//105
f 103//103 126//126 96//96
f 119//119 125//125 107//107
f 101//101 102//102 104//104
f 103//103 105//105 126//126
f 126//126 118//118 107//107
f 106//106 101//101 104//104
f 105//105 101//101 106//106
f 106//106 104//104 119//119
f 119//119 107//107 127//127
f 127//127 107//107 118//118
f 108//108 105//105 106//106
f 120//120 106//106 119//119
f 108//108 106//106 120//120
f 110//110 127//127 118//118
f 111//111 94//94 86//86
f 95//95 77//77 93//93
f 90//90 93//93 85//85
f 93//93 111//111 86//86
f 571//571 572//572 573//573
f 91//91 110//110 109//109
f 93//93 88//88 121//121
f 111//111 93//93 108//108
f 109//109 110//110 108//108
f 45//45 44//44 13//13
f 44//44 12//12 13//13
f 42//42 37//37 47//47
f 114//114 115//115 40//40
f 115//115 59//59 40//40
f 115//115 43//43 62//62
f 115//115 116//116 59//59
f 117//117 62//62 65//65
f 11//11 301//301 112//112
f 574//574 575//575 576//576
f 5//5 6//6 281//281
f 5//5 281//281 8//8
f 8//8 9//9 113//113
f 9//9 288//288 113//113
f 113//113 7//7 5//5
f 42//42 44//44 45//45
f 62//62 116//116 115//115
f 62//62 117//117 116//116
f 65//65 96//96 117//117
f 111//111 108//108 120//120
f 54//54 122//122 53//53
f 60//60 123//123 61//61
f 104//104 125//125 119//119
f 119//119 127//127 120//120
f 93//93 86//86 85//85
f 91//91 95//95 90//90
f 109//109 121//121 87//87
f 127//127 92//92 120//120
f 92//92 127//127 110//110
f 94//94 111//111 92//92
f 90//90 92//92 110//110
f 110//110 91//91 90//90
f 122//122 52//52 51//51
f 51//51 52//52 123//123
f 123//123 64//64 61//61
f 92//92 111//111 120//120
f 126//126 97//97 96//96
f 118//118 105//105 108//108
f 126//126 105//105 118//118
f 96//96 97//97 117//117
f 121//121 109//109 108//108
f 118//118 108//108 110//110
f 57//57 56//56 129//129
f 324//324 131//131 128//128
f 128//128 131//131 133//133
f 56//56 130//130 129//129
f 324//324 135//135 131//131
f 128//128 133//133 56//56
f 129//129 130//130 132//132
f 135//135 134//134 131//131
f 131//131 134//134 133//133
f 56//56 136//136 130//130
f 136//136 138//138 130//130
f 133//133 136//136 56//56
f 130//130 138//138 132//132
f 134//134 137//137 140//140
f 135//135 137//137 134//134
f 134//134 140//140 139//139
f 134//134 139//139 133//133
f 133//133 139//139 136//136
f 136//136 152//152 138//138
f 137//137 423//423 140//140
f 139//139 152//152 136//136
f 423//423 141//141 140//140
f 138//138 153//153 150//150
f 142//142 153//153 138//138
f 140//140 141//141 143//143
f 138//138 150//150 148//148
f 132//132 138//138 148//148
f 144//144 149//149 418//418
f 132//132 148//148 72//72
f 144//144 418//418 147//147
f 75//75 144//144 147//147
f 146//146 145//145 148//148
f 146//146 148//148 150//150
f 75//75 145//145 144//144
f 144//144 145//145 146//146
f 154//154 149//149 146//146
f 150//150 154//154 146//146
f 418//418 149//149 151//151
f 152//152 142//142 138//138
f 140//140 143//143 139//139
f 149//149 144//144 146//146
f 143//143 152//152 139//139
f 150//150 180//180 154//154
f 153//153 180//180 150//150
f 142//142 179//179 153//153
f 142//142 152//152 143//143
f 141//141 155//155 143//143
f 143//143 155//155 142//142
f 155//155 157//157 156//156
f 156//156 159//159 178//178
f 157//157 426//426 158//158
f 157//157 158//158 159//159
f 426//426 160//160 158//158
f 162//162 160//160 426//426
f 160//160 164//164 158//158
f 160//160 163//163 164//164
f 162//162 163//163 160//160
f 163//163 165//165 164//164
f 163//163 166//166 165//165
f 163//163 451//451 166//166
f 166//166 268//268 165//165
f 179//179 169//169 153//153
f 153//153 169//169 180//180
f 168//168 185//185 186//186
f 168//168 186//186 169//169
f 186//186 191//191 169//169
f 159//159 161//161 168//168
f 161//161 185//185 168//168
f 171//171 173//173 170//170
f 174//174 175//175 447//447
f 182//182 181//181 172//172
f 172//172 181//181 173//173
f 175//175 268//268 176//176
f 175//175 177//177 268//268
f 167//167 182//182 172//172
f 180//180 167//167 171//171
f 52//52 128//128 56//56
f 159//159 158//158 161//161
f 158//158 164//164 161//161
f 185//185 161//161 164//164
f 181//181 194//194 173//173
f 167//167 183//183 182//182
f 188//188 177//177 187//187
f 268//268 177//177 188//188
f 167//167 169//169 191//191
f 167//167 191//191 183//183
f 165//165 184//184 164//164
f 183//183 195//195 182//182
f 164//164 189//189 190//190
f 164//164 190//190 185//185
f 193//193 194//194 181//181
f 184//184 189//189 164//164
f 186//186 192//192 191//191
f 193//193 181//181 182//182
f 193//193 182//182 195//195
f 185//185 192//192 186//186
f 185//185 190//190 192//192
f 184//184 196//196 189//189
f 188//188 198//198 270//270
f 188//188 270//270 269//269
f 189//189 199//199 190//190
f 199//199 206//206 192//192
f 199//199 192//192 190//190
f 210//210 270//270 198//198
f 207//207 203//203 204//204
f 207//207 204//204 208//208
f 206//206 214//214 208//208
f 206//206 208//208 200//200
f 200//200 208//208 204//204
f 205//205 211//211 212//212
f 205//205 212//212 202//202
f 211//211 216//216 212//212
f 213//213 202//202 212//212
f 214//214 206//206 213//213
f 202//202 213//213 206//206
f 203//203 207//207 209//209
f 203//203 209//209 201//201
f 216//216 215//215 271//271
f 213//213 212//212 216//216
f 207//207 208//208 218//218
f 271//271 215//215 210//210
f 271//271 210//210 217//217
f 207//207 218//218 209//209
f 221//221 213//213 216//216
f 222//222 214//214 213//213
f 214//214 222//222 228//228
f 213//213 221//221 222//222
f 271//271 226//226 220//220
f 271//271 220//220 216//216
f 218//218 208//208 214//214
f 218//218 214//214 228//228
f 229//229 271//271 217//217
f 229//229 217//217 219//219
f 271//271 229//229 226//226
f 221//221 216//216 220//220
f 219//219 218//218 228//228
f 219//219 228//228 225//225
f 224//224 222//222 223//223
f 272//272 219//219 225//225
f 222//222 224//224 228//228
f 221//221 227//227 223//223
f 221//221 223//223 222//222
f 220//220 226//226 232//232
f 227//227 221//221 220//220
f 227//227 220//220 232//232
f 234//234 225//225 228//228
f 224//224 237//237 228//228
f 223//223 231//231 224//224
f 228//228 237//237 234//234
f 227//227 231//231 223//223
f 229//229 272//272 230//230
f 229//229 230//230 226//226
f 226//226 230//230 232//232
f 231//231 227//227 232//232
f 237//237 224//224 231//231
f 272//272 233//233 230//230
f 235//235 231//231 232//232
f 235//235 232//232 230//230
f 238//238 225//225 234//234
f 237//237 231//231 236//236
f 233//233 225//225 238//238
f 233//233 272//272 225//225
f 237//237 238//238 234//234
f 231//231 235//235 236//236
f 241//241 240//240 266//266
f 233//233 264//264 239//239
f 233//233 239//239 230//230
f 264//264 233//233 241//241
f 4//4 245//245 246//246
f 247//247 19//19 112//112
f 249//249 19//19 247//247
f 1//1 249//249 247//247
f 248//248 3//3 25//25
f 1//1 247//247 246//246
f 249//249 248//248 25//25
f 247//247 112//112 14//14
f 1//1 246//246 30//30
f 246//246 247//247 6//6
f 14//14 6//6 247//247
f 30//30 246//246 245//245
f 1//1 30//30 31//31
f 6//6 279//279 246//246
f 27//27 251//251 29//29
f 249//249 25//25 24//24
f 249//249 24//24 252//252
f 26//26 254//254 27//27
f 254//254 19//19 255//255
f 18//18 253//253 295//295
f 27//27 253//253 18//18
f 249//249 252//252 255//255
f 254//254 255//255 252//252
f 249//249 255//255 19//19
f 26//26 19//19 254//254
f 251//251 252//252 24//24
f 21//21 251//251 24//24
f 250//250 21//21 20//20
f 243//243 256//256 262//262
f 275//275 244//244 259//259
f 257//257 259//259 244//244
f 577//577 578//578 579//579
f 580//580 581//581 582//582
f 583//583 584//584 585//585
f 260//260 273//273 266//266
f 263//263 261//261 274//274
f 261//261 263//263 273//273
f 274//274 261//261 260//260
f 586//586 587//587 588//588
f 264//264 241//241 273//273
f 264//264 267//267 239//239
f 274//274 267//267 265//265
f 267//267 266//266 240//240
f 240//240 239//239 267//267
f 274//274 266//266 267//267
f 264//264 265//265 267//267
f 274//274 260//260 266//266
f 263//263 265//265 264//264
f 263//263 264//264 273//273
f 265//265 263//263 274//274
f 589//589 590//590 591//591
f 273//273 262//262 261//261
f 592//592 593//593 594//594
f 595//595 596//596 597//597
f 598//598 599//599 600//600
f 601//601 602//602 603//603
f 256//256 243//243 242//242
f 258//258 257//257 275//275
f 218//218 219//219 217//217
f 209//209 218//218 217//217
f 215//215 211//211 270//270
f 209//209 217//217 210//210
f 201//201 209//209 210//210
f 210//210 198//198 201//201
f 211//211 269//269 270//270
f 206//206 191//191 192//192
f 173//173 194//194 187//187
f 173//173 187//187 177//177
f 174//174 173//173 177//177
f 174//174 177//177 175//175
f 196//196 268//268 269//269
f 268//268 166//166 176//176
f 604//604 605//605 606//606
f 257//257 262//262 260//260
f 275//275 257//257 256//256
f 261//261 257//257 260//260
f 261//261 262//262 256//256
f 211//211 215//215 216//216
f 195//195 183//183 200//200
f 268//268 196//196 184//184
f 268//268 184//184 165//165
f 269//269 268//268 188//188
f 193//193 195//195 204//204
f 193//193 204//204 203//203
f 210//210 215//215 270//270
f 219//219 272//272 229//229
f 200//200 183//183 191//191
f 188//188 187//187 198//198
f 197//197 198//198 187//187
f 197//197 187//187 194//194
f 193//193 197//197 194//194
f 202//202 206//206 199//199
f 205//205 202//202 199//199
f 205//205 199//199 189//189
f 205//205 189//189 196//196
f 211//211 205//205 196//196
f 201//201 198//198 197//197
f 201//201 197//197 203//203
f 203//203 197//197 193//193
f 196//196 269//269 211//211
f 191//191 206//206 200//200
f 200//200 204//204 195//195
f 504//504 390//390 302//302
f 390//390 3//3 2//2
f 245//245 4//4 278//278
f 278//278 4//4 279//279
f 10//10 510//510 280//280
f 283//283 281//281 280//280
f 285//285 287//287 9//9
f 279//279 282//282 284//284
f 284//284 280//280 279//279
f 284//284 282//282 286//286
f 287//287 285//285 283//283
f 287//287 288//288 9//9
f 299//299 14//14 301//301
f 292//292 289//289 315//315
f 291//291 292//292 293//293
f 293//293 292//292 315//315
f 293//293 28//28 18//18
f 298//298 250//250 294//294
f 277//277 520//520 521//521
f 277//277 521//521 511//511
f 390//390 2//2 302//302
f 276//276 511//511 504//504
f 292//292 290//290 15//15
f 290//290 292//292 301//301
f 299//299 291//291 512//512
f 512//512 291//291 520//520
f 514//514 298//298 294//294
f 514//514 297//297 298//298
f 296//296 291//291 293//293
f 515//515 296//296 514//514
f 296//296 295//295 297//297
f 516//516 22//22 23//23
f 518//518 300//300 390//390
f 22//22 300//300 294//294
f 22//22 294//294 20//20
f 300//300 516//516 390//390
f 518//518 514//514 294//294
f 518//518 294//294 300//300
f 517//517 520//520 291//291
f 295//295 29//29 297//297
f 295//295 293//293 18//18
f 510//510 14//14 299//299
f 292//292 291//291 299//299
f 299//299 301//301 292//292
f 3//3 390//390 516//516
f 315//315 28//28 293//293
f 300//300 22//22 516//516
f 607//607 608//608 609//609
f 302//302 303//303 504//504
f 306//306 308//308 328//328
f 312//312 307//307 304//304
f 312//312 304//304 306//306
f 306//306 304//304 308//308
f 308//308 304//304 335//335
f 304//304 305//305 309//309
f 304//304 309//309 335//335
f 334//334 333//333 391//391
f 334//334 336//336 310//310
f 316//316 342//342 305//305
f 305//305 342//342 343//343
f 305//305 343//343 309//309
f 310//310 336//336 311//311
f 309//309 343//343 336//336
f 317//317 312//312 306//306
f 317//317 306//306 326//326
f 326//326 306//306 328//328
f 328//328 308//308 330//330
f 307//307 316//316 305//305
f 314//314 313//313 315//315
f 314//314 315//315 289//289
f 313//313 318//318 315//315
f 28//28 315//315 318//318
f 307//307 314//314 289//289
f 15//15 307//307 289//289
f 307//307 312//312 314//314
f 48//48 342//342 316//316
f 15//15 316//316 307//307
f 322//322 28//28 318//318
f 317//317 313//313 314//314
f 326//326 325//325 317//317
f 325//325 313//313 317//317
f 318//318 327//327 320//320
f 320//320 319//319 321//321
f 395//395 318//318 320//320
f 322//322 321//321 323//323
f 395//395 320//320 321//321
f 395//395 321//321 322//322
f 318//318 395//395 322//322
f 324//324 322//322 323//323
f 327//327 318//318 313//313
f 317//317 314//314 312//312
f 319//319 327//327 331//331
f 328//328 329//329 326//326
f 331//331 310//310 402//402
f 331//331 402//402 319//319
f 329//329 325//325 326//326
f 329//329 337//337 325//325
f 327//327 337//337 331//331
f 330//330 329//329 328//328
f 310//310 331//331 333//333
f 334//334 310//310 333//333
f 330//330 332//332 329//329
f 332//332 337//337 329//329
f 310//310 311//311 402//402
f 325//325 337//337 327//327
f 335//335 309//309 334//334
f 309//309 336//336 334//334
f 331//331 396//396 333//333
f 308//308 338//338 330//330
f 332//332 340//340 337//337
f 365//365 332//332 330//330
f 333//333 396//396 339//339
f 391//391 333//333 339//339
f 391//391 339//339 392//392
f 338//338 365//365 330//330
f 369//369 368//368 332//332
f 368//368 340//340 332//332
f 365//365 369//369 332//332
f 342//342 341//341 343//343
f 341//341 48//48 416//416
f 342//342 48//48 341//341
f 341//341 414//414 343//343
f 416//416 415//415 341//341
f 341//341 415//415 414//414
f 48//48 75//75 416//416
f 343//343 414//414 336//336
f 354//354 344//344 345//345
f 610//610 611//611 612//612
f 345//345 355//355 354//354
f 346//346 355//355 345//345
f 356//356 359//359 347//347
f 356//356 347//347 346//346
f 359//359 356//356 348//348
f 346//346 347//347 361//361
f 388//388 348//348 346//346
f 348//348 356//356 346//346
f 350//350 349//349 357//357
f 613//613 614//614 615//615
f 361//361 357//357 349//349
f 351//351 350//350 357//357
f 349//349 350//350 351//351
f 352//352 360//360 386//386
f 616//616 617//617 618//618
f 353//353 387//387 362//362
f 354//354 358//358 344//344
f 619//619 620//620 621//621
f 347//347 359//359 348//348
f 361//361 347//347 348//348
f 352//352 386//386 349//349
f 344//344 358//358 355//355
f 351//351 361//361 388//388
f 363//363 360//360 388//388
f 398//398 384//384 364//364
f 348//348 388//388 361//361
f 349//349 351//351 388//388
f 392//392 339//339 366//366
f 338//338 370//370 365//365
f 338//338 392//392 370//370
f 397//397 339//339 396//396
f 397//397 366//366 339//339
f 392//392 366//366 367//367
f 397//397 368//368 371//371
f 369//369 371//371 368//368
f 374//374 369//369 365//365
f 365//365 370//370 374//374
f 376//376 373//373 366//366
f 374//374 375//375 369//369
f 367//367 366//366 373//373
f 393//393 376//376 366//366
f 393//393 366//366 397//397
f 375//375 371//371 369//369
f 375//375 372//372 371//371
f 374//374 370//370 399//399
f 377//377 379//379 374//374
f 374//374 399//399 377//377
f 379//379 383//383 375//375
f 379//379 375//375 374//374
f 383//383 372//372 375//375
f 378//378 373//373 376//376
f 382//382 380//380 378//378
f 382//382 378//378 376//376
f 383//383 382//382 372//372
f 378//378 380//380 400//400
f 377//377 381//381 379//379
f 381//381 383//383 379//379
f 383//383 401//401 382//382
f 384//384 383//383 381//381
f 384//384 401//401 383//383
f 364//364 361//361 386//386
f 364//364 386//386 398//398
f 386//386 361//361 349//349
f 622//622 623//623 624//624
f 362//362 394//394 353//353
f 385//385 387//387 394//394
f 394//394 362//362 388//388
f 388//388 362//362 363//363
f 362//362 385//385 400//400
f 15//15 289//289 292//292
f 512//512 510//510 299//299
f 280//280 510//510 512//512
f 389//389 283//283 280//280
f 283//283 389//389 287//287
f 389//389 284//284 286//286
f 391//391 308//308 335//335
f 391//391 335//335 334//334
f 391//391 338//338 308//308
f 287//287 389//389 286//286
f 280//280 284//284 389//389
f 305//305 304//304 307//307
f 338//338 391//391 392//392
f 368//368 397//397 340//340
f 372//372 393//393 371//371
f 394//394 388//388 346//346
f 349//349 388//388 360//360
f 364//364 346//346 361//361
f 344//344 346//346 364//364
f 344//344 394//394 345//345
f 346//346 345//345 394//394
f 398//398 386//386 360//360
f 387//387 385//385 362//362
f 344//344 385//385 394//394
f 398//398 363//363 401//401
f 364//364 384//384 385//385
f 364//364 385//385 344//344
f 363//363 380//380 401//401
f 362//362 380//380 363//363
f 362//362 400//400 380//380
f 398//398 360//360 363//363
f 337//337 396//396 331//331
f 337//337 340//340 396//396
f 397//397 396//396 340//340
f 393//393 397//397 371//371
f 372//372 376//376 393//393
f 382//382 376//376 372//372
f 401//401 380//380 382//382
f 385//385 381//381 400//400
f 399//399 373//373 377//377
f 370//370 367//367 399//399
f 373//373 399//399 367//367
f 370//370 392//392 367//367
f 377//377 373//373 378//378
f 400//400 377//377 378//378
f 384//384 398//398 401//401
f 377//377 400//400 381//381
f 384//384 381//381 385//385
f 319//319 402//402 321//321
f 311//311 336//336 404//404
f 321//321 403//403 323//323
f 402//402 311//311 405//405
f 311//311 404//404 405//405
f 324//324 323//323 135//135
f 321//321 402//402 405//405
f 321//321 405//405 403//403
f 405//405 404//404 409//409
f 405//405 409//409 406//406
f 323//323 403//403 407//407
f 403//403 405//405 406//406
f 135//135 323//323 407//407
f 407//407 408//408 137//137
f 135//135 407//407 137//137
f 407//407 403//403 408//408
f 403//403 406//406 408//408
f 406//406 409//409 410//410
f 408//408 406//406 410//410
f 409//409 412//412 410//410
f 408//408 411//411 420//420
f 408//408 410//410 411//411
f 408//408 420//420 137//137
f 411//411 410//410 413//413
f 137//137 420//420 423//423
f 412//412 417//417 454//454
f 410//410 412//412 413//413
f 325//325 327//327 313//313
f 409//409 415//415 417//417
f 404//404 415//415 409//409
f 421//421 418//418 419//419
f 421//421 147//147 418//418
f 415//415 416//416 421//421
f 415//415 421//421 417//417
f 336//336 414//414 404//404
f 416//416 147//147 421//421
f 415//415 404//404 414//414
f 151//151 419//419 418//418
f 417//417 421//421 419//419
f 412//412 409//409 417//417
f 419//419 151//151 448//448
f 417//417 419//419 454//454
f 413//413 412//412 422//422
f 448//448 151//151 149//149
f 448//448 149//149 170//170
f 170//170 149//149 154//154
f 170//170 154//154 171//171
f 180//180 171//171 154//154
f 423//423 420//420 424//424
f 420//420 411//411 424//424
f 142//142 178//178 179//179
f 178//178 142//142 155//155
f 155//155 156//156 178//178
f 141//141 157//157 155//155
f 157//157 141//141 423//423
f 411//411 413//413 455//455
f 157//157 423//423 425//425
f 157//157 159//159 156//156
f 159//159 168//168 178//178
f 178//178 168//168 179//179
f 169//169 179//179 168//168
f 167//167 180//180 169//169
f 426//426 425//425 429//429
f 426//426 429//429 428//428
f 426//426 428//428 162//162
f 429//429 430//430 428//428
f 428//428 430//430 432//432
f 430//430 427//427 461//461
f 430//430 461//461 432//432
f 162//162 428//428 431//431
f 163//163 162//162 451//451
f 428//428 432//432 431//431
f 431//431 432//432 433//433
f 451//451 162//162 431//431
f 422//422 435//435 455//455
f 422//422 454//454 434//434
f 422//422 434//434 435//435
f 455//455 435//435 427//427
f 167//167 172//172 171//171
f 173//173 171//171 172//172
f 174//174 170//170 173//173
f 170//170 174//174 447//447
f 170//170 447//447 440//440
f 434//434 436//436 459//459
f 435//435 434//434 459//459
f 427//427 435//435 437//437
f 459//459 436//436 460//460
f 435//435 459//459 437//437
f 446//446 444//444 457//457
f 427//427 437//437 461//461
f 440//440 448//448 170//170
f 454//454 419//419 438//438
f 419//419 440//440 438//438
f 419//419 448//448 440//440
f 454//454 438//438 439//439
f 439//439 438//438 441//441
f 439//439 441//441 442//442
f 438//438 440//440 443//443
f 438//438 443//443 441//441
f 442//442 441//441 445//445
f 441//441 443//443 445//445
f 445//445 443//443 444//444
f 447//447 175//175 449//449
f 443//443 447//447 449//449
f 443//443 449//449 444//444
f 442//442 445//445 446//446
f 424//424 427//427 430//430
f 440//440 447//447 443//443
f 425//425 423//423 424//424
f 455//455 413//413 422//422
f 449//449 176//176 450//450
f 449//449 450//450 453//453
f 454//454 422//422 412//412
f 429//429 424//424 430//430
f 434//434 454//454 439//439
f 434//434 439//439 436//436
f 436//436 442//442 460//460
f 425//425 424//424 429//429
f 436//436 439//439 442//442
f 319//319 320//320 327//327
f 411//411 455//455 424//424
f 424//424 455//455 427//427
f 426//426 157//157 425//425
f 444//444 446//446 445//445
f 466//466 462//462 437//437
f 461//461 437//437 462//462
f 437//437 459//459 466//466
f 446//446 460//460 442//442
f 458//458 456//456 453//453
f 540//540 458//458 453//453
f 460//460 468//468 459//459
f 468//468 466//466 459//459
f 541//541 458//458 540//540
f 461//461 464//464 432//432
f 465//465 446//446 457//457
f 433//433 432//432 464//464
f 458//458 463//463 456//456
f 465//465 467//467 460//460
f 465//465 460//460 446//446
f 457//457 463//463 465//465
f 460//460 467//467 468//468
f 472//472 465//465 463//463
f 472//472 463//463 469//469
f 549//549 469//469 463//463
f 552//552 461//461 462//462
f 484//484 475//475 473//473
f 478//478 480//480 474//474
f 478//478 474//474 472//472
f 480//480 484//484 474//474
f 472//472 469//469 479//479
f 470//470 471//471 477//477
f 475//475 477//477 471//471
f 479//479 478//478 472//472
f 475//475 485//485 477//477
f 470//470 477//477 483//483
f 484//484 485//485 475//475
f 482//482 481//481 476//476
f 487//487 478//478 479//479
f 478//478 484//484 480//480
f 478//478 487//487 484//484
f 485//485 484//484 487//487
f 485//485 483//483 477//477
f 488//488 483//483 489//489
f 486//486 543//543 481//481
f 485//485 489//489 483//483
f 492//492 490//490 487//487
f 485//485 487//487 490//490
f 486//486 488//488 491//491
f 489//489 485//485 496//496
f 489//489 496//496 493//493
f 490//490 496//496 485//485
f 488//488 489//489 491//491
f 491//491 489//489 493//493
f 497//497 543//543 544//544
f 499//499 490//490 492//492
f 498//498 497//497 544//544
f 493//493 496//496 495//495
f 491//491 493//493 495//495
f 497//497 499//499 492//492
f 491//491 495//495 494//494
f 490//490 499//499 501//501
f 502//502 497//497 498//498
f 496//496 501//501 500//500
f 495//495 496//496 500//500
f 502//502 499//499 497//497
f 501//501 496//496 490//490
f 494//494 495//495 500//500
f 236//236 239//239 240//240
f 236//236 240//240 237//237
f 235//235 239//239 236//236
f 239//239 235//235 230//230
f 241//241 238//238 237//237
f 241//241 237//237 240//240
f 233//233 238//238 241//241
f 539//539 538//538 534//534
f 502//502 503//503 499//499
f 500//500 502//502 498//498
f 501//501 503//503 536//536
f 501//501 539//539 500//500
f 536//536 503//503 533//533
f 625//625 626//626 627//627
f 509//509 525//525 524//524
f 513//513 280//280 512//512
f 280//280 513//513 279//279
f 276//276 277//277 511//511
f 518//518 390//390 504//504
f 518//518 504//504 511//511
f 276//276 278//278 513//513
f 277//277 512//512 520//520
f 276//276 302//302 278//278
f 245//245 278//278 302//302
f 245//245 302//302 2//2
f 278//278 279//279 513//513
f 296//296 293//293 295//295
f 517//517 291//291 296//296
f 303//303 302//302 276//276
f 512//512 277//277 513//513
f 513//513 277//277 276//276
f 286//286 288//288 287//287
f 517//517 296//296 515//515
f 514//514 518//518 521//521
f 518//518 511//511 521//521
f 521//521 519//519 515//515
f 521//521 520//520 519//519
f 519//519 517//517 515//515
f 517//517 519//519 520//520
f 514//514 521//521 515//515
f 250//250 20//20 294//294
f 514//514 296//296 297//297
f 298//298 297//297 29//29
f 527//527 548//548 523//523
f 532//532 547//547 545//545
f 628//628 629//629 630//630
f 522//522 546//546 532//532
f 535//535 534//534 538//538
f 537//537 523//523 534//534
f 539//539 501//501 536//536
f 631//631 632//632 633//633
f 535//535 538//538 536//536
f 533//533 539//539 534//534
f 450//450 176//176 452//452
f 450//450 540//540 453//453
f 535//535 536//536 533//533
f 539//539 533//533 503//503
f 537//537 535//535 533//533
f 537//537 533//533 548//548
f 634//634 635//635 636//636
f 531//531 532//532 546//546
f 531//531 546//546 547//547
f 637//637 638//638 639//639
f 640//640 641//641 642//642
f 508//508 527//527 507//507
f 506//506 522//522 532//532
f 522//522 506//506 523//523
f 532//532 524//524 527//527
f 509//509 526//526 525//525
f 524//524 526//526 509//509
f 548//548 534//534 523//523
f 643//643 644//644 645//645
f 528//528 530//530 545//545
f 646//646 647//647 648//648
f 524//524 532//532 526//526
f 649//649 650//650 651//651
f 524//524 525//525 527//527
f 523//523 506//506 527//527
f 527//527 506//506 507//507
f 532//532 527//527 508//508
f 528//528 545//545 529//529
f 652//652 653//653 654//654
f 545//545 547//547 527//527
f 545//545 527//527 529//529
f 655//655 656//656 657//657
f 492//492 543//543 497//497
f 487//487 481//481 543//543
f 487//487 543//543 492//492
f 479//479 481//481 487//487
f 482//482 542//542 470//470
f 479//479 476//476 481//481
f 476//476 479//479 469//469
f 476//476 469//469 549//549
f 470//470 542//542 550//550
f 552//552 462//462 473//473
f 457//457 456//456 463//463
f 444//444 456//456 457//457
f 444//444 453//453 456//456
f 449//449 453//453 444//444
f 449//449 175//175 176//176
f 540//540 433//433 541//541
f 450//450 452//452 540//540
f 451//451 452//452 176//176
f 451//451 176//176 166//166
f 548//548 527//527 547//547
f 547//547 537//537 548//548
f 522//522 537//537 547//547
f 506//506 505//505 507//507
f 508//508 505//505 506//506
f 505//505 508//508 507//507
f 546//546 522//522 547//547
f 537//537 522//522 523//523
f 539//539 502//502 500//500
f 502//502 539//539 503//503
f 499//499 503//503 501//501
f 500//500 498//498 494//494
f 494//494 498//498 544//544
f 494//494 544//544 491//491
f 486//486 491//491 544//544
f 488//488 486//486 482//482
f 488//488 482//482 483//483
f 470//470 483//483 482//482
f 468//468 474//474 466//466
f 452//452 431//431 433//433
f 452//452 433//433 540//540
f 451//451 431//431 452//452
f 476//476 542//542 482//482
f 482//482 486//486 481//481
f 543//543 486//486 544//544
f 551//551 433//433 464//464
f 550//550 433//433 551//551
f 433//433 550//550 541//541
f 541//541 542//542 458//458
f 458//458 549//549 463//463
f 472//472 474//474 467//467
f 474//474 484//484 466//466
f 484//484 473//473 466//466
f 552//552 475//475 471//471
f 552//552 471//471 464//464
f 471//471 551//551 464//464
f 470//470 551//551 471//471
f 550//550 542//542 541//541
f 542//542 476//476 549//549
f 458//458 542//542 549//549
f 470//470 550//550 551//551
f 461//461 552//552 464//464
f 475//475 552//552 473//473
f 466//466 473//473 462//462
f 474//474 468//468 467//467
f 465//465 472//472 467//467
f 658//658 659//659 660//660
f 510//510 10//10 14//14
f 416//416 75//75 147//147
