# GloomhavenVR haunt figure — CC0, MakeHuman hm08 base mesh.
# See Assets/Editor/haunt_figures_pipeline.py for provenance.
v -0.02798 1.55622 0.14303
v -0.00153 1.54945 0.15027
v -0.06131 1.52392 0.12306
v 0.00698 1.50326 0.14690
v -0.03454 1.50399 0.10927
v -0.01593 1.45857 0.13292
v -0.01948 1.45826 0.10318
v 0.00319 1.51629 0.12108
v -0.03155 1.48674 0.05982
v -0.01599 1.44238 0.06432
v -0.00837 1.51140 0.07718
v -0.04891 1.54900 0.13319
v -0.00167 1.47047 0.15442
v -0.04681 1.40047 0.03551
v 0.00052 1.43047 0.07464
v -0.02763 1.38117 0.06901
v -0.04367 1.46375 0.05271
v -0.04253 1.45185 -0.00342
v -0.05867 1.62204 -0.00253
v -0.05675 1.64758 0.04444
v -0.01604 1.66897 0.04738
v -0.05336 1.63871 0.09775
v -0.06428 1.54708 0.00725
v -0.04583 1.60024 -0.02737
v -0.01790 1.61056 -0.03501
v 0.01763 1.62355 0.13958
v -0.01135 1.65007 0.11900
v -0.00163 1.54066 -0.03916
v -0.02067 1.53954 0.13868
v -0.02097 1.55290 0.13770
v -0.02557 1.52955 0.12628
v -0.04884 1.55000 0.11754
v -0.19357 1.37986 0.03063
v -0.12311 1.32378 0.09482
v -0.10755 1.26278 0.12465
v -0.10915 1.36417 0.08395
v -0.07402 1.31427 0.11216
v -0.16568 1.38163 0.06473
v -0.04287 1.35489 0.09196
v -0.17260 1.31498 0.06818
v -0.11975 1.24376 0.09997
v -0.16436 1.27743 0.01803
v -0.13774 1.29505 0.08505
v -0.14492 1.28108 0.04849
v -0.23000 1.32470 0.03902
v -0.00000 1.33284 0.09794
v -0.09937 1.38658 -0.02755
v -0.00815 1.36686 -0.04553
v -0.00624 1.41613 -0.02212
v -0.04985 1.41760 -0.01133
v -0.06592 1.40220 -0.00267
v -0.04087 1.33463 0.09965
v -0.07510 1.37717 0.03927
v -0.17958 1.38093 -0.01555
v -0.14384 1.39244 -0.00093
v -0.03970 1.30891 -0.05360
v -0.18619 1.35308 -0.03794
v -0.10729 1.26892 -0.05393
v -0.08433 1.36044 -0.05018
v -0.08231 1.31157 -0.06194
v -0.08654 1.23857 -0.04047
v -0.05882 1.32894 -0.04767
v -0.22883 1.33318 -0.00354
v -0.13229 1.30557 -0.04782
v -0.15897 1.27082 -0.01583
v -0.14879 1.25394 -0.01520
v -0.25400 1.27772 0.01031
v -0.23900 1.26754 -0.02189
v -0.21838 1.32174 0.05235
v -0.21856 1.21273 -0.02335
v -0.18709 1.23821 -0.00759
v -0.26172 1.20770 0.05949
v -0.22516 1.22570 0.05065
v -0.27608 1.22508 0.04170
v -0.28625 1.16791 0.05926
v -0.25866 1.19855 -0.02654
v -0.07095 1.19715 0.16220
v -0.06893 1.24176 0.14345
v -0.09317 1.19677 0.15549
v -0.07441 1.16735 0.14776
v -0.10060 1.17725 0.12816
v -0.01347 1.20268 0.14793
v -0.34744 0.92859 0.26669
v -0.34389 0.94491 0.29343
v -0.34666 0.92948 0.28349
v -0.33604 0.92680 0.30976
v -0.35631 0.92740 0.25902
v -0.35794 0.90717 0.24178
v -0.34484 0.86592 0.26143
v -0.34885 0.88617 0.26403
v -0.34424 0.87468 0.23362
v -0.34961 0.90518 0.23058
v -0.35292 0.88856 0.22426
v -0.32841 0.97973 0.25020
v -0.31508 0.98210 0.28021
v -0.34104 0.91505 0.30946
v -0.35744 0.92466 0.21109
v -0.34214 0.88266 0.29326
v -0.35176 0.95775 0.26861
v -0.34096 0.95846 0.26816
v -0.34984 0.90121 0.21344
v -0.34326 0.95008 0.22746
v -0.34516 0.93865 0.27061
v -0.34901 0.91471 0.25156
v -0.22193 1.18940 0.00566
v -0.29460 1.17818 0.00051
v -0.28679 1.14517 -0.01487
v -0.26418 1.14933 0.04712
v -0.30155 1.17790 0.04189
v -0.30518 1.11430 0.01265
v -0.25811 1.13008 0.02523
v -0.29678 1.09756 0.10844
v -0.28456 1.08667 0.08888
v -0.31511 1.13968 0.07989
v -0.32107 1.13478 0.03596
v -0.33458 1.10615 0.08221
v -0.32740 1.07368 0.05647
v -0.35085 1.01531 0.13144
v -0.34936 1.04826 0.12679
v -0.32653 1.02917 0.16581
v -0.32493 1.00646 0.23851
v -0.34499 0.92078 0.19898
v -0.02633 1.44303 0.06810
v -0.04844 1.46004 0.10080
v -0.02206 1.48316 0.14504
v -0.15944 1.35731 0.07872
v -0.18204 1.29110 0.05072
v -0.21842 1.27228 0.05765
v -0.34484 1.01666 0.19376
v -0.33621 1.06486 0.14618
v -0.07595 1.29609 -0.05752
v -0.25060 1.15123 -0.00799
v -0.28429 1.11502 0.00937
v -0.30596 1.05690 0.07919
v -0.33305 0.99862 0.14788
v -0.34645 0.99814 0.23535
v -0.33262 0.98835 0.18143
v -0.32445 0.98536 0.22540
v 0.00000 1.26951 -0.04525
v -0.17712 1.29233 -0.03440
v -0.34847 0.97946 0.16062
v -0.35792 0.99513 0.19547
v -0.04010 1.21826 -0.04193
v -0.12173 1.17548 0.07480
v -0.13083 1.21232 -0.00264
v -0.10006 1.18047 -0.01399
v -0.11148 1.13756 0.03298
v -0.04067 1.14861 -0.02616
v -0.08689 1.12988 -0.00233
v 0.00314 1.15441 -0.02310
v -0.11587 1.10944 0.07555
v -0.03747 1.07696 -0.01880
v -0.03768 1.14641 0.16208
v -0.06291 1.09085 0.14757
v -0.10301 1.12815 0.11623
v -0.02250 1.00390 0.14292
v -0.10660 1.08310 0.03819
v -0.07836 1.07575 0.00342
v -0.11471 1.03870 0.10197
v 0.00209 1.00964 0.13944
v -0.09457 1.03253 0.12098
v -0.04642 0.92553 0.13739
v -0.12114 1.04453 0.06167
v -0.12862 1.01286 0.01447
v -0.12974 0.97995 0.08949
v -0.03706 0.98707 -0.04647
v -0.07125 1.02904 -0.02172
v -0.11807 0.96825 -0.03947
v -0.07957 0.93276 -0.08351
v -0.01907 0.95292 -0.06215
v -0.05113 0.88466 -0.09986
v 0.00018 0.91419 -0.07194
v -0.08504 0.86094 -0.10098
v -0.02373 0.83287 -0.09206
v 0.00000 0.85127 -0.07326
v -0.02214 0.77617 -0.04777
v -0.00103 0.80478 -0.04454
v -0.11544 0.87892 -0.07875
v -0.05451 0.74415 -0.04277
v -0.02017 0.76767 -0.00331
v 0.00381 0.77671 -0.00121
v -0.14588 0.96136 0.06496
v -0.14545 0.96471 0.02048
v -0.14964 0.89851 0.01347
v -0.14641 0.85620 0.06816
v -0.13681 0.85889 0.09148
v -0.08260 0.86616 0.11831
v -0.03001 0.80456 0.10760
v -0.04544 0.80691 0.10540
v 0.00650 0.79631 0.10575
v -0.12088 0.84808 0.10838
v -0.03220 0.87409 0.13479
v -0.10989 0.96491 0.10948
v -0.00132 0.77807 0.07750
v -0.01647 0.77692 0.04375
v -0.02585 0.78328 0.07659
v -0.08992 0.78628 0.11478
v -0.14221 0.75429 0.10756
v -0.08307 0.76810 -0.06732
v -0.11990 0.77265 -0.05484
v -0.15158 0.81392 0.01500
v -0.14301 0.76481 -0.02647
v -0.03505 0.72179 0.03277
v -0.06139 0.70401 -0.03409
v -0.10081 0.73321 0.11264
v -0.15787 0.75930 0.06911
v -0.06957 0.69594 0.09198
v -0.08131 0.58436 -0.02335
v -0.14689 0.63398 -0.01183
v -0.15708 0.72798 0.03127
v -0.11969 0.65836 0.11276
v -0.11030 0.57459 -0.03544
v -0.14121 0.53353 -0.00561
v -0.14436 0.51867 0.04005
v -0.13994 0.59718 0.09856
v -0.09744 0.54565 0.09489
v -0.13131 0.59986 -0.03359
v -0.12599 0.57152 0.10299
v -0.14119 0.51774 0.06869
v -0.12358 0.50161 0.08901
v -0.12415 0.50337 -0.03172
v -0.10188 0.51042 -0.02508
v -0.11758 0.44078 -0.03812
v -0.12895 0.45640 -0.03280
v -0.12436 0.40866 0.07629
v -0.13303 0.44199 0.08159
v -0.10383 0.46364 0.07745
v -0.10666 0.38256 0.03814
v -0.09988 0.41063 -0.01176
v -0.13327 0.35937 0.05568
v -0.14087 0.45248 -0.01245
v -0.12745 0.34483 -0.06461
v -0.10509 0.34052 -0.03989
v -0.14497 0.41814 0.02691
v -0.12141 0.28509 0.03226
v -0.14214 0.36321 -0.04529
v -0.10909 0.31159 0.01112
v -0.14844 0.34984 -0.00034
v -0.12253 0.26552 -0.05998
v -0.13929 0.28959 -0.05483
v -0.13367 0.27255 0.04522
v -0.12820 0.19692 0.03706
v -0.11807 0.21410 0.00522
v -0.11331 0.26161 -0.03429
v -0.13420 0.18991 -0.00598
v -0.12458 0.12302 -0.03475
v -0.12477 0.11700 0.03607
v -0.11783 0.10698 -0.00253
v -0.10991 0.02079 0.15571
v -0.11285 0.01246 0.17812
v -0.11534 0.01768 0.18017
v -0.02188 1.55094 0.10831
v -0.05438 1.57996 0.12954
v -0.06886 1.53377 0.09857
v -0.06548 1.49855 0.06347
v -0.04144 1.47747 0.13162
v -0.01614 1.50790 0.15056
v -0.01457 1.64983 -0.00477
v -0.07641 1.59962 0.07205
v -0.08796 1.54423 0.03950
v -0.03699 1.49737 -0.01035
v -0.07279 1.51692 0.05857
v -0.07878 1.52106 0.04392
v -0.07792 1.55169 0.05160
v -0.07223 1.53805 0.03892
v -0.05826 1.50823 0.03533
v -0.11548 0.02972 0.14624
v -0.11484 0.02979 0.16026
v -0.11275 0.00266 0.13554
v -0.11606 0.01852 0.17188
v -0.11568 0.01213 0.15641
v -0.11512 0.01142 0.15394
v -0.11579 0.01469 0.15786
v -0.11603 0.02140 0.13141
v -0.11496 0.00792 0.13633
v -0.11990 0.07657 0.06313
v -0.11408 0.00861 0.08511
v -0.11016 0.02572 0.09895
v -0.11386 0.00756 -0.03174
v -0.11364 0.05285 0.02753
v -0.12014 0.06202 -0.03026
v -0.08638 0.49121 0.00544
v -0.09226 0.45991 0.04966
v -0.11574 0.01900 0.14405
v -0.11520 0.01411 0.15225
v -0.11439 0.01171 0.14368
v -0.11414 0.01034 0.13202
v -0.11458 0.00718 0.14396
v -0.11865 0.04930 0.09707
v -0.07211 0.60943 0.06465
v -0.05535 0.65338 0.01260
v -0.09934 0.69250 -0.05801
v -0.12427 0.69043 -0.05217
v -0.15281 0.67511 0.08961
v -0.13812 0.66477 0.11078
v -0.09373 0.62538 0.10194
v 0.00180 1.51955 0.16658
v 0.01683 1.50194 0.14942
v 0.06638 1.60536 0.10291
v 0.04908 1.54728 0.13192
v 0.00219 1.48712 0.15629
v 0.03747 1.50485 0.09429
v 0.00326 1.49058 0.05684
v 0.04296 1.45143 0.10705
v 0.04622 1.41153 0.03174
v 0.04105 1.46381 -0.00614
v 0.04865 1.41765 -0.01385
v 0.03833 1.66273 0.04428
v 0.04118 1.55045 -0.02697
v 0.06414 1.51924 0.03568
v 0.07248 1.56832 0.01658
v 0.06742 1.63258 0.06808
v 0.04140 1.64326 0.10626
v -0.00673 1.44945 -0.01056
v 0.02442 1.42987 0.06288
v 0.02988 1.56521 0.12142
v 0.04028 1.53982 0.10930
v 0.03795 1.53424 0.13959
v 0.01494 1.54320 0.13661
v 0.18238 1.37190 0.06603
v 0.12669 1.31605 0.09397
v 0.09435 1.34267 0.09654
v 0.18872 1.30507 0.05985
v 0.26283 1.25760 0.03205
v 0.21653 1.23133 0.04496
v 0.13871 1.28338 0.07498
v 0.15490 1.27135 0.00598
v 0.23024 1.32118 0.04227
v 0.14154 1.38102 0.06378
v 0.02005 1.37740 0.07063
v 0.04236 1.38510 -0.04454
v 0.09889 1.38537 -0.03099
v 0.10506 1.38560 0.02130
v 0.06409 1.40207 0.00462
v 0.03739 1.35519 0.09027
v 0.06729 1.30609 0.11575
v 0.15355 1.39378 0.00679
v 0.18394 1.38379 -0.01156
v 0.10597 1.26821 -0.05288
v 0.06944 1.35803 -0.05013
v 0.02187 1.33329 -0.05226
v 0.23851 1.28159 -0.01610
v 0.18709 1.23821 -0.00759
v 0.15995 1.26711 -0.01190
v 0.23079 1.33607 0.00346
v 0.18705 1.34904 -0.03829
v 0.15845 1.30473 0.06717
v 0.14709 1.30843 -0.04281
v 0.13546 1.21568 0.02419
v 0.25531 1.21393 -0.02616
v 0.29295 1.19222 0.00604
v 0.22146 1.18735 -0.00533
v 0.08712 1.19525 0.15923
v 0.05903 1.22058 0.15278
v 0.00265 1.25499 0.12880
v 0.03630 1.18128 0.15429
v 0.11843 1.25336 0.11505
v 0.10002 1.25336 0.13182
v 0.34666 0.92948 0.28349
v 0.34389 0.94491 0.29343
v 0.34104 0.91505 0.30946
v 0.33604 0.92680 0.30976
v 0.34901 0.91471 0.25156
v 0.35631 0.92740 0.25902
v 0.34744 0.92859 0.26669
v 0.34214 0.88266 0.29326
v 0.34885 0.88617 0.26403
v 0.35794 0.90717 0.24178
v 0.34961 0.90518 0.23058
v 0.34984 0.90121 0.21344
v 0.35292 0.88856 0.22426
v 0.34424 0.87468 0.23362
v 0.31508 0.98210 0.28021
v 0.34484 0.86592 0.26143
v 0.34096 0.95846 0.26816
v 0.32841 0.97973 0.25020
v 0.34326 0.95008 0.22746
v 0.34847 0.97946 0.16062
v 0.34499 0.92078 0.19898
v 0.35792 0.99513 0.19547
v 0.35176 0.95775 0.26861
v 0.34516 0.93865 0.27061
v 0.30155 1.17790 0.04189
v 0.27068 1.19166 0.05920
v 0.28280 1.15040 -0.01782
v 0.25811 1.13008 0.02523
v 0.28609 1.16409 0.06132
v 0.32270 1.11448 0.02989
v 0.27090 1.10200 0.06107
v 0.32740 1.07368 0.05647
v 0.33015 1.11937 0.08827
v 0.29923 1.06275 0.11025
v 0.33621 1.06486 0.14618
v 0.31661 1.03776 0.10133
v 0.34936 1.04826 0.12679
v 0.34484 1.01666 0.19376
v 0.32653 1.02917 0.16581
v 0.35085 1.01531 0.13144
v 0.33465 0.99178 0.15374
v 0.32493 1.00646 0.23851
v 0.34645 0.99814 0.23535
v 0.32445 0.98536 0.22540
v 0.35744 0.92466 0.21109
v 0.03044 1.46602 0.10325
v 0.01894 1.44633 0.06646
v 0.03274 1.48933 0.06121
v 0.23645 1.24943 0.05857
v 0.19481 1.27965 -0.03301
v 0.33262 0.98835 0.18143
v 0.08128 1.30752 -0.06143
v 0.05399 1.28586 -0.05031
v 0.26531 1.13347 -0.00482
v 0.30417 1.08496 0.11989
v 0.26436 1.15161 0.04850
v 0.12482 1.21264 -0.00918
v 0.12729 1.24028 0.06893
v 0.07206 1.21407 -0.03421
v 0.04044 1.21367 -0.04119
v 0.10554 1.17859 -0.00842
v 0.07565 1.13139 -0.01192
v 0.10536 1.12329 0.02921
v 0.06795 1.07654 -0.00633
v 0.03230 1.10677 -0.01804
v 0.11298 1.07434 0.04886
v 0.11494 1.11961 0.08774
v 0.05375 1.05679 -0.01693
v 0.11808 1.03665 0.02360
v 0.10151 1.17760 0.12509
v 0.06488 1.17131 0.15227
v 0.07763 1.08648 0.13795
v 0.02669 1.09909 0.15642
v 0.03606 1.14738 0.16217
v 0.11465 1.04596 0.09948
v 0.10666 0.99640 0.11095
v 0.03648 1.02086 0.14143
v 0.14088 0.95647 0.07970
v 0.07336 1.02988 -0.01979
v 0.01002 1.02565 -0.03109
v 0.03835 0.99312 -0.04294
v 0.07973 0.94307 -0.07694
v 0.03357 0.93106 -0.07659
v 0.11287 0.92080 -0.06874
v 0.11797 0.83616 -0.07364
v 0.02309 0.85071 -0.09435
v 0.08300 0.87827 -0.10227
v 0.06780 0.80544 -0.08908
v 0.02114 0.78733 -0.05829
v 0.09039 0.74742 -0.06144
v 0.05956 0.72278 -0.03873
v 0.12402 0.98543 -0.02377
v 0.14850 0.96738 0.03803
v 0.13848 0.88091 -0.02428
v 0.15081 0.83392 0.02749
v 0.12895 0.87729 0.10171
v 0.14322 0.78978 -0.02221
v 0.05143 0.92977 0.13528
v 0.04809 0.85647 0.12468
v 0.07875 0.86747 0.11848
v 0.04346 0.80467 0.10336
v 0.11723 0.81607 0.11318
v 0.09190 0.76991 0.11368
v 0.00773 0.85315 0.13252
v 0.01085 0.95385 0.14684
v 0.02550 0.78442 0.07709
v 0.01615 0.77212 0.01689
v 0.11990 0.77265 -0.05484
v 0.04108 0.71596 0.04867
v 0.04461 0.69788 0.01120
v 0.03441 0.75714 -0.03144
v 0.14752 0.83290 0.07252
v 0.06957 0.69594 0.09198
v 0.14215 0.70293 0.10954
v 0.15207 0.75580 0.09418
v 0.11969 0.65836 0.11276
v 0.10520 0.67021 -0.05634
v 0.15776 0.75771 0.03579
v 0.12870 0.51100 -0.02585
v 0.13659 0.59202 0.10340
v 0.09757 0.57346 0.09964
v 0.07570 0.54808 0.00054
v 0.09654 0.56928 -0.03160
v 0.10910 0.51194 -0.03069
v 0.14924 0.61232 0.00501
v 0.10028 0.49541 0.07960
v 0.13950 0.49050 0.06349
v 0.14463 0.50728 0.01496
v 0.12358 0.50161 0.08901
v 0.08827 0.50024 0.05990
v 0.08789 0.48333 0.00570
v 0.09010 0.43703 0.02528
v 0.12866 0.43666 0.08399
v 0.11296 0.46025 -0.03238
v 0.10907 0.41899 -0.03248
v 0.10889 0.44054 0.07830
v 0.14257 0.44042 -0.01245
v 0.13121 0.35963 0.05705
v 0.14449 0.41175 0.03018
v 0.13760 0.38885 -0.04657
v 0.10666 0.38256 0.03814
v 0.10009 0.38304 0.00624
v 0.11374 0.34100 -0.05857
v 0.12024 0.30237 0.03399
v 0.11561 0.26976 -0.05588
v 0.12979 0.34156 -0.06537
v 0.14664 0.34335 -0.03276
v 0.13255 0.29169 0.04760
v 0.13718 0.28641 -0.05533
v 0.14558 0.32282 0.01458
v 0.12587 0.18415 -0.04309
v 0.13598 0.22729 0.02491
v 0.12844 0.19818 0.03731
v 0.11653 0.24164 -0.00297
v 0.03075 1.55718 0.14359
v 0.06283 1.52590 0.11819
v 0.07320 1.54418 0.06713
v -0.00269 1.59731 0.15239
v 0.05647 1.56797 0.12744
v 0.03846 1.49811 -0.01021
v 0.01587 1.49971 -0.01671
v -0.00093 1.43257 0.14572
v 0.03109 1.47418 0.13946
v 0.05102 1.62997 -0.01251
v 0.03917 1.59557 -0.03376
v 0.07768 1.58921 0.05051
v 0.07943 1.54979 0.04681
v 0.07070 1.50450 0.06301
v 0.07655 1.52694 0.04536
v 0.04486 1.46295 0.04749
v 0.10911 0.02062 0.13450
v 0.11355 0.00490 0.14653
v 0.11549 0.02292 0.16392
v 0.11606 0.01852 0.17188
v 0.11543 0.01356 0.14932
v 0.11285 0.01246 0.17812
v 0.11572 0.04203 0.12396
v 0.12007 0.06259 0.07497
v 0.12178 0.07265 0.03386
v 0.11399 0.00608 -0.00834
v 0.11408 0.00861 0.08511
v 0.12192 0.08882 -0.03359
v 0.11538 0.03195 -0.04406
v 0.12006 0.09087 0.04786
v 0.11756 0.10103 0.00309
v 0.06268 0.61765 0.01713
v 0.12819 0.13719 0.00174
v 0.12390 0.13517 0.03486
v 0.11283 0.04195 0.04503
v 0.11603 0.02140 0.13141
v 0.07173 0.61714 0.06637
v 0.07374 0.61128 -0.01921
v 0.13921 0.70034 -0.03874
v 0.15299 0.63854 0.07092
v -0.04884 1.55000 0.11754
v -0.04891 1.54900 0.13319
v -0.02557 1.52955 0.12628
v -0.34666 0.92948 0.28349
v -0.33604 0.92680 0.30976
v -0.34104 0.91505 0.30946
v -0.34901 0.91471 0.25156
v -0.35794 0.90717 0.24178
v -0.34885 0.88617 0.26403
v -0.34424 0.87468 0.23362
v -0.34961 0.90518 0.23058
v -0.35292 0.88856 0.22426
v -0.34744 0.92859 0.26669
v -0.34516 0.93865 0.27061
v -0.35631 0.92740 0.25902
v -0.32841 0.97973 0.25020
v -0.31508 0.98210 0.28021
v -0.34645 0.99814 0.23535
v -0.02557 1.52955 0.12628
v -0.04891 1.54900 0.13319
v -0.02067 1.53954 0.13868
v -0.07792 1.55169 0.05160
v -0.07223 1.53805 0.03892
v -0.08796 1.54423 0.03950
v -0.07223 1.53805 0.03892
v -0.06548 1.49855 0.06347
v -0.07878 1.52106 0.04392
v -0.11865 0.04930 0.09707
v -0.11016 0.02572 0.09895
v -0.11990 0.07657 0.06313
v -0.11364 0.05285 0.02753
v -0.12477 0.11700 0.03607
v -0.11990 0.07657 0.06313
v -0.11783 0.10698 -0.00253
v -0.12014 0.06202 -0.03026
v -0.12458 0.12302 -0.03475
v -0.11579 0.01469 0.15786
v -0.11496 0.00792 0.13633
v -0.11548 0.02972 0.14624
v -0.11285 0.01246 0.17812
v -0.11484 0.02979 0.16026
v -0.11275 0.00266 0.13554
v -0.11512 0.01142 0.15394
v -0.11534 0.01768 0.18017
v -0.11548 0.02972 0.14624
v -0.11534 0.01768 0.18017
v -0.11512 0.01142 0.15394
v -0.11484 0.02979 0.16026
v -0.11568 0.01213 0.15641
v -0.11606 0.01852 0.17188
v -0.11548 0.02972 0.14624
v -0.11496 0.00792 0.13633
v -0.11603 0.02140 0.13141
v -0.11458 0.00718 0.14396
v -0.11458 0.00718 0.14396
v -0.11574 0.01900 0.14405
v -0.11520 0.01411 0.15225
v -0.11458 0.00718 0.14396
v -0.11603 0.02140 0.13141
v -0.11574 0.01900 0.14405
v -0.11275 0.00266 0.13554
v -0.11414 0.01034 0.13202
v -0.11408 0.00861 0.08511
v -0.11386 0.00756 -0.03174
v -0.12014 0.06202 -0.03026
v -0.11364 0.05285 0.02753
v 0.02988 1.56521 0.12142
v 0.04908 1.54728 0.13192
v 0.03075 1.55718 0.14359
v 0.04028 1.53982 0.10930
v 0.03795 1.53424 0.13959
v 0.04908 1.54728 0.13192
v 0.34666 0.92948 0.28349
v 0.34104 0.91505 0.30946
v 0.33604 0.92680 0.30976
v 0.34901 0.91471 0.25156
v 0.34885 0.88617 0.26403
v 0.35794 0.90717 0.24178
v 0.34424 0.87468 0.23362
v 0.35292 0.88856 0.22426
v 0.34961 0.90518 0.23058
v 0.34744 0.92859 0.26669
v 0.35631 0.92740 0.25902
v 0.34516 0.93865 0.27061
v 0.32841 0.97973 0.25020
v 0.34645 0.99814 0.23535
v 0.31508 0.98210 0.28021
v 0.12844 0.19818 0.03731
v 0.12390 0.13517 0.03486
v 0.12819 0.13719 0.00174
v 0.03109 1.47418 0.13946
v 0.00219 1.48712 0.15629
v 0.00698 1.50326 0.14690
v 0.11408 0.00861 0.08511
v 0.11283 0.04195 0.04503
v 0.11399 0.00608 -0.00834
v 0.11572 0.04203 0.12396
v 0.12007 0.06259 0.07497
v 0.10911 0.02062 0.13450
v 0.11285 0.01246 0.17812
v 0.11355 0.00490 0.14653
v 0.11549 0.02292 0.16392
v 0.12178 0.07265 0.03386
v 0.12390 0.13517 0.03486
v 0.12006 0.09087 0.04786
v 0.11355 0.00490 0.14653
v 0.11606 0.01852 0.17188
v 0.11549 0.02292 0.16392
v 0.11572 0.04203 0.12396
v 0.10911 0.02062 0.13450
v 0.11549 0.02292 0.16392
vn -0.37152 -0.07815 0.92513
vn -0.02207 -0.01000 0.99971
vn -0.82790 -0.14096 0.54287
vn -0.19357 -0.76053 -0.61977
vn 0.90708 -0.38603 -0.16787
vn 0.45034 0.85586 -0.25434
vn 0.56911 0.79145 -0.22298
vn -0.01170 -0.99348 -0.11343
vn 0.88820 -0.05578 0.45607
vn 0.42168 0.63347 0.64876
vn 0.09974 -0.92742 0.36048
vn -0.62464 -0.00514 0.78090
vn -0.30192 0.70834 0.63805
vn -0.85810 0.27830 0.43152
vn 0.09874 -0.71693 0.69012
vn -0.39432 0.34283 0.85263
vn -0.97281 -0.22806 0.04034
vn -0.81606 0.03360 -0.57699
vn -0.89017 0.28922 -0.35207
vn -0.71684 0.68626 -0.12323
vn -0.18804 0.98168 0.03082
vn -0.67430 0.61997 0.40120
vn -0.88758 -0.14076 -0.43862
vn -0.59564 0.03123 -0.80265
vn -0.03051 0.34635 -0.93761
vn 0.44663 0.37757 0.81115
vn -0.16710 0.80753 0.56566
vn -0.09359 -0.17910 -0.97937
vn -0.53417 0.22663 0.81443
vn -0.51867 -0.80532 0.28713
vn -0.13237 0.95522 0.26465
vn 0.62531 -0.43897 0.64520
vn -0.62328 0.76573 0.15868
vn -0.37838 0.20472 0.90273
vn -0.53070 0.23817 0.81340
vn -0.01979 0.66823 0.74369
vn -0.04745 0.40253 0.91418
vn -0.17407 0.87562 0.45055
vn -0.01970 0.69919 0.71466
vn -0.41947 -0.40496 0.81244
vn -0.94099 -0.13645 0.30969
vn 0.07967 -0.86049 0.50320
vn -0.79334 -0.20927 0.57167
vn -0.79463 -0.51731 0.31775
vn -0.77376 0.41792 0.47606
vn -0.02682 0.41486 0.90949
vn -0.17482 0.75491 -0.63210
vn -0.03289 0.25198 -0.96717
vn -0.04408 0.44059 -0.89662
vn -0.68914 0.54558 -0.47689
vn -0.30559 0.92141 0.24002
vn 0.04873 0.40400 0.91346
vn -0.06931 0.91564 0.39597
vn -0.44082 0.78760 -0.43053
vn -0.07866 0.99307 0.08727
vn 0.01756 -0.05571 -0.99829
vn -0.31168 0.26654 -0.91204
vn -0.33879 -0.32721 -0.88213
vn -0.08386 0.35424 -0.93139
vn -0.06751 0.09450 -0.99323
vn -0.21919 -0.33695 -0.91565
vn 0.11008 0.12109 -0.98652
vn -0.81231 0.48870 -0.31831
vn -0.25779 -0.07023 -0.96364
vn -0.16711 -0.63972 -0.75022
vn -0.92187 -0.37831 -0.08388
vn -0.88810 0.37452 -0.26648
vn -0.45868 0.11885 -0.88062
vn -0.49178 0.18083 0.85174
vn 0.31958 -0.29424 -0.90072
vn 0.78607 -0.61741 -0.03002
vn -0.15629 0.08978 0.98362
vn 0.65395 -0.37062 0.65954
vn -0.86174 0.41273 0.29506
vn 0.05955 0.42683 0.90237
vn -0.41148 0.10034 -0.90588
vn 0.09054 0.05099 0.99459
vn 0.00476 0.37374 0.92752
vn -0.70138 0.02110 0.71247
vn -0.40853 -0.12664 0.90391
vn -0.88195 -0.14555 0.44831
vn 0.05343 0.23664 0.97013
vn 0.98937 -0.06781 0.12866
vn -0.38105 0.56530 0.73160
vn -0.89201 -0.44896 -0.05243
vn 0.98516 -0.07902 -0.15239
vn -0.98898 -0.00501 0.14799
vn -0.97092 -0.23765 0.02909
vn -0.64966 -0.66714 -0.36450
vn 0.80428 0.18304 0.56537
vn 0.97752 -0.20789 0.03526
vn 0.94281 -0.33319 -0.00976
vn -0.97166 -0.22709 0.06561
vn 0.88904 -0.25641 0.37928
vn -0.28727 0.41512 0.86322
vn -0.92720 -0.07024 0.36793
vn -0.97732 -0.11524 -0.17769
vn -0.45637 -0.63143 0.62691
vn -0.86967 0.30570 0.38758
vn 0.97569 -0.16655 0.14246
vn 0.48588 -0.42143 -0.76571
vn 0.95959 -0.28118 0.01077
vn 0.92043 -0.36723 0.13400
vn 0.97602 -0.20542 0.07197
vn 0.83639 -0.50957 0.20198
vn -0.85709 0.34206 -0.38522
vn -0.45429 -0.19192 -0.86994
vn 0.71818 -0.06594 0.69273
vn -0.84892 0.50457 0.15731
vn -0.66060 -0.30795 -0.68467
vn 0.84988 -0.51997 0.08564
vn 0.52767 0.41297 0.74231
vn 0.92955 -0.30059 0.21351
vn -0.48848 0.66608 0.56367
vn -0.93718 0.18982 -0.29268
vn -0.96045 0.27801 -0.01541
vn -0.71183 -0.39660 -0.57966
vn -0.78627 -0.39691 -0.47353
vn -0.98503 0.16891 -0.03456
vn 0.86541 0.05214 0.49835
vn 0.77782 0.62770 0.03154
vn 0.91283 -0.32168 -0.25153
vn -0.72618 -0.55087 0.41134
vn -0.82722 -0.53879 0.15940
vn 0.88008 -0.41559 -0.22965
vn -0.35599 0.15653 0.92129
vn 0.57759 -0.46783 0.66897
vn -0.06010 0.05433 0.99671
vn -0.52985 0.75608 0.38419
vn -0.35780 0.65931 0.66128
vn 0.18494 -0.18054 -0.96602
vn 0.53076 -0.54040 -0.65288
vn 0.31622 -0.74460 -0.58785
vn 0.46836 -0.76554 -0.44112
vn 0.77800 -0.59867 -0.19055
vn -0.68307 0.55566 0.47398
vn 0.98393 -0.13588 -0.11584
vn 0.95204 -0.29092 -0.09476
vn 0.00483 -0.14615 -0.98925
vn -0.01605 -0.23519 -0.97182
vn -0.58619 -0.48961 -0.64549
vn -0.99284 0.11821 0.01693
vn -0.04241 -0.20348 -0.97816
vn -0.97522 -0.14367 0.16822
vn -0.81058 -0.38360 -0.44251
vn -0.46533 -0.31995 -0.82529
vn -0.92188 -0.24320 -0.30164
vn -0.23349 -0.18672 -0.95426
vn -0.63760 -0.22764 -0.73597
vn 0.00748 -0.16332 -0.98654
vn -0.99882 0.00184 0.04858
vn -0.13162 0.12019 -0.98399
vn -0.11285 0.01359 0.99352
vn -0.29732 -0.13750 0.94483
vn -0.80640 -0.04000 0.59001
vn -0.20631 -0.04858 0.97728
vn -0.89612 0.11301 -0.42918
vn -0.58346 0.12625 -0.80227
vn -0.89074 0.06768 0.44944
vn -0.02136 -0.08268 0.99635
vn -0.46558 -0.05622 0.88322
vn -0.30579 -0.04041 0.95124
vn -0.97315 0.22587 0.04425
vn -0.81983 0.39930 -0.41041
vn -0.82134 0.11081 0.55957
vn -0.01197 0.40343 -0.91493
vn -0.37572 0.47298 -0.79695
vn -0.75483 0.32599 -0.56917
vn -0.19959 0.43444 -0.87831
vn 0.07128 0.40294 -0.91245
vn 0.20599 0.22462 -0.95243
vn 0.09604 0.17556 -0.97977
vn -0.27483 -0.14411 -0.95063
vn 0.32085 -0.29964 -0.89848
vn 0.02252 -0.35778 -0.93353
vn 0.67665 -0.55338 -0.48571
vn 0.08001 -0.76808 -0.63534
vn -0.85019 0.07740 -0.52076
vn 0.53356 -0.45266 -0.71443
vn 0.80350 -0.54920 -0.22970
vn -0.30723 -0.93178 -0.19338
vn -0.97583 0.13455 0.17217
vn -0.95382 0.17746 -0.24234
vn -0.97553 0.06044 -0.21141
vn -0.99006 0.05340 0.13013
vn -0.85575 0.08301 0.51069
vn -0.22945 -0.09126 0.96903
vn -0.13936 -0.53584 0.83274
vn 0.23413 -0.25708 0.93760
vn 0.09877 -0.57581 0.81160
vn -0.43350 0.04145 0.90020
vn -0.15718 -0.22324 0.96201
vn -0.48629 -0.00562 0.87378
vn -0.04194 -0.96258 0.26772
vn 0.67440 -0.72529 0.13834
vn 0.72467 -0.47093 0.50306
vn 0.07460 -0.06772 0.99491
vn -0.59009 0.05381 0.80554
vn 0.01146 -0.33387 -0.94255
vn -0.55382 -0.12607 -0.82304
vn -0.98168 0.05443 -0.18258
vn -0.91387 0.00377 -0.40599
vn 0.94463 -0.30776 0.11381
vn 0.83329 -0.25324 -0.49143
vn 0.13437 -0.04376 0.98996
vn -0.98402 0.06512 0.16570
vn 0.68608 -0.20341 0.69851
vn 0.76006 -0.18378 -0.62333
vn -0.97080 -0.04522 -0.23559
vn -0.99568 -0.03065 -0.08760
vn 0.18096 -0.07998 0.98023
vn 0.10983 -0.15106 -0.98240
vn -0.95216 -0.03793 -0.30324
vn -0.99825 -0.05327 0.02555
vn -0.85931 -0.12818 0.49513
vn 0.70005 -0.16354 0.69511
vn -0.75536 -0.06914 -0.65165
vn -0.19537 -0.16138 0.96736
vn -0.90105 -0.09441 0.42332
vn -0.25657 -0.15890 0.95338
vn -0.49961 -0.00039 -0.86625
vn 0.63180 -0.10492 -0.76800
vn 0.59253 0.09543 -0.79988
vn -0.69474 0.15714 -0.70189
vn -0.11191 -0.36288 0.92509
vn -0.84922 -0.10207 0.51808
vn 0.65875 -0.22550 0.71777
vn 0.93559 -0.18009 0.30371
vn 0.98457 -0.09000 -0.15008
vn -0.63184 -0.15449 0.75955
vn -0.97799 0.05707 -0.20067
vn 0.16305 0.11703 -0.97965
vn 0.96917 -0.02751 -0.24485
vn -0.98739 -0.02517 0.15628
vn 0.85112 -0.10442 0.51448
vn -0.90003 0.10520 -0.42295
vn 0.98758 -0.09729 0.12339
vn -0.99808 -0.03796 0.04896
vn -0.05903 -0.20056 -0.97790
vn -0.94722 -0.10269 -0.30370
vn -0.92968 -0.09162 0.35679
vn -0.07093 -0.14525 0.98685
vn 0.99266 -0.04592 0.11190
vn 0.99111 -0.09229 -0.09581
vn -0.99392 -0.10187 -0.04176
vn -0.10843 -0.40630 -0.90728
vn -0.90505 -0.13063 0.40474
vn 0.99912 0.03686 -0.02021
vn 0.99602 0.08037 0.03861
vn -0.52451 -0.59514 0.60885
vn -0.99895 -0.00058 0.04587
vn -0.54354 -0.28002 0.79130
vn -0.70678 0.23025 0.66892
vn -0.95522 -0.05536 0.29069
vn -0.92557 -0.37703 -0.03429
vn -0.68089 -0.27529 0.67868
vn -0.53758 0.01698 0.84304
vn -0.13152 0.82229 -0.55366
vn -0.97565 0.18425 0.11901
vn -0.82554 0.15911 -0.54146
vn -0.54984 -0.21674 -0.80666
vn -0.96038 -0.17670 0.21553
vn -0.88209 -0.45672 -0.11543
vn -0.99647 0.02455 -0.08022
vn -0.73710 -0.32038 -0.59501
vn -0.92431 -0.27360 -0.26606
vn 0.05120 0.97802 0.20212
vn 0.03914 0.46855 0.88257
vn 0.91222 -0.40931 0.01767
vn 0.97592 0.10074 0.19348
vn -0.99726 -0.07311 -0.01131
vn 0.99078 -0.06453 0.11913
vn -0.99622 -0.05450 0.06758
vn -0.99590 -0.09036 0.00410
vn -0.98787 -0.15296 -0.02691
vn -0.89954 0.33649 0.27856
vn 0.29466 -0.94239 -0.15836
vn 0.99300 0.11637 0.02011
vn -0.95380 -0.28860 -0.08351
vn 0.99738 0.07157 -0.01036
vn -0.99077 -0.10724 -0.08286
vn 0.97528 -0.15777 -0.15473
vn 0.96796 -0.16832 0.18631
vn -0.81184 -0.57204 -0.11701
vn -0.45107 -0.03697 -0.89172
vn -0.99783 -0.06049 -0.02602
vn -0.98645 -0.16393 -0.00683
vn 0.99216 0.12150 -0.02916
vn -0.99783 -0.06217 0.02164
vn 0.94328 -0.18155 0.27797
vn 0.97046 -0.20529 -0.12677
vn 0.25571 -0.17184 -0.95136
vn -0.57118 -0.07509 -0.81738
vn -0.98038 -0.06014 0.18773
vn -0.43325 -0.02597 0.90090
vn 0.57056 -0.11173 0.81362
vn 0.07784 0.17982 0.98061
vn 0.51948 0.05773 0.85253
vn 0.88214 0.18772 0.43197
vn -0.08767 -0.33098 0.93956
vn -0.07066 -0.56147 0.82447
vn -0.74624 -0.66424 0.04376
vn -0.09466 -0.29345 0.95128
vn 0.78565 -0.57800 0.22062
vn 0.89168 0.24059 0.38344
vn 0.76530 0.15065 -0.62580
vn 0.49109 0.63949 -0.59151
vn 0.33651 0.94006 -0.05526
vn 0.67977 -0.23124 -0.69602
vn 0.85759 -0.30669 -0.41289
vn 0.89828 -0.05288 -0.43624
vn 0.87285 0.48770 0.01694
vn 0.48976 0.75060 0.44354
vn -0.03522 0.01072 -0.99932
vn 0.77249 -0.35001 0.52986
vn 0.16892 -0.85970 0.48206
vn 0.05598 0.51613 0.85468
vn 0.44496 0.21978 0.86816
vn 0.68299 0.19946 0.70267
vn 0.53672 0.51405 0.66909
vn 0.48177 0.14905 0.86353
vn 0.13502 0.44250 0.88654
vn -0.07829 -0.27032 0.95958
vn 0.88484 0.41537 0.21101
vn -0.68103 -0.43107 0.59193
vn 0.89192 -0.27143 0.36168
vn 0.23409 -0.81028 0.53726
vn 0.66333 0.32037 0.67628
vn -0.02432 0.88451 0.46590
vn 0.21449 0.36368 0.90650
vn 0.03580 0.44304 -0.89578
vn 0.19355 0.79879 -0.56963
vn -0.01128 0.96897 0.24692
vn 0.46777 0.81204 0.34897
vn 0.07302 0.74504 0.66301
vn 0.02521 0.39794 0.91706
vn 0.08222 0.99460 0.06325
vn 0.50181 0.81419 -0.29202
vn 0.30886 -0.33380 -0.89061
vn 0.04552 0.25044 -0.96706
vn -0.00557 0.02387 -0.99970
vn 0.71646 0.28722 -0.63575
vn -0.74528 -0.65404 -0.12959
vn 0.32031 -0.57513 -0.75275
vn 0.83356 0.52938 -0.15791
vn 0.31855 0.27310 -0.90771
vn 0.51113 -0.44121 0.73762
vn 0.24629 -0.24798 -0.93693
vn 0.96688 -0.23922 0.08894
vn 0.22095 -0.00942 -0.97524
vn 0.85948 0.33236 -0.38837
vn -0.72470 -0.50715 -0.46648
vn 0.56880 -0.02619 0.82206
vn -0.06018 0.30296 0.95110
vn -0.01173 0.35965 0.93301
vn -0.06047 0.22457 0.97258
vn 0.89290 -0.07833 0.44338
vn 0.31638 0.35602 0.87929
vn 0.89201 -0.44896 -0.05243
vn 0.38105 0.56530 0.73160
vn 0.92720 -0.07024 0.36793
vn -0.98516 -0.07902 -0.15239
vn -0.97602 -0.20542 0.07197
vn 0.98898 -0.00501 0.14799
vn -0.98937 -0.06781 0.12866
vn 0.45637 -0.63143 0.62691
vn -0.80428 0.18304 0.56537
vn 0.97092 -0.23765 0.02909
vn -0.94281 -0.33319 -0.00976
vn -0.48588 -0.42143 -0.76571
vn 0.97166 -0.22709 0.06561
vn -0.97752 -0.20789 0.03526
vn 0.28727 0.41512 0.86322
vn 0.64966 -0.66714 -0.36450
vn -0.97569 -0.16655 0.14246
vn -0.88904 -0.25641 0.37928
vn -0.95959 -0.28118 0.01077
vn 0.63109 -0.46146 -0.62352
vn -0.91283 -0.32168 -0.25153
vn 0.99284 0.11821 0.01693
vn 0.86967 0.30570 0.38758
vn -0.92043 -0.36723 0.13400
vn 0.85956 0.46059 0.22140
vn 0.14454 0.11936 0.98227
vn 0.31450 -0.16838 -0.93420
vn -0.86666 -0.44743 0.22071
vn -0.07321 0.52793 0.84613
vn 0.88355 0.00099 -0.46833
vn -0.88331 -0.46779 0.03073
vn 0.65677 -0.43274 -0.61757
vn 0.82268 0.50007 0.27042
vn -0.92807 -0.23737 0.28696
vn 0.30206 0.67666 0.67149
vn -0.43328 -0.77268 -0.46392
vn 0.98151 0.18777 -0.03720
vn 0.52985 0.75608 0.38419
vn -0.86584 0.07760 0.49427
vn 0.83942 -0.33021 -0.43166
vn -0.78278 -0.58612 -0.20908
vn -0.77782 0.62770 0.03154
vn 0.68307 0.55566 0.47398
vn -0.95204 -0.29092 -0.09476
vn 0.97732 -0.11524 -0.17769
vn -0.63394 0.76000 -0.14324
vn -0.46344 0.82679 0.31880
vn -0.85658 0.02611 0.51535
vn 0.25156 0.10709 0.96190
vn -0.03246 -0.22040 -0.97487
vn -0.98542 -0.12727 -0.11295
vn 0.07881 0.04088 -0.99605
vn -0.06834 -0.12224 -0.99014
vn -0.32476 -0.71416 -0.62009
vn -0.46548 0.45251 0.76064
vn -0.74534 -0.05323 0.66455
vn 0.83414 -0.38342 -0.39649
vn 0.94980 -0.12342 0.28749
vn 0.18240 -0.27697 -0.94341
vn 0.03597 -0.19340 -0.98046
vn 0.51555 -0.37234 -0.77173
vn 0.50170 -0.22775 -0.83452
vn 0.89584 -0.23328 -0.37823
vn 0.62069 0.13025 -0.77316
vn 0.09765 -0.04391 -0.99425
vn 0.95013 0.15022 -0.27330
vn 0.99188 -0.10418 0.07291
vn 0.23065 0.23682 -0.94378
vn 0.75436 0.42988 -0.49612
vn 0.84701 -0.10024 0.52204
vn 0.36128 -0.11699 0.92509
vn 0.49934 -0.09561 0.86111
vn 0.07861 -0.16341 0.98342
vn 0.06041 0.08493 0.99455
vn 0.90778 0.09804 0.40783
vn 0.49091 -0.01997 0.87098
vn 0.27133 -0.07882 0.95925
vn 0.88556 0.08689 0.45633
vn 0.36801 0.49723 -0.78571
vn 0.04338 0.27382 -0.96080
vn 0.00442 0.44845 -0.89380
vn 0.19208 0.48315 -0.85421
vn -0.15853 0.34177 -0.92632
vn 0.76105 0.19683 -0.61811
vn 0.74767 -0.05944 -0.66141
vn -0.33489 -0.07046 -0.93962
vn 0.18009 0.09697 -0.97886
vn -0.03186 -0.37938 -0.92469
vn -0.53341 -0.54344 -0.64819
vn -0.05264 -0.24870 -0.96715
vn -0.66750 -0.29112 -0.68534
vn 0.76741 0.35941 -0.53095
vn 0.98564 0.15767 -0.06045
vn 0.94308 0.07659 -0.32363
vn 0.99379 0.04505 -0.10179
vn 0.62305 0.06107 0.77979
vn 0.93879 0.02262 -0.34374
vn 0.32208 -0.06833 0.94424
vn 0.22069 -0.28911 0.93151
vn 0.22353 -0.05662 0.97305
vn -0.25646 -0.27987 0.92515
vn 0.32063 0.04371 0.94620
vn -0.16970 -0.07931 0.98230
vn 0.07199 -0.25308 0.96476
vn 0.02767 -0.05386 0.99817
vn -0.69631 -0.53403 0.47954
vn -0.82520 -0.56335 0.04105
vn 0.56015 -0.10915 -0.82117
vn -0.91852 -0.29545 0.26273
vn -0.94760 -0.28464 -0.14503
vn -0.71190 -0.52371 -0.46789
vn 0.97673 0.06157 0.20542
vn -0.65620 -0.18332 0.73198
vn 0.55323 -0.01740 0.83284
vn 0.96211 0.02252 0.27174
vn -0.19308 -0.07067 0.97863
vn -0.06439 -0.14887 -0.98676
vn 0.99638 0.00796 -0.08465
vn 0.69693 -0.03974 -0.71604
vn 0.65107 -0.13941 0.74610
vn -0.56000 -0.15053 0.81470
vn -0.94351 -0.19221 -0.26991
vn -0.51268 -0.17516 -0.84052
vn -0.63637 -0.11548 -0.76269
vn 0.98753 -0.04255 -0.15155
vn -0.75285 -0.19495 0.62866
vn 0.96224 -0.07822 0.26073
vn 0.99668 -0.03341 -0.07420
vn 0.20353 -0.16485 0.96509
vn -0.96207 -0.16159 0.21979
vn -0.95091 -0.11141 -0.28872
vn -0.98323 -0.15849 0.09016
vn 0.77553 -0.12057 0.61969
vn -0.43406 0.12313 -0.89243
vn -0.90837 0.00045 -0.41816
vn -0.74847 -0.22936 0.62225
vn 0.98062 0.06973 -0.18308
vn 0.40215 -0.25335 0.87982
vn 0.99005 -0.01602 0.13983
vn 0.76048 0.14518 -0.63293
vn -0.88112 -0.23079 0.41275
vn -0.99510 -0.09698 -0.01928
vn -0.91898 0.02147 -0.39371
vn -0.91191 -0.11664 0.39346
vn -0.93586 -0.11827 -0.33192
vn 0.00035 0.11898 -0.99290
vn 0.99535 -0.02827 -0.09206
vn 0.69963 -0.09417 0.70827
vn 0.95335 -0.09934 -0.28505
vn 0.98308 -0.04787 0.17683
vn -0.72801 -0.19635 -0.65685
vn 0.99427 -0.09842 0.04177
vn -0.52893 -0.14849 0.83557
vn -0.99510 -0.06688 0.07287
vn 0.41867 -0.09550 0.90310
vn 0.89907 -0.15439 0.40969
vn 0.97126 -0.02426 0.23679
vn -0.18781 0.23338 0.95408
vn 0.81038 0.10702 0.57604
vn 0.76547 -0.23011 -0.60092
vn 0.08719 -0.30352 -0.94883
vn -0.13776 -0.87866 0.45715
vn 0.44330 -0.32628 0.83488
vn 0.64674 0.54868 -0.52978
vn 0.45478 0.09671 -0.88533
vn 0.98620 0.15931 -0.04512
vn 0.98332 -0.09371 -0.15588
vn 0.94387 -0.32813 0.03796
vn 0.96937 -0.22336 -0.10218
vn 0.95018 -0.29976 -0.08547
vn -0.99507 0.09736 0.01873
vn -0.65461 -0.75415 0.05232
vn 0.59217 0.67953 0.43309
vn 0.95245 -0.25831 0.16162
vn 0.99191 -0.12692 -0.00370
vn -0.96999 -0.10670 0.21847
vn 0.98963 0.11241 0.08938
vn 0.99693 0.01139 0.07750
vn 0.99586 -0.09033 0.01051
vn 0.97316 -0.22900 -0.02287
vn 0.90134 -0.43229 -0.02675
vn 0.96923 -0.10822 -0.22110
vn -0.95993 -0.04984 -0.27577
vn -0.96293 0.18913 0.19235
vn -0.99835 0.04352 -0.03733
vn -0.98294 -0.18187 0.02748
vn 0.99581 -0.08816 -0.02445
vn -0.83846 0.01964 0.54461
vn -0.99803 0.06267 0.00282
vn 0.99965 -0.02266 -0.01368
vn -0.93268 -0.18949 0.30692
vn -0.81074 -0.19081 -0.55343
vn 0.86180 -0.03505 -0.50604
vn 0.99008 -0.05714 0.12840
vn 0.64820 0.75970 0.05192
vn 0.64820 0.75970 0.05192
vn 0.64820 0.75970 0.05192
vn 0.85393 -0.35394 -0.38148
vn 0.85393 -0.35394 -0.38148
vn 0.85393 -0.35394 -0.38148
vn -0.80132 0.23571 0.54985
vn -0.80132 0.23571 0.54985
vn -0.80132 0.23571 0.54985
vn -0.78561 -0.07715 0.61389
vn -0.78561 -0.07715 0.61389
vn -0.78561 -0.07715 0.61389
vn -0.63428 -0.15213 0.75799
vn -0.63428 -0.15213 0.75799
vn -0.63428 -0.15213 0.75799
vn -0.79503 -0.46482 0.38971
vn -0.79503 -0.46482 0.38971
vn -0.79503 -0.46482 0.38971
vn 0.34974 0.65722 -0.66764
vn 0.34974 0.65722 -0.66764
vn 0.34974 0.65722 -0.66764
vn 0.25621 0.71326 -0.65239
vn 0.25621 0.71326 -0.65239
vn 0.25621 0.71326 -0.65239
vn 0.46211 -0.40982 -0.78645
vn 0.46211 -0.40982 -0.78645
vn 0.46211 -0.40982 -0.78645
vn 0.90581 0.34595 0.24459
vn 0.90581 0.34595 0.24459
vn 0.90581 0.34595 0.24459
vn 0.98461 0.16217 0.06521
vn 0.98461 0.16217 0.06521
vn 0.98461 0.16217 0.06521
vn 0.98255 0.05841 -0.17658
vn 0.98255 0.05841 -0.17658
vn 0.98255 0.05841 -0.17658
vn 0.99932 0.00735 0.03626
vn 0.99932 0.00735 0.03626
vn 0.99932 0.00735 0.03626
vn -0.99536 -0.09426 0.01921
vn -0.99536 -0.09426 0.01921
vn -0.99536 -0.09426 0.01921
vn -0.99977 -0.02127 -0.00332
vn -0.99977 -0.02127 -0.00332
vn -0.99977 -0.02127 -0.00332
vn 0.99972 -0.01972 0.01310
vn 0.99972 -0.01972 0.01310
vn 0.99972 -0.01972 0.01310
vn -0.99972 -0.00226 -0.02354
vn -0.99972 -0.00226 -0.02354
vn -0.99972 -0.00226 -0.02354
vn 0.99703 0.06315 -0.04405
vn 0.99703 0.06315 -0.04405
vn 0.99703 0.06315 -0.04405
vn 0.99520 0.09760 -0.00723
vn 0.99520 0.09760 -0.00723
vn 0.99520 0.09760 -0.00723
vn 0.99522 0.09758 -0.00478
vn 0.99522 0.09758 -0.00478
vn 0.99522 0.09758 -0.00478
vn -0.98442 -0.17576 0.00537
vn -0.98442 -0.17576 0.00537
vn -0.98442 -0.17576 0.00537
vn 0.98882 0.11670 -0.09281
vn 0.98882 0.11670 -0.09281
vn 0.98882 0.11670 -0.09281
vn -0.58075 -0.77248 -0.25691
vn -0.58075 -0.77248 -0.25691
vn -0.58075 -0.77248 -0.25691
vn -0.73903 0.67037 0.06661
vn -0.73903 0.67037 0.06661
vn -0.73903 0.67037 0.06661
vn -0.85393 -0.35394 -0.38148
vn -0.85393 -0.35394 -0.38148
vn -0.85393 -0.35394 -0.38148
vn 0.80132 0.23571 0.54985
vn 0.80132 0.23571 0.54985
vn 0.80132 0.23571 0.54985
vn 0.78561 -0.07715 0.61389
vn 0.78561 -0.07715 0.61389
vn 0.78561 -0.07715 0.61389
vn 0.63428 -0.15213 0.75799
vn 0.63428 -0.15213 0.75799
vn 0.63428 -0.15213 0.75799
vn 0.79503 -0.46482 0.38971
vn 0.79503 -0.46482 0.38971
vn 0.79503 -0.46482 0.38971
vn 0.98944 -0.07602 0.12343
vn 0.98944 -0.07602 0.12343
vn 0.98944 -0.07602 0.12343
vn -0.57335 -0.27851 -0.77052
vn -0.57335 -0.27851 -0.77052
vn -0.57335 -0.27851 -0.77052
vn -0.99938 -0.03529 0.00190
vn -0.99938 -0.03529 0.00190
vn -0.99938 -0.03529 0.00190
vn -0.94730 0.31659 0.04894
vn -0.94730 0.31659 0.04894
vn -0.94730 0.31659 0.04894
vn 0.98443 -0.16479 0.06118
vn 0.98443 -0.16479 0.06118
vn 0.98443 -0.16479 0.06118
vn 0.98513 -0.03615 0.16794
vn 0.98513 -0.03615 0.16794
vn 0.98513 -0.03615 0.16794
vn -0.99605 0.02459 0.08536
vn -0.99605 0.02459 0.08536
vn -0.99605 0.02459 0.08536
vn -0.91503 0.36603 0.16956
vn -0.91503 0.36603 0.16956
vn -0.91503 0.36603 0.16956
f 3//3 29//29 12//12
f 2//2 30//30 29//29
f 1//1 30//30 2//2
f 253//253 12//12 1//1
f 1//1 2//2 516//516
f 254//254 3//3 12//12
f 301//301 297//297 257//257
f 6//6 125//125 13//13
f 4//4 5//5 8//8
f 5//5 11//11 8//8
f 9//9 7//7 10//10
f 11//11 5//5 9//9
f 10//10 405//405 303//303
f 9//9 303//303 11//11
f 27//27 253//253 516//516
f 123//123 14//14 16//16
f 17//17 123//123 124//124
f 17//17 14//14 123//123
f 14//14 50//50 51//51
f 14//14 17//17 50//50
f 18//18 266//266 261//261
f 18//18 50//50 17//17
f 18//18 49//49 50//50
f 261//261 314//314 18//18
f 18//18 314//314 49//49
f 24//24 19//19 258//258
f 24//24 258//258 25//25
f 254//254 259//259 264//264
f 18//18 17//17 266//266
f 330//330 15//15 16//16
f 520//520 124//124 123//123
f 17//17 124//124 255//255
f 266//266 17//17 255//255
f 23//23 264//264 19//19
f 259//259 253//253 22//22
f 22//22 253//253 27//27
f 259//259 22//22 20//20
f 261//261 28//28 519//519
f 265//265 264//264 23//23
f 261//261 519//519 314//314
f 15//15 520//520 123//123
f 516//516 26//26 27//27
f 24//24 25//25 28//28
f 22//22 27//27 21//21
f 22//22 21//21 20//20
f 12//12 30//30 1//1
f 30//30 12//12 32//32
f 553//553 554//554 555//555
f 31//31 30//30 252//252
f 32//32 252//252 30//30
f 33//33 45//45 69//69
f 33//33 69//69 38//38
f 53//53 38//38 36//36
f 38//38 126//126 36//36
f 38//38 69//69 126//126
f 69//69 40//40 126//126
f 45//45 128//128 69//69
f 36//36 34//34 37//37
f 34//34 40//40 43//43
f 40//40 127//127 42//42
f 40//40 42//42 44//44
f 42//42 66//66 44//44
f 42//42 127//127 71//71
f 37//37 34//34 35//35
f 34//34 43//43 35//35
f 36//36 37//37 52//52
f 37//37 35//35 78//78
f 43//43 41//41 35//35
f 43//43 44//44 41//41
f 44//44 66//66 41//41
f 55//55 38//38 53//53
f 55//55 33//33 38//38
f 39//39 36//36 52//52
f 46//46 52//52 355//355
f 53//53 14//14 51//51
f 59//59 50//50 49//49
f 55//55 53//53 51//51
f 47//47 50//50 59//59
f 47//47 51//51 50//50
f 48//48 59//59 49//49
f 55//55 51//51 47//47
f 39//39 16//16 53//53
f 39//39 46//46 330//330
f 355//355 52//52 37//37
f 39//39 330//330 16//16
f 39//39 52//52 46//46
f 37//37 78//78 355//355
f 55//55 47//47 54//54
f 33//33 55//55 54//54
f 56//56 48//48 341//341
f 57//57 54//54 47//47
f 57//57 47//47 59//59
f 59//59 60//60 64//64
f 59//59 64//64 57//57
f 131//131 61//61 58//58
f 56//56 143//143 61//61
f 62//62 60//60 59//59
f 56//56 61//61 131//131
f 139//139 143//143 56//56
f 48//48 56//56 62//62
f 48//48 62//62 59//59
f 63//63 33//33 54//54
f 58//58 66//66 65//65
f 63//63 54//54 57//57
f 64//64 65//65 140//140
f 67//67 63//63 68//68
f 68//68 63//63 57//57
f 68//68 57//57 140//140
f 65//65 42//42 71//71
f 65//65 66//66 42//42
f 40//40 44//44 43//43
f 45//45 33//33 63//63
f 67//67 45//45 63//63
f 64//64 58//58 65//65
f 64//64 140//140 57//57
f 45//45 74//74 72//72
f 45//45 72//72 128//128
f 74//74 45//45 67//67
f 68//68 140//140 70//70
f 76//76 68//68 70//70
f 127//127 73//73 105//105
f 127//127 105//105 71//71
f 71//71 105//105 70//70
f 67//67 68//68 76//76
f 74//74 75//75 72//72
f 74//74 67//67 106//106
f 106//106 67//67 76//76
f 77//77 78//78 79//79
f 79//79 78//78 35//35
f 78//78 77//77 82//82
f 77//77 80//80 82//82
f 81//81 79//79 41//41
f 79//79 35//35 41//41
f 78//78 82//82 355//355
f 79//79 81//81 80//80
f 77//77 79//79 80//80
f 85//85 99//99 103//103
f 86//86 84//84 96//96
f 100//100 99//99 84//84
f 84//84 99//99 85//85
f 84//84 85//85 96//96
f 103//103 84//84 86//86
f 85//85 103//103 86//86
f 556//556 557//557 558//558
f 83//83 87//87 98//98
f 102//102 83//83 104//104
f 104//104 83//83 98//98
f 92//92 90//90 89//89
f 92//92 104//104 90//90
f 92//92 97//97 93//93
f 97//97 101//101 93//93
f 101//101 92//92 91//91
f 98//98 87//87 104//104
f 90//90 88//88 89//89
f 559//559 560//560 561//561
f 562//562 563//563 564//564
f 103//103 100//100 84//84
f 88//88 92//92 89//89
f 93//93 101//101 91//91
f 88//88 104//104 87//87
f 100//100 102//102 94//94
f 97//97 142//142 141//141
f 142//142 99//99 136//136
f 83//83 100//100 103//103
f 102//102 100//100 83//83
f 122//122 92//92 101//101
f 74//74 106//106 109//109
f 73//73 108//108 111//111
f 73//73 111//111 105//105
f 74//74 109//109 75//75
f 132//132 70//70 105//105
f 106//106 76//76 107//107
f 132//132 105//105 111//111
f 133//133 132//132 111//111
f 115//115 109//109 106//106
f 115//115 106//106 107//107
f 115//115 107//107 110//110
f 133//133 110//110 107//107
f 114//114 109//109 115//115
f 108//108 112//112 113//113
f 108//108 113//113 111//111
f 109//109 114//114 75//75
f 117//117 115//115 110//110
f 116//116 114//114 115//115
f 133//133 117//117 110//110
f 133//133 111//111 134//134
f 114//114 112//112 75//75
f 134//134 111//111 113//113
f 116//116 115//115 117//117
f 130//130 114//114 116//116
f 135//135 134//134 113//113
f 114//114 130//130 112//112
f 119//119 116//116 117//117
f 119//119 117//117 118//118
f 130//130 116//116 119//119
f 135//135 113//113 120//120
f 112//112 120//120 113//113
f 129//129 119//119 118//118
f 118//118 135//135 141//141
f 129//129 130//130 119//119
f 129//129 118//118 142//142
f 135//135 120//120 137//137
f 87//87 103//103 99//99
f 565//565 566//566 567//567
f 87//87 97//97 88//88
f 97//97 92//92 88//88
f 94//94 121//121 95//95
f 136//136 95//95 121//121
f 568//568 569//569 570//570
f 94//94 138//138 121//121
f 94//94 102//102 138//138
f 121//121 129//129 136//136
f 92//92 122//122 104//104
f 130//130 129//129 120//120
f 130//130 120//120 112//112
f 53//53 16//16 14//14
f 16//16 15//15 123//123
f 125//125 256//256 13//13
f 7//7 9//9 5//5
f 53//53 36//36 39//39
f 126//126 40//40 34//34
f 128//128 127//127 69//69
f 128//128 73//73 127//127
f 72//72 108//108 73//73
f 6//6 5//5 125//125
f 5//5 6//6 7//7
f 34//34 36//36 126//126
f 40//40 69//69 127//127
f 128//128 72//72 73//73
f 62//62 56//56 131//131
f 62//62 131//131 60//60
f 107//107 76//76 132//132
f 117//117 133//133 134//134
f 118//118 117//117 134//134
f 135//135 118//118 134//134
f 104//104 122//122 102//102
f 136//136 99//99 94//94
f 137//137 141//141 135//135
f 137//137 122//122 141//141
f 138//138 102//102 137//137
f 138//138 137//137 121//121
f 101//101 97//97 122//122
f 87//87 99//99 142//142
f 87//87 142//142 97//97
f 137//137 102//102 122//122
f 99//99 100//100 94//94
f 60//60 131//131 58//58
f 60//60 58//58 64//64
f 341//341 139//139 56//56
f 140//140 65//65 71//71
f 140//140 71//71 70//70
f 122//122 97//97 141//141
f 132//132 76//76 70//70
f 133//133 107//107 132//132
f 136//136 129//129 142//142
f 112//112 108//108 75//75
f 72//72 75//75 108//108
f 129//129 137//137 120//120
f 142//142 118//118 141//141
f 129//129 121//121 137//137
f 66//66 145//145 144//144
f 66//66 144//144 41//41
f 150//150 143//143 139//139
f 143//143 146//146 61//61
f 150//150 148//148 143//143
f 145//145 146//146 147//147
f 145//145 147//147 144//144
f 143//143 148//148 146//146
f 147//147 151//151 144//144
f 148//148 149//149 146//146
f 146//146 149//149 147//147
f 147//147 157//157 151//151
f 148//148 150//150 152//152
f 148//148 158//158 149//149
f 149//149 157//157 147//147
f 148//148 152//152 158//158
f 149//149 158//158 157//157
f 151//151 163//163 159//159
f 151//151 157//157 163//163
f 157//157 164//164 163//163
f 144//144 81//81 41//41
f 159//159 161//161 155//155
f 151//151 159//159 155//155
f 144//144 151//151 155//155
f 154//154 156//156 160//160
f 153//153 154//154 431//431
f 153//153 431//431 432//432
f 144//144 155//155 81//81
f 80//80 153//153 82//82
f 82//82 153//153 432//432
f 81//81 155//155 80//80
f 154//154 80//80 155//155
f 154//154 155//155 161//161
f 154//154 153//153 80//80
f 164//164 157//157 158//158
f 154//154 160//160 431//431
f 156//156 154//154 161//161
f 167//167 164//164 158//158
f 159//159 193//193 161//161
f 159//159 165//165 193//193
f 161//161 162//162 156//156
f 163//163 165//165 159//159
f 164//164 167//167 168//168
f 152//152 166//166 167//167
f 438//438 166//166 152//152
f 171//171 173//173 169//169
f 172//172 174//174 171//171
f 172//172 175//175 174//174
f 171//171 174//174 173//173
f 173//173 174//174 199//199
f 175//175 177//177 176//176
f 175//175 176//176 174//174
f 174//174 176//176 179//179
f 174//174 179//179 199//199
f 173//173 200//200 178//178
f 177//177 180//180 176//176
f 181//181 180//180 177//177
f 164//164 168//168 183//183
f 182//182 186//186 165//165
f 183//183 184//184 182//182
f 184//184 178//178 201//201
f 184//184 201//201 185//185
f 178//178 202//202 201//201
f 178//178 200//200 202//202
f 193//193 191//191 187//187
f 193//193 187//187 162//162
f 192//192 462//462 463//463
f 187//187 189//189 192//192
f 192//192 189//189 188//188
f 188//188 190//190 462//462
f 191//191 197//197 187//187
f 192//192 188//188 462//462
f 194//194 196//196 195//195
f 463//463 162//162 192//192
f 166//166 170//170 169//169
f 165//165 186//186 191//191
f 165//165 191//191 193//193
f 58//58 61//61 66//66
f 145//145 66//66 61//61
f 61//61 146//146 145//145
f 158//158 152//152 167//167
f 169//169 173//173 178//178
f 200//200 173//173 199//199
f 189//189 187//187 197//197
f 201//201 210//210 206//206
f 186//186 198//198 191//191
f 197//197 191//191 198//198
f 203//203 195//195 196//196
f 206//206 198//198 186//186
f 206//206 186//186 185//185
f 185//185 201//201 206//206
f 205//205 197//197 198//198
f 197//197 205//205 207//207
f 197//197 207//207 189//189
f 199//199 292//292 200//200
f 293//293 200//200 292//292
f 179//179 292//292 199//199
f 203//203 196//196 207//207
f 202//202 210//210 201//201
f 200//200 293//293 202//202
f 296//296 207//207 211//211
f 290//290 207//207 296//296
f 208//208 204//204 291//291
f 208//208 292//292 204//204
f 217//217 209//209 202//202
f 217//217 202//202 293//293
f 214//214 209//209 213//213
f 212//212 222//222 221//221
f 218//218 215//215 219//219
f 219//219 215//215 214//214
f 283//283 282//282 290//290
f 208//208 222//222 212//212
f 212//212 221//221 217//217
f 217//217 221//221 213//213
f 220//220 216//216 218//218
f 220//220 218//218 219//219
f 216//216 220//220 227//227
f 214//214 226//226 219//219
f 221//221 224//224 231//231
f 221//221 231//231 213//213
f 222//222 282//282 223//223
f 221//221 223//223 224//224
f 214//214 213//213 231//231
f 222//222 223//223 221//221
f 220//220 219//219 226//226
f 220//220 226//226 227//227
f 214//214 234//234 226//226
f 282//282 229//229 223//223
f 234//234 214//214 231//231
f 228//228 283//283 227//227
f 229//229 283//283 228//228
f 226//226 225//225 227//227
f 226//226 234//234 225//225
f 228//228 227//227 225//225
f 234//234 230//230 225//225
f 229//229 233//233 223//223
f 231//231 236//236 238//238
f 224//224 236//236 231//231
f 236//236 224//224 223//223
f 236//236 223//223 232//232
f 234//234 231//231 238//238
f 223//223 233//233 232//232
f 234//234 238//238 230//230
f 236//236 240//240 238//238
f 244//244 239//239 233//233
f 232//232 239//239 240//240
f 240//240 236//236 232//232
f 233//233 239//239 232//232
f 235//235 230//230 241//241
f 243//243 237//237 235//235
f 238//238 241//241 230//230
f 242//242 241//241 245//245
f 238//238 245//245 241//241
f 235//235 241//241 242//242
f 245//245 238//238 240//240
f 247//247 245//245 246//246
f 248//248 243//243 247//247
f 245//245 247//247 242//242
f 255//255 254//254 262//262
f 31//31 29//29 30//30
f 256//256 520//520 13//13
f 257//257 256//256 125//125
f 254//254 253//253 259//259
f 3//3 255//255 124//124
f 3//3 254//254 255//255
f 256//256 124//124 520//520
f 257//257 297//297 29//29
f 29//29 297//297 2//2
f 256//256 257//257 3//3
f 256//256 3//3 124//124
f 32//32 31//31 252//252
f 571//571 572//572 573//573
f 257//257 29//29 3//3
f 125//125 301//301 257//257
f 301//301 125//125 4//4
f 125//125 5//5 4//4
f 10//10 303//303 9//9
f 254//254 12//12 253//253
f 253//253 1//1 516//516
f 23//23 19//19 24//24
f 262//262 254//254 264//264
f 265//265 23//23 266//266
f 264//264 263//263 262//262
f 23//23 261//261 266//266
f 262//262 263//263 255//255
f 260//260 265//265 263//263
f 255//255 265//265 266//266
f 574//574 575//575 576//576
f 577//577 578//578 579//579
f 260//260 263//263 264//264
f 19//19 264//264 259//259
f 19//19 259//259 20//20
f 258//258 19//19 20//20
f 258//258 20//20 21//21
f 23//23 24//24 261//261
f 28//28 261//261 24//24
f 251//251 268//268 267//267
f 269//269 271//271 275//275
f 272//272 271//271 269//269
f 281//281 247//247 246//246
f 281//281 276//276 247//247
f 277//277 279//279 280//280
f 580//580 581//581 582//582
f 248//248 247//247 280//280
f 583//583 584//584 585//585
f 248//248 280//280 281//281
f 586//586 587//587 588//588
f 247//247 243//243 242//242
f 289//289 279//279 277//277
f 289//289 281//281 279//279
f 289//289 276//276 281//281
f 589//589 590//590 591//591
f 267//267 274//274 273//273
f 276//276 278//278 280//280
f 592//592 593//593 594//594
f 249//249 250//250 269//269
f 269//269 268//268 272//272
f 278//278 277//277 280//280
f 272//272 267//267 270//270
f 595//595 596//596 597//597
f 598//598 599//599 600//600
f 267//267 268//268 249//249
f 270//270 271//271 272//272
f 275//275 273//273 274//274
f 271//271 267//267 275//275
f 601//601 602//602 603//603
f 235//235 237//237 228//228
f 233//233 237//237 244//244
f 230//230 235//235 228//228
f 225//225 230//230 228//228
f 283//283 290//290 216//216
f 283//283 216//216 227//227
f 209//209 210//210 202//202
f 210//210 294//294 206//206
f 189//189 207//207 196//196
f 189//189 196//196 188//188
f 188//188 196//196 194//194
f 194//194 190//190 188//188
f 203//203 291//291 204//204
f 204//204 180//180 203//203
f 180//180 195//195 203//203
f 195//195 180//180 181//181
f 274//274 289//289 277//277
f 278//278 267//267 249//249
f 289//289 274//274 267//267
f 278//278 249//249 269//269
f 286//286 288//288 285//285
f 286//286 275//275 288//288
f 287//287 275//275 286//286
f 604//604 605//605 606//606
f 249//249 268//268 250//250
f 284//284 287//287 286//286
f 284//284 274//274 287//287
f 607//607 608//608 609//609
f 610//610 611//611 612//612
f 289//289 267//267 278//278
f 277//277 278//278 269//269
f 277//277 287//287 274//274
f 275//275 287//287 269//269
f 613//613 614//614 615//615
f 616//616 617//617 618//618
f 248//248 246//246 243//243
f 237//237 243//243 244//244
f 222//222 208//208 282//282
f 198//198 206//206 294//294
f 294//294 295//295 198//198
f 180//180 204//204 179//179
f 180//180 179//179 176//176
f 195//195 181//181 194//194
f 205//205 198//198 295//295
f 205//205 295//295 211//211
f 283//283 229//229 282//282
f 228//228 233//233 229//229
f 228//228 237//237 233//233
f 285//285 284//284 286//286
f 204//204 292//292 179//179
f 211//211 207//207 205//205
f 296//296 211//211 218//218
f 296//296 218//218 216//216
f 211//211 295//295 215//215
f 211//211 215//215 218//218
f 215//215 295//295 294//294
f 294//294 214//214 215//215
f 214//214 294//294 210//210
f 210//210 209//209 214//214
f 217//217 213//213 209//209
f 212//212 217//217 293//293
f 212//212 293//293 292//292
f 212//212 292//292 208//208
f 208//208 291//291 282//282
f 291//291 290//290 282//282
f 216//216 290//290 296//296
f 203//203 207//207 290//290
f 291//291 203//203 290//290
f 300//300 517//517 513//513
f 319//319 513//513 2//2
f 513//513 516//516 2//2
f 7//7 405//405 10//10
f 7//7 6//6 404//404
f 404//404 6//6 13//13
f 405//405 7//7 404//404
f 8//8 11//11 302//302
f 406//406 404//404 302//302
f 302//302 11//11 303//303
f 305//305 528//528 315//315
f 304//304 520//520 15//15
f 315//315 15//15 330//330
f 305//305 334//334 307//307
f 528//528 305//305 306//306
f 306//306 305//305 307//307
f 514//514 300//300 318//318
f 528//528 526//526 304//304
f 525//525 311//311 524//524
f 522//522 25//25 258//258
f 528//528 306//306 518//518
f 518//518 309//309 310//310
f 311//311 309//309 523//523
f 523//523 28//28 25//25
f 523//523 25//25 522//522
f 27//27 308//308 21//21
f 312//312 308//308 313//313
f 299//299 313//313 26//26
f 309//309 518//518 519//519
f 519//519 28//28 309//309
f 524//524 312//312 299//299
f 310//310 526//526 528//528
f 518//518 314//314 519//519
f 314//314 306//306 49//49
f 304//304 15//15 315//315
f 304//304 315//315 528//528
f 306//306 314//314 518//518
f 27//27 26//26 313//313
f 307//307 49//49 306//306
f 313//313 308//308 27//27
f 319//319 316//316 513//513
f 619//619 620//620 621//621
f 316//316 317//317 300//300
f 622//622 623//623 624//624
f 319//319 318//318 317//317
f 319//319 317//317 316//316
f 328//328 320//320 323//323
f 328//328 323//323 407//407
f 320//320 322//322 321//321
f 347//347 327//327 323//323
f 323//323 327//327 325//325
f 327//327 344//344 343//343
f 327//327 343//343 325//325
f 322//322 336//336 321//321
f 321//321 326//326 347//347
f 321//321 357//357 326//326
f 326//326 416//416 349//349
f 326//326 349//349 327//327
f 336//336 358//358 321//321
f 321//321 358//358 357//357
f 326//326 357//357 416//416
f 333//333 329//329 337//337
f 337//337 329//329 320//320
f 337//337 320//320 338//338
f 338//338 320//320 345//345
f 345//345 320//320 328//328
f 345//345 328//328 324//324
f 335//335 336//336 322//322
f 46//46 355//355 336//336
f 49//49 307//307 331//331
f 332//332 331//331 307//307
f 332//332 307//307 334//334
f 331//331 48//48 49//49
f 333//333 332//332 334//334
f 305//305 335//335 334//334
f 329//329 333//333 335//335
f 334//334 335//335 333//333
f 335//335 46//46 336//336
f 337//337 338//338 332//332
f 337//337 332//332 333//333
f 331//331 341//341 48//48
f 332//332 340//340 331//331
f 331//331 340//340 341//341
f 340//340 346//346 410//410
f 410//410 346//346 348//348
f 411//411 339//339 417//417
f 410//410 339//339 411//411
f 411//411 417//417 418//418
f 139//139 411//411 418//418
f 346//346 340//340 332//332
f 339//339 344//344 415//415
f 345//345 346//346 338//338
f 348//348 408//408 344//344
f 324//324 342//342 345//345
f 327//327 347//347 326//326
f 346//346 408//408 348//348
f 345//345 342//342 346//346
f 342//342 408//408 346//346
f 327//327 349//349 415//415
f 327//327 415//415 344//344
f 348//348 344//344 339//339
f 328//328 407//407 324//324
f 351//351 342//342 324//324
f 342//342 350//350 408//408
f 325//325 343//343 352//352
f 351//351 350//350 342//342
f 352//352 408//408 350//350
f 324//324 407//407 384//384
f 385//385 352//352 350//350
f 353//353 354//354 429//429
f 354//354 353//353 358//358
f 354//354 355//355 356//356
f 428//428 357//357 353//353
f 354//354 356//356 429//429
f 353//353 357//357 358//358
f 429//429 428//428 353//353
f 354//354 358//358 336//336
f 355//355 82//82 356//356
f 355//355 354//354 336//336
f 359//359 382//382 381//381
f 362//362 361//361 360//360
f 375//375 360//360 381//381
f 360//360 359//359 381//381
f 360//360 361//361 359//359
f 382//382 362//362 360//360
f 625//625 626//626 627//627
f 359//359 362//362 382//382
f 365//365 366//366 364//364
f 377//377 363//363 365//365
f 363//363 366//366 365//365
f 369//369 374//374 367//367
f 369//369 367//367 363//363
f 369//369 371//371 403//403
f 403//403 371//371 370//370
f 370//370 372//372 369//369
f 366//366 363//363 364//364
f 367//367 374//374 368//368
f 628//628 629//629 630//630
f 631//631 632//632 633//633
f 382//382 360//360 375//375
f 368//368 374//374 369//369
f 371//371 372//372 370//370
f 368//368 364//364 363//363
f 375//375 376//376 377//377
f 403//403 378//378 380//380
f 380//380 401//401 381//381
f 365//365 382//382 375//375
f 377//377 365//365 375//375
f 379//379 370//370 369//369
f 324//324 383//383 351//351
f 351//351 385//385 350//350
f 325//325 386//386 414//414
f 325//325 352//352 386//386
f 324//324 384//384 383//383
f 412//412 386//386 352//352
f 383//383 384//384 387//387
f 388//388 351//351 383//383
f 388//388 385//385 351//351
f 412//412 385//385 388//388
f 391//391 388//388 383//383
f 414//414 386//386 389//389
f 383//383 387//387 391//391
f 412//412 388//388 390//390
f 412//412 389//389 386//386
f 391//391 387//387 413//413
f 391//391 390//390 388//388
f 414//414 389//389 392//392
f 414//414 392//392 413//413
f 394//394 389//389 412//412
f 394//394 392//392 389//389
f 391//391 413//413 393//393
f 395//395 398//398 390//390
f 395//395 390//390 391//391
f 393//393 395//395 391//391
f 394//394 399//399 392//392
f 399//399 397//397 392//392
f 413//413 392//392 397//397
f 396//396 398//398 395//395
f 398//398 378//378 399//399
f 396//396 395//395 393//393
f 396//396 380//380 398//398
f 399//399 409//409 397//397
f 364//364 381//381 382//382
f 634//634 635//635 636//636
f 364//364 368//368 403//403
f 403//403 368//368 369//369
f 376//376 373//373 400//400
f 401//401 400//400 373//373
f 637//637 638//638 639//639
f 376//376 400//400 402//402
f 376//376 402//402 377//377
f 400//400 401//401 396//396
f 369//369 363//363 379//379
f 393//393 413//413 397//397
f 393//393 397//397 396//396
f 335//335 305//305 330//330
f 330//330 305//305 315//315
f 404//404 406//406 405//405
f 320//320 321//321 347//347
f 320//320 347//347 323//323
f 407//407 323//323 325//325
f 407//407 325//325 384//384
f 384//384 325//325 414//414
f 13//13 521//521 404//404
f 404//404 521//521 302//302
f 405//405 406//406 303//303
f 521//521 4//4 302//302
f 517//517 26//26 513//513
f 322//322 329//329 335//335
f 320//320 329//329 322//322
f 340//340 410//410 411//411
f 341//341 340//340 411//411
f 390//390 394//394 412//412
f 398//398 394//394 390//390
f 399//399 394//394 398//398
f 363//363 377//377 379//379
f 401//401 376//376 381//381
f 409//409 399//399 378//378
f 409//409 378//378 379//379
f 402//402 409//409 377//377
f 402//402 400//400 409//409
f 370//370 379//379 403//403
f 364//364 380//380 381//381
f 364//364 403//403 380//380
f 409//409 379//379 377//377
f 381//381 376//376 375//375
f 410//410 348//348 339//339
f 341//341 411//411 139//139
f 408//408 343//343 344//344
f 408//408 352//352 343//343
f 379//379 378//378 403//403
f 412//412 352//352 385//385
f 401//401 380//380 396//396
f 387//387 414//414 413//413
f 384//384 414//414 387//387
f 396//396 397//397 409//409
f 380//380 378//378 398//398
f 396//396 409//409 400//400
f 150//150 139//139 418//418
f 417//417 339//339 419//419
f 349//349 416//416 425//425
f 349//349 425//425 415//415
f 419//419 415//415 421//421
f 418//418 417//417 420//420
f 415//415 425//425 421//421
f 420//420 419//419 421//421
f 418//418 420//420 423//423
f 150//150 418//418 423//423
f 421//421 425//425 424//424
f 420//420 421//421 424//424
f 420//420 424//424 422//422
f 423//423 420//420 422//422
f 422//422 424//424 427//427
f 423//423 426//426 438//438
f 152//152 423//423 438//438
f 423//423 422//422 426//426
f 438//438 426//426 439//439
f 338//338 346//346 332//332
f 428//428 416//416 357//357
f 433//433 425//425 428//428
f 428//428 429//429 430//430
f 416//416 428//428 425//425
f 430//430 433//433 428//428
f 430//430 434//434 433//433
f 356//356 432//432 429//429
f 431//431 430//430 429//429
f 431//431 429//429 432//432
f 435//435 430//430 431//431
f 156//156 463//463 160//160
f 434//434 430//430 435//435
f 434//434 435//435 456//456
f 424//424 433//433 451//451
f 427//427 424//424 451//451
f 425//425 433//433 424//424
f 431//431 160//160 435//435
f 437//437 422//422 427//427
f 435//435 160//160 463//463
f 433//433 434//434 436//436
f 451//451 433//433 436//436
f 463//463 156//156 162//162
f 162//162 161//161 193//193
f 182//182 165//165 163//163
f 164//164 183//183 182//182
f 164//164 182//182 163//163
f 427//427 450//450 437//437
f 439//439 426//426 437//437
f 167//167 166//166 169//169
f 167//167 169//169 168//168
f 438//438 170//170 166//166
f 438//438 439//439 170//170
f 170//170 172//172 171//171
f 170//170 171//171 169//169
f 169//169 178//178 168//168
f 168//168 178//178 184//184
f 168//168 184//184 183//183
f 441//441 445//445 444//444
f 185//185 182//182 184//184
f 172//172 441//441 444//444
f 172//172 444//444 175//175
f 442//442 443//443 445//445
f 444//444 445//445 446//446
f 177//177 175//175 447//447
f 444//444 446//446 447//447
f 175//175 444//444 447//447
f 177//177 447//447 181//181
f 446//446 448//448 449//449
f 181//181 447//447 469//469
f 450//450 451//451 452//452
f 182//182 185//185 186//186
f 192//192 162//162 187//187
f 452//452 451//451 453//453
f 436//436 454//454 470//470
f 451//451 436//436 470//470
f 451//451 470//470 453//453
f 452//452 455//455 443//443
f 452//452 453//453 455//455
f 470//470 454//454 473//473
f 473//473 460//460 472//472
f 450//450 452//452 442//442
f 456//456 457//457 458//458
f 442//442 452//452 443//443
f 443//443 455//455 466//466
f 456//456 463//463 462//462
f 456//456 462//462 457//457
f 456//456 458//458 434//434
f 434//434 458//458 454//454
f 454//454 458//458 460//460
f 458//458 457//457 459//459
f 460//460 458//458 461//461
f 440//440 442//442 445//445
f 457//457 462//462 190//190
f 457//457 190//190 459//459
f 439//439 437//437 440//440
f 437//437 450//450 440//440
f 451//451 450//450 427//427
f 464//464 194//194 465//465
f 170//170 439//439 441//441
f 170//170 441//441 172//172
f 439//439 440//440 441//441
f 436//436 434//434 454//454
f 463//463 456//456 435//435
f 441//441 440//440 445//445
f 454//454 460//460 473//473
f 339//339 415//415 419//419
f 417//417 419//419 420//420
f 422//422 437//437 426//426
f 440//440 450//450 442//442
f 446//446 445//445 443//443
f 466//466 446//446 443//443
f 459//459 461//461 458//458
f 476//476 455//455 453//453
f 446//446 466//466 448//448
f 467//467 464//464 465//465
f 461//461 472//472 460//460
f 470//470 476//476 453//453
f 469//469 447//447 446//446
f 469//469 446//446 449//449
f 461//461 459//459 471//471
f 476//476 470//470 473//473
f 448//448 466//466 475//475
f 551//551 475//475 466//466
f 467//467 471//471 464//464
f 455//455 476//476 551//551
f 466//466 455//455 551//551
f 479//479 474//474 471//471
f 549//549 479//479 471//471
f 550//550 544//544 468//468
f 550//550 468//468 449//449
f 550//550 449//449 475//475
f 486//486 483//483 552//552
f 485//485 552//552 478//478
f 552//552 485//485 486//486
f 481//481 477//477 482//482
f 477//477 483//483 486//486
f 487//487 478//478 479//479
f 487//487 485//485 478//478
f 479//479 484//484 487//487
f 482//482 477//477 492//492
f 490//490 494//494 484//484
f 490//490 484//484 488//488
f 491//491 485//485 487//487
f 487//487 484//484 494//494
f 487//487 494//494 491//491
f 486//486 485//485 497//497
f 477//477 486//486 495//495
f 489//489 492//492 493//493
f 486//486 497//497 495//495
f 499//499 494//494 490//490
f 500//500 499//499 490//490
f 492//492 477//477 498//498
f 498//498 477//477 495//495
f 491//491 494//494 496//496
f 485//485 491//491 497//497
f 492//492 498//498 504//504
f 499//499 496//496 494//494
f 493//493 492//492 504//504
f 497//497 491//491 496//496
f 500//500 493//493 501//501
f 498//498 495//495 505//505
f 497//497 505//505 495//495
f 493//493 504//504 501//501
f 508//508 505//505 497//497
f 502//502 499//499 500//500
f 497//497 496//496 508//508
f 506//506 508//508 496//496
f 512//512 502//502 500//500
f 498//498 505//505 507//507
f 501//501 504//504 503//503
f 507//507 504//504 498//498
f 502//502 506//506 496//496
f 503//503 504//504 507//507
f 512//512 511//511 502//502
f 510//510 508//508 506//506
f 505//505 510//510 507//507
f 506//506 511//511 510//510
f 503//503 507//507 509//509
f 511//511 506//506 502//502
f 510//510 505//505 508//508
f 245//245 240//240 239//239
f 245//245 239//239 246//246
f 244//244 246//246 239//239
f 244//244 243//243 246//246
f 243//243 235//235 242//242
f 512//512 546//546 511//511
f 640//640 641//641 642//642
f 509//509 545//545 540//540
f 509//509 540//540 543//543
f 541//541 538//538 547//547
f 513//513 26//26 516//516
f 298//298 297//297 301//301
f 526//526 514//514 304//304
f 2//2 297//297 319//319
f 299//299 26//26 517//517
f 298//298 318//318 319//319
f 515//515 299//299 517//517
f 521//521 520//520 304//304
f 298//298 319//319 297//297
f 520//520 521//521 13//13
f 514//514 521//521 304//304
f 514//514 526//526 515//515
f 517//517 514//514 515//515
f 521//521 318//318 298//298
f 521//521 514//514 318//318
f 301//301 521//521 298//298
f 643//643 644//644 645//645
f 4//4 8//8 302//302
f 302//302 303//303 406//406
f 514//514 517//517 300//300
f 311//311 523//523 522//522
f 528//528 518//518 310//310
f 515//515 524//524 299//299
f 526//526 527//527 515//515
f 312//312 313//313 299//299
f 525//525 515//515 527//527
f 527//527 526//526 310//310
f 524//524 515//515 525//525
f 525//525 527//527 310//310
f 525//525 310//310 311//311
f 522//522 312//312 524//524
f 522//522 524//524 311//311
f 522//522 308//308 312//312
f 258//258 21//21 308//308
f 258//258 308//308 522//522
f 311//311 310//310 309//309
f 28//28 523//523 309//309
f 543//543 547//547 542//542
f 547//547 543//543 541//541
f 509//509 507//507 545//545
f 537//537 540//540 545//545
f 536//536 537//537 542//542
f 537//537 545//545 546//546
f 536//536 535//535 539//539
f 646//646 647//647 648//648
f 649//649 650//650 651//651
f 545//545 507//507 510//510
f 543//543 542//542 546//546
f 537//537 541//541 540//540
f 536//536 539//539 538//538
f 536//536 538//538 537//537
f 538//538 541//541 537//537
f 531//531 533//533 548//548
f 543//543 540//540 541//541
f 547//547 536//536 542//542
f 536//536 547//547 529//529
f 652//652 653//653 654//654
f 529//529 530//530 534//534
f 655//655 656//656 657//657
f 529//529 547//547 539//539
f 658//658 659//659 660//660
f 661//661 662//662 663//663
f 532//532 530//530 533//533
f 533//533 531//531 532//532
f 500//500 503//503 512//512
f 496//496 499//499 502//502
f 484//484 479//479 488//488
f 551//551 476//476 483//483
f 483//483 476//476 473//473
f 483//483 473//473 552//552
f 459//459 464//464 471//471
f 190//190 464//464 459//459
f 464//464 190//190 194//194
f 548//548 539//539 535//535
f 535//535 531//531 548//548
f 529//529 534//534 531//531
f 539//539 530//530 529//529
f 539//539 548//548 533//533
f 530//530 539//539 533//533
f 543//543 512//512 509//509
f 546//546 512//512 543//543
f 545//545 510//510 511//511
f 509//509 512//512 503//503
f 501//501 503//503 500//500
f 500//500 490//490 493//493
f 493//493 490//490 489//489
f 492//492 489//489 482//482
f 482//482 489//489 480//480
f 482//482 480//480 481//481
f 472//472 478//478 552//552
f 449//449 468//468 469//469
f 465//465 469//469 468//468
f 181//181 469//469 465//465
f 465//465 194//194 181//181
f 468//468 467//467 465//465
f 461//461 474//474 472//472
f 474//474 478//478 472//472
f 480//480 489//489 488//488
f 488//488 489//489 490//490
f 475//475 449//449 448//448
f 474//474 461//461 471//471
f 479//479 478//478 474//474
f 477//477 551//551 483//483
f 551//551 477//477 475//475
f 481//481 475//475 477//477
f 480//480 550//550 481//481
f 550//550 480//480 544//544
f 544//544 480//480 488//488
f 544//544 488//488 549//549
f 479//479 549//549 488//488
f 467//467 549//549 471//471
f 468//468 544//544 549//549
f 468//468 549//549 467//467
f 550//550 475//475 481//481
f 472//472 552//552 473//473
f 335//335 330//330 46//46
f 356//356 82//82 432//432
f 150//150 423//423 152//152
