# GloomhavenVR haunt figure — CC0, MakeHuman hm08 base mesh.
# See Assets/Editor/haunt_figures_pipeline.py for provenance.
v -0.00120 0.01644 0.15132
v -0.00310 -0.02072 0.16699
v -0.06661 0.06970 0.10039
v -0.02346 -0.05744 0.14139
v -0.02327 -0.06465 0.14423
v -0.00065 -0.06867 0.15574
v -0.00987 -0.06035 0.15059
v -0.00845 -0.05019 0.15000
v -0.02972 -0.04828 0.13036
v -0.02405 -0.07257 0.12609
v -0.03501 -0.03414 0.10628
v -0.01575 -0.02432 0.08026
v -0.02933 -0.07385 0.09634
v -0.02566 -0.08582 0.07571
v -0.02124 -0.05864 0.05454
v -0.00000 -0.03452 0.06937
v -0.05607 0.04309 0.12442
v -0.00889 -0.08686 0.14877
v -0.04979 -0.06025 0.05479
v -0.04093 -0.08102 0.05527
v -0.04375 -0.11602 0.03620
v -0.01606 -0.10112 0.13317
v -0.01584 -0.10788 0.07070
v -0.04647 -0.06995 0.02278
v -0.06045 -0.13300 0.00437
v -0.04818 -0.10843 0.00338
v -0.03921 -0.07825 -0.00612
v -0.04272 -0.10733 -0.00992
v -0.04840 0.10940 0.01449
v -0.06175 -0.02813 0.04474
v -0.05011 0.00935 0.13119
v -0.06671 -0.03953 0.07279
v -0.04000 -0.08634 0.10860
v -0.04384 -0.14582 0.04714
v -0.05746 0.00819 -0.00356
v -0.04470 0.03746 -0.02813
v -0.02722 0.05889 -0.03625
v -0.05322 0.07412 -0.01504
v -0.04802 0.11583 0.06591
v -0.06825 0.08880 0.07026
v -0.07768 0.05156 0.05051
v 0.00102 -0.10239 0.08983
v -0.05915 -0.02258 0.02899
v -0.04364 0.10631 0.10349
v -0.00082 0.10283 0.12535
v -0.01693 0.08715 -0.02636
v -0.01614 0.12742 0.03069
v -0.01160 0.12086 0.09803
v 0.00052 -0.10075 -0.01223
v -0.01738 -0.12154 -0.02319
v -0.01257 -0.07111 -0.00986
v -0.01484 0.12959 0.06932
v -0.04379 0.02091 0.12566
v -0.03242 0.00093 0.13911
v -0.01808 0.00635 0.13692
v -0.04431 -0.00226 0.12551
v -0.02685 0.01780 0.13992
v -0.01637 -0.00038 0.12240
v -0.04208 0.00428 0.11085
v -0.02452 -0.00130 0.11091
v -0.11996 -0.14862 -0.01029
v -0.12294 -0.14894 0.00097
v -0.12303 -0.14890 0.01311
v -0.06904 -0.14512 -0.03555
v 0.00407 -0.14968 -0.03429
v -0.00066 -0.13742 -0.02768
v -0.02864 -0.14713 -0.03921
v -0.04889 -0.12449 -0.01802
v -0.09127 -0.14495 -0.00910
v -0.09474 -0.14673 0.00346
v -0.15199 -0.14624 -0.00418
v -0.15561 -0.14464 0.01086
v -0.03613 -0.14994 0.05912
v -0.03246 -0.11228 0.05752
v -0.00405 -0.13856 0.07084
v -0.02897 -0.09213 0.08550
v -0.03337 -0.04695 0.06411
v -0.04122 0.01673 0.13801
v -0.02502 0.02168 0.11333
v -0.01550 -0.03155 0.15021
v -0.03898 -0.05027 0.13652
v -0.03266 -0.07212 0.13482
v -0.06162 -0.01428 0.11925
v -0.06591 0.00075 0.10790
v -0.07080 0.00220 0.08713
v -0.06260 -0.03487 0.10512
v -0.02362 0.04715 0.14862
v -0.05532 -0.06591 0.09118
v -0.02921 -0.04550 -0.01322
v -0.04648 -0.04609 0.00534
v 0.00463 -0.09426 0.14836
v -0.04273 -0.06867 0.12286
v 0.01015 0.03998 0.15279
v -0.04041 -0.01883 0.14128
v -0.00755 -0.05324 0.15748
v -0.00935 -0.01917 0.10341
v -0.06794 0.08330 0.02481
v -0.01457 0.11218 -0.00477
v -0.07338 0.03394 0.01892
v -0.07239 0.01006 0.07091
v -0.07057 -0.03188 0.06300
v -0.08839 0.01272 0.04126
v -0.02222 -0.00914 -0.02971
v -0.02753 0.08391 0.13289
v -0.04236 -0.01647 -0.01365
v -0.07702 -0.02740 0.04730
v -0.07210 -0.00998 0.05564
v -0.08502 -0.00734 0.03537
v -0.07939 -0.00903 0.04681
v -0.07947 0.01067 0.05219
v -0.07328 -0.00845 0.04036
v -0.07390 0.01195 0.04038
v 0.05006 0.00112 0.13052
v 0.02265 0.01395 0.14190
v -0.00092 0.00378 0.15243
v 0.05320 0.01442 0.12931
v 0.01238 0.06436 0.14895
v 0.05315 0.04619 0.12708
v 0.05303 0.07151 0.11938
v 0.06339 0.02937 0.10980
v 0.00571 -0.03479 0.16069
v 0.00879 -0.05243 0.15540
v 0.01152 -0.05864 0.14856
v 0.02407 -0.05834 0.14319
v 0.00418 -0.06908 0.15036
v 0.00019 -0.03703 0.14893
v 0.01904 -0.03842 0.13706
v 0.02856 -0.05510 0.13272
v 0.00128 -0.02503 0.12990
v 0.02554 -0.02576 0.10658
v 0.00035 -0.08179 0.13241
v 0.02463 -0.07209 0.12493
v 0.01552 -0.07807 0.10190
v 0.03675 -0.03963 0.09548
v 0.03308 -0.06427 0.09110
v 0.00739 -0.02000 0.09154
v -0.00077 -0.09849 0.06592
v 0.02083 -0.08809 0.06550
v 0.02366 -0.03271 0.07296
v 0.02992 -0.05425 0.05895
v 0.00328 -0.05332 0.05632
v 0.02058 -0.09884 0.13272
v 0.05346 -0.04958 0.05307
v 0.04379 -0.08682 0.04214
v 0.05455 -0.13908 0.02207
v 0.02869 -0.09155 0.07550
v 0.02978 -0.10958 0.05929
v 0.03710 -0.14981 0.05849
v 0.00528 -0.11663 0.07196
v 0.04422 -0.11627 0.03468
v 0.04956 -0.04359 0.01240
v 0.05397 -0.12313 -0.00798
v 0.04499 -0.08285 0.00949
v 0.03878 -0.11862 -0.01804
v 0.04524 -0.02675 -0.00533
v 0.07390 0.01195 0.04038
v 0.06351 0.01342 0.00205
v 0.07338 0.03394 0.01892
v 0.05587 0.06710 -0.01246
v 0.03200 0.08485 -0.02405
v 0.04818 0.11490 0.07573
v 0.06794 0.08330 0.02481
v 0.06774 0.08906 0.07695
v 0.05532 -0.06591 0.09118
v 0.01054 0.00277 -0.03794
v 0.02525 0.12575 0.07944
v 0.03466 -0.07051 -0.00871
v -0.00272 0.03624 -0.04124
v 0.03955 0.12119 0.03029
v 0.01835 0.00748 0.13492
v 0.03293 0.00147 0.13823
v 0.03767 0.01762 0.14003
v 0.03252 0.02635 0.12961
v 0.04020 -0.00547 0.12057
v 0.02151 -0.00564 0.12546
v 0.02216 0.00345 0.10995
v 0.02037 0.02092 0.11794
v 0.03831 0.01508 0.10982
v 0.12952 -0.14877 -0.00429
v 0.12303 -0.14890 0.01311
v 0.06165 -0.14586 -0.03766
v 0.02864 -0.14713 -0.03921
v 0.01227 -0.12680 -0.02499
v 0.09018 -0.14460 -0.00960
v 0.09474 -0.14673 0.00346
v 0.15199 -0.14624 -0.00418
v 0.15561 -0.14464 0.01086
v 0.01800 -0.03624 0.14827
v 0.03770 -0.02133 0.14220
v 0.01504 -0.00543 0.14398
v 0.04696 0.00860 0.13136
v 0.01441 0.00608 0.14000
v 0.06066 -0.02778 0.11838
v 0.01934 -0.07169 0.14465
v 0.03967 -0.08568 0.11705
v 0.01333 -0.02010 0.15478
v 0.01833 -0.03612 -0.01746
v 0.04402 -0.05272 0.13106
v 0.06745 -0.00611 0.10506
v 0.04273 0.10427 -0.00235
v 0.03092 0.05881 -0.03458
v 0.04069 0.01763 -0.02876
v 0.07768 0.05156 0.05051
v 0.07656 0.01250 0.05677
v 0.07461 -0.03129 0.05337
v 0.03580 0.10093 0.11618
v 0.07255 0.06366 0.08603
v 0.07093 0.01081 0.08101
v 0.07389 -0.00417 0.05965
v 0.07448 -0.00981 0.05095
v 0.08738 0.00982 0.04196
v 0.08340 -0.01009 0.03753
v 0.06758 -0.01215 0.04116
v 0.06865 -0.03394 0.06872
v -0.04098 -0.14773 -0.02582
v -0.02346 -0.05744 0.14139
v -0.00845 -0.05019 0.15000
v -0.00755 -0.05324 0.15748
v -0.04379 0.02091 0.12566
v -0.04122 0.01673 0.13801
v -0.05011 0.00935 0.13119
v -0.04431 -0.00226 0.12551
v -0.05011 0.00935 0.13119
v -0.03242 0.00093 0.13911
v -0.15561 -0.14464 0.01086
v -0.12303 -0.14890 0.01311
v -0.12294 -0.14894 0.00097
v -0.15561 -0.14464 0.01086
v -0.12294 -0.14894 0.00097
v -0.15199 -0.14624 -0.00418
v -0.07947 0.01067 0.05219
v -0.07390 0.01195 0.04038
v -0.08839 0.01272 0.04126
v 0.02856 -0.05510 0.13272
v 0.01152 -0.05864 0.14856
v 0.02407 -0.05834 0.14319
v 0.15561 -0.14464 0.01086
v 0.15199 -0.14624 -0.00418
v 0.12952 -0.14877 -0.00429
v 0.15561 -0.14464 0.01086
v 0.12952 -0.14877 -0.00429
v 0.12303 -0.14890 0.01311
v 0.02407 -0.05834 0.14319
v 0.00879 -0.05243 0.15540
v 0.00019 -0.03703 0.14893
v 0.06758 -0.01215 0.04116
v 0.08738 0.00982 0.04196
v 0.08340 -0.01009 0.03753
v 0.07656 0.01250 0.05677
v 0.08738 0.00982 0.04196
v 0.07390 0.01195 0.04038
v 0.12952 -0.14877 -0.00429
v 0.09474 -0.14673 0.00346
v 0.03710 -0.14981 0.05849
v 0.06165 -0.14586 -0.03766
v 0.09018 -0.14460 -0.00960
v 0.12952 -0.14877 -0.00429
v -0.03613 -0.14994 0.05912
v -0.04384 -0.14582 0.04714
v -0.12294 -0.14894 0.00097
v -0.02864 -0.14713 -0.03921
v 0.00407 -0.14968 -0.03429
v 0.02864 -0.14713 -0.03921
v -0.12294 -0.14894 0.00097
v -0.11996 -0.14862 -0.01029
v -0.06904 -0.14512 -0.03555
vn -0.10650 -0.18605 0.97675
vn -0.40269 0.19335 0.89468
vn -0.86858 0.19339 0.45625
vn 0.17314 0.08774 0.98098
vn -0.51136 -0.08754 0.85490
vn 0.00662 -0.10269 0.99469
vn 0.36338 0.81552 -0.45043
vn 0.48348 -0.51227 -0.70981
vn 0.82529 -0.29428 -0.48197
vn 0.80064 0.51884 -0.29963
vn 0.88531 -0.42851 -0.18058
vn 0.33022 -0.81809 0.47083
vn 0.69875 0.70462 -0.12357
vn 0.79474 0.50449 0.33746
vn 0.46996 -0.00292 0.88268
vn -0.00712 -0.81773 0.57556
vn -0.85638 0.09358 0.50779
vn -0.31656 -0.32657 0.89058
vn -0.86170 -0.49349 -0.11808
vn -0.91439 -0.28507 0.28744
vn -0.95396 0.08196 0.28851
vn -0.35662 -0.90842 0.21816
vn -0.55263 -0.49371 0.67146
vn -0.98905 -0.13276 -0.06442
vn -0.68853 0.68038 0.25102
vn -0.97048 0.22961 -0.07388
vn -0.64429 0.10365 -0.75773
vn -0.53996 0.31390 -0.78096
vn -0.56756 0.76814 -0.29638
vn -0.84887 -0.43769 -0.29638
vn -0.66793 0.07748 0.74018
vn -0.94599 -0.31976 0.05336
vn -0.74758 -0.63671 0.18901
vn -0.60592 0.67073 0.42777
vn -0.86980 -0.16490 -0.46504
vn -0.57459 -0.10315 -0.81191
vn -0.20880 0.23930 -0.94823
vn -0.73769 0.29094 -0.60924
vn -0.65304 0.75662 0.03263
vn -0.89689 0.42558 0.12027
vn -0.99521 0.08849 0.04144
vn 0.02905 -0.98814 0.15081
vn -0.91251 -0.25663 -0.31855
vn -0.54916 0.68552 0.47800
vn -0.03356 0.68556 0.72725
vn -0.11257 0.49572 -0.86115
vn -0.08898 0.96954 -0.22820
vn -0.02317 0.88227 0.47017
vn 0.00611 0.26496 -0.96424
vn -0.06498 0.41875 -0.90577
vn -0.01090 -0.01236 -0.99986
vn -0.16627 0.98483 0.04971
vn 0.60381 -0.76168 0.23506
vn -0.09430 0.96395 0.24880
vn -0.69432 0.11675 0.71013
vn 0.60051 0.79304 0.10236
vn -0.41585 -0.66491 0.62045
vn -0.89535 0.43539 0.09374
vn 0.57325 -0.04573 0.81811
vn -0.21730 0.81075 0.54357
vn -0.14132 0.98858 -0.05241
vn -0.00904 -0.99955 -0.02852
vn -0.10627 -0.99109 0.08028
vn -0.31324 0.43701 -0.84315
vn -0.07211 0.66497 -0.74338
vn 0.07588 0.43571 -0.89688
vn 0.02627 -0.49748 -0.86708
vn -0.48654 0.76421 -0.42339
vn -0.34606 0.93245 -0.10379
vn -0.24243 0.94754 0.20831
vn -0.12995 -0.99152 0.00225
vn 0.09292 0.99567 -0.00254
vn -0.21226 -0.84660 0.48808
vn -0.68114 -0.02343 0.73178
vn -0.14750 -0.25801 0.95482
vn -0.62174 -0.78317 -0.00975
vn 0.93481 -0.15217 0.32088
vn -0.48533 -0.15578 0.86034
vn -0.48513 -0.72310 0.49171
vn -0.51466 0.00754 0.85736
vn -0.68560 -0.20224 0.69932
vn -0.70148 -0.38061 0.60255
vn -0.81943 -0.10886 0.56275
vn -0.92859 0.01091 0.37094
vn -0.98337 -0.02057 0.18044
vn -0.92452 -0.23239 0.30208
vn -0.43239 0.17357 0.88482
vn -0.85964 -0.51057 0.01828
vn -0.28957 -0.25501 -0.92256
vn -0.88274 -0.19554 -0.42724
vn 0.20772 -0.56189 0.80071
vn -0.84696 -0.33045 0.41649
vn 0.14859 -0.01953 0.98871
vn -0.47304 0.03972 0.88014
vn -0.40882 -0.22125 0.88539
vn -0.01916 -0.99979 -0.00789
vn -0.90958 0.36286 -0.20248
vn -0.07665 0.80203 -0.59235
vn -0.93714 -0.04863 -0.34556
vn -0.96904 -0.02020 0.24609
vn -0.95298 -0.30131 -0.03224
vn -0.33673 0.41412 -0.84565
vn -0.24808 -0.28740 -0.92512
vn -0.43583 0.42604 0.79281
vn -0.66778 -0.25078 -0.70084
vn -0.79148 -0.55523 -0.25550
vn -0.92973 -0.10591 0.35267
vn -0.93902 -0.31007 -0.14865
vn -0.84401 -0.12142 0.52240
vn -0.96027 -0.02157 0.27822
vn -0.25886 -0.20355 -0.94422
vn -0.91327 -0.07077 -0.40117
vn 0.70759 0.03383 0.70582
vn 0.29991 -0.37284 0.87809
vn 0.14382 0.40985 0.90074
vn 0.78771 -0.00123 0.61605
vn 0.25694 0.34889 0.90125
vn 0.70856 0.12996 0.69358
vn 0.70298 0.34355 0.62273
vn 0.92873 0.02686 0.36977
vn 0.14747 -0.16678 0.97490
vn 0.48798 -0.73416 0.47211
vn -0.53610 0.83444 -0.12768
vn 0.16305 -0.58837 0.79198
vn -0.30655 0.63982 -0.70474
vn 0.20536 -0.70556 -0.67825
vn -0.61327 -0.60000 -0.51371
vn -0.94860 0.00132 -0.31647
vn 0.06117 -0.95675 -0.28442
vn -0.62134 -0.76150 -0.18453
vn 0.07574 0.97688 -0.19994
vn -0.67305 0.67806 -0.29536
vn -0.22022 0.94859 -0.22732
vn -0.97623 -0.21662 0.00707
vn -0.92179 0.38603 -0.03586
vn 0.09139 -0.98149 0.16828
vn 0.08859 0.94454 0.31623
vn -0.64544 0.61692 0.45034
vn -0.40960 -0.73758 0.53685
vn -0.78716 -0.02999 0.61601
vn -0.08364 -0.08725 0.99267
vn 0.40416 -0.89278 0.19901
vn 0.87870 -0.45422 -0.14689
vn 0.96816 -0.19205 0.16055
vn 0.63828 0.67285 0.37399
vn 0.71506 -0.69044 0.10947
vn 0.75743 -0.10594 0.64427
vn 0.18110 -0.95481 0.23567
vn 0.31227 -0.31155 0.89745
vn 0.94439 0.11805 0.30690
vn 0.93842 -0.24027 -0.24828
vn 0.78777 0.61018 -0.08425
vn 0.98096 0.08654 -0.17385
vn 0.46206 0.43732 -0.77152
vn 0.68918 -0.24183 -0.68305
vn 0.95387 -0.09973 -0.28318
vn 0.87335 -0.18660 -0.44994
vn 0.95214 0.02690 -0.30447
vn 0.80223 0.15172 -0.57741
vn 0.24196 0.54723 -0.80124
vn 0.70416 0.70062 0.11529
vn 0.88933 0.41273 -0.19682
vn 0.87476 0.43969 0.20363
vn 0.87977 -0.47299 0.04773
vn 0.13138 -0.27479 -0.95249
vn 0.21728 0.94708 0.23626
vn 0.36441 0.04602 -0.93010
vn -0.04073 -0.04060 -0.99834
vn 0.35216 0.91440 -0.19962
vn 0.95370 -0.20160 -0.22321
vn 0.22505 0.78084 0.58278
vn 0.50432 -0.08578 0.85925
vn -0.14064 -0.97819 -0.15283
vn -0.52194 0.79006 0.32154
vn 0.45207 0.88512 -0.11042
vn 0.57728 0.31668 0.75264
vn 0.69273 -0.62392 0.36172
vn -0.56320 -0.35894 0.74429
vn 0.01112 -0.99898 -0.04375
vn 0.11083 -0.99068 0.07914
vn 0.15606 -0.88144 -0.44576
vn -0.03015 -0.89431 -0.44644
vn -0.03933 0.42062 -0.90639
vn 0.35126 0.93572 -0.03248
vn 0.20450 0.95095 0.23211
vn 0.13252 -0.99030 0.04170
vn -0.11134 0.99321 -0.03378
vn 0.53830 -0.03799 0.84190
vn 0.50823 -0.00171 0.86122
vn 0.42433 0.25756 0.86811
vn -0.91899 -0.20705 0.33554
vn 0.47659 0.08086 0.87540
vn 0.89091 -0.19458 0.41039
vn 0.56268 -0.25040 0.78784
vn 0.78057 -0.54988 0.29721
vn 0.68021 0.23171 0.69543
vn 0.17510 -0.31647 -0.93230
vn 0.73880 -0.26321 0.62040
vn 0.95572 -0.04885 0.29018
vn 0.48503 0.69556 -0.53004
vn 0.25259 0.19726 -0.94725
vn 0.56399 -0.15499 -0.81111
vn 0.99642 0.08451 0.00187
vn 0.98473 0.05760 0.16428
vn 0.83645 -0.48281 -0.25932
vn 0.44023 0.66615 0.60203
vn 0.94963 0.08415 0.30185
vn 0.97808 -0.02052 0.20721
vn 0.96954 -0.10071 0.22327
vn 0.89093 -0.15858 0.42556
vn 0.95784 0.09482 -0.27119
vn 0.79659 -0.37833 -0.47149
vn 0.81521 -0.34027 -0.46866
vn 0.94920 -0.29458 0.11062
vn 0.00000 -0.99899 -0.04502
vn 0.56685 -0.73678 -0.36857
vn 0.56685 -0.73678 -0.36857
vn 0.56685 -0.73678 -0.36857
vn 0.74234 -0.57228 -0.34846
vn 0.74234 -0.57228 -0.34846
vn 0.74234 -0.57228 -0.34846
vn 0.54647 0.57196 -0.61175
vn 0.54647 0.57196 -0.61175
vn 0.54647 0.57196 -0.61175
vn 0.12995 0.99152 -0.00225
vn 0.12995 0.99152 -0.00225
vn 0.12995 0.99152 -0.00225
vn 0.10627 0.99109 -0.08028
vn 0.10627 0.99109 -0.08028
vn 0.10627 0.99109 -0.08028
vn 0.06087 0.98886 0.13583
vn 0.06087 0.98886 0.13583
vn 0.06087 0.98886 0.13583
vn 0.12270 0.93227 0.34031
vn 0.12270 0.93227 0.34031
vn 0.12270 0.93227 0.34031
vn -0.11083 0.99068 -0.07914
vn -0.11083 0.99068 -0.07914
vn -0.11083 0.99068 -0.07914
vn -0.13252 0.99030 -0.04170
vn -0.13252 0.99030 -0.04170
vn -0.13252 0.99030 -0.04170
vn -0.63537 -0.57294 -0.51772
vn -0.63537 -0.57294 -0.51772
vn -0.63537 -0.57294 -0.51772
vn -0.24790 0.25717 -0.93403
vn -0.24790 0.25717 -0.93403
vn -0.24790 0.25717 -0.93403
vn 0.16200 0.98499 -0.05957
vn 0.16200 0.98499 -0.05957
vn 0.16200 0.98499 -0.05957
vn 0.09119 0.98438 0.15057
vn 0.09119 0.98438 0.15057
vn 0.09119 0.98438 0.15057
vn 0.12668 0.97682 -0.17256
vn 0.12668 0.97682 -0.17256
vn 0.12668 0.97682 -0.17256
vn -0.31436 0.81709 0.48327
vn -0.31436 0.81709 0.48327
vn -0.31436 0.81709 0.48327
vn -0.00000 0.88801 0.45982
vn -0.00000 0.88801 0.45982
vn -0.00000 0.88801 0.45982
vn 0.06280 -0.99796 -0.01164
vn 0.06280 -0.99796 -0.01164
vn 0.06280 -0.99796 -0.01164
f 87//87 57//57 1//1
f 87//87 1//1 93//93
f 84//84 83//83 31//31
f 78//78 17//17 31//31
f 80//80 95//95 121//121
f 7//7 4//4 5//5
f 6//6 7//7 5//5
f 216//216 217//217 218//218
f 8//8 4//4 9//9
f 13//13 133//133 137//137
f 133//133 13//13 131//131
f 8//8 126//126 122//122
f 7//7 125//125 131//131
f 10//10 4//4 7//7
f 10//10 7//7 131//131
f 8//8 9//9 126//126
f 9//9 11//11 126//126
f 10//10 131//131 13//13
f 137//137 14//14 13//13
f 96//96 12//12 16//16
f 96//96 16//16 129//129
f 137//137 15//15 14//14
f 77//77 11//11 13//13
f 15//15 13//13 14//14
f 141//141 15//15 137//137
f 12//12 77//77 15//15
f 16//16 15//15 141//141
f 15//15 16//16 12//12
f 18//18 6//6 5//5
f 22//22 76//76 42//42
f 42//42 23//23 149//149
f 23//23 75//75 149//149
f 21//21 25//25 34//34
f 21//21 34//34 74//74
f 19//19 76//76 88//88
f 19//19 20//20 76//76
f 20//20 21//21 74//74
f 19//19 24//24 20//20
f 20//20 24//24 21//21
f 21//21 26//26 25//25
f 24//24 26//26 21//21
f 90//90 27//27 24//24
f 26//26 28//28 68//68
f 26//26 68//68 25//25
f 24//24 27//27 26//26
f 26//26 27//27 28//28
f 90//90 89//89 27//27
f 89//89 51//51 27//27
f 28//28 50//50 68//68
f 27//27 51//51 50//50
f 27//27 50//50 28//28
f 49//49 66//66 50//50
f 38//38 29//29 98//98
f 38//38 98//98 46//46
f 38//38 97//97 29//29
f 99//99 97//97 38//38
f 40//40 97//97 41//41
f 97//97 40//40 39//39
f 97//97 39//39 29//29
f 90//90 24//24 43//43
f 94//94 31//31 83//83
f 94//94 54//54 31//31
f 57//57 55//55 1//1
f 55//55 115//115 1//1
f 33//33 88//88 76//76
f 19//19 88//88 32//32
f 30//30 24//24 19//19
f 112//112 41//41 99//99
f 43//43 24//24 30//30
f 103//103 165//165 197//197
f 105//105 89//89 90//90
f 36//36 38//38 37//37
f 3//3 104//104 44//44
f 52//52 47//47 29//29
f 52//52 29//29 39//39
f 104//104 87//87 117//117
f 33//33 76//76 22//22
f 32//32 101//101 19//19
f 30//30 19//19 101//101
f 40//40 41//41 3//3
f 40//40 3//3 44//44
f 40//40 44//44 39//39
f 51//51 49//49 50//50
f 78//78 57//57 87//87
f 18//18 5//5 82//82
f 23//23 76//76 20//20
f 76//76 23//23 42//42
f 23//23 20//20 74//74
f 117//117 45//45 104//104
f 51//51 89//89 197//197
f 48//48 44//44 45//45
f 37//37 38//38 46//46
f 36//36 37//37 168//168
f 44//44 48//48 52//52
f 44//44 52//52 39//39
f 45//45 44//44 104//104
f 57//57 78//78 53//53
f 219//219 220//220 221//221
f 53//53 31//31 56//56
f 60//60 54//54 58//58
f 59//59 53//53 56//56
f 79//79 55//55 57//57
f 79//79 58//58 55//55
f 53//53 79//79 57//57
f 222//222 223//223 224//224
f 59//59 79//79 53//53
f 60//60 58//58 79//79
f 69//69 25//25 68//68
f 70//70 25//25 69//69
f 64//64 68//68 50//50
f 69//69 68//68 64//64
f 67//67 50//50 66//66
f 50//50 67//67 64//64
f 62//62 70//70 61//61
f 225//225 226//226 227//227
f 228//228 229//229 230//230
f 73//73 74//74 34//34
f 75//75 23//23 74//74
f 13//13 15//15 77//77
f 11//11 77//77 12//12
f 10//10 9//9 4//4
f 11//11 9//9 10//10
f 11//11 10//10 13//13
f 84//84 31//31 17//17
f 78//78 87//87 17//17
f 87//87 93//93 117//117
f 121//121 2//2 80//80
f 32//32 85//85 101//101
f 55//55 54//54 94//94
f 54//54 55//55 58//58
f 2//2 115//115 55//55
f 82//82 22//22 18//18
f 83//83 84//84 86//86
f 55//55 80//80 2//2
f 80//80 55//55 94//94
f 22//22 91//91 18//18
f 3//3 17//17 87//87
f 3//3 87//87 104//104
f 100//100 85//85 17//17
f 100//100 17//17 3//3
f 86//86 32//32 88//88
f 86//86 85//85 32//32
f 92//92 33//33 82//82
f 81//81 82//82 5//5
f 105//105 103//103 89//89
f 80//80 94//94 81//81
f 81//81 92//92 82//82
f 82//82 33//33 22//22
f 88//88 33//33 92//92
f 83//83 86//86 81//81
f 92//92 86//86 88//88
f 92//92 81//81 86//86
f 84//84 85//85 86//86
f 85//85 84//84 17//17
f 79//79 59//59 60//60
f 59//59 56//56 60//60
f 54//54 60//60 56//56
f 81//81 94//94 83//83
f 80//80 81//81 4//4
f 81//81 5//5 4//4
f 4//4 95//95 80//80
f 126//126 11//11 129//129
f 11//11 96//96 129//129
f 12//12 96//96 11//11
f 35//35 38//38 36//36
f 99//99 38//38 35//35
f 100//100 3//3 41//41
f 101//101 85//85 100//100
f 111//111 43//43 30//30
f 111//111 108//108 102//102
f 111//111 106//106 108//108
f 101//101 100//100 107//107
f 106//106 109//109 108//108
f 108//108 110//110 102//102
f 100//100 110//110 107//107
f 89//89 103//103 197//197
f 35//35 105//105 90//90
f 43//43 35//35 90//90
f 101//101 107//107 106//106
f 107//107 109//109 106//106
f 110//110 108//108 109//109
f 101//101 106//106 30//30
f 112//112 111//111 102//102
f 231//231 232//232 233//233
f 111//111 30//30 106//106
f 41//41 110//110 100//100
f 110//110 109//109 107//107
f 112//112 43//43 111//111
f 43//43 112//112 99//99
f 99//99 35//35 43//43
f 110//110 41//41 112//112
f 97//97 99//99 41//41
f 98//98 29//29 47//47
f 35//35 36//36 105//105
f 103//103 105//105 36//36
f 103//103 36//36 168//168
f 168//168 165//165 103//103
f 113//113 116//116 191//191
f 191//191 116//116 172//172
f 1//1 115//115 192//192
f 192//192 114//114 1//1
f 172//172 93//93 114//114
f 93//93 1//1 114//114
f 118//118 172//172 116//116
f 199//199 116//116 113//113
f 118//118 120//120 207//207
f 208//208 207//207 120//120
f 188//188 121//121 122//122
f 95//95 122//122 121//121
f 124//124 123//123 194//194
f 123//123 6//6 194//194
f 122//122 95//95 8//8
f 234//234 235//235 236//236
f 124//124 126//126 127//127
f 125//125 132//132 131//131
f 132//132 125//125 123//123
f 125//125 7//7 123//123
f 132//132 133//133 131//131
f 137//137 133//133 138//138
f 134//134 135//135 128//128
f 129//129 136//136 130//130
f 135//135 133//133 132//132
f 6//6 123//123 7//7
f 136//136 129//129 16//16
f 130//130 136//136 139//139
f 135//135 138//138 133//133
f 136//136 16//16 139//139
f 140//140 135//135 134//134
f 138//138 141//141 137//137
f 141//141 139//139 16//16
f 18//18 194//194 6//6
f 147//147 144//144 146//146
f 150//150 144//144 147//147
f 149//149 147//147 146//146
f 150//150 147//147 148//148
f 150//150 148//148 145//145
f 143//143 164//164 146//146
f 143//143 146//146 144//144
f 143//143 144//144 151//151
f 150//150 145//145 152//152
f 144//144 150//150 153//153
f 150//150 152//152 153//153
f 151//151 144//144 153//153
f 153//153 167//167 151//151
f 153//153 152//152 154//154
f 153//153 154//154 167//167
f 49//49 183//183 66//66
f 159//159 200//200 162//162
f 159//159 160//160 200//200
f 158//158 159//159 162//162
f 163//163 203//203 162//162
f 162//162 169//169 161//161
f 162//162 161//161 163//163
f 167//167 155//155 151//151
f 193//193 199//199 113//113
f 193//193 113//113 189//189
f 149//149 146//146 42//42
f 142//142 146//146 195//195
f 195//195 146//146 164//164
f 143//143 214//214 164//164
f 156//156 158//158 203//203
f 160//160 46//46 98//98
f 160//160 98//98 200//200
f 157//157 202//202 159//159
f 155//155 167//167 197//197
f 159//159 201//201 160//160
f 201//201 37//37 46//46
f 201//201 46//46 160//160
f 166//166 52//52 48//48
f 207//207 119//119 118//118
f 166//166 161//161 169//169
f 155//155 197//197 202//202
f 197//197 165//165 202//202
f 203//203 163//163 207//207
f 146//146 142//142 42//42
f 213//213 143//143 151//151
f 163//163 161//161 206//206
f 167//167 49//49 51//51
f 52//52 166//166 169//169
f 52//52 169//169 47//47
f 166//166 206//206 161//161
f 206//206 166//166 48//48
f 206//206 48//48 45//45
f 197//197 167//167 51//51
f 42//42 142//142 22//22
f 142//142 91//91 22//22
f 117//117 206//206 45//45
f 202//202 165//165 168//168
f 202//202 168//168 201//201
f 167//167 154//154 183//183
f 167//167 183//183 49//49
f 170//170 114//114 192//192
f 170//170 172//172 114//114
f 170//170 173//173 172//172
f 191//191 174//174 171//171
f 173//173 191//191 172//172
f 177//177 173//173 170//170
f 175//175 176//176 170//170
f 177//177 170//170 176//176
f 191//191 173//173 178//178
f 173//173 177//177 178//178
f 176//176 174//174 178//178
f 177//177 176//176 178//178
f 184//184 152//152 145//145
f 185//185 184//184 145//145
f 181//181 154//154 152//152
f 184//184 181//181 152//152
f 182//182 65//65 183//183
f 183//183 154//154 181//181
f 183//183 181//181 182//182
f 65//65 66//66 183//183
f 237//237 238//238 239//239
f 240//240 241//241 242//242
f 141//141 140//140 139//139
f 139//139 140//140 134//134
f 134//134 130//130 139//139
f 128//128 127//127 130//130
f 128//128 130//130 134//134
f 123//123 128//128 132//132
f 135//135 132//132 128//128
f 135//135 140//140 138//138
f 138//138 140//140 141//141
f 127//127 128//128 124//124
f 172//172 118//118 117//117
f 170//170 192//192 171//171
f 115//115 2//2 196//196
f 172//172 117//117 93//93
f 171//171 190//190 189//189
f 175//175 170//170 171//171
f 191//191 178//178 174//174
f 121//121 196//196 2//2
f 196//196 121//121 188//188
f 198//198 124//124 194//194
f 194//194 91//91 142//142
f 196//196 190//190 115//115
f 118//118 119//119 117//117
f 171//171 192//192 190//190
f 195//195 194//194 142//142
f 198//198 188//188 124//124
f 119//119 206//206 117//117
f 193//193 164//164 214//214
f 193//193 214//214 199//199
f 115//115 190//190 192//192
f 190//190 196//196 188//188
f 190//190 188//188 189//189
f 195//195 198//198 194//194
f 91//91 194//194 18//18
f 118//118 116//116 120//120
f 164//164 198//198 195//195
f 198//198 164//164 193//193
f 189//189 113//113 171//171
f 120//120 199//199 208//208
f 174//174 176//176 175//175
f 174//174 175//175 171//171
f 171//171 113//113 191//191
f 198//198 189//189 188//188
f 198//198 193//193 189//189
f 124//124 188//188 122//122
f 243//243 244//244 245//245
f 127//127 126//126 129//129
f 127//127 129//129 130//130
f 199//199 120//120 116//116
f 202//202 201//201 159//159
f 168//168 37//37 201//201
f 158//158 157//157 159//159
f 151//151 155//155 157//157
f 213//213 151//151 157//157
f 208//208 203//203 207//207
f 214//214 209//209 199//199
f 205//205 214//214 143//143
f 209//209 204//204 208//208
f 209//209 208//208 199//199
f 246//246 247//247 248//248
f 213//213 212//212 205//205
f 205//205 209//209 214//214
f 207//207 163//163 119//119
f 163//163 206//206 119//119
f 205//205 210//210 209//209
f 211//211 204//204 209//209
f 210//210 205//205 212//212
f 211//211 210//210 212//212
f 156//156 211//211 213//213
f 249//249 250//250 251//251
f 143//143 213//213 205//205
f 203//203 208//208 204//204
f 211//211 209//209 210//210
f 157//157 158//158 156//156
f 157//157 156//156 213//213
f 204//204 156//156 203//203
f 162//162 203//203 158//158
f 200//200 169//169 162//162
f 98//98 47//47 169//169
f 98//98 169//169 200//200
f 157//157 155//155 202//202
f 61//61 70//70 69//69
f 184//184 185//185 179//179
f 148//148 147//147 149//149
f 75//75 74//74 73//73
f 148//148 149//149 75//75
f 185//185 145//145 148//148
f 34//34 25//25 70//70
f 34//34 70//70 62//62
f 252//252 253//253 254//254
f 61//61 69//69 64//64
f 255//255 256//256 257//257
f 148//148 75//75 73//73
f 258//258 259//259 260//260
f 67//67 66//66 65//65
f 261//261 262//262 263//263
f 148//148 73//73 62//62
f 179//179 148//148 62//62
f 181//181 179//179 62//62
f 264//264 265//265 266//266
f 62//62 64//64 67//67
f 182//182 181//181 62//62
f 63//63 72//72 71//71
f 63//63 71//71 62//62
f 186//186 187//187 180//180
f 179//179 186//186 180//180
f 215//215 67//67 182//182
f 215//215 62//62 67//67
f 215//215 182//182 62//62
