# GloomhavenVR import — Poly Haven 'moss_01' (CC0), processed by ph_pipeline.py
v 0.037430 0.015073 0.004964
v 0.037444 0.013997 -0.000796
v 0.039249 0.024113 0.001802
v 0.036459 0.008080 0.004662
v 0.039503 -0.000079 0.000132
v 0.038000 0.007851 -0.001652
v 0.042611 0.008066 -0.005607
v 0.041633 0.014269 -0.006926
v 0.043898 0.014882 0.000153
v 0.038151 0.014029 -0.001051
v 0.038063 0.027668 0.003694
v 0.043021 0.007842 0.003683
v 0.039503 -0.000079 0.000132
v 0.038287 0.007890 -0.001491
v 0.033987 0.007856 -0.004414
v 0.032165 0.014618 -0.000911
v 0.028625 0.009049 -0.000234
v 0.033082 0.009178 -0.005068
v 0.025718 0.007837 -0.008373
v 0.034127 0.005105 0.001896
v 0.040640 0.000772 0.000669
v 0.036624 0.004856 -0.002868
v 0.037691 0.004101 -0.006984
v 0.034044 0.007701 -0.009039
v 0.047718 0.007940 0.005431
v 0.053031 0.008605 0.002204
v 0.051899 0.015250 0.008851
v 0.047104 0.003230 0.001949
v 0.052974 -0.003544 -0.000960
v 0.053822 0.004117 0.000051
v 0.059899 0.004026 0.002234
v 0.060662 0.009791 0.003178
v 0.056641 0.012203 0.004472
v 0.055438 0.011382 -0.001281
v 0.051690 0.023176 0.000742
v 0.052500 0.006767 0.004896
v 0.053978 -0.000079 0.000132
v 0.055379 0.006737 -0.001501
v 0.056184 0.007158 -0.006662
v 0.052696 0.012614 -0.006786
v 0.073354 0.011957 0.000045
v 0.078721 0.014715 0.001242
v 0.075213 0.021600 -0.000000
v 0.074960 0.007791 0.000135
v 0.076907 0.003989 0.000337
v 0.079909 0.010039 0.001549
v 0.080397 0.004246 0.001259
v 0.083858 0.011843 0.000563
v 0.084510 0.006100 0.000061
v 0.082718 0.016569 -0.000382
v 0.080290 0.000000 0.000112
v 0.077542 0.011153 0.008051
v 0.079910 0.010119 0.001369
v 0.076621 0.019092 0.000620
v 0.078346 0.005849 0.006256
v 0.080290 0.000000 0.000000
v 0.081042 0.005663 0.001257
v 0.080333 0.005921 -0.004421
v 0.080387 0.009970 -0.004656
v 0.090261 0.014258 -0.002061
v 0.096882 0.017040 -0.000166
v 0.097032 0.030051 0.001849
v 0.091316 0.008654 -0.003682
v 0.092808 0.005204 -0.000825
v 0.097483 0.010563 -0.001782
v 0.096671 0.004819 -0.000769
v 0.103031 0.012733 -0.002217
v 0.101553 0.006078 -0.000721
v 0.102457 0.019203 -0.000602
v 0.097039 0.000000 -0.000000
v 0.098655 0.018087 0.006335
v 0.096433 0.019578 -0.000238
v 0.096052 0.028874 0.000033
v 0.099750 0.008430 0.003062
v 0.097039 0.000000 0.000000
v 0.097934 0.009715 -0.001255
v 0.096660 0.008653 -0.005276
v 0.094855 0.022065 -0.006678
v 0.013597 0.005915 0.001104
v 0.018713 0.007091 -0.000204
v 0.018403 0.014765 -0.001137
v 0.014865 0.003103 0.000000
v 0.017840 0.000000 0.000000
v 0.017716 0.002884 0.000000
v 0.021683 0.002057 0.000000
v 0.023096 0.007469 -0.000541
v 0.017523 0.006494 0.004436
v 0.018503 0.007077 -0.000409
v 0.017965 0.014736 -0.001567
v 0.017840 0.003103 0.002976
v 0.017840 0.000000 -0.000000
v 0.017840 0.002884 0.000124
v 0.017840 0.002057 -0.003843
v 0.019652 0.007015 -0.005080
v 0.104639 0.009039 0.000395
v 0.111546 0.009499 -0.000565
v 0.110891 0.019851 0.000336
v 0.107309 0.004110 -0.000561
v 0.110989 -0.000000 0.000001
v 0.111090 0.003901 0.000051
v 0.116360 0.002826 -0.001268
v 0.117528 0.009650 -0.002046
v 0.109327 0.014628 0.005561
v 0.111850 0.016290 0.001063
v 0.110006 0.021552 0.003386
v 0.109974 0.007355 0.003378
v 0.110989 -0.000000 -0.000000
v 0.111562 0.008682 -0.000386
v 0.110888 0.008106 -0.003914
v 0.110631 0.018215 -0.003558
v -0.002524 0.014173 0.005851
v -0.002507 0.013167 -0.001124
v -0.000321 0.022628 0.002022
v -0.003700 0.007631 0.005485
v -0.000014 0.000000 0.000000
v -0.001833 0.007418 -0.002161
v 0.003749 0.007618 -0.006950
v 0.002565 0.013421 -0.008547
v 0.005308 0.013994 0.000025
v -0.001650 0.013196 -0.001433
v -0.001757 0.025954 0.004314
v 0.004246 0.007409 0.004299
v -0.000014 0.000000 0.000000
v -0.001486 0.007454 -0.001965
v -0.006693 0.007422 -0.005505
v -0.008899 0.013747 -0.001263
v -0.007583 0.006447 -0.005924
v 0.004994 0.007163 -0.003306
v -0.000905 0.007237 -0.002308
v -0.000014 0.000000 0.000000
v 0.002311 0.012383 -0.010091
v -0.004618 0.003065 -0.003913
v 0.003982 0.002401 -0.000976
v -0.000512 0.003000 -0.000953
v 0.150557 0.005247 -0.005624
v 0.155895 0.007052 -0.004398
v 0.154279 0.017582 -0.004568
v 0.161235 0.008496 -0.005750
v 0.156316 0.000000 -0.000000
v 0.151383 0.001106 -0.003054
v 0.161117 0.004006 -0.003185
v 0.176730 0.008878 0.006876
v 0.179320 0.008607 0.000503
v 0.190305 0.014728 0.002432
v 0.180077 0.010844 -0.005873
v 0.174381 0.000000 -0.000000
v 0.173822 0.003838 0.005890
v 0.176799 0.005612 -0.005733
v 0.204338 0.005286 0.014248
v 0.197264 0.006784 0.009028
v 0.195158 0.006664 0.019329
v 0.206361 -0.000143 0.008383
v 0.202497 -0.002222 0.000537
v 0.199060 0.002631 0.005302
v 0.193632 0.002844 0.001606
v 0.189754 0.004145 0.010303
v 0.139388 0.027882 0.003802
v 0.138324 0.032178 -0.001156
v 0.130581 0.020910 0.003043
v 0.125292 0.010673 0.003669
v 0.129006 0.021356 -0.002199
v 0.124068 0.011405 -0.000726
v 0.127023 0.021181 -0.007508
v 0.135103 0.033065 -0.005404
v 0.122638 0.010001 -0.004730
v 0.122560 -0.000180 -0.002515
v 0.123315 0.000000 -0.000000
v 0.124032 -0.000352 0.002386
v 0.125661 -0.000164 -0.000065
v 0.128226 0.010779 -0.002151
v 0.123320 -0.000050 -0.000036
v 0.124158 0.012315 -0.000779
v 0.120713 -0.000405 -0.000002
v 0.120027 0.011770 0.000860
v 0.124367 0.024364 -0.000729
v 0.132452 0.033189 0.000678
v 0.129271 0.022115 -0.002474
v 0.137757 0.031178 -0.000832
v 0.133722 0.019302 -0.004033
v 0.141450 0.026373 -0.002649
v 0.132232 0.033561 0.001770
v 0.137642 0.036824 -0.000294
v 0.138246 0.021722 0.000011
v 0.141298 0.009529 0.000000
v 0.143562 0.023098 0.000011
v 0.145455 0.011547 0.000000
v 0.149189 0.023794 0.000011
v 0.142725 0.036024 -0.001946
v 0.149929 0.011407 0.000000
v 0.146763 -0.000180 -0.000000
v 0.144137 0.000000 0.000000
v 0.141646 -0.000352 -0.000000
v 0.143524 -0.000164 0.002266
v 0.145599 0.011605 0.004436
v 0.144170 -0.000050 0.000016
v 0.145215 0.012430 -0.000032
v 0.144888 -0.000405 -0.002492
v 0.145202 0.011197 -0.004336
v 0.143696 0.023267 -0.005705
v 0.137764 0.033677 -0.005674
v 0.143600 0.023942 -0.000076
v 0.137416 0.035658 -0.000159
v 0.143597 0.023888 0.005415
v 0.137599 0.034523 0.006062
vt 0.711739 0.272168
vt 0.782402 0.260099
vt 0.768828 0.373884
vt 0.702841 0.199044
vt 0.769847 0.105811
vt 0.789038 0.197396
vt 0.866231 0.201962
vt 0.872401 0.275402
vt 0.711739 0.272168
vt 0.782402 0.260099
vt 0.768828 0.373884
vt 0.702841 0.199044
vt 0.769847 0.105811
vt 0.789038 0.197396
vt 0.866231 0.201962
vt 0.872401 0.275402
vt 0.264926 0.281212
vt 0.344847 0.261174
vt 0.332284 0.368289
vt 0.259982 0.181933
vt 0.328326 0.098123
vt 0.344333 0.184463
vt 0.426232 0.195308
vt 0.423872 0.271123
vt 0.711739 0.272168
vt 0.782402 0.260099
vt 0.768828 0.373884
vt 0.702841 0.199044
vt 0.769847 0.105811
vt 0.789038 0.197396
vt 0.866231 0.201962
vt 0.872401 0.275402
vt 0.711739 0.272168
vt 0.782402 0.260099
vt 0.768828 0.373884
vt 0.702841 0.199044
vt 0.769847 0.105811
vt 0.789038 0.197396
vt 0.866231 0.201962
vt 0.872401 0.275402
vt 0.474539 0.260446
vt 0.541297 0.298332
vt 0.494057 0.391067
vt 0.495036 0.206388
vt 0.517215 0.154082
vt 0.557773 0.235423
vt 0.563858 0.157435
vt 0.611255 0.259690
vt 0.619233 0.182392
vt 0.595045 0.322549
vt 0.562418 0.100264
vt 0.053627 0.318859
vt 0.135901 0.287998
vt 0.166633 0.391348
vt 0.055772 0.237642
vt 0.124557 0.142830
vt 0.122058 0.219318
vt 0.197643 0.208746
vt 0.213985 0.268770
vt 0.474539 0.260446
vt 0.541297 0.298332
vt 0.494057 0.391067
vt 0.495036 0.206388
vt 0.517215 0.154082
vt 0.557773 0.235423
vt 0.563858 0.157435
vt 0.611255 0.259690
vt 0.619233 0.182392
vt 0.595045 0.322549
vt 0.562418 0.100264
vt 0.642897 0.765885
vt 0.717080 0.759848
vt 0.713605 0.851194
vt 0.633333 0.645252
vt 0.638587 0.524086
vt 0.693972 0.644340
vt 0.741321 0.614473
vt 0.793161 0.764727
vt 0.044261 0.823281
vt 0.111192 0.827791
vt 0.114249 0.928197
vt 0.068336 0.773276
vt 0.108397 0.731501
vt 0.106729 0.770329
vt 0.160132 0.759196
vt 0.175728 0.823502
vt 0.044261 0.823281
vt 0.111192 0.827791
vt 0.114249 0.928197
vt 0.068336 0.773276
vt 0.108397 0.731501
vt 0.106729 0.770329
vt 0.160132 0.759196
vt 0.175728 0.823502
vt 0.044261 0.823281
vt 0.111192 0.827791
vt 0.114249 0.928197
vt 0.068336 0.773276
vt 0.108397 0.731501
vt 0.106729 0.770329
vt 0.160132 0.759196
vt 0.175728 0.823502
vt 0.642897 0.765885
vt 0.717080 0.759848
vt 0.713605 0.851194
vt 0.633333 0.645252
vt 0.638587 0.524086
vt 0.693972 0.644340
vt 0.741321 0.614473
vt 0.793161 0.764727
vt 0.711739 0.272168
vt 0.782402 0.260099
vt 0.768828 0.373884
vt 0.702841 0.199044
vt 0.769847 0.105811
vt 0.789038 0.197396
vt 0.866231 0.201962
vt 0.872401 0.275402
vt 0.711739 0.272168
vt 0.782402 0.260099
vt 0.768828 0.373884
vt 0.702841 0.199044
vt 0.769847 0.105811
vt 0.789038 0.197396
vt 0.866231 0.201962
vt 0.872401 0.275402
vt 0.820617 0.741722
vt 0.952083 0.741942
vt 0.887547 0.746232
vt 0.884752 0.649942
vt 0.890604 0.846638
vt 0.844691 0.691717
vt 0.936487 0.677637
vt 0.883084 0.688770
vt 0.474539 0.260446
vt 0.541297 0.298332
vt 0.494057 0.391067
vt 0.595045 0.322549
vt 0.562104 0.205224
vt 0.492763 0.216773
vt 0.606652 0.267711
vt 0.474539 0.260446
vt 0.541297 0.298332
vt 0.494057 0.391067
vt 0.595045 0.322549
vt 0.562104 0.205224
vt 0.492763 0.216773
vt 0.606652 0.267711
vt 0.711739 0.272168
vt 0.782402 0.260099
vt 0.768828 0.373884
vt 0.702841 0.199044
vt 0.769847 0.105811
vt 0.789038 0.197396
vt 0.866231 0.201962
vt 0.872401 0.275402
vt 0.266505 0.927527
vt 0.317213 0.943653
vt 0.262443 0.824772
vt 0.274503 0.727105
vt 0.306276 0.828152
vt 0.310100 0.737176
vt 0.351602 0.825740
vt 0.357774 0.928591
vt 0.345173 0.729790
vt 0.339577 0.640517
vt 0.318554 0.641960
vt 0.298609 0.639142
vt 0.473714 0.660598
vt 0.444379 0.748888
vt 0.492352 0.662763
vt 0.479649 0.758306
vt 0.513375 0.661320
vt 0.514723 0.750920
vt 0.515596 0.846216
vt 0.509349 0.935342
vt 0.470270 0.848628
vt 0.464213 0.948443
vt 0.426436 0.845248
vt 0.415139 0.935911
vt 0.266505 0.927527
vt 0.317213 0.943653
vt 0.262443 0.824772
vt 0.274503 0.727105
vt 0.306276 0.828152
vt 0.310100 0.737176
vt 0.351602 0.825740
vt 0.357774 0.928591
vt 0.345173 0.729790
vt 0.339577 0.640517
vt 0.318554 0.641960
vt 0.298609 0.639142
vt 0.473714 0.660598
vt 0.444379 0.748888
vt 0.492352 0.662763
vt 0.479649 0.758306
vt 0.513375 0.661320
vt 0.514723 0.750920
vt 0.515596 0.846216
vt 0.509349 0.935342
vt 0.470270 0.848628
vt 0.464213 0.948443
vt 0.426436 0.845248
vt 0.415139 0.935911
vn 0.9862 -0.1624 0.0327
vn 0.9335 -0.1298 0.3344
vn 0.9236 -0.2414 0.2979
vn 0.9831 0.0641 0.1716
vn 0.8337 0.2668 0.4836
vn 0.8463 0.1801 0.5013
vn 0.6207 0.2651 0.7379
vn 0.7787 -0.0304 0.6266
vn 0.2162 -0.0832 -0.9728
vn 0.1819 0.1070 -0.9775
vn 0.0793 0.3280 -0.9413
vn 0.6310 -0.1279 -0.7652
vn 0.6750 -0.0469 -0.7363
vn 0.5934 0.0801 -0.8009
vn 0.5339 0.3043 -0.7889
vn 0.1173 0.3085 -0.9440
vn 0.1773 0.9658 0.1894
vn 0.3722 0.9281 -0.0063
vn -0.0872 0.9756 -0.2016
vn 0.5508 0.7690 0.3246
vn 0.6225 0.7630 0.1742
vn 0.6711 0.7256 0.1517
vn 0.6897 0.7227 0.0461
vn 0.4577 0.8713 -0.1768
vn 0.4773 -0.5705 0.6684
vn 0.2058 -0.5566 0.8048
vn 0.2486 -0.6635 0.7057
vn 0.3681 -0.3668 0.8544
vn 0.0150 -0.1324 0.9911
vn -0.0048 -0.2385 0.9711
vn -0.3378 -0.1013 0.9357
vn -0.1222 -0.4641 0.8773
vn 0.9688 -0.1728 -0.1779
vn 0.9753 0.0551 -0.2139
vn 0.8932 0.3353 -0.2997
vn 0.9278 -0.2664 0.2611
vn 0.9415 -0.1178 0.3158
vn 0.9801 0.0002 0.1987
vn 0.9278 0.3313 0.1717
vn 0.9107 0.3311 -0.2470
vn -0.2099 -0.0157 0.9776
vn 0.0393 0.1247 0.9914
vn -0.0273 0.1639 0.9861
vn -0.2345 -0.0529 0.9707
vn -0.2420 -0.1304 0.9615
vn 0.0034 0.0181 0.9998
vn 0.0596 -0.1689 0.9838
vn 0.1966 0.1177 0.9734
vn 0.3190 -0.0986 0.9426
vn 0.2368 0.2304 0.9438
vn 0.0482 -0.2616 0.9640
vn 0.9340 0.1920 0.3013
vn 0.9409 0.2640 0.2121
vn 0.9194 0.3517 0.1759
vn 0.9125 0.0143 0.4089
vn 0.9762 -0.1617 0.1448
vn 0.9748 -0.0008 0.2229
vn 0.9908 -0.0490 -0.1259
vn 0.9802 0.1982 0.0016
vn -0.1648 -0.2566 0.9524
vn -0.0310 -0.1995 0.9794
vn -0.0240 -0.1528 0.9880
vn -0.3065 0.0992 0.9467
vn -0.1579 0.3007 0.9406
vn -0.0682 0.0043 0.9977
vn -0.0190 0.1698 0.9853
vn 0.0995 -0.0786 0.9919
vn -0.0647 0.2135 0.9748
vn 0.1488 -0.1873 0.9710
vn -0.0261 0.1555 0.9875
vn 0.9467 0.1473 -0.2866
vn 0.9616 0.1155 -0.2489
vn 0.9646 0.0471 -0.2595
vn 0.9294 0.0331 -0.3676
vn 0.9272 -0.1308 -0.3510
vn 0.9451 0.0297 -0.3254
vn 0.9538 -0.0079 -0.3002
vn 0.9710 0.0943 -0.2199
vn 0.2671 -0.0957 0.9589
vn 0.1286 0.0564 0.9901
vn 0.1428 0.1252 0.9818
vn 0.1294 -0.0878 0.9877
vn -0.0000 -0.0000 1.0000
vn 0.0113 0.0299 0.9995
vn 0.0138 0.0660 0.9977
vn 0.0558 0.0910 0.9943
vn 0.9782 0.0431 0.2032
vn 0.9786 0.0063 0.2059
vn 0.9693 0.1020 0.2238
vn 0.9951 -0.0502 0.0847
vn 1.0000 -0.0000 -0.0000
vn 0.9938 -0.1026 0.0422
vn 0.9717 -0.2312 0.0482
vn 0.9777 -0.0735 0.1965
vn 0.1434 -0.0959 0.9850
vn 0.1677 -0.0172 0.9857
vn 0.1888 -0.0733 0.9793
vn -0.0361 -0.0075 0.9993
vn 0.0748 -0.0148 0.9971
vn 0.0407 0.0453 0.9981
vn 0.2505 0.0410 0.9673
vn 0.2448 0.0152 0.9695
vn 0.8739 -0.0111 0.4860
vn 0.9864 0.1013 0.1292
vn 0.9444 0.2252 0.2394
vn 0.9189 -0.0668 0.3888
vn 0.9892 -0.0593 0.1342
vn 0.9966 -0.0473 0.0673
vn 0.9826 -0.0186 -0.1846
vn 0.9699 0.1678 -0.1767
vn 0.9779 -0.2066 0.0322
vn 0.9275 -0.1605 0.3376
vn 0.9111 -0.3033 0.2792
vn 0.9857 0.0593 0.1579
vn 0.8176 0.3367 0.4672
vn 0.8402 0.2203 0.4955
vn 0.6067 0.3344 0.7212
vn 0.7675 -0.0032 0.6411
vn 0.2175 -0.1282 -0.9676
vn 0.1933 0.1563 -0.9686
vn 0.0768 0.4100 -0.9088
vn 0.6060 -0.1948 -0.7713
vn 0.6783 -0.0591 -0.7324
vn 0.5816 0.0887 -0.8086
vn 0.5148 0.3952 -0.7608
vn 0.1324 0.4025 -0.9058
vn -0.4493 0.5399 0.7118
vn 0.1145 0.6203 0.7759
vn -0.2025 0.5686 0.7973
vn -0.2178 0.2623 0.9401
vn -0.1188 0.8502 0.5129
vn -0.5248 0.1364 0.8403
vn 0.0573 0.3932 0.9176
vn -0.2666 0.2756 0.9236
vn -0.3036 0.2794 0.9109
vn -0.0721 0.2785 0.9577
vn 0.0212 0.0194 0.9996
vn 0.1723 0.2960 0.9395
vn -0.1796 0.5055 0.8439
vn -0.3677 0.4616 0.8073
vn 0.1640 0.4860 0.8585
vn 0.6767 -0.6708 0.3036
vn 0.6980 -0.7125 0.0721
vn 0.4894 -0.8718 -0.0212
vn 0.7049 -0.6881 -0.1723
vn 0.8443 -0.5049 0.1796
vn 0.7883 -0.4933 0.3677
vn 0.8340 -0.5269 -0.1640
vn 0.3851 0.8829 -0.2686
vn 0.0027 0.8954 -0.4452
vn -0.0702 0.9975 -0.0027
vn 0.4910 0.7288 -0.4772
vn 0.4373 0.7684 -0.4672
vn 0.3116 0.8071 -0.5015
vn 0.2162 0.9402 -0.2633
vn -0.2325 0.9362 -0.2636
vn 0.6494 -0.5642 -0.5099
vn 0.6875 -0.4713 -0.5524
vn 0.7309 -0.6247 -0.2749
vn 0.9160 -0.2656 -0.3007
vn 0.7799 -0.5513 -0.2963
vn 0.9175 -0.3017 -0.2592
vn 0.8122 -0.4823 -0.3282
vn 0.7017 -0.3692 -0.6093
vn 0.9316 -0.2454 -0.2680
vn 0.9542 -0.0798 -0.2883
vn 0.9546 -0.0784 -0.2874
vn 0.9520 -0.0743 -0.2969
vn -0.0212 -0.1825 -0.9830
vn -0.3095 -0.0258 -0.9506
vn -0.0474 -0.1015 -0.9937
vn -0.3422 0.0114 -0.9395
vn -0.0899 -0.0364 -0.9953
vn -0.3676 0.0347 -0.9293
vn -0.2639 0.1506 -0.9527
vn -0.1569 0.2940 -0.9428
vn -0.2438 0.1725 -0.9544
vn -0.1352 0.2905 -0.9473
vn -0.2211 0.1794 -0.9586
vn -0.1143 0.2878 -0.9508
vn 0.2272 0.0829 0.9703
vn 0.2632 0.1817 0.9475
vn 0.0180 -0.0696 0.9974
vn 0.0002 -0.0003 1.0000
vn 0.0241 -0.0052 0.9997
vn 0.0001 -0.0005 1.0000
vn 0.0325 0.0386 0.9987
vn 0.3379 0.3202 0.8850
vn 0.0000 -0.0005 1.0000
vn -0.0000 -0.0000 1.0000
vn -0.0000 -0.0000 1.0000
vn -0.0000 -0.0000 1.0000
vn 0.9418 -0.2139 0.2592
vn 0.9980 0.0283 -0.0568
vn 0.9628 -0.1332 0.2349
vn 0.9975 0.0598 -0.0364
vn 0.9718 -0.0681 0.2259
vn 0.9989 0.0467 -0.0107
vn 0.9545 0.2967 -0.0292
vn 0.8622 0.4917 -0.1223
vn 0.9487 0.3161 -0.0070
vn 0.8792 0.4762 -0.0147
vn 0.9440 0.3300 -0.0029
vn 0.8801 0.4725 0.0460
f 4/4/4 6/6/6 2/2/2
f 4/4/4 2/2/2 1/1/1
f 1/1/1 2/2/2 3/3/3
f 4/4/4 5/5/5 6/6/6
f 6/6/6 7/7/7 8/8/8
f 6/6/6 8/8/8 2/2/2
f 5/5/5 7/7/7 6/6/6
f 2/2/2 8/8/8 3/3/3
f 12/12/12 14/14/14 10/10/10
f 12/12/12 10/10/10 9/9/9
f 9/9/9 10/10/10 11/11/11
f 12/12/12 13/13/13 14/14/14
f 14/14/14 15/15/15 16/16/16
f 14/14/14 16/16/16 10/10/10
f 13/13/13 15/15/15 14/14/14
f 10/10/10 16/16/16 11/11/11
f 20/20/20 22/22/22 18/18/18
f 20/20/20 18/18/18 17/17/17
f 17/17/17 18/18/18 19/19/19
f 20/20/20 21/21/21 22/22/22
f 22/22/22 23/23/23 24/24/24
f 22/22/22 24/24/24 18/18/18
f 21/21/21 23/23/23 22/22/22
f 18/18/18 24/24/24 19/19/19
f 28/28/28 30/30/30 26/26/26
f 28/28/28 26/26/26 25/25/25
f 25/25/25 26/26/26 27/27/27
f 28/28/28 29/29/29 30/30/30
f 30/30/30 31/31/31 32/32/32
f 30/30/30 32/32/32 26/26/26
f 29/29/29 31/31/31 30/30/30
f 26/26/26 32/32/32 27/27/27
f 36/36/36 38/38/38 34/34/34
f 36/36/36 34/34/34 33/33/33
f 33/33/33 34/34/34 35/35/35
f 36/36/36 37/37/37 38/38/38
f 38/38/38 39/39/39 40/40/40
f 38/38/38 40/40/40 34/34/34
f 37/37/37 39/39/39 38/38/38
f 34/34/34 40/40/40 35/35/35
f 44/44/44 46/46/46 42/42/42
f 44/44/44 42/42/42 41/41/41
f 41/41/41 42/42/42 43/43/43
f 45/45/45 47/47/47 46/46/46
f 45/45/45 46/46/46 44/44/44
f 46/46/46 48/48/48 50/50/50
f 46/46/46 50/50/50 42/42/42
f 47/47/47 49/49/49 48/48/48
f 47/47/47 48/48/48 46/46/46
f 42/42/42 50/50/50 43/43/43
f 51/51/51 49/49/49 47/47/47
f 45/45/45 51/51/51 47/47/47
f 55/55/55 57/57/57 53/53/53
f 55/55/55 53/53/53 52/52/52
f 52/52/52 53/53/53 54/54/54
f 55/55/55 56/56/56 57/57/57
f 57/57/57 58/58/58 59/59/59
f 57/57/57 59/59/59 53/53/53
f 56/56/56 58/58/58 57/57/57
f 53/53/53 59/59/59 54/54/54
f 63/63/63 65/65/65 61/61/61
f 63/63/63 61/61/61 60/60/60
f 60/60/60 61/61/61 62/62/62
f 64/64/64 66/66/66 65/65/65
f 64/64/64 65/65/65 63/63/63
f 65/65/65 67/67/67 69/69/69
f 65/65/65 69/69/69 61/61/61
f 66/66/66 68/68/68 67/67/67
f 66/66/66 67/67/67 65/65/65
f 61/61/61 69/69/69 62/62/62
f 70/70/70 68/68/68 66/66/66
f 64/64/64 70/70/70 66/66/66
f 74/74/74 76/76/76 72/72/72
f 74/74/74 72/72/72 71/71/71
f 71/71/71 72/72/72 73/73/73
f 74/74/74 75/75/75 76/76/76
f 76/76/76 77/77/77 78/78/78
f 76/76/76 78/78/78 72/72/72
f 75/75/75 77/77/77 76/76/76
f 72/72/72 78/78/78 73/73/73
f 82/82/82 84/84/84 80/80/80
f 82/82/82 80/80/80 79/79/79
f 79/79/79 80/80/80 81/81/81
f 82/82/82 83/83/83 84/84/84
f 84/84/84 85/85/85 86/86/86
f 84/84/84 86/86/86 80/80/80
f 83/83/83 85/85/85 84/84/84
f 80/80/80 86/86/86 81/81/81
f 90/90/90 92/92/92 88/88/88
f 90/90/90 88/88/88 87/87/87
f 87/87/87 88/88/88 89/89/89
f 90/90/90 91/91/91 92/92/92
f 92/92/92 93/93/93 94/94/94
f 92/92/92 94/94/94 88/88/88
f 91/91/91 93/93/93 92/92/92
f 88/88/88 94/94/94 89/89/89
f 98/98/98 100/100/100 96/96/96
f 98/98/98 96/96/96 95/95/95
f 95/95/95 96/96/96 97/97/97
f 98/98/98 99/99/99 100/100/100
f 100/100/100 101/101/101 102/102/102
f 100/100/100 102/102/102 96/96/96
f 99/99/99 101/101/101 100/100/100
f 96/96/96 102/102/102 97/97/97
f 106/106/106 108/108/108 104/104/104
f 106/106/106 104/104/104 103/103/103
f 103/103/103 104/104/104 105/105/105
f 106/106/106 107/107/107 108/108/108
f 108/108/108 109/109/109 110/110/110
f 108/108/108 110/110/110 104/104/104
f 107/107/107 109/109/109 108/108/108
f 104/104/104 110/110/110 105/105/105
f 114/114/114 116/116/116 112/112/112
f 114/114/114 112/112/112 111/111/111
f 111/111/111 112/112/112 113/113/113
f 114/114/114 115/115/115 116/116/116
f 116/116/116 117/117/117 118/118/118
f 116/116/116 118/118/118 112/112/112
f 115/115/115 117/117/117 116/116/116
f 112/112/112 118/118/118 113/113/113
f 122/122/122 124/124/124 120/120/120
f 122/122/122 120/120/120 119/119/119
f 119/119/119 120/120/120 121/121/121
f 122/122/122 123/123/123 124/124/124
f 124/124/124 125/125/125 126/126/126
f 124/124/124 126/126/126 120/120/120
f 123/123/123 125/125/125 124/124/124
f 120/120/120 126/126/126 121/121/121
f 134/134/134 133/133/133 128/128/128
f 134/134/134 128/128/128 129/129/129
f 129/129/129 128/128/128 131/131/131
f 127/127/127 129/129/129 131/131/131
f 132/132/132 134/134/134 129/129/129
f 132/132/132 129/129/129 127/127/127
f 132/132/132 130/130/130 134/134/134
f 130/130/130 133/133/133 134/134/134
f 140/140/140 139/139/139 136/136/136
f 140/140/140 136/136/136 135/135/135
f 135/135/135 136/136/136 137/137/137
f 139/139/139 141/141/141 138/138/138
f 139/139/139 138/138/138 136/136/136
f 136/136/136 138/138/138 137/137/137
f 147/147/147 146/146/146 143/143/143
f 147/147/147 143/143/143 142/142/142
f 142/142/142 143/143/143 144/144/144
f 146/146/146 148/148/148 145/145/145
f 146/146/146 145/145/145 143/143/143
f 143/143/143 145/145/145 144/144/144
f 152/152/152 154/154/154 150/150/150
f 152/152/152 150/150/150 149/149/149
f 149/149/149 150/150/150 151/151/151
f 152/152/152 153/153/153 154/154/154
f 154/154/154 155/155/155 156/156/156
f 154/154/154 156/156/156 150/150/150
f 153/153/153 155/155/155 154/154/154
f 150/150/150 156/156/156 151/151/151
f 161/161/161 158/158/158 157/157/157
f 161/161/161 157/157/157 159/159/159
f 162/162/162 161/161/161 159/159/159
f 162/162/162 159/159/159 160/160/160
f 163/163/163 164/164/164 158/158/158
f 163/163/163 158/158/158 161/161/161
f 165/165/165 163/163/163 161/161/161
f 165/165/165 161/161/161 162/162/162
f 166/166/166 165/165/165 162/162/162
f 166/166/166 162/162/162 167/167/167
f 167/167/167 162/162/162 160/160/160
f 167/167/167 160/160/160 168/168/168
f 171/171/171 172/172/172 170/170/170
f 171/171/171 170/170/170 169/169/169
f 173/173/173 174/174/174 172/172/172
f 173/173/173 172/172/172 171/171/171
f 174/174/174 175/175/175 177/177/177
f 174/174/174 177/177/177 172/172/172
f 175/175/175 176/176/176 178/178/178
f 175/175/175 178/178/178 177/177/177
f 177/177/177 178/178/178 180/180/180
f 177/177/177 180/180/180 179/179/179
f 172/172/172 177/177/177 179/179/179
f 172/172/172 179/179/179 170/170/170
f 185/185/185 182/182/182 181/181/181
f 185/185/185 181/181/181 183/183/183
f 186/186/186 185/185/185 183/183/183
f 186/186/186 183/183/183 184/184/184
f 187/187/187 188/188/188 182/182/182
f 187/187/187 182/182/182 185/185/185
f 189/189/189 187/187/187 185/185/185
f 189/189/189 185/185/185 186/186/186
f 190/190/190 189/189/189 186/186/186
f 190/190/190 186/186/186 191/191/191
f 191/191/191 186/186/186 184/184/184
f 191/191/191 184/184/184 192/192/192
f 195/195/195 196/196/196 194/194/194
f 195/195/195 194/194/194 193/193/193
f 197/197/197 198/198/198 196/196/196
f 197/197/197 196/196/196 195/195/195
f 198/198/198 199/199/199 201/201/201
f 198/198/198 201/201/201 196/196/196
f 199/199/199 200/200/200 202/202/202
f 199/199/199 202/202/202 201/201/201
f 201/201/201 202/202/202 204/204/204
f 201/201/201 204/204/204 203/203/203
f 196/196/196 201/201/201 203/203/203
f 196/196/196 203/203/203 194/194/194
