# GloomhavenVR - valve-index left 'trigger' (glTF material 0)
# generated by controllers_pipeline.py from webxr-input-profiles (MIT)
o index_left_trigger__m0
v 0.010086 -0.035617 0.044658
v 0.006944 -0.036223 0.045357
v 0.007516 -0.034089 0.051182
v 0.011009 -0.033376 0.050400
v 0.006574 -0.039397 0.039268
v 0.009138 -0.038816 0.038846
v 0.008854 -0.041208 0.035286
v 0.006400 -0.041787 0.035504
v 0.006218 -0.042116 0.033646
v 0.006341 -0.042203 0.034515
v 0.008666 -0.041570 0.034251
v 0.008481 -0.041586 0.033361
v 0.006003 -0.041514 0.032623
v 0.006218 -0.042116 0.033646
v 0.008481 -0.041586 0.033361
v 0.008181 -0.040967 0.032341
v 0.004912 -0.036710 0.029514
v 0.005276 -0.038419 0.030442
v 0.007387 -0.037982 0.030273
v 0.006998 -0.036253 0.029389
v 0.004554 -0.034848 0.028801
v 0.006583 -0.034471 0.028618
v 0.005618 -0.039952 0.031410
v 0.007779 -0.039480 0.031168
v 0.004164 -0.032787 0.028052
v 0.006151 -0.032410 0.027843
v 0.007951 -0.033000 0.055769
v 0.011826 -0.032109 0.054836
v 0.008101 -0.032277 0.057217
v 0.012217 -0.031352 0.056207
v 0.011826 -0.032109 0.054836
v 0.007951 -0.033000 0.055769
v 0.015563 -0.030914 0.053435
v 0.014486 -0.032555 0.049155
v 0.018942 -0.029130 0.051183
v 0.017371 -0.030972 0.047157
v 0.021239 -0.027155 0.048322
v 0.019674 -0.029089 0.044667
v 0.022545 -0.024981 0.044885
v 0.021330 -0.027361 0.041846
v 0.010565 -0.040803 0.034046
v 0.010470 -0.040790 0.033140
v 0.012564 -0.039562 0.033884
v 0.012582 -0.039453 0.032972
v 0.014363 -0.038043 0.033929
v 0.014330 -0.038021 0.033068
v 0.015978 -0.036222 0.034286
v 0.015923 -0.036131 0.033458
v 0.017301 -0.034534 0.034839
v 0.017211 -0.034269 0.034154
v 0.018991 -0.031928 0.036067
v 0.018896 -0.031649 0.035291
v 0.020200 -0.029720 0.037292
v 0.020030 -0.029337 0.036407
v 0.021613 -0.026420 0.039271
v 0.021376 -0.026388 0.038163
v 0.022634 -0.023585 0.040988
v 0.022244 -0.022428 0.039620
v 0.012985 -0.035141 0.043673
v 0.015686 -0.033609 0.042215
v 0.018270 -0.031975 0.040213
v 0.011518 -0.038461 0.038086
v 0.013982 -0.037537 0.037076
v 0.012431 -0.039286 0.034966
v 0.012564 -0.039562 0.033884
v 0.010565 -0.040803 0.034046
v 0.010707 -0.040351 0.035138
v 0.015678 -0.036479 0.035179
v 0.015978 -0.036222 0.034286
v 0.014363 -0.038043 0.033929
v 0.014361 -0.037989 0.034855
v 0.018689 -0.032188 0.036847
v 0.018991 -0.031928 0.036067
v 0.017301 -0.034534 0.034839
v 0.016978 -0.034833 0.035670
v 0.008666 -0.041570 0.034251
v 0.019963 -0.030146 0.038173
v 0.021692 -0.026868 0.040458
v 0.021613 -0.026420 0.039271
v 0.020200 -0.029720 0.037292
v 0.012395 -0.038780 0.032267
v 0.012057 -0.037724 0.031464
v 0.009936 -0.038887 0.031102
v 0.010227 -0.040135 0.032196
v 0.009273 -0.035663 0.029458
v 0.009635 -0.037402 0.030258
v 0.011681 -0.036341 0.030589
v 0.011364 -0.035017 0.029936
v 0.011242 -0.033036 0.029233
v 0.008826 -0.033912 0.028688
v 0.010726 -0.030917 0.028339
v 0.008361 -0.031752 0.027933
v 0.012582 -0.039453 0.032972
v 0.010470 -0.040790 0.033140
v 0.013537 -0.031934 0.030140
v 0.012883 -0.029791 0.029228
v 0.015411 -0.030810 0.031221
v 0.014794 -0.028739 0.030346
v 0.016999 -0.029408 0.032678
v 0.016420 -0.027435 0.031772
v 0.013978 -0.037444 0.032368
v 0.014330 -0.038021 0.033068
v 0.015923 -0.036131 0.033458
v 0.015535 -0.035751 0.032830
v 0.013491 -0.036624 0.031707
v 0.015008 -0.034977 0.032108
v 0.018725 -0.027818 0.034479
v 0.018139 -0.025926 0.033556
v 0.020037 -0.026187 0.036328
v 0.019549 -0.024416 0.035564
v 0.016108 -0.032522 0.032192
v 0.014255 -0.033575 0.031082
v 0.019173 -0.028411 0.035165
v 0.018043 -0.030875 0.033955
v 0.016497 -0.033334 0.032774
v 0.012143 -0.034446 0.030111
v 0.012843 -0.035602 0.030898
v 0.016888 -0.033941 0.033441
v 0.017211 -0.034269 0.034154
v 0.018896 -0.031649 0.035291
v 0.018574 -0.031325 0.034572
v 0.019585 -0.028866 0.035766
v 0.020030 -0.029337 0.036407
v 0.020720 -0.026236 0.037264
v 0.021376 -0.026388 0.038163
v 0.022244 -0.022428 0.039620
v 0.021366 -0.022822 0.038344
v 0.022885 -0.024092 0.042406
v 0.022634 -0.023585 0.040988
v 0.015699 -0.029909 0.054698
v 0.019149 -0.028000 0.052456
v 0.018942 -0.029130 0.051183
v 0.015563 -0.030914 0.053435
v 0.022735 -0.024150 0.045459
v 0.022545 -0.024981 0.044885
v 0.021239 -0.027155 0.048322
v 0.021542 -0.026154 0.049613
v 0.023144 -0.023325 0.045946
v 0.022735 -0.024150 0.045459
v 0.021542 -0.026154 0.049613
v 0.022994 -0.022377 0.041479
v 0.022885 -0.024092 0.042406
v 0.023190 -0.022467 0.042938
v 0.023190 -0.022467 0.042938
v 0.006341 -0.042203 0.034515
v 0.003656 -0.036522 0.045504
v 0.003573 -0.034417 0.051358
v 0.003645 -0.039482 0.039469
v 0.004020 -0.041896 0.035803
v 0.004004 -0.042237 0.034868
v 0.003976 -0.042231 0.033949
v 0.003976 -0.042231 0.033949
v 0.003791 -0.041606 0.032934
v 0.003102 -0.038601 0.030854
v 0.002741 -0.036850 0.029961
v 0.002358 -0.035020 0.029241
v 0.003437 -0.040163 0.031792
v 0.001954 -0.033028 0.028437
v 0.003586 -0.033233 0.055967
v 0.003586 -0.033233 0.055967
v 0.003539 -0.032534 0.057426
v -0.000266 -0.034341 0.051005
v -0.000443 -0.033123 0.055645
v -0.004230 -0.033773 0.049844
v -0.004989 -0.032314 0.054252
v -0.007390 -0.032790 0.048248
v -0.008167 -0.031172 0.052286
v -0.009446 -0.031873 0.046148
v -0.010374 -0.030073 0.050227
v 0.001782 -0.042013 0.034282
v 0.001927 -0.042018 0.035182
v -0.000584 -0.041306 0.034704
v -0.000409 -0.041341 0.035578
v -0.002553 -0.040341 0.035318
v -0.002378 -0.040399 0.036130
v -0.004465 -0.039000 0.036139
v -0.004192 -0.039133 0.036961
v -0.005991 -0.037496 0.037125
v -0.005752 -0.037785 0.037853
v -0.007927 -0.035547 0.038618
v -0.007673 -0.035752 0.039339
v -0.009401 -0.033359 0.040186
v -0.009286 -0.033840 0.040787
v -0.010966 -0.030560 0.042352
v -0.011085 -0.031078 0.043206
v -0.012447 -0.027282 0.043751
v -0.012326 -0.028868 0.045706
v -0.000031 -0.036515 0.045130
v -0.003681 -0.035950 0.044400
v -0.006414 -0.035694 0.042186
v -0.008879 -0.034153 0.041696
v 0.000176 -0.039139 0.039450
v -0.003469 -0.038596 0.039028
v -0.005250 -0.037918 0.038690
v 0.001915 -0.041666 0.036080
v 0.001927 -0.042018 0.035182
v -0.000409 -0.041341 0.035578
v -0.000220 -0.041002 0.036501
v -0.002023 -0.040225 0.037116
v -0.002378 -0.040399 0.036130
v -0.004192 -0.039133 0.036961
v -0.003874 -0.039072 0.037821
v -0.005752 -0.037785 0.037853
v -0.007673 -0.035752 0.039339
v -0.007349 -0.035898 0.040192
v 0.004004 -0.042237 0.034868
v -0.011085 -0.031078 0.043206
v -0.010712 -0.031575 0.044678
v -0.009286 -0.033840 0.040787
v 0.001259 -0.040084 0.032281
v -0.000871 -0.039541 0.033111
v -0.000704 -0.040643 0.033958
v 0.001566 -0.041419 0.033277
v -0.001105 -0.038355 0.032362
v 0.000907 -0.038630 0.031406
v 0.000568 -0.036888 0.030602
v -0.001427 -0.036632 0.031514
v 0.000164 -0.035055 0.029844
v -0.002079 -0.034804 0.030960
v -0.000253 -0.033001 0.029148
v -0.002359 -0.032831 0.030090
v -0.000584 -0.041306 0.034704
v 0.001782 -0.042013 0.034282
v -0.004476 -0.032335 0.031581
v -0.004457 -0.034338 0.032636
v -0.006224 -0.031709 0.033108
v -0.006060 -0.033750 0.034073
v -0.007727 -0.030846 0.034945
v -0.007603 -0.032714 0.036023
v -0.004465 -0.039000 0.036139
v -0.002553 -0.040341 0.035318
v -0.002614 -0.039812 0.034616
v -0.004531 -0.038384 0.035502
v -0.002596 -0.039074 0.034025
v -0.009283 -0.029847 0.037192
v -0.009201 -0.031505 0.038327
v -0.010493 -0.028708 0.039544
v -0.010307 -0.030281 0.040411
v -0.006045 -0.035431 0.035105
v -0.004527 -0.035891 0.033640
v -0.009290 -0.032352 0.039067
v -0.007857 -0.034505 0.037426
v -0.006082 -0.036326 0.035799
v -0.004545 -0.037228 0.034594
v -0.002554 -0.037953 0.033234
v -0.002388 -0.036475 0.032113
v -0.007927 -0.035547 0.038618
v -0.005991 -0.037496 0.037125
v -0.006090 -0.037027 0.036526
v -0.007934 -0.035081 0.038056
v -0.009424 -0.032786 0.039691
v -0.009401 -0.033359 0.040186
v -0.010717 -0.030246 0.041510
v -0.012447 -0.027282 0.043751
v -0.010966 -0.030560 0.042352
v -0.011769 -0.027498 0.042410
v -0.012326 -0.028868 0.045706
v -0.011903 -0.029401 0.047834
v -0.004989 -0.032314 0.054252
v -0.005017 -0.031360 0.055517
v -0.000433 -0.032181 0.056885
v -0.000443 -0.033123 0.055645
v -0.010374 -0.030073 0.050227
v -0.010753 -0.028867 0.051545
v -0.008344 -0.030122 0.053670
v -0.008167 -0.031172 0.052286
v -0.012329 -0.026836 0.047364
v -0.011795 -0.026833 0.049620
v -0.011903 -0.029401 0.047834
v -0.010753 -0.028867 0.051545
v -0.010374 -0.030073 0.050227
vt 0.540785 0.533224
vt 0.556075 0.533688
vt 0.556055 0.554245
vt 0.538459 0.553742
vt 0.555696 0.511125
vt 0.544377 0.511347
vt 0.545586 0.497599
vt 0.555404 0.496801
vt 0.555196 0.491973
vt 0.555273 0.494011
vt 0.546009 0.494645
vt 0.546268 0.492365
vt 0.555090 0.488844
vt 0.555196 0.491973
vt 0.546268 0.492365
vt 0.546203 0.489026
vt 0.554702 0.471611
vt 0.554828 0.477540
vt 0.544461 0.478212
vt 0.543223 0.472338
vt 0.554561 0.465328
vt 0.541948 0.466259
vt 0.554959 0.482930
vt 0.545283 0.483383
vt 0.554424 0.459819
vt 0.540609 0.460814
vt 0.556511 0.569880
vt 0.536683 0.569244
vt 0.556205 0.574839
vt 0.535067 0.574395
vt 0.536683 0.569244
vt 0.556511 0.569880
vt 0.516870 0.566843
vt 0.520576 0.551387
vt 0.496838 0.561909
vt 0.503132 0.546926
vt 0.479648 0.554745
vt 0.486559 0.540805
vt 0.463887 0.545426
vt 0.472291 0.533124
vt 0.538344 0.495181
vt 0.538166 0.492794
vt 0.529066 0.495834
vt 0.528221 0.493331
vt 0.519648 0.497374
vt 0.519371 0.494785
vt 0.509780 0.499956
vt 0.509421 0.497211
vt 0.501200 0.502959
vt 0.500251 0.500453
vt 0.489056 0.509423
vt 0.487806 0.506518
vt 0.479208 0.515275
vt 0.477368 0.511923
vt 0.464982 0.524602
vt 0.464409 0.520264
vt 0.452653 0.532466
vt 0.450642 0.528627
vt 0.526594 0.531070
vt 0.510985 0.528240
vt 0.495135 0.523367
vt 0.534008 0.509720
vt 0.522561 0.507460
vt 0.529963 0.499120
vt 0.529066 0.495834
vt 0.538344 0.495181
vt 0.537856 0.498561
vt 0.512178 0.502603
vt 0.509780 0.499956
vt 0.519648 0.497374
vt 0.520319 0.500188
vt 0.491396 0.511974
vt 0.489056 0.509423
vt 0.501200 0.502959
vt 0.503650 0.505649
vt 0.546009 0.494645
vt 0.482133 0.518163
vt 0.467972 0.528683
vt 0.464982 0.524602
vt 0.479208 0.515275
vt 0.526940 0.490788
vt 0.525217 0.487040
vt 0.535710 0.484954
vt 0.537457 0.489629
vt 0.531088 0.474620
vt 0.533609 0.480174
vt 0.522817 0.482325
vt 0.520382 0.478170
vt 0.514392 0.473094
vt 0.528598 0.468816
vt 0.510679 0.468133
vt 0.525788 0.463424
vt 0.528221 0.493331
vt 0.538166 0.492794
vt 0.501494 0.479378
vt 0.496872 0.474602
vt 0.491021 0.485971
vt 0.485768 0.482150
vt 0.481191 0.493360
vt 0.475855 0.490269
vt 0.518565 0.491965
vt 0.519371 0.494785
vt 0.509421 0.497211
vt 0.509161 0.494492
vt 0.517499 0.488553
vt 0.508019 0.490786
vt 0.472109 0.502387
vt 0.466895 0.499867
vt 0.464134 0.511014
vt 0.459738 0.509496
vt 0.496488 0.491354
vt 0.505373 0.485183
vt 0.474262 0.505645
vt 0.486099 0.499821
vt 0.498501 0.494361
vt 0.515167 0.479293
vt 0.516423 0.484085
vt 0.499772 0.497480
vt 0.500251 0.500453
vt 0.487806 0.506518
vt 0.486976 0.503338
vt 0.475717 0.508749
vt 0.477368 0.511923
vt 0.463920 0.515780
vt 0.464409 0.520264
vt 0.450642 0.528627
vt 0.451889 0.521747
vt 0.456404 0.537649
vt 0.452653 0.532466
vt 0.515373 0.572024
vt 0.494369 0.567169
vt 0.496838 0.561909
vt 0.516870 0.566843
vt 0.461024 0.548201
vt 0.463887 0.545426
vt 0.479648 0.554745
vt 0.477109 0.559851
vt 0.457654 0.550676
vt 0.461024 0.548201
vt 0.477109 0.559851
vt 0.447484 0.535238
vt 0.456404 0.537649
vt 0.451001 0.539856
vt 0.451001 0.539856
vt 0.555273 0.494011
vt 0.571473 0.532249
vt 0.575048 0.552532
vt 0.568279 0.510498
vt 0.564719 0.496747
vt 0.564259 0.494201
vt 0.563767 0.491896
vt 0.563767 0.491896
vt 0.563838 0.488594
vt 0.565474 0.477665
vt 0.566592 0.471674
vt 0.568042 0.465512
vt 0.564604 0.483089
vt 0.569277 0.460206
vt 0.577648 0.568148
vt 0.577648 0.568148
vt 0.579149 0.573012
vt 0.593133 0.549125
vt 0.596712 0.564752
vt 0.611629 0.543211
vt 0.617990 0.558008
vt 0.626978 0.536639
vt 0.633726 0.550437
vt 0.637614 0.528926
vt 0.645578 0.542993
vt 0.572245 0.491639
vt 0.572209 0.493975
vt 0.582182 0.491457
vt 0.581972 0.494064
vt 0.591073 0.492568
vt 0.590814 0.495108
vt 0.600910 0.494437
vt 0.600101 0.497257
vt 0.610252 0.496816
vt 0.608970 0.499578
vt 0.622267 0.501678
vt 0.621135 0.504497
vt 0.633989 0.506918
vt 0.632105 0.509389
vt 0.648381 0.514533
vt 0.646431 0.518045
vt 0.661057 0.521033
vt 0.657396 0.526854
vt 0.588340 0.528755
vt 0.605097 0.524289
vt 0.616652 0.515209
vt 0.629786 0.512817
vt 0.583322 0.508654
vt 0.598824 0.504786
vt 0.606946 0.502756
vt 0.572836 0.496489
vt 0.572209 0.493975
vt 0.581972 0.494064
vt 0.581918 0.497169
vt 0.589927 0.498408
vt 0.590814 0.495108
vt 0.600101 0.497257
vt 0.599261 0.500260
vt 0.608970 0.499578
vt 0.621135 0.504497
vt 0.619635 0.507706
vt 0.564259 0.494201
vt 0.646431 0.518045
vt 0.643202 0.523282
vt 0.632105 0.509389
vt 0.574278 0.483656
vt 0.584512 0.484789
vt 0.583013 0.488706
vt 0.572780 0.488448
vt 0.586358 0.480880
vt 0.576148 0.478764
vt 0.578454 0.473095
vt 0.589522 0.475293
vt 0.581431 0.467101
vt 0.595509 0.470335
vt 0.584211 0.462041
vt 0.598535 0.465644
vt 0.582182 0.491457
vt 0.572245 0.491639
vt 0.612623 0.471601
vt 0.609411 0.476610
vt 0.624070 0.478156
vt 0.619318 0.482235
vt 0.634237 0.485691
vt 0.629856 0.489354
vt 0.600910 0.494437
vt 0.591073 0.492568
vt 0.591852 0.490002
vt 0.602216 0.491777
vt 0.592650 0.487270
vt 0.643295 0.494920
vt 0.639595 0.498134
vt 0.650667 0.504168
vt 0.647433 0.506026
vt 0.614511 0.487671
vt 0.606491 0.482298
vt 0.636763 0.501574
vt 0.624528 0.496021
vt 0.612658 0.491042
vt 0.604107 0.487329
vt 0.593898 0.483141
vt 0.595084 0.477237
vt 0.622267 0.501678
vt 0.610252 0.496816
vt 0.611385 0.494293
vt 0.623444 0.499110
vt 0.635870 0.504552
vt 0.633989 0.506918
vt 0.648943 0.510731
vt 0.661057 0.521033
vt 0.648381 0.514533
vt 0.659130 0.514620
vt 0.657396 0.526854
vt 0.653457 0.534422
vt 0.617990 0.558008
vt 0.619910 0.562863
vt 0.598040 0.569612
vt 0.596712 0.564752
vt 0.645578 0.542993
vt 0.650056 0.547929
vt 0.636831 0.555652
vt 0.633726 0.550437
vt 0.665766 0.533179
vt 0.662960 0.542333
vt 0.653457 0.534422
vt 0.650056 0.547929
vt 0.645578 0.542993
vn 0.271586 -0.886248 0.375241
vn 0.177928 -0.906324 0.383299
vn 0.170903 -0.948205 0.267769
vn 0.281283 -0.924294 0.257993
vn 0.167280 -0.859865 0.482337
vn 0.277979 -0.841763 0.462778
vn 0.337852 -0.858105 0.386667
vn 0.169418 -0.874999 0.453513
vn 0.052454 -0.851076 -0.522416
vn 0.172080 -0.924596 0.339870
vn 0.326748 -0.897361 0.296614
vn 0.198061 -0.808862 -0.553638
vn 0.019641 -0.751052 -0.659951
vn 0.053934 -0.855586 -0.514844
vn 0.195169 -0.813988 -0.547114
vn 0.156700 -0.712757 -0.683683
vn -0.060035 -0.423513 -0.903899
vn -0.042438 -0.508174 -0.860208
vn 0.072058 -0.471014 -0.879178
vn 0.072788 -0.402794 -0.912392
vn -0.081857 -0.368182 -0.926143
vn 0.052122 -0.360317 -0.931373
vn -0.025917 -0.580300 -0.813990
vn 0.087774 -0.556633 -0.826108
vn -0.080890 -0.364920 -0.927518
vn 0.054363 -0.341469 -0.938320
vn 0.165617 -0.960108 0.225308
vn 0.304835 -0.925385 0.225254
vn 0.192002 -0.498783 0.845193
vn 0.405157 -0.423028 0.810490
vn 0.296681 -0.928909 0.221605
vn 0.165404 -0.960178 0.225168
vn 0.461393 -0.860971 0.214116
vn 0.448389 -0.863426 0.231178
vn 0.619426 -0.776104 0.118210
vn 0.635040 -0.758945 0.143971
vn 0.748520 -0.662751 0.021899
vn 0.755094 -0.647357 0.103741
vn 0.854321 -0.519687 0.007860
vn 0.850780 -0.518432 0.086027
vn 0.457394 -0.847486 0.269365
vn 0.326487 -0.727325 -0.603659
vn 0.560849 -0.798547 0.218565
vn 0.442275 -0.615717 -0.652139
vn 0.668826 -0.734691 0.113580
vn 0.567181 -0.485156 -0.665530
vn 0.760692 -0.646017 0.063325
vn 0.700259 -0.370997 -0.609917
vn 0.793655 -0.600847 0.095364
vn 0.783409 -0.318579 -0.533646
vn 0.829931 -0.551658 0.082997
vn 0.828008 -0.200126 -0.523786
vn 0.889925 -0.455691 -0.019441
vn 0.823669 -0.065089 -0.563323
vn 0.936757 -0.319412 -0.143046
vn 0.813693 0.023834 -0.580805
vn 0.948708 -0.238274 -0.207794
vn 0.814966 0.047294 -0.577575
vn 0.428983 -0.835056 0.344463
vn 0.629848 -0.728161 0.270320
vn 0.738284 -0.643512 0.202060
vn 0.370780 -0.834785 0.407010
vn 0.581961 -0.753458 0.305979
vn 0.521958 -0.798934 0.298770
vn 0.549031 -0.799508 0.243621
vn 0.447167 -0.845437 0.292023
vn 0.447778 -0.819931 0.356662
vn 0.736711 -0.655730 0.165152
vn 0.758700 -0.647898 0.067844
vn 0.693108 -0.719444 0.044750
vn 0.664041 -0.730772 0.158181
vn 0.804173 -0.580683 0.126935
vn 0.815518 -0.568988 0.105753
vn 0.794646 -0.599731 0.094132
vn 0.763806 -0.627799 0.149897
vn 0.339732 -0.902272 0.265495
vn 0.843749 -0.531697 0.073381
vn 0.919497 -0.389988 -0.049338
vn 0.942168 -0.282089 -0.180955
vn 0.886829 -0.461978 -0.010555
vn 0.432730 -0.533421 -0.726778
vn 0.405730 -0.430913 -0.806038
vn 0.253031 -0.520589 -0.815452
vn 0.299614 -0.660453 -0.688501
vn 0.220198 -0.358364 -0.907242
vn 0.231798 -0.414199 -0.880175
vn 0.384911 -0.369896 -0.845589
vn 0.361452 -0.320115 -0.875716
vn 0.382360 -0.274002 -0.882453
vn 0.208841 -0.314040 -0.926156
vn 0.370819 -0.277550 -0.886261
vn 0.207022 -0.301099 -0.930850
vn 0.441444 -0.603194 -0.664292
vn 0.325165 -0.740932 -0.587611
vn 0.518379 -0.223881 -0.825324
vn 0.518772 -0.196221 -0.832089
vn 0.644279 -0.143281 -0.751249
vn 0.642523 -0.134297 -0.754406
vn 0.733029 -0.082439 -0.675183
vn 0.730646 -0.097276 -0.675791
vn 0.534486 -0.417436 -0.734896
vn 0.565565 -0.478272 -0.671858
vn 0.692520 -0.340267 -0.636109
vn 0.647786 -0.323679 -0.689642
vn 0.493432 -0.343627 -0.799028
vn 0.581245 -0.280226 -0.763955
vn 0.791948 -0.073246 -0.606179
vn 0.790782 -0.052116 -0.609875
vn 0.818889 -0.003911 -0.573938
vn 0.831462 -0.010722 -0.555478
vn 0.657827 -0.177141 -0.732041
vn 0.539969 -0.256467 -0.801660
vn 0.801681 -0.052451 -0.595447
vn 0.737802 -0.066849 -0.671698
vn 0.682486 -0.228957 -0.694112
vn 0.455418 -0.272177 -0.847652
vn 0.482763 -0.300588 -0.822549
vn 0.745156 -0.304680 -0.593222
vn 0.785218 -0.330271 -0.523788
vn 0.839493 -0.243909 -0.485551
vn 0.794033 -0.154064 -0.588027
vn 0.806009 -0.036421 -0.590782
vn 0.815038 -0.046233 -0.577560
vn 0.808963 0.012125 -0.587735
vn 0.809597 0.018653 -0.586689
vn 0.817592 0.028590 -0.575088
vn 0.822162 0.021095 -0.568862
vn 0.933452 -0.345677 -0.095782
vn 0.950703 -0.197415 -0.239146
vn 0.567729 -0.335813 0.751607
vn 0.726363 -0.242360 0.643163
vn 0.618430 -0.775785 0.125311
vn 0.444332 -0.872645 0.202633
vn 0.947719 -0.307028 0.086963
vn 0.854989 -0.518586 0.007958
vn 0.747181 -0.662256 0.056016
vn 0.894487 -0.204160 0.397758
vn 0.903314 -0.427730 -0.032719
vn 0.902695 -0.429262 -0.029602
vn 0.887716 -0.459160 0.033655
vn 0.963113 -0.171711 -0.207193
vn 0.931478 -0.352718 -0.089094
vn 0.913193 -0.397276 -0.090836
vn 0.913763 -0.394141 -0.098433
vn 0.170402 -0.918623 0.356503
vn 0.026759 -0.920008 0.390985
vn 0.020569 -0.956692 0.290373
vn -0.004442 -0.869022 0.494754
vn 0.027433 -0.892058 0.451087
vn 0.019547 -0.933757 0.357373
vn -0.090274 -0.861614 -0.499471
vn -0.095195 -0.856722 -0.506918
vn -0.110982 -0.758363 -0.642315
vn -0.165105 -0.508068 -0.845344
vn -0.195821 -0.430870 -0.880912
vn -0.192471 -0.395035 -0.898277
vn -0.140444 -0.585625 -0.798322
vn -0.192126 -0.388299 -0.901283
vn 0.010001 -0.968273 0.249696
vn 0.016635 -0.969547 0.244340
vn -0.051169 -0.512707 0.857037
vn -0.131396 -0.947165 0.292599
vn -0.130949 -0.958233 0.254247
vn -0.325917 -0.901014 0.286271
vn -0.336786 -0.909677 0.243028
vn -0.496533 -0.826808 0.264279
vn -0.492225 -0.840357 0.226970
vn -0.578840 -0.768537 0.272572
vn -0.601529 -0.772400 0.203867
vn -0.253337 -0.832773 -0.492249
vn -0.117213 -0.926313 0.358059
vn -0.425463 -0.752237 -0.503111
vn -0.252459 -0.903260 0.346966
vn -0.566900 -0.662360 -0.489800
vn -0.374882 -0.876799 0.301143
vn -0.693345 -0.583308 -0.423113
vn -0.494799 -0.831510 0.252518
vn -0.770124 -0.528421 -0.357324
vn -0.590234 -0.780775 0.204972
vn -0.837930 -0.435351 -0.329156
vn -0.665748 -0.731050 0.149481
vn -0.895494 -0.308925 -0.320400
vn -0.752614 -0.652923 0.085234
vn -0.905159 -0.222889 -0.361949
vn -0.820743 -0.569216 0.048733
vn -0.898193 -0.204436 -0.389172
vn -0.852599 -0.521124 0.038795
vn -0.130016 -0.914976 0.381988
vn -0.303464 -0.877807 0.370626
vn -0.473508 -0.808580 0.349269
vn -0.665626 -0.716920 0.207286
vn -0.137884 -0.864356 0.483608
vn -0.304118 -0.841756 0.446049
vn -0.504389 -0.807370 0.306179
vn -0.108146 -0.883713 0.455363
vn -0.111944 -0.925526 0.361759
vn -0.253749 -0.891049 0.376354
vn -0.214322 -0.866262 0.451282
vn -0.296878 -0.862779 0.409238
vn -0.371981 -0.876250 0.306295
vn -0.492940 -0.832287 0.253589
vn -0.440736 -0.831670 0.337754
vn -0.580322 -0.780524 0.232400
vn -0.666980 -0.731471 0.141735
vn -0.612704 -0.757528 0.225268
vn 0.011224 -0.938593 0.344844
vn -0.825032 -0.564245 0.030800
vn -0.722479 -0.669696 0.171849
vn -0.741643 -0.661294 0.112495
vn -0.308054 -0.578460 -0.755306
vn -0.456984 -0.558069 -0.692622
vn -0.453232 -0.649034 -0.611012
vn -0.273556 -0.744453 -0.609062
vn -0.478722 -0.490416 -0.728229
vn -0.322974 -0.501266 -0.802758
vn -0.334770 -0.435122 -0.835822
vn -0.476714 -0.438714 -0.761757
vn -0.346018 -0.396917 -0.850134
vn -0.511393 -0.399242 -0.760975
vn -0.363429 -0.376574 -0.852122
vn -0.496248 -0.405323 -0.767757
vn -0.441222 -0.723060 -0.531514
vn -0.232415 -0.856658 -0.460566
vn -0.638625 -0.365795 -0.677017
vn -0.637706 -0.384049 -0.667710
vn -0.752309 -0.337024 -0.566079
vn -0.753477 -0.335385 -0.565499
vn -0.822793 -0.328195 -0.464003
vn -0.834239 -0.287889 -0.470282
vn -0.701475 -0.553850 -0.448535
vn -0.559076 -0.681156 -0.472716
vn -0.568275 -0.602305 -0.560618
vn -0.693187 -0.502783 -0.516431
vn -0.578040 -0.483148 -0.657600
vn -0.870813 -0.308396 -0.382853
vn -0.878260 -0.276937 -0.389828
vn -0.909037 -0.278502 -0.309980
vn -0.911474 -0.251284 -0.325687
vn -0.749388 -0.368588 -0.550054
vn -0.647353 -0.412409 -0.640979
vn -0.887991 -0.250033 -0.385948
vn -0.840324 -0.307494 -0.446434
vn -0.750485 -0.429429 -0.502358
vn -0.658127 -0.454257 -0.600433
vn -0.582744 -0.453256 -0.674514
vn -0.565507 -0.428495 -0.704694
vn -0.839064 -0.429515 -0.333899
vn -0.760395 -0.559642 -0.329545
vn -0.760819 -0.510856 -0.400226
vn -0.843337 -0.383176 -0.376775
vn -0.898746 -0.275736 -0.340917
vn -0.895294 -0.314650 -0.315348
vn -0.908646 -0.231164 -0.347743
vn -0.889879 -0.215607 -0.402031
vn -0.904416 -0.241667 -0.351610
vn -0.895665 -0.218846 -0.387157
vn -0.851760 -0.522493 0.038809
vn -0.702640 -0.692147 0.165016
vn -0.319350 -0.913914 0.250553
vn -0.442971 -0.403953 0.800375
vn -0.257281 -0.461209 0.849172
vn -0.130075 -0.958283 0.254509
vn -0.597180 -0.775736 0.203986
vn -0.823568 -0.239235 0.514298
vn -0.636080 -0.339536 0.692906
vn -0.491016 -0.840340 0.229634
vn -0.926686 -0.148379 0.345306
vn -0.926683 -0.148372 0.345319
vn -0.704051 -0.690583 0.165550
vn -0.849634 -0.269913 0.453066
vn -0.597163 -0.775754 0.203964
f 3/3/3 2/2/2 1/1/1
f 1/1/1 4/4/4 3/3/3
f 1/1/1 2/2/2 5/5/5
f 5/5/5 6/6/6 1/1/1
f 8/8/8 7/7/7 6/6/6
f 6/6/6 5/5/5 8/8/8
f 11/11/11 10/10/10 9/9/9
f 9/9/9 12/12/12 11/11/11
f 15/15/15 14/14/14 13/13/13
f 13/13/13 16/16/16 15/15/15
f 19/19/19 18/18/18 17/17/17
f 17/17/17 20/20/20 19/19/19
f 20/20/20 17/17/17 21/21/21
f 21/21/21 22/22/22 20/20/20
f 24/24/24 23/23/23 18/18/18
f 18/18/18 19/19/19 24/24/24
f 22/22/22 21/21/21 25/25/25
f 25/25/25 26/26/26 22/22/22
f 16/16/16 13/13/13 23/23/23
f 23/23/23 24/24/24 16/16/16
f 4/4/4 28/28/28 27/27/27
f 27/27/27 3/3/3 4/4/4
f 31/31/31 30/30/30 29/29/29
f 29/29/29 32/32/32 31/31/31
f 34/34/34 33/33/33 28/28/28
f 28/28/28 4/4/4 34/34/34
f 35/35/35 33/33/33 34/34/34
f 34/34/34 36/36/36 35/35/35
f 37/37/37 35/35/35 36/36/36
f 36/36/36 38/38/38 37/37/37
f 39/39/39 37/37/37 38/38/38
f 38/38/38 40/40/40 39/39/39
f 12/12/12 42/42/42 41/41/41
f 41/41/41 11/11/11 12/12/12
f 42/42/42 44/44/44 43/43/43
f 43/43/43 41/41/41 42/42/42
f 44/44/44 46/46/46 45/45/45
f 45/45/45 43/43/43 44/44/44
f 46/46/46 48/48/48 47/47/47
f 47/47/47 45/45/45 46/46/46
f 48/48/48 50/50/50 49/49/49
f 49/49/49 47/47/47 48/48/48
f 50/50/50 52/52/52 51/51/51
f 51/51/51 49/49/49 50/50/50
f 52/52/52 54/54/54 53/53/53
f 53/53/53 51/51/51 52/52/52
f 54/54/54 56/56/56 55/55/55
f 55/55/55 53/53/53 54/54/54
f 56/56/56 58/58/58 57/57/57
f 57/57/57 55/55/55 56/56/56
f 34/34/34 4/4/4 1/1/1
f 1/1/1 59/59/59 34/34/34
f 36/36/36 34/34/34 59/59/59
f 59/59/59 60/60/60 36/36/36
f 38/38/38 36/36/36 60/60/60
f 60/60/60 61/61/61 38/38/38
f 38/38/38 61/61/61 40/40/40
f 59/59/59 1/1/1 6/6/6
f 6/6/6 62/62/62 59/59/59
f 59/59/59 62/62/62 63/63/63
f 63/63/63 60/60/60 59/59/59
f 60/60/60 63/63/63 61/61/61
f 66/66/66 65/65/65 64/64/64
f 64/64/64 67/67/67 66/66/66
f 70/70/70 69/69/69 68/68/68
f 68/68/68 71/71/71 70/70/70
f 74/74/74 73/73/73 72/72/72
f 72/72/72 75/75/75 74/74/74
f 75/75/75 61/61/61 63/63/63
f 76/76/76 66/66/66 67/67/67
f 67/67/67 7/7/7 76/76/76
f 65/65/65 70/70/70 71/71/71
f 71/71/71 64/64/64 65/65/65
f 69/69/69 74/74/74 75/75/75
f 75/75/75 68/68/68 69/69/69
f 6/6/6 7/7/7 67/67/67
f 67/67/67 62/62/62 6/6/6
f 64/64/64 63/63/63 62/62/62
f 64/64/64 71/71/71 63/63/63
f 68/68/68 75/75/75 63/63/63
f 63/63/63 71/71/71 68/68/68
f 62/62/62 67/67/67 64/64/64
f 77/77/77 40/40/40 61/61/61
f 80/80/80 79/79/79 78/78/78
f 78/78/78 77/77/77 80/80/80
f 73/73/73 80/80/80 77/77/77
f 77/77/77 72/72/72 73/73/73
f 72/72/72 77/77/77 61/61/61
f 75/75/75 72/72/72 61/61/61
f 83/83/83 82/82/82 81/81/81
f 81/81/81 84/84/84 83/83/83
f 87/87/87 86/86/86 85/85/85
f 85/85/85 88/88/88 87/87/87
f 90/90/90 89/89/89 88/88/88
f 88/88/88 85/85/85 90/90/90
f 86/86/86 87/87/87 82/82/82
f 82/82/82 83/83/83 86/86/86
f 92/92/92 91/91/91 89/89/89
f 89/89/89 90/90/90 92/92/92
f 84/84/84 16/16/16 24/24/24
f 24/24/24 83/83/83 84/84/84
f 20/20/20 85/85/85 86/86/86
f 86/86/86 19/19/19 20/20/20
f 92/92/92 90/90/90 22/22/22
f 22/22/22 26/26/26 92/92/92
f 84/84/84 81/81/81 93/93/93
f 93/93/93 94/94/94 84/84/84
f 16/16/16 84/84/84 94/94/94
f 94/94/94 15/15/15 16/16/16
f 19/19/19 86/86/86 83/83/83
f 83/83/83 24/24/24 19/19/19
f 85/85/85 20/20/20 22/22/22
f 22/22/22 90/90/90 85/85/85
f 91/91/91 96/96/96 95/95/95
f 95/95/95 89/89/89 91/91/91
f 96/96/96 98/98/98 97/97/97
f 97/97/97 95/95/95 96/96/96
f 98/98/98 100/100/100 99/99/99
f 99/99/99 97/97/97 98/98/98
f 103/103/103 102/102/102 101/101/101
f 101/101/101 104/104/104 103/103/103
f 104/104/104 101/101/101 105/105/105
f 105/105/105 106/106/106 104/104/104
f 101/101/101 81/81/81 82/82/82
f 82/82/82 105/105/105 101/101/101
f 102/102/102 93/93/93 81/81/81
f 81/81/81 101/101/101 102/102/102
f 100/100/100 108/108/108 107/107/107
f 107/107/107 99/99/99 100/100/100
f 108/108/108 110/110/110 109/109/109
f 109/109/109 107/107/107 108/108/108
f 95/95/95 97/97/97 111/111/111
f 111/111/111 112/112/112 95/95/95
f 99/99/99 107/107/107 113/113/113
f 113/113/113 114/114/114 99/99/99
f 112/112/112 111/111/111 115/115/115
f 115/115/115 106/106/106 112/112/112
f 106/106/106 117/117/117 116/116/116
f 116/116/116 112/112/112 106/106/106
f 88/88/88 116/116/116 117/117/117
f 117/117/117 87/87/87 88/88/88
f 89/89/89 95/95/95 112/112/112
f 112/112/112 116/116/116 89/89/89
f 89/89/89 116/116/116 88/88/88
f 97/97/97 99/99/99 114/114/114
f 114/114/114 111/111/111 97/97/97
f 120/120/120 119/119/119 118/118/118
f 118/118/118 121/121/121 120/120/120
f 119/119/119 103/103/103 104/104/104
f 104/104/104 118/118/118 119/119/119
f 115/115/115 114/114/114 121/121/121
f 121/121/121 118/118/118 115/115/115
f 106/106/106 115/115/115 118/118/118
f 118/118/118 104/104/104 106/106/106
f 111/111/111 114/114/114 115/115/115
f 87/87/87 117/117/117 105/105/105
f 105/105/105 82/82/82 87/87/87
f 122/122/122 121/121/121 114/114/114
f 114/114/114 113/113/113 122/122/122
f 121/121/121 122/122/122 123/123/123
f 123/123/123 120/120/120 121/121/121
f 124/124/124 122/122/122 113/113/113
f 113/113/113 109/109/109 124/124/124
f 107/107/107 109/109/109 113/113/113
f 126/126/126 125/125/125 124/124/124
f 124/124/124 127/127/127 126/126/126
f 109/109/109 110/110/110 127/127/127
f 127/127/127 124/124/124 109/109/109
f 125/125/125 123/123/123 122/122/122
f 122/122/122 124/124/124 125/125/125
f 78/78/78 40/40/40 77/77/77
f 79/79/79 129/129/129 128/128/128
f 128/128/128 78/78/78 79/79/79
f 78/78/78 128/128/128 40/40/40
f 128/128/128 39/39/39 40/40/40
f 117/117/117 106/106/106 105/105/105
f 132/132/132 131/131/131 130/130/130
f 130/130/130 133/133/133 132/132/132
f 136/136/136 135/135/135 134/134/134
f 134/134/134 137/137/137 136/136/136
f 140/140/140 139/139/139 138/138/138
f 130/130/130 30/30/30 31/31/31
f 31/31/31 133/133/133 130/130/130
f 136/136/136 137/137/137 131/131/131
f 131/131/131 132/132/132 136/136/136
f 142/142/142 57/57/57 141/141/141
f 141/141/141 143/143/143 142/142/142
f 143/143/143 134/134/134 135/135/135
f 135/135/135 142/142/142 143/143/143
f 141/141/141 57/57/57 58/58/58
f 138/138/138 139/139/139 144/144/144
f 7/7/7 8/8/8 145/145/145
f 145/145/145 76/76/76 7/7/7
f 3/3/3 147/147/147 146/146/146
f 146/146/146 2/2/2 3/3/3
f 146/146/146 148/148/148 5/5/5
f 5/5/5 2/2/2 146/146/146
f 8/8/8 5/5/5 148/148/148
f 148/148/148 149/149/149 8/8/8
f 9/9/9 10/10/10 150/150/150
f 150/150/150 151/151/151 9/9/9
f 13/13/13 14/14/14 152/152/152
f 152/152/152 153/153/153 13/13/13
f 17/17/17 18/18/18 154/154/154
f 154/154/154 155/155/155 17/17/17
f 21/21/21 17/17/17 155/155/155
f 155/155/155 156/156/156 21/21/21
f 18/18/18 23/23/23 157/157/157
f 157/157/157 154/154/154 18/18/18
f 25/25/25 21/21/21 156/156/156
f 156/156/156 158/158/158 25/25/25
f 23/23/23 13/13/13 153/153/153
f 153/153/153 157/157/157 23/23/23
f 27/27/27 159/159/159 147/147/147
f 147/147/147 3/3/3 27/27/27
f 29/29/29 161/161/161 160/160/160
f 160/160/160 32/32/32 29/29/29
f 159/159/159 163/163/163 162/162/162
f 162/162/162 147/147/147 159/159/159
f 163/163/163 165/165/165 164/164/164
f 164/164/164 162/162/162 163/163/163
f 167/167/167 166/166/166 164/164/164
f 164/164/164 165/165/165 167/167/167
f 167/167/167 169/169/169 168/168/168
f 168/168/168 166/166/166 167/167/167
f 171/171/171 170/170/170 151/151/151
f 151/151/151 150/150/150 171/171/171
f 173/173/173 172/172/172 170/170/170
f 170/170/170 171/171/171 173/173/173
f 175/175/175 174/174/174 172/172/172
f 172/172/172 173/173/173 175/175/175
f 177/177/177 176/176/176 174/174/174
f 174/174/174 175/175/175 177/177/177
f 179/179/179 178/178/178 176/176/176
f 176/176/176 177/177/177 179/179/179
f 181/181/181 180/180/180 178/178/178
f 178/178/178 179/179/179 181/181/181
f 183/183/183 182/182/182 180/180/180
f 180/180/180 181/181/181 183/183/183
f 185/185/185 184/184/184 182/182/182
f 182/182/182 183/183/183 185/185/185
f 187/187/187 186/186/186 184/184/184
f 184/184/184 185/185/185 187/187/187
f 188/188/188 146/146/146 147/147/147
f 147/147/147 162/162/162 188/188/188
f 189/189/189 188/188/188 162/162/162
f 162/162/162 164/164/164 189/189/189
f 166/166/166 190/190/190 189/189/189
f 189/189/189 164/164/164 166/166/166
f 168/168/168 191/191/191 190/190/190
f 188/188/188 192/192/192 148/148/148
f 148/148/148 146/146/146 188/188/188
f 193/193/193 192/192/192 188/188/188
f 188/188/188 189/189/189 193/193/193
f 190/190/190 194/194/194 193/193/193
f 197/197/197 196/196/196 195/195/195
f 195/195/195 198/198/198 197/197/197
f 201/201/201 200/200/200 199/199/199
f 199/199/199 202/202/202 201/201/201
f 204/204/204 203/203/203 194/194/194
f 194/194/194 205/205/205 204/204/204
f 193/193/193 189/189/189 190/190/190
f 206/206/206 149/149/149 195/195/195
f 195/195/195 196/196/196 206/206/206
f 200/200/200 197/197/197 198/198/198
f 198/198/198 199/199/199 200/200/200
f 203/203/203 201/201/201 202/202/202
f 202/202/202 194/194/194 203/203/203
f 148/148/148 192/192/192 195/195/195
f 148/148/148 195/195/195 149/149/149
f 192/192/192 193/193/193 199/199/199
f 192/192/192 199/199/199 198/198/198
f 202/202/202 193/193/193 194/194/194
f 199/199/199 193/193/193 202/202/202
f 192/192/192 198/198/198 195/195/195
f 190/190/190 166/166/166 168/168/168
f 191/191/191 208/208/208 207/207/207
f 207/207/207 209/209/209 191/191/191
f 209/209/209 204/204/204 205/205/205
f 205/205/205 191/191/191 209/209/209
f 205/205/205 190/190/190 191/191/191
f 194/194/194 190/190/190 205/205/205
f 212/212/212 211/211/211 210/210/210
f 210/210/210 213/213/213 212/212/212
f 216/216/216 215/215/215 214/214/214
f 214/214/214 217/217/217 216/216/216
f 217/217/217 219/219/219 218/218/218
f 218/218/218 216/216/216 217/217/217
f 211/211/211 214/214/214 215/215/215
f 215/215/215 210/210/210 211/211/211
f 219/219/219 221/221/221 220/220/220
f 220/220/220 218/218/218 219/219/219
f 157/157/157 153/153/153 213/213/213
f 213/213/213 210/210/210 157/157/157
f 215/215/215 216/216/216 155/155/155
f 155/155/155 154/154/154 215/215/215
f 158/158/158 156/156/156 218/218/218
f 218/218/218 220/220/220 158/158/158
f 222/222/222 212/212/212 213/213/213
f 213/213/213 223/223/223 222/222/222
f 223/223/223 213/213/213 153/153/153
f 153/153/153 152/152/152 223/223/223
f 210/210/210 215/215/215 154/154/154
f 154/154/154 157/157/157 210/210/210
f 156/156/156 155/155/155 216/216/216
f 216/216/216 218/218/218 156/156/156
f 225/225/225 224/224/224 221/221/221
f 221/221/221 219/219/219 225/225/225
f 227/227/227 226/226/226 224/224/224
f 224/224/224 225/225/225 227/227/227
f 229/229/229 228/228/228 226/226/226
f 226/226/226 227/227/227 229/229/229
f 232/232/232 231/231/231 230/230/230
f 230/230/230 233/233/233 232/232/232
f 232/232/232 233/233/233 234/234/234
f 211/211/211 212/212/212 232/232/232
f 232/232/232 234/234/234 211/211/211
f 212/212/212 222/222/222 231/231/231
f 231/231/231 232/232/232 212/212/212
f 236/236/236 235/235/235 228/228/228
f 228/228/228 229/229/229 236/236/236
f 238/238/238 237/237/237 235/235/235
f 235/235/235 236/236/236 238/238/238
f 239/239/239 227/227/227 225/225/225
f 225/225/225 240/240/240 239/239/239
f 241/241/241 236/236/236 229/229/229
f 229/229/229 242/242/242 241/241/241
f 243/243/243 239/239/239 240/240/240
f 240/240/240 244/244/244 243/243/243
f 246/246/246 245/245/245 244/244/244
f 244/244/244 240/240/240 246/246/246
f 245/245/245 246/246/246 217/217/217
f 217/217/217 214/214/214 245/245/245
f 240/240/240 225/225/225 219/219/219
f 219/219/219 246/246/246 240/240/240
f 219/219/219 217/217/217 246/246/246
f 242/242/242 229/229/229 227/227/227
f 227/227/227 239/239/239 242/242/242
f 249/249/249 248/248/248 247/247/247
f 247/247/247 250/250/250 249/249/249
f 233/233/233 230/230/230 248/248/248
f 248/248/248 249/249/249 233/233/233
f 250/250/250 242/242/242 243/243/243
f 243/243/243 249/249/249 250/250/250
f 249/249/249 243/243/243 244/244/244
f 244/244/244 233/233/233 249/249/249
f 239/239/239 243/243/243 242/242/242
f 245/245/245 234/234/234 233/233/233
f 233/233/233 244/244/244 245/245/245
f 234/234/234 245/245/245 214/214/214
f 214/214/214 211/211/211 234/234/234
f 242/242/242 250/250/250 251/251/251
f 251/251/251 241/241/241 242/242/242
f 252/252/252 251/251/251 250/250/250
f 250/250/250 247/247/247 252/252/252
f 241/241/241 251/251/251 253/253/253
f 253/253/253 238/238/238 241/241/241
f 236/236/236 241/241/241 238/238/238
f 253/253/253 255/255/255 254/254/254
f 254/254/254 256/256/256 253/253/253
f 256/256/256 237/237/237 238/238/238
f 238/238/238 253/253/253 256/256/256
f 251/251/251 252/252/252 255/255/255
f 255/255/255 253/253/253 251/251/251
f 208/208/208 191/191/191 168/168/168
f 257/257/257 207/207/207 208/208/208
f 208/208/208 258/258/258 257/257/257
f 208/208/208 168/168/168 258/258/258
f 258/258/258 168/168/168 169/169/169
f 261/261/261 260/260/260 259/259/259
f 259/259/259 262/262/262 261/261/261
f 265/265/265 264/264/264 263/263/263
f 263/263/263 266/266/266 265/265/265
f 160/160/160 161/161/161 261/261/261
f 261/261/261 262/262/262 160/160/160
f 260/260/260 265/265/265 266/266/266
f 266/266/266 259/259/259 260/260/260
f 269/269/269 268/268/268 267/267/267
f 267/267/267 187/187/187 269/269/269
f 269/269/269 271/271/271 270/270/270
f 270/270/270 268/268/268 269/269/269
f 267/267/267 186/186/186 187/187/187
f 145/145/145 8/8/8 149/149/149
f 149/149/149 206/206/206 145/145/145
