# GloomhavenVR - valve-index right 'thumbstick' (glTF material 0)
# generated by controllers_pipeline.py from webxr-input-profiles (MIT)
o index_right_thumbstick__m0
v 0.007082 0.000819 0.057233
v 0.008269 0.000779 0.057511
v 0.006979 -0.000068 0.058364
v 0.008189 0.000086 0.058394
v 0.007252 -0.000948 0.059471
v 0.008401 -0.000601 0.059259
v 0.007881 -0.001760 0.060481
v 0.008893 -0.001235 0.060048
v 0.008824 -0.002450 0.061323
v 0.009629 -0.001774 0.060706
v 0.010016 -0.002970 0.061942
v 0.010561 -0.002181 0.061189
v 0.011377 -0.003286 0.062294
v 0.011624 -0.002427 0.061464
v 0.012813 -0.003374 0.062355
v 0.012745 -0.002496 0.061512
v 0.014228 -0.003230 0.062122
v 0.013850 -0.002383 0.061329
v 0.015523 -0.002863 0.061610
v 0.014862 -0.002097 0.060930
v 0.016612 -0.002299 0.060854
v 0.015712 -0.001656 0.060339
v 0.017419 -0.001575 0.059906
v 0.016343 -0.001091 0.059599
v 0.017891 -0.000741 0.058830
v 0.016711 -0.000439 0.058758
v 0.017994 0.000146 0.057700
v 0.016791 0.000254 0.057875
v 0.017721 0.001026 0.056592
v 0.016579 0.000941 0.057010
v 0.017092 0.001838 0.055582
v 0.016088 0.001575 0.056222
v 0.016149 0.002528 0.054740
v 0.015351 0.002114 0.055564
v 0.014957 0.003049 0.054121
v 0.014420 0.002521 0.055081
v 0.013596 0.003364 0.053769
v 0.013357 0.002767 0.054806
v 0.012159 0.003452 0.053708
v 0.012235 0.002836 0.054758
v 0.010745 0.003308 0.053941
v 0.011130 0.002724 0.054940
v 0.009450 0.002942 0.054453
v 0.010118 0.002437 0.055340
v 0.008361 0.002377 0.055209
v 0.009268 0.001996 0.055930
v 0.007554 0.001653 0.056157
v 0.008637 0.001431 0.056671
v 0.006207 0.000619 0.056849
v 0.006088 -0.000410 0.058161
v 0.006403 -0.001431 0.059446
v 0.007133 -0.002374 0.060618
v 0.008227 -0.003174 0.061595
v 0.009611 -0.003778 0.062313
v 0.011190 -0.004143 0.062721
v 0.012857 -0.004246 0.062792
v 0.014498 -0.004079 0.062522
v 0.016001 -0.003653 0.061928
v 0.017264 -0.002998 0.061051
v 0.018201 -0.002158 0.059950
v 0.018748 -0.001191 0.058702
v 0.018867 -0.000162 0.057391
v 0.018551 0.000859 0.056105
v 0.017821 0.001802 0.054934
v 0.016727 0.002602 0.053956
v 0.015344 0.003206 0.053239
v 0.013765 0.003572 0.052831
v 0.012098 0.003675 0.052759
v 0.010457 0.003507 0.053030
v 0.008954 0.003082 0.053624
v 0.007691 0.002427 0.054501
v 0.006754 0.001587 0.055601
v 0.005878 0.000221 0.056453
v 0.005752 -0.000860 0.057831
v 0.006084 -0.001932 0.059181
v 0.006851 -0.002923 0.060412
v 0.008000 -0.003764 0.061439
v 0.009454 -0.004398 0.062193
v 0.011112 -0.004782 0.062622
v 0.012863 -0.004890 0.062697
v 0.014587 -0.004715 0.062412
v 0.016166 -0.004267 0.061788
v 0.017493 -0.003579 0.060867
v 0.018478 -0.002697 0.059711
v 0.019052 -0.001680 0.058400
v 0.019178 -0.000599 0.057022
v 0.018846 0.000473 0.055672
v 0.018079 0.001464 0.054441
v 0.016930 0.002305 0.053414
v 0.015476 0.002939 0.052660
v 0.013817 0.003323 0.052231
v 0.012066 0.003431 0.052156
v 0.010343 0.003256 0.052441
v 0.008763 0.002808 0.053065
v 0.007436 0.002120 0.053986
v 0.006452 0.001238 0.055142
v 0.005862 -0.000346 0.056007
v 0.005736 -0.001427 0.057385
v 0.006068 -0.002499 0.058735
v 0.006835 -0.003490 0.059965
v 0.007984 -0.004331 0.060993
v 0.009438 -0.004965 0.061746
v 0.011097 -0.005349 0.062175
v 0.012848 -0.005457 0.062250
v 0.014571 -0.005282 0.061966
v 0.016151 -0.004834 0.061342
v 0.017478 -0.004146 0.060420
v 0.018462 -0.003264 0.059265
v 0.019036 -0.002247 0.057953
v 0.019162 -0.001166 0.056575
v 0.018830 -0.000094 0.055225
v 0.018063 0.000897 0.053994
v 0.016914 0.001738 0.052967
v 0.015460 0.002372 0.052214
v 0.013801 0.002756 0.051785
v 0.012050 0.002864 0.051710
v 0.010327 0.002689 0.051994
v 0.008747 0.002241 0.052618
v 0.007420 0.001553 0.053540
v 0.006436 0.000671 0.054695
v 0.006166 -0.000835 0.055704
v 0.006047 -0.001865 0.057016
v 0.006363 -0.002885 0.058301
v 0.007093 -0.003828 0.059472
v 0.008187 -0.004629 0.060450
v 0.009570 -0.005232 0.061168
v 0.011149 -0.005598 0.061576
v 0.012816 -0.005701 0.061647
v 0.014457 -0.005534 0.061376
v 0.015960 -0.005108 0.060782
v 0.017223 -0.004453 0.059905
v 0.018160 -0.003613 0.058805
v 0.018707 -0.002645 0.057557
v 0.018826 -0.001616 0.056245
v 0.018510 -0.000595 0.054960
v 0.017781 0.000347 0.053789
v 0.016687 0.001148 0.052811
v 0.015303 0.001752 0.052094
v 0.013724 0.002117 0.051685
v 0.012057 0.002220 0.051614
v 0.010416 0.002053 0.051885
v 0.008913 0.001627 0.052479
v 0.007650 0.000972 0.053356
v 0.006713 0.000132 0.054456
v 0.008097 -0.001908 0.055370
v 0.008014 -0.002617 0.056273
v 0.008232 -0.003320 0.057158
v 0.008734 -0.003969 0.057965
v 0.009488 -0.004520 0.058638
v 0.010441 -0.004936 0.059132
v 0.011528 -0.005188 0.059413
v 0.012676 -0.005258 0.059462
v 0.013806 -0.005143 0.059276
v 0.014841 -0.004850 0.058867
v 0.015711 -0.004399 0.058263
v 0.016356 -0.003821 0.057506
v 0.016732 -0.003154 0.056646
v 0.016815 -0.002446 0.055743
v 0.016597 -0.001743 0.054858
v 0.016095 -0.001093 0.054051
v 0.015341 -0.000542 0.053378
v 0.014388 -0.000126 0.052884
v 0.013301 0.000125 0.052602
v 0.012153 0.000196 0.052553
v 0.011023 0.000081 0.052740
v 0.009988 -0.000212 0.053149
v 0.009118 -0.000663 0.053753
v 0.008473 -0.001242 0.054510
v 0.008021 -0.005137 0.052832
v 0.008097 -0.001908 0.055370
v 0.007939 -0.005843 0.053732
v 0.008014 -0.002617 0.056273
v 0.008156 -0.006544 0.054613
v 0.008232 -0.003320 0.057158
v 0.008657 -0.007191 0.055417
v 0.008734 -0.003969 0.057965
v 0.009408 -0.007740 0.056088
v 0.009488 -0.004520 0.058638
v 0.010357 -0.008154 0.056580
v 0.010441 -0.004936 0.059132
v 0.011441 -0.008405 0.056861
v 0.011528 -0.005188 0.059413
v 0.012584 -0.008475 0.056909
v 0.012676 -0.005258 0.059462
v 0.013710 -0.008361 0.056724
v 0.013806 -0.005143 0.059276
v 0.014742 -0.008069 0.056316
v 0.014841 -0.004850 0.058867
v 0.015608 -0.007619 0.055714
v 0.015711 -0.004399 0.058263
v 0.016251 -0.007043 0.054960
v 0.016356 -0.003821 0.057506
v 0.016627 -0.006379 0.054103
v 0.016732 -0.003154 0.056646
v 0.016709 -0.005673 0.053203
v 0.016815 -0.002446 0.055743
v 0.016492 -0.004972 0.052321
v 0.016597 -0.001743 0.054858
v 0.015991 -0.004325 0.051517
v 0.016095 -0.001093 0.054051
v 0.015240 -0.003776 0.050846
v 0.015341 -0.000542 0.053378
v 0.014291 -0.003362 0.050354
v 0.014388 -0.000126 0.052884
v 0.013207 -0.003111 0.050074
v 0.013301 0.000125 0.052602
v 0.012064 -0.003040 0.050025
v 0.012153 0.000196 0.052553
v 0.010938 -0.003155 0.050211
v 0.011023 0.000081 0.052740
v 0.009906 -0.003447 0.050618
v 0.009988 -0.000212 0.053149
v 0.009040 -0.003897 0.051220
v 0.009118 -0.000663 0.053753
v 0.008397 -0.004473 0.051975
v 0.008473 -0.001242 0.054510
v 0.004772 -0.007217 0.052887
v 0.004913 -0.006006 0.051344
v 0.007939 -0.005843 0.053732
v 0.008021 -0.005137 0.052832
v 0.005144 -0.008417 0.054398
v 0.008156 -0.006544 0.054613
v 0.006002 -0.009526 0.055776
v 0.008657 -0.007191 0.055417
v 0.007289 -0.010467 0.056926
v 0.009408 -0.007740 0.056088
v 0.008916 -0.011177 0.057770
v 0.010357 -0.008154 0.056580
v 0.010773 -0.011607 0.058250
v 0.011441 -0.008405 0.056861
v 0.012733 -0.011728 0.058334
v 0.012584 -0.008475 0.056909
v 0.014663 -0.011532 0.058015
v 0.013710 -0.008361 0.056724
v 0.016431 -0.011031 0.057317
v 0.014742 -0.008069 0.056316
v 0.017917 -0.010261 0.056285
v 0.015608 -0.007619 0.055714
v 0.019018 -0.009273 0.054991
v 0.016251 -0.007043 0.054960
v 0.019662 -0.008135 0.053523
v 0.016627 -0.006379 0.054103
v 0.019802 -0.006924 0.051981
v 0.016709 -0.005673 0.053203
v 0.019431 -0.005724 0.050469
v 0.016492 -0.004972 0.052321
v 0.018572 -0.004615 0.049092
v 0.015991 -0.004325 0.051517
v 0.017286 -0.003674 0.047942
v 0.015240 -0.003776 0.050846
v 0.015658 -0.002964 0.047098
v 0.014291 -0.003362 0.050354
v 0.013801 -0.002534 0.046618
v 0.013207 -0.003111 0.050074
v 0.011841 -0.002413 0.046534
v 0.012064 -0.003040 0.050025
v 0.009911 -0.002609 0.046852
v 0.010938 -0.003155 0.050211
v 0.008143 -0.003110 0.047551
v 0.009906 -0.003447 0.050618
v 0.006658 -0.003880 0.048582
v 0.009040 -0.003897 0.051220
v 0.005556 -0.004868 0.049876
v 0.008397 -0.004473 0.051975
v 0.010332 0.000603 0.057911
v 0.010290 0.000248 0.058363
v 0.010399 -0.000103 0.058806
v 0.010651 -0.000429 0.059210
v 0.011028 -0.000705 0.059547
v 0.011505 -0.000913 0.059794
v 0.012050 -0.001039 0.059935
v 0.012624 -0.001074 0.059960
v 0.013190 -0.001017 0.059866
v 0.013708 -0.000870 0.059662
v 0.014144 -0.000644 0.059359
v 0.014467 -0.000354 0.058980
v 0.014655 -0.000021 0.058550
v 0.014697 0.000334 0.058097
v 0.014588 0.000686 0.057654
v 0.014336 0.001011 0.057250
v 0.013959 0.001287 0.056913
v 0.013482 0.001495 0.056666
v 0.012937 0.001621 0.056525
v 0.012363 0.001657 0.056501
v 0.011797 0.001599 0.056594
v 0.011279 0.001452 0.056799
v 0.010843 0.001227 0.057101
v 0.010520 0.000937 0.057480
v 0.012495 0.000360 0.058284
v 0.002825 -0.007709 0.049472
v 0.002645 -0.009253 0.051440
v 0.003119 -0.010785 0.053368
v 0.004214 -0.012199 0.055125
v 0.005856 -0.013400 0.056592
v 0.007931 -0.014306 0.057668
v 0.010300 -0.014854 0.058281
v 0.012800 -0.015008 0.058387
v 0.015262 -0.014758 0.057981
v 0.017517 -0.014119 0.057090
v 0.019412 -0.013136 0.055775
v 0.020817 -0.011876 0.054124
v 0.021638 -0.010425 0.052251
v 0.021817 -0.008881 0.050284
v 0.021343 -0.007349 0.048356
v 0.020248 -0.005935 0.046599
v 0.018607 -0.004734 0.045132
v 0.016531 -0.003829 0.044056
v 0.014163 -0.003280 0.043443
v 0.011662 -0.003126 0.043336
v 0.009201 -0.003376 0.043742
v 0.006946 -0.004015 0.044633
v 0.005051 -0.004998 0.045949
v 0.003645 -0.006258 0.047599
vt 0.088817 0.663582
vt 0.088099 0.668846
vt 0.082486 0.663746
vt 0.083155 0.669017
vt 0.076413 0.665544
vt 0.078424 0.670462
vt 0.071012 0.668853
vt 0.074227 0.673083
vt 0.066652 0.673446
vt 0.070852 0.676700
vt 0.063629 0.679011
vt 0.068528 0.681067
vt 0.062150 0.685170
vt 0.067414 0.685887
vt 0.062314 0.691501
vt 0.067585 0.690832
vt 0.064112 0.697574
vt 0.069030 0.695563
vt 0.067420 0.702974
vt 0.071650 0.699759
vt 0.072014 0.707335
vt 0.075268 0.703134
vt 0.077579 0.710358
vt 0.079635 0.705458
vt 0.083737 0.711837
vt 0.084455 0.706573
vt 0.090069 0.711673
vt 0.089399 0.706402
vt 0.096142 0.709875
vt 0.094131 0.704957
vt 0.101542 0.706566
vt 0.098327 0.702336
vt 0.105903 0.701973
vt 0.101702 0.698719
vt 0.108926 0.696408
vt 0.104026 0.694352
vt 0.110405 0.690250
vt 0.105141 0.689532
vt 0.110240 0.683918
vt 0.104969 0.684587
vt 0.108443 0.677845
vt 0.103524 0.679856
vt 0.105134 0.672445
vt 0.100904 0.675660
vt 0.100541 0.668084
vt 0.097287 0.672285
vt 0.094975 0.665061
vt 0.092920 0.669961
vt 0.089355 0.660620
vt 0.082239 0.660746
vt 0.075398 0.662710
vt 0.069298 0.666378
vt 0.064356 0.671499
vt 0.060907 0.677725
vt 0.059188 0.684632
vt 0.059314 0.691748
vt 0.061278 0.698589
vt 0.064946 0.704688
vt 0.070067 0.709631
vt 0.076293 0.713080
vt 0.083199 0.714799
vt 0.090316 0.714673
vt 0.097157 0.712709
vt 0.103256 0.709041
vt 0.108199 0.703920
vt 0.111647 0.697694
vt 0.113367 0.690787
vt 0.113241 0.683671
vt 0.111277 0.676830
vt 0.107609 0.670731
vt 0.102488 0.665788
vt 0.096262 0.662339
vt 0.089705 0.658810
vt 0.082108 0.658907
vt 0.074796 0.660968
vt 0.068266 0.664851
vt 0.062963 0.670291
vt 0.059249 0.676919
vt 0.057378 0.684282
vt 0.057475 0.691879
vt 0.059535 0.699191
vt 0.063418 0.705721
vt 0.068859 0.711024
vt 0.075486 0.714737
vt 0.082849 0.716609
vt 0.090446 0.716512
vt 0.097759 0.714451
vt 0.104289 0.710568
vt 0.109591 0.705128
vt 0.113305 0.698500
vt 0.115177 0.691137
vt 0.115079 0.683540
vt 0.113019 0.676228
vt 0.109136 0.669698
vt 0.103696 0.664395
vt 0.097068 0.660682
vt 0.089957 0.656759
vt 0.081821 0.656861
vt 0.073988 0.659066
vt 0.066993 0.663222
vt 0.061313 0.669048
vt 0.057333 0.676145
vt 0.055326 0.684030
vt 0.055429 0.692166
vt 0.057633 0.699999
vt 0.061790 0.706993
vt 0.067615 0.712674
vt 0.074713 0.716654
vt 0.082598 0.718660
vt 0.090734 0.718558
vt 0.098566 0.716353
vt 0.105561 0.712197
vt 0.111242 0.706371
vt 0.115221 0.699274
vt 0.117228 0.691389
vt 0.117126 0.683253
vt 0.114921 0.675420
vt 0.110765 0.668426
vt 0.104939 0.662745
vt 0.097842 0.658766
vt 0.090340 0.655001
vt 0.081736 0.655064
vt 0.073442 0.657352
vt 0.066022 0.661709
vt 0.059983 0.667837
vt 0.055735 0.675320
vt 0.053569 0.683647
vt 0.053632 0.692251
vt 0.055920 0.700545
vt 0.060277 0.707965
vt 0.066405 0.714004
vt 0.073888 0.718252
vt 0.082215 0.720417
vt 0.090819 0.720354
vt 0.099113 0.718067
vt 0.106533 0.713710
vt 0.112572 0.707582
vt 0.116819 0.700099
vt 0.118985 0.691772
vt 0.118922 0.683168
vt 0.116634 0.674874
vt 0.112278 0.667454
vt 0.106150 0.661415
vt 0.098667 0.657167
vt 0.090941 0.649065
vt 0.080780 0.649175
vt 0.070994 0.651911
vt 0.062250 0.657086
vt 0.055142 0.664348
vt 0.050157 0.673203
vt 0.047633 0.683046
vt 0.047743 0.693206
vt 0.050479 0.702992
vt 0.055654 0.711737
vt 0.062916 0.718844
vt 0.071771 0.723830
vt 0.081613 0.726354
vt 0.091774 0.726244
vt 0.101560 0.723508
vt 0.110305 0.718333
vt 0.117412 0.711071
vt 0.122398 0.702216
vt 0.124922 0.692373
vt 0.124812 0.682213
vt 0.122076 0.672426
vt 0.116901 0.663682
vt 0.109639 0.656575
vt 0.100784 0.651589
vt 0.092813 0.633557
vt 0.090941 0.649065
vt 0.078575 0.633711
vt 0.080780 0.649175
vt 0.064861 0.637544
vt 0.070994 0.651911
vt 0.052607 0.644796
vt 0.062250 0.657086
vt 0.042648 0.654973
vt 0.055142 0.664348
vt 0.035662 0.667381
vt 0.050157 0.673203
vt 0.032125 0.681174
vt 0.047633 0.683046
vt 0.032279 0.695412
vt 0.047743 0.693206
vt 0.036112 0.709125
vt 0.050479 0.702992
vt 0.043365 0.721379
vt 0.055654 0.711737
vt 0.053541 0.731339
vt 0.062916 0.718844
vt 0.065949 0.738325
vt 0.071771 0.723830
vt 0.079742 0.741862
vt 0.081613 0.726354
vt 0.093980 0.741708
vt 0.091774 0.726244
vt 0.107693 0.737874
vt 0.101560 0.723508
vt 0.119947 0.730622
vt 0.110305 0.718333
vt 0.129907 0.720446
vt 0.117412 0.711071
vt 0.136893 0.708038
vt 0.122398 0.702216
vt 0.140430 0.694245
vt 0.124922 0.692373
vt 0.140276 0.680007
vt 0.124812 0.682213
vt 0.136443 0.666293
vt 0.122076 0.672426
vt 0.129190 0.654040
vt 0.116901 0.663682
vt 0.119014 0.644080
vt 0.109639 0.656575
vt 0.106606 0.637094
vt 0.100784 0.651589
vt 0.077320 0.624909
vt 0.093880 0.624730
vt 0.078575 0.633711
vt 0.092813 0.633557
vt 0.061336 0.629388
vt 0.064861 0.637544
vt 0.047156 0.637780
vt 0.052607 0.644796
vt 0.035537 0.649636
vt 0.042648 0.654973
vt 0.027412 0.664066
vt 0.035662 0.667381
vt 0.023298 0.680107
vt 0.032125 0.681174
vt 0.023476 0.696666
vt 0.032279 0.695412
vt 0.027935 0.712615
vt 0.036112 0.709125
vt 0.036369 0.726867
vt 0.043365 0.721379
vt 0.048204 0.738450
vt 0.053541 0.731339
vt 0.062634 0.746575
vt 0.065949 0.738325
vt 0.078675 0.750689
vt 0.079742 0.741862
vt 0.095234 0.750510
vt 0.093980 0.741708
vt 0.111183 0.746052
vt 0.107693 0.737874
vt 0.125435 0.737618
vt 0.119947 0.730622
vt 0.137018 0.725783
vt 0.129907 0.720446
vt 0.145143 0.711353
vt 0.136893 0.708038
vt 0.149257 0.695312
vt 0.140430 0.694245
vt 0.149078 0.678752
vt 0.140276 0.680007
vt 0.144620 0.662804
vt 0.136443 0.666293
vt 0.136186 0.648552
vt 0.129190 0.654040
vt 0.124351 0.636969
vt 0.119014 0.644080
vt 0.109921 0.628844
vt 0.106606 0.637094
vt 0.087108 0.678038
vt 0.084577 0.678153
vt 0.082161 0.678918
vt 0.080026 0.680283
vt 0.078317 0.682154
vt 0.077151 0.684403
vt 0.076606 0.686878
vt 0.076720 0.689410
vt 0.077486 0.691825
vt 0.078851 0.693960
vt 0.080722 0.695669
vt 0.082971 0.696836
vt 0.085446 0.697381
vt 0.087978 0.697266
vt 0.090393 0.696501
vt 0.092528 0.695136
vt 0.094237 0.693265
vt 0.095404 0.691016
vt 0.095949 0.688541
vt 0.095834 0.686009
vt 0.095069 0.683594
vt 0.093704 0.681459
vt 0.091833 0.679749
vt 0.089583 0.678583
vt 0.086277 0.687708
vt 0.094856 0.616645
vt 0.076171 0.616846
vt 0.058174 0.621876
vt 0.042093 0.631393
vt 0.029023 0.644747
vt 0.019854 0.661030
vt 0.015212 0.679131
vt 0.015414 0.697816
vt 0.020444 0.715812
vt 0.029961 0.731894
vt 0.043316 0.744964
vt 0.059598 0.754132
vt 0.077699 0.758774
vt 0.096384 0.758573
vt 0.114380 0.753543
vt 0.130462 0.744026
vt 0.143532 0.730671
vt 0.152700 0.714389
vt 0.157342 0.696288
vt 0.157141 0.677603
vt 0.152111 0.659606
vt 0.142594 0.643525
vt 0.129239 0.630455
vt 0.112957 0.621286
vn -0.267577 0.792275 0.548364
vn -0.083528 0.796153 0.599302
vn -0.273076 0.744901 0.608730
vn -0.085539 0.778851 0.621348
vn -0.258538 0.697915 0.667887
vn -0.080228 0.761690 0.642955
vn -0.224948 0.654522 0.721803
vn -0.067956 0.745843 0.662646
vn -0.174591 0.617678 0.766807
vn -0.049568 0.732387 0.679082
vn -0.110904 0.589892 0.799830
vn -0.026304 0.722237 0.691146
vn -0.038224 0.573063 0.818619
vn 0.000238 0.716090 0.698008
vn 0.038493 0.568332 0.821899
vn 0.028254 0.714361 0.699207
vn 0.114019 0.576021 0.809444
vn 0.055842 0.717171 0.694656
vn 0.183205 0.595614 0.782099
vn 0.081111 0.724325 0.684671
vn 0.241342 0.625765 0.741736
vn 0.102345 0.735340 0.669926
vn 0.284469 0.664426 0.691097
vn 0.118096 0.749460 0.651432
vn 0.309639 0.708961 0.633639
vn 0.127287 0.765725 0.630447
vn 0.315142 0.756335 0.573274
vn 0.129296 0.783027 0.608401
vn 0.300601 0.803321 0.514116
vn 0.123985 0.800189 0.586793
vn 0.267002 0.846715 0.460200
vn 0.111715 0.816037 0.567101
vn 0.216650 0.883558 0.415196
vn 0.093324 0.829492 0.550667
vn 0.152963 0.911343 0.382174
vn 0.070066 0.839639 0.538606
vn 0.080285 0.928174 0.363384
vn 0.043523 0.845787 0.531743
vn 0.003569 0.932907 0.360099
vn 0.015503 0.847515 0.530545
vn -0.071960 0.925215 0.372558
vn -0.012084 0.844706 0.535093
vn -0.141147 0.905626 0.399900
vn -0.037353 0.837552 0.545079
vn -0.199282 0.875473 0.440265
vn -0.058584 0.826539 0.559823
vn -0.242407 0.836810 0.490906
vn -0.074335 0.812418 0.578317
vn -0.660134 0.665889 0.347584
vn -0.673024 0.554915 0.488987
vn -0.638960 0.444855 0.627562
vn -0.560267 0.343212 0.753861
vn -0.442309 0.256907 0.859279
vn -0.293132 0.191813 0.936633
vn -0.122879 0.152390 0.980652
vn 0.056827 0.141306 0.988334
vn 0.233745 0.159315 0.959157
vn 0.395817 0.205217 0.895106
vn 0.532003 0.275843 0.800552
vn 0.633021 0.366406 0.681932
vn 0.691979 0.470732 0.547336
vn 0.704867 0.581703 0.405935
vn 0.670806 0.691763 0.267364
vn 0.592111 0.793414 0.141065
vn 0.474158 0.879718 0.035638
vn 0.324977 0.944801 -0.041718
vn 0.154724 0.984231 -0.085729
vn -0.024981 0.995313 -0.093419
vn -0.201900 0.977297 -0.064241
vn -0.363972 0.931410 -0.000185
vn -0.500157 0.860777 0.094367
vn -0.601175 0.770212 0.212985
vn -0.942154 0.334802 0.015900
vn -0.960223 0.179236 0.214119
vn -0.912472 0.024959 0.408376
vn -0.802163 -0.117526 0.585425
vn -0.636807 -0.238509 0.733206
vn -0.427679 -0.329751 0.841638
vn -0.189026 -0.385018 0.903344
vn 0.062889 -0.400552 0.914113
vn 0.310891 -0.375307 0.873208
vn 0.538088 -0.310979 0.783424
vn 0.728995 -0.211961 0.650876
vn 0.870598 -0.085004 0.484597
vn 0.953249 0.061229 0.295918
vn 0.971316 0.216796 0.097699
vn 0.923569 0.371077 -0.096554
vn 0.813257 0.513572 -0.273600
vn 0.647901 0.634560 -0.421376
vn 0.438779 0.725788 -0.529816
vn 0.200123 0.781060 -0.591521
vn -0.051793 0.796599 -0.602285
vn -0.299796 0.771341 -0.561387
vn -0.526992 0.707014 -0.471604
vn -0.717898 0.607999 -0.339058
vn -0.859501 0.481047 -0.172776
vn -0.953249 -0.061233 -0.295918
vn -0.971316 -0.216794 -0.097698
vn -0.923568 -0.371078 0.096557
vn -0.813261 -0.513563 0.273607
vn -0.647903 -0.634556 0.421380
vn -0.438774 -0.725792 0.529815
vn -0.200126 -0.781059 0.591520
vn 0.051793 -0.796588 0.602299
vn 0.299801 -0.771332 0.561397
vn 0.526992 -0.707014 0.471604
vn 0.717895 -0.608001 0.339059
vn 0.859506 -0.481035 0.172785
vn 0.942155 -0.334800 -0.015900
vn 0.960222 -0.179239 -0.214119
vn 0.912472 -0.024966 -0.408377
vn 0.802163 0.117527 -0.585425
vn 0.636808 0.238522 -0.733200
vn 0.427681 0.329759 -0.841634
vn 0.189027 0.385027 -0.903340
vn -0.062884 0.400561 -0.914110
vn -0.310891 0.375308 -0.873207
vn -0.538089 0.310979 -0.783424
vn -0.728995 0.211965 -0.650874
vn -0.870598 0.085012 -0.484595
vn -0.701638 -0.461644 -0.542761
vn -0.714717 -0.574236 -0.399290
vn -0.680151 -0.685906 -0.258703
vn -0.600317 -0.789035 -0.130550
vn -0.480631 -0.876606 -0.023594
vn -0.329267 -0.942640 0.054885
vn -0.156540 -0.982643 0.099543
vn 0.025790 -0.993887 0.107344
vn 0.205300 -0.975606 0.077746
vn 0.369740 -0.929048 0.012760
vn 0.507905 -0.857388 -0.083181
vn 0.610401 -0.765499 -0.203525
vn 0.670225 -0.659650 -0.340089
vn 0.683303 -0.547052 -0.483560
vn 0.648738 -0.435391 -0.624158
vn 0.568899 -0.332260 -0.752301
vn 0.449219 -0.244693 -0.859260
vn 0.297857 -0.178659 -0.937743
vn 0.125120 -0.138647 -0.982406
vn -0.057207 -0.127414 -0.990198
vn -0.236710 -0.145691 -0.960595
vn -0.401151 -0.192245 -0.895611
vn -0.539326 -0.263906 -0.799675
vn -0.641815 -0.355797 -0.679325
vn -0.461096 -0.637456 -0.617285
vn -0.469512 -0.709917 -0.524953
vn -0.447272 -0.781785 -0.434466
vn -0.395888 -0.848157 -0.351998
vn -0.318862 -0.904515 -0.283160
vn -0.221446 -0.947015 -0.232646
vn -0.110283 -0.972759 -0.203905
vn 0.007064 -0.979996 -0.198890
vn 0.122589 -0.968232 -0.217943
vn 0.228422 -0.938268 -0.259764
vn 0.317348 -0.892146 -0.321507
vn 0.383306 -0.833010 -0.398963
vn 0.421805 -0.764888 -0.486853
vn 0.430221 -0.692427 -0.579185
vn 0.407983 -0.620559 -0.669669
vn 0.356602 -0.554182 -0.752141
vn 0.279575 -0.497824 -0.820981
vn 0.182162 -0.455330 -0.871488
vn 0.070988 -0.429585 -0.900232
vn -0.046355 -0.422346 -0.905249
vn -0.161875 -0.434111 -0.886196
vn -0.267712 -0.464074 -0.844373
vn -0.356633 -0.510195 -0.782633
vn -0.422595 -0.569333 -0.705176
vn -0.979407 0.138353 -0.147038
vn -0.979407 0.138354 -0.147038
vn -0.998077 -0.022398 0.057795
vn -0.998077 -0.022397 0.057792
vn -0.948736 -0.181830 0.258528
vn -0.948736 -0.181831 0.258530
vn -0.834746 -0.329075 0.441485
vn -0.834744 -0.329076 0.441488
vn -0.663874 -0.454098 0.594194
vn -0.663875 -0.454098 0.594193
vn -0.447766 -0.548379 0.706248
vn -0.447766 -0.548378 0.706248
vn -0.201147 -0.605492 0.770013
vn -0.201155 -0.605491 0.770011
vn 0.059165 -0.621547 0.781139
vn 0.059163 -0.621546 0.781140
vn 0.315449 -0.595448 0.738873
vn 0.315449 -0.595448 0.738873
vn 0.550228 -0.528976 0.646091
vn 0.550226 -0.528976 0.646092
vn 0.747502 -0.426659 0.509120
vn 0.747502 -0.426657 0.509121
vn 0.893830 -0.295469 0.337293
vn 0.893829 -0.295471 0.337295
vn 0.979239 -0.144349 0.142321
vn 0.979239 -0.144348 0.142319
vn 0.997909 0.016406 -0.062515
vn 0.997909 0.016406 -0.062516
vn 0.948568 0.175836 -0.263249
vn 0.948568 0.175836 -0.263250
vn 0.834580 0.323079 -0.446201
vn 0.834578 0.323080 -0.446205
vn 0.663707 0.448104 -0.598912
vn 0.663706 0.448103 -0.598914
vn 0.447602 0.542384 -0.710966
vn 0.447601 0.542383 -0.710967
vn 0.200985 0.599499 -0.774730
vn 0.200982 0.599499 -0.774731
vn -0.059340 0.615554 -0.785857
vn -0.059338 0.615554 -0.785858
vn -0.315617 0.589456 -0.743591
vn -0.315617 0.589455 -0.743592
vn -0.550392 0.522982 -0.650814
vn -0.550398 0.522980 -0.650810
vn -0.747665 0.420667 -0.513845
vn -0.747669 0.420665 -0.513841
vn -0.893996 0.289476 -0.342015
vn -0.893996 0.289476 -0.342015
vn -0.626329 0.588132 0.511677
vn -0.614296 0.691728 0.379673
vn -0.449819 0.684138 0.574124
vn -0.441041 0.759721 0.477815
vn -0.594530 0.485386 0.641042
vn -0.426618 0.609177 0.668506
vn -0.521068 0.390493 0.758948
vn -0.373021 0.539942 0.754532
vn -0.410950 0.309924 0.857360
vn -0.292680 0.481158 0.826333
vn -0.271680 0.249167 0.929573
vn -0.191072 0.436831 0.879017
vn -0.112752 0.212361 0.970665
vn -0.075115 0.409976 0.908998
vn 0.055013 0.202012 0.977837
vn 0.047280 0.402428 0.914230
vn 0.220172 0.218831 0.950598
vn 0.167784 0.414700 0.894356
vn 0.371473 0.261669 0.890807
vn 0.278170 0.445954 0.850733
vn 0.498610 0.327607 0.802535
vn 0.370925 0.494061 0.786332
vn 0.592911 0.412152 0.691800
vn 0.439731 0.555745 0.705538
vn 0.647951 0.509541 0.566151
vn 0.479887 0.626798 0.613866
vn 0.659984 0.613139 0.434145
vn 0.488665 0.702382 0.517557
vn 0.628185 0.715885 0.304782
vn 0.465466 0.777346 0.423172
vn 0.554725 0.810776 0.186876
vn 0.411870 0.846577 0.337152
vn 0.444607 0.891347 0.088464
vn 0.331528 0.905361 0.265350
vn 0.305337 0.952106 0.016250
vn 0.229920 0.949690 0.212664
vn 0.146406 0.988913 -0.024843
vn 0.113963 0.976545 0.182683
vn -0.021358 0.999259 -0.032015
vn -0.008440 0.984094 0.177450
vn -0.186515 0.982440 -0.004774
vn -0.128938 0.971822 0.197324
vn -0.337818 0.939602 0.055019
vn -0.239325 0.940567 0.240949
vn -0.464951 0.873664 0.143288
vn -0.332077 0.892462 0.305347
vn -0.559255 0.789118 0.254022
vn -0.400881 0.830777 0.386140
vn -0.034534 0.792347 0.609093
vn -0.035611 0.783077 0.620905
vn -0.032762 0.773878 0.632487
vn -0.026183 0.765377 0.643049
vn -0.016330 0.758169 0.651853
vn -0.003862 0.752730 0.658318
vn 0.010369 0.749434 0.661998
vn 0.025393 0.748508 0.662639
vn 0.040181 0.750015 0.660199
vn 0.053722 0.753851 0.654846
vn 0.065098 0.759754 0.646944
vn 0.073537 0.767320 0.637034
vn 0.078468 0.776040 0.625783
vn 0.079546 0.785311 0.613970
vn 0.076700 0.794508 0.602390
vn 0.070123 0.803007 0.591830
vn 0.060264 0.810220 0.583019
vn 0.047795 0.815660 0.576554
vn 0.033575 0.818954 0.572876
vn 0.018556 0.819880 0.572235
vn 0.003763 0.818375 0.574673
vn -0.009779 0.814542 0.580022
vn -0.021159 0.808639 0.587925
vn -0.029606 0.801068 0.597841
vn 0.022001 0.785504 0.618466
vn -0.744706 0.606255 0.279048
vn -0.759169 0.481729 0.437721
vn -0.720948 0.358224 0.593220
vn -0.632646 0.244165 0.734943
vn -0.500282 0.147319 0.853238
vn -0.332877 0.074287 0.940039
vn -0.141838 0.030044 0.989434
vn 0.059820 0.017602 0.998054
vn 0.258341 0.037821 0.965313
vn 0.440211 0.089312 0.893441
vn 0.593030 0.168571 0.787337
vn 0.706380 0.270196 0.654234
vn 0.772542 0.387260 0.503198
vn 0.787005 0.511787 0.344524
vn 0.748782 0.635290 0.189027
vn 0.660482 0.749350 0.047302
vn 0.528118 0.846198 -0.070991
vn 0.360712 0.919232 -0.157794
vn 0.169671 0.963475 -0.207189
vn -0.031981 0.975912 -0.215809
vn -0.230502 0.955697 -0.183064
vn -0.412376 0.904203 -0.111192
vn -0.565193 0.824943 -0.005090
vn -0.678546 0.723318 0.128013
f 3/3/3 2/2/2 1/1/1
f 2/2/2 3/3/3 4/4/4
f 5/5/5 4/4/4 3/3/3
f 4/4/4 5/5/5 6/6/6
f 7/7/7 6/6/6 5/5/5
f 6/6/6 7/7/7 8/8/8
f 9/9/9 8/8/8 7/7/7
f 8/8/8 9/9/9 10/10/10
f 11/11/11 10/10/10 9/9/9
f 10/10/10 11/11/11 12/12/12
f 13/13/13 12/12/12 11/11/11
f 12/12/12 13/13/13 14/14/14
f 15/15/15 14/14/14 13/13/13
f 14/14/14 15/15/15 16/16/16
f 17/17/17 16/16/16 15/15/15
f 16/16/16 17/17/17 18/18/18
f 19/19/19 18/18/18 17/17/17
f 18/18/18 19/19/19 20/20/20
f 21/21/21 20/20/20 19/19/19
f 20/20/20 21/21/21 22/22/22
f 23/23/23 22/22/22 21/21/21
f 22/22/22 23/23/23 24/24/24
f 25/25/25 24/24/24 23/23/23
f 24/24/24 25/25/25 26/26/26
f 27/27/27 26/26/26 25/25/25
f 26/26/26 27/27/27 28/28/28
f 29/29/29 28/28/28 27/27/27
f 28/28/28 29/29/29 30/30/30
f 31/31/31 30/30/30 29/29/29
f 30/30/30 31/31/31 32/32/32
f 33/33/33 32/32/32 31/31/31
f 32/32/32 33/33/33 34/34/34
f 35/35/35 34/34/34 33/33/33
f 34/34/34 35/35/35 36/36/36
f 37/37/37 36/36/36 35/35/35
f 36/36/36 37/37/37 38/38/38
f 39/39/39 38/38/38 37/37/37
f 38/38/38 39/39/39 40/40/40
f 41/41/41 40/40/40 39/39/39
f 40/40/40 41/41/41 42/42/42
f 43/43/43 42/42/42 41/41/41
f 42/42/42 43/43/43 44/44/44
f 45/45/45 44/44/44 43/43/43
f 44/44/44 45/45/45 46/46/46
f 47/47/47 46/46/46 45/45/45
f 46/46/46 47/47/47 48/48/48
f 1/1/1 48/48/48 47/47/47
f 48/48/48 1/1/1 2/2/2
f 50/50/50 1/1/1 49/49/49
f 1/1/1 50/50/50 3/3/3
f 51/51/51 3/3/3 50/50/50
f 3/3/3 51/51/51 5/5/5
f 52/52/52 5/5/5 51/51/51
f 5/5/5 52/52/52 7/7/7
f 53/53/53 7/7/7 52/52/52
f 7/7/7 53/53/53 9/9/9
f 54/54/54 9/9/9 53/53/53
f 9/9/9 54/54/54 11/11/11
f 55/55/55 11/11/11 54/54/54
f 11/11/11 55/55/55 13/13/13
f 56/56/56 13/13/13 55/55/55
f 13/13/13 56/56/56 15/15/15
f 57/57/57 15/15/15 56/56/56
f 15/15/15 57/57/57 17/17/17
f 58/58/58 17/17/17 57/57/57
f 17/17/17 58/58/58 19/19/19
f 59/59/59 19/19/19 58/58/58
f 19/19/19 59/59/59 21/21/21
f 60/60/60 21/21/21 59/59/59
f 21/21/21 60/60/60 23/23/23
f 61/61/61 23/23/23 60/60/60
f 23/23/23 61/61/61 25/25/25
f 62/62/62 25/25/25 61/61/61
f 25/25/25 62/62/62 27/27/27
f 63/63/63 27/27/27 62/62/62
f 27/27/27 63/63/63 29/29/29
f 64/64/64 29/29/29 63/63/63
f 29/29/29 64/64/64 31/31/31
f 65/65/65 31/31/31 64/64/64
f 31/31/31 65/65/65 33/33/33
f 66/66/66 33/33/33 65/65/65
f 33/33/33 66/66/66 35/35/35
f 67/67/67 35/35/35 66/66/66
f 35/35/35 67/67/67 37/37/37
f 68/68/68 37/37/37 67/67/67
f 37/37/37 68/68/68 39/39/39
f 69/69/69 39/39/39 68/68/68
f 39/39/39 69/69/69 41/41/41
f 70/70/70 41/41/41 69/69/69
f 41/41/41 70/70/70 43/43/43
f 71/71/71 43/43/43 70/70/70
f 43/43/43 71/71/71 45/45/45
f 72/72/72 45/45/45 71/71/71
f 45/45/45 72/72/72 47/47/47
f 49/49/49 47/47/47 72/72/72
f 47/47/47 49/49/49 1/1/1
f 74/74/74 49/49/49 73/73/73
f 49/49/49 74/74/74 50/50/50
f 75/75/75 50/50/50 74/74/74
f 50/50/50 75/75/75 51/51/51
f 76/76/76 51/51/51 75/75/75
f 51/51/51 76/76/76 52/52/52
f 77/77/77 52/52/52 76/76/76
f 52/52/52 77/77/77 53/53/53
f 78/78/78 53/53/53 77/77/77
f 53/53/53 78/78/78 54/54/54
f 79/79/79 54/54/54 78/78/78
f 54/54/54 79/79/79 55/55/55
f 80/80/80 55/55/55 79/79/79
f 55/55/55 80/80/80 56/56/56
f 81/81/81 56/56/56 80/80/80
f 56/56/56 81/81/81 57/57/57
f 82/82/82 57/57/57 81/81/81
f 57/57/57 82/82/82 58/58/58
f 83/83/83 58/58/58 82/82/82
f 58/58/58 83/83/83 59/59/59
f 84/84/84 59/59/59 83/83/83
f 59/59/59 84/84/84 60/60/60
f 85/85/85 60/60/60 84/84/84
f 60/60/60 85/85/85 61/61/61
f 86/86/86 61/61/61 85/85/85
f 61/61/61 86/86/86 62/62/62
f 87/87/87 62/62/62 86/86/86
f 62/62/62 87/87/87 63/63/63
f 88/88/88 63/63/63 87/87/87
f 63/63/63 88/88/88 64/64/64
f 89/89/89 64/64/64 88/88/88
f 64/64/64 89/89/89 65/65/65
f 90/90/90 65/65/65 89/89/89
f 65/65/65 90/90/90 66/66/66
f 91/91/91 66/66/66 90/90/90
f 66/66/66 91/91/91 67/67/67
f 92/92/92 67/67/67 91/91/91
f 67/67/67 92/92/92 68/68/68
f 93/93/93 68/68/68 92/92/92
f 68/68/68 93/93/93 69/69/69
f 94/94/94 69/69/69 93/93/93
f 69/69/69 94/94/94 70/70/70
f 95/95/95 70/70/70 94/94/94
f 70/70/70 95/95/95 71/71/71
f 96/96/96 71/71/71 95/95/95
f 71/71/71 96/96/96 72/72/72
f 73/73/73 72/72/72 96/96/96
f 72/72/72 73/73/73 49/49/49
f 98/98/98 73/73/73 97/97/97
f 73/73/73 98/98/98 74/74/74
f 99/99/99 74/74/74 98/98/98
f 74/74/74 99/99/99 75/75/75
f 100/100/100 75/75/75 99/99/99
f 75/75/75 100/100/100 76/76/76
f 101/101/101 76/76/76 100/100/100
f 76/76/76 101/101/101 77/77/77
f 102/102/102 77/77/77 101/101/101
f 77/77/77 102/102/102 78/78/78
f 103/103/103 78/78/78 102/102/102
f 78/78/78 103/103/103 79/79/79
f 104/104/104 79/79/79 103/103/103
f 79/79/79 104/104/104 80/80/80
f 105/105/105 80/80/80 104/104/104
f 80/80/80 105/105/105 81/81/81
f 106/106/106 81/81/81 105/105/105
f 81/81/81 106/106/106 82/82/82
f 107/107/107 82/82/82 106/106/106
f 82/82/82 107/107/107 83/83/83
f 108/108/108 83/83/83 107/107/107
f 83/83/83 108/108/108 84/84/84
f 109/109/109 84/84/84 108/108/108
f 84/84/84 109/109/109 85/85/85
f 110/110/110 85/85/85 109/109/109
f 85/85/85 110/110/110 86/86/86
f 111/111/111 86/86/86 110/110/110
f 86/86/86 111/111/111 87/87/87
f 112/112/112 87/87/87 111/111/111
f 87/87/87 112/112/112 88/88/88
f 113/113/113 88/88/88 112/112/112
f 88/88/88 113/113/113 89/89/89
f 114/114/114 89/89/89 113/113/113
f 89/89/89 114/114/114 90/90/90
f 115/115/115 90/90/90 114/114/114
f 90/90/90 115/115/115 91/91/91
f 116/116/116 91/91/91 115/115/115
f 91/91/91 116/116/116 92/92/92
f 117/117/117 92/92/92 116/116/116
f 92/92/92 117/117/117 93/93/93
f 118/118/118 93/93/93 117/117/117
f 93/93/93 118/118/118 94/94/94
f 119/119/119 94/94/94 118/118/118
f 94/94/94 119/119/119 95/95/95
f 120/120/120 95/95/95 119/119/119
f 95/95/95 120/120/120 96/96/96
f 97/97/97 96/96/96 120/120/120
f 96/96/96 97/97/97 73/73/73
f 122/122/122 97/97/97 121/121/121
f 97/97/97 122/122/122 98/98/98
f 123/123/123 98/98/98 122/122/122
f 98/98/98 123/123/123 99/99/99
f 124/124/124 99/99/99 123/123/123
f 99/99/99 124/124/124 100/100/100
f 125/125/125 100/100/100 124/124/124
f 100/100/100 125/125/125 101/101/101
f 126/126/126 101/101/101 125/125/125
f 101/101/101 126/126/126 102/102/102
f 127/127/127 102/102/102 126/126/126
f 102/102/102 127/127/127 103/103/103
f 128/128/128 103/103/103 127/127/127
f 103/103/103 128/128/128 104/104/104
f 129/129/129 104/104/104 128/128/128
f 104/104/104 129/129/129 105/105/105
f 130/130/130 105/105/105 129/129/129
f 105/105/105 130/130/130 106/106/106
f 131/131/131 106/106/106 130/130/130
f 106/106/106 131/131/131 107/107/107
f 132/132/132 107/107/107 131/131/131
f 107/107/107 132/132/132 108/108/108
f 133/133/133 108/108/108 132/132/132
f 108/108/108 133/133/133 109/109/109
f 134/134/134 109/109/109 133/133/133
f 109/109/109 134/134/134 110/110/110
f 135/135/135 110/110/110 134/134/134
f 110/110/110 135/135/135 111/111/111
f 136/136/136 111/111/111 135/135/135
f 111/111/111 136/136/136 112/112/112
f 137/137/137 112/112/112 136/136/136
f 112/112/112 137/137/137 113/113/113
f 138/138/138 113/113/113 137/137/137
f 113/113/113 138/138/138 114/114/114
f 139/139/139 114/114/114 138/138/138
f 114/114/114 139/139/139 115/115/115
f 140/140/140 115/115/115 139/139/139
f 115/115/115 140/140/140 116/116/116
f 141/141/141 116/116/116 140/140/140
f 116/116/116 141/141/141 117/117/117
f 142/142/142 117/117/117 141/141/141
f 117/117/117 142/142/142 118/118/118
f 143/143/143 118/118/118 142/142/142
f 118/118/118 143/143/143 119/119/119
f 144/144/144 119/119/119 143/143/143
f 119/119/119 144/144/144 120/120/120
f 121/121/121 120/120/120 144/144/144
f 120/120/120 121/121/121 97/97/97
f 146/146/146 121/121/121 145/145/145
f 121/121/121 146/146/146 122/122/122
f 147/147/147 122/122/122 146/146/146
f 122/122/122 147/147/147 123/123/123
f 148/148/148 123/123/123 147/147/147
f 123/123/123 148/148/148 124/124/124
f 149/149/149 124/124/124 148/148/148
f 124/124/124 149/149/149 125/125/125
f 150/150/150 125/125/125 149/149/149
f 125/125/125 150/150/150 126/126/126
f 151/151/151 126/126/126 150/150/150
f 126/126/126 151/151/151 127/127/127
f 152/152/152 127/127/127 151/151/151
f 127/127/127 152/152/152 128/128/128
f 153/153/153 128/128/128 152/152/152
f 128/128/128 153/153/153 129/129/129
f 154/154/154 129/129/129 153/153/153
f 129/129/129 154/154/154 130/130/130
f 155/155/155 130/130/130 154/154/154
f 130/130/130 155/155/155 131/131/131
f 156/156/156 131/131/131 155/155/155
f 131/131/131 156/156/156 132/132/132
f 157/157/157 132/132/132 156/156/156
f 132/132/132 157/157/157 133/133/133
f 158/158/158 133/133/133 157/157/157
f 133/133/133 158/158/158 134/134/134
f 159/159/159 134/134/134 158/158/158
f 134/134/134 159/159/159 135/135/135
f 160/160/160 135/135/135 159/159/159
f 135/135/135 160/160/160 136/136/136
f 161/161/161 136/136/136 160/160/160
f 136/136/136 161/161/161 137/137/137
f 162/162/162 137/137/137 161/161/161
f 137/137/137 162/162/162 138/138/138
f 163/163/163 138/138/138 162/162/162
f 138/138/138 163/163/163 139/139/139
f 164/164/164 139/139/139 163/163/163
f 139/139/139 164/164/164 140/140/140
f 165/165/165 140/140/140 164/164/164
f 140/140/140 165/165/165 141/141/141
f 166/166/166 141/141/141 165/165/165
f 141/141/141 166/166/166 142/142/142
f 167/167/167 142/142/142 166/166/166
f 142/142/142 167/167/167 143/143/143
f 168/168/168 143/143/143 167/167/167
f 143/143/143 168/168/168 144/144/144
f 145/145/145 144/144/144 168/168/168
f 144/144/144 145/145/145 121/121/121
f 171/171/171 170/170/170 169/169/169
f 170/170/170 171/171/171 172/172/172
f 173/173/173 172/172/172 171/171/171
f 172/172/172 173/173/173 174/174/174
f 175/175/175 174/174/174 173/173/173
f 174/174/174 175/175/175 176/176/176
f 177/177/177 176/176/176 175/175/175
f 176/176/176 177/177/177 178/178/178
f 179/179/179 178/178/178 177/177/177
f 178/178/178 179/179/179 180/180/180
f 181/181/181 180/180/180 179/179/179
f 180/180/180 181/181/181 182/182/182
f 183/183/183 182/182/182 181/181/181
f 182/182/182 183/183/183 184/184/184
f 185/185/185 184/184/184 183/183/183
f 184/184/184 185/185/185 186/186/186
f 187/187/187 186/186/186 185/185/185
f 186/186/186 187/187/187 188/188/188
f 189/189/189 188/188/188 187/187/187
f 188/188/188 189/189/189 190/190/190
f 191/191/191 190/190/190 189/189/189
f 190/190/190 191/191/191 192/192/192
f 193/193/193 192/192/192 191/191/191
f 192/192/192 193/193/193 194/194/194
f 195/195/195 194/194/194 193/193/193
f 194/194/194 195/195/195 196/196/196
f 197/197/197 196/196/196 195/195/195
f 196/196/196 197/197/197 198/198/198
f 199/199/199 198/198/198 197/197/197
f 198/198/198 199/199/199 200/200/200
f 201/201/201 200/200/200 199/199/199
f 200/200/200 201/201/201 202/202/202
f 203/203/203 202/202/202 201/201/201
f 202/202/202 203/203/203 204/204/204
f 205/205/205 204/204/204 203/203/203
f 204/204/204 205/205/205 206/206/206
f 207/207/207 206/206/206 205/205/205
f 206/206/206 207/207/207 208/208/208
f 209/209/209 208/208/208 207/207/207
f 208/208/208 209/209/209 210/210/210
f 211/211/211 210/210/210 209/209/209
f 210/210/210 211/211/211 212/212/212
f 213/213/213 212/212/212 211/211/211
f 212/212/212 213/213/213 214/214/214
f 215/215/215 214/214/214 213/213/213
f 214/214/214 215/215/215 216/216/216
f 169/169/169 216/216/216 215/215/215
f 216/216/216 169/169/169 170/170/170
f 219/219/219 218/218/218 217/217/217
f 218/218/218 219/219/219 220/220/220
f 222/222/222 217/217/217 221/221/221
f 217/217/217 222/222/222 219/219/219
f 224/224/224 221/221/221 223/223/223
f 221/221/221 224/224/224 222/222/222
f 226/226/226 223/223/223 225/225/225
f 223/223/223 226/226/226 224/224/224
f 228/228/228 225/225/225 227/227/227
f 225/225/225 228/228/228 226/226/226
f 230/230/230 227/227/227 229/229/229
f 227/227/227 230/230/230 228/228/228
f 232/232/232 229/229/229 231/231/231
f 229/229/229 232/232/232 230/230/230
f 234/234/234 231/231/231 233/233/233
f 231/231/231 234/234/234 232/232/232
f 236/236/236 233/233/233 235/235/235
f 233/233/233 236/236/236 234/234/234
f 238/238/238 235/235/235 237/237/237
f 235/235/235 238/238/238 236/236/236
f 240/240/240 237/237/237 239/239/239
f 237/237/237 240/240/240 238/238/238
f 242/242/242 239/239/239 241/241/241
f 239/239/239 242/242/242 240/240/240
f 244/244/244 241/241/241 243/243/243
f 241/241/241 244/244/244 242/242/242
f 246/246/246 243/243/243 245/245/245
f 243/243/243 246/246/246 244/244/244
f 248/248/248 245/245/245 247/247/247
f 245/245/245 248/248/248 246/246/246
f 250/250/250 247/247/247 249/249/249
f 247/247/247 250/250/250 248/248/248
f 252/252/252 249/249/249 251/251/251
f 249/249/249 252/252/252 250/250/250
f 254/254/254 251/251/251 253/253/253
f 251/251/251 254/254/254 252/252/252
f 256/256/256 253/253/253 255/255/255
f 253/253/253 256/256/256 254/254/254
f 258/258/258 255/255/255 257/257/257
f 255/255/255 258/258/258 256/256/256
f 260/260/260 257/257/257 259/259/259
f 257/257/257 260/260/260 258/258/258
f 262/262/262 259/259/259 261/261/261
f 259/259/259 262/262/262 260/260/260
f 264/264/264 261/261/261 263/263/263
f 261/261/261 264/264/264 262/262/262
f 220/220/220 263/263/263 218/218/218
f 263/263/263 220/220/220 264/264/264
f 2/2/2 266/266/266 265/265/265
f 266/266/266 2/2/2 4/4/4
f 4/4/4 267/267/267 266/266/266
f 267/267/267 4/4/4 6/6/6
f 6/6/6 268/268/268 267/267/267
f 268/268/268 6/6/6 8/8/8
f 8/8/8 269/269/269 268/268/268
f 269/269/269 8/8/8 10/10/10
f 10/10/10 270/270/270 269/269/269
f 270/270/270 10/10/10 12/12/12
f 12/12/12 271/271/271 270/270/270
f 271/271/271 12/12/12 14/14/14
f 14/14/14 272/272/272 271/271/271
f 272/272/272 14/14/14 16/16/16
f 16/16/16 273/273/273 272/272/272
f 273/273/273 16/16/16 18/18/18
f 18/18/18 274/274/274 273/273/273
f 274/274/274 18/18/18 20/20/20
f 20/20/20 275/275/275 274/274/274
f 275/275/275 20/20/20 22/22/22
f 22/22/22 276/276/276 275/275/275
f 276/276/276 22/22/22 24/24/24
f 24/24/24 277/277/277 276/276/276
f 277/277/277 24/24/24 26/26/26
f 26/26/26 278/278/278 277/277/277
f 278/278/278 26/26/26 28/28/28
f 28/28/28 279/279/279 278/278/278
f 279/279/279 28/28/28 30/30/30
f 30/30/30 280/280/280 279/279/279
f 280/280/280 30/30/30 32/32/32
f 32/32/32 281/281/281 280/280/280
f 281/281/281 32/32/32 34/34/34
f 34/34/34 282/282/282 281/281/281
f 282/282/282 34/34/34 36/36/36
f 36/36/36 283/283/283 282/282/282
f 283/283/283 36/36/36 38/38/38
f 38/38/38 284/284/284 283/283/283
f 284/284/284 38/38/38 40/40/40
f 40/40/40 285/285/285 284/284/284
f 285/285/285 40/40/40 42/42/42
f 42/42/42 286/286/286 285/285/285
f 286/286/286 42/42/42 44/44/44
f 44/44/44 287/287/287 286/286/286
f 287/287/287 44/44/44 46/46/46
f 46/46/46 288/288/288 287/287/287
f 288/288/288 46/46/46 48/48/48
f 48/48/48 265/265/265 288/288/288
f 265/265/265 48/48/48 2/2/2
f 289/289/289 265/265/265 266/266/266
f 289/289/289 266/266/266 267/267/267
f 289/289/289 267/267/267 268/268/268
f 289/289/289 268/268/268 269/269/269
f 289/289/289 269/269/269 270/270/270
f 289/289/289 270/270/270 271/271/271
f 289/289/289 271/271/271 272/272/272
f 289/289/289 272/272/272 273/273/273
f 289/289/289 273/273/273 274/274/274
f 289/289/289 274/274/274 275/275/275
f 289/289/289 275/275/275 276/276/276
f 289/289/289 276/276/276 277/277/277
f 289/289/289 277/277/277 278/278/278
f 289/289/289 278/278/278 279/279/279
f 289/289/289 279/279/279 280/280/280
f 289/289/289 280/280/280 281/281/281
f 289/289/289 281/281/281 282/282/282
f 289/289/289 282/282/282 283/283/283
f 289/289/289 283/283/283 284/284/284
f 289/289/289 284/284/284 285/285/285
f 289/289/289 285/285/285 286/286/286
f 289/289/289 286/286/286 287/287/287
f 289/289/289 287/287/287 288/288/288
f 289/289/289 288/288/288 265/265/265
f 290/290/290 217/217/217 218/218/218
f 217/217/217 290/290/290 291/291/291
f 291/291/291 221/221/221 217/217/217
f 221/221/221 291/291/291 292/292/292
f 292/292/292 223/223/223 221/221/221
f 223/223/223 292/292/292 293/293/293
f 293/293/293 225/225/225 223/223/223
f 225/225/225 293/293/293 294/294/294
f 294/294/294 227/227/227 225/225/225
f 227/227/227 294/294/294 295/295/295
f 295/295/295 229/229/229 227/227/227
f 229/229/229 295/295/295 296/296/296
f 296/296/296 231/231/231 229/229/229
f 231/231/231 296/296/296 297/297/297
f 297/297/297 233/233/233 231/231/231
f 233/233/233 297/297/297 298/298/298
f 298/298/298 235/235/235 233/233/233
f 235/235/235 298/298/298 299/299/299
f 299/299/299 237/237/237 235/235/235
f 237/237/237 299/299/299 300/300/300
f 300/300/300 239/239/239 237/237/237
f 239/239/239 300/300/300 301/301/301
f 301/301/301 241/241/241 239/239/239
f 241/241/241 301/301/301 302/302/302
f 302/302/302 243/243/243 241/241/241
f 243/243/243 302/302/302 303/303/303
f 303/303/303 245/245/245 243/243/243
f 245/245/245 303/303/303 304/304/304
f 304/304/304 247/247/247 245/245/245
f 247/247/247 304/304/304 305/305/305
f 305/305/305 249/249/249 247/247/247
f 249/249/249 305/305/305 306/306/306
f 306/306/306 251/251/251 249/249/249
f 251/251/251 306/306/306 307/307/307
f 307/307/307 253/253/253 251/251/251
f 253/253/253 307/307/307 308/308/308
f 308/308/308 255/255/255 253/253/253
f 255/255/255 308/308/308 309/309/309
f 309/309/309 257/257/257 255/255/255
f 257/257/257 309/309/309 310/310/310
f 310/310/310 259/259/259 257/257/257
f 259/259/259 310/310/310 311/311/311
f 311/311/311 261/261/261 259/259/259
f 261/261/261 311/311/311 312/312/312
f 312/312/312 263/263/263 261/261/261
f 263/263/263 312/312/312 313/313/313
f 313/313/313 218/218/218 263/263/263
f 218/218/218 313/313/313 290/290/290
