# GloomhavenVR - valve-index left 'button_primary' (glTF material 0)
# generated by controllers_pipeline.py from webxr-input-profiles (MIT)
o index_left_button_primary__m0
v 0.018801 0.006924 0.045599
v 0.020639 0.007132 0.045283
v 0.020674 0.006830 0.045667
v 0.020581 0.006532 0.046044
v 0.020368 0.006256 0.046387
v 0.020047 0.006021 0.046673
v 0.019642 0.005845 0.046883
v 0.019180 0.005738 0.047003
v 0.018692 0.005708 0.047024
v 0.018211 0.005756 0.046944
v 0.017771 0.005881 0.046770
v 0.017401 0.006073 0.046514
v 0.017127 0.006319 0.046191
v 0.016967 0.006602 0.045826
v 0.016932 0.006903 0.045442
v 0.017024 0.007202 0.045065
v 0.017238 0.007478 0.044722
v 0.017558 0.007712 0.044436
v 0.017964 0.007889 0.044226
v 0.018426 0.007996 0.044106
v 0.018914 0.008026 0.044085
v 0.019394 0.007977 0.044165
v 0.019835 0.007853 0.044339
v 0.020204 0.007661 0.044595
v 0.020479 0.007415 0.044918
v 0.022484 0.007066 0.044751
v 0.022554 0.006463 0.045520
v 0.022369 0.005866 0.046272
v 0.021942 0.005314 0.046959
v 0.021301 0.004845 0.047531
v 0.020491 0.004492 0.047951
v 0.019566 0.004278 0.048191
v 0.018590 0.004217 0.048232
v 0.017629 0.004315 0.048074
v 0.016749 0.004564 0.047726
v 0.016009 0.004948 0.047212
v 0.015460 0.005440 0.046568
v 0.015140 0.006006 0.045837
v 0.015070 0.006609 0.045069
v 0.015255 0.007206 0.044316
v 0.015683 0.007758 0.043630
v 0.016323 0.008227 0.043057
v 0.017134 0.008580 0.042637
v 0.018058 0.008794 0.042398
v 0.019034 0.008854 0.042356
v 0.019995 0.008757 0.042514
v 0.020875 0.008507 0.042862
v 0.021615 0.008124 0.043376
v 0.022164 0.007632 0.044020
v 0.022978 0.006974 0.044551
v 0.023057 0.006291 0.045422
v 0.022847 0.005614 0.046275
v 0.022363 0.004988 0.047052
v 0.021637 0.004457 0.047701
v 0.020719 0.004057 0.048178
v 0.019671 0.003814 0.048449
v 0.018565 0.003746 0.048496
v 0.017476 0.003857 0.048316
v 0.016478 0.004139 0.047922
v 0.015640 0.004574 0.047340
v 0.015018 0.005131 0.046610
v 0.014656 0.005773 0.045781
v 0.014576 0.006456 0.044911
v 0.014786 0.007133 0.044057
v 0.015270 0.007758 0.043280
v 0.015996 0.008289 0.042631
v 0.016914 0.008690 0.042155
v 0.017962 0.008932 0.041884
v 0.019068 0.009001 0.041836
v 0.020157 0.008890 0.042016
v 0.021155 0.008608 0.042410
v 0.021993 0.008173 0.042992
v 0.022615 0.007616 0.043723
v 0.023191 0.006611 0.044212
v 0.023275 0.005895 0.045125
v 0.023055 0.005184 0.046020
v 0.022547 0.004528 0.046835
v 0.021785 0.003972 0.047516
v 0.020822 0.003552 0.048015
v 0.019724 0.003297 0.048300
v 0.018564 0.003226 0.048349
v 0.017422 0.003342 0.048161
v 0.016376 0.003638 0.047747
v 0.015497 0.004094 0.047137
v 0.014845 0.004678 0.046371
v 0.014464 0.005351 0.045502
v 0.014381 0.006067 0.044589
v 0.014601 0.006777 0.043695
v 0.015109 0.007433 0.042879
v 0.015870 0.007990 0.042199
v 0.016833 0.008410 0.041699
v 0.017932 0.008665 0.041415
v 0.019092 0.008736 0.041365
v 0.020234 0.008620 0.041554
v 0.021280 0.008324 0.041967
v 0.022159 0.007868 0.042578
v 0.022811 0.007284 0.043344
v 0.023300 0.002720 0.041151
v 0.023384 0.002004 0.042063
v 0.023164 0.001293 0.042958
v 0.022656 0.000638 0.043773
v 0.021894 0.000081 0.044454
v 0.020931 -0.000339 0.044953
v 0.019833 -0.000594 0.045238
v 0.018673 -0.000665 0.045287
v 0.017531 -0.000549 0.045099
v 0.016485 -0.000253 0.044685
v 0.015606 0.000203 0.044075
v 0.014954 0.000787 0.043309
v 0.014573 0.001460 0.042440
v 0.014490 0.002176 0.041527
v 0.014710 0.002887 0.040633
v 0.015218 0.003542 0.039817
v 0.015979 0.004099 0.039137
v 0.016942 0.004519 0.038637
v 0.018041 0.004774 0.038353
v 0.019201 0.004845 0.038304
v 0.020343 0.004729 0.038492
v 0.021389 0.004433 0.038905
v 0.022268 0.003977 0.039516
v 0.022920 0.003393 0.040282
vt 0.939194 0.814108
vt 0.948592 0.814108
vt 0.948272 0.816541
vt 0.947333 0.818807
vt 0.945840 0.820754
vt 0.943893 0.822247
vt 0.941627 0.823186
vt 0.939194 0.823506
vt 0.936762 0.823186
vt 0.934495 0.822247
vt 0.932549 0.820754
vt 0.931055 0.818807
vt 0.930116 0.816541
vt 0.929796 0.814108
vt 0.930116 0.811676
vt 0.931055 0.809409
vt 0.932549 0.807463
vt 0.934495 0.805969
vt 0.936762 0.805030
vt 0.939194 0.804710
vt 0.941627 0.805030
vt 0.943893 0.805969
vt 0.945840 0.807463
vt 0.947333 0.809409
vt 0.948272 0.811676
vt 0.957990 0.814108
vt 0.957350 0.818973
vt 0.955472 0.823506
vt 0.952485 0.827399
vt 0.948592 0.830386
vt 0.944059 0.832264
vt 0.939194 0.832904
vt 0.934329 0.832264
vt 0.929796 0.830386
vt 0.925903 0.827399
vt 0.922916 0.823506
vt 0.921039 0.818973
vt 0.920398 0.814108
vt 0.921039 0.809243
vt 0.922916 0.804710
vt 0.925903 0.800817
vt 0.929796 0.797830
vt 0.934329 0.795953
vt 0.939194 0.795312
vt 0.944059 0.795953
vt 0.948592 0.797830
vt 0.952485 0.800817
vt 0.955472 0.804710
vt 0.957350 0.809243
vt 0.960495 0.814108
vt 0.959769 0.819621
vt 0.957641 0.824758
vt 0.954256 0.829170
vt 0.949844 0.832555
vt 0.944707 0.834683
vt 0.939194 0.835409
vt 0.933681 0.834683
vt 0.928544 0.832555
vt 0.924133 0.829170
vt 0.920748 0.824758
vt 0.918620 0.819621
vt 0.917894 0.814108
vt 0.918620 0.808595
vt 0.920748 0.803458
vt 0.924133 0.799047
vt 0.928544 0.795662
vt 0.933681 0.793534
vt 0.939194 0.792808
vt 0.944707 0.793534
vt 0.949844 0.795662
vt 0.954256 0.799047
vt 0.957641 0.803458
vt 0.959769 0.808595
vt 0.961532 0.814108
vt 0.960771 0.819890
vt 0.958539 0.825277
vt 0.954989 0.829903
vt 0.950363 0.833453
vt 0.944976 0.835685
vt 0.939194 0.836446
vt 0.933413 0.835685
vt 0.928025 0.833453
vt 0.923399 0.829903
vt 0.919849 0.825277
vt 0.917618 0.819890
vt 0.916857 0.814108
vt 0.917618 0.808327
vt 0.919849 0.802939
vt 0.923399 0.798313
vt 0.928025 0.794763
vt 0.933413 0.792532
vt 0.939194 0.791771
vt 0.944976 0.792532
vt 0.950363 0.794763
vt 0.954989 0.798313
vt 0.958539 0.802939
vt 0.960771 0.808327
vt 0.973264 0.814108
vt 0.972100 0.822976
vt 0.968686 0.831240
vt 0.963257 0.838337
vt 0.956180 0.843782
vt 0.947940 0.847205
vt 0.939097 0.848372
vt 0.930254 0.847205
vt 0.922014 0.843782
vt 0.914937 0.838337
vt 0.909508 0.831240
vt 0.906094 0.822976
vt 0.904930 0.814108
vt 0.906094 0.805240
vt 0.909508 0.796976
vt 0.914937 0.789880
vt 0.922014 0.784435
vt 0.930254 0.781012
vt 0.939097 0.779844
vt 0.947940 0.781012
vt 0.956180 0.784435
vt 0.963257 0.789880
vt 0.968686 0.796976
vt 0.972100 0.805240
vn -0.022007 0.785661 0.618266
vn 0.112240 0.797606 0.592644
vn 0.114798 0.775614 0.620681
vn 0.108043 0.753802 0.648158
vn 0.092437 0.733649 0.673212
vn 0.069052 0.716547 0.694113
vn 0.039474 0.703646 0.709454
vn 0.005724 0.695832 0.718182
vn -0.029899 0.693631 0.719710
vn -0.064993 0.697206 0.713918
vn -0.097134 0.706303 0.701214
vn -0.124122 0.720294 0.682473
vn -0.144150 0.738250 0.658944
vn -0.155843 0.758931 0.632248
vn -0.158397 0.780921 0.604212
vn -0.151648 0.802729 0.576740
vn -0.136040 0.822881 0.551689
vn -0.112651 0.839991 0.530777
vn -0.083080 0.852889 0.515440
vn -0.049318 0.860704 0.506711
vn -0.013695 0.862901 0.505187
vn 0.021383 0.859331 0.510973
vn 0.053518 0.850235 0.523676
vn 0.080523 0.836235 0.542427
vn 0.100552 0.818286 0.565948
vn 0.281198 0.790935 0.543461
vn 0.286949 0.741357 0.606671
vn 0.271738 0.692187 0.668607
vn 0.236574 0.646770 0.725067
vn 0.183853 0.608214 0.772188
vn 0.117190 0.579132 0.806766
vn 0.041096 0.561519 0.826443
vn -0.039216 0.556566 0.829877
vn -0.118283 0.564613 0.816836
vn -0.190716 0.585119 0.788203
vn -0.251574 0.616666 0.745945
vn -0.296714 0.657134 0.692919
vn -0.323073 0.703738 0.632752
vn -0.328822 0.753324 0.569543
vn -0.313613 0.802485 0.507606
vn -0.278439 0.847901 0.451150
vn -0.225718 0.886461 0.404027
vn -0.159047 0.915537 0.369454
vn -0.082971 0.933155 0.349768
vn -0.002654 0.938106 0.346337
vn 0.076410 0.930060 0.359374
vn 0.148844 0.909558 0.388007
vn 0.209711 0.878002 0.430271
vn 0.254853 0.837541 0.483297
vn 0.692193 0.645390 0.323019
vn 0.705686 0.529303 0.471006
vn 0.670047 0.414170 0.616036
vn 0.587708 0.307843 0.748219
vn 0.464262 0.217574 0.858558
vn 0.308168 0.149483 0.939514
vn 0.130017 0.108246 0.985585
vn -0.058020 0.096648 0.993626
vn -0.243143 0.115497 0.963090
vn -0.412735 0.163494 0.896058
vn -0.555237 0.237364 0.797101
vn -0.660937 0.332106 0.672954
vn -0.722639 0.441225 0.532083
vn -0.736122 0.557315 0.384090
vn -0.700480 0.672441 0.239062
vn -0.618147 0.778763 0.106875
vn -0.494713 0.869050 -0.003462
vn -0.338601 0.937135 -0.084422
vn -0.160464 0.978377 -0.130501
vn 0.027584 0.989975 -0.138520
vn 0.212705 0.971130 -0.107995
vn 0.382305 0.923128 -0.040957
vn 0.524803 0.849246 0.057992
vn 0.630502 0.754514 0.182145
vn 0.956872 0.289577 -0.023275
vn 0.975196 0.131857 0.177784
vn 0.926774 -0.024559 0.374815
vn 0.814910 -0.169008 0.554399
vn 0.647210 -0.291658 0.704312
vn 0.435124 -0.384160 0.814302
vn 0.193096 -0.440190 0.876896
vn -0.062375 -0.455948 0.887818
vn -0.313888 -0.430340 0.846335
vn -0.544298 -0.365131 0.755261
vn -0.737897 -0.264760 0.620814
vn -0.881505 -0.136055 0.452148
vn -0.965326 0.012207 0.260761
vn -0.983650 0.169910 0.059700
vn -0.935223 0.326336 -0.137339
vn -0.823359 0.470782 -0.316928
vn -0.655665 0.593442 -0.466830
vn -0.443576 0.685937 -0.576828
vn -0.201557 0.741969 -0.639419
vn 0.053923 0.757733 -0.650333
vn 0.305434 0.732133 -0.608845
vn 0.535851 0.666915 -0.517772
vn 0.729446 0.566537 -0.383334
vn 0.873048 0.437840 -0.214669
vn 0.979330 0.141314 -0.144718
vn 0.998000 -0.019388 0.060160
vn 0.948658 -0.178768 0.260940
vn 0.834667 -0.325966 0.443933
vn 0.663800 -0.450949 0.596669
vn 0.447683 -0.545204 0.708754
vn 0.201067 -0.602301 0.772532
vn -0.059251 -0.618354 0.783663
vn -0.315533 -0.592266 0.741390
vn -0.550316 -0.525816 0.648591
vn -0.747595 -0.423530 0.511591
vn -0.893918 -0.292389 0.339733
vn -0.979330 -0.141316 0.144718
vn -0.998000 0.019390 -0.060162
vn -0.948659 0.178768 -0.260936
vn -0.834668 0.325967 -0.443931
vn -0.663791 0.450954 -0.596676
vn -0.447685 0.545205 -0.708752
vn -0.201074 0.602302 -0.772529
vn 0.059242 0.618354 -0.783664
vn 0.315532 0.592266 -0.741391
vn 0.550316 0.525815 -0.648592
vn 0.747591 0.423534 -0.511592
vn 0.893919 0.292389 -0.339732
f 3/3/3 2/2/2 1/1/1
f 4/4/4 3/3/3 1/1/1
f 5/5/5 4/4/4 1/1/1
f 6/6/6 5/5/5 1/1/1
f 7/7/7 6/6/6 1/1/1
f 8/8/8 7/7/7 1/1/1
f 9/9/9 8/8/8 1/1/1
f 10/10/10 9/9/9 1/1/1
f 11/11/11 10/10/10 1/1/1
f 12/12/12 11/11/11 1/1/1
f 13/13/13 12/12/12 1/1/1
f 14/14/14 13/13/13 1/1/1
f 15/15/15 14/14/14 1/1/1
f 16/16/16 15/15/15 1/1/1
f 17/17/17 16/16/16 1/1/1
f 18/18/18 17/17/17 1/1/1
f 19/19/19 18/18/18 1/1/1
f 20/20/20 19/19/19 1/1/1
f 21/21/21 20/20/20 1/1/1
f 22/22/22 21/21/21 1/1/1
f 23/23/23 22/22/22 1/1/1
f 24/24/24 23/23/23 1/1/1
f 25/25/25 24/24/24 1/1/1
f 2/2/2 25/25/25 1/1/1
f 27/27/27 26/26/26 2/2/2
f 2/2/2 3/3/3 27/27/27
f 28/28/28 27/27/27 3/3/3
f 3/3/3 4/4/4 28/28/28
f 29/29/29 28/28/28 4/4/4
f 4/4/4 5/5/5 29/29/29
f 30/30/30 29/29/29 5/5/5
f 5/5/5 6/6/6 30/30/30
f 31/31/31 30/30/30 6/6/6
f 6/6/6 7/7/7 31/31/31
f 32/32/32 31/31/31 7/7/7
f 7/7/7 8/8/8 32/32/32
f 33/33/33 32/32/32 8/8/8
f 8/8/8 9/9/9 33/33/33
f 34/34/34 33/33/33 9/9/9
f 9/9/9 10/10/10 34/34/34
f 35/35/35 34/34/34 10/10/10
f 10/10/10 11/11/11 35/35/35
f 36/36/36 35/35/35 11/11/11
f 11/11/11 12/12/12 36/36/36
f 37/37/37 36/36/36 12/12/12
f 12/12/12 13/13/13 37/37/37
f 38/38/38 37/37/37 13/13/13
f 13/13/13 14/14/14 38/38/38
f 39/39/39 38/38/38 14/14/14
f 14/14/14 15/15/15 39/39/39
f 40/40/40 39/39/39 15/15/15
f 15/15/15 16/16/16 40/40/40
f 41/41/41 40/40/40 16/16/16
f 16/16/16 17/17/17 41/41/41
f 42/42/42 41/41/41 17/17/17
f 17/17/17 18/18/18 42/42/42
f 43/43/43 42/42/42 18/18/18
f 18/18/18 19/19/19 43/43/43
f 44/44/44 43/43/43 19/19/19
f 19/19/19 20/20/20 44/44/44
f 45/45/45 44/44/44 20/20/20
f 20/20/20 21/21/21 45/45/45
f 46/46/46 45/45/45 21/21/21
f 21/21/21 22/22/22 46/46/46
f 47/47/47 46/46/46 22/22/22
f 22/22/22 23/23/23 47/47/47
f 48/48/48 47/47/47 23/23/23
f 23/23/23 24/24/24 48/48/48
f 49/49/49 48/48/48 24/24/24
f 24/24/24 25/25/25 49/49/49
f 26/26/26 49/49/49 25/25/25
f 25/25/25 2/2/2 26/26/26
f 51/51/51 50/50/50 26/26/26
f 26/26/26 27/27/27 51/51/51
f 52/52/52 51/51/51 27/27/27
f 27/27/27 28/28/28 52/52/52
f 53/53/53 52/52/52 28/28/28
f 28/28/28 29/29/29 53/53/53
f 54/54/54 53/53/53 29/29/29
f 29/29/29 30/30/30 54/54/54
f 55/55/55 54/54/54 30/30/30
f 30/30/30 31/31/31 55/55/55
f 56/56/56 55/55/55 31/31/31
f 31/31/31 32/32/32 56/56/56
f 57/57/57 56/56/56 32/32/32
f 32/32/32 33/33/33 57/57/57
f 58/58/58 57/57/57 33/33/33
f 33/33/33 34/34/34 58/58/58
f 59/59/59 58/58/58 34/34/34
f 34/34/34 35/35/35 59/59/59
f 60/60/60 59/59/59 35/35/35
f 35/35/35 36/36/36 60/60/60
f 61/61/61 60/60/60 36/36/36
f 36/36/36 37/37/37 61/61/61
f 62/62/62 61/61/61 37/37/37
f 37/37/37 38/38/38 62/62/62
f 63/63/63 62/62/62 38/38/38
f 38/38/38 39/39/39 63/63/63
f 64/64/64 63/63/63 39/39/39
f 39/39/39 40/40/40 64/64/64
f 65/65/65 64/64/64 40/40/40
f 40/40/40 41/41/41 65/65/65
f 66/66/66 65/65/65 41/41/41
f 41/41/41 42/42/42 66/66/66
f 67/67/67 66/66/66 42/42/42
f 42/42/42 43/43/43 67/67/67
f 68/68/68 67/67/67 43/43/43
f 43/43/43 44/44/44 68/68/68
f 69/69/69 68/68/68 44/44/44
f 44/44/44 45/45/45 69/69/69
f 70/70/70 69/69/69 45/45/45
f 45/45/45 46/46/46 70/70/70
f 71/71/71 70/70/70 46/46/46
f 46/46/46 47/47/47 71/71/71
f 72/72/72 71/71/71 47/47/47
f 47/47/47 48/48/48 72/72/72
f 73/73/73 72/72/72 48/48/48
f 48/48/48 49/49/49 73/73/73
f 50/50/50 73/73/73 49/49/49
f 49/49/49 26/26/26 50/50/50
f 75/75/75 74/74/74 50/50/50
f 50/50/50 51/51/51 75/75/75
f 76/76/76 75/75/75 51/51/51
f 51/51/51 52/52/52 76/76/76
f 77/77/77 76/76/76 52/52/52
f 52/52/52 53/53/53 77/77/77
f 78/78/78 77/77/77 53/53/53
f 53/53/53 54/54/54 78/78/78
f 79/79/79 78/78/78 54/54/54
f 54/54/54 55/55/55 79/79/79
f 80/80/80 79/79/79 55/55/55
f 55/55/55 56/56/56 80/80/80
f 81/81/81 80/80/80 56/56/56
f 56/56/56 57/57/57 81/81/81
f 82/82/82 81/81/81 57/57/57
f 57/57/57 58/58/58 82/82/82
f 83/83/83 82/82/82 58/58/58
f 58/58/58 59/59/59 83/83/83
f 84/84/84 83/83/83 59/59/59
f 59/59/59 60/60/60 84/84/84
f 85/85/85 84/84/84 60/60/60
f 60/60/60 61/61/61 85/85/85
f 86/86/86 85/85/85 61/61/61
f 61/61/61 62/62/62 86/86/86
f 87/87/87 86/86/86 62/62/62
f 62/62/62 63/63/63 87/87/87
f 88/88/88 87/87/87 63/63/63
f 63/63/63 64/64/64 88/88/88
f 89/89/89 88/88/88 64/64/64
f 64/64/64 65/65/65 89/89/89
f 90/90/90 89/89/89 65/65/65
f 65/65/65 66/66/66 90/90/90
f 91/91/91 90/90/90 66/66/66
f 66/66/66 67/67/67 91/91/91
f 92/92/92 91/91/91 67/67/67
f 67/67/67 68/68/68 92/92/92
f 93/93/93 92/92/92 68/68/68
f 68/68/68 69/69/69 93/93/93
f 94/94/94 93/93/93 69/69/69
f 69/69/69 70/70/70 94/94/94
f 95/95/95 94/94/94 70/70/70
f 70/70/70 71/71/71 95/95/95
f 96/96/96 95/95/95 71/71/71
f 71/71/71 72/72/72 96/96/96
f 97/97/97 96/96/96 72/72/72
f 72/72/72 73/73/73 97/97/97
f 74/74/74 97/97/97 73/73/73
f 73/73/73 50/50/50 74/74/74
f 99/99/99 98/98/98 74/74/74
f 74/74/74 75/75/75 99/99/99
f 100/100/100 99/99/99 75/75/75
f 75/75/75 76/76/76 100/100/100
f 101/101/101 100/100/100 76/76/76
f 76/76/76 77/77/77 101/101/101
f 102/102/102 101/101/101 77/77/77
f 77/77/77 78/78/78 102/102/102
f 103/103/103 102/102/102 78/78/78
f 78/78/78 79/79/79 103/103/103
f 104/104/104 103/103/103 79/79/79
f 79/79/79 80/80/80 104/104/104
f 105/105/105 104/104/104 80/80/80
f 80/80/80 81/81/81 105/105/105
f 106/106/106 105/105/105 81/81/81
f 81/81/81 82/82/82 106/106/106
f 107/107/107 106/106/106 82/82/82
f 82/82/82 83/83/83 107/107/107
f 108/108/108 107/107/107 83/83/83
f 83/83/83 84/84/84 108/108/108
f 109/109/109 108/108/108 84/84/84
f 84/84/84 85/85/85 109/109/109
f 110/110/110 109/109/109 85/85/85
f 85/85/85 86/86/86 110/110/110
f 111/111/111 110/110/110 86/86/86
f 86/86/86 87/87/87 111/111/111
f 112/112/112 111/111/111 87/87/87
f 87/87/87 88/88/88 112/112/112
f 113/113/113 112/112/112 88/88/88
f 88/88/88 89/89/89 113/113/113
f 114/114/114 113/113/113 89/89/89
f 89/89/89 90/90/90 114/114/114
f 115/115/115 114/114/114 90/90/90
f 90/90/90 91/91/91 115/115/115
f 116/116/116 115/115/115 91/91/91
f 91/91/91 92/92/92 116/116/116
f 117/117/117 116/116/116 92/92/92
f 92/92/92 93/93/93 117/117/117
f 118/118/118 117/117/117 93/93/93
f 93/93/93 94/94/94 118/118/118
f 119/119/119 118/118/118 94/94/94
f 94/94/94 95/95/95 119/119/119
f 120/120/120 119/119/119 95/95/95
f 95/95/95 96/96/96 120/120/120
f 121/121/121 120/120/120 96/96/96
f 96/96/96 97/97/97 121/121/121
f 98/98/98 121/121/121 97/97/97
f 97/97/97 74/74/74 98/98/98
