# GloomhavenVR - valve-index left 'button_secondary' (glTF material 0)
# generated by controllers_pipeline.py from webxr-input-profiles (MIT)
o index_left_button_secondary__m0
v 0.021408 -0.000529 0.055965
v 0.023246 -0.000321 0.055649
v 0.023281 -0.000622 0.056033
v 0.023188 -0.000921 0.056410
v 0.022975 -0.001197 0.056753
v 0.022654 -0.001431 0.057039
v 0.022249 -0.001608 0.057249
v 0.021787 -0.001715 0.057369
v 0.021299 -0.001745 0.057390
v 0.020818 -0.001696 0.057310
v 0.020378 -0.001571 0.057136
v 0.020009 -0.001380 0.056880
v 0.019734 -0.001134 0.056557
v 0.019574 -0.000850 0.056192
v 0.019539 -0.000549 0.055808
v 0.019632 -0.000250 0.055431
v 0.019845 0.000026 0.055088
v 0.020166 0.000260 0.054802
v 0.020571 0.000437 0.054592
v 0.021033 0.000544 0.054472
v 0.021521 0.000574 0.054451
v 0.022002 0.000525 0.054531
v 0.022442 0.000400 0.054705
v 0.022811 0.000208 0.054961
v 0.023086 -0.000037 0.055284
v 0.025091 -0.000387 0.055117
v 0.025161 -0.000989 0.055886
v 0.024976 -0.001587 0.056638
v 0.024549 -0.002139 0.057325
v 0.023908 -0.002607 0.057897
v 0.023098 -0.002961 0.058317
v 0.022173 -0.003175 0.058557
v 0.021197 -0.003235 0.058598
v 0.020236 -0.003137 0.058440
v 0.019356 -0.002888 0.058092
v 0.018616 -0.002504 0.057578
v 0.018068 -0.002013 0.056934
v 0.017747 -0.001446 0.056203
v 0.017677 -0.000844 0.055435
v 0.017862 -0.000246 0.054682
v 0.018290 0.000306 0.053996
v 0.018930 0.000774 0.053423
v 0.019741 0.001128 0.053003
v 0.020665 0.001342 0.052764
v 0.021641 0.001402 0.052722
v 0.022602 0.001304 0.052880
v 0.023483 0.001055 0.053228
v 0.024222 0.000672 0.053742
v 0.024771 0.000180 0.054386
v 0.025585 -0.000479 0.054917
v 0.025664 -0.001161 0.055788
v 0.025455 -0.001839 0.056641
v 0.024970 -0.002464 0.057418
v 0.024244 -0.002995 0.058067
v 0.023326 -0.003396 0.058544
v 0.022278 -0.003638 0.058815
v 0.021172 -0.003706 0.058862
v 0.020083 -0.003595 0.058682
v 0.019086 -0.003313 0.058288
v 0.018247 -0.002879 0.057706
v 0.017626 -0.002321 0.056976
v 0.017263 -0.001679 0.056147
v 0.017183 -0.000997 0.055277
v 0.017393 -0.000319 0.054423
v 0.017877 0.000306 0.053646
v 0.018603 0.000837 0.052997
v 0.019522 0.001238 0.052521
v 0.020569 0.001480 0.052250
v 0.021676 0.001548 0.052202
v 0.022765 0.001437 0.052382
v 0.023762 0.001155 0.052776
v 0.024600 0.000721 0.053358
v 0.025222 0.000163 0.054089
v 0.025799 -0.000842 0.054578
v 0.025882 -0.001558 0.055491
v 0.025662 -0.002268 0.056386
v 0.025154 -0.002924 0.057201
v 0.024393 -0.003481 0.057882
v 0.023430 -0.003901 0.058381
v 0.022331 -0.004155 0.058666
v 0.021171 -0.004227 0.058715
v 0.020029 -0.004110 0.058527
v 0.018983 -0.003814 0.058113
v 0.018104 -0.003359 0.057503
v 0.017452 -0.002774 0.056737
v 0.017071 -0.002101 0.055868
v 0.016988 -0.001385 0.054955
v 0.017208 -0.000675 0.054061
v 0.017716 -0.000019 0.053245
v 0.018477 0.000538 0.052565
v 0.019440 0.000958 0.052065
v 0.020539 0.001212 0.051781
v 0.021699 0.001284 0.051731
v 0.022841 0.001168 0.051920
v 0.023887 0.000871 0.052333
v 0.024766 0.000416 0.052944
v 0.025418 -0.000169 0.053709
v 0.025908 -0.004733 0.051517
v 0.025991 -0.005449 0.052429
v 0.025771 -0.006159 0.053324
v 0.025263 -0.006815 0.054139
v 0.024502 -0.007372 0.054820
v 0.023539 -0.007792 0.055319
v 0.022440 -0.008046 0.055604
v 0.021280 -0.008118 0.055653
v 0.020138 -0.008001 0.055465
v 0.019092 -0.007705 0.055051
v 0.018213 -0.007250 0.054441
v 0.017561 -0.006665 0.053675
v 0.017180 -0.005992 0.052806
v 0.017097 -0.005276 0.051893
v 0.017317 -0.004566 0.050999
v 0.017825 -0.003910 0.050183
v 0.018586 -0.003353 0.049503
v 0.019549 -0.002933 0.049003
v 0.020648 -0.002679 0.048719
v 0.021808 -0.002607 0.048670
v 0.022950 -0.002723 0.048858
v 0.023996 -0.003019 0.049271
v 0.024875 -0.003475 0.049882
v 0.025527 -0.004060 0.050648
vt 0.939416 0.903095
vt 0.948764 0.903095
vt 0.948446 0.905514
vt 0.947512 0.907769
vt 0.946026 0.909705
vt 0.944090 0.911191
vt 0.941835 0.912125
vt 0.939416 0.912443
vt 0.936996 0.912125
vt 0.934742 0.911191
vt 0.932806 0.909705
vt 0.931320 0.907769
vt 0.930386 0.905514
vt 0.930068 0.903095
vt 0.930386 0.900675
vt 0.931320 0.898421
vt 0.932806 0.896485
vt 0.934742 0.894999
vt 0.936996 0.894065
vt 0.939416 0.893747
vt 0.941835 0.894065
vt 0.944090 0.894999
vt 0.946026 0.896485
vt 0.947512 0.898421
vt 0.948446 0.900675
vt 0.958112 0.903095
vt 0.957475 0.907934
vt 0.955608 0.912443
vt 0.952636 0.916315
vt 0.948764 0.919287
vt 0.944255 0.921154
vt 0.939416 0.921791
vt 0.934577 0.921154
vt 0.930068 0.919287
vt 0.926196 0.916315
vt 0.923224 0.912443
vt 0.921356 0.907934
vt 0.920719 0.903095
vt 0.921356 0.898256
vt 0.923224 0.893747
vt 0.926195 0.889875
vt 0.930068 0.886903
vt 0.934577 0.885035
vt 0.939416 0.884398
vt 0.944255 0.885035
vt 0.948764 0.886903
vt 0.952636 0.889874
vt 0.955608 0.893747
vt 0.957475 0.898256
vt 0.960603 0.903095
vt 0.959881 0.908579
vt 0.957765 0.913689
vt 0.954398 0.918077
vt 0.950010 0.921444
vt 0.944900 0.923561
vt 0.939416 0.924282
vt 0.933932 0.923561
vt 0.928822 0.921444
vt 0.924434 0.918077
vt 0.921067 0.913689
vt 0.918950 0.908579
vt 0.918228 0.903095
vt 0.918950 0.897611
vt 0.921067 0.892501
vt 0.924434 0.888113
vt 0.928822 0.884746
vt 0.933932 0.882629
vt 0.939416 0.881907
vt 0.944900 0.882629
vt 0.950010 0.884746
vt 0.954398 0.888113
vt 0.957765 0.892501
vt 0.959881 0.897611
vt 0.961635 0.903095
vt 0.960878 0.908846
vt 0.958658 0.914205
vt 0.955127 0.918806
vt 0.950526 0.922337
vt 0.945167 0.924557
vt 0.939416 0.925314
vt 0.933665 0.924557
vt 0.928306 0.922337
vt 0.923704 0.918806
vt 0.920173 0.914205
vt 0.917954 0.908846
vt 0.917197 0.903095
vt 0.917954 0.897344
vt 0.920173 0.891985
vt 0.923704 0.887384
vt 0.928306 0.883852
vt 0.933665 0.881633
vt 0.939416 0.880876
vt 0.945167 0.881633
vt 0.950526 0.883852
vt 0.955127 0.887383
vt 0.958658 0.891985
vt 0.960878 0.897344
vt 0.972771 0.902998
vt 0.971628 0.911807
vt 0.968276 0.920015
vt 0.962945 0.927064
vt 0.955996 0.932473
vt 0.947905 0.935873
vt 0.939222 0.937033
vt 0.930538 0.935873
vt 0.922447 0.932473
vt 0.915499 0.927064
vt 0.910167 0.920015
vt 0.906815 0.911807
vt 0.905672 0.902998
vt 0.906815 0.894189
vt 0.910167 0.885980
vt 0.915499 0.878931
vt 0.922447 0.873522
vt 0.930538 0.870122
vt 0.939222 0.868962
vt 0.947905 0.870122
vt 0.955996 0.873522
vt 0.962945 0.878931
vt 0.968276 0.885980
vt 0.971628 0.894189
vn -0.022007 0.785661 0.618266
vn 0.112239 0.797612 0.592635
vn 0.114798 0.775611 0.620684
vn 0.108046 0.753798 0.648163
vn 0.092444 0.733654 0.673206
vn 0.069047 0.716541 0.694119
vn 0.039481 0.703645 0.709454
vn 0.005722 0.695830 0.718184
vn -0.029914 0.693633 0.719707
vn -0.064983 0.697201 0.713925
vn -0.097134 0.706301 0.701216
vn -0.124122 0.720296 0.682472
vn -0.144150 0.738245 0.658950
vn -0.155841 0.758929 0.632250
vn -0.158396 0.780925 0.604208
vn -0.151648 0.802731 0.576738
vn -0.136054 0.822875 0.551694
vn -0.112653 0.839991 0.530778
vn -0.083068 0.852891 0.515438
vn -0.049322 0.860705 0.506710
vn -0.013685 0.862898 0.505192
vn 0.021393 0.859330 0.510974
vn 0.053522 0.850237 0.523672
vn 0.080521 0.836236 0.542425
vn 0.100553 0.818288 0.565945
vn 0.281205 0.790935 0.543458
vn 0.286968 0.741355 0.606664
vn 0.271739 0.692184 0.668610
vn 0.236572 0.646772 0.725065
vn 0.183854 0.608211 0.772190
vn 0.117184 0.579133 0.806767
vn 0.041107 0.561513 0.826446
vn -0.039220 0.556574 0.829872
vn -0.118279 0.564616 0.816834
vn -0.190714 0.585113 0.788208
vn -0.251582 0.616665 0.745943
vn -0.296722 0.657131 0.692917
vn -0.323079 0.703729 0.632760
vn -0.328836 0.753318 0.569543
vn -0.313605 0.802493 0.507600
vn -0.278443 0.847901 0.451146
vn -0.225725 0.886461 0.404023
vn -0.159052 0.915540 0.369445
vn -0.082970 0.933156 0.349766
vn -0.002655 0.938109 0.346330
vn 0.076415 0.930059 0.359377
vn 0.148843 0.909558 0.388008
vn 0.209704 0.878001 0.430278
vn 0.254851 0.837541 0.483298
vn 0.692189 0.645392 0.323021
vn 0.705677 0.529312 0.471008
vn 0.670029 0.414184 0.616046
vn 0.587714 0.307833 0.748218
vn 0.464271 0.217570 0.858555
vn 0.308161 0.149487 0.939516
vn 0.130025 0.108233 0.985586
vn -0.058021 0.096640 0.993627
vn -0.243143 0.115488 0.963091
vn -0.412735 0.163504 0.896056
vn -0.555237 0.237375 0.797098
vn -0.660932 0.332120 0.672953
vn -0.722635 0.441224 0.532090
vn -0.736121 0.557313 0.384094
vn -0.700478 0.672444 0.239061
vn -0.618136 0.778771 0.106880
vn -0.494709 0.869052 -0.003455
vn -0.338603 0.937135 -0.084418
vn -0.160457 0.978381 -0.130476
vn 0.027578 0.989973 -0.138539
vn 0.212709 0.971129 -0.107993
vn 0.382297 0.923131 -0.040964
vn 0.524801 0.849247 0.058000
vn 0.630506 0.754509 0.182146
vn 0.956870 0.289582 -0.023279
vn 0.975192 0.131878 0.177787
vn 0.926763 -0.024539 0.374844
vn 0.814903 -0.169017 0.554407
vn 0.647219 -0.291662 0.704301
vn 0.435126 -0.384156 0.814303
vn 0.193096 -0.440194 0.876894
vn -0.062376 -0.455959 0.887812
vn -0.313883 -0.430356 0.846328
vn -0.544294 -0.365127 0.755266
vn -0.737899 -0.264747 0.620817
vn -0.881503 -0.136039 0.452156
vn -0.965324 0.012213 0.260769
vn -0.983646 0.169927 0.059705
vn -0.935225 0.326334 -0.137336
vn -0.823358 0.470792 -0.316918
vn -0.655665 0.593448 -0.466823
vn -0.443579 0.685945 -0.576817
vn -0.201553 0.741987 -0.639400
vn 0.053920 0.757732 -0.650334
vn 0.305435 0.732131 -0.608846
vn 0.535841 0.666918 -0.517779
vn 0.729448 0.566536 -0.383332
vn 0.873055 0.437826 -0.214669
vn 0.979330 0.141314 -0.144715
vn 0.998001 -0.019386 0.060157
vn 0.948660 -0.178769 0.260933
vn 0.834667 -0.325967 0.443934
vn 0.663803 -0.450944 0.596669
vn 0.447685 -0.545203 0.708754
vn 0.201062 -0.602302 0.772532
vn -0.059255 -0.618353 0.783663
vn -0.315536 -0.592265 0.741390
vn -0.550312 -0.525818 0.648593
vn -0.747592 -0.423532 0.511592
vn -0.893921 -0.292386 0.339730
vn -0.979331 -0.141314 0.144714
vn -0.998000 0.019385 -0.060161
vn -0.948660 0.178765 -0.260934
vn -0.834668 0.325967 -0.443930
vn -0.663791 0.450954 -0.596676
vn -0.447688 0.545204 -0.708752
vn -0.201068 0.602303 -0.772530
vn 0.059257 0.618353 -0.783663
vn 0.315541 0.592264 -0.741389
vn 0.550317 0.525814 -0.648591
vn 0.747586 0.423535 -0.511599
vn 0.893920 0.292387 -0.339732
f 3/3/3 2/2/2 1/1/1
f 4/4/4 3/3/3 1/1/1
f 5/5/5 4/4/4 1/1/1
f 6/6/6 5/5/5 1/1/1
f 7/7/7 6/6/6 1/1/1
f 8/8/8 7/7/7 1/1/1
f 9/9/9 8/8/8 1/1/1
f 10/10/10 9/9/9 1/1/1
f 11/11/11 10/10/10 1/1/1
f 12/12/12 11/11/11 1/1/1
f 13/13/13 12/12/12 1/1/1
f 14/14/14 13/13/13 1/1/1
f 15/15/15 14/14/14 1/1/1
f 16/16/16 15/15/15 1/1/1
f 17/17/17 16/16/16 1/1/1
f 18/18/18 17/17/17 1/1/1
f 19/19/19 18/18/18 1/1/1
f 20/20/20 19/19/19 1/1/1
f 21/21/21 20/20/20 1/1/1
f 22/22/22 21/21/21 1/1/1
f 23/23/23 22/22/22 1/1/1
f 24/24/24 23/23/23 1/1/1
f 25/25/25 24/24/24 1/1/1
f 2/2/2 25/25/25 1/1/1
f 27/27/27 26/26/26 2/2/2
f 2/2/2 3/3/3 27/27/27
f 28/28/28 27/27/27 3/3/3
f 3/3/3 4/4/4 28/28/28
f 29/29/29 28/28/28 4/4/4
f 4/4/4 5/5/5 29/29/29
f 30/30/30 29/29/29 5/5/5
f 5/5/5 6/6/6 30/30/30
f 31/31/31 30/30/30 6/6/6
f 6/6/6 7/7/7 31/31/31
f 32/32/32 31/31/31 7/7/7
f 7/7/7 8/8/8 32/32/32
f 33/33/33 32/32/32 8/8/8
f 8/8/8 9/9/9 33/33/33
f 34/34/34 33/33/33 9/9/9
f 9/9/9 10/10/10 34/34/34
f 35/35/35 34/34/34 10/10/10
f 10/10/10 11/11/11 35/35/35
f 36/36/36 35/35/35 11/11/11
f 11/11/11 12/12/12 36/36/36
f 37/37/37 36/36/36 12/12/12
f 12/12/12 13/13/13 37/37/37
f 38/38/38 37/37/37 13/13/13
f 13/13/13 14/14/14 38/38/38
f 39/39/39 38/38/38 14/14/14
f 14/14/14 15/15/15 39/39/39
f 40/40/40 39/39/39 15/15/15
f 15/15/15 16/16/16 40/40/40
f 41/41/41 40/40/40 16/16/16
f 16/16/16 17/17/17 41/41/41
f 42/42/42 41/41/41 17/17/17
f 17/17/17 18/18/18 42/42/42
f 43/43/43 42/42/42 18/18/18
f 18/18/18 19/19/19 43/43/43
f 44/44/44 43/43/43 19/19/19
f 19/19/19 20/20/20 44/44/44
f 45/45/45 44/44/44 20/20/20
f 20/20/20 21/21/21 45/45/45
f 46/46/46 45/45/45 21/21/21
f 21/21/21 22/22/22 46/46/46
f 47/47/47 46/46/46 22/22/22
f 22/22/22 23/23/23 47/47/47
f 48/48/48 47/47/47 23/23/23
f 23/23/23 24/24/24 48/48/48
f 49/49/49 48/48/48 24/24/24
f 24/24/24 25/25/25 49/49/49
f 26/26/26 49/49/49 25/25/25
f 25/25/25 2/2/2 26/26/26
f 51/51/51 50/50/50 26/26/26
f 26/26/26 27/27/27 51/51/51
f 52/52/52 51/51/51 27/27/27
f 27/27/27 28/28/28 52/52/52
f 53/53/53 52/52/52 28/28/28
f 28/28/28 29/29/29 53/53/53
f 54/54/54 53/53/53 29/29/29
f 29/29/29 30/30/30 54/54/54
f 55/55/55 54/54/54 30/30/30
f 30/30/30 31/31/31 55/55/55
f 56/56/56 55/55/55 31/31/31
f 31/31/31 32/32/32 56/56/56
f 57/57/57 56/56/56 32/32/32
f 32/32/32 33/33/33 57/57/57
f 58/58/58 57/57/57 33/33/33
f 33/33/33 34/34/34 58/58/58
f 59/59/59 58/58/58 34/34/34
f 34/34/34 35/35/35 59/59/59
f 60/60/60 59/59/59 35/35/35
f 35/35/35 36/36/36 60/60/60
f 61/61/61 60/60/60 36/36/36
f 36/36/36 37/37/37 61/61/61
f 62/62/62 61/61/61 37/37/37
f 37/37/37 38/38/38 62/62/62
f 63/63/63 62/62/62 38/38/38
f 38/38/38 39/39/39 63/63/63
f 64/64/64 63/63/63 39/39/39
f 39/39/39 40/40/40 64/64/64
f 65/65/65 64/64/64 40/40/40
f 40/40/40 41/41/41 65/65/65
f 66/66/66 65/65/65 41/41/41
f 41/41/41 42/42/42 66/66/66
f 67/67/67 66/66/66 42/42/42
f 42/42/42 43/43/43 67/67/67
f 68/68/68 67/67/67 43/43/43
f 43/43/43 44/44/44 68/68/68
f 69/69/69 68/68/68 44/44/44
f 44/44/44 45/45/45 69/69/69
f 70/70/70 69/69/69 45/45/45
f 45/45/45 46/46/46 70/70/70
f 71/71/71 70/70/70 46/46/46
f 46/46/46 47/47/47 71/71/71
f 72/72/72 71/71/71 47/47/47
f 47/47/47 48/48/48 72/72/72
f 73/73/73 72/72/72 48/48/48
f 48/48/48 49/49/49 73/73/73
f 50/50/50 73/73/73 49/49/49
f 49/49/49 26/26/26 50/50/50
f 75/75/75 74/74/74 50/50/50
f 50/50/50 51/51/51 75/75/75
f 76/76/76 75/75/75 51/51/51
f 51/51/51 52/52/52 76/76/76
f 77/77/77 76/76/76 52/52/52
f 52/52/52 53/53/53 77/77/77
f 78/78/78 77/77/77 53/53/53
f 53/53/53 54/54/54 78/78/78
f 79/79/79 78/78/78 54/54/54
f 54/54/54 55/55/55 79/79/79
f 80/80/80 79/79/79 55/55/55
f 55/55/55 56/56/56 80/80/80
f 81/81/81 80/80/80 56/56/56
f 56/56/56 57/57/57 81/81/81
f 82/82/82 81/81/81 57/57/57
f 57/57/57 58/58/58 82/82/82
f 83/83/83 82/82/82 58/58/58
f 58/58/58 59/59/59 83/83/83
f 84/84/84 83/83/83 59/59/59
f 59/59/59 60/60/60 84/84/84
f 85/85/85 84/84/84 60/60/60
f 60/60/60 61/61/61 85/85/85
f 86/86/86 85/85/85 61/61/61
f 61/61/61 62/62/62 86/86/86
f 87/87/87 86/86/86 62/62/62
f 62/62/62 63/63/63 87/87/87
f 88/88/88 87/87/87 63/63/63
f 63/63/63 64/64/64 88/88/88
f 89/89/89 88/88/88 64/64/64
f 64/64/64 65/65/65 89/89/89
f 90/90/90 89/89/89 65/65/65
f 65/65/65 66/66/66 90/90/90
f 91/91/91 90/90/90 66/66/66
f 66/66/66 67/67/67 91/91/91
f 92/92/92 91/91/91 67/67/67
f 67/67/67 68/68/68 92/92/92
f 93/93/93 92/92/92 68/68/68
f 68/68/68 69/69/69 93/93/93
f 94/94/94 93/93/93 69/69/69
f 69/69/69 70/70/70 94/94/94
f 95/95/95 94/94/94 70/70/70
f 70/70/70 71/71/71 95/95/95
f 96/96/96 95/95/95 71/71/71
f 71/71/71 72/72/72 96/96/96
f 97/97/97 96/96/96 72/72/72
f 72/72/72 73/73/73 97/97/97
f 74/74/74 97/97/97 73/73/73
f 73/73/73 50/50/50 74/74/74
f 99/99/99 98/98/98 74/74/74
f 74/74/74 75/75/75 99/99/99
f 100/100/100 99/99/99 75/75/75
f 75/75/75 76/76/76 100/100/100
f 101/101/101 100/100/100 76/76/76
f 76/76/76 77/77/77 101/101/101
f 102/102/102 101/101/101 77/77/77
f 77/77/77 78/78/78 102/102/102
f 103/103/103 102/102/102 78/78/78
f 78/78/78 79/79/79 103/103/103
f 104/104/104 103/103/103 79/79/79
f 79/79/79 80/80/80 104/104/104
f 105/105/105 104/104/104 80/80/80
f 80/80/80 81/81/81 105/105/105
f 106/106/106 105/105/105 81/81/81
f 81/81/81 82/82/82 106/106/106
f 107/107/107 106/106/106 82/82/82
f 82/82/82 83/83/83 107/107/107
f 108/108/108 107/107/107 83/83/83
f 83/83/83 84/84/84 108/108/108
f 109/109/109 108/108/108 84/84/84
f 84/84/84 85/85/85 109/109/109
f 110/110/110 109/109/109 85/85/85
f 85/85/85 86/86/86 110/110/110
f 111/111/111 110/110/110 86/86/86
f 86/86/86 87/87/87 111/111/111
f 112/112/112 111/111/111 87/87/87
f 87/87/87 88/88/88 112/112/112
f 113/113/113 112/112/112 88/88/88
f 88/88/88 89/89/89 113/113/113
f 114/114/114 113/113/113 89/89/89
f 89/89/89 90/90/90 114/114/114
f 115/115/115 114/114/114 90/90/90
f 90/90/90 91/91/91 115/115/115
f 116/116/116 115/115/115 91/91/91
f 91/91/91 92/92/92 116/116/116
f 117/117/117 116/116/116 92/92/92
f 92/92/92 93/93/93 117/117/117
f 118/118/118 117/117/117 93/93/93
f 93/93/93 94/94/94 118/118/118
f 119/119/119 118/118/118 94/94/94
f 94/94/94 95/95/95 119/119/119
f 120/120/120 119/119/119 95/95/95
f 95/95/95 96/96/96 120/120/120
f 121/121/121 120/120/120 96/96/96
f 96/96/96 97/97/97 121/121/121
f 98/98/98 121/121/121 97/97/97
f 97/97/97 74/74/74 98/98/98
