# GloomhavenVR - valve-index right 'button_secondary' (glTF material 0)
# generated by controllers_pipeline.py from webxr-input-profiles (MIT)
o index_right_button_secondary__m0
v -0.023496 0.000855 0.052106
v -0.021659 0.000647 0.052422
v -0.023531 0.000553 0.052490
v -0.023439 0.000254 0.052866
v -0.023225 -0.000022 0.053209
v -0.022905 -0.000256 0.053495
v -0.022500 -0.000433 0.053705
v -0.022037 -0.000540 0.053825
v -0.021549 -0.000570 0.053846
v -0.021069 -0.000521 0.053766
v -0.020629 -0.000396 0.053592
v -0.020259 -0.000205 0.053336
v -0.019984 0.000041 0.053014
v -0.019824 0.000325 0.052648
v -0.019789 0.000626 0.052264
v -0.019882 0.000925 0.051888
v -0.020096 0.001201 0.051545
v -0.020416 0.001435 0.051258
v -0.020821 0.001612 0.051048
v -0.021283 0.001719 0.050929
v -0.021771 0.001749 0.050908
v -0.022252 0.001700 0.050987
v -0.022692 0.001576 0.051161
v -0.023062 0.001384 0.051418
v -0.023336 0.001138 0.051740
v -0.025411 0.000186 0.052342
v -0.025341 0.000789 0.051574
v -0.025226 -0.000412 0.053095
v -0.024799 -0.000964 0.053781
v -0.024158 -0.001432 0.054353
v -0.023348 -0.001786 0.054773
v -0.022423 -0.002000 0.055012
v -0.021447 -0.002060 0.055054
v -0.020487 -0.001962 0.054896
v -0.019606 -0.001713 0.054548
v -0.018867 -0.001330 0.054034
v -0.018318 -0.000838 0.053390
v -0.017998 -0.000271 0.052659
v -0.017928 0.000332 0.051891
v -0.018113 0.000929 0.051138
v -0.018540 0.001481 0.050452
v -0.019181 0.001950 0.049880
v -0.019991 0.002304 0.049460
v -0.020916 0.002518 0.049220
v -0.021892 0.002578 0.049179
v -0.022853 0.002480 0.049337
v -0.023733 0.002231 0.049685
v -0.024473 0.001847 0.050199
v -0.025021 0.001355 0.050843
v -0.025915 0.000014 0.052244
v -0.025835 0.000697 0.051374
v -0.025705 -0.000664 0.053097
v -0.025221 -0.001289 0.053874
v -0.024495 -0.001820 0.054523
v -0.023576 -0.002221 0.054999
v -0.022528 -0.002464 0.055270
v -0.021422 -0.002532 0.055317
v -0.020333 -0.002421 0.055138
v -0.019336 -0.002139 0.054744
v -0.018498 -0.001704 0.054162
v -0.017876 -0.001146 0.053432
v -0.017513 -0.000504 0.052603
v -0.017434 0.000179 0.051733
v -0.017643 0.000856 0.050880
v -0.018128 0.001482 0.050103
v -0.018854 0.002013 0.049454
v -0.019772 0.002414 0.048978
v -0.020820 0.002656 0.048707
v -0.021926 0.002725 0.048659
v -0.023015 0.002614 0.048839
v -0.024012 0.002331 0.049233
v -0.024851 0.001896 0.049815
v -0.025472 0.001339 0.050545
v -0.026132 -0.000383 0.051947
v -0.026049 0.000334 0.051035
v -0.025912 -0.001093 0.052842
v -0.025404 -0.001749 0.053657
v -0.024643 -0.002306 0.054338
v -0.023680 -0.002726 0.054837
v -0.022581 -0.002981 0.055121
v -0.021421 -0.003052 0.055171
v -0.020279 -0.002936 0.054982
v -0.019233 -0.002640 0.054569
v -0.018354 -0.002184 0.053959
v -0.017702 -0.001599 0.053193
v -0.017321 -0.000926 0.052324
v -0.017238 -0.000210 0.051411
v -0.017458 0.000501 0.050517
v -0.017966 0.001157 0.049702
v -0.018727 0.001714 0.049021
v -0.019690 0.002134 0.048522
v -0.020789 0.002389 0.048238
v -0.021949 0.002460 0.048188
v -0.023091 0.002344 0.048377
v -0.024137 0.002048 0.048790
v -0.025016 0.001592 0.049400
v -0.025668 0.001007 0.050166
v -0.026241 -0.004273 0.048885
v -0.026158 -0.003556 0.047972
v -0.026021 -0.004983 0.049779
v -0.025513 -0.005639 0.050594
v -0.024752 -0.006196 0.051275
v -0.023789 -0.006616 0.051774
v -0.022690 -0.006871 0.052058
v -0.021530 -0.006942 0.052108
v -0.020388 -0.006826 0.051919
v -0.019342 -0.006530 0.051506
v -0.018463 -0.006074 0.050896
v -0.017811 -0.005489 0.050130
v -0.017430 -0.004816 0.049261
v -0.017347 -0.004100 0.048349
v -0.017567 -0.003389 0.047454
v -0.018075 -0.002733 0.046639
v -0.018836 -0.002176 0.045958
v -0.019799 -0.001756 0.045459
v -0.020898 -0.001502 0.045175
v -0.022058 -0.001430 0.045125
v -0.023200 -0.001546 0.045314
v -0.024246 -0.001843 0.045727
v -0.025125 -0.002298 0.046337
v -0.025777 -0.002883 0.047103
vt 0.051236 0.903095
vt 0.060584 0.903095
vt 0.051554 0.905514
vt 0.052488 0.907769
vt 0.053974 0.909705
vt 0.055910 0.911191
vt 0.058165 0.912125
vt 0.060584 0.912443
vt 0.063004 0.912125
vt 0.065258 0.911191
vt 0.067194 0.909705
vt 0.068680 0.907769
vt 0.069614 0.905514
vt 0.069932 0.903095
vt 0.069614 0.900675
vt 0.068680 0.898421
vt 0.067194 0.896485
vt 0.065258 0.894999
vt 0.063004 0.894065
vt 0.060584 0.893747
vt 0.058165 0.894065
vt 0.055910 0.894999
vt 0.053974 0.896485
vt 0.052488 0.898421
vt 0.051554 0.900675
vt 0.042525 0.907934
vt 0.041888 0.903095
vt 0.044392 0.912443
vt 0.047364 0.916315
vt 0.051236 0.919287
vt 0.055745 0.921154
vt 0.060584 0.921791
vt 0.065423 0.921154
vt 0.069932 0.919287
vt 0.073804 0.916315
vt 0.076776 0.912443
vt 0.078644 0.907934
vt 0.079281 0.903095
vt 0.078644 0.898256
vt 0.076776 0.893747
vt 0.073805 0.889875
vt 0.069932 0.886903
vt 0.065423 0.885035
vt 0.060584 0.884398
vt 0.055745 0.885035
vt 0.051236 0.886903
vt 0.047364 0.889874
vt 0.044392 0.893747
vt 0.042525 0.898256
vt 0.040119 0.908579
vt 0.039397 0.903095
vt 0.042235 0.913689
vt 0.045602 0.918077
vt 0.049990 0.921444
vt 0.055100 0.923561
vt 0.060584 0.924282
vt 0.066068 0.923561
vt 0.071178 0.921444
vt 0.075566 0.918077
vt 0.078933 0.913689
vt 0.081050 0.908579
vt 0.081772 0.903095
vt 0.081050 0.897611
vt 0.078933 0.892501
vt 0.075566 0.888113
vt 0.071178 0.884746
vt 0.066068 0.882629
vt 0.060584 0.881907
vt 0.055100 0.882629
vt 0.049990 0.884746
vt 0.045602 0.888113
vt 0.042235 0.892501
vt 0.040119 0.897611
vt 0.039122 0.908846
vt 0.038365 0.903095
vt 0.041342 0.914205
vt 0.044873 0.918806
vt 0.049474 0.922337
vt 0.054833 0.924557
vt 0.060584 0.925314
vt 0.066335 0.924557
vt 0.071694 0.922337
vt 0.076296 0.918806
vt 0.079827 0.914205
vt 0.082046 0.908846
vt 0.082803 0.903095
vt 0.082046 0.897344
vt 0.079827 0.891985
vt 0.076296 0.887384
vt 0.071694 0.883852
vt 0.066335 0.881633
vt 0.060584 0.880876
vt 0.054833 0.881633
vt 0.049474 0.883852
vt 0.044873 0.887383
vt 0.041342 0.891985
vt 0.039122 0.897344
vt 0.028372 0.911807
vt 0.027229 0.902998
vt 0.031724 0.920015
vt 0.037055 0.927064
vt 0.044004 0.932473
vt 0.052095 0.935873
vt 0.060778 0.937033
vt 0.069462 0.935873
vt 0.077553 0.932473
vt 0.084501 0.927064
vt 0.089833 0.920015
vt 0.093185 0.911807
vt 0.094328 0.902998
vt 0.093185 0.894189
vt 0.089833 0.885980
vt 0.084501 0.878931
vt 0.077553 0.873522
vt 0.069462 0.870122
vt 0.060778 0.868962
vt 0.052095 0.870122
vt 0.044004 0.873522
vt 0.037055 0.878931
vt 0.031724 0.885980
vt 0.028372 0.894189
vn -0.112240 0.797456 0.592846
vn 0.022008 0.785502 0.618468
vn -0.114798 0.775453 0.620882
vn -0.108044 0.753632 0.648355
vn -0.092440 0.733481 0.673394
vn -0.069044 0.716362 0.694304
vn -0.039477 0.703465 0.709633
vn -0.005726 0.695645 0.718363
vn 0.029912 0.693447 0.719886
vn 0.064983 0.697020 0.714101
vn 0.097130 0.706121 0.701398
vn 0.124126 0.720122 0.682654
vn 0.144150 0.738076 0.659139
vn 0.155842 0.758765 0.632447
vn 0.158394 0.780768 0.604411
vn 0.151642 0.802585 0.576942
vn 0.136049 0.822736 0.551903
vn 0.112659 0.839852 0.530996
vn 0.083070 0.852758 0.515658
vn 0.049315 0.860576 0.506929
vn 0.013688 0.862770 0.505412
vn -0.021382 0.859200 0.511192
vn -0.053519 0.850102 0.523891
vn -0.080520 0.836097 0.542640
vn -0.100550 0.818142 0.566156
vn -0.286972 0.741198 0.606855
vn -0.281207 0.790794 0.543661
vn -0.271746 0.692009 0.668788
vn -0.236576 0.646582 0.725234
vn -0.183857 0.608009 0.772348
vn -0.117190 0.578926 0.806915
vn -0.041102 0.561306 0.826587
vn 0.039219 0.556360 0.830015
vn 0.118279 0.564405 0.816981
vn 0.190713 0.584912 0.788357
vn 0.251581 0.616478 0.746098
vn 0.296722 0.656951 0.693088
vn 0.323075 0.703570 0.632939
vn 0.328837 0.753169 0.569739
vn 0.313610 0.802360 0.507806
vn 0.278446 0.847786 0.451361
vn 0.225713 0.886358 0.404256
vn 0.159047 0.915442 0.369689
vn 0.082968 0.933063 0.350014
vn 0.002653 0.938017 0.346578
vn -0.076412 0.929968 0.359612
vn -0.148845 0.909462 0.388232
vn -0.209708 0.877889 0.430504
vn -0.254852 0.837417 0.483512
vn -0.705679 0.529186 0.471146
vn -0.692199 0.645304 0.323177
vn -0.670029 0.414025 0.616152
vn -0.587716 0.307640 0.748296
vn -0.464271 0.217348 0.858611
vn -0.308172 0.149241 0.939551
vn -0.130021 0.107989 0.985613
vn 0.058023 0.096397 0.993650
vn 0.243147 0.115237 0.963120
vn 0.412734 0.163264 0.896100
vn 0.555236 0.237176 0.797158
vn 0.660931 0.331946 0.673039
vn 0.722631 0.441093 0.532205
vn 0.736120 0.557216 0.384237
vn 0.700488 0.672374 0.239227
vn 0.618139 0.778742 0.107075
vn 0.494714 0.869050 -0.003232
vn 0.338603 0.937157 -0.084170
vn 0.160451 0.978417 -0.130212
vn -0.027575 0.990009 -0.138283
vn -0.212706 0.971159 -0.107735
vn -0.382295 0.923143 -0.040726
vn -0.524802 0.849232 0.058215
vn -0.630505 0.754463 0.182343
vn -0.975193 0.131830 0.177818
vn -0.956872 0.289581 -0.023209
vn -0.926762 -0.024636 0.374840
vn -0.814904 -0.169159 0.554362
vn -0.647217 -0.291841 0.704230
vn -0.435129 -0.384365 0.814203
vn -0.193099 -0.440420 0.876780
vn 0.062373 -0.456176 0.887701
vn 0.313888 -0.430570 0.846218
vn 0.544293 -0.365329 0.755169
vn 0.737897 -0.264908 0.620751
vn 0.881504 -0.136155 0.452121
vn 0.965323 0.012147 0.260774
vn 0.983646 0.169913 0.059749
vn 0.935226 0.326362 -0.137259
vn 0.823355 0.470875 -0.316801
vn 0.655673 0.593557 -0.466672
vn 0.443586 0.686088 -0.576641
vn 0.201546 0.742154 -0.639208
vn -0.053915 0.757896 -0.650143
vn -0.305430 0.732293 -0.608654
vn -0.535842 0.667056 -0.517599
vn -0.729448 0.566635 -0.383183
vn -0.873056 0.437881 -0.214552
vn -0.998001 -0.019398 0.060147
vn -0.979330 0.141353 -0.144682
vn -0.948658 -0.178838 0.260893
vn -0.834666 -0.326080 0.443852
vn -0.663803 -0.451098 0.596554
vn -0.447683 -0.545385 0.708615
vn -0.201063 -0.602501 0.772377
vn 0.059250 -0.618555 0.783504
vn 0.315538 -0.592455 0.741238
vn 0.550318 -0.525980 0.648456
vn 0.747592 -0.423663 0.511484
vn 0.893920 -0.292474 0.339656
vn 0.979329 -0.141354 0.144682
vn 0.998001 0.019400 -0.060153
vn 0.948659 0.178837 -0.260891
vn 0.834669 0.326082 -0.443845
vn 0.663800 0.451104 -0.596552
vn 0.447687 0.545387 -0.708611
vn 0.201061 0.602501 -0.772378
vn -0.059256 0.618555 -0.783504
vn -0.315542 0.592455 -0.741236
vn -0.550314 0.525981 -0.648459
vn -0.747589 0.423664 -0.511488
vn -0.893922 0.292471 -0.339653
f 3/3/3 2/2/2 1/1/1
f 4/4/4 2/2/2 3/3/3
f 5/5/5 2/2/2 4/4/4
f 6/6/6 2/2/2 5/5/5
f 7/7/7 2/2/2 6/6/6
f 8/8/8 2/2/2 7/7/7
f 9/9/9 2/2/2 8/8/8
f 10/10/10 2/2/2 9/9/9
f 11/11/11 2/2/2 10/10/10
f 12/12/12 2/2/2 11/11/11
f 13/13/13 2/2/2 12/12/12
f 14/14/14 2/2/2 13/13/13
f 15/15/15 2/2/2 14/14/14
f 16/16/16 2/2/2 15/15/15
f 17/17/17 2/2/2 16/16/16
f 18/18/18 2/2/2 17/17/17
f 19/19/19 2/2/2 18/18/18
f 20/20/20 2/2/2 19/19/19
f 21/21/21 2/2/2 20/20/20
f 22/22/22 2/2/2 21/21/21
f 23/23/23 2/2/2 22/22/22
f 24/24/24 2/2/2 23/23/23
f 25/25/25 2/2/2 24/24/24
f 1/1/1 2/2/2 25/25/25
f 26/26/26 3/3/3 1/1/1
f 1/1/1 27/27/27 26/26/26
f 28/28/28 4/4/4 3/3/3
f 3/3/3 26/26/26 28/28/28
f 29/29/29 5/5/5 4/4/4
f 4/4/4 28/28/28 29/29/29
f 30/30/30 6/6/6 5/5/5
f 5/5/5 29/29/29 30/30/30
f 31/31/31 7/7/7 6/6/6
f 6/6/6 30/30/30 31/31/31
f 32/32/32 8/8/8 7/7/7
f 7/7/7 31/31/31 32/32/32
f 33/33/33 9/9/9 8/8/8
f 8/8/8 32/32/32 33/33/33
f 34/34/34 10/10/10 9/9/9
f 9/9/9 33/33/33 34/34/34
f 35/35/35 11/11/11 10/10/10
f 10/10/10 34/34/34 35/35/35
f 36/36/36 12/12/12 11/11/11
f 11/11/11 35/35/35 36/36/36
f 37/37/37 13/13/13 12/12/12
f 12/12/12 36/36/36 37/37/37
f 38/38/38 14/14/14 13/13/13
f 13/13/13 37/37/37 38/38/38
f 39/39/39 15/15/15 14/14/14
f 14/14/14 38/38/38 39/39/39
f 40/40/40 16/16/16 15/15/15
f 15/15/15 39/39/39 40/40/40
f 41/41/41 17/17/17 16/16/16
f 16/16/16 40/40/40 41/41/41
f 42/42/42 18/18/18 17/17/17
f 17/17/17 41/41/41 42/42/42
f 43/43/43 19/19/19 18/18/18
f 18/18/18 42/42/42 43/43/43
f 44/44/44 20/20/20 19/19/19
f 19/19/19 43/43/43 44/44/44
f 45/45/45 21/21/21 20/20/20
f 20/20/20 44/44/44 45/45/45
f 46/46/46 22/22/22 21/21/21
f 21/21/21 45/45/45 46/46/46
f 47/47/47 23/23/23 22/22/22
f 22/22/22 46/46/46 47/47/47
f 48/48/48 24/24/24 23/23/23
f 23/23/23 47/47/47 48/48/48
f 49/49/49 25/25/25 24/24/24
f 24/24/24 48/48/48 49/49/49
f 27/27/27 1/1/1 25/25/25
f 25/25/25 49/49/49 27/27/27
f 50/50/50 26/26/26 27/27/27
f 27/27/27 51/51/51 50/50/50
f 52/52/52 28/28/28 26/26/26
f 26/26/26 50/50/50 52/52/52
f 53/53/53 29/29/29 28/28/28
f 28/28/28 52/52/52 53/53/53
f 54/54/54 30/30/30 29/29/29
f 29/29/29 53/53/53 54/54/54
f 55/55/55 31/31/31 30/30/30
f 30/30/30 54/54/54 55/55/55
f 56/56/56 32/32/32 31/31/31
f 31/31/31 55/55/55 56/56/56
f 57/57/57 33/33/33 32/32/32
f 32/32/32 56/56/56 57/57/57
f 58/58/58 34/34/34 33/33/33
f 33/33/33 57/57/57 58/58/58
f 59/59/59 35/35/35 34/34/34
f 34/34/34 58/58/58 59/59/59
f 60/60/60 36/36/36 35/35/35
f 35/35/35 59/59/59 60/60/60
f 61/61/61 37/37/37 36/36/36
f 36/36/36 60/60/60 61/61/61
f 62/62/62 38/38/38 37/37/37
f 37/37/37 61/61/61 62/62/62
f 63/63/63 39/39/39 38/38/38
f 38/38/38 62/62/62 63/63/63
f 64/64/64 40/40/40 39/39/39
f 39/39/39 63/63/63 64/64/64
f 65/65/65 41/41/41 40/40/40
f 40/40/40 64/64/64 65/65/65
f 66/66/66 42/42/42 41/41/41
f 41/41/41 65/65/65 66/66/66
f 67/67/67 43/43/43 42/42/42
f 42/42/42 66/66/66 67/67/67
f 68/68/68 44/44/44 43/43/43
f 43/43/43 67/67/67 68/68/68
f 69/69/69 45/45/45 44/44/44
f 44/44/44 68/68/68 69/69/69
f 70/70/70 46/46/46 45/45/45
f 45/45/45 69/69/69 70/70/70
f 71/71/71 47/47/47 46/46/46
f 46/46/46 70/70/70 71/71/71
f 72/72/72 48/48/48 47/47/47
f 47/47/47 71/71/71 72/72/72
f 73/73/73 49/49/49 48/48/48
f 48/48/48 72/72/72 73/73/73
f 51/51/51 27/27/27 49/49/49
f 49/49/49 73/73/73 51/51/51
f 74/74/74 50/50/50 51/51/51
f 51/51/51 75/75/75 74/74/74
f 76/76/76 52/52/52 50/50/50
f 50/50/50 74/74/74 76/76/76
f 77/77/77 53/53/53 52/52/52
f 52/52/52 76/76/76 77/77/77
f 78/78/78 54/54/54 53/53/53
f 53/53/53 77/77/77 78/78/78
f 79/79/79 55/55/55 54/54/54
f 54/54/54 78/78/78 79/79/79
f 80/80/80 56/56/56 55/55/55
f 55/55/55 79/79/79 80/80/80
f 81/81/81 57/57/57 56/56/56
f 56/56/56 80/80/80 81/81/81
f 82/82/82 58/58/58 57/57/57
f 57/57/57 81/81/81 82/82/82
f 83/83/83 59/59/59 58/58/58
f 58/58/58 82/82/82 83/83/83
f 84/84/84 60/60/60 59/59/59
f 59/59/59 83/83/83 84/84/84
f 85/85/85 61/61/61 60/60/60
f 60/60/60 84/84/84 85/85/85
f 86/86/86 62/62/62 61/61/61
f 61/61/61 85/85/85 86/86/86
f 87/87/87 63/63/63 62/62/62
f 62/62/62 86/86/86 87/87/87
f 88/88/88 64/64/64 63/63/63
f 63/63/63 87/87/87 88/88/88
f 89/89/89 65/65/65 64/64/64
f 64/64/64 88/88/88 89/89/89
f 90/90/90 66/66/66 65/65/65
f 65/65/65 89/89/89 90/90/90
f 91/91/91 67/67/67 66/66/66
f 66/66/66 90/90/90 91/91/91
f 92/92/92 68/68/68 67/67/67
f 67/67/67 91/91/91 92/92/92
f 93/93/93 69/69/69 68/68/68
f 68/68/68 92/92/92 93/93/93
f 94/94/94 70/70/70 69/69/69
f 69/69/69 93/93/93 94/94/94
f 95/95/95 71/71/71 70/70/70
f 70/70/70 94/94/94 95/95/95
f 96/96/96 72/72/72 71/71/71
f 71/71/71 95/95/95 96/96/96
f 97/97/97 73/73/73 72/72/72
f 72/72/72 96/96/96 97/97/97
f 75/75/75 51/51/51 73/73/73
f 73/73/73 97/97/97 75/75/75
f 98/98/98 74/74/74 75/75/75
f 75/75/75 99/99/99 98/98/98
f 100/100/100 76/76/76 74/74/74
f 74/74/74 98/98/98 100/100/100
f 101/101/101 77/77/77 76/76/76
f 76/76/76 100/100/100 101/101/101
f 102/102/102 78/78/78 77/77/77
f 77/77/77 101/101/101 102/102/102
f 103/103/103 79/79/79 78/78/78
f 78/78/78 102/102/102 103/103/103
f 104/104/104 80/80/80 79/79/79
f 79/79/79 103/103/103 104/104/104
f 105/105/105 81/81/81 80/80/80
f 80/80/80 104/104/104 105/105/105
f 106/106/106 82/82/82 81/81/81
f 81/81/81 105/105/105 106/106/106
f 107/107/107 83/83/83 82/82/82
f 82/82/82 106/106/106 107/107/107
f 108/108/108 84/84/84 83/83/83
f 83/83/83 107/107/107 108/108/108
f 109/109/109 85/85/85 84/84/84
f 84/84/84 108/108/108 109/109/109
f 110/110/110 86/86/86 85/85/85
f 85/85/85 109/109/109 110/110/110
f 111/111/111 87/87/87 86/86/86
f 86/86/86 110/110/110 111/111/111
f 112/112/112 88/88/88 87/87/87
f 87/87/87 111/111/111 112/112/112
f 113/113/113 89/89/89 88/88/88
f 88/88/88 112/112/112 113/113/113
f 114/114/114 90/90/90 89/89/89
f 89/89/89 113/113/113 114/114/114
f 115/115/115 91/91/91 90/90/90
f 90/90/90 114/114/114 115/115/115
f 116/116/116 92/92/92 91/91/91
f 91/91/91 115/115/115 116/116/116
f 117/117/117 93/93/93 92/92/92
f 92/92/92 116/116/116 117/117/117
f 118/118/118 94/94/94 93/93/93
f 93/93/93 117/117/117 118/118/118
f 119/119/119 95/95/95 94/94/94
f 94/94/94 118/118/118 119/119/119
f 120/120/120 96/96/96 95/95/95
f 95/95/95 119/119/119 120/120/120
f 121/121/121 97/97/97 96/96/96
f 96/96/96 120/120/120 121/121/121
f 99/99/99 75/75/75 97/97/97
f 97/97/97 121/121/121 99/99/99
