# GloomhavenVR - valve-index left 'thumbstick' (glTF material 0)
# generated by controllers_pipeline.py from webxr-input-profiles (MIT)
o index_left_thumbstick__m0
v -0.008520 -0.000395 0.061055
v -0.007333 -0.000355 0.060777
v -0.007230 -0.001242 0.061907
v -0.008439 -0.001087 0.061938
v -0.007502 -0.002121 0.063015
v -0.008652 -0.001774 0.062803
v -0.008131 -0.002933 0.064025
v -0.009143 -0.002409 0.063592
v -0.009074 -0.003623 0.064868
v -0.009879 -0.002947 0.064250
v -0.010266 -0.004143 0.065486
v -0.010811 -0.003353 0.064733
v -0.011627 -0.004458 0.065838
v -0.011874 -0.003600 0.065008
v -0.013064 -0.004547 0.065900
v -0.012996 -0.003669 0.065056
v -0.014478 -0.004403 0.065666
v -0.014100 -0.003556 0.064874
v -0.015773 -0.004036 0.065154
v -0.015112 -0.003270 0.064474
v -0.016862 -0.003472 0.064398
v -0.015963 -0.002829 0.063883
v -0.017670 -0.002748 0.063450
v -0.016593 -0.002264 0.063143
v -0.018141 -0.001914 0.062374
v -0.016961 -0.001613 0.062302
v -0.018244 -0.001028 0.061243
v -0.017042 -0.000920 0.061419
v -0.017972 -0.000148 0.060135
v -0.016829 -0.000233 0.060554
v -0.017343 0.000664 0.059126
v -0.016338 0.000401 0.059765
v -0.016400 0.001354 0.058283
v -0.015601 0.000940 0.059107
v -0.015207 0.001874 0.057664
v -0.014670 0.001346 0.058624
v -0.013846 0.002189 0.057312
v -0.013607 0.001592 0.058349
v -0.012410 0.002278 0.057251
v -0.012485 0.001661 0.058301
v -0.010996 0.002134 0.057484
v -0.011380 0.001549 0.058483
v -0.009700 0.001767 0.057996
v -0.010369 0.001263 0.058883
v -0.008611 0.001202 0.058752
v -0.009518 0.000822 0.059473
v -0.007804 0.000479 0.059701
v -0.008888 0.000257 0.060214
v -0.006457 -0.000555 0.060393
v -0.006338 -0.001584 0.061705
v -0.006654 -0.002604 0.062990
v -0.007384 -0.003547 0.064162
v -0.008478 -0.004347 0.065140
v -0.009861 -0.004950 0.065857
v -0.011440 -0.005316 0.066266
v -0.013107 -0.005419 0.066337
v -0.014748 -0.005252 0.066066
v -0.016251 -0.004826 0.065472
v -0.017514 -0.004171 0.064595
v -0.018451 -0.003332 0.063495
v -0.018998 -0.002364 0.062246
v -0.019117 -0.001335 0.060934
v -0.018802 -0.000315 0.059649
v -0.018072 0.000627 0.058477
v -0.016978 0.001428 0.057499
v -0.015594 0.002031 0.056782
v -0.014015 0.002397 0.056373
v -0.012348 0.002500 0.056302
v -0.010707 0.002332 0.056573
v -0.009204 0.001907 0.057167
v -0.007941 0.001252 0.058044
v -0.007004 0.000412 0.059144
v -0.006128 -0.000953 0.059997
v -0.006002 -0.002034 0.061375
v -0.006334 -0.003106 0.062726
v -0.007101 -0.004096 0.063956
v -0.008250 -0.004937 0.064984
v -0.009704 -0.005571 0.065738
v -0.011363 -0.005955 0.066167
v -0.013114 -0.006063 0.066242
v -0.014838 -0.005887 0.065957
v -0.016417 -0.005440 0.065333
v -0.017744 -0.004752 0.064412
v -0.018728 -0.003870 0.063256
v -0.019302 -0.002854 0.061944
v -0.019428 -0.001773 0.060566
v -0.019096 -0.000701 0.059215
v -0.018329 0.000289 0.057984
v -0.017180 0.001130 0.056957
v -0.015726 0.001764 0.056203
v -0.014068 0.002148 0.055774
v -0.012317 0.002256 0.055699
v -0.010593 0.002080 0.055984
v -0.009014 0.001633 0.056608
v -0.007687 0.000945 0.057529
v -0.006702 0.000063 0.058685
v -0.006112 -0.001520 0.059551
v -0.005986 -0.002601 0.060929
v -0.006318 -0.003673 0.062279
v -0.007085 -0.004663 0.063510
v -0.008234 -0.005504 0.064537
v -0.009688 -0.006138 0.065291
v -0.011347 -0.006522 0.065720
v -0.013098 -0.006630 0.065795
v -0.014822 -0.006454 0.065511
v -0.016401 -0.006007 0.064887
v -0.017728 -0.005319 0.063965
v -0.018712 -0.004437 0.062809
v -0.019287 -0.003421 0.061497
v -0.019412 -0.002340 0.060119
v -0.019080 -0.001268 0.058769
v -0.018314 -0.000278 0.057538
v -0.017164 0.000563 0.056511
v -0.015711 0.001197 0.055757
v -0.014052 0.001581 0.055328
v -0.012301 0.001689 0.055253
v -0.010577 0.001513 0.055537
v -0.008998 0.001066 0.056161
v -0.007671 0.000378 0.057083
v -0.006687 -0.000504 0.058239
v -0.006417 -0.002010 0.059248
v -0.006297 -0.003039 0.060560
v -0.006613 -0.004059 0.061845
v -0.007343 -0.005001 0.063017
v -0.008437 -0.005802 0.063995
v -0.009821 -0.006405 0.064713
v -0.011400 -0.006771 0.065121
v -0.013066 -0.006873 0.065192
v -0.014707 -0.006706 0.064922
v -0.016210 -0.006281 0.064327
v -0.017473 -0.005626 0.063450
v -0.018410 -0.004786 0.062350
v -0.018957 -0.003819 0.061101
v -0.019077 -0.002790 0.059790
v -0.018761 -0.001770 0.058504
v -0.018031 -0.000827 0.057332
v -0.016937 -0.000027 0.056355
v -0.015553 0.000576 0.055637
v -0.013974 0.000942 0.055229
v -0.012308 0.001045 0.055157
v -0.010667 0.000878 0.055428
v -0.009163 0.000452 0.056022
v -0.007900 -0.000203 0.056899
v -0.006963 -0.001042 0.058000
v -0.008347 -0.003082 0.058914
v -0.008265 -0.003791 0.059818
v -0.008482 -0.004494 0.060703
v -0.008985 -0.005143 0.061510
v -0.009738 -0.005694 0.062183
v -0.010691 -0.006109 0.062677
v -0.011778 -0.006361 0.062958
v -0.012926 -0.006432 0.063008
v -0.014056 -0.006317 0.062821
v -0.015091 -0.006024 0.062412
v -0.015961 -0.005573 0.061808
v -0.016606 -0.004994 0.061050
v -0.016983 -0.004328 0.060190
v -0.017065 -0.003620 0.059287
v -0.016847 -0.002917 0.058402
v -0.016345 -0.002268 0.057595
v -0.015591 -0.001717 0.056922
v -0.014639 -0.001302 0.056427
v -0.013551 -0.001050 0.056146
v -0.012403 -0.000979 0.056097
v -0.011274 -0.001094 0.056284
v -0.010238 -0.001387 0.056693
v -0.009369 -0.001838 0.057297
v -0.008723 -0.002416 0.058054
v -0.008347 -0.003082 0.058914
v -0.008272 -0.006312 0.056377
v -0.008190 -0.007018 0.057277
v -0.008265 -0.003791 0.059818
v -0.008407 -0.007718 0.058159
v -0.008482 -0.004494 0.060703
v -0.008907 -0.008365 0.058963
v -0.008985 -0.005143 0.061510
v -0.009658 -0.008914 0.059634
v -0.009738 -0.005694 0.062183
v -0.010607 -0.009328 0.060126
v -0.010691 -0.006109 0.062677
v -0.011691 -0.009579 0.060407
v -0.011778 -0.006361 0.062958
v -0.012835 -0.009650 0.060455
v -0.012926 -0.006432 0.063008
v -0.013961 -0.009535 0.060270
v -0.014056 -0.006317 0.062821
v -0.014992 -0.009243 0.059862
v -0.015091 -0.006024 0.062412
v -0.015859 -0.008794 0.059260
v -0.015961 -0.005573 0.061808
v -0.016502 -0.008217 0.058505
v -0.016606 -0.004994 0.061050
v -0.016877 -0.007554 0.057648
v -0.016983 -0.004328 0.060190
v -0.016959 -0.006848 0.056748
v -0.017065 -0.003620 0.059287
v -0.016742 -0.006147 0.055866
v -0.016847 -0.002917 0.058402
v -0.016241 -0.005501 0.055062
v -0.016345 -0.002268 0.057595
v -0.015491 -0.004952 0.054391
v -0.015591 -0.001717 0.056922
v -0.014541 -0.004538 0.053899
v -0.014639 -0.001302 0.056427
v -0.013458 -0.004287 0.053618
v -0.013551 -0.001050 0.056146
v -0.012314 -0.004216 0.053570
v -0.012403 -0.000979 0.056097
v -0.011188 -0.004331 0.053755
v -0.011274 -0.001094 0.056284
v -0.010157 -0.004623 0.054163
v -0.010238 -0.001387 0.056693
v -0.009290 -0.005072 0.054765
v -0.009369 -0.001838 0.057297
v -0.008647 -0.005648 0.055520
v -0.008723 -0.002416 0.058054
v -0.005163 -0.007182 0.054890
v -0.005023 -0.008392 0.056432
v -0.008190 -0.007018 0.057277
v -0.008272 -0.006312 0.056377
v -0.005394 -0.009592 0.057944
v -0.008407 -0.007718 0.058159
v -0.006253 -0.010700 0.059322
v -0.008907 -0.008365 0.058963
v -0.007539 -0.011641 0.060472
v -0.009658 -0.008914 0.059634
v -0.009166 -0.012351 0.061316
v -0.010607 -0.009328 0.060126
v -0.011024 -0.012781 0.061797
v -0.011691 -0.009579 0.060407
v -0.012984 -0.012902 0.061880
v -0.012835 -0.009650 0.060455
v -0.014914 -0.012705 0.061562
v -0.013961 -0.009535 0.060270
v -0.016681 -0.012205 0.060863
v -0.014992 -0.009243 0.059862
v -0.018167 -0.011435 0.059832
v -0.015859 -0.008794 0.059260
v -0.019269 -0.010447 0.058538
v -0.016502 -0.008217 0.058505
v -0.019912 -0.009310 0.057069
v -0.016877 -0.007554 0.057648
v -0.020052 -0.008100 0.055526
v -0.016959 -0.006848 0.056748
v -0.019681 -0.006900 0.054015
v -0.016742 -0.006147 0.055866
v -0.018823 -0.005791 0.052637
v -0.016241 -0.005501 0.055062
v -0.017536 -0.004850 0.051486
v -0.015491 -0.004952 0.054391
v -0.015909 -0.004140 0.050643
v -0.014541 -0.004538 0.053899
v -0.014052 -0.003710 0.050162
v -0.013458 -0.004287 0.053618
v -0.012091 -0.003589 0.050078
v -0.012314 -0.004216 0.053570
v -0.010162 -0.003786 0.050397
v -0.011188 -0.004331 0.053755
v -0.008394 -0.004286 0.051096
v -0.010157 -0.004623 0.054163
v -0.006908 -0.005056 0.052127
v -0.009290 -0.005072 0.054765
v -0.005806 -0.006044 0.053421
v -0.008647 -0.005648 0.055520
v -0.010541 -0.000925 0.061907
v -0.010582 -0.000570 0.061454
v -0.010650 -0.001277 0.062350
v -0.010901 -0.001602 0.062754
v -0.011278 -0.001878 0.063091
v -0.011756 -0.002086 0.063338
v -0.012300 -0.002212 0.063479
v -0.012875 -0.002247 0.063504
v -0.013440 -0.002190 0.063410
v -0.013959 -0.002043 0.063206
v -0.014394 -0.001817 0.062903
v -0.014717 -0.001528 0.062524
v -0.014906 -0.001194 0.062093
v -0.014947 -0.000840 0.061641
v -0.014838 -0.000488 0.061198
v -0.014586 -0.000163 0.060794
v -0.014209 0.000113 0.060457
v -0.013732 0.000321 0.060209
v -0.013188 0.000447 0.060068
v -0.012613 0.000483 0.060044
v -0.012047 0.000425 0.060137
v -0.011529 0.000278 0.060342
v -0.011093 0.000053 0.060644
v -0.010770 -0.000237 0.061024
v -0.012745 -0.000814 0.061827
v -0.003075 -0.008885 0.053018
v -0.002896 -0.010429 0.054986
v -0.003370 -0.011960 0.056914
v -0.004465 -0.013374 0.058672
v -0.006106 -0.014574 0.060139
v -0.008182 -0.015479 0.061216
v -0.010550 -0.016028 0.061828
v -0.013051 -0.016182 0.061935
v -0.015512 -0.015931 0.061529
v -0.017767 -0.015293 0.060638
v -0.019662 -0.014311 0.059322
v -0.021068 -0.013051 0.057671
v -0.021888 -0.011600 0.055798
v -0.022067 -0.010056 0.053830
v -0.021594 -0.008526 0.051902
v -0.020499 -0.007112 0.050144
v -0.018857 -0.005911 0.048677
v -0.016782 -0.005006 0.047600
v -0.014413 -0.004458 0.046988
v -0.011912 -0.004303 0.046881
v -0.009451 -0.004554 0.047287
v -0.007196 -0.005192 0.048178
v -0.005301 -0.006175 0.049494
v -0.003895 -0.007434 0.051145
vt 0.911901 0.668846
vt 0.911183 0.663582
vt 0.917514 0.663746
vt 0.916845 0.669017
vt 0.923587 0.665544
vt 0.921576 0.670462
vt 0.928988 0.668853
vt 0.925773 0.673083
vt 0.933348 0.673446
vt 0.929148 0.676700
vt 0.936371 0.679011
vt 0.931472 0.681067
vt 0.937850 0.685170
vt 0.932586 0.685887
vt 0.937686 0.691501
vt 0.932415 0.690832
vt 0.935888 0.697574
vt 0.930970 0.695563
vt 0.932580 0.702974
vt 0.928350 0.699759
vt 0.927986 0.707335
vt 0.924732 0.703134
vt 0.922421 0.710358
vt 0.920365 0.705458
vt 0.916263 0.711837
vt 0.915545 0.706573
vt 0.909931 0.711673
vt 0.910601 0.706402
vt 0.903858 0.709875
vt 0.905869 0.704957
vt 0.898458 0.706566
vt 0.901673 0.702336
vt 0.894097 0.701973
vt 0.898298 0.698719
vt 0.891074 0.696408
vt 0.895974 0.694352
vt 0.889595 0.690250
vt 0.894859 0.689532
vt 0.889760 0.683918
vt 0.895031 0.684587
vt 0.891557 0.677845
vt 0.896476 0.679856
vt 0.894866 0.672445
vt 0.899096 0.675660
vt 0.899459 0.668084
vt 0.902713 0.672285
vt 0.905025 0.665061
vt 0.907080 0.669961
vt 0.910645 0.660620
vt 0.917761 0.660746
vt 0.924602 0.662710
vt 0.930702 0.666378
vt 0.935644 0.671499
vt 0.939093 0.677725
vt 0.940812 0.684632
vt 0.940686 0.691748
vt 0.938722 0.698589
vt 0.935054 0.704688
vt 0.929933 0.709631
vt 0.923707 0.713080
vt 0.916801 0.714799
vt 0.909684 0.714673
vt 0.902843 0.712709
vt 0.896744 0.709041
vt 0.891801 0.703920
vt 0.888353 0.697694
vt 0.886633 0.690787
vt 0.886759 0.683671
vt 0.888723 0.676830
vt 0.892391 0.670731
vt 0.897512 0.665788
vt 0.903738 0.662339
vt 0.910295 0.658810
vt 0.917892 0.658907
vt 0.925204 0.660968
vt 0.931734 0.664851
vt 0.937037 0.670291
vt 0.940751 0.676919
vt 0.942622 0.684282
vt 0.942525 0.691879
vt 0.940464 0.699191
vt 0.936582 0.705721
vt 0.931141 0.711024
vt 0.924514 0.714737
vt 0.917151 0.716609
vt 0.909554 0.716512
vt 0.902241 0.714451
vt 0.895711 0.710568
vt 0.890409 0.705128
vt 0.886695 0.698500
vt 0.884823 0.691137
vt 0.884921 0.683540
vt 0.886981 0.676228
vt 0.890864 0.669698
vt 0.896304 0.664395
vt 0.902932 0.660682
vt 0.910043 0.656759
vt 0.918179 0.656861
vt 0.926012 0.659066
vt 0.933007 0.663222
vt 0.938687 0.669048
vt 0.942667 0.676145
vt 0.944674 0.684030
vt 0.944571 0.692166
vt 0.942367 0.699999
vt 0.938210 0.706993
vt 0.932385 0.712674
vt 0.925287 0.716654
vt 0.917402 0.718660
vt 0.909266 0.718558
vt 0.901434 0.716353
vt 0.894439 0.712197
vt 0.888758 0.706371
vt 0.884779 0.699274
vt 0.882772 0.691389
vt 0.882874 0.683253
vt 0.885079 0.675420
vt 0.889235 0.668426
vt 0.895061 0.662745
vt 0.902158 0.658766
vt 0.909660 0.655001
vt 0.918264 0.655064
vt 0.926558 0.657352
vt 0.933978 0.661709
vt 0.940017 0.667837
vt 0.944265 0.675320
vt 0.946431 0.683647
vt 0.946368 0.692251
vt 0.944080 0.700545
vt 0.939723 0.707965
vt 0.933595 0.714004
vt 0.926112 0.718252
vt 0.917785 0.720417
vt 0.909181 0.720354
vt 0.900887 0.718067
vt 0.893467 0.713710
vt 0.887428 0.707582
vt 0.883181 0.700099
vt 0.881015 0.691772
vt 0.881078 0.683168
vt 0.883366 0.674874
vt 0.887722 0.667454
vt 0.893850 0.661415
vt 0.901333 0.657167
vt 0.909059 0.649065
vt 0.919220 0.649175
vt 0.929006 0.651911
vt 0.937750 0.657086
vt 0.944858 0.664348
vt 0.949843 0.673203
vt 0.952367 0.683046
vt 0.952257 0.693206
vt 0.949521 0.702992
vt 0.944346 0.711737
vt 0.937084 0.718844
vt 0.928229 0.723830
vt 0.918387 0.726354
vt 0.908226 0.726244
vt 0.898440 0.723508
vt 0.889695 0.718333
vt 0.882588 0.711071
vt 0.877602 0.702216
vt 0.875078 0.692373
vt 0.875188 0.682213
vt 0.877924 0.672426
vt 0.883099 0.663682
vt 0.890361 0.656575
vt 0.899216 0.651589
vt 0.909059 0.649065
vt 0.907187 0.633557
vt 0.921425 0.633711
vt 0.919220 0.649175
vt 0.935139 0.637544
vt 0.929006 0.651911
vt 0.947393 0.644796
vt 0.937750 0.657086
vt 0.957352 0.654973
vt 0.944858 0.664348
vt 0.964338 0.667381
vt 0.949843 0.673203
vt 0.967875 0.681174
vt 0.952367 0.683046
vt 0.967721 0.695412
vt 0.952257 0.693206
vt 0.963888 0.709125
vt 0.949521 0.702992
vt 0.956635 0.721379
vt 0.944346 0.711737
vt 0.946459 0.731339
vt 0.937084 0.718844
vt 0.934051 0.738325
vt 0.928229 0.723830
vt 0.920258 0.741862
vt 0.918387 0.726354
vt 0.906020 0.741708
vt 0.908226 0.726244
vt 0.892307 0.737874
vt 0.898440 0.723508
vt 0.880053 0.730622
vt 0.889695 0.718333
vt 0.870093 0.720446
vt 0.882588 0.711071
vt 0.863107 0.708038
vt 0.877602 0.702216
vt 0.859570 0.694245
vt 0.875078 0.692373
vt 0.859724 0.680007
vt 0.875188 0.682213
vt 0.863557 0.666293
vt 0.877924 0.672426
vt 0.870810 0.654040
vt 0.883099 0.663682
vt 0.880986 0.644080
vt 0.890361 0.656575
vt 0.893394 0.637094
vt 0.899216 0.651589
vt 0.906120 0.624730
vt 0.922680 0.624909
vt 0.921425 0.633711
vt 0.907187 0.633557
vt 0.938664 0.629388
vt 0.935139 0.637544
vt 0.952844 0.637780
vt 0.947393 0.644796
vt 0.964463 0.649636
vt 0.957352 0.654973
vt 0.972588 0.664066
vt 0.964338 0.667381
vt 0.976702 0.680107
vt 0.967875 0.681174
vt 0.976524 0.696666
vt 0.967721 0.695412
vt 0.972065 0.712615
vt 0.963888 0.709125
vt 0.963631 0.726867
vt 0.956635 0.721379
vt 0.951796 0.738450
vt 0.946459 0.731339
vt 0.937366 0.746575
vt 0.934051 0.738325
vt 0.921325 0.750689
vt 0.920258 0.741862
vt 0.904766 0.750510
vt 0.906020 0.741708
vt 0.888817 0.746052
vt 0.892307 0.737874
vt 0.874565 0.737618
vt 0.880053 0.730622
vt 0.862982 0.725783
vt 0.870093 0.720446
vt 0.854857 0.711353
vt 0.863107 0.708038
vt 0.850743 0.695312
vt 0.859570 0.694245
vt 0.850922 0.678752
vt 0.859724 0.680007
vt 0.855380 0.662804
vt 0.863557 0.666293
vt 0.863814 0.648552
vt 0.870810 0.654040
vt 0.875649 0.636969
vt 0.880986 0.644080
vt 0.890079 0.628844
vt 0.893394 0.637094
vt 0.915423 0.678153
vt 0.912892 0.678038
vt 0.917839 0.678918
vt 0.919974 0.680283
vt 0.921683 0.682154
vt 0.922849 0.684403
vt 0.923394 0.686878
vt 0.923280 0.689410
vt 0.922514 0.691825
vt 0.921149 0.693960
vt 0.919278 0.695669
vt 0.917029 0.696836
vt 0.914554 0.697381
vt 0.912022 0.697266
vt 0.909607 0.696501
vt 0.907472 0.695136
vt 0.905763 0.693265
vt 0.904596 0.691016
vt 0.904051 0.688541
vt 0.904166 0.686009
vt 0.904931 0.683594
vt 0.906296 0.681459
vt 0.908167 0.679749
vt 0.910417 0.678583
vt 0.913723 0.687708
vt 0.905144 0.616645
vt 0.923829 0.616846
vt 0.941826 0.621876
vt 0.957907 0.631393
vt 0.970977 0.644747
vt 0.980146 0.661030
vt 0.984788 0.679131
vt 0.984586 0.697816
vt 0.979556 0.715812
vt 0.970039 0.731894
vt 0.956684 0.744964
vt 0.940402 0.754132
vt 0.922301 0.758774
vt 0.903616 0.758573
vt 0.885620 0.753543
vt 0.869538 0.744026
vt 0.856468 0.730671
vt 0.847300 0.714389
vt 0.842658 0.696288
vt 0.842859 0.677603
vt 0.847889 0.659606
vt 0.857406 0.643525
vt 0.870761 0.630455
vt 0.887043 0.621286
vn 0.083529 0.796306 0.599098
vn 0.267577 0.792415 0.548162
vn 0.273078 0.745057 0.608538
vn 0.085541 0.779011 0.621148
vn 0.258539 0.698088 0.667706
vn 0.080226 0.761855 0.642761
vn 0.224945 0.654707 0.721636
vn 0.067956 0.746012 0.662457
vn 0.174589 0.617874 0.766649
vn 0.049564 0.732559 0.678896
vn 0.110901 0.590099 0.799677
vn 0.026308 0.722413 0.690961
vn 0.038227 0.573271 0.818473
vn -0.000238 0.716269 0.697824
vn -0.038491 0.568538 0.821756
vn -0.028255 0.714540 0.699024
vn -0.114020 0.576229 0.809296
vn -0.055845 0.717350 0.694471
vn -0.183208 0.595814 0.781947
vn -0.081113 0.724501 0.684485
vn -0.241341 0.625955 0.741576
vn -0.102345 0.735509 0.669741
vn -0.284466 0.664604 0.690927
vn -0.118096 0.749627 0.651239
vn -0.309637 0.709125 0.633456
vn -0.127288 0.765886 0.630251
vn -0.315142 0.756482 0.573080
vn -0.129296 0.783183 0.608199
vn -0.300602 0.803452 0.513910
vn -0.123986 0.800338 0.586589
vn -0.267007 0.846832 0.459981
vn -0.111715 0.816182 0.566892
vn -0.216648 0.883665 0.414970
vn -0.093325 0.829633 0.550454
vn -0.152961 0.911441 0.381941
vn -0.070067 0.839778 0.538390
vn -0.080282 0.928266 0.363148
vn -0.043520 0.845925 0.531523
vn -0.003571 0.932998 0.359864
vn -0.015498 0.847651 0.530328
vn 0.071956 0.925310 0.372323
vn 0.012081 0.844843 0.534877
vn 0.141147 0.905727 0.399671
vn 0.037351 0.837692 0.544864
vn 0.199282 0.875584 0.440045
vn 0.058586 0.826683 0.559609
vn 0.242407 0.836937 0.490688
vn 0.074335 0.812569 0.578106
vn 0.660138 0.665976 0.347410
vn 0.673023 0.555040 0.488846
vn 0.638963 0.445014 0.627446
vn 0.560267 0.343405 0.753773
vn 0.442313 0.257124 0.859213
vn 0.293122 0.192060 0.936585
vn 0.122882 0.152632 0.980614
vn -0.056826 0.141556 0.988298
vn -0.233744 0.159570 0.959115
vn -0.395817 0.205442 0.895054
vn -0.532003 0.276044 0.800483
vn -0.633021 0.366580 0.681838
vn -0.691983 0.470868 0.547215
vn -0.704866 0.581809 0.405786
vn -0.670803 0.691835 0.267185
vn -0.592119 0.793445 0.140856
vn -0.474156 0.879728 0.035417
vn -0.324976 0.944791 -0.041963
vn -0.154724 0.984209 -0.085987
vn 0.024981 0.995290 -0.093671
vn 0.201899 0.977281 -0.064495
vn 0.363972 0.931410 -0.000419
vn 0.500156 0.860802 0.094151
vn 0.601176 0.770266 0.212786
vn 0.942154 0.334807 0.015814
vn 0.960223 0.179292 0.214072
vn 0.912472 0.025063 0.408371
vn 0.802164 -0.117383 0.585452
vn 0.636807 -0.238320 0.733267
vn 0.427674 -0.329534 0.841726
vn 0.189023 -0.384788 0.903443
vn -0.062882 -0.400322 0.914214
vn -0.310892 -0.375075 0.873307
vn -0.538090 -0.310774 0.783504
vn -0.728994 -0.211801 0.650929
vn -0.870599 -0.084885 0.484615
vn -0.953250 0.061303 0.295900
vn -0.971316 0.216818 0.097645
vn -0.923566 0.371061 -0.096646
vn -0.813260 0.513495 -0.273735
vn -0.647903 0.634450 -0.421539
vn -0.438776 0.725652 -0.530005
vn -0.200121 0.780908 -0.591722
vn 0.051791 0.796441 -0.602494
vn 0.299796 0.771194 -0.561589
vn 0.526992 0.706892 -0.471788
vn 0.717898 0.607912 -0.339213
vn 0.859502 0.481001 -0.172899
vn 0.953250 -0.061305 -0.295898
vn 0.971317 -0.216817 -0.097642
vn 0.923568 -0.371051 0.096655
vn 0.813259 -0.513495 0.273737
vn 0.647907 -0.634446 0.421540
vn 0.438773 -0.725655 0.530004
vn 0.200121 -0.780907 0.591723
vn -0.051790 -0.796433 0.602506
vn -0.299799 -0.771190 0.561593
vn -0.526997 -0.706887 0.471790
vn -0.717897 -0.607911 0.339216
vn -0.859504 -0.480996 0.172905
vn -0.942155 -0.334805 -0.015816
vn -0.960221 -0.179297 -0.214077
vn -0.912471 -0.025068 -0.408372
vn -0.802163 0.117385 -0.585453
vn -0.636809 0.238335 -0.733260
vn -0.427682 0.329541 -0.841719
vn -0.189027 0.384796 -0.903438
vn 0.062885 0.400327 -0.914212
vn 0.310891 0.375087 -0.873302
vn 0.538089 0.310777 -0.783504
vn 0.728995 0.211797 -0.650929
vn 0.870598 0.084885 -0.484617
vn 0.701638 -0.461782 -0.542643
vn 0.714718 -0.574337 -0.399143
vn 0.680153 -0.685972 -0.258524
vn 0.600318 -0.789069 -0.130342
vn 0.480632 -0.876611 -0.023373
vn 0.329267 -0.942626 0.055131
vn 0.156539 -0.982617 0.099794
vn -0.025790 -0.993859 0.107604
vn -0.205296 -0.975587 0.077995
vn -0.369740 -0.929044 0.013000
vn -0.507911 -0.857406 -0.082956
vn -0.610402 -0.765549 -0.203332
vn -0.670220 -0.659741 -0.339922
vn -0.683300 -0.547178 -0.483422
vn -0.648733 -0.435560 -0.624046
vn -0.568899 -0.332451 -0.752217
vn -0.449220 -0.244908 -0.859198
vn -0.297854 -0.178892 -0.937700
vn -0.125121 -0.138905 -0.982370
vn 0.057207 -0.127665 -0.990166
vn 0.236710 -0.145933 -0.960558
vn 0.401153 -0.192471 -0.895562
vn 0.539329 -0.264110 -0.799606
vn 0.641814 -0.355971 -0.679234
vn 0.461096 -0.637614 -0.617122
vn 0.469511 -0.710053 -0.524771
vn 0.447270 -0.781896 -0.434267
vn 0.395888 -0.848247 -0.351782
vn 0.318863 -0.904588 -0.282925
vn 0.221448 -0.947074 -0.232403
vn 0.110283 -0.972812 -0.203653
vn -0.007064 -0.980048 -0.198635
vn -0.122589 -0.968288 -0.217694
vn -0.228422 -0.938334 -0.259524
vn -0.317346 -0.892229 -0.321278
vn -0.383307 -0.833111 -0.398751
vn -0.421805 -0.765015 -0.486654
vn -0.430223 -0.692572 -0.579009
vn -0.407983 -0.620729 -0.669512
vn -0.356599 -0.554378 -0.751999
vn -0.279575 -0.498041 -0.820849
vn -0.182157 -0.455552 -0.871373
vn -0.070984 -0.429811 -0.900124
vn 0.046355 -0.422576 -0.905141
vn 0.161878 -0.434336 -0.886086
vn 0.267708 -0.464291 -0.844255
vn 0.356635 -0.510396 -0.782501
vn 0.422596 -0.569513 -0.705030
vn 0.979407 0.138317 -0.147072
vn 0.979407 0.138317 -0.147073
vn 0.998077 -0.022384 0.057804
vn 0.998077 -0.022384 0.057802
vn 0.948736 -0.181763 0.258577
vn 0.948736 -0.181763 0.258577
vn 0.834745 -0.328961 0.441572
vn 0.834748 -0.328959 0.441567
vn 0.663871 -0.453947 0.594312
vn 0.663879 -0.453943 0.594306
vn 0.447762 -0.548200 0.706390
vn 0.447770 -0.548196 0.706387
vn 0.201145 -0.605296 0.770167
vn 0.201151 -0.605295 0.770166
vn -0.059164 -0.621347 0.781299
vn -0.059164 -0.621346 0.781299
vn -0.315448 -0.595258 0.739026
vn -0.315449 -0.595258 0.739027
vn -0.550228 -0.528808 0.646228
vn -0.550229 -0.528808 0.646228
vn -0.747503 -0.426524 0.509231
vn -0.747500 -0.426527 0.509233
vn -0.893829 -0.295382 0.337370
vn -0.893828 -0.295384 0.337372
vn -0.979239 -0.144311 0.142356
vn -0.979239 -0.144309 0.142355
vn -0.997909 0.016390 -0.062519
vn -0.997909 0.016390 -0.062518
vn -0.948568 0.175771 -0.263293
vn -0.948568 0.175769 -0.263294
vn -0.834577 0.322971 -0.446287
vn -0.834580 0.322964 -0.446286
vn -0.663706 0.447952 -0.599027
vn -0.663710 0.447948 -0.599025
vn -0.447601 0.542202 -0.711105
vn -0.447600 0.542202 -0.711105
vn -0.200982 0.599300 -0.774885
vn -0.200975 0.599301 -0.774885
vn 0.059339 0.615353 -0.786015
vn 0.059338 0.615352 -0.786016
vn 0.315614 0.589265 -0.743744
vn 0.315612 0.589265 -0.743745
vn 0.550396 0.522814 -0.650945
vn 0.550396 0.522815 -0.650945
vn 0.747670 0.420532 -0.513948
vn 0.747667 0.420534 -0.513951
vn 0.893996 0.289389 -0.342091
vn 0.893997 0.289388 -0.342087
vn 0.614296 0.691826 0.379495
vn 0.626328 0.588262 0.511527
vn 0.449818 0.684284 0.573950
vn 0.441039 0.759845 0.477619
vn 0.594530 0.485551 0.640917
vn 0.426618 0.609348 0.668351
vn 0.521069 0.390687 0.758848
vn 0.373021 0.540135 0.754393
vn 0.410950 0.310142 0.857282
vn 0.292680 0.481369 0.826210
vn 0.271680 0.249404 0.929509
vn 0.191071 0.437055 0.878906
vn 0.112750 0.212607 0.970611
vn 0.075117 0.410209 0.908893
vn -0.055011 0.202262 0.977785
vn -0.047278 0.402662 0.914127
vn -0.220170 0.219074 0.950543
vn -0.167784 0.414927 0.894250
vn -0.371475 0.261897 0.890739
vn -0.278171 0.446170 0.850619
vn -0.498610 0.327813 0.802451
vn -0.370930 0.494264 0.786202
vn -0.592910 0.412329 0.691695
vn -0.439730 0.555925 0.705397
vn -0.647951 0.509686 0.566020
vn -0.479886 0.626955 0.613707
vn -0.659984 0.613250 0.433987
vn -0.488666 0.702515 0.517376
vn -0.628185 0.715963 0.304598
vn -0.465467 0.777455 0.422971
vn -0.554725 0.810824 0.186668
vn -0.411871 0.846662 0.336935
vn -0.444605 0.891370 0.088234
vn -0.331529 0.905428 0.265118
vn -0.305336 0.952110 0.016006
vn -0.229915 0.949746 0.212417
vn -0.146406 0.988906 -0.025096
vn -0.113960 0.976592 0.182431
vn 0.021355 0.999251 -0.032269
vn 0.008439 0.984139 0.177199
vn 0.186516 0.982439 -0.005026
vn 0.128931 0.971873 0.197076
vn 0.337820 0.939616 0.054777
vn 0.239323 0.940630 0.240707
vn 0.464952 0.873700 0.143065
vn 0.332081 0.892538 0.305121
vn 0.559253 0.789184 0.253819
vn 0.400882 0.830876 0.385926
vn 0.035610 0.783236 0.620704
vn 0.034533 0.792502 0.608890
vn 0.032762 0.774041 0.632288
vn 0.026183 0.765542 0.642852
vn 0.016328 0.758336 0.651659
vn 0.003859 0.752898 0.658126
vn -0.010374 0.749603 0.661806
vn -0.025390 0.748679 0.662446
vn -0.040179 0.750185 0.660006
vn -0.053718 0.754018 0.654654
vn -0.065094 0.759918 0.646751
vn -0.073541 0.767486 0.636834
vn -0.078468 0.776200 0.625585
vn -0.079546 0.785468 0.613769
vn -0.076700 0.794662 0.602188
vn -0.070123 0.803157 0.591626
vn -0.060262 0.810371 0.582809
vn -0.047797 0.815807 0.576345
vn -0.033572 0.819100 0.572667
vn -0.018554 0.820028 0.572023
vn -0.003765 0.818522 0.574462
vn 0.009778 0.814690 0.579814
vn 0.021158 0.808790 0.587717
vn 0.029603 0.801223 0.597633
vn -0.022001 0.785662 0.618265
vn 0.744706 0.606325 0.278894
vn 0.759169 0.481840 0.437599
vn 0.720948 0.358376 0.593128
vn 0.632646 0.244351 0.734882
vn 0.500282 0.147535 0.853201
vn 0.332878 0.074527 0.940020
vn 0.141836 0.030295 0.989426
vn -0.059818 0.017860 0.998050
vn -0.258344 0.038068 0.965303
vn -0.440214 0.089540 0.893417
vn -0.593027 0.168772 0.787296
vn -0.706379 0.270365 0.654164
vn -0.772541 0.387390 0.503099
vn -0.787004 0.511876 0.344394
vn -0.748782 0.635339 0.188865
vn -0.660481 0.749363 0.047109
vn -0.528117 0.846181 -0.071207
vn -0.360712 0.919192 -0.158027
vn -0.169673 0.963422 -0.207435
vn 0.031978 0.975857 -0.216058
vn 0.230505 0.955649 -0.183310
vn 0.412374 0.904175 -0.111425
vn 0.565192 0.824942 -0.005301
vn 0.678543 0.723353 0.127828
f 3/3/3 2/2/2 1/1/1
f 1/1/1 4/4/4 3/3/3
f 5/5/5 3/3/3 4/4/4
f 4/4/4 6/6/6 5/5/5
f 7/7/7 5/5/5 6/6/6
f 6/6/6 8/8/8 7/7/7
f 9/9/9 7/7/7 8/8/8
f 8/8/8 10/10/10 9/9/9
f 11/11/11 9/9/9 10/10/10
f 10/10/10 12/12/12 11/11/11
f 13/13/13 11/11/11 12/12/12
f 12/12/12 14/14/14 13/13/13
f 15/15/15 13/13/13 14/14/14
f 14/14/14 16/16/16 15/15/15
f 17/17/17 15/15/15 16/16/16
f 16/16/16 18/18/18 17/17/17
f 19/19/19 17/17/17 18/18/18
f 18/18/18 20/20/20 19/19/19
f 21/21/21 19/19/19 20/20/20
f 20/20/20 22/22/22 21/21/21
f 23/23/23 21/21/21 22/22/22
f 22/22/22 24/24/24 23/23/23
f 25/25/25 23/23/23 24/24/24
f 24/24/24 26/26/26 25/25/25
f 27/27/27 25/25/25 26/26/26
f 26/26/26 28/28/28 27/27/27
f 29/29/29 27/27/27 28/28/28
f 28/28/28 30/30/30 29/29/29
f 31/31/31 29/29/29 30/30/30
f 30/30/30 32/32/32 31/31/31
f 33/33/33 31/31/31 32/32/32
f 32/32/32 34/34/34 33/33/33
f 35/35/35 33/33/33 34/34/34
f 34/34/34 36/36/36 35/35/35
f 37/37/37 35/35/35 36/36/36
f 36/36/36 38/38/38 37/37/37
f 39/39/39 37/37/37 38/38/38
f 38/38/38 40/40/40 39/39/39
f 41/41/41 39/39/39 40/40/40
f 40/40/40 42/42/42 41/41/41
f 43/43/43 41/41/41 42/42/42
f 42/42/42 44/44/44 43/43/43
f 45/45/45 43/43/43 44/44/44
f 44/44/44 46/46/46 45/45/45
f 47/47/47 45/45/45 46/46/46
f 46/46/46 48/48/48 47/47/47
f 2/2/2 47/47/47 48/48/48
f 48/48/48 1/1/1 2/2/2
f 50/50/50 49/49/49 2/2/2
f 2/2/2 3/3/3 50/50/50
f 51/51/51 50/50/50 3/3/3
f 3/3/3 5/5/5 51/51/51
f 52/52/52 51/51/51 5/5/5
f 5/5/5 7/7/7 52/52/52
f 53/53/53 52/52/52 7/7/7
f 7/7/7 9/9/9 53/53/53
f 54/54/54 53/53/53 9/9/9
f 9/9/9 11/11/11 54/54/54
f 55/55/55 54/54/54 11/11/11
f 11/11/11 13/13/13 55/55/55
f 56/56/56 55/55/55 13/13/13
f 13/13/13 15/15/15 56/56/56
f 57/57/57 56/56/56 15/15/15
f 15/15/15 17/17/17 57/57/57
f 58/58/58 57/57/57 17/17/17
f 17/17/17 19/19/19 58/58/58
f 59/59/59 58/58/58 19/19/19
f 19/19/19 21/21/21 59/59/59
f 60/60/60 59/59/59 21/21/21
f 21/21/21 23/23/23 60/60/60
f 61/61/61 60/60/60 23/23/23
f 23/23/23 25/25/25 61/61/61
f 62/62/62 61/61/61 25/25/25
f 25/25/25 27/27/27 62/62/62
f 63/63/63 62/62/62 27/27/27
f 27/27/27 29/29/29 63/63/63
f 64/64/64 63/63/63 29/29/29
f 29/29/29 31/31/31 64/64/64
f 65/65/65 64/64/64 31/31/31
f 31/31/31 33/33/33 65/65/65
f 66/66/66 65/65/65 33/33/33
f 33/33/33 35/35/35 66/66/66
f 67/67/67 66/66/66 35/35/35
f 35/35/35 37/37/37 67/67/67
f 68/68/68 67/67/67 37/37/37
f 37/37/37 39/39/39 68/68/68
f 69/69/69 68/68/68 39/39/39
f 39/39/39 41/41/41 69/69/69
f 70/70/70 69/69/69 41/41/41
f 41/41/41 43/43/43 70/70/70
f 71/71/71 70/70/70 43/43/43
f 43/43/43 45/45/45 71/71/71
f 72/72/72 71/71/71 45/45/45
f 45/45/45 47/47/47 72/72/72
f 49/49/49 72/72/72 47/47/47
f 47/47/47 2/2/2 49/49/49
f 74/74/74 73/73/73 49/49/49
f 49/49/49 50/50/50 74/74/74
f 75/75/75 74/74/74 50/50/50
f 50/50/50 51/51/51 75/75/75
f 76/76/76 75/75/75 51/51/51
f 51/51/51 52/52/52 76/76/76
f 77/77/77 76/76/76 52/52/52
f 52/52/52 53/53/53 77/77/77
f 78/78/78 77/77/77 53/53/53
f 53/53/53 54/54/54 78/78/78
f 79/79/79 78/78/78 54/54/54
f 54/54/54 55/55/55 79/79/79
f 80/80/80 79/79/79 55/55/55
f 55/55/55 56/56/56 80/80/80
f 81/81/81 80/80/80 56/56/56
f 56/56/56 57/57/57 81/81/81
f 82/82/82 81/81/81 57/57/57
f 57/57/57 58/58/58 82/82/82
f 83/83/83 82/82/82 58/58/58
f 58/58/58 59/59/59 83/83/83
f 84/84/84 83/83/83 59/59/59
f 59/59/59 60/60/60 84/84/84
f 85/85/85 84/84/84 60/60/60
f 60/60/60 61/61/61 85/85/85
f 86/86/86 85/85/85 61/61/61
f 61/61/61 62/62/62 86/86/86
f 87/87/87 86/86/86 62/62/62
f 62/62/62 63/63/63 87/87/87
f 88/88/88 87/87/87 63/63/63
f 63/63/63 64/64/64 88/88/88
f 89/89/89 88/88/88 64/64/64
f 64/64/64 65/65/65 89/89/89
f 90/90/90 89/89/89 65/65/65
f 65/65/65 66/66/66 90/90/90
f 91/91/91 90/90/90 66/66/66
f 66/66/66 67/67/67 91/91/91
f 92/92/92 91/91/91 67/67/67
f 67/67/67 68/68/68 92/92/92
f 93/93/93 92/92/92 68/68/68
f 68/68/68 69/69/69 93/93/93
f 94/94/94 93/93/93 69/69/69
f 69/69/69 70/70/70 94/94/94
f 95/95/95 94/94/94 70/70/70
f 70/70/70 71/71/71 95/95/95
f 96/96/96 95/95/95 71/71/71
f 71/71/71 72/72/72 96/96/96
f 73/73/73 96/96/96 72/72/72
f 72/72/72 49/49/49 73/73/73
f 98/98/98 97/97/97 73/73/73
f 73/73/73 74/74/74 98/98/98
f 99/99/99 98/98/98 74/74/74
f 74/74/74 75/75/75 99/99/99
f 100/100/100 99/99/99 75/75/75
f 75/75/75 76/76/76 100/100/100
f 101/101/101 100/100/100 76/76/76
f 76/76/76 77/77/77 101/101/101
f 102/102/102 101/101/101 77/77/77
f 77/77/77 78/78/78 102/102/102
f 103/103/103 102/102/102 78/78/78
f 78/78/78 79/79/79 103/103/103
f 104/104/104 103/103/103 79/79/79
f 79/79/79 80/80/80 104/104/104
f 105/105/105 104/104/104 80/80/80
f 80/80/80 81/81/81 105/105/105
f 106/106/106 105/105/105 81/81/81
f 81/81/81 82/82/82 106/106/106
f 107/107/107 106/106/106 82/82/82
f 82/82/82 83/83/83 107/107/107
f 108/108/108 107/107/107 83/83/83
f 83/83/83 84/84/84 108/108/108
f 109/109/109 108/108/108 84/84/84
f 84/84/84 85/85/85 109/109/109
f 110/110/110 109/109/109 85/85/85
f 85/85/85 86/86/86 110/110/110
f 111/111/111 110/110/110 86/86/86
f 86/86/86 87/87/87 111/111/111
f 112/112/112 111/111/111 87/87/87
f 87/87/87 88/88/88 112/112/112
f 113/113/113 112/112/112 88/88/88
f 88/88/88 89/89/89 113/113/113
f 114/114/114 113/113/113 89/89/89
f 89/89/89 90/90/90 114/114/114
f 115/115/115 114/114/114 90/90/90
f 90/90/90 91/91/91 115/115/115
f 116/116/116 115/115/115 91/91/91
f 91/91/91 92/92/92 116/116/116
f 117/117/117 116/116/116 92/92/92
f 92/92/92 93/93/93 117/117/117
f 118/118/118 117/117/117 93/93/93
f 93/93/93 94/94/94 118/118/118
f 119/119/119 118/118/118 94/94/94
f 94/94/94 95/95/95 119/119/119
f 120/120/120 119/119/119 95/95/95
f 95/95/95 96/96/96 120/120/120
f 97/97/97 120/120/120 96/96/96
f 96/96/96 73/73/73 97/97/97
f 122/122/122 121/121/121 97/97/97
f 97/97/97 98/98/98 122/122/122
f 123/123/123 122/122/122 98/98/98
f 98/98/98 99/99/99 123/123/123
f 124/124/124 123/123/123 99/99/99
f 99/99/99 100/100/100 124/124/124
f 125/125/125 124/124/124 100/100/100
f 100/100/100 101/101/101 125/125/125
f 126/126/126 125/125/125 101/101/101
f 101/101/101 102/102/102 126/126/126
f 127/127/127 126/126/126 102/102/102
f 102/102/102 103/103/103 127/127/127
f 128/128/128 127/127/127 103/103/103
f 103/103/103 104/104/104 128/128/128
f 129/129/129 128/128/128 104/104/104
f 104/104/104 105/105/105 129/129/129
f 130/130/130 129/129/129 105/105/105
f 105/105/105 106/106/106 130/130/130
f 131/131/131 130/130/130 106/106/106
f 106/106/106 107/107/107 131/131/131
f 132/132/132 131/131/131 107/107/107
f 107/107/107 108/108/108 132/132/132
f 133/133/133 132/132/132 108/108/108
f 108/108/108 109/109/109 133/133/133
f 134/134/134 133/133/133 109/109/109
f 109/109/109 110/110/110 134/134/134
f 135/135/135 134/134/134 110/110/110
f 110/110/110 111/111/111 135/135/135
f 136/136/136 135/135/135 111/111/111
f 111/111/111 112/112/112 136/136/136
f 137/137/137 136/136/136 112/112/112
f 112/112/112 113/113/113 137/137/137
f 138/138/138 137/137/137 113/113/113
f 113/113/113 114/114/114 138/138/138
f 139/139/139 138/138/138 114/114/114
f 114/114/114 115/115/115 139/139/139
f 140/140/140 139/139/139 115/115/115
f 115/115/115 116/116/116 140/140/140
f 141/141/141 140/140/140 116/116/116
f 116/116/116 117/117/117 141/141/141
f 142/142/142 141/141/141 117/117/117
f 117/117/117 118/118/118 142/142/142
f 143/143/143 142/142/142 118/118/118
f 118/118/118 119/119/119 143/143/143
f 144/144/144 143/143/143 119/119/119
f 119/119/119 120/120/120 144/144/144
f 121/121/121 144/144/144 120/120/120
f 120/120/120 97/97/97 121/121/121
f 146/146/146 145/145/145 121/121/121
f 121/121/121 122/122/122 146/146/146
f 147/147/147 146/146/146 122/122/122
f 122/122/122 123/123/123 147/147/147
f 148/148/148 147/147/147 123/123/123
f 123/123/123 124/124/124 148/148/148
f 149/149/149 148/148/148 124/124/124
f 124/124/124 125/125/125 149/149/149
f 150/150/150 149/149/149 125/125/125
f 125/125/125 126/126/126 150/150/150
f 151/151/151 150/150/150 126/126/126
f 126/126/126 127/127/127 151/151/151
f 152/152/152 151/151/151 127/127/127
f 127/127/127 128/128/128 152/152/152
f 153/153/153 152/152/152 128/128/128
f 128/128/128 129/129/129 153/153/153
f 154/154/154 153/153/153 129/129/129
f 129/129/129 130/130/130 154/154/154
f 155/155/155 154/154/154 130/130/130
f 130/130/130 131/131/131 155/155/155
f 156/156/156 155/155/155 131/131/131
f 131/131/131 132/132/132 156/156/156
f 157/157/157 156/156/156 132/132/132
f 132/132/132 133/133/133 157/157/157
f 158/158/158 157/157/157 133/133/133
f 133/133/133 134/134/134 158/158/158
f 159/159/159 158/158/158 134/134/134
f 134/134/134 135/135/135 159/159/159
f 160/160/160 159/159/159 135/135/135
f 135/135/135 136/136/136 160/160/160
f 161/161/161 160/160/160 136/136/136
f 136/136/136 137/137/137 161/161/161
f 162/162/162 161/161/161 137/137/137
f 137/137/137 138/138/138 162/162/162
f 163/163/163 162/162/162 138/138/138
f 138/138/138 139/139/139 163/163/163
f 164/164/164 163/163/163 139/139/139
f 139/139/139 140/140/140 164/164/164
f 165/165/165 164/164/164 140/140/140
f 140/140/140 141/141/141 165/165/165
f 166/166/166 165/165/165 141/141/141
f 141/141/141 142/142/142 166/166/166
f 167/167/167 166/166/166 142/142/142
f 142/142/142 143/143/143 167/167/167
f 168/168/168 167/167/167 143/143/143
f 143/143/143 144/144/144 168/168/168
f 145/145/145 168/168/168 144/144/144
f 144/144/144 121/121/121 145/145/145
f 171/171/171 170/170/170 169/169/169
f 169/169/169 172/172/172 171/171/171
f 173/173/173 171/171/171 172/172/172
f 172/172/172 174/174/174 173/173/173
f 175/175/175 173/173/173 174/174/174
f 174/174/174 176/176/176 175/175/175
f 177/177/177 175/175/175 176/176/176
f 176/176/176 178/178/178 177/177/177
f 179/179/179 177/177/177 178/178/178
f 178/178/178 180/180/180 179/179/179
f 181/181/181 179/179/179 180/180/180
f 180/180/180 182/182/182 181/181/181
f 183/183/183 181/181/181 182/182/182
f 182/182/182 184/184/184 183/183/183
f 185/185/185 183/183/183 184/184/184
f 184/184/184 186/186/186 185/185/185
f 187/187/187 185/185/185 186/186/186
f 186/186/186 188/188/188 187/187/187
f 189/189/189 187/187/187 188/188/188
f 188/188/188 190/190/190 189/189/189
f 191/191/191 189/189/189 190/190/190
f 190/190/190 192/192/192 191/191/191
f 193/193/193 191/191/191 192/192/192
f 192/192/192 194/194/194 193/193/193
f 195/195/195 193/193/193 194/194/194
f 194/194/194 196/196/196 195/195/195
f 197/197/197 195/195/195 196/196/196
f 196/196/196 198/198/198 197/197/197
f 199/199/199 197/197/197 198/198/198
f 198/198/198 200/200/200 199/199/199
f 201/201/201 199/199/199 200/200/200
f 200/200/200 202/202/202 201/201/201
f 203/203/203 201/201/201 202/202/202
f 202/202/202 204/204/204 203/203/203
f 205/205/205 203/203/203 204/204/204
f 204/204/204 206/206/206 205/205/205
f 207/207/207 205/205/205 206/206/206
f 206/206/206 208/208/208 207/207/207
f 209/209/209 207/207/207 208/208/208
f 208/208/208 210/210/210 209/209/209
f 211/211/211 209/209/209 210/210/210
f 210/210/210 212/212/212 211/211/211
f 213/213/213 211/211/211 212/212/212
f 212/212/212 214/214/214 213/213/213
f 215/215/215 213/213/213 214/214/214
f 214/214/214 216/216/216 215/215/215
f 170/170/170 215/215/215 216/216/216
f 216/216/216 169/169/169 170/170/170
f 219/219/219 218/218/218 217/217/217
f 217/217/217 220/220/220 219/219/219
f 222/222/222 221/221/221 218/218/218
f 218/218/218 219/219/219 222/222/222
f 224/224/224 223/223/223 221/221/221
f 221/221/221 222/222/222 224/224/224
f 226/226/226 225/225/225 223/223/223
f 223/223/223 224/224/224 226/226/226
f 228/228/228 227/227/227 225/225/225
f 225/225/225 226/226/226 228/228/228
f 230/230/230 229/229/229 227/227/227
f 227/227/227 228/228/228 230/230/230
f 232/232/232 231/231/231 229/229/229
f 229/229/229 230/230/230 232/232/232
f 234/234/234 233/233/233 231/231/231
f 231/231/231 232/232/232 234/234/234
f 236/236/236 235/235/235 233/233/233
f 233/233/233 234/234/234 236/236/236
f 238/238/238 237/237/237 235/235/235
f 235/235/235 236/236/236 238/238/238
f 240/240/240 239/239/239 237/237/237
f 237/237/237 238/238/238 240/240/240
f 242/242/242 241/241/241 239/239/239
f 239/239/239 240/240/240 242/242/242
f 244/244/244 243/243/243 241/241/241
f 241/241/241 242/242/242 244/244/244
f 246/246/246 245/245/245 243/243/243
f 243/243/243 244/244/244 246/246/246
f 248/248/248 247/247/247 245/245/245
f 245/245/245 246/246/246 248/248/248
f 250/250/250 249/249/249 247/247/247
f 247/247/247 248/248/248 250/250/250
f 252/252/252 251/251/251 249/249/249
f 249/249/249 250/250/250 252/252/252
f 254/254/254 253/253/253 251/251/251
f 251/251/251 252/252/252 254/254/254
f 256/256/256 255/255/255 253/253/253
f 253/253/253 254/254/254 256/256/256
f 258/258/258 257/257/257 255/255/255
f 255/255/255 256/256/256 258/258/258
f 260/260/260 259/259/259 257/257/257
f 257/257/257 258/258/258 260/260/260
f 262/262/262 261/261/261 259/259/259
f 259/259/259 260/260/260 262/262/262
f 264/264/264 263/263/263 261/261/261
f 261/261/261 262/262/262 264/264/264
f 220/220/220 217/217/217 263/263/263
f 263/263/263 264/264/264 220/220/220
f 1/1/1 266/266/266 265/265/265
f 265/265/265 4/4/4 1/1/1
f 4/4/4 265/265/265 267/267/267
f 267/267/267 6/6/6 4/4/4
f 6/6/6 267/267/267 268/268/268
f 268/268/268 8/8/8 6/6/6
f 8/8/8 268/268/268 269/269/269
f 269/269/269 10/10/10 8/8/8
f 10/10/10 269/269/269 270/270/270
f 270/270/270 12/12/12 10/10/10
f 12/12/12 270/270/270 271/271/271
f 271/271/271 14/14/14 12/12/12
f 14/14/14 271/271/271 272/272/272
f 272/272/272 16/16/16 14/14/14
f 16/16/16 272/272/272 273/273/273
f 273/273/273 18/18/18 16/16/16
f 18/18/18 273/273/273 274/274/274
f 274/274/274 20/20/20 18/18/18
f 20/20/20 274/274/274 275/275/275
f 275/275/275 22/22/22 20/20/20
f 22/22/22 275/275/275 276/276/276
f 276/276/276 24/24/24 22/22/22
f 24/24/24 276/276/276 277/277/277
f 277/277/277 26/26/26 24/24/24
f 26/26/26 277/277/277 278/278/278
f 278/278/278 28/28/28 26/26/26
f 28/28/28 278/278/278 279/279/279
f 279/279/279 30/30/30 28/28/28
f 30/30/30 279/279/279 280/280/280
f 280/280/280 32/32/32 30/30/30
f 32/32/32 280/280/280 281/281/281
f 281/281/281 34/34/34 32/32/32
f 34/34/34 281/281/281 282/282/282
f 282/282/282 36/36/36 34/34/34
f 36/36/36 282/282/282 283/283/283
f 283/283/283 38/38/38 36/36/36
f 38/38/38 283/283/283 284/284/284
f 284/284/284 40/40/40 38/38/38
f 40/40/40 284/284/284 285/285/285
f 285/285/285 42/42/42 40/40/40
f 42/42/42 285/285/285 286/286/286
f 286/286/286 44/44/44 42/42/42
f 44/44/44 286/286/286 287/287/287
f 287/287/287 46/46/46 44/44/44
f 46/46/46 287/287/287 288/288/288
f 288/288/288 48/48/48 46/46/46
f 48/48/48 288/288/288 266/266/266
f 266/266/266 1/1/1 48/48/48
f 289/289/289 265/265/265 266/266/266
f 289/289/289 267/267/267 265/265/265
f 289/289/289 268/268/268 267/267/267
f 289/289/289 269/269/269 268/268/268
f 289/289/289 270/270/270 269/269/269
f 289/289/289 271/271/271 270/270/270
f 289/289/289 272/272/272 271/271/271
f 289/289/289 273/273/273 272/272/272
f 289/289/289 274/274/274 273/273/273
f 289/289/289 275/275/275 274/274/274
f 289/289/289 276/276/276 275/275/275
f 289/289/289 277/277/277 276/276/276
f 289/289/289 278/278/278 277/277/277
f 289/289/289 279/279/279 278/278/278
f 289/289/289 280/280/280 279/279/279
f 289/289/289 281/281/281 280/280/280
f 289/289/289 282/282/282 281/281/281
f 289/289/289 283/283/283 282/282/282
f 289/289/289 284/284/284 283/283/283
f 289/289/289 285/285/285 284/284/284
f 289/289/289 286/286/286 285/285/285
f 289/289/289 287/287/287 286/286/286
f 289/289/289 288/288/288 287/287/287
f 289/289/289 266/266/266 288/288/288
f 290/290/290 217/217/217 218/218/218
f 218/218/218 291/291/291 290/290/290
f 291/291/291 218/218/218 221/221/221
f 221/221/221 292/292/292 291/291/291
f 292/292/292 221/221/221 223/223/223
f 223/223/223 293/293/293 292/292/292
f 293/293/293 223/223/223 225/225/225
f 225/225/225 294/294/294 293/293/293
f 294/294/294 225/225/225 227/227/227
f 227/227/227 295/295/295 294/294/294
f 295/295/295 227/227/227 229/229/229
f 229/229/229 296/296/296 295/295/295
f 296/296/296 229/229/229 231/231/231
f 231/231/231 297/297/297 296/296/296
f 297/297/297 231/231/231 233/233/233
f 233/233/233 298/298/298 297/297/297
f 298/298/298 233/233/233 235/235/235
f 235/235/235 299/299/299 298/298/298
f 299/299/299 235/235/235 237/237/237
f 237/237/237 300/300/300 299/299/299
f 300/300/300 237/237/237 239/239/239
f 239/239/239 301/301/301 300/300/300
f 301/301/301 239/239/239 241/241/241
f 241/241/241 302/302/302 301/301/301
f 302/302/302 241/241/241 243/243/243
f 243/243/243 303/303/303 302/302/302
f 303/303/303 243/243/243 245/245/245
f 245/245/245 304/304/304 303/303/303
f 304/304/304 245/245/245 247/247/247
f 247/247/247 305/305/305 304/304/304
f 305/305/305 247/247/247 249/249/249
f 249/249/249 306/306/306 305/305/305
f 306/306/306 249/249/249 251/251/251
f 251/251/251 307/307/307 306/306/306
f 307/307/307 251/251/251 253/253/253
f 253/253/253 308/308/308 307/307/307
f 308/308/308 253/253/253 255/255/255
f 255/255/255 309/309/309 308/308/308
f 309/309/309 255/255/255 257/257/257
f 257/257/257 310/310/310 309/309/309
f 310/310/310 257/257/257 259/259/259
f 259/259/259 311/311/311 310/310/310
f 311/311/311 259/259/259 261/261/261
f 261/261/261 312/312/312 311/311/311
f 312/312/312 261/261/261 263/263/263
f 263/263/263 313/313/313 312/312/312
f 313/313/313 263/263/263 217/217/217
f 217/217/217 290/290/290 313/313/313
