# GloomhavenVR - valve-index right 'touchpad' (glTF material 0)
# generated by controllers_pipeline.py from webxr-input-profiles (MIT)
o index_right_touchpad__m0
v -0.002354 0.008452 0.036492
v -0.002493 0.008033 0.037023
v -0.004383 0.008158 0.037005
v -0.002648 0.007449 0.037500
v -0.004310 0.007585 0.037437
v -0.004363 0.008585 0.036468
v -0.011438 0.004855 0.042177
v -0.012148 0.005062 0.042056
v -0.012145 0.005069 0.042046
v -0.010722 0.004418 0.042225
v -0.011916 0.000751 0.047037
v -0.012724 0.001126 0.047124
v -0.013443 0.001287 0.047065
v -0.011094 0.005577 0.041170
v -0.011787 0.005793 0.041032
v -0.010605 0.006158 0.040314
v -0.011161 0.006535 0.039941
v -0.009705 0.006871 0.039244
v -0.009872 0.007389 0.038606
v -0.009143 0.007177 0.038775
v -0.008255 0.008048 0.037539
v -0.007973 0.007654 0.038010
v -0.006384 0.008458 0.036808
v -0.006316 0.008021 0.037349
v -0.005731 0.007519 0.037644
v -0.006533 0.007394 0.037887
v -0.007556 0.007135 0.038332
v -0.008481 0.006769 0.038903
v -0.009277 0.006308 0.039592
v -0.009920 0.005765 0.040375
v -0.010438 0.005159 0.041223
v -0.004310 0.007585 0.037437
v -0.002648 0.007449 0.037500
v -0.004050 0.006288 0.038316
v -0.002969 0.006148 0.038404
v -0.005537 0.006357 0.038419
v -0.005731 0.007519 0.037644
v -0.006533 0.007394 0.037887
v -0.006610 0.006327 0.038650
v -0.007556 0.007135 0.038332
v -0.007614 0.006125 0.039082
v -0.008481 0.006769 0.038903
v -0.008416 0.005911 0.039593
v -0.009277 0.006308 0.039592
v -0.009118 0.005519 0.040201
v -0.009920 0.005765 0.040375
v -0.009557 0.005058 0.040801
v -0.010438 0.005159 0.041223
v -0.009771 0.004719 0.041269
v -0.010017 0.004003 0.042201
v -0.010722 0.004418 0.042225
v -0.011275 0.000316 0.046807
v -0.011916 0.000751 0.047037
v -0.008143 -0.008600 0.058966
v -0.008281 -0.008994 0.059516
v -0.009930 -0.008130 0.058489
v -0.007997 -0.008302 0.058270
v -0.009592 -0.007924 0.057886
v -0.010181 -0.008498 0.059010
v -0.014751 -0.002586 0.052053
v -0.014016 -0.002721 0.052077
v -0.014753 -0.002594 0.052063
v -0.013223 -0.002926 0.051873
v -0.014182 -0.003495 0.053058
v -0.014913 -0.003391 0.053072
v -0.014153 -0.004332 0.054089
v -0.014856 -0.004319 0.054199
v -0.013820 -0.005220 0.055111
v -0.014292 -0.005592 0.055693
v -0.013991 -0.004749 0.054586
v -0.013519 -0.005673 0.055689
v -0.013296 -0.006755 0.057050
v -0.012796 -0.006509 0.056669
v -0.011902 -0.007746 0.058181
v -0.011567 -0.007398 0.057678
v -0.010818 -0.007418 0.057332
v -0.011449 -0.007042 0.056909
v -0.012189 -0.006470 0.056249
v -0.012773 -0.005837 0.055491
v -0.013180 -0.005155 0.054661
v -0.013425 -0.004511 0.053794
v -0.013473 -0.003685 0.052820
v -0.009592 -0.007924 0.057886
v -0.008927 -0.007550 0.056549
v -0.007997 -0.008302 0.058270
v -0.007701 -0.007792 0.056766
v -0.010121 -0.007105 0.056146
v -0.010818 -0.007418 0.057332
v -0.011449 -0.007042 0.056909
v -0.011027 -0.006648 0.055729
v -0.012189 -0.006470 0.056249
v -0.011788 -0.006096 0.055175
v -0.012403 -0.005454 0.054517
v -0.012773 -0.005837 0.055491
v -0.013180 -0.005155 0.054661
v -0.012763 -0.004857 0.053830
v -0.013425 -0.004511 0.053794
v -0.012799 -0.004444 0.053288
v -0.013473 -0.003685 0.052820
v -0.012786 -0.003963 0.052611
v -0.012474 -0.003168 0.051582
v -0.013223 -0.002926 0.051873
v -0.004050 0.006288 0.038316
v -0.002969 0.006148 0.038404
v -0.004152 0.005520 0.038922
v -0.003167 0.005393 0.039002
v -0.005537 0.006357 0.038419
v -0.005508 0.005586 0.039017
v -0.006610 0.006327 0.038650
v -0.006485 0.005562 0.039229
v -0.007614 0.006125 0.039082
v -0.007401 0.005382 0.039626
v -0.008416 0.005911 0.039593
v -0.008132 0.005192 0.040094
v -0.009118 0.005519 0.040201
v -0.009171 0.004426 0.041204
v -0.009557 0.005058 0.040801
v -0.009771 0.004719 0.041269
v -0.009517 0.003674 0.042215
v -0.010017 0.004003 0.042201
v -0.011275 0.000316 0.046807
v -0.010749 0.000115 0.046766
v -0.007701 -0.007792 0.056766
v -0.008927 -0.007550 0.056549
v -0.007478 -0.007211 0.055824
v -0.008699 -0.006968 0.055617
v -0.010121 -0.007105 0.056146
v -0.009881 -0.006532 0.055247
v -0.011027 -0.006648 0.055729
v -0.010476 -0.005626 0.053977
v -0.011788 -0.006096 0.055175
v -0.011572 -0.005071 0.053508
v -0.012403 -0.005454 0.054517
v -0.011619 -0.004374 0.052583
v -0.012799 -0.004444 0.053288
v -0.012763 -0.004857 0.053830
v -0.012786 -0.003963 0.052611
v -0.011384 -0.003488 0.051521
v -0.012474 -0.003168 0.051582
v -0.003605 0.004002 0.040595
v -0.005584 0.004357 0.040444
v -0.007627 0.003871 0.041348
v -0.008020 0.002973 0.042547
v -0.009271 -0.000240 0.046855
v -0.009267 -0.005246 0.053229
v -0.008831 -0.004172 0.051750
v -0.006986 -0.005856 0.053814
v -0.006540 -0.004557 0.052071
v -0.010271 -0.003813 0.051600
v -0.010436 -0.004752 0.052874
v -0.007174 -0.000693 0.047026
v -0.005914 0.001960 0.043546
v -0.004512 0.001405 0.044190
v -0.005315 -0.000978 0.047286
v -0.000735 0.007631 0.037544
v -0.001083 0.007119 0.037914
v -0.000483 0.008025 0.037041
v 0.004106 0.002716 0.044458
v 0.003362 0.002719 0.044364
v 0.004109 0.002723 0.044447
v 0.002571 0.002499 0.044189
v 0.001288 -0.001155 0.048988
v 0.002109 -0.001015 0.049316
v 0.002831 -0.001062 0.049469
v 0.003533 0.003465 0.043331
v 0.004267 0.003476 0.043404
v 0.003486 0.004124 0.042396
v 0.004208 0.004317 0.042211
v 0.003161 0.005015 0.041145
v 0.003638 0.005439 0.040601
v 0.002863 0.005444 0.040549
v 0.002639 0.006476 0.039149
v 0.002137 0.006195 0.039504
v 0.001241 0.007357 0.037935
v 0.000905 0.006979 0.038415
v 0.000146 0.006671 0.038512
v 0.000778 0.006338 0.038967
v 0.001520 0.005825 0.039672
v 0.002106 0.005241 0.040467
v 0.002514 0.004606 0.041334
v 0.002732 0.003938 0.042244
v 0.002799 0.003248 0.043178
v -0.001083 0.007119 0.037914
v -0.001930 0.005982 0.038629
v -0.000574 0.005640 0.039152
v 0.000146 0.006671 0.038512
v 0.000778 0.006338 0.038967
v 0.000337 0.005325 0.039676
v 0.001520 0.005825 0.039672
v 0.001081 0.004870 0.040367
v 0.002106 0.005241 0.040467
v 0.001613 0.004463 0.041075
v 0.002514 0.004606 0.041334
v 0.001977 0.003918 0.041840
v 0.002732 0.003938 0.042244
v 0.002082 0.003379 0.042521
v 0.002799 0.003248 0.043178
v 0.002052 0.003012 0.043015
v 0.001816 0.002295 0.043949
v 0.002571 0.002499 0.044189
v 0.000645 -0.001404 0.048568
v 0.001288 -0.001155 0.048988
v -0.006239 -0.008662 0.059034
v -0.006322 -0.008396 0.058369
v -0.006259 -0.009064 0.059590
v 0.000827 -0.004863 0.054269
v 0.001546 -0.004938 0.054460
v 0.001543 -0.004946 0.054470
v 0.000100 -0.004849 0.053841
v 0.000487 -0.005612 0.055226
v 0.001183 -0.005715 0.055450
v -0.000063 -0.006366 0.056171
v 0.000555 -0.006543 0.056476
v -0.000905 -0.007084 0.057019
v -0.000740 -0.007548 0.057696
v -0.000468 -0.006701 0.056584
v -0.001470 -0.007412 0.057469
v -0.002360 -0.008334 0.058666
v -0.002643 -0.007974 0.058169
v -0.004235 -0.008853 0.059314
v -0.004304 -0.008446 0.058751
v -0.004899 -0.008272 0.058206
v -0.004096 -0.008104 0.057995
v -0.003071 -0.007786 0.057596
v -0.002145 -0.007371 0.057062
v -0.001347 -0.006863 0.056409
v -0.000698 -0.006348 0.055674
v -0.000149 -0.005608 0.054789
v -0.006450 -0.007907 0.056915
v -0.006322 -0.008396 0.058369
v -0.005116 -0.007827 0.056885
v -0.004899 -0.008272 0.058206
v -0.004096 -0.008104 0.057995
v -0.004039 -0.007656 0.056762
v -0.003071 -0.007786 0.057596
v -0.003031 -0.007360 0.056469
v -0.002102 -0.006941 0.056038
v -0.002145 -0.007371 0.057062
v -0.001347 -0.006863 0.056409
v -0.001411 -0.006496 0.055507
v -0.000698 -0.006348 0.055674
v -0.001110 -0.006131 0.055014
v -0.000149 -0.005608 0.054789
v -0.000797 -0.005693 0.054382
v -0.000572 -0.004886 0.053340
v 0.000100 -0.004849 0.053841
v -0.001930 0.005982 0.038629
v -0.002220 0.005242 0.039207
v -0.000574 0.005640 0.039152
v -0.000985 0.004933 0.039685
v 0.000337 0.005325 0.039676
v -0.000154 0.004648 0.040165
v 0.001081 0.004870 0.040367
v 0.000525 0.004238 0.040797
v 0.001613 0.004463 0.041075
v 0.001011 0.003873 0.041445
v 0.001977 0.003918 0.041840
v 0.001438 0.002894 0.042771
v 0.002082 0.003379 0.042521
v 0.002052 0.003012 0.043015
v 0.001261 0.002118 0.043807
v 0.001816 0.002295 0.043949
v 0.000645 -0.001404 0.048568
v 0.000118 -0.001453 0.048371
v -0.006450 -0.007907 0.056915
v -0.006234 -0.007324 0.055981
v -0.005116 -0.007827 0.056885
v -0.004923 -0.007248 0.055980
v -0.004039 -0.007656 0.056762
v -0.003766 -0.006594 0.054968
v -0.003031 -0.007360 0.056469
v -0.002473 -0.006385 0.054852
v -0.002102 -0.006941 0.056038
v -0.001411 -0.006496 0.055507
v -0.001110 -0.006131 0.055014
v -0.001975 -0.005766 0.054008
v -0.000797 -0.005693 0.054382
v -0.001645 -0.004894 0.052960
v -0.000572 -0.004886 0.053340
v -0.001659 0.003790 0.041024
v -0.000174 0.002795 0.042449
v -0.000401 0.001874 0.043673
v -0.001363 -0.001381 0.048024
v -0.004242 -0.004834 0.052428
v -0.004559 -0.005926 0.053924
v -0.002778 -0.004894 0.052707
v -0.003248 -0.005790 0.053936
v -0.003462 -0.001229 0.047575
v -0.002899 0.001525 0.043992
vt 0.051313 0.583400
vt 0.051313 0.580512
vt 0.058742 0.579288
vt 0.051312 0.577390
vt 0.057889 0.576536
vt 0.059212 0.582115
vt 0.081349 0.548252
vt 0.084297 0.548557
vt 0.084297 0.548611
vt 0.078292 0.547641
vt 0.078114 0.521837
vt 0.081415 0.521773
vt 0.084338 0.521755
vt 0.080998 0.553622
vt 0.083891 0.554020
vt 0.079912 0.558272
vt 0.082502 0.559954
vt 0.077427 0.564297
vt 0.078734 0.567523
vt 0.075685 0.567062
vt 0.073429 0.574005
vt 0.071842 0.571729
vt 0.066804 0.578986
vt 0.065983 0.576199
vt 0.063260 0.574500
vt 0.066168 0.572717
vt 0.069745 0.569762
vt 0.072807 0.566209
vt 0.075249 0.562146
vt 0.076996 0.557699
vt 0.078179 0.552991
vt 0.057889 0.576536
vt 0.051312 0.577390
vt 0.055645 0.570712
vt 0.051313 0.570992
vt 0.061407 0.569290
vt 0.063260 0.574500
vt 0.066168 0.572717
vt 0.065427 0.567553
vt 0.069745 0.569762
vt 0.068973 0.564791
vt 0.072807 0.566209
vt 0.071678 0.561907
vt 0.075249 0.562146
vt 0.073837 0.558359
vt 0.076996 0.557699
vt 0.074940 0.554887
vt 0.078179 0.552991
vt 0.075314 0.552338
vt 0.075334 0.547316
vt 0.078292 0.547641
vt 0.075510 0.522092
vt 0.078114 0.521837
vt 0.051341 0.462885
vt 0.051341 0.459994
vt 0.058827 0.464103
vt 0.051341 0.466033
vt 0.057975 0.466883
vt 0.059297 0.461274
vt 0.084382 0.494776
vt 0.081434 0.494988
vt 0.084382 0.494722
vt 0.078355 0.495833
vt 0.081084 0.489726
vt 0.083976 0.489318
vt 0.079910 0.484312
vt 0.082588 0.483391
vt 0.077528 0.479061
vt 0.078819 0.475836
vt 0.078760 0.481795
vt 0.075771 0.476304
vt 0.073515 0.469366
vt 0.071928 0.471645
vt 0.066889 0.464395
vt 0.066069 0.467185
vt 0.063345 0.468913
vt 0.066253 0.470692
vt 0.069830 0.473642
vt 0.072892 0.477190
vt 0.075334 0.481249
vt 0.077147 0.485472
vt 0.078357 0.490654
vt 0.057975 0.466883
vt 0.056367 0.472778
vt 0.051341 0.466033
vt 0.051341 0.472503
vt 0.061492 0.474189
vt 0.063345 0.468913
vt 0.066253 0.470692
vt 0.065512 0.475913
vt 0.069830 0.473642
vt 0.069099 0.478442
vt 0.072227 0.481659
vt 0.072892 0.477190
vt 0.075334 0.481249
vt 0.074359 0.485073
vt 0.077147 0.485472
vt 0.075042 0.487840
vt 0.078357 0.490654
vt 0.075651 0.491256
vt 0.075473 0.496846
vt 0.078355 0.495833
vt 0.055645 0.570712
vt 0.051313 0.570992
vt 0.055262 0.566768
vt 0.051315 0.567022
vt 0.061407 0.569290
vt 0.060515 0.565473
vt 0.065427 0.567553
vt 0.064181 0.563893
vt 0.068973 0.564791
vt 0.067414 0.561376
vt 0.071678 0.561907
vt 0.069880 0.558751
vt 0.073837 0.558359
vt 0.072854 0.552350
vt 0.074940 0.554887
vt 0.075314 0.552338
vt 0.073196 0.546895
vt 0.075334 0.547316
vt 0.075510 0.522092
vt 0.073375 0.522187
vt 0.051341 0.472503
vt 0.056367 0.472778
vt 0.051340 0.477216
vt 0.056345 0.477466
vt 0.061492 0.474189
vt 0.061398 0.478752
vt 0.065512 0.475913
vt 0.064948 0.484654
vt 0.069099 0.478442
vt 0.069792 0.486625
vt 0.072227 0.481659
vt 0.070896 0.491334
vt 0.075042 0.487840
vt 0.074359 0.485073
vt 0.075651 0.491256
vt 0.071089 0.497190
vt 0.075473 0.496846
vt 0.051321 0.558019
vt 0.059303 0.557712
vt 0.066455 0.551831
vt 0.066791 0.545359
vt 0.067378 0.522273
vt 0.060889 0.489064
vt 0.060649 0.496924
vt 0.051344 0.487565
vt 0.051337 0.496851
vt 0.066535 0.497081
vt 0.065919 0.490450
vt 0.058870 0.522371
vt 0.057459 0.541369
vt 0.051326 0.539070
vt 0.051331 0.522381
vt 0.043950 0.579288
vt 0.044803 0.576536
vt 0.043481 0.582115
vt 0.018395 0.548557
vt 0.021343 0.548252
vt 0.018395 0.548611
vt 0.024400 0.547641
vt 0.024578 0.521837
vt 0.021277 0.521773
vt 0.018354 0.521755
vt 0.021694 0.553622
vt 0.018801 0.554020
vt 0.022780 0.558272
vt 0.020190 0.559954
vt 0.025265 0.564297
vt 0.023958 0.567523
vt 0.027007 0.567062
vt 0.029263 0.574005
vt 0.030850 0.571729
vt 0.035888 0.578986
vt 0.036709 0.576199
vt 0.039432 0.574500
vt 0.036524 0.572717
vt 0.032947 0.569762
vt 0.029885 0.566209
vt 0.027443 0.562146
vt 0.025696 0.557699
vt 0.024513 0.552991
vt 0.044803 0.576536
vt 0.047047 0.570712
vt 0.041285 0.569290
vt 0.039432 0.574500
vt 0.036524 0.572717
vt 0.037265 0.567553
vt 0.032947 0.569762
vt 0.033720 0.564791
vt 0.029885 0.566209
vt 0.031014 0.561907
vt 0.027443 0.562146
vt 0.028855 0.558359
vt 0.025696 0.557699
vt 0.027753 0.554887
vt 0.024513 0.552991
vt 0.027378 0.552338
vt 0.027358 0.547316
vt 0.024400 0.547641
vt 0.027182 0.522092
vt 0.024578 0.521837
vt 0.043865 0.464103
vt 0.044718 0.466883
vt 0.043395 0.461274
vt 0.021258 0.494988
vt 0.018310 0.494776
vt 0.018310 0.494722
vt 0.024337 0.495833
vt 0.021608 0.489726
vt 0.018716 0.489318
vt 0.022782 0.484312
vt 0.020105 0.483391
vt 0.025164 0.479061
vt 0.023873 0.475836
vt 0.023933 0.481795
vt 0.026921 0.476304
vt 0.029178 0.469366
vt 0.030764 0.471645
vt 0.035803 0.464395
vt 0.036623 0.467185
vt 0.039347 0.468913
vt 0.036439 0.470692
vt 0.032862 0.473642
vt 0.029800 0.477190
vt 0.027358 0.481249
vt 0.025545 0.485472
vt 0.024335 0.490654
vt 0.046325 0.472778
vt 0.044718 0.466883
vt 0.041200 0.474189
vt 0.039347 0.468913
vt 0.036439 0.470692
vt 0.037180 0.475913
vt 0.032862 0.473642
vt 0.033593 0.478442
vt 0.030465 0.481659
vt 0.029800 0.477190
vt 0.027358 0.481249
vt 0.028333 0.485073
vt 0.025545 0.485472
vt 0.027650 0.487840
vt 0.024335 0.490654
vt 0.027041 0.491256
vt 0.027219 0.496846
vt 0.024337 0.495833
vt 0.047047 0.570712
vt 0.047430 0.566768
vt 0.041285 0.569290
vt 0.042177 0.565473
vt 0.037265 0.567553
vt 0.038511 0.563893
vt 0.033720 0.564791
vt 0.035278 0.561376
vt 0.031014 0.561907
vt 0.032812 0.558751
vt 0.028855 0.558359
vt 0.029838 0.552350
vt 0.027753 0.554887
vt 0.027378 0.552338
vt 0.029497 0.546895
vt 0.027358 0.547316
vt 0.027182 0.522092
vt 0.029317 0.522187
vt 0.046325 0.472778
vt 0.046348 0.477466
vt 0.041200 0.474189
vt 0.041294 0.478752
vt 0.037180 0.475913
vt 0.037744 0.484654
vt 0.033593 0.478442
vt 0.032900 0.486625
vt 0.030465 0.481659
vt 0.028333 0.485073
vt 0.027650 0.487840
vt 0.031796 0.491334
vt 0.027041 0.491256
vt 0.031603 0.497190
vt 0.027219 0.496846
vt 0.043389 0.557712
vt 0.036237 0.551831
vt 0.035901 0.545359
vt 0.035314 0.522273
vt 0.042043 0.496924
vt 0.041803 0.489064
vt 0.036157 0.497081
vt 0.036773 0.490450
vt 0.043822 0.522371
vt 0.045233 0.541369
vn 0.021072 0.782970 0.621703
vn 0.001328 0.720359 0.693600
vn 0.054421 0.704779 0.707336
vn -0.023888 0.630500 0.775822
vn 0.051216 0.605854 0.793925
vn 0.049682 0.780434 0.623261
vn 0.251544 0.742526 0.620791
vn 0.123801 0.781872 0.611023
vn 0.125823 0.785811 0.605533
vn 0.379108 0.688898 0.617816
vn 0.382088 0.683370 0.622105
vn 0.254950 0.734760 0.628592
vn 0.121471 0.772812 0.622902
vn 0.241402 0.737976 0.630171
vn 0.125775 0.785702 0.605684
vn 0.218537 0.732982 0.644189
vn 0.118700 0.783071 0.610500
vn 0.185755 0.724352 0.663935
vn 0.092574 0.785137 0.612364
vn 0.164730 0.717621 0.676671
vn 0.074714 0.785326 0.614558
vn 0.134174 0.714675 0.686467
vn 0.063447 0.780655 0.621733
vn 0.100501 0.704441 0.702611
vn 0.111357 0.600650 0.791719
vn 0.164488 0.610878 0.774449
vn 0.192756 0.624317 0.757016
vn 0.239961 0.629813 0.738752
vn 0.278688 0.648554 0.708315
vn 0.323157 0.657846 0.680300
vn 0.370131 0.666097 0.647548
vn 0.055062 0.565476 0.822925
vn -0.038460 0.573368 0.818395
vn 0.041662 0.568247 0.821803
vn -0.037815 0.576213 0.816425
vn 0.121650 0.567200 0.814546
vn 0.123882 0.564875 0.815824
vn 0.175808 0.564068 0.806796
vn 0.193057 0.567203 0.800631
vn 0.228526 0.565988 0.792107
vn 0.261724 0.584806 0.767790
vn 0.279227 0.594720 0.753884
vn 0.289955 0.615560 0.732811
vn 0.299779 0.617624 0.727099
vn 0.325578 0.615567 0.717688
vn 0.358992 0.613854 0.703070
vn 0.376459 0.624805 0.684030
vn 0.397882 0.654119 0.643287
vn 0.397753 0.664045 0.633117
vn 0.410634 0.660346 0.628747
vn 0.417257 0.659990 0.624748
vn 0.576950 0.570835 0.584189
vn 0.589524 0.561597 0.580577
vn 0.049102 0.860104 0.507750
vn 0.029785 0.808307 0.588007
vn 0.105612 0.855434 0.507029
vn 0.073034 0.914241 0.398534
vn 0.153190 0.905751 0.395156
vn 0.057016 0.802222 0.594297
vn 0.120336 0.768945 0.627887
vn 0.236223 0.737434 0.632763
vn 0.120424 0.769490 0.627203
vn 0.342520 0.695162 0.632005
vn 0.252368 0.745932 0.616357
vn 0.119186 0.770585 0.626094
vn 0.249966 0.767042 0.590901
vn 0.113132 0.771975 0.625504
vn 0.202671 0.792478 0.575242
vn 0.102725 0.791184 0.602889
vn 0.226998 0.776097 0.588341
vn 0.190195 0.809779 0.555053
vn 0.076220 0.789757 0.608666
vn 0.170184 0.820352 0.545949
vn 0.069211 0.797603 0.599199
vn 0.146709 0.840057 0.522284
vn 0.209223 0.887835 0.409848
vn 0.250226 0.862494 0.439876
vn 0.267567 0.843858 0.465092
vn 0.303945 0.817547 0.489116
vn 0.319550 0.792951 0.518765
vn 0.387070 0.748045 0.539079
vn 0.379597 0.699803 0.605130
vn 0.178640 0.920466 0.347605
vn 0.171166 0.921805 0.347819
vn 0.087100 0.940364 0.328830
vn 0.085912 0.938328 0.334902
vn 0.238704 0.895567 0.375473
vn 0.236770 0.896135 0.375343
vn 0.281865 0.875291 0.392960
vn 0.294095 0.867751 0.400645
vn 0.326323 0.850917 0.411648
vn 0.342976 0.834551 0.431152
vn 0.382402 0.798061 0.465691
vn 0.366550 0.817057 0.445038
vn 0.390564 0.790708 0.471424
vn 0.380398 0.776353 0.502566
vn 0.383503 0.751553 0.536744
vn 0.398889 0.727261 0.558551
vn 0.438311 0.679477 0.588383
vn 0.451493 0.678001 0.580060
vn 0.448272 0.653558 0.609848
vn 0.454596 0.644131 0.615173
vn 0.049376 0.615384 0.786680
vn -0.025454 0.624763 0.780399
vn 0.059150 0.681997 0.728959
vn -0.008003 0.688750 0.724955
vn 0.116573 0.612188 0.782072
vn 0.111311 0.680933 0.723837
vn 0.176120 0.612990 0.770211
vn 0.159082 0.678494 0.717174
vn 0.244489 0.618438 0.746833
vn 0.213627 0.677025 0.704274
vn 0.291367 0.622027 0.726765
vn 0.261067 0.666980 0.697840
vn 0.290374 0.633151 0.717497
vn 0.292047 0.692121 0.660058
vn 0.329315 0.641480 0.692860
vn 0.395052 0.659317 0.639715
vn 0.314087 0.709726 0.630586
vn 0.415292 0.662185 0.623733
vn 0.317254 0.716139 0.621687
vn 0.239624 0.743737 0.624048
vn 0.043414 0.845587 0.532070
vn 0.095979 0.834404 0.542732
vn 0.039337 0.834855 0.549062
vn 0.095274 0.825326 0.556561
vn 0.137121 0.819858 0.555906
vn 0.129880 0.823911 0.551635
vn 0.165790 0.822591 0.543928
vn 0.136952 0.812329 0.566891
vn 0.215378 0.816580 0.535547
vn 0.211813 0.794151 0.569614
vn 0.278096 0.799515 0.532389
vn 0.204881 0.767005 0.608051
vn 0.290483 0.772963 0.564045
vn 0.289928 0.780397 0.554005
vn 0.278502 0.749260 0.600870
vn 0.212151 0.744568 0.632938
vn 0.255647 0.733641 0.629615
vn 0.019604 0.779035 0.626674
vn 0.099230 0.762354 0.639507
vn 0.149060 0.753916 0.639837
vn 0.150816 0.767823 0.622658
vn 0.137182 0.774106 0.618013
vn 0.099981 0.800340 0.591151
vn 0.091868 0.788596 0.608011
vn 0.031565 0.813351 0.580916
vn 0.026434 0.798683 0.601171
vn 0.146227 0.773209 0.617062
vn 0.129548 0.785488 0.605167
vn 0.075770 0.786456 0.612980
vn 0.063436 0.788674 0.611530
vn 0.025765 0.796732 0.603783
vn 0.024614 0.793324 0.608302
vn -0.055458 0.720629 0.691100
vn -0.104514 0.628384 0.770850
vn -0.006257 0.788519 0.614979
vn -0.070366 0.809890 0.582346
vn -0.201309 0.807887 0.553889
vn -0.069576 0.814009 0.576670
vn -0.332436 0.791597 0.512699
vn -0.337925 0.787291 0.515732
vn -0.208799 0.801694 0.560080
vn -0.074091 0.801039 0.594010
vn -0.195911 0.801096 0.565566
vn -0.069600 0.813899 0.576823
vn -0.180275 0.790543 0.585271
vn -0.065193 0.809613 0.583332
vn -0.158154 0.773989 0.613129
vn -0.041157 0.804438 0.592609
vn -0.144326 0.762228 0.631014
vn -0.025329 0.799765 0.599779
vn -0.119856 0.751343 0.648936
vn -0.018300 0.792460 0.609649
vn -0.096345 0.732857 0.673527
vn -0.160312 0.639862 0.751583
vn -0.201358 0.663684 0.720402
vn -0.218643 0.683705 0.696235
vn -0.255307 0.701299 0.665581
vn -0.277040 0.728767 0.626217
vn -0.307365 0.748853 0.587150
vn -0.338923 0.768443 0.542796
vn -0.127400 0.591872 0.795900
vn -0.114127 0.590781 0.798720
vn -0.185488 0.611531 0.769171
vn -0.188547 0.609965 0.769670
vn -0.233884 0.623201 0.746270
vn -0.247101 0.630736 0.735604
vn -0.277586 0.639039 0.717338
vn -0.295970 0.665302 0.685402
vn -0.305360 0.679095 0.667522
vn -0.303471 0.701209 0.645144
vn -0.310304 0.705677 0.636971
vn -0.331895 0.710462 0.620556
vn -0.358904 0.717473 0.597009
vn -0.366513 0.732044 0.574264
vn -0.366518 0.764450 0.530359
vn -0.360767 0.773528 0.521058
vn -0.372373 0.773367 0.513070
vn -0.377420 0.774695 0.507348
vn -0.537231 0.731659 0.419593
vn -0.550309 0.726125 0.412192
vn -0.003841 0.871234 0.490853
vn -0.001913 0.928131 0.372248
vn 0.001325 0.810262 0.586066
vn -0.192037 0.799249 0.569493
vn -0.075528 0.797255 0.598899
vn -0.075268 0.797773 0.598241
vn -0.301116 0.788067 0.536916
vn -0.199862 0.811205 0.549546
vn -0.073522 0.798401 0.597620
vn -0.184598 0.829762 0.526705
vn -0.067407 0.798032 0.598833
vn -0.129688 0.840451 0.526139
vn -0.046121 0.812672 0.580893
vn -0.160274 0.831993 0.531131
vn -0.107725 0.852781 0.511037
vn -0.023814 0.804195 0.593888
vn -0.083844 0.857018 0.508419
vn -0.012525 0.809402 0.587121
vn -0.050132 0.868470 0.493201
vn -0.062440 0.927046 0.369711
vn -0.115617 0.915297 0.385828
vn -0.143837 0.903240 0.404312
vn -0.191333 0.889035 0.415944
vn -0.220862 0.870952 0.438934
vn -0.301046 0.847365 0.437428
vn -0.326258 0.801685 0.500856
vn -0.000556 0.946582 0.322462
vn -0.007726 0.947357 0.320085
vn -0.077626 0.941225 0.328741
vn -0.075657 0.941229 0.329186
vn -0.127827 0.934424 0.332434
vn -0.143321 0.930886 0.336022
vn -0.180688 0.924098 0.336742
vn -0.206033 0.913795 0.350043
vn -0.262132 0.891088 0.370470
vn -0.236458 0.904094 0.355952
vn -0.273291 0.886523 0.373347
vn -0.276756 0.871199 0.405485
vn -0.296152 0.849647 0.436342
vn -0.323182 0.831480 0.451880
vn -0.381071 0.797745 0.467320
vn -0.391224 0.799638 0.455546
vn -0.403463 0.776493 0.484021
vn -0.413393 0.769411 0.486942
vn -0.098201 0.636691 0.764841
vn -0.072363 0.700966 0.709514
vn -0.159166 0.651988 0.741335
vn -0.118801 0.714146 0.689842
vn -0.210263 0.668755 0.713132
vn -0.161450 0.724755 0.669824
vn -0.264899 0.691956 0.671584
vn -0.208288 0.737919 0.641944
vn -0.301256 0.707566 0.639214
vn -0.252800 0.741151 0.621922
vn -0.294643 0.717591 0.631069
vn -0.263576 0.772318 0.577973
vn -0.321123 0.735360 0.596763
vn -0.361475 0.768510 0.527946
vn -0.270593 0.794115 0.544206
vn -0.374745 0.776213 0.507011
vn -0.269200 0.800784 0.535048
vn -0.190949 0.805883 0.560439
vn -0.010945 0.849840 0.526927
vn -0.016732 0.841490 0.540014
vn -0.056446 0.847795 0.527311
vn -0.047465 0.849508 0.525436
vn -0.078621 0.857868 0.507821
vn -0.061487 0.840972 0.537574
vn -0.123438 0.865484 0.485490
vn -0.136030 0.844356 0.518226
vn -0.184855 0.866337 0.463993
vn -0.207145 0.852136 0.480578
vn -0.212555 0.845569 0.489728
vn -0.148071 0.817950 0.555908
vn -0.218542 0.821007 0.527435
vn -0.168008 0.799441 0.576773
vn -0.210038 0.800856 0.560816
vn -0.061449 0.785519 0.615779
vn -0.109450 0.791229 0.601645
vn -0.102344 0.804362 0.585259
vn -0.086768 0.806430 0.584929
vn -0.038338 0.807390 0.588772
vn -0.037744 0.820218 0.570804
vn -0.095048 0.808034 0.581418
vn -0.072966 0.814715 0.575252
vn -0.025560 0.801082 0.598009
vn -0.013236 0.799754 0.600183
f 3/3/3 2/2/2 1/1/1
f 3/3/3 4/4/4 2/2/2
f 3/3/3 5/5/5 4/4/4
f 1/1/1 6/6/6 3/3/3
f 9/9/9 8/8/8 7/7/7
f 11/11/11 10/10/10 7/7/7
f 12/12/12 11/11/11 7/7/7
f 12/12/12 8/8/8 13/13/13
f 7/7/7 8/8/8 12/12/12
f 15/15/15 9/9/9 14/14/14
f 9/9/9 7/7/7 14/14/14
f 16/16/16 15/15/15 14/14/14
f 17/17/17 15/15/15 16/16/16
f 19/19/19 17/17/17 18/18/18
f 18/18/18 17/17/17 16/16/16
f 20/20/20 19/19/19 18/18/18
f 21/21/21 19/19/19 20/20/20
f 22/22/22 21/21/21 20/20/20
f 23/23/23 21/21/21 22/22/22
f 24/24/24 23/23/23 22/22/22
f 6/6/6 23/23/23 24/24/24
f 3/3/3 6/6/6 24/24/24
f 25/25/25 5/5/5 3/3/3
f 24/24/24 25/25/25 3/3/3
f 26/26/26 25/25/25 24/24/24
f 22/22/22 26/26/26 24/24/24
f 22/22/22 27/27/27 26/26/26
f 22/22/22 28/28/28 27/27/27
f 20/20/20 28/28/28 22/22/22
f 20/20/20 29/29/29 28/28/28
f 18/18/18 29/29/29 20/20/20
f 30/30/30 29/29/29 18/18/18
f 30/30/30 18/18/18 16/16/16
f 31/31/31 30/30/30 14/14/14
f 14/14/14 30/30/30 16/16/16
f 10/10/10 31/31/31 7/7/7
f 7/7/7 31/31/31 14/14/14
f 34/34/34 33/33/33 32/32/32
f 33/33/33 34/34/34 35/35/35
f 36/36/36 34/34/34 32/32/32
f 37/37/37 36/36/36 32/32/32
f 38/38/38 36/36/36 37/37/37
f 36/36/36 38/38/38 39/39/39
f 40/40/40 39/39/39 38/38/38
f 39/39/39 40/40/40 41/41/41
f 42/42/42 41/41/41 40/40/40
f 41/41/41 42/42/42 43/43/43
f 44/44/44 43/43/43 42/42/42
f 45/45/45 43/43/43 44/44/44
f 46/46/46 45/45/45 44/44/44
f 46/46/46 47/47/47 45/45/45
f 48/48/48 47/47/47 46/46/46
f 49/49/49 47/47/47 48/48/48
f 51/51/51 50/50/50 49/49/49
f 48/48/48 51/51/51 49/49/49
f 53/53/53 52/52/52 51/51/51
f 50/50/50 51/51/51 52/52/52
f 56/56/56 55/55/55 54/54/54
f 56/56/56 54/54/54 57/57/57
f 56/56/56 57/57/57 58/58/58
f 55/55/55 56/56/56 59/59/59
f 62/62/62 61/61/61 60/60/60
f 11/11/11 61/61/61 63/63/63
f 12/12/12 61/61/61 11/11/11
f 12/12/12 13/13/13 60/60/60
f 61/61/61 12/12/12 60/60/60
f 65/65/65 64/64/64 62/62/62
f 62/62/62 64/64/64 61/61/61
f 66/66/66 64/64/64 65/65/65
f 67/67/67 66/66/66 65/65/65
f 69/69/69 68/68/68 67/67/67
f 68/68/68 70/70/70 67/67/67
f 71/71/71 68/68/68 69/69/69
f 72/72/72 71/71/71 69/69/69
f 73/73/73 71/71/71 72/72/72
f 74/74/74 73/73/73 72/72/72
f 75/75/75 73/73/73 74/74/74
f 59/59/59 75/75/75 74/74/74
f 56/56/56 75/75/75 59/59/59
f 76/76/76 56/56/56 58/58/58
f 75/75/75 56/56/56 76/76/76
f 77/77/77 75/75/75 76/76/76
f 73/73/73 75/75/75 77/77/77
f 73/73/73 77/77/77 78/78/78
f 73/73/73 78/78/78 79/79/79
f 71/71/71 73/73/73 79/79/79
f 71/71/71 79/79/79 80/80/80
f 68/68/68 71/71/71 80/80/80
f 81/81/81 70/70/70 80/80/80
f 80/80/80 70/70/70 68/68/68
f 82/82/82 64/64/64 81/81/81
f 64/64/64 66/66/66 81/81/81
f 63/63/63 61/61/61 82/82/82
f 61/61/61 64/64/64 82/82/82
f 85/85/85 84/84/84 83/83/83
f 84/84/84 85/85/85 86/86/86
f 87/87/87 83/83/83 84/84/84
f 88/88/88 83/83/83 87/87/87
f 87/87/87 89/89/89 88/88/88
f 89/89/89 87/87/87 90/90/90
f 90/90/90 91/91/91 89/89/89
f 91/91/91 90/90/90 92/92/92
f 94/94/94 92/92/92 93/93/93
f 92/92/92 94/94/94 91/91/91
f 95/95/95 94/94/94 93/93/93
f 96/96/96 95/95/95 93/93/93
f 97/97/97 95/95/95 96/96/96
f 97/97/97 96/96/96 98/98/98
f 99/99/99 97/97/97 98/98/98
f 100/100/100 99/99/99 98/98/98
f 102/102/102 100/100/100 101/101/101
f 99/99/99 100/100/100 102/102/102
f 53/53/53 102/102/102 52/52/52
f 101/101/101 52/52/52 102/102/102
f 105/105/105 104/104/104 103/103/103
f 104/104/104 105/105/105 106/106/106
f 108/108/108 103/103/103 107/107/107
f 103/103/103 108/108/108 105/105/105
f 110/110/110 107/107/107 109/109/109
f 107/107/107 110/110/110 108/108/108
f 112/112/112 109/109/109 111/111/111
f 109/109/109 112/112/112 110/110/110
f 114/114/114 111/111/111 113/113/113
f 111/111/111 114/114/114 112/112/112
f 116/116/116 114/114/114 115/115/115
f 113/113/113 115/115/115 114/114/114
f 115/115/115 117/117/117 116/116/116
f 119/119/119 116/116/116 118/118/118
f 117/117/117 118/118/118 116/116/116
f 118/118/118 120/120/120 119/119/119
f 122/122/122 120/120/120 121/121/121
f 120/120/120 122/122/122 119/119/119
f 125/125/125 124/124/124 123/123/123
f 124/124/124 125/125/125 126/126/126
f 126/126/126 127/127/127 124/124/124
f 127/127/127 126/126/126 128/128/128
f 128/128/128 129/129/129 127/127/127
f 129/129/129 128/128/128 130/130/130
f 130/130/130 131/131/131 129/129/129
f 131/131/131 130/130/130 132/132/132
f 132/132/132 133/133/133 131/131/131
f 135/135/135 132/132/132 134/134/134
f 132/132/132 136/136/136 133/133/133
f 136/136/136 132/132/132 135/135/135
f 134/134/134 137/137/137 135/135/135
f 139/139/139 134/134/134 138/138/138
f 134/134/134 139/139/139 137/137/137
f 138/138/138 121/121/121 139/139/139
f 121/121/121 138/138/138 122/122/122
f 141/141/141 140/140/140 105/105/105
f 106/106/106 105/105/105 140/140/140
f 141/141/141 105/105/105 108/108/108
f 112/112/112 141/141/141 110/110/110
f 108/108/108 110/110/110 141/141/141
f 142/142/142 141/141/141 112/112/112
f 142/142/142 112/112/112 114/114/114
f 116/116/116 142/142/142 114/114/114
f 142/142/142 119/119/119 143/143/143
f 116/116/116 119/119/119 142/142/142
f 144/144/144 119/119/119 122/122/122
f 119/119/119 144/144/144 143/143/143
f 147/147/147 146/146/146 145/145/145
f 146/146/146 147/147/147 148/148/148
f 146/146/146 149/149/149 145/145/145
f 150/150/150 134/134/134 132/132/132
f 149/149/149 138/138/138 134/134/134
f 146/146/146 151/151/151 149/149/149
f 144/144/144 122/122/122 138/138/138
f 141/141/141 142/142/142 152/152/152
f 142/142/142 143/143/143 152/152/152
f 151/151/151 153/153/153 152/152/152
f 152/152/152 140/140/140 141/141/141
f 148/148/148 151/151/151 146/146/146
f 148/148/148 154/154/154 151/151/151
f 151/151/151 143/143/143 144/144/144
f 151/151/151 144/144/144 149/149/149
f 154/154/154 153/153/153 151/151/151
f 152/152/152 153/153/153 140/140/140
f 151/151/151 152/152/152 143/143/143
f 138/138/138 149/149/149 144/144/144
f 149/149/149 134/134/134 150/150/150
f 147/147/147 126/126/126 125/125/125
f 145/145/145 130/130/130 128/128/128
f 145/145/145 126/126/126 147/147/147
f 126/126/126 145/145/145 128/128/128
f 130/130/130 150/150/150 132/132/132
f 130/130/130 145/145/145 150/150/150
f 145/145/145 149/149/149 150/150/150
f 81/81/81 66/66/66 70/70/70
f 70/70/70 66/66/66 67/67/67
f 155/155/155 1/1/1 2/2/2
f 155/155/155 2/2/2 4/4/4
f 155/155/155 4/4/4 156/156/156
f 1/1/1 155/155/155 157/157/157
f 160/160/160 159/159/159 158/158/158
f 162/162/162 159/159/159 161/161/161
f 163/163/163 159/159/159 162/162/162
f 163/163/163 164/164/164 158/158/158
f 159/159/159 163/163/163 158/158/158
f 166/166/166 165/165/165 160/160/160
f 160/160/160 165/165/165 159/159/159
f 167/167/167 165/165/165 166/166/166
f 168/168/168 167/167/167 166/166/166
f 170/170/170 169/169/169 168/168/168
f 169/169/169 167/167/167 168/168/168
f 171/171/171 169/169/169 170/170/170
f 172/172/172 171/171/171 170/170/170
f 173/173/173 171/171/171 172/172/172
f 174/174/174 173/173/173 172/172/172
f 175/175/175 173/173/173 174/174/174
f 157/157/157 175/175/175 174/174/174
f 155/155/155 175/175/175 157/157/157
f 176/176/176 155/155/155 156/156/156
f 175/175/175 155/155/155 176/176/176
f 177/177/177 175/175/175 176/176/176
f 173/173/173 175/175/175 177/177/177
f 173/173/173 177/177/177 178/178/178
f 173/173/173 178/178/178 179/179/179
f 171/171/171 173/173/173 179/179/179
f 171/171/171 179/179/179 180/180/180
f 169/169/169 171/171/171 180/180/180
f 181/181/181 169/169/169 180/180/180
f 181/181/181 167/167/167 169/169/169
f 182/182/182 165/165/165 181/181/181
f 165/165/165 167/167/167 181/181/181
f 161/161/161 159/159/159 182/182/182
f 159/159/159 165/165/165 182/182/182
f 184/184/184 183/183/183 33/33/33
f 33/33/33 35/35/35 184/184/184
f 185/185/185 183/183/183 184/184/184
f 186/186/186 183/183/183 185/185/185
f 187/187/187 186/186/186 185/185/185
f 185/185/185 188/188/188 187/187/187
f 189/189/189 187/187/187 188/188/188
f 188/188/188 190/190/190 189/189/189
f 191/191/191 189/189/189 190/190/190
f 190/190/190 192/192/192 191/191/191
f 193/193/193 191/191/191 192/192/192
f 194/194/194 193/193/193 192/192/192
f 195/195/195 193/193/193 194/194/194
f 195/195/195 194/194/194 196/196/196
f 197/197/197 195/195/195 196/196/196
f 198/198/198 197/197/197 196/196/196
f 200/200/200 198/198/198 199/199/199
f 197/197/197 198/198/198 200/200/200
f 202/202/202 200/200/200 201/201/201
f 199/199/199 201/201/201 200/200/200
f 203/203/203 54/54/54 55/55/55
f 203/203/203 57/57/57 54/54/54
f 203/203/203 204/204/204 57/57/57
f 55/55/55 205/205/205 203/203/203
f 208/208/208 207/207/207 206/206/206
f 162/162/162 209/209/209 206/206/206
f 163/163/163 162/162/162 206/206/206
f 163/163/163 207/207/207 164/164/164
f 206/206/206 207/207/207 163/163/163
f 211/211/211 208/208/208 210/210/210
f 208/208/208 206/206/206 210/210/210
f 212/212/212 211/211/211 210/210/210
f 213/213/213 211/211/211 212/212/212
f 215/215/215 213/213/213 214/214/214
f 214/214/214 213/213/213 216/216/216
f 217/217/217 215/215/215 214/214/214
f 218/218/218 215/215/215 217/217/217
f 219/219/219 218/218/218 217/217/217
f 220/220/220 218/218/218 219/219/219
f 221/221/221 220/220/220 219/219/219
f 205/205/205 220/220/220 221/221/221
f 203/203/203 205/205/205 221/221/221
f 222/222/222 204/204/204 203/203/203
f 221/221/221 222/222/222 203/203/203
f 223/223/223 222/222/222 221/221/221
f 219/219/219 223/223/223 221/221/221
f 219/219/219 224/224/224 223/223/223
f 219/219/219 225/225/225 224/224/224
f 217/217/217 225/225/225 219/219/219
f 217/217/217 226/226/226 225/225/225
f 214/214/214 226/226/226 217/217/217
f 227/227/227 226/226/226 216/216/216
f 226/226/226 214/214/214 216/216/216
f 228/228/228 227/227/227 210/210/210
f 210/210/210 227/227/227 212/212/212
f 209/209/209 228/228/228 206/206/206
f 206/206/206 228/228/228 210/210/210
f 85/85/85 230/230/230 229/229/229
f 229/229/229 86/86/86 85/85/85
f 231/231/231 229/229/229 230/230/230
f 232/232/232 231/231/231 230/230/230
f 231/231/231 232/232/232 233/233/233
f 233/233/233 234/234/234 231/231/231
f 234/234/234 233/233/233 235/235/235
f 235/235/235 236/236/236 234/234/234
f 238/238/238 237/237/237 236/236/236
f 236/236/236 235/235/235 238/238/238
f 239/239/239 237/237/237 238/238/238
f 240/240/240 237/237/237 239/239/239
f 241/241/241 240/240/240 239/239/239
f 241/241/241 242/242/242 240/240/240
f 243/243/243 242/242/242 241/241/241
f 244/244/244 242/242/242 243/243/243
f 246/246/246 245/245/245 244/244/244
f 243/243/243 246/246/246 244/244/244
f 202/202/202 201/201/201 246/246/246
f 245/245/245 246/246/246 201/201/201
f 248/248/248 247/247/247 104/104/104
f 104/104/104 106/106/106 248/248/248
f 250/250/250 249/249/249 247/247/247
f 247/247/247 248/248/248 250/250/250
f 252/252/252 251/251/251 249/249/249
f 249/249/249 250/250/250 252/252/252
f 254/254/254 253/253/253 251/251/251
f 251/251/251 252/252/252 254/254/254
f 256/256/256 255/255/255 253/253/253
f 253/253/253 254/254/254 256/256/256
f 258/258/258 257/257/257 256/256/256
f 255/255/255 256/256/256 257/257/257
f 257/257/257 258/258/258 259/259/259
f 261/261/261 260/260/260 258/258/258
f 259/259/259 258/258/258 260/260/260
f 260/260/260 261/261/261 262/262/262
f 264/264/264 263/263/263 262/262/262
f 262/262/262 261/261/261 264/264/264
f 125/125/125 123/123/123 265/265/265
f 265/265/265 266/266/266 125/125/125
f 266/266/266 265/265/265 267/267/267
f 267/267/267 268/268/268 266/266/266
f 268/268/268 267/267/267 269/269/269
f 269/269/269 270/270/270 268/268/268
f 270/270/270 269/269/269 271/271/271
f 271/271/271 272/272/272 270/270/270
f 272/272/272 271/271/271 273/273/273
f 273/273/273 274/274/274 272/272/272
f 275/275/275 272/272/272 274/274/274
f 272/272/272 275/275/275 276/276/276
f 276/276/276 275/275/275 277/277/277
f 279/279/279 278/278/278 276/276/276
f 276/276/276 277/277/277 279/279/279
f 278/278/278 279/279/279 263/263/263
f 263/263/263 264/264/264 278/278/278
f 140/140/140 248/248/248 106/106/106
f 248/248/248 140/140/140 280/280/280
f 280/280/280 250/250/250 248/248/248
f 254/254/254 252/252/252 280/280/280
f 250/250/250 280/280/280 252/252/252
f 281/281/281 254/254/254 280/280/280
f 281/281/281 256/256/256 254/254/254
f 258/258/258 256/256/256 281/281/281
f 258/258/258 281/281/281 261/261/261
f 261/261/261 281/281/281 282/282/282
f 283/283/283 264/264/264 261/261/261
f 261/261/261 282/282/282 283/283/283
f 147/147/147 285/285/285 284/284/284
f 284/284/284 148/148/148 147/147/147
f 284/284/284 285/285/285 286/286/286
f 287/287/287 272/272/272 276/276/276
f 286/286/286 276/276/276 278/278/278
f 284/284/284 286/286/286 288/288/288
f 283/283/283 278/278/278 264/264/264
f 281/281/281 289/289/289 282/282/282
f 281/281/281 280/280/280 289/289/289
f 288/288/288 289/289/289 153/153/153
f 289/289/289 280/280/280 140/140/140
f 148/148/148 284/284/284 288/288/288
f 148/148/148 288/288/288 154/154/154
f 288/288/288 283/283/283 282/282/282
f 288/288/288 286/286/286 283/283/283
f 154/154/154 288/288/288 153/153/153
f 289/289/289 140/140/140 153/153/153
f 288/288/288 282/282/282 289/289/289
f 278/278/278 283/283/283 286/286/286
f 286/286/286 287/287/287 276/276/276
f 147/147/147 125/125/125 266/266/266
f 285/285/285 268/268/268 270/270/270
f 285/285/285 147/147/147 266/266/266
f 266/266/266 268/268/268 285/285/285
f 285/285/285 270/270/270 287/287/287
f 270/270/270 272/272/272 287/287/287
f 285/285/285 287/287/287 286/286/286
f 227/227/227 216/216/216 212/212/212
f 216/216/216 213/213/213 212/212/212
