# GloomhavenVR - valve-index right 'trigger' (glTF material 0)
# generated by controllers_pipeline.py from webxr-input-profiles (MIT)
o index_right_trigger__m0
v -0.008046 -0.032872 0.047589
v -0.004419 -0.033186 0.047858
v -0.004260 -0.035316 0.042003
v -0.007511 -0.035000 0.041757
v -0.004369 -0.038361 0.036034
v -0.007002 -0.038192 0.035688
v -0.006757 -0.040591 0.031934
v -0.004282 -0.040724 0.032445
v -0.004262 -0.041061 0.031385
v -0.004184 -0.041061 0.030478
v -0.006489 -0.040932 0.030089
v -0.006646 -0.041014 0.030953
v -0.004184 -0.041061 0.030478
v -0.003998 -0.040426 0.029442
v -0.006230 -0.040336 0.029073
v -0.006489 -0.040932 0.030089
v -0.003315 -0.037424 0.027358
v -0.002944 -0.035692 0.026472
v -0.005020 -0.035549 0.025982
v -0.005422 -0.037252 0.026905
v -0.002612 -0.033898 0.025689
v -0.004631 -0.033691 0.025274
v -0.003624 -0.038934 0.028266
v -0.005807 -0.038779 0.027865
v -0.002219 -0.031831 0.024909
v -0.004207 -0.031634 0.024531
v -0.008645 -0.031760 0.052151
v -0.004577 -0.032016 0.052392
v -0.004577 -0.032016 0.052392
v -0.008645 -0.031760 0.052151
v -0.008718 -0.031049 0.053611
v -0.004396 -0.031342 0.053848
v -0.004396 -0.031342 0.053848
v -0.008718 -0.031049 0.053611
v -0.008413 -0.028099 0.055382
v -0.004146 -0.028503 0.055410
v -0.000647 -0.033412 0.047685
v -0.000417 -0.031960 0.052158
v 0.003818 -0.031275 0.051031
v 0.003006 -0.032772 0.046653
v 0.007284 -0.030131 0.049023
v 0.006348 -0.031703 0.044997
v 0.010059 -0.028545 0.046189
v 0.009147 -0.030617 0.042835
v -0.002247 -0.040859 0.031758
v -0.002074 -0.040857 0.030863
v -0.000022 -0.040228 0.032220
v 0.000282 -0.040164 0.031356
v 0.002037 -0.039265 0.032835
v 0.002257 -0.039271 0.032002
v 0.003922 -0.037950 0.033710
v 0.004132 -0.037881 0.032905
v 0.005448 -0.036673 0.034685
v 0.005632 -0.036422 0.034014
v 0.007372 -0.034589 0.036447
v 0.007583 -0.034326 0.035688
v 0.008747 -0.032754 0.038055
v 0.008948 -0.032375 0.037174
v 0.010397 -0.029897 0.040487
v 0.010502 -0.029845 0.039359
v 0.011632 -0.027388 0.042537
v 0.011982 -0.026225 0.041164
v -0.001187 -0.035701 0.041901
v 0.002131 -0.035038 0.041332
v 0.005523 -0.034266 0.040213
v -0.001870 -0.038710 0.035995
v 0.000935 -0.038546 0.035764
v -0.002247 -0.040859 0.031758
v -0.002302 -0.040420 0.032863
v -0.000375 -0.039882 0.033230
v -0.000022 -0.040228 0.032220
v 0.002037 -0.039265 0.032835
v 0.001788 -0.039176 0.033724
v 0.003323 -0.038077 0.034470
v 0.003922 -0.037950 0.033710
v 0.005448 -0.036673 0.034685
v 0.004833 -0.036837 0.035377
v 0.006802 -0.034724 0.037098
v 0.007372 -0.034589 0.036447
v -0.004262 -0.041061 0.031385
v 0.008161 -0.033062 0.038814
v 0.008747 -0.032754 0.038055
v 0.010009 -0.030300 0.041628
v 0.010397 -0.029897 0.040487
v -0.001461 -0.038965 0.028838
v -0.001848 -0.040199 0.029917
v 0.000497 -0.039496 0.030655
v 0.000707 -0.038421 0.029833
v 0.000992 -0.037025 0.028945
v 0.001253 -0.035692 0.028285
v -0.000710 -0.035753 0.027207
v -0.001086 -0.037490 0.028005
v -0.000418 -0.033979 0.026415
v 0.001888 -0.033785 0.027658
v -0.000033 -0.031808 0.025649
v 0.002254 -0.031644 0.026742
v -0.002074 -0.040857 0.030863
v 0.000282 -0.040164 0.031356
v 0.004044 -0.033326 0.029223
v 0.004294 -0.031125 0.028252
v 0.005768 -0.032721 0.030836
v 0.006023 -0.030598 0.029907
v 0.007202 -0.031756 0.032739
v 0.007473 -0.029738 0.031788
v 0.004132 -0.037881 0.032905
v 0.004059 -0.037434 0.032209
v 0.002292 -0.038648 0.031256
v 0.002257 -0.039271 0.032002
v 0.003994 -0.036574 0.031400
v 0.002259 -0.037752 0.030518
v 0.008716 -0.030635 0.035019
v 0.008964 -0.028693 0.034047
v 0.009848 -0.029357 0.037230
v 0.010107 -0.027552 0.036433
v 0.003981 -0.035061 0.030261
v 0.005660 -0.034518 0.031893
v 0.007392 -0.033401 0.034198
v 0.008769 -0.031299 0.035779
v 0.005627 -0.035383 0.032527
v 0.002076 -0.035352 0.028696
v 0.002176 -0.036624 0.029601
v 0.007583 -0.034326 0.035688
v 0.007581 -0.033956 0.034921
v 0.005629 -0.036046 0.033252
v 0.005632 -0.036422 0.034014
v 0.008851 -0.031826 0.036453
v 0.008948 -0.032375 0.037174
v 0.010196 -0.029554 0.038319
v 0.011982 -0.026225 0.041164
v 0.011429 -0.026412 0.039677
v 0.010502 -0.029845 0.039359
v 0.011320 -0.027887 0.043946
v 0.011632 -0.027388 0.042537
v 0.003818 -0.031275 0.051031
v -0.000417 -0.031960 0.052158
v -0.000372 -0.030981 0.053448
v 0.003959 -0.030196 0.052357
v 0.007284 -0.030131 0.049023
v 0.007473 -0.029201 0.050387
v 0.010301 -0.027777 0.046827
v 0.010059 -0.028545 0.046189
v 0.003959 -0.030196 0.052357
v -0.000372 -0.030981 0.053448
v -0.000335 -0.028478 0.054668
v 0.003774 -0.028359 0.053355
v 0.007473 -0.029201 0.050387
v 0.007297 -0.027774 0.051267
v 0.010766 -0.027078 0.047443
v 0.010301 -0.027777 0.046827
v 0.011320 -0.027887 0.043946
v 0.011899 -0.026389 0.044609
v 0.012158 -0.026308 0.043160
v 0.011899 -0.026389 0.044609
v -0.006646 -0.041014 0.030953
v -0.010654 -0.034370 0.040954
v -0.011807 -0.032089 0.046627
v -0.009773 -0.037455 0.035047
v -0.009058 -0.040025 0.031542
v -0.008665 -0.040410 0.029739
v -0.008902 -0.040385 0.030627
v -0.008374 -0.039799 0.028740
v -0.008665 -0.040410 0.029739
v -0.007179 -0.035064 0.025789
v -0.007586 -0.036808 0.026675
v -0.006820 -0.033230 0.025067
v -0.007976 -0.038362 0.027604
v -0.006412 -0.031238 0.024263
v -0.012774 -0.030768 0.051095
v -0.012774 -0.030768 0.051095
v -0.013037 -0.030025 0.052508
v -0.013037 -0.030025 0.052508
v -0.012960 -0.027093 0.054335
v -0.015210 -0.030967 0.045203
v -0.016352 -0.029560 0.049649
v -0.018364 -0.029372 0.042991
v -0.019906 -0.027582 0.047060
v -0.021951 -0.025685 0.044322
v -0.020541 -0.027618 0.040607
v -0.021579 -0.026253 0.038050
v -0.023090 -0.024102 0.041769
v -0.010837 -0.039588 0.030349
v -0.010714 -0.039579 0.029445
v -0.012907 -0.038274 0.030094
v -0.012810 -0.038228 0.029208
v -0.014610 -0.036803 0.030104
v -0.014525 -0.036732 0.029278
v -0.016161 -0.035052 0.030438
v -0.016142 -0.034882 0.029578
v -0.017473 -0.033290 0.030906
v -0.017407 -0.032975 0.030152
v -0.019095 -0.030745 0.031869
v -0.019067 -0.030507 0.031115
v -0.020457 -0.028404 0.032878
v -0.020260 -0.027935 0.032289
v -0.022030 -0.025156 0.034799
v -0.021536 -0.024727 0.034036
v -0.023267 -0.022589 0.036934
v -0.022385 -0.021112 0.035092
v -0.013931 -0.033358 0.039551
v -0.016919 -0.031834 0.037841
v -0.018731 -0.030922 0.034956
v -0.020428 -0.028780 0.033851
v -0.012857 -0.036165 0.034060
v -0.015934 -0.034652 0.032645
v -0.017286 -0.033522 0.031844
v -0.012907 -0.038274 0.030094
v -0.012901 -0.037964 0.031046
v -0.011005 -0.039210 0.031219
v -0.010837 -0.039588 0.030349
v -0.016161 -0.035052 0.030438
v -0.016096 -0.035046 0.031354
v -0.014516 -0.036694 0.031156
v -0.014610 -0.036803 0.030104
v -0.019095 -0.030745 0.031869
v -0.019080 -0.030941 0.032772
v -0.017473 -0.033290 0.030906
v -0.008902 -0.040385 0.030627
v -0.020457 -0.028404 0.032878
v -0.022030 -0.025156 0.034799
v -0.022243 -0.025677 0.036295
v -0.012525 -0.037588 0.028487
v -0.010463 -0.038990 0.028445
v -0.010092 -0.037664 0.027459
v -0.012133 -0.036519 0.027674
v -0.009367 -0.034473 0.025787
v -0.011386 -0.033638 0.026106
v -0.011808 -0.035347 0.026939
v -0.009766 -0.036206 0.026581
v -0.009015 -0.032632 0.025020
v -0.011322 -0.031725 0.025465
v -0.008632 -0.030573 0.024321
v -0.010786 -0.029788 0.024633
v -0.012810 -0.038228 0.029208
v -0.010714 -0.039579 0.029445
v -0.013852 -0.030551 0.026416
v -0.013015 -0.028665 0.025482
v -0.015567 -0.029484 0.027363
v -0.014880 -0.027518 0.026476
v -0.017250 -0.027983 0.028837
v -0.016542 -0.026199 0.027846
v -0.014235 -0.036236 0.028610
v -0.015851 -0.034298 0.028974
v -0.016142 -0.034882 0.029578
v -0.014525 -0.036732 0.029278
v -0.013847 -0.035556 0.028079
v -0.019036 -0.026286 0.030641
v -0.018330 -0.024717 0.029598
v -0.020304 -0.024720 0.032375
v -0.019793 -0.023194 0.031556
v -0.016311 -0.031060 0.028286
v -0.014630 -0.031982 0.027294
v -0.019562 -0.027044 0.031290
v -0.018377 -0.029574 0.030035
v -0.016790 -0.031881 0.028905
v -0.015287 -0.033221 0.028148
v -0.012395 -0.033196 0.026414
v -0.013274 -0.034524 0.027380
v -0.017198 -0.032522 0.029570
v -0.018785 -0.030081 0.030593
v -0.019067 -0.030507 0.031115
v -0.017407 -0.032975 0.030152
v -0.019982 -0.027398 0.031832
v -0.020260 -0.027935 0.032289
v -0.020982 -0.024528 0.033313
v -0.021442 -0.021562 0.033990
v -0.022385 -0.021112 0.035092
v -0.021536 -0.024727 0.034036
v -0.023267 -0.022589 0.036934
v -0.023629 -0.023131 0.039071
v -0.016433 -0.028608 0.050879
v -0.016352 -0.029560 0.049649
v -0.019906 -0.027582 0.047060
v -0.020027 -0.026606 0.048303
v -0.022216 -0.024571 0.045641
v -0.021951 -0.025685 0.044322
v -0.023090 -0.024102 0.041769
v -0.023478 -0.022786 0.042974
v -0.016097 -0.025807 0.052348
v -0.016433 -0.028608 0.050879
v -0.020027 -0.026606 0.048303
v -0.019664 -0.024109 0.049670
v -0.021805 -0.022295 0.046951
v -0.022216 -0.024571 0.045641
v -0.023478 -0.022786 0.042974
v -0.023121 -0.020644 0.044217
v -0.023629 -0.023131 0.039071
v -0.023177 -0.020570 0.038605
v -0.023326 -0.020623 0.040918
v -0.023326 -0.020623 0.040918
vt 0.443945 0.554245
vt 0.461541 0.553742
vt 0.459215 0.533224
vt 0.443925 0.533688
vt 0.455623 0.511347
vt 0.444304 0.511125
vt 0.444596 0.496801
vt 0.454414 0.497599
vt 0.453991 0.494645
vt 0.453732 0.492365
vt 0.444804 0.491973
vt 0.444727 0.494011
vt 0.453732 0.492365
vt 0.453797 0.489026
vt 0.444910 0.488844
vt 0.444804 0.491973
vt 0.455539 0.478212
vt 0.456777 0.472338
vt 0.445298 0.471611
vt 0.445172 0.477540
vt 0.458052 0.466259
vt 0.445439 0.465328
vt 0.454717 0.483383
vt 0.445041 0.482930
vt 0.459391 0.460814
vt 0.445576 0.459819
vt 0.443489 0.569880
vt 0.463317 0.569244
vt 0.463317 0.569244
vt 0.443489 0.569880
vt 0.443795 0.574839
vt 0.464933 0.574395
vt 0.464933 0.574395
vt 0.443795 0.574839
vt 0.443771 0.580568
vt 0.466710 0.580047
vt 0.479424 0.551387
vt 0.483130 0.566843
vt 0.503162 0.561909
vt 0.496868 0.546926
vt 0.520352 0.554745
vt 0.513441 0.540805
vt 0.536113 0.545426
vt 0.527709 0.533124
vt 0.461656 0.495181
vt 0.461834 0.492794
vt 0.470934 0.495834
vt 0.471779 0.493331
vt 0.480352 0.497374
vt 0.480629 0.494785
vt 0.490220 0.499956
vt 0.490579 0.497211
vt 0.498800 0.502959
vt 0.499749 0.500453
vt 0.510944 0.509423
vt 0.512194 0.506518
vt 0.520792 0.515275
vt 0.522632 0.511923
vt 0.535018 0.524602
vt 0.535591 0.520264
vt 0.547347 0.532466
vt 0.549358 0.528627
vt 0.473406 0.531070
vt 0.489015 0.528240
vt 0.504865 0.523367
vt 0.465992 0.509720
vt 0.477439 0.507460
vt 0.461656 0.495181
vt 0.462144 0.498561
vt 0.470037 0.499120
vt 0.470934 0.495834
vt 0.480352 0.497374
vt 0.479681 0.500188
vt 0.487822 0.502603
vt 0.490220 0.499956
vt 0.498800 0.502959
vt 0.496350 0.505649
vt 0.508604 0.511974
vt 0.510944 0.509423
vt 0.453991 0.494645
vt 0.517867 0.518163
vt 0.520792 0.515275
vt 0.532028 0.528683
vt 0.535018 0.524602
vt 0.464290 0.484954
vt 0.462543 0.489629
vt 0.473060 0.490788
vt 0.474783 0.487040
vt 0.477183 0.482325
vt 0.479618 0.478170
vt 0.468912 0.474620
vt 0.466391 0.480174
vt 0.471402 0.468816
vt 0.485608 0.473094
vt 0.474212 0.463424
vt 0.489321 0.468133
vt 0.461834 0.492794
vt 0.471779 0.493331
vt 0.498506 0.479378
vt 0.503128 0.474602
vt 0.508979 0.485971
vt 0.514232 0.482150
vt 0.518809 0.493360
vt 0.524145 0.490269
vt 0.490579 0.497211
vt 0.490839 0.494492
vt 0.481435 0.491965
vt 0.480629 0.494785
vt 0.491981 0.490786
vt 0.482501 0.488553
vt 0.527891 0.502387
vt 0.533105 0.499867
vt 0.535866 0.511014
vt 0.540262 0.509496
vt 0.494627 0.485183
vt 0.503512 0.491354
vt 0.513901 0.499821
vt 0.525738 0.505645
vt 0.501499 0.494361
vt 0.484833 0.479293
vt 0.483577 0.484085
vt 0.512194 0.506518
vt 0.513024 0.503338
vt 0.500228 0.497480
vt 0.499749 0.500453
vt 0.524283 0.508749
vt 0.522632 0.511923
vt 0.536080 0.515780
vt 0.549358 0.528627
vt 0.548111 0.521747
vt 0.535591 0.520264
vt 0.543596 0.537649
vt 0.547347 0.532466
vt 0.503162 0.561909
vt 0.483130 0.566843
vt 0.484627 0.572024
vt 0.505631 0.567169
vt 0.520352 0.554745
vt 0.522891 0.559851
vt 0.538976 0.548201
vt 0.536113 0.545426
vt 0.505631 0.567169
vt 0.484627 0.572024
vt 0.486870 0.577953
vt 0.508334 0.572941
vt 0.522891 0.559851
vt 0.526299 0.564848
vt 0.542346 0.550676
vt 0.538976 0.548201
vt 0.543596 0.537649
vt 0.548999 0.539856
vt 0.552516 0.535238
vt 0.548999 0.539856
vt 0.444727 0.494011
vt 0.428527 0.532249
vt 0.424952 0.552532
vt 0.431721 0.510498
vt 0.435281 0.496747
vt 0.436233 0.491896
vt 0.435741 0.494201
vt 0.436162 0.488594
vt 0.436233 0.491896
vt 0.433408 0.471674
vt 0.434526 0.477665
vt 0.431958 0.465512
vt 0.435396 0.483089
vt 0.430723 0.460206
vt 0.422352 0.568148
vt 0.422352 0.568148
vt 0.420851 0.573012
vt 0.420851 0.573012
vt 0.418560 0.579243
vt 0.406867 0.549125
vt 0.403288 0.564752
vt 0.388371 0.543211
vt 0.382010 0.558008
vt 0.366274 0.550437
vt 0.373022 0.536639
vt 0.362386 0.528926
vt 0.354422 0.542993
vt 0.427791 0.493975
vt 0.427755 0.491639
vt 0.418028 0.494064
vt 0.417818 0.491457
vt 0.409186 0.495108
vt 0.408927 0.492568
vt 0.399899 0.497257
vt 0.399090 0.494437
vt 0.391030 0.499578
vt 0.389748 0.496816
vt 0.378865 0.504497
vt 0.377733 0.501678
vt 0.367895 0.509389
vt 0.366011 0.506918
vt 0.353569 0.518045
vt 0.351619 0.514533
vt 0.342604 0.526854
vt 0.338943 0.521033
vt 0.411660 0.528755
vt 0.394903 0.524289
vt 0.383348 0.515209
vt 0.370214 0.512817
vt 0.416678 0.508654
vt 0.401176 0.504786
vt 0.393054 0.502756
vt 0.418028 0.494064
vt 0.418082 0.497169
vt 0.427164 0.496489
vt 0.427791 0.493975
vt 0.399899 0.497257
vt 0.400739 0.500260
vt 0.410073 0.498408
vt 0.409186 0.495108
vt 0.378865 0.504497
vt 0.380365 0.507706
vt 0.391030 0.499578
vt 0.435741 0.494201
vt 0.367895 0.509389
vt 0.353569 0.518045
vt 0.356798 0.523282
vt 0.416987 0.488706
vt 0.427220 0.488448
vt 0.425722 0.483656
vt 0.415488 0.484789
vt 0.421546 0.473095
vt 0.410478 0.475293
vt 0.413642 0.480880
vt 0.423852 0.478764
vt 0.418569 0.467101
vt 0.404491 0.470335
vt 0.415789 0.462041
vt 0.401465 0.465644
vt 0.417818 0.491457
vt 0.427755 0.491639
vt 0.390589 0.476610
vt 0.387377 0.471601
vt 0.380682 0.482235
vt 0.375930 0.478156
vt 0.370144 0.489354
vt 0.365763 0.485691
vt 0.408148 0.490002
vt 0.397784 0.491777
vt 0.399090 0.494437
vt 0.408927 0.492568
vt 0.407350 0.487270
vt 0.360405 0.498134
vt 0.356705 0.494920
vt 0.352567 0.506026
vt 0.349333 0.504168
vt 0.385489 0.487671
vt 0.393509 0.482298
vt 0.363237 0.501574
vt 0.375472 0.496021
vt 0.387342 0.491042
vt 0.395893 0.487329
vt 0.404916 0.477237
vt 0.406102 0.483141
vt 0.388615 0.494293
vt 0.376556 0.499110
vt 0.377733 0.501678
vt 0.389748 0.496816
vt 0.364130 0.504552
vt 0.366011 0.506918
vt 0.351057 0.510731
vt 0.340870 0.514620
vt 0.338943 0.521033
vt 0.351619 0.514533
vt 0.342604 0.526854
vt 0.346543 0.534422
vt 0.401960 0.569612
vt 0.403288 0.564752
vt 0.382010 0.558008
vt 0.380090 0.562863
vt 0.363169 0.555652
vt 0.366274 0.550437
vt 0.354422 0.542993
vt 0.349944 0.547929
vt 0.397750 0.577891
vt 0.401960 0.569612
vt 0.380090 0.562863
vt 0.374500 0.570625
vt 0.356379 0.562951
vt 0.363169 0.555652
vt 0.349944 0.547929
vt 0.342567 0.554246
vt 0.346543 0.534422
vt 0.334234 0.533179
vt 0.337040 0.542333
vt 0.337040 0.542333
vn -0.181431 -0.946754 0.265969
vn -0.070695 -0.954755 0.288867
vn -0.102304 -0.910778 0.400023
vn -0.196138 -0.903794 0.380376
vn -0.108933 -0.866281 0.487536
vn -0.221127 -0.852217 0.474162
vn -0.215186 -0.868507 0.446532
vn -0.036908 -0.901640 0.430909
vn 0.032349 -0.999445 -0.007893
vn 0.016845 -0.999855 0.002387
vn -0.129609 -0.987121 -0.093773
vn -0.126568 -0.985127 -0.116209
vn 0.108977 -0.857744 -0.502394
vn 0.140386 -0.755460 -0.639978
vn -0.002787 -0.753315 -0.657654
vn -0.041366 -0.857265 -0.513210
vn 0.184992 -0.507891 -0.841323
vn 0.213960 -0.443951 -0.870131
vn 0.083864 -0.426723 -0.900485
vn 0.064205 -0.511096 -0.857123
vn 0.212122 -0.398222 -0.892426
vn 0.085448 -0.368464 -0.925707
vn 0.160682 -0.592283 -0.789546
vn 0.046310 -0.583034 -0.811127
vn 0.221365 -0.381026 -0.897673
vn 0.087626 -0.365654 -0.926617
vn -0.177544 -0.958444 0.223301
vn -0.040092 -0.963654 0.264129
vn 0.003679 -0.896222 0.443591
vn -0.199507 -0.884742 0.421223
vn -0.195426 -0.886085 0.420311
vn 0.025060 -0.908165 0.417863
vn 0.039460 -0.482024 0.875269
vn -0.205512 -0.487923 0.848349
vn -0.190572 -0.490369 0.850424
vn 0.059379 -0.485204 0.872382
vn 0.107186 -0.943674 0.313034
vn 0.124642 -0.945610 0.300475
vn 0.320418 -0.911788 0.256857
vn 0.332203 -0.898589 0.286670
vn 0.497623 -0.842619 0.205826
vn 0.484721 -0.826334 0.286737
vn 0.638344 -0.735133 0.228245
vn 0.613286 -0.729771 0.302184
vn 0.179601 -0.983215 0.032108
vn 0.180312 -0.983136 0.030518
vn 0.335164 -0.940694 0.052530
vn 0.342459 -0.937811 0.056857
vn 0.458869 -0.879982 0.122768
vn 0.452553 -0.883964 0.117490
vn 0.584424 -0.806366 0.090671
vn 0.597769 -0.798757 0.068252
vn 0.725872 -0.686924 -0.035277
vn 0.733635 -0.677663 -0.050531
vn 0.773131 -0.634211 -0.006667
vn 0.772040 -0.635396 -0.015040
vn 0.852134 -0.522838 -0.022556
vn 0.848651 -0.528315 -0.025980
vn 0.864343 -0.500147 0.052568
vn 0.857716 -0.512620 0.039284
vn 0.913596 -0.405267 -0.033173
vn 0.927808 -0.365763 -0.073421
vn 0.065109 -0.906460 0.417243
vn 0.300143 -0.862461 0.407524
vn 0.442484 -0.813990 0.376335
vn -0.005985 -0.887542 0.460688
vn 0.239066 -0.872039 0.427078
vn 0.093799 -0.923593 0.371723
vn 0.083098 -0.896647 0.434878
vn 0.173430 -0.899382 0.401290
vn 0.213762 -0.909670 0.356098
vn 0.424562 -0.880780 0.209700
vn 0.362596 -0.878995 0.309664
vn 0.448116 -0.826787 0.340022
vn 0.498054 -0.829312 0.253347
vn 0.536950 -0.791948 0.290695
vn 0.485054 -0.808090 0.334234
vn 0.541670 -0.774965 0.325610
vn 0.561328 -0.767740 0.309007
vn -0.013059 -0.949490 0.313527
vn 0.606742 -0.741073 0.287531
vn 0.689382 -0.689481 0.222190
vn 0.750298 -0.630989 0.197245
vn 0.838285 -0.539030 0.082008
vn 0.319370 -0.602999 -0.731023
vn 0.287448 -0.745011 -0.601941
vn 0.455681 -0.661467 -0.595664
vn 0.481731 -0.558798 -0.675041
vn 0.490714 -0.496063 -0.716325
vn 0.491497 -0.443000 -0.749788
vn 0.360146 -0.441899 -0.821596
vn 0.347670 -0.497611 -0.794675
vn 0.367351 -0.396970 -0.841111
vn 0.525364 -0.404793 -0.748421
vn 0.370593 -0.384232 -0.845592
vn 0.514868 -0.405158 -0.755485
vn 0.260037 -0.825247 -0.501346
vn 0.426660 -0.728324 -0.536196
vn 0.647934 -0.392007 -0.653079
vn 0.657866 -0.365842 -0.658311
vn 0.764842 -0.346475 -0.543112
vn 0.766611 -0.337495 -0.546265
vn 0.841609 -0.309544 -0.442580
vn 0.835487 -0.323155 -0.444446
vn 0.721981 -0.544268 -0.427219
vn 0.700671 -0.518133 -0.490508
vn 0.583517 -0.578617 -0.569834
vn 0.577344 -0.643068 -0.503128
vn 0.672664 -0.461014 -0.578782
vn 0.584430 -0.498992 -0.639881
vn 0.878695 -0.314223 -0.359387
vn 0.884521 -0.293767 -0.362387
vn 0.913484 -0.253807 -0.318007
vn 0.917911 -0.263073 -0.297040
vn 0.652030 -0.428308 -0.625627
vn 0.762468 -0.381950 -0.522261
vn 0.849321 -0.295756 -0.437243
vn 0.890345 -0.296517 -0.345490
vn 0.760017 -0.436984 -0.481060
vn 0.583088 -0.421852 -0.694298
vn 0.593215 -0.455674 -0.663670
vn 0.840919 -0.486329 -0.237359
vn 0.853094 -0.391655 -0.344727
vn 0.767999 -0.522935 -0.369753
vn 0.778018 -0.555773 -0.292923
vn 0.897433 -0.282140 -0.339133
vn 0.899257 -0.293525 -0.324315
vn 0.912719 -0.236221 -0.333383
vn 0.921614 -0.222294 -0.318141
vn 0.921972 -0.230503 -0.311186
vn 0.914810 -0.230085 -0.331940
vn 0.788543 -0.594196 0.158523
vn 0.886057 -0.462460 0.032151
vn 0.410780 -0.729209 0.547279
vn 0.165558 -0.788497 0.592337
vn 0.170237 -0.802569 0.571754
vn 0.394098 -0.739364 0.545918
vn 0.622374 -0.675594 0.395251
vn 0.576174 -0.710280 0.404383
vn 0.774743 -0.536022 0.335341
vn 0.780196 -0.521306 0.345738
vn 0.413478 -0.404566 0.815697
vn 0.207974 -0.431064 0.878027
vn 0.215162 -0.444069 0.869774
vn 0.390483 -0.408887 0.824824
vn 0.652320 -0.368893 0.662115
vn 0.616993 -0.351021 0.704347
vn 0.732906 -0.630481 0.255623
vn 0.718408 -0.663236 0.209781
vn 0.866936 -0.451335 0.211468
vn 0.867414 -0.442351 0.227857
vn 0.908098 -0.418145 0.022649
vn 0.757801 -0.635383 0.148413
vn -0.198858 -0.914604 0.352071
vn -0.340901 -0.874767 0.344339
vn -0.328223 -0.912361 0.244677
vn -0.384851 -0.812960 0.437020
vn -0.349582 -0.845675 0.403270
vn -0.294888 -0.954189 -0.050643
vn -0.308064 -0.949011 -0.066886
vn -0.129741 -0.723454 -0.678072
vn -0.180849 -0.816753 -0.547913
vn -0.049363 -0.395256 -0.917244
vn -0.052608 -0.476430 -0.877637
vn -0.031447 -0.362483 -0.931460
vn -0.064761 -0.555802 -0.828788
vn -0.028416 -0.356238 -0.933963
vn -0.329601 -0.922207 0.202232
vn -0.398809 -0.829771 0.390426
vn -0.402312 -0.838941 0.366501
vn -0.437588 -0.441123 0.783535
vn -0.458375 -0.461509 0.759540
vn -0.465746 -0.861051 0.204138
vn -0.457527 -0.873361 0.167062
vn -0.629781 -0.763147 0.144852
vn -0.629903 -0.770211 0.099982
vn -0.748884 -0.661278 0.043402
vn -0.759665 -0.645562 0.078485
vn -0.821459 -0.566494 0.065503
vn -0.823885 -0.566715 -0.006913
vn -0.449570 -0.890364 -0.071687
vn -0.449623 -0.890282 -0.072370
vn -0.592025 -0.799163 -0.104133
vn -0.591815 -0.798697 -0.108808
vn -0.708513 -0.693646 -0.129866
vn -0.703755 -0.697827 -0.133287
vn -0.785319 -0.603996 -0.135878
vn -0.788540 -0.595606 -0.153159
vn -0.845026 -0.472188 -0.250938
vn -0.846401 -0.464482 -0.260501
vn -0.866825 -0.463105 -0.184791
vn -0.867885 -0.453016 -0.203842
vn -0.882786 -0.205888 -0.422254
vn -0.875240 -0.173149 -0.451635
vn -0.845037 -0.000882 -0.534707
vn -0.846033 -0.017686 -0.532836
vn -0.945372 0.119990 -0.303108
vn -0.916918 0.054061 -0.395398
vn -0.480906 -0.826896 0.291500
vn -0.626653 -0.743653 0.232993
vn -0.757568 -0.630981 0.167190
vn -0.868350 -0.495567 -0.019516
vn -0.502923 -0.771989 0.388719
vn -0.638653 -0.705795 0.306555
vn -0.773374 -0.623022 0.117205
vn -0.586297 -0.769897 0.252021
vn -0.564471 -0.753970 0.336009
vn -0.472971 -0.799957 0.369281
vn -0.461498 -0.842858 0.276786
vn -0.754855 -0.652249 0.069028
vn -0.730606 -0.662690 0.164491
vn -0.627392 -0.729478 0.272471
vn -0.670902 -0.725800 0.152000
vn -0.855044 -0.511821 -0.083306
vn -0.836098 -0.548469 0.011037
vn -0.814750 -0.579224 0.026101
vn -0.347228 -0.890184 0.294965
vn -0.895883 -0.424971 -0.129588
vn -0.922429 -0.312033 -0.227507
vn -0.897436 -0.435929 -0.067642
vn -0.422599 -0.522461 -0.740570
vn -0.284589 -0.663739 -0.691707
vn -0.228865 -0.500770 -0.834776
vn -0.377734 -0.437407 -0.816083
vn -0.190903 -0.359034 -0.913592
vn -0.343220 -0.320174 -0.883000
vn -0.368876 -0.367888 -0.853574
vn -0.207751 -0.424459 -0.881291
vn -0.186597 -0.319820 -0.928922
vn -0.364356 -0.272648 -0.890454
vn -0.196388 -0.295555 -0.934922
vn -0.350209 -0.282956 -0.892911
vn -0.454595 -0.593625 -0.664043
vn -0.319966 -0.776817 -0.542382
vn -0.502564 -0.219300 -0.836263
vn -0.495718 -0.201893 -0.844691
vn -0.624365 -0.136368 -0.769137
vn -0.623581 -0.138283 -0.769431
vn -0.712360 -0.064539 -0.698840
vn -0.714786 -0.106151 -0.691240
vn -0.529580 -0.443700 -0.722963
vn -0.629248 -0.311775 -0.711929
vn -0.670240 -0.355747 -0.651324
vn -0.567875 -0.518374 -0.639380
vn -0.478074 -0.330542 -0.813749
vn -0.772552 -0.038566 -0.633779
vn -0.776399 -0.070547 -0.626280
vn -0.814127 -0.002132 -0.580683
vn -0.823879 -0.028300 -0.566058
vn -0.634175 -0.168748 -0.754550
vn -0.526848 -0.242767 -0.814552
vn -0.775138 -0.009886 -0.631715
vn -0.730132 -0.080703 -0.678523
vn -0.665542 -0.224914 -0.711665
vn -0.559814 -0.278312 -0.780481
vn -0.438091 -0.283460 -0.853069
vn -0.469325 -0.301232 -0.830056
vn -0.726520 -0.296075 -0.620088
vn -0.773593 -0.149694 -0.615748
vn -0.794650 -0.193624 -0.575361
vn -0.759669 -0.340153 -0.554256
vn -0.804893 -0.029754 -0.592673
vn -0.819744 -0.067030 -0.568795
vn -0.799712 0.015502 -0.600184
vn -0.773211 0.022137 -0.633763
vn -0.762785 0.023040 -0.646242
vn -0.797639 0.004087 -0.603121
vn -0.937684 -0.264220 -0.225689
vn -0.883497 -0.463255 -0.069488
vn -0.559739 -0.688402 0.461296
vn -0.566884 -0.669300 0.480291
vn -0.758243 -0.546013 0.356284
vn -0.738362 -0.566393 0.366087
vn -0.856569 -0.466393 0.220832
vn -0.868845 -0.448082 0.210550
vn -0.924214 -0.367198 0.104857
vn -0.960337 -0.259452 0.102166
vn -0.608971 -0.333159 0.719833
vn -0.589541 -0.318684 0.742214
vn -0.745652 -0.231569 0.624803
vn -0.747616 -0.232315 0.622173
vn -0.873282 -0.120103 0.472180
vn -0.873264 -0.115118 0.473454
vn -0.968024 0.019462 0.250102
vn -0.963251 0.004548 0.268564
vn -0.996459 0.072249 -0.043014
vn -0.975014 0.181328 -0.128326
vn -0.992137 0.124966 -0.006924
vn -0.989724 0.128730 0.062250
f 3/3/3 2/2/2 1/1/1
f 1/1/1 4/4/4 3/3/3
f 6/6/6 5/5/5 3/3/3
f 3/3/3 4/4/4 6/6/6
f 5/5/5 6/6/6 7/7/7
f 7/7/7 8/8/8 5/5/5
f 11/11/11 10/10/10 9/9/9
f 9/9/9 12/12/12 11/11/11
f 15/15/15 14/14/14 13/13/13
f 13/13/13 16/16/16 15/15/15
f 19/19/19 18/18/18 17/17/17
f 17/17/17 20/20/20 19/19/19
f 22/22/22 21/21/21 18/18/18
f 18/18/18 19/19/19 22/22/22
f 20/20/20 17/17/17 23/23/23
f 23/23/23 24/24/24 20/20/20
f 26/26/26 25/25/25 21/21/21
f 21/21/21 22/22/22 26/26/26
f 24/24/24 23/23/23 14/14/14
f 14/14/14 15/15/15 24/24/24
f 27/27/27 1/1/1 2/2/2
f 2/2/2 28/28/28 27/27/27
f 31/31/31 30/30/30 29/29/29
f 29/29/29 32/32/32 31/31/31
f 35/35/35 34/34/34 33/33/33
f 33/33/33 36/36/36 35/35/35
f 28/28/28 2/2/2 37/37/37
f 37/37/37 38/38/38 28/28/28
f 37/37/37 40/40/40 39/39/39
f 39/39/39 38/38/38 37/37/37
f 40/40/40 42/42/42 41/41/41
f 41/41/41 39/39/39 40/40/40
f 42/42/42 44/44/44 43/43/43
f 43/43/43 41/41/41 42/42/42
f 45/45/45 9/9/9 10/10/10
f 10/10/10 46/46/46 45/45/45
f 47/47/47 45/45/45 46/46/46
f 46/46/46 48/48/48 47/47/47
f 49/49/49 47/47/47 48/48/48
f 48/48/48 50/50/50 49/49/49
f 51/51/51 49/49/49 50/50/50
f 50/50/50 52/52/52 51/51/51
f 53/53/53 51/51/51 52/52/52
f 52/52/52 54/54/54 53/53/53
f 55/55/55 53/53/53 54/54/54
f 54/54/54 56/56/56 55/55/55
f 57/57/57 55/55/55 56/56/56
f 56/56/56 58/58/58 57/57/57
f 59/59/59 57/57/57 58/58/58
f 58/58/58 60/60/60 59/59/59
f 61/61/61 59/59/59 60/60/60
f 60/60/60 62/62/62 61/61/61
f 3/3/3 63/63/63 37/37/37
f 37/37/37 2/2/2 3/3/3
f 63/63/63 64/64/64 40/40/40
f 40/40/40 37/37/37 63/63/63
f 64/64/64 65/65/65 42/42/42
f 42/42/42 40/40/40 64/64/64
f 42/42/42 65/65/65 44/44/44
f 5/5/5 66/66/66 63/63/63
f 63/63/63 3/3/3 5/5/5
f 67/67/67 64/64/64 63/63/63
f 63/63/63 66/66/66 67/67/67
f 64/64/64 67/67/67 65/65/65
f 70/70/70 69/69/69 68/68/68
f 68/68/68 71/71/71 70/70/70
f 74/74/74 73/73/73 72/72/72
f 72/72/72 75/75/75 74/74/74
f 78/78/78 77/77/77 76/76/76
f 76/76/76 79/79/79 78/78/78
f 77/77/77 65/65/65 67/67/67
f 69/69/69 8/8/8 80/80/80
f 80/80/80 68/68/68 69/69/69
f 73/73/73 70/70/70 71/71/71
f 71/71/71 72/72/72 73/73/73
f 77/77/77 74/74/74 75/75/75
f 75/75/75 76/76/76 77/77/77
f 69/69/69 66/66/66 5/5/5
f 5/5/5 8/8/8 69/69/69
f 70/70/70 67/67/67 66/66/66
f 70/70/70 73/73/73 67/67/67
f 67/67/67 73/73/73 74/74/74
f 74/74/74 77/77/77 67/67/67
f 66/66/66 69/69/69 70/70/70
f 81/81/81 44/44/44 65/65/65
f 83/83/83 81/81/81 82/82/82
f 82/82/82 84/84/84 83/83/83
f 81/81/81 78/78/78 79/79/79
f 79/79/79 82/82/82 81/81/81
f 78/78/78 81/81/81 65/65/65
f 77/77/77 78/78/78 65/65/65
f 87/87/87 86/86/86 85/85/85
f 85/85/85 88/88/88 87/87/87
f 91/91/91 90/90/90 89/89/89
f 89/89/89 92/92/92 91/91/91
f 90/90/90 91/91/91 93/93/93
f 93/93/93 94/94/94 90/90/90
f 88/88/88 85/85/85 92/92/92
f 92/92/92 89/89/89 88/88/88
f 94/94/94 93/93/93 95/95/95
f 95/95/95 96/96/96 94/94/94
f 23/23/23 85/85/85 86/86/86
f 86/86/86 14/14/14 23/23/23
f 92/92/92 17/17/17 18/18/18
f 18/18/18 91/91/91 92/92/92
f 21/21/21 25/25/25 95/95/95
f 95/95/95 93/93/93 21/21/21
f 98/98/98 97/97/97 86/86/86
f 86/86/86 87/87/87 98/98/98
f 97/97/97 13/13/13 14/14/14
f 14/14/14 86/86/86 97/97/97
f 85/85/85 23/23/23 17/17/17
f 17/17/17 92/92/92 85/85/85
f 21/21/21 93/93/93 91/91/91
f 91/91/91 18/18/18 21/21/21
f 99/99/99 94/94/94 96/96/96
f 96/96/96 100/100/100 99/99/99
f 101/101/101 99/99/99 100/100/100
f 100/100/100 102/102/102 101/101/101
f 103/103/103 101/101/101 102/102/102
f 102/102/102 104/104/104 103/103/103
f 107/107/107 106/106/106 105/105/105
f 105/105/105 108/108/108 107/107/107
f 110/110/110 109/109/109 106/106/106
f 106/106/106 107/107/107 110/110/110
f 88/88/88 110/110/110 107/107/107
f 107/107/107 87/87/87 88/88/88
f 87/87/87 107/107/107 108/108/108
f 108/108/108 98/98/98 87/87/87
f 111/111/111 103/103/103 104/104/104
f 104/104/104 112/112/112 111/111/111
f 113/113/113 111/111/111 112/112/112
f 112/112/112 114/114/114 113/113/113
f 116/116/116 115/115/115 99/99/99
f 99/99/99 101/101/101 116/116/116
f 118/118/118 117/117/117 103/103/103
f 103/103/103 111/111/111 118/118/118
f 119/119/119 109/109/109 115/115/115
f 115/115/115 116/116/116 119/119/119
f 120/120/120 115/115/115 109/109/109
f 109/109/109 121/121/121 120/120/120
f 121/121/121 89/89/89 90/90/90
f 90/90/90 120/120/120 121/121/121
f 115/115/115 120/120/120 94/94/94
f 94/94/94 99/99/99 115/115/115
f 94/94/94 120/120/120 90/90/90
f 117/117/117 116/116/116 101/101/101
f 101/101/101 103/103/103 117/117/117
f 124/124/124 123/123/123 122/122/122
f 122/122/122 125/125/125 124/124/124
f 106/106/106 124/124/124 125/125/125
f 125/125/125 105/105/105 106/106/106
f 123/123/123 124/124/124 119/119/119
f 119/119/119 117/117/117 123/123/123
f 124/124/124 106/106/106 109/109/109
f 109/109/109 119/119/119 124/124/124
f 116/116/116 117/117/117 119/119/119
f 110/110/110 88/88/88 89/89/89
f 89/89/89 121/121/121 110/110/110
f 117/117/117 118/118/118 126/126/126
f 126/126/126 123/123/123 117/117/117
f 127/127/127 122/122/122 123/123/123
f 123/123/123 126/126/126 127/127/127
f 118/118/118 113/113/113 128/128/128
f 128/128/128 126/126/126 118/118/118
f 111/111/111 113/113/113 118/118/118
f 128/128/128 130/130/130 129/129/129
f 129/129/129 131/131/131 128/128/128
f 130/130/130 128/128/128 113/113/113
f 113/113/113 114/114/114 130/130/130
f 126/126/126 128/128/128 131/131/131
f 131/131/131 127/127/127 126/126/126
f 83/83/83 44/44/44 81/81/81
f 132/132/132 83/83/83 84/84/84
f 84/84/84 133/133/133 132/132/132
f 83/83/83 132/132/132 44/44/44
f 132/132/132 43/43/43 44/44/44
f 121/121/121 109/109/109 110/110/110
f 136/136/136 135/135/135 134/134/134
f 134/134/134 137/137/137 136/136/136
f 140/140/140 139/139/139 138/138/138
f 138/138/138 141/141/141 140/140/140
f 144/144/144 143/143/143 142/142/142
f 142/142/142 145/145/145 144/144/144
f 148/148/148 147/147/147 146/146/146
f 146/146/146 149/149/149 148/148/148
f 33/33/33 143/143/143 144/144/144
f 144/144/144 36/36/36 33/33/33
f 29/29/29 135/135/135 136/136/136
f 136/136/136 32/32/32 29/29/29
f 137/137/137 134/134/134 138/138/138
f 138/138/138 139/139/139 137/137/137
f 142/142/142 146/146/146 147/147/147
f 147/147/147 145/145/145 142/142/142
f 152/152/152 151/151/151 150/150/150
f 150/150/150 61/61/61 152/152/152
f 141/141/141 150/150/150 151/151/151
f 151/151/151 140/140/140 141/141/141
f 152/152/152 61/61/61 62/62/62
f 148/148/148 149/149/149 153/153/153
f 154/154/154 80/80/80 8/8/8
f 8/8/8 7/7/7 154/154/154
f 155/155/155 4/4/4 1/1/1
f 1/1/1 156/156/156 155/155/155
f 6/6/6 4/4/4 155/155/155
f 155/155/155 157/157/157 6/6/6
f 157/157/157 158/158/158 7/7/7
f 7/7/7 6/6/6 157/157/157
f 160/160/160 159/159/159 11/11/11
f 11/11/11 12/12/12 160/160/160
f 162/162/162 161/161/161 15/15/15
f 15/15/15 16/16/16 162/162/162
f 164/164/164 163/163/163 19/19/19
f 19/19/19 20/20/20 164/164/164
f 163/163/163 165/165/165 22/22/22
f 22/22/22 19/19/19 163/163/163
f 166/166/166 164/164/164 20/20/20
f 20/20/20 24/24/24 166/166/166
f 165/165/165 167/167/167 26/26/26
f 26/26/26 22/22/22 165/165/165
f 161/161/161 166/166/166 24/24/24
f 24/24/24 15/15/15 161/161/161
f 156/156/156 1/1/1 27/27/27
f 27/27/27 168/168/168 156/156/156
f 169/169/169 30/30/30 31/31/31
f 31/31/31 170/170/170 169/169/169
f 171/171/171 34/34/34 35/35/35
f 35/35/35 172/172/172 171/171/171
f 173/173/173 156/156/156 168/168/168
f 168/168/168 174/174/174 173/173/173
f 175/175/175 173/173/173 174/174/174
f 174/174/174 176/176/176 175/175/175
f 175/175/175 176/176/176 177/177/177
f 177/177/177 178/178/178 175/175/175
f 179/179/179 178/178/178 177/177/177
f 177/177/177 180/180/180 179/179/179
f 159/159/159 160/160/160 181/181/181
f 181/181/181 182/182/182 159/159/159
f 182/182/182 181/181/181 183/183/183
f 183/183/183 184/184/184 182/182/182
f 184/184/184 183/183/183 185/185/185
f 185/185/185 186/186/186 184/184/184
f 186/186/186 185/185/185 187/187/187
f 187/187/187 188/188/188 186/186/186
f 188/188/188 187/187/187 189/189/189
f 189/189/189 190/190/190 188/188/188
f 190/190/190 189/189/189 191/191/191
f 191/191/191 192/192/192 190/190/190
f 192/192/192 191/191/191 193/193/193
f 193/193/193 194/194/194 192/192/192
f 194/194/194 193/193/193 195/195/195
f 195/195/195 196/196/196 194/194/194
f 196/196/196 195/195/195 197/197/197
f 197/197/197 198/198/198 196/196/196
f 156/156/156 173/173/173 199/199/199
f 199/199/199 155/155/155 156/156/156
f 173/173/173 175/175/175 200/200/200
f 200/200/200 199/199/199 173/173/173
f 200/200/200 175/175/175 178/178/178
f 178/178/178 201/201/201 200/200/200
f 179/179/179 202/202/202 201/201/201
f 157/157/157 155/155/155 199/199/199
f 199/199/199 203/203/203 157/157/157
f 199/199/199 200/200/200 204/204/204
f 204/204/204 203/203/203 199/199/199
f 201/201/201 205/205/205 204/204/204
f 208/208/208 207/207/207 206/206/206
f 206/206/206 209/209/209 208/208/208
f 212/212/212 211/211/211 210/210/210
f 210/210/210 213/213/213 212/212/212
f 205/205/205 215/215/215 214/214/214
f 214/214/214 216/216/216 205/205/205
f 204/204/204 200/200/200 201/201/201
f 208/208/208 209/209/209 217/217/217
f 217/217/217 158/158/158 208/208/208
f 207/207/207 212/212/212 213/213/213
f 213/213/213 206/206/206 207/207/207
f 211/211/211 205/205/205 216/216/216
f 216/216/216 210/210/210 211/211/211
f 157/157/157 203/203/203 208/208/208
f 157/157/157 208/208/208 158/158/158
f 203/203/203 204/204/204 212/212/212
f 203/203/203 212/212/212 207/207/207
f 211/211/211 204/204/204 205/205/205
f 212/212/212 204/204/204 211/211/211
f 203/203/203 207/207/207 208/208/208
f 201/201/201 178/178/178 179/179/179
f 219/219/219 218/218/218 202/202/202
f 202/202/202 220/220/220 219/219/219
f 215/215/215 202/202/202 218/218/218
f 218/218/218 214/214/214 215/215/215
f 215/215/215 201/201/201 202/202/202
f 205/205/205 201/201/201 215/215/215
f 223/223/223 222/222/222 221/221/221
f 221/221/221 224/224/224 223/223/223
f 227/227/227 226/226/226 225/225/225
f 225/225/225 228/228/228 227/227/227
f 229/229/229 225/225/225 226/226/226
f 226/226/226 230/230/230 229/229/229
f 228/228/228 223/223/223 224/224/224
f 224/224/224 227/227/227 228/228/228
f 231/231/231 229/229/229 230/230/230
f 230/230/230 232/232/232 231/231/231
f 222/222/222 223/223/223 166/166/166
f 166/166/166 161/161/161 222/222/222
f 163/163/163 164/164/164 228/228/228
f 228/228/228 225/225/225 163/163/163
f 229/229/229 231/231/231 167/167/167
f 167/167/167 165/165/165 229/229/229
f 222/222/222 234/234/234 233/233/233
f 233/233/233 221/221/221 222/222/222
f 161/161/161 162/162/162 234/234/234
f 234/234/234 222/222/222 161/161/161
f 164/164/164 166/166/166 223/223/223
f 223/223/223 228/228/228 164/164/164
f 225/225/225 229/229/229 165/165/165
f 165/165/165 163/163/163 225/225/225
f 232/232/232 230/230/230 235/235/235
f 235/235/235 236/236/236 232/232/232
f 236/236/236 235/235/235 237/237/237
f 237/237/237 238/238/238 236/236/236
f 238/238/238 237/237/237 239/239/239
f 239/239/239 240/240/240 238/238/238
f 243/243/243 242/242/242 241/241/241
f 241/241/241 244/244/244 243/243/243
f 241/241/241 242/242/242 245/245/245
f 241/241/241 245/245/245 224/224/224
f 224/224/224 221/221/221 241/241/241
f 244/244/244 241/241/241 221/221/221
f 221/221/221 233/233/233 244/244/244
f 240/240/240 239/239/239 246/246/246
f 246/246/246 247/247/247 240/240/240
f 247/247/247 246/246/246 248/248/248
f 248/248/248 249/249/249 247/247/247
f 235/235/235 251/251/251 250/250/250
f 250/250/250 237/237/237 235/235/235
f 239/239/239 253/253/253 252/252/252
f 252/252/252 246/246/246 239/239/239
f 251/251/251 255/255/255 254/254/254
f 254/254/254 250/250/250 251/251/251
f 255/255/255 251/251/251 256/256/256
f 256/256/256 257/257/257 255/255/255
f 226/226/226 227/227/227 257/257/257
f 257/257/257 256/256/256 226/226/226
f 230/230/230 256/256/256 251/251/251
f 251/251/251 235/235/235 230/230/230
f 230/230/230 226/226/226 256/256/256
f 237/237/237 250/250/250 253/253/253
f 253/253/253 239/239/239 237/237/237
f 260/260/260 259/259/259 258/258/258
f 258/258/258 261/261/261 260/260/260
f 261/261/261 258/258/258 242/242/242
f 242/242/242 243/243/243 261/261/261
f 254/254/254 258/258/258 259/259/259
f 259/259/259 253/253/253 254/254/254
f 255/255/255 242/242/242 258/258/258
f 258/258/258 254/254/254 255/255/255
f 250/250/250 254/254/254 253/253/253
f 242/242/242 255/255/255 257/257/257
f 257/257/257 245/245/245 242/242/242
f 227/227/227 224/224/224 245/245/245
f 245/245/245 257/257/257 227/227/227
f 262/262/262 252/252/252 253/253/253
f 253/253/253 259/259/259 262/262/262
f 259/259/259 260/260/260 263/263/263
f 263/263/263 262/262/262 259/259/259
f 264/264/264 248/248/248 252/252/252
f 252/252/252 262/262/262 264/264/264
f 246/246/246 252/252/252 248/248/248
f 266/266/266 265/265/265 264/264/264
f 264/264/264 267/267/267 266/266/266
f 248/248/248 264/264/264 265/265/265
f 265/265/265 249/249/249 248/248/248
f 267/267/267 264/264/264 262/262/262
f 262/262/262 263/263/263 267/267/267
f 220/220/220 202/202/202 179/179/179
f 220/220/220 269/269/269 268/268/268
f 268/268/268 219/219/219 220/220/220
f 220/220/220 179/179/179 269/269/269
f 269/269/269 179/179/179 180/180/180
f 272/272/272 271/271/271 270/270/270
f 270/270/270 273/273/273 272/272/272
f 276/276/276 275/275/275 274/274/274
f 274/274/274 277/277/277 276/276/276
f 280/280/280 279/279/279 278/278/278
f 278/278/278 281/281/281 280/280/280
f 284/284/284 283/283/283 282/282/282
f 282/282/282 285/285/285 284/284/284
f 278/278/278 279/279/279 171/171/171
f 171/171/171 172/172/172 278/278/278
f 270/270/270 271/271/271 169/169/169
f 169/169/169 170/170/170 270/270/270
f 275/275/275 272/272/272 273/273/273
f 273/273/273 274/274/274 275/275/275
f 282/282/282 283/283/283 280/280/280
f 280/280/280 281/281/281 282/282/282
f 287/287/287 197/197/197 286/286/286
f 286/286/286 288/288/288 287/287/287
f 277/277/277 288/288/288 286/286/286
f 286/286/286 276/276/276 277/277/277
f 287/287/287 198/198/198 197/197/197
f 285/285/285 289/289/289 284/284/284
f 158/158/158 217/217/217 154/154/154
f 154/154/154 7/7/7 158/158/158
