# GloomhavenVR - valve-index right 'button_primary' (glTF material 0)
# generated by controllers_pipeline.py from webxr-input-profiles (MIT)
o index_right_button_primary__m0
v -0.020889 0.008310 0.041742
v -0.019052 0.008102 0.042058
v -0.020924 0.008008 0.042126
v -0.020832 0.007709 0.042502
v -0.020618 0.007433 0.042845
v -0.020298 0.007199 0.043131
v -0.019892 0.007022 0.043341
v -0.019430 0.006915 0.043461
v -0.018942 0.006885 0.043482
v -0.018462 0.006934 0.043402
v -0.018022 0.007059 0.043228
v -0.017652 0.007250 0.042972
v -0.017377 0.007496 0.042649
v -0.017217 0.007780 0.042284
v -0.017182 0.008081 0.041900
v -0.017275 0.008380 0.041524
v -0.017488 0.008656 0.041181
v -0.017809 0.008890 0.040894
v -0.018214 0.009067 0.040684
v -0.018676 0.009174 0.040565
v -0.019164 0.009204 0.040544
v -0.019645 0.009155 0.040623
v -0.020085 0.009031 0.040797
v -0.020455 0.008839 0.041054
v -0.020729 0.008593 0.041376
v -0.022804 0.007641 0.041978
v -0.022734 0.008244 0.041210
v -0.022619 0.007043 0.042730
v -0.022192 0.006491 0.043416
v -0.021551 0.006023 0.043989
v -0.020741 0.005669 0.044409
v -0.019816 0.005455 0.044648
v -0.018840 0.005395 0.044690
v -0.017879 0.005493 0.044531
v -0.016999 0.005742 0.044184
v -0.016259 0.006125 0.043670
v -0.015711 0.006617 0.043026
v -0.015391 0.007184 0.042295
v -0.015321 0.007787 0.041527
v -0.015506 0.008384 0.040774
v -0.015933 0.008936 0.040088
v -0.016574 0.009405 0.039516
v -0.017384 0.009759 0.039095
v -0.018309 0.009973 0.038856
v -0.019285 0.010033 0.038815
v -0.020245 0.009935 0.038973
v -0.021126 0.009686 0.039321
v -0.021865 0.009302 0.039835
v -0.022414 0.008810 0.040479
v -0.023307 0.007469 0.041880
v -0.023228 0.008152 0.041010
v -0.023098 0.006791 0.042733
v -0.022613 0.006166 0.043510
v -0.021887 0.005635 0.044159
v -0.020969 0.005234 0.044635
v -0.019921 0.004991 0.044906
v -0.018815 0.004923 0.044953
v -0.017726 0.005034 0.044774
v -0.016729 0.005316 0.044380
v -0.015891 0.005751 0.043798
v -0.015269 0.006309 0.043068
v -0.014906 0.006951 0.042239
v -0.014827 0.007634 0.041369
v -0.015036 0.008311 0.040516
v -0.015521 0.008937 0.039738
v -0.016247 0.009468 0.039090
v -0.017165 0.009869 0.038613
v -0.018213 0.010111 0.038343
v -0.019319 0.010180 0.038295
v -0.020408 0.010069 0.038475
v -0.021405 0.009786 0.038869
v -0.022243 0.009351 0.039451
v -0.022865 0.008794 0.040181
v -0.023525 0.007072 0.041583
v -0.023442 0.007789 0.040671
v -0.023305 0.006362 0.042478
v -0.022797 0.005706 0.043293
v -0.022036 0.005149 0.043974
v -0.021073 0.004729 0.044473
v -0.019974 0.004474 0.044757
v -0.018814 0.004403 0.044807
v -0.017672 0.004519 0.044618
v -0.016626 0.004815 0.044205
v -0.015747 0.005271 0.043594
v -0.015095 0.005856 0.042829
v -0.014714 0.006529 0.041960
v -0.014631 0.007245 0.041047
v -0.014851 0.007956 0.040153
v -0.015359 0.008612 0.039338
v -0.016120 0.009169 0.038657
v -0.017083 0.009589 0.038158
v -0.018182 0.009844 0.037874
v -0.019342 0.009915 0.037824
v -0.020484 0.009799 0.038013
v -0.021530 0.009503 0.038426
v -0.022409 0.009047 0.039036
v -0.023061 0.008462 0.039802
v -0.023634 0.003182 0.038521
v -0.023551 0.003899 0.037608
v -0.023414 0.002472 0.039415
v -0.022906 0.001816 0.040230
v -0.022145 0.001259 0.040911
v -0.021182 0.000839 0.041410
v -0.020083 0.000584 0.041694
v -0.018923 0.000513 0.041744
v -0.017781 0.000629 0.041555
v -0.016735 0.000925 0.041142
v -0.015856 0.001381 0.040532
v -0.015204 0.001966 0.039766
v -0.014823 0.002639 0.038897
v -0.014740 0.003355 0.037984
v -0.014960 0.004066 0.037090
v -0.015468 0.004722 0.036275
v -0.016229 0.005279 0.035594
v -0.017192 0.005699 0.035095
v -0.018291 0.005953 0.034811
v -0.019451 0.006025 0.034761
v -0.020593 0.005909 0.034950
v -0.021639 0.005613 0.035363
v -0.022518 0.005157 0.035973
v -0.023170 0.004572 0.036739
vt 0.051408 0.814108
vt 0.060806 0.814108
vt 0.051728 0.816541
vt 0.052667 0.818807
vt 0.054160 0.820754
vt 0.056107 0.822247
vt 0.058373 0.823186
vt 0.060806 0.823506
vt 0.063238 0.823186
vt 0.065505 0.822247
vt 0.067451 0.820754
vt 0.068945 0.818807
vt 0.069884 0.816541
vt 0.070204 0.814108
vt 0.069884 0.811676
vt 0.068945 0.809409
vt 0.067451 0.807463
vt 0.065505 0.805969
vt 0.063238 0.805030
vt 0.060806 0.804710
vt 0.058373 0.805030
vt 0.056107 0.805969
vt 0.054160 0.807463
vt 0.052667 0.809409
vt 0.051728 0.811676
vt 0.042650 0.818973
vt 0.042010 0.814108
vt 0.044528 0.823506
vt 0.047515 0.827399
vt 0.051408 0.830386
vt 0.055941 0.832264
vt 0.060806 0.832904
vt 0.065671 0.832264
vt 0.070204 0.830386
vt 0.074097 0.827399
vt 0.077084 0.823506
vt 0.078961 0.818973
vt 0.079602 0.814108
vt 0.078961 0.809243
vt 0.077084 0.804710
vt 0.074097 0.800817
vt 0.070204 0.797830
vt 0.065671 0.795953
vt 0.060806 0.795312
vt 0.055941 0.795953
vt 0.051408 0.797830
vt 0.047515 0.800817
vt 0.044528 0.804710
vt 0.042650 0.809243
vt 0.040231 0.819621
vt 0.039505 0.814108
vt 0.042359 0.824758
vt 0.045744 0.829170
vt 0.050156 0.832555
vt 0.055293 0.834683
vt 0.060806 0.835409
vt 0.066319 0.834683
vt 0.071456 0.832555
vt 0.075867 0.829170
vt 0.079252 0.824758
vt 0.081380 0.819621
vt 0.082106 0.814108
vt 0.081380 0.808595
vt 0.079252 0.803458
vt 0.075867 0.799047
vt 0.071456 0.795662
vt 0.066319 0.793534
vt 0.060806 0.792808
vt 0.055293 0.793534
vt 0.050156 0.795662
vt 0.045744 0.799047
vt 0.042359 0.803458
vt 0.040231 0.808595
vt 0.039229 0.819890
vt 0.038468 0.814108
vt 0.041461 0.825277
vt 0.045011 0.829903
vt 0.049637 0.833453
vt 0.055024 0.835685
vt 0.060806 0.836446
vt 0.066587 0.835685
vt 0.071975 0.833453
vt 0.076601 0.829903
vt 0.080151 0.825277
vt 0.082382 0.819890
vt 0.083143 0.814108
vt 0.082382 0.808327
vt 0.080151 0.802939
vt 0.076601 0.798313
vt 0.071975 0.794763
vt 0.066587 0.792532
vt 0.060806 0.791771
vt 0.055024 0.792532
vt 0.049637 0.794763
vt 0.045011 0.798313
vt 0.041461 0.802939
vt 0.039229 0.808327
vt 0.027900 0.822976
vt 0.026736 0.814108
vt 0.031314 0.831240
vt 0.036743 0.838337
vt 0.043820 0.843782
vt 0.052060 0.847205
vt 0.060903 0.848372
vt 0.069746 0.847205
vt 0.077986 0.843782
vt 0.085062 0.838337
vt 0.090492 0.831240
vt 0.093906 0.822976
vt 0.095070 0.814108
vt 0.093906 0.805240
vt 0.090492 0.796976
vt 0.085062 0.789880
vt 0.077986 0.784435
vt 0.069746 0.781012
vt 0.060903 0.779844
vt 0.052060 0.781012
vt 0.043820 0.784435
vt 0.036743 0.789880
vt 0.031314 0.796976
vt 0.027900 0.805240
vn -0.112240 0.797456 0.592846
vn 0.022008 0.785502 0.618468
vn -0.114796 0.775457 0.620877
vn -0.108042 0.753633 0.648355
vn -0.092437 0.733475 0.673402
vn -0.069061 0.716368 0.694296
vn -0.039480 0.703464 0.709634
vn -0.005710 0.695646 0.718362
vn 0.029913 0.693446 0.719888
vn 0.064987 0.697018 0.714102
vn 0.097126 0.706119 0.701400
vn 0.124125 0.720126 0.682650
vn 0.144150 0.738083 0.659132
vn 0.155839 0.758760 0.632454
vn 0.158395 0.780765 0.604414
vn 0.151648 0.802582 0.576944
vn 0.136041 0.822738 0.551901
vn 0.112650 0.839855 0.530993
vn 0.083075 0.852758 0.515657
vn 0.049321 0.860574 0.506932
vn 0.013696 0.862772 0.505408
vn -0.021388 0.859200 0.511192
vn -0.053519 0.850101 0.523894
vn -0.080524 0.836096 0.542642
vn -0.100550 0.818140 0.566160
vn -0.286959 0.741198 0.606861
vn -0.281199 0.790796 0.543663
vn -0.271745 0.692011 0.668787
vn -0.236573 0.646583 0.725234
vn -0.183842 0.608019 0.772344
vn -0.117185 0.578928 0.806914
vn -0.041095 0.561310 0.826585
vn 0.039213 0.556354 0.830019
vn 0.118280 0.564404 0.816981
vn 0.190708 0.584916 0.788355
vn 0.251572 0.616476 0.746102
vn 0.296719 0.656957 0.693084
vn 0.323073 0.703576 0.632933
vn 0.328822 0.753176 0.569739
vn 0.313611 0.802355 0.507813
vn 0.278439 0.847785 0.451367
vn 0.225717 0.886358 0.404253
vn 0.159044 0.915443 0.369687
vn 0.082966 0.933063 0.350015
vn 0.002659 0.938017 0.346580
vn -0.076410 0.929968 0.359613
vn -0.148844 0.909459 0.388239
vn -0.209712 0.877892 0.430497
vn -0.254856 0.837418 0.483507
vn -0.705688 0.529181 0.471139
vn -0.692192 0.645308 0.323182
vn -0.670044 0.414013 0.616145
vn -0.587714 0.307645 0.748296
vn -0.464262 0.217354 0.858614
vn -0.308166 0.149245 0.939553
vn -0.130020 0.107991 0.985613
vn 0.058022 0.096394 0.993651
vn 0.243140 0.115253 0.963120
vn 0.412730 0.163262 0.896102
vn 0.555237 0.237163 0.797161
vn 0.660947 0.331923 0.673035
vn 0.722638 0.441092 0.532196
vn 0.736116 0.557220 0.384239
vn 0.700478 0.672381 0.239236
vn 0.618142 0.778739 0.107076
vn 0.494711 0.869052 -0.003239
vn 0.338604 0.937156 -0.084175
vn 0.160457 0.978414 -0.130226
vn -0.027579 0.990011 -0.138266
vn -0.212708 0.971157 -0.107746
vn -0.382299 0.923141 -0.040724
vn -0.524802 0.849232 0.058213
vn -0.630502 0.754467 0.182337
vn -0.975196 0.131813 0.177817
vn -0.956872 0.289582 -0.023200
vn -0.926771 -0.024648 0.374816
vn -0.814908 -0.169155 0.554356
vn -0.647213 -0.291843 0.704233
vn -0.435120 -0.384372 0.814204
vn -0.193095 -0.440422 0.876780
vn 0.062373 -0.456177 0.887701
vn 0.313886 -0.430556 0.846226
vn 0.544296 -0.365326 0.755168
vn 0.737899 -0.264916 0.620745
vn 0.881508 -0.136177 0.452106
vn 0.965326 0.012139 0.260765
vn 0.983649 0.169898 0.059750
vn 0.935223 0.326373 -0.137254
vn 0.823356 0.470869 -0.316808
vn 0.655665 0.593563 -0.466676
vn 0.443586 0.686084 -0.576645
vn 0.201554 0.742146 -0.639215
vn -0.053923 0.757901 -0.650137
vn -0.305434 0.732288 -0.608658
vn -0.535845 0.667050 -0.517604
vn -0.729447 0.566636 -0.383186
vn -0.873049 0.437896 -0.214551
vn -0.998000 -0.019403 0.060156
vn -0.979329 0.141354 -0.144684
vn -0.948659 -0.178834 0.260893
vn -0.834666 -0.326081 0.443851
vn -0.663796 -0.451104 0.596557
vn -0.447689 -0.545384 0.708612
vn -0.201067 -0.602498 0.772379
vn 0.059248 -0.618553 0.783506
vn 0.315529 -0.592457 0.741239
vn 0.550310 -0.525984 0.648459
vn 0.747592 -0.423662 0.511485
vn 0.893922 -0.292471 0.339654
vn 0.979329 -0.141353 0.144683
vn 0.998001 0.019401 -0.060152
vn 0.948661 0.178832 -0.260887
vn 0.834671 0.326080 -0.443843
vn 0.663796 0.451106 -0.596556
vn 0.447683 0.545389 -0.708612
vn 0.201071 0.602500 -0.772376
vn -0.059240 0.618555 -0.783505
vn -0.315532 0.592458 -0.741238
vn -0.550315 0.525982 -0.648457
vn -0.747593 0.423662 -0.511483
vn -0.893922 0.292473 -0.339653
f 3/3/3 2/2/2 1/1/1
f 4/4/4 2/2/2 3/3/3
f 5/5/5 2/2/2 4/4/4
f 6/6/6 2/2/2 5/5/5
f 7/7/7 2/2/2 6/6/6
f 8/8/8 2/2/2 7/7/7
f 9/9/9 2/2/2 8/8/8
f 10/10/10 2/2/2 9/9/9
f 11/11/11 2/2/2 10/10/10
f 12/12/12 2/2/2 11/11/11
f 13/13/13 2/2/2 12/12/12
f 14/14/14 2/2/2 13/13/13
f 15/15/15 2/2/2 14/14/14
f 16/16/16 2/2/2 15/15/15
f 17/17/17 2/2/2 16/16/16
f 18/18/18 2/2/2 17/17/17
f 19/19/19 2/2/2 18/18/18
f 20/20/20 2/2/2 19/19/19
f 21/21/21 2/2/2 20/20/20
f 22/22/22 2/2/2 21/21/21
f 23/23/23 2/2/2 22/22/22
f 24/24/24 2/2/2 23/23/23
f 25/25/25 2/2/2 24/24/24
f 1/1/1 2/2/2 25/25/25
f 26/26/26 3/3/3 1/1/1
f 1/1/1 27/27/27 26/26/26
f 28/28/28 4/4/4 3/3/3
f 3/3/3 26/26/26 28/28/28
f 29/29/29 5/5/5 4/4/4
f 4/4/4 28/28/28 29/29/29
f 30/30/30 6/6/6 5/5/5
f 5/5/5 29/29/29 30/30/30
f 31/31/31 7/7/7 6/6/6
f 6/6/6 30/30/30 31/31/31
f 32/32/32 8/8/8 7/7/7
f 7/7/7 31/31/31 32/32/32
f 33/33/33 9/9/9 8/8/8
f 8/8/8 32/32/32 33/33/33
f 34/34/34 10/10/10 9/9/9
f 9/9/9 33/33/33 34/34/34
f 35/35/35 11/11/11 10/10/10
f 10/10/10 34/34/34 35/35/35
f 36/36/36 12/12/12 11/11/11
f 11/11/11 35/35/35 36/36/36
f 37/37/37 13/13/13 12/12/12
f 12/12/12 36/36/36 37/37/37
f 38/38/38 14/14/14 13/13/13
f 13/13/13 37/37/37 38/38/38
f 39/39/39 15/15/15 14/14/14
f 14/14/14 38/38/38 39/39/39
f 40/40/40 16/16/16 15/15/15
f 15/15/15 39/39/39 40/40/40
f 41/41/41 17/17/17 16/16/16
f 16/16/16 40/40/40 41/41/41
f 42/42/42 18/18/18 17/17/17
f 17/17/17 41/41/41 42/42/42
f 43/43/43 19/19/19 18/18/18
f 18/18/18 42/42/42 43/43/43
f 44/44/44 20/20/20 19/19/19
f 19/19/19 43/43/43 44/44/44
f 45/45/45 21/21/21 20/20/20
f 20/20/20 44/44/44 45/45/45
f 46/46/46 22/22/22 21/21/21
f 21/21/21 45/45/45 46/46/46
f 47/47/47 23/23/23 22/22/22
f 22/22/22 46/46/46 47/47/47
f 48/48/48 24/24/24 23/23/23
f 23/23/23 47/47/47 48/48/48
f 49/49/49 25/25/25 24/24/24
f 24/24/24 48/48/48 49/49/49
f 27/27/27 1/1/1 25/25/25
f 25/25/25 49/49/49 27/27/27
f 50/50/50 26/26/26 27/27/27
f 27/27/27 51/51/51 50/50/50
f 52/52/52 28/28/28 26/26/26
f 26/26/26 50/50/50 52/52/52
f 53/53/53 29/29/29 28/28/28
f 28/28/28 52/52/52 53/53/53
f 54/54/54 30/30/30 29/29/29
f 29/29/29 53/53/53 54/54/54
f 55/55/55 31/31/31 30/30/30
f 30/30/30 54/54/54 55/55/55
f 56/56/56 32/32/32 31/31/31
f 31/31/31 55/55/55 56/56/56
f 57/57/57 33/33/33 32/32/32
f 32/32/32 56/56/56 57/57/57
f 58/58/58 34/34/34 33/33/33
f 33/33/33 57/57/57 58/58/58
f 59/59/59 35/35/35 34/34/34
f 34/34/34 58/58/58 59/59/59
f 60/60/60 36/36/36 35/35/35
f 35/35/35 59/59/59 60/60/60
f 61/61/61 37/37/37 36/36/36
f 36/36/36 60/60/60 61/61/61
f 62/62/62 38/38/38 37/37/37
f 37/37/37 61/61/61 62/62/62
f 63/63/63 39/39/39 38/38/38
f 38/38/38 62/62/62 63/63/63
f 64/64/64 40/40/40 39/39/39
f 39/39/39 63/63/63 64/64/64
f 65/65/65 41/41/41 40/40/40
f 40/40/40 64/64/64 65/65/65
f 66/66/66 42/42/42 41/41/41
f 41/41/41 65/65/65 66/66/66
f 67/67/67 43/43/43 42/42/42
f 42/42/42 66/66/66 67/67/67
f 68/68/68 44/44/44 43/43/43
f 43/43/43 67/67/67 68/68/68
f 69/69/69 45/45/45 44/44/44
f 44/44/44 68/68/68 69/69/69
f 70/70/70 46/46/46 45/45/45
f 45/45/45 69/69/69 70/70/70
f 71/71/71 47/47/47 46/46/46
f 46/46/46 70/70/70 71/71/71
f 72/72/72 48/48/48 47/47/47
f 47/47/47 71/71/71 72/72/72
f 73/73/73 49/49/49 48/48/48
f 48/48/48 72/72/72 73/73/73
f 51/51/51 27/27/27 49/49/49
f 49/49/49 73/73/73 51/51/51
f 74/74/74 50/50/50 51/51/51
f 51/51/51 75/75/75 74/74/74
f 76/76/76 52/52/52 50/50/50
f 50/50/50 74/74/74 76/76/76
f 77/77/77 53/53/53 52/52/52
f 52/52/52 76/76/76 77/77/77
f 78/78/78 54/54/54 53/53/53
f 53/53/53 77/77/77 78/78/78
f 79/79/79 55/55/55 54/54/54
f 54/54/54 78/78/78 79/79/79
f 80/80/80 56/56/56 55/55/55
f 55/55/55 79/79/79 80/80/80
f 81/81/81 57/57/57 56/56/56
f 56/56/56 80/80/80 81/81/81
f 82/82/82 58/58/58 57/57/57
f 57/57/57 81/81/81 82/82/82
f 83/83/83 59/59/59 58/58/58
f 58/58/58 82/82/82 83/83/83
f 84/84/84 60/60/60 59/59/59
f 59/59/59 83/83/83 84/84/84
f 85/85/85 61/61/61 60/60/60
f 60/60/60 84/84/84 85/85/85
f 86/86/86 62/62/62 61/61/61
f 61/61/61 85/85/85 86/86/86
f 87/87/87 63/63/63 62/62/62
f 62/62/62 86/86/86 87/87/87
f 88/88/88 64/64/64 63/63/63
f 63/63/63 87/87/87 88/88/88
f 89/89/89 65/65/65 64/64/64
f 64/64/64 88/88/88 89/89/89
f 90/90/90 66/66/66 65/65/65
f 65/65/65 89/89/89 90/90/90
f 91/91/91 67/67/67 66/66/66
f 66/66/66 90/90/90 91/91/91
f 92/92/92 68/68/68 67/67/67
f 67/67/67 91/91/91 92/92/92
f 93/93/93 69/69/69 68/68/68
f 68/68/68 92/92/92 93/93/93
f 94/94/94 70/70/70 69/69/69
f 69/69/69 93/93/93 94/94/94
f 95/95/95 71/71/71 70/70/70
f 70/70/70 94/94/94 95/95/95
f 96/96/96 72/72/72 71/71/71
f 71/71/71 95/95/95 96/96/96
f 97/97/97 73/73/73 72/72/72
f 72/72/72 96/96/96 97/97/97
f 75/75/75 51/51/51 73/73/73
f 73/73/73 97/97/97 75/75/75
f 98/98/98 74/74/74 75/75/75
f 75/75/75 99/99/99 98/98/98
f 100/100/100 76/76/76 74/74/74
f 74/74/74 98/98/98 100/100/100
f 101/101/101 77/77/77 76/76/76
f 76/76/76 100/100/100 101/101/101
f 102/102/102 78/78/78 77/77/77
f 77/77/77 101/101/101 102/102/102
f 103/103/103 79/79/79 78/78/78
f 78/78/78 102/102/102 103/103/103
f 104/104/104 80/80/80 79/79/79
f 79/79/79 103/103/103 104/104/104
f 105/105/105 81/81/81 80/80/80
f 80/80/80 104/104/104 105/105/105
f 106/106/106 82/82/82 81/81/81
f 81/81/81 105/105/105 106/106/106
f 107/107/107 83/83/83 82/82/82
f 82/82/82 106/106/106 107/107/107
f 108/108/108 84/84/84 83/83/83
f 83/83/83 107/107/107 108/108/108
f 109/109/109 85/85/85 84/84/84
f 84/84/84 108/108/108 109/109/109
f 110/110/110 86/86/86 85/85/85
f 85/85/85 109/109/109 110/110/110
f 111/111/111 87/87/87 86/86/86
f 86/86/86 110/110/110 111/111/111
f 112/112/112 88/88/88 87/87/87
f 87/87/87 111/111/111 112/112/112
f 113/113/113 89/89/89 88/88/88
f 88/88/88 112/112/112 113/113/113
f 114/114/114 90/90/90 89/89/89
f 89/89/89 113/113/113 114/114/114
f 115/115/115 91/91/91 90/90/90
f 90/90/90 114/114/114 115/115/115
f 116/116/116 92/92/92 91/91/91
f 91/91/91 115/115/115 116/116/116
f 117/117/117 93/93/93 92/92/92
f 92/92/92 116/116/116 117/117/117
f 118/118/118 94/94/94 93/93/93
f 93/93/93 117/117/117 118/118/118
f 119/119/119 95/95/95 94/94/94
f 94/94/94 118/118/118 119/119/119
f 120/120/120 96/96/96 95/95/95
f 95/95/95 119/119/119 120/120/120
f 121/121/121 97/97/97 96/96/96
f 96/96/96 120/120/120 121/121/121
f 99/99/99 75/75/75 97/97/97
f 97/97/97 121/121/121 99/99/99
