# GloomhavenVR - valve-index left 'touchpad' (glTF material 0)
# generated by controllers_pipeline.py from webxr-input-profiles (MIT)
o index_left_touchpad__m0
v 0.002243 0.006854 0.040565
v 0.002104 0.007273 0.040033
v 0.004133 0.006978 0.040546
v 0.002398 0.006270 0.041042
v 0.004060 0.006406 0.040979
v 0.004113 0.007406 0.040010
v 0.011898 0.003884 0.045599
v 0.011187 0.003677 0.045720
v 0.011895 0.003892 0.045589
v 0.010471 0.003240 0.045768
v 0.011666 -0.000426 0.050581
v 0.012473 -0.000050 0.050668
v 0.013193 0.000111 0.050608
v 0.010844 0.004399 0.044712
v 0.011536 0.004615 0.044575
v 0.010354 0.004979 0.043857
v 0.010911 0.005356 0.043483
v 0.009454 0.005693 0.042786
v 0.009621 0.006210 0.042147
v 0.008893 0.005999 0.042317
v 0.008005 0.006869 0.041081
v 0.007723 0.006475 0.041552
v 0.006134 0.007279 0.040350
v 0.006065 0.006842 0.040890
v 0.005481 0.006340 0.041185
v 0.006283 0.006215 0.041429
v 0.007306 0.005956 0.041874
v 0.008231 0.005590 0.042445
v 0.009027 0.005130 0.043134
v 0.009670 0.004586 0.043917
v 0.010187 0.003980 0.044765
v 0.002398 0.006270 0.041042
v 0.004060 0.006406 0.040979
v 0.003800 0.005109 0.041858
v 0.002719 0.004969 0.041946
v 0.005287 0.005178 0.041961
v 0.005481 0.006340 0.041185
v 0.006283 0.006215 0.041429
v 0.006359 0.005148 0.042192
v 0.007306 0.005956 0.041874
v 0.007364 0.004947 0.042624
v 0.008231 0.005590 0.042445
v 0.008166 0.004733 0.043135
v 0.009027 0.005130 0.043134
v 0.008868 0.004341 0.043743
v 0.009670 0.004586 0.043917
v 0.009306 0.003880 0.044344
v 0.010187 0.003980 0.044765
v 0.009521 0.003541 0.044811
v 0.009767 0.002826 0.045743
v 0.010471 0.003240 0.045768
v 0.011025 -0.000860 0.050351
v 0.011666 -0.000426 0.050581
v 0.008031 -0.010167 0.063062
v 0.007892 -0.009773 0.062512
v 0.009679 -0.009303 0.062034
v 0.007747 -0.009476 0.061816
v 0.009341 -0.009098 0.061432
v 0.009930 -0.009672 0.062556
v 0.013765 -0.003896 0.055621
v 0.014500 -0.003762 0.055597
v 0.014503 -0.003769 0.055607
v 0.012973 -0.004102 0.055418
v 0.013932 -0.004670 0.056603
v 0.014663 -0.004566 0.056617
v 0.013903 -0.005507 0.057634
v 0.014606 -0.005493 0.057744
v 0.013570 -0.006394 0.058657
v 0.014041 -0.006767 0.059239
v 0.013741 -0.005924 0.058131
v 0.013269 -0.006848 0.059234
v 0.013046 -0.007929 0.060596
v 0.012546 -0.007683 0.060214
v 0.011652 -0.008920 0.061727
v 0.011316 -0.008572 0.061224
v 0.010568 -0.008592 0.060878
v 0.011199 -0.008216 0.060455
v 0.011938 -0.007644 0.059794
v 0.012523 -0.007012 0.059037
v 0.012929 -0.006330 0.058206
v 0.013175 -0.005686 0.057339
v 0.013223 -0.004860 0.056365
v 0.008676 -0.008724 0.060095
v 0.009341 -0.009098 0.061432
v 0.007747 -0.009476 0.061816
v 0.007451 -0.008966 0.060312
v 0.009871 -0.008279 0.059691
v 0.010568 -0.008592 0.060878
v 0.011199 -0.008216 0.060455
v 0.010777 -0.007822 0.059275
v 0.011938 -0.007644 0.059794
v 0.011538 -0.007271 0.058721
v 0.012152 -0.006629 0.058062
v 0.012523 -0.007012 0.059037
v 0.012929 -0.006330 0.058206
v 0.012513 -0.006032 0.057375
v 0.013175 -0.005686 0.057339
v 0.012549 -0.005619 0.056833
v 0.013223 -0.004860 0.056365
v 0.012536 -0.005138 0.056156
v 0.012224 -0.004344 0.055126
v 0.012973 -0.004102 0.055418
v 0.002719 0.004969 0.041946
v 0.003800 0.005109 0.041858
v 0.003902 0.004342 0.042464
v 0.002917 0.004214 0.042544
v 0.005287 0.005178 0.041961
v 0.005257 0.004407 0.042560
v 0.006359 0.005148 0.042192
v 0.006235 0.004383 0.042772
v 0.007364 0.004947 0.042624
v 0.007151 0.004204 0.043168
v 0.008166 0.004733 0.043135
v 0.007882 0.004014 0.043637
v 0.008868 0.004341 0.043743
v 0.008921 0.003248 0.044747
v 0.009306 0.003880 0.044344
v 0.009521 0.003541 0.044811
v 0.009267 0.002496 0.045757
v 0.009767 0.002826 0.045743
v 0.011025 -0.000860 0.050351
v 0.010499 -0.001061 0.050310
v 0.008676 -0.008724 0.060095
v 0.007451 -0.008966 0.060312
v 0.007228 -0.008385 0.059370
v 0.008449 -0.008142 0.059163
v 0.009871 -0.008279 0.059691
v 0.009631 -0.007706 0.058793
v 0.010777 -0.007822 0.059275
v 0.010225 -0.006801 0.057522
v 0.011538 -0.007271 0.058721
v 0.011322 -0.006246 0.057053
v 0.012152 -0.006629 0.058062
v 0.011369 -0.005550 0.056128
v 0.012549 -0.005619 0.056833
v 0.012513 -0.006032 0.057375
v 0.012536 -0.005138 0.056156
v 0.011134 -0.004664 0.055066
v 0.012224 -0.004344 0.055126
v 0.003354 0.002824 0.044137
v 0.005334 0.003178 0.043987
v 0.007376 0.002693 0.044891
v 0.007770 0.001796 0.046090
v 0.009021 -0.001416 0.050399
v 0.008581 -0.005347 0.055295
v 0.009016 -0.006421 0.056774
v 0.006736 -0.007031 0.057359
v 0.006289 -0.005733 0.055616
v 0.010021 -0.004988 0.055145
v 0.010186 -0.005927 0.056419
v 0.006924 -0.001870 0.050570
v 0.005664 0.000783 0.047089
v 0.004262 0.000228 0.047733
v 0.005064 -0.002155 0.050830
v 0.000484 0.006452 0.041086
v 0.000832 0.005940 0.041456
v 0.000233 0.006846 0.040583
v -0.003613 0.001541 0.047907
v -0.004357 0.001539 0.048001
v -0.004359 0.001546 0.047990
v -0.002821 0.001322 0.047732
v -0.001539 -0.002331 0.052532
v -0.002359 -0.002191 0.052860
v -0.003082 -0.002238 0.053013
v -0.003783 0.002288 0.046874
v -0.004518 0.002299 0.046947
v -0.003737 0.002946 0.045939
v -0.004458 0.003139 0.045754
v -0.003411 0.003836 0.044687
v -0.003889 0.004261 0.044144
v -0.003113 0.004266 0.044091
v -0.002889 0.005297 0.042691
v -0.002388 0.005016 0.043046
v -0.001492 0.006178 0.041477
v -0.001155 0.005800 0.041957
v -0.000396 0.005492 0.042054
v -0.001028 0.005160 0.042510
v -0.001770 0.004647 0.043215
v -0.002356 0.004062 0.044009
v -0.002764 0.003428 0.044876
v -0.002982 0.002761 0.045787
v -0.003049 0.002070 0.046721
v 0.000832 0.005940 0.041456
v 0.001679 0.004803 0.042172
v 0.000324 0.004462 0.042695
v -0.000396 0.005492 0.042054
v -0.001028 0.005160 0.042510
v -0.000587 0.004146 0.043219
v -0.001770 0.004647 0.043215
v -0.001331 0.003692 0.043909
v -0.002356 0.004062 0.044009
v -0.001863 0.003285 0.044617
v -0.002764 0.003428 0.044876
v -0.002227 0.002740 0.045382
v -0.002982 0.002761 0.045787
v -0.002332 0.002201 0.046064
v -0.003049 0.002070 0.046721
v -0.002302 0.001835 0.046558
v -0.002066 0.001118 0.047492
v -0.002821 0.001322 0.047732
v -0.000895 -0.002580 0.052112
v -0.001539 -0.002331 0.052532
v 0.005989 -0.009836 0.062580
v 0.006072 -0.009570 0.061915
v 0.006008 -0.010238 0.063136
v -0.001796 -0.006113 0.058005
v -0.001077 -0.006038 0.057814
v -0.001793 -0.006121 0.058015
v -0.000350 -0.006024 0.057386
v -0.000737 -0.006786 0.058771
v -0.001433 -0.006889 0.058995
v -0.000187 -0.007540 0.059716
v -0.000805 -0.007717 0.060021
v 0.000654 -0.008258 0.060565
v 0.000489 -0.008722 0.061241
v 0.000218 -0.007875 0.060129
v 0.001220 -0.008586 0.061015
v 0.002110 -0.009507 0.062212
v 0.002393 -0.009148 0.061715
v 0.003985 -0.010026 0.062860
v 0.004054 -0.009620 0.062297
v 0.004649 -0.009446 0.061752
v 0.003845 -0.009277 0.061541
v 0.002821 -0.008960 0.061142
v 0.001894 -0.008545 0.060607
v 0.001096 -0.008037 0.059954
v 0.000447 -0.007522 0.059220
v -0.000101 -0.006782 0.058334
v 0.006072 -0.009570 0.061915
v 0.006200 -0.009081 0.060461
v 0.004866 -0.009002 0.060431
v 0.004649 -0.009446 0.061752
v 0.003845 -0.009277 0.061541
v 0.003789 -0.008830 0.060307
v 0.002821 -0.008960 0.061142
v 0.002781 -0.008534 0.060015
v 0.001852 -0.008115 0.059584
v 0.001894 -0.008545 0.060607
v 0.001096 -0.008037 0.059954
v 0.001161 -0.007670 0.059053
v 0.000447 -0.007522 0.059220
v 0.000860 -0.007306 0.058560
v -0.000101 -0.006782 0.058334
v 0.000547 -0.006868 0.057927
v 0.000322 -0.006061 0.056885
v -0.000350 -0.006024 0.057386
v 0.001679 0.004803 0.042172
v 0.001970 0.004063 0.042750
v 0.000324 0.004462 0.042695
v 0.000734 0.003754 0.043228
v -0.000587 0.004146 0.043219
v -0.000097 0.003470 0.043707
v -0.001331 0.003692 0.043909
v -0.000775 0.003060 0.044340
v -0.001863 0.003285 0.044617
v -0.001261 0.002695 0.044988
v -0.002227 0.002740 0.045382
v -0.001689 0.001717 0.046315
v -0.002332 0.002201 0.046064
v -0.002302 0.001835 0.046558
v -0.001512 0.000940 0.047350
v -0.002066 0.001118 0.047492
v -0.000895 -0.002580 0.052112
v -0.000368 -0.002629 0.051915
v 0.006200 -0.009081 0.060461
v 0.005983 -0.008498 0.059527
v 0.004866 -0.009002 0.060431
v 0.004672 -0.008422 0.059525
v 0.003789 -0.008830 0.060307
v 0.003516 -0.007769 0.058513
v 0.002781 -0.008534 0.060015
v 0.002223 -0.007559 0.058398
v 0.001852 -0.008115 0.059584
v 0.001161 -0.007670 0.059053
v 0.000860 -0.007306 0.058560
v 0.001725 -0.006941 0.057553
v 0.000547 -0.006868 0.057927
v 0.001394 -0.006069 0.056505
v 0.000322 -0.006061 0.056885
v 0.001409 0.002612 0.044567
v -0.000076 0.001617 0.045992
v 0.000151 0.000696 0.047216
v 0.001112 -0.002557 0.051568
v 0.004309 -0.007101 0.057470
v 0.003992 -0.006009 0.055973
v 0.002528 -0.006069 0.056252
v 0.002998 -0.006965 0.057481
v 0.003212 -0.002405 0.051119
v 0.002648 0.000348 0.047535
vt 0.948687 0.580512
vt 0.948687 0.583400
vt 0.941258 0.579288
vt 0.948688 0.577390
vt 0.942111 0.576536
vt 0.940788 0.582115
vt 0.915703 0.548557
vt 0.918651 0.548252
vt 0.915703 0.548611
vt 0.921708 0.547641
vt 0.921886 0.521837
vt 0.918585 0.521773
vt 0.915662 0.521755
vt 0.919002 0.553622
vt 0.916109 0.554020
vt 0.920088 0.558272
vt 0.917498 0.559954
vt 0.922573 0.564297
vt 0.921266 0.567523
vt 0.924315 0.567062
vt 0.926571 0.574005
vt 0.928158 0.571729
vt 0.933196 0.578986
vt 0.934017 0.576199
vt 0.936740 0.574500
vt 0.933832 0.572717
vt 0.930255 0.569762
vt 0.927193 0.566209
vt 0.924751 0.562146
vt 0.923004 0.557699
vt 0.921821 0.552991
vt 0.948688 0.577390
vt 0.942111 0.576536
vt 0.944355 0.570712
vt 0.948687 0.570992
vt 0.938593 0.569290
vt 0.936740 0.574500
vt 0.933832 0.572717
vt 0.934573 0.567553
vt 0.930255 0.569762
vt 0.931027 0.564791
vt 0.927193 0.566209
vt 0.928322 0.561907
vt 0.924751 0.562146
vt 0.926163 0.558359
vt 0.923004 0.557699
vt 0.925060 0.554887
vt 0.921821 0.552991
vt 0.924686 0.552338
vt 0.924666 0.547316
vt 0.921708 0.547641
vt 0.924490 0.522092
vt 0.921886 0.521837
vt 0.948659 0.459994
vt 0.948659 0.462885
vt 0.941173 0.464103
vt 0.948659 0.466033
vt 0.942025 0.466883
vt 0.940703 0.461274
vt 0.918566 0.494988
vt 0.915618 0.494776
vt 0.915618 0.494722
vt 0.921645 0.495833
vt 0.918916 0.489726
vt 0.916024 0.489318
vt 0.920090 0.484312
vt 0.917412 0.483391
vt 0.922472 0.479061
vt 0.921181 0.475836
vt 0.921240 0.481795
vt 0.924229 0.476304
vt 0.926485 0.469366
vt 0.928072 0.471645
vt 0.933111 0.464395
vt 0.933931 0.467185
vt 0.936655 0.468913
vt 0.933747 0.470692
vt 0.930170 0.473642
vt 0.927108 0.477190
vt 0.924666 0.481249
vt 0.922853 0.485472
vt 0.921643 0.490654
vt 0.943633 0.472778
vt 0.942025 0.466883
vt 0.948659 0.466033
vt 0.948659 0.472503
vt 0.938508 0.474189
vt 0.936655 0.468913
vt 0.933747 0.470692
vt 0.934488 0.475913
vt 0.930170 0.473642
vt 0.930901 0.478442
vt 0.927773 0.481659
vt 0.927108 0.477190
vt 0.924666 0.481249
vt 0.925641 0.485073
vt 0.922853 0.485472
vt 0.924958 0.487840
vt 0.921643 0.490654
vt 0.924349 0.491256
vt 0.924527 0.496846
vt 0.921645 0.495833
vt 0.948687 0.570992
vt 0.944355 0.570712
vt 0.944738 0.566768
vt 0.948685 0.567022
vt 0.938593 0.569290
vt 0.939485 0.565473
vt 0.934573 0.567553
vt 0.935819 0.563893
vt 0.931027 0.564791
vt 0.932586 0.561376
vt 0.928322 0.561907
vt 0.930120 0.558751
vt 0.926163 0.558359
vt 0.927146 0.552350
vt 0.925060 0.554887
vt 0.924686 0.552338
vt 0.926804 0.546895
vt 0.924666 0.547316
vt 0.924490 0.522092
vt 0.926625 0.522187
vt 0.943633 0.472778
vt 0.948659 0.472503
vt 0.948660 0.477216
vt 0.943655 0.477466
vt 0.938508 0.474189
vt 0.938602 0.478752
vt 0.934488 0.475913
vt 0.935052 0.484654
vt 0.930901 0.478442
vt 0.930208 0.486625
vt 0.927773 0.481659
vt 0.929104 0.491334
vt 0.924958 0.487840
vt 0.925641 0.485073
vt 0.924349 0.491256
vt 0.928911 0.497190
vt 0.924527 0.496846
vt 0.948679 0.558019
vt 0.940697 0.557712
vt 0.933545 0.551831
vt 0.933209 0.545359
vt 0.932622 0.522273
vt 0.939351 0.496924
vt 0.939111 0.489064
vt 0.948656 0.487565
vt 0.948663 0.496851
vt 0.933465 0.497081
vt 0.934081 0.490450
vt 0.941130 0.522371
vt 0.942541 0.541369
vt 0.948674 0.539070
vt 0.948669 0.522381
vt 0.956050 0.579288
vt 0.955197 0.576536
vt 0.956519 0.582115
vt 0.978657 0.548252
vt 0.981605 0.548557
vt 0.981605 0.548611
vt 0.975600 0.547641
vt 0.975422 0.521837
vt 0.978723 0.521773
vt 0.981646 0.521755
vt 0.978306 0.553622
vt 0.981199 0.554020
vt 0.977220 0.558272
vt 0.979810 0.559954
vt 0.974735 0.564297
vt 0.976042 0.567523
vt 0.972993 0.567062
vt 0.970737 0.574005
vt 0.969150 0.571729
vt 0.964112 0.578986
vt 0.963291 0.576199
vt 0.960568 0.574500
vt 0.963476 0.572717
vt 0.967053 0.569762
vt 0.970115 0.566209
vt 0.972557 0.562146
vt 0.974304 0.557699
vt 0.975487 0.552991
vt 0.955197 0.576536
vt 0.952953 0.570712
vt 0.958715 0.569290
vt 0.960568 0.574500
vt 0.963476 0.572717
vt 0.962735 0.567553
vt 0.967053 0.569762
vt 0.966280 0.564791
vt 0.970115 0.566209
vt 0.968986 0.561907
vt 0.972557 0.562146
vt 0.971145 0.558359
vt 0.974304 0.557699
vt 0.972247 0.554887
vt 0.975487 0.552991
vt 0.972622 0.552338
vt 0.972642 0.547316
vt 0.975600 0.547641
vt 0.972818 0.522092
vt 0.975422 0.521837
vt 0.956135 0.464103
vt 0.955282 0.466883
vt 0.956605 0.461274
vt 0.981690 0.494776
vt 0.978742 0.494988
vt 0.981690 0.494722
vt 0.975663 0.495833
vt 0.978392 0.489726
vt 0.981284 0.489318
vt 0.977218 0.484312
vt 0.979895 0.483391
vt 0.974836 0.479061
vt 0.976127 0.475836
vt 0.976067 0.481795
vt 0.973079 0.476304
vt 0.970822 0.469366
vt 0.969236 0.471645
vt 0.964197 0.464395
vt 0.963377 0.467185
vt 0.960653 0.468913
vt 0.963561 0.470692
vt 0.967138 0.473642
vt 0.970200 0.477190
vt 0.972642 0.481249
vt 0.974455 0.485472
vt 0.975665 0.490654
vt 0.955282 0.466883
vt 0.953675 0.472778
vt 0.958800 0.474189
vt 0.960653 0.468913
vt 0.963561 0.470692
vt 0.962820 0.475913
vt 0.967138 0.473642
vt 0.966407 0.478442
vt 0.969535 0.481659
vt 0.970200 0.477190
vt 0.972642 0.481249
vt 0.971667 0.485073
vt 0.974455 0.485472
vt 0.972350 0.487840
vt 0.975665 0.490654
vt 0.972959 0.491256
vt 0.972781 0.496846
vt 0.975663 0.495833
vt 0.952953 0.570712
vt 0.952570 0.566768
vt 0.958715 0.569290
vt 0.957823 0.565473
vt 0.962735 0.567553
vt 0.961489 0.563893
vt 0.966280 0.564791
vt 0.964722 0.561376
vt 0.968986 0.561907
vt 0.967188 0.558751
vt 0.971145 0.558359
vt 0.970162 0.552350
vt 0.972247 0.554887
vt 0.972622 0.552338
vt 0.970503 0.546895
vt 0.972642 0.547316
vt 0.972818 0.522092
vt 0.970683 0.522187
vt 0.953675 0.472778
vt 0.953652 0.477466
vt 0.958800 0.474189
vt 0.958706 0.478752
vt 0.962820 0.475913
vt 0.962256 0.484654
vt 0.966407 0.478442
vt 0.967100 0.486625
vt 0.969535 0.481659
vt 0.971667 0.485073
vt 0.972350 0.487840
vt 0.968204 0.491334
vt 0.972959 0.491256
vt 0.968397 0.497190
vt 0.972781 0.496846
vt 0.956611 0.557712
vt 0.963763 0.551831
vt 0.964099 0.545359
vt 0.964686 0.522273
vt 0.958197 0.489064
vt 0.957957 0.496924
vt 0.963843 0.497081
vt 0.963227 0.490450
vt 0.956178 0.522371
vt 0.954767 0.541369
vn -0.001325 0.720537 0.693416
vn -0.021067 0.783126 0.621506
vn -0.054421 0.704962 0.707154
vn 0.023887 0.630706 0.775654
vn -0.051213 0.606058 0.793770
vn -0.049682 0.780596 0.623058
vn -0.123689 0.781983 0.610904
vn -0.251544 0.742685 0.620600
vn -0.125723 0.785926 0.605404
vn -0.379107 0.689058 0.617638
vn -0.382100 0.683525 0.621927
vn -0.254958 0.734919 0.628403
vn -0.121474 0.772971 0.622703
vn -0.241401 0.738138 0.629982
vn -0.125771 0.785858 0.605482
vn -0.218539 0.733146 0.644002
vn -0.118697 0.783228 0.610299
vn -0.185756 0.724522 0.663749
vn -0.092580 0.785291 0.612166
vn -0.164736 0.717792 0.676489
vn -0.074720 0.785478 0.614363
vn -0.134175 0.714850 0.686285
vn -0.063447 0.780815 0.621533
vn -0.100498 0.704622 0.702430
vn -0.111355 0.600853 0.791565
vn -0.164481 0.611078 0.774293
vn -0.192749 0.624518 0.756852
vn -0.239961 0.630004 0.738589
vn -0.278681 0.648739 0.708149
vn -0.323162 0.658018 0.680132
vn -0.370130 0.666262 0.647378
vn 0.023970 0.630401 0.775900
vn -0.051363 0.605776 0.793976
vn -0.049333 0.615388 0.786679
vn 0.025521 0.624720 0.780432
vn -0.116606 0.612163 0.782087
vn -0.111392 0.600616 0.791740
vn -0.164511 0.610813 0.774496
vn -0.176289 0.612917 0.770231
vn -0.192997 0.624230 0.757026
vn -0.244624 0.618520 0.746721
vn -0.240302 0.629814 0.738640
vn -0.291312 0.622133 0.726697
vn -0.278687 0.648611 0.708263
vn -0.290672 0.633201 0.717332
vn -0.323396 0.657722 0.680306
vn -0.329605 0.641522 0.692683
vn -0.370197 0.666179 0.647425
vn -0.395037 0.659524 0.639510
vn -0.415371 0.662294 0.623565
vn -0.379299 0.688870 0.617731
vn -0.318845 0.715641 0.621446
vn -0.383341 0.683051 0.621683
vn -0.029784 0.808458 0.587799
vn -0.049102 0.860234 0.507530
vn -0.105612 0.855564 0.506811
vn -0.073034 0.914342 0.398301
vn -0.153187 0.905848 0.394936
vn -0.057021 0.802377 0.594088
vn -0.236222 0.737599 0.632572
vn -0.120478 0.769382 0.627324
vn -0.120413 0.769656 0.627001
vn -0.342517 0.695327 0.631825
vn -0.252369 0.746091 0.616164
vn -0.119186 0.770747 0.625895
vn -0.249966 0.767191 0.590707
vn -0.113133 0.772134 0.625308
vn -0.202670 0.792627 0.575037
vn -0.102728 0.791340 0.602684
vn -0.226999 0.776247 0.588142
vn -0.190193 0.809922 0.554845
vn -0.076221 0.789912 0.608464
vn -0.170181 0.820492 0.545740
vn -0.069208 0.797755 0.598997
vn -0.146706 0.840189 0.522073
vn -0.209220 0.887938 0.409626
vn -0.250225 0.862604 0.439662
vn -0.267557 0.843980 0.464878
vn -0.303944 0.817673 0.488906
vn -0.319543 0.793085 0.518563
vn -0.387065 0.748184 0.538888
vn -0.379594 0.699960 0.604950
vn -0.096477 0.835138 0.541514
vn -0.153357 0.905992 0.394538
vn -0.073085 0.914505 0.397919
vn -0.043660 0.846338 0.530853
vn -0.137716 0.820718 0.554488
vn -0.209451 0.888004 0.409364
vn -0.250437 0.862626 0.439496
vn -0.166651 0.823086 0.542916
vn -0.267868 0.844115 0.464453
vn -0.216090 0.816948 0.534697
vn -0.278582 0.799629 0.531964
vn -0.304354 0.817698 0.488610
vn -0.320024 0.793049 0.518323
vn -0.290399 0.780530 0.553572
vn -0.386932 0.748272 0.538863
vn -0.291112 0.772857 0.563867
vn -0.380061 0.699793 0.604850
vn -0.279577 0.749129 0.600536
vn -0.256790 0.733493 0.629323
vn -0.343136 0.695094 0.631745
vn 0.025454 0.624962 0.780240
vn -0.049378 0.615582 0.786525
vn -0.059153 0.682182 0.728785
vn 0.008003 0.688936 0.724778
vn -0.116570 0.612389 0.781915
vn -0.111310 0.681119 0.723662
vn -0.176125 0.613181 0.770058
vn -0.159083 0.678677 0.717001
vn -0.244495 0.618625 0.746676
vn -0.213637 0.677202 0.704100
vn -0.291361 0.622218 0.726604
vn -0.261072 0.667159 0.697668
vn -0.290372 0.633337 0.717334
vn -0.292050 0.692290 0.659880
vn -0.329329 0.641651 0.692695
vn -0.395058 0.659478 0.639546
vn -0.314089 0.709889 0.630402
vn -0.415291 0.662347 0.623563
vn -0.317249 0.716300 0.621504
vn -0.239621 0.743898 0.623857
vn -0.095978 0.834546 0.542513
vn -0.043420 0.845727 0.531846
vn -0.039342 0.834997 0.548846
vn -0.095274 0.825470 0.556347
vn -0.137118 0.820002 0.555694
vn -0.129878 0.824053 0.551423
vn -0.165790 0.822730 0.543718
vn -0.136952 0.812474 0.566683
vn -0.215376 0.816717 0.535338
vn -0.211812 0.794297 0.569411
vn -0.278092 0.799653 0.532184
vn -0.204879 0.767162 0.607855
vn -0.290480 0.773109 0.563848
vn -0.289927 0.780538 0.553808
vn -0.278496 0.749417 0.600678
vn -0.212153 0.744730 0.632746
vn -0.255647 0.733803 0.629426
vn -0.019602 0.779197 0.626473
vn -0.099228 0.762519 0.639311
vn -0.149061 0.754080 0.639643
vn -0.150818 0.767983 0.622460
vn -0.137183 0.774265 0.617815
vn -0.091867 0.788752 0.607808
vn -0.099981 0.800492 0.590945
vn -0.031566 0.813500 0.580707
vn -0.026436 0.798838 0.600965
vn -0.146229 0.773367 0.616863
vn -0.129549 0.785643 0.604965
vn -0.075770 0.786614 0.612778
vn -0.063435 0.788831 0.611328
vn -0.025762 0.796887 0.603579
vn -0.024614 0.793481 0.608097
vn 0.055451 0.720810 0.690912
vn 0.104510 0.628582 0.770689
vn 0.006247 0.788681 0.614770
vn 0.201304 0.808030 0.553682
vn 0.070382 0.809818 0.582444
vn 0.069590 0.814134 0.576492
vn 0.332428 0.791732 0.512497
vn 0.337921 0.787424 0.515531
vn 0.208797 0.801838 0.559875
vn 0.074092 0.801190 0.593805
vn 0.195911 0.801240 0.565361
vn 0.069597 0.814047 0.576614
vn 0.180274 0.790693 0.585070
vn 0.065188 0.809763 0.583125
vn 0.158158 0.774147 0.612929
vn 0.041162 0.804590 0.592402
vn 0.144327 0.762390 0.630818
vn 0.025336 0.799919 0.599572
vn 0.119858 0.751510 0.648743
vn 0.018297 0.792616 0.609447
vn 0.096336 0.733035 0.673334
vn 0.160293 0.640062 0.751416
vn 0.201348 0.663881 0.720223
vn 0.218639 0.683884 0.696060
vn 0.255303 0.701470 0.665402
vn 0.277041 0.728928 0.626029
vn 0.307366 0.749003 0.586959
vn 0.338921 0.768581 0.542601
vn 0.104635 0.628365 0.770850
vn 0.098248 0.636583 0.764924
vn 0.159286 0.651925 0.741365
vn 0.160450 0.639932 0.751494
vn 0.201543 0.663637 0.720393
vn 0.210439 0.668680 0.713149
vn 0.218995 0.683614 0.696214
vn 0.265121 0.692048 0.671402
vn 0.255583 0.701387 0.665383
vn 0.301246 0.707738 0.639028
vn 0.277266 0.728707 0.626186
vn 0.294903 0.717761 0.630754
vn 0.307716 0.748850 0.586971
vn 0.321305 0.735518 0.596470
vn 0.339097 0.768553 0.542530
vn 0.361386 0.768724 0.527696
vn 0.374754 0.776324 0.506834
vn 0.332779 0.791593 0.512483
vn 0.270816 0.800730 0.534312
vn 0.339228 0.787117 0.515142
vn 0.003841 0.871358 0.490632
vn 0.001913 0.928220 0.372026
vn -0.001326 0.810414 0.585855
vn 0.075507 0.797436 0.598661
vn 0.192037 0.799395 0.569288
vn 0.075251 0.797951 0.598006
vn 0.301118 0.788204 0.536715
vn 0.199864 0.811346 0.549338
vn 0.073524 0.798554 0.597415
vn 0.184596 0.829901 0.526487
vn 0.067403 0.798186 0.598628
vn 0.129689 0.840585 0.525925
vn 0.046125 0.812824 0.580680
vn 0.160271 0.832126 0.530923
vn 0.107724 0.852913 0.510818
vn 0.023815 0.804348 0.593681
vn 0.083843 0.857148 0.508201
vn 0.012523 0.809553 0.586913
vn 0.050131 0.868596 0.492978
vn 0.062437 0.927140 0.369476
vn 0.115616 0.915396 0.385594
vn 0.143839 0.903343 0.404082
vn 0.191328 0.889140 0.415721
vn 0.220866 0.871063 0.438710
vn 0.301048 0.847479 0.437206
vn 0.326260 0.801813 0.500651
vn 0.001902 0.928319 0.371780
vn 0.010938 0.850556 0.525771
vn 0.056511 0.848601 0.526007
vn 0.062553 0.927196 0.369316
vn 0.115615 0.915528 0.385281
vn 0.078997 0.858460 0.506761
vn 0.143997 0.903481 0.403717
vn 0.123886 0.866011 0.484435
vn 0.185236 0.866711 0.463142
vn 0.191602 0.889274 0.415308
vn 0.221110 0.871236 0.438245
vn 0.207479 0.852457 0.479865
vn 0.300993 0.847498 0.437207
vn 0.213182 0.845552 0.489485
vn 0.326647 0.801702 0.500576
vn 0.219530 0.821076 0.526915
vn 0.211134 0.800921 0.560311
vn 0.301873 0.788132 0.536397
vn 0.098197 0.636889 0.764676
vn 0.072361 0.701150 0.709332
vn 0.159167 0.652177 0.741169
vn 0.118803 0.714324 0.689657
vn 0.210262 0.668938 0.712960
vn 0.161445 0.724928 0.669638
vn 0.264908 0.692127 0.671404
vn 0.208289 0.738083 0.641754
vn 0.301253 0.707732 0.639033
vn 0.252800 0.741312 0.621730
vn 0.294640 0.717756 0.630884
vn 0.263576 0.772467 0.577774
vn 0.321118 0.735515 0.596574
vn 0.361472 0.768646 0.527752
vn 0.270591 0.794254 0.544005
vn 0.374735 0.776344 0.506817
vn 0.269214 0.800921 0.534836
vn 0.190957 0.806027 0.560228
vn 0.010947 0.849976 0.526708
vn 0.016733 0.841628 0.539798
vn 0.056445 0.847934 0.527088
vn 0.047464 0.849645 0.525215
vn 0.078617 0.858000 0.507598
vn 0.061485 0.841110 0.537358
vn 0.123439 0.865609 0.485268
vn 0.136030 0.844489 0.518010
vn 0.184855 0.866456 0.463770
vn 0.207144 0.852261 0.480357
vn 0.212554 0.845695 0.489511
vn 0.148071 0.818092 0.555698
vn 0.218537 0.821144 0.527223
vn 0.168007 0.799588 0.576569
vn 0.210029 0.801000 0.560612
vn 0.061448 0.785678 0.615576
vn 0.109449 0.791384 0.601442
vn 0.102344 0.804512 0.585053
vn 0.086767 0.806581 0.584721
vn 0.037744 0.820365 0.570593
vn 0.038339 0.807542 0.588563
vn 0.095053 0.808183 0.581209
vn 0.072967 0.814863 0.575043
vn 0.025557 0.801235 0.597803
vn 0.013236 0.799907 0.599978
f 3/3/3 2/2/2 1/1/1
f 3/3/3 1/1/1 4/4/4
f 3/3/3 4/4/4 5/5/5
f 2/2/2 3/3/3 6/6/6
f 9/9/9 8/8/8 7/7/7
f 11/11/11 8/8/8 10/10/10
f 12/12/12 8/8/8 11/11/11
f 12/12/12 13/13/13 7/7/7
f 8/8/8 12/12/12 7/7/7
f 15/15/15 14/14/14 9/9/9
f 9/9/9 14/14/14 8/8/8
f 16/16/16 14/14/14 15/15/15
f 17/17/17 16/16/16 15/15/15
f 19/19/19 18/18/18 17/17/17
f 18/18/18 16/16/16 17/17/17
f 20/20/20 18/18/18 19/19/19
f 21/21/21 20/20/20 19/19/19
f 22/22/22 20/20/20 21/21/21
f 23/23/23 22/22/22 21/21/21
f 24/24/24 22/22/22 23/23/23
f 6/6/6 24/24/24 23/23/23
f 3/3/3 24/24/24 6/6/6
f 25/25/25 3/3/3 5/5/5
f 24/24/24 3/3/3 25/25/25
f 26/26/26 24/24/24 25/25/25
f 22/22/22 24/24/24 26/26/26
f 22/22/22 26/26/26 27/27/27
f 22/22/22 27/27/27 28/28/28
f 20/20/20 22/22/22 28/28/28
f 20/20/20 28/28/28 29/29/29
f 18/18/18 20/20/20 29/29/29
f 30/30/30 18/18/18 29/29/29
f 30/30/30 16/16/16 18/18/18
f 31/31/31 14/14/14 30/30/30
f 14/14/14 16/16/16 30/30/30
f 10/10/10 8/8/8 31/31/31
f 8/8/8 14/14/14 31/31/31
f 34/34/34 33/33/33 32/32/32
f 32/32/32 35/35/35 34/34/34
f 36/36/36 33/33/33 34/34/34
f 37/37/37 33/33/33 36/36/36
f 38/38/38 37/37/37 36/36/36
f 36/36/36 39/39/39 38/38/38
f 40/40/40 38/38/38 39/39/39
f 39/39/39 41/41/41 40/40/40
f 42/42/42 40/40/40 41/41/41
f 41/41/41 43/43/43 42/42/42
f 44/44/44 42/42/42 43/43/43
f 45/45/45 44/44/44 43/43/43
f 46/46/46 44/44/44 45/45/45
f 46/46/46 45/45/45 47/47/47
f 48/48/48 46/46/46 47/47/47
f 49/49/49 48/48/48 47/47/47
f 51/51/51 49/49/49 50/50/50
f 48/48/48 49/49/49 51/51/51
f 53/53/53 51/51/51 52/52/52
f 50/50/50 52/52/52 51/51/51
f 56/56/56 55/55/55 54/54/54
f 56/56/56 57/57/57 55/55/55
f 56/56/56 58/58/58 57/57/57
f 54/54/54 59/59/59 56/56/56
f 62/62/62 61/61/61 60/60/60
f 11/11/11 63/63/63 60/60/60
f 12/12/12 11/11/11 60/60/60
f 12/12/12 61/61/61 13/13/13
f 60/60/60 61/61/61 12/12/12
f 65/65/65 62/62/62 64/64/64
f 62/62/62 60/60/60 64/64/64
f 66/66/66 65/65/65 64/64/64
f 67/67/67 65/65/65 66/66/66
f 69/69/69 67/67/67 68/68/68
f 68/68/68 67/67/67 70/70/70
f 71/71/71 69/69/69 68/68/68
f 72/72/72 69/69/69 71/71/71
f 73/73/73 72/72/72 71/71/71
f 74/74/74 72/72/72 73/73/73
f 75/75/75 74/74/74 73/73/73
f 59/59/59 74/74/74 75/75/75
f 56/56/56 59/59/59 75/75/75
f 76/76/76 58/58/58 56/56/56
f 75/75/75 76/76/76 56/56/56
f 77/77/77 76/76/76 75/75/75
f 73/73/73 77/77/77 75/75/75
f 73/73/73 78/78/78 77/77/77
f 73/73/73 79/79/79 78/78/78
f 71/71/71 79/79/79 73/73/73
f 71/71/71 80/80/80 79/79/79
f 68/68/68 80/80/80 71/71/71
f 81/81/81 80/80/80 70/70/70
f 80/80/80 68/68/68 70/70/70
f 82/82/82 81/81/81 64/64/64
f 64/64/64 81/81/81 66/66/66
f 63/63/63 82/82/82 60/60/60
f 60/60/60 82/82/82 64/64/64
f 85/85/85 84/84/84 83/83/83
f 83/83/83 86/86/86 85/85/85
f 87/87/87 83/83/83 84/84/84
f 88/88/88 87/87/87 84/84/84
f 87/87/87 88/88/88 89/89/89
f 89/89/89 90/90/90 87/87/87
f 90/90/90 89/89/89 91/91/91
f 91/91/91 92/92/92 90/90/90
f 94/94/94 93/93/93 92/92/92
f 92/92/92 91/91/91 94/94/94
f 95/95/95 93/93/93 94/94/94
f 96/96/96 93/93/93 95/95/95
f 97/97/97 96/96/96 95/95/95
f 97/97/97 98/98/98 96/96/96
f 99/99/99 98/98/98 97/97/97
f 100/100/100 98/98/98 99/99/99
f 102/102/102 101/101/101 100/100/100
f 99/99/99 102/102/102 100/100/100
f 53/53/53 52/52/52 102/102/102
f 101/101/101 102/102/102 52/52/52
f 105/105/105 104/104/104 103/103/103
f 103/103/103 106/106/106 105/105/105
f 108/108/108 107/107/107 104/104/104
f 104/104/104 105/105/105 108/108/108
f 110/110/110 109/109/109 107/107/107
f 107/107/107 108/108/108 110/110/110
f 112/112/112 111/111/111 109/109/109
f 109/109/109 110/110/110 112/112/112
f 114/114/114 113/113/113 111/111/111
f 111/111/111 112/112/112 114/114/114
f 116/116/116 115/115/115 114/114/114
f 113/113/113 114/114/114 115/115/115
f 115/115/115 116/116/116 117/117/117
f 119/119/119 118/118/118 116/116/116
f 117/117/117 116/116/116 118/118/118
f 118/118/118 119/119/119 120/120/120
f 122/122/122 121/121/121 120/120/120
f 120/120/120 119/119/119 122/122/122
f 125/125/125 124/124/124 123/123/123
f 123/123/123 126/126/126 125/125/125
f 126/126/126 123/123/123 127/127/127
f 127/127/127 128/128/128 126/126/126
f 128/128/128 127/127/127 129/129/129
f 129/129/129 130/130/130 128/128/128
f 130/130/130 129/129/129 131/131/131
f 131/131/131 132/132/132 130/130/130
f 132/132/132 131/131/131 133/133/133
f 135/135/135 134/134/134 132/132/132
f 132/132/132 133/133/133 136/136/136
f 136/136/136 135/135/135 132/132/132
f 134/134/134 135/135/135 137/137/137
f 139/139/139 138/138/138 134/134/134
f 134/134/134 137/137/137 139/139/139
f 138/138/138 139/139/139 121/121/121
f 121/121/121 122/122/122 138/138/138
f 141/141/141 105/105/105 140/140/140
f 106/106/106 140/140/140 105/105/105
f 141/141/141 108/108/108 105/105/105
f 112/112/112 110/110/110 141/141/141
f 108/108/108 141/141/141 110/110/110
f 142/142/142 112/112/112 141/141/141
f 142/142/142 114/114/114 112/112/112
f 116/116/116 114/114/114 142/142/142
f 142/142/142 143/143/143 119/119/119
f 116/116/116 142/142/142 119/119/119
f 144/144/144 122/122/122 119/119/119
f 119/119/119 143/143/143 144/144/144
f 147/147/147 146/146/146 145/145/145
f 145/145/145 148/148/148 147/147/147
f 145/145/145 146/146/146 149/149/149
f 150/150/150 132/132/132 134/134/134
f 149/149/149 134/134/134 138/138/138
f 145/145/145 149/149/149 151/151/151
f 144/144/144 138/138/138 122/122/122
f 141/141/141 152/152/152 142/142/142
f 142/142/142 152/152/152 143/143/143
f 151/151/151 152/152/152 153/153/153
f 152/152/152 141/141/141 140/140/140
f 148/148/148 145/145/145 151/151/151
f 148/148/148 151/151/151 154/154/154
f 151/151/151 144/144/144 143/143/143
f 151/151/151 149/149/149 144/144/144
f 154/154/154 151/151/151 153/153/153
f 152/152/152 140/140/140 153/153/153
f 151/151/151 143/143/143 152/152/152
f 138/138/138 144/144/144 149/149/149
f 149/149/149 150/150/150 134/134/134
f 147/147/147 125/125/125 126/126/126
f 146/146/146 128/128/128 130/130/130
f 146/146/146 147/147/147 126/126/126
f 126/126/126 128/128/128 146/146/146
f 130/130/130 132/132/132 150/150/150
f 130/130/130 150/150/150 146/146/146
f 146/146/146 150/150/150 149/149/149
f 81/81/81 70/70/70 66/66/66
f 70/70/70 67/67/67 66/66/66
f 155/155/155 1/1/1 2/2/2
f 155/155/155 4/4/4 1/1/1
f 155/155/155 156/156/156 4/4/4
f 2/2/2 157/157/157 155/155/155
f 160/160/160 159/159/159 158/158/158
f 162/162/162 161/161/161 158/158/158
f 163/163/163 162/162/162 158/158/158
f 163/163/163 159/159/159 164/164/164
f 158/158/158 159/159/159 163/163/163
f 166/166/166 160/160/160 165/165/165
f 160/160/160 158/158/158 165/165/165
f 167/167/167 166/166/166 165/165/165
f 168/168/168 166/166/166 167/167/167
f 170/170/170 168/168/168 169/169/169
f 169/169/169 168/168/168 167/167/167
f 171/171/171 170/170/170 169/169/169
f 172/172/172 170/170/170 171/171/171
f 173/173/173 172/172/172 171/171/171
f 174/174/174 172/172/172 173/173/173
f 175/175/175 174/174/174 173/173/173
f 157/157/157 174/174/174 175/175/175
f 155/155/155 157/157/157 175/175/175
f 176/176/176 156/156/156 155/155/155
f 175/175/175 176/176/176 155/155/155
f 177/177/177 176/176/176 175/175/175
f 173/173/173 177/177/177 175/175/175
f 173/173/173 178/178/178 177/177/177
f 173/173/173 179/179/179 178/178/178
f 171/171/171 179/179/179 173/173/173
f 171/171/171 180/180/180 179/179/179
f 169/169/169 180/180/180 171/171/171
f 181/181/181 180/180/180 169/169/169
f 181/181/181 169/169/169 167/167/167
f 182/182/182 181/181/181 165/165/165
f 165/165/165 181/181/181 167/167/167
f 161/161/161 182/182/182 158/158/158
f 158/158/158 182/182/182 165/165/165
f 184/184/184 32/32/32 183/183/183
f 32/32/32 184/184/184 35/35/35
f 185/185/185 184/184/184 183/183/183
f 186/186/186 185/185/185 183/183/183
f 187/187/187 185/185/185 186/186/186
f 185/185/185 187/187/187 188/188/188
f 189/189/189 188/188/188 187/187/187
f 188/188/188 189/189/189 190/190/190
f 191/191/191 190/190/190 189/189/189
f 190/190/190 191/191/191 192/192/192
f 193/193/193 192/192/192 191/191/191
f 194/194/194 192/192/192 193/193/193
f 195/195/195 194/194/194 193/193/193
f 195/195/195 196/196/196 194/194/194
f 197/197/197 196/196/196 195/195/195
f 198/198/198 196/196/196 197/197/197
f 200/200/200 199/199/199 198/198/198
f 197/197/197 200/200/200 198/198/198
f 202/202/202 201/201/201 200/200/200
f 199/199/199 200/200/200 201/201/201
f 203/203/203 54/54/54 55/55/55
f 203/203/203 55/55/55 57/57/57
f 203/203/203 57/57/57 204/204/204
f 54/54/54 203/203/203 205/205/205
f 208/208/208 207/207/207 206/206/206
f 162/162/162 207/207/207 209/209/209
f 163/163/163 207/207/207 162/162/162
f 163/163/163 164/164/164 206/206/206
f 207/207/207 163/163/163 206/206/206
f 211/211/211 210/210/210 208/208/208
f 208/208/208 210/210/210 207/207/207
f 212/212/212 210/210/210 211/211/211
f 213/213/213 212/212/212 211/211/211
f 215/215/215 214/214/214 213/213/213
f 214/214/214 216/216/216 213/213/213
f 217/217/217 214/214/214 215/215/215
f 218/218/218 217/217/217 215/215/215
f 219/219/219 217/217/217 218/218/218
f 220/220/220 219/219/219 218/218/218
f 221/221/221 219/219/219 220/220/220
f 205/205/205 221/221/221 220/220/220
f 203/203/203 221/221/221 205/205/205
f 222/222/222 203/203/203 204/204/204
f 221/221/221 203/203/203 222/222/222
f 223/223/223 221/221/221 222/222/222
f 219/219/219 221/221/221 223/223/223
f 219/219/219 223/223/223 224/224/224
f 219/219/219 224/224/224 225/225/225
f 217/217/217 219/219/219 225/225/225
f 217/217/217 225/225/225 226/226/226
f 214/214/214 217/217/217 226/226/226
f 227/227/227 216/216/216 226/226/226
f 226/226/226 216/216/216 214/214/214
f 228/228/228 210/210/210 227/227/227
f 210/210/210 212/212/212 227/227/227
f 209/209/209 207/207/207 228/228/228
f 207/207/207 210/210/210 228/228/228
f 85/85/85 230/230/230 229/229/229
f 230/230/230 85/85/85 86/86/86
f 231/231/231 229/229/229 230/230/230
f 232/232/232 229/229/229 231/231/231
f 231/231/231 233/233/233 232/232/232
f 233/233/233 231/231/231 234/234/234
f 234/234/234 235/235/235 233/233/233
f 235/235/235 234/234/234 236/236/236
f 238/238/238 236/236/236 237/237/237
f 236/236/236 238/238/238 235/235/235
f 239/239/239 238/238/238 237/237/237
f 240/240/240 239/239/239 237/237/237
f 241/241/241 239/239/239 240/240/240
f 241/241/241 240/240/240 242/242/242
f 243/243/243 241/241/241 242/242/242
f 244/244/244 243/243/243 242/242/242
f 246/246/246 244/244/244 245/245/245
f 243/243/243 244/244/244 246/246/246
f 202/202/202 246/246/246 201/201/201
f 245/245/245 201/201/201 246/246/246
f 248/248/248 103/103/103 247/247/247
f 103/103/103 248/248/248 106/106/106
f 250/250/250 247/247/247 249/249/249
f 247/247/247 250/250/250 248/248/248
f 252/252/252 249/249/249 251/251/251
f 249/249/249 252/252/252 250/250/250
f 254/254/254 251/251/251 253/253/253
f 251/251/251 254/254/254 252/252/252
f 256/256/256 253/253/253 255/255/255
f 253/253/253 256/256/256 254/254/254
f 258/258/258 256/256/256 257/257/257
f 255/255/255 257/257/257 256/256/256
f 257/257/257 259/259/259 258/258/258
f 261/261/261 258/258/258 260/260/260
f 259/259/259 260/260/260 258/258/258
f 260/260/260 262/262/262 261/261/261
f 264/264/264 262/262/262 263/263/263
f 262/262/262 264/264/264 261/261/261
f 125/125/125 265/265/265 124/124/124
f 265/265/265 125/125/125 266/266/266
f 266/266/266 267/267/267 265/265/265
f 267/267/267 266/266/266 268/268/268
f 268/268/268 269/269/269 267/267/267
f 269/269/269 268/268/268 270/270/270
f 270/270/270 271/271/271 269/269/269
f 271/271/271 270/270/270 272/272/272
f 272/272/272 273/273/273 271/271/271
f 273/273/273 272/272/272 274/274/274
f 275/275/275 274/274/274 272/272/272
f 272/272/272 276/276/276 275/275/275
f 276/276/276 277/277/277 275/275/275
f 279/279/279 276/276/276 278/278/278
f 276/276/276 279/279/279 277/277/277
f 278/278/278 263/263/263 279/279/279
f 263/263/263 278/278/278 264/264/264
f 140/140/140 106/106/106 248/248/248
f 248/248/248 280/280/280 140/140/140
f 280/280/280 248/248/248 250/250/250
f 254/254/254 280/280/280 252/252/252
f 250/250/250 252/252/252 280/280/280
f 281/281/281 280/280/280 254/254/254
f 281/281/281 254/254/254 256/256/256
f 258/258/258 281/281/281 256/256/256
f 258/258/258 261/261/261 281/281/281
f 261/261/261 282/282/282 281/281/281
f 283/283/283 261/261/261 264/264/264
f 261/261/261 283/283/283 282/282/282
f 147/147/147 285/285/285 284/284/284
f 285/285/285 147/147/147 148/148/148
f 285/285/285 286/286/286 284/284/284
f 287/287/287 276/276/276 272/272/272
f 286/286/286 278/278/278 276/276/276
f 285/285/285 288/288/288 286/286/286
f 283/283/283 264/264/264 278/278/278
f 281/281/281 282/282/282 289/289/289
f 281/281/281 289/289/289 280/280/280
f 288/288/288 153/153/153 289/289/289
f 289/289/289 140/140/140 280/280/280
f 148/148/148 288/288/288 285/285/285
f 148/148/148 154/154/154 288/288/288
f 288/288/288 282/282/282 283/283/283
f 288/288/288 283/283/283 286/286/286
f 154/154/154 153/153/153 288/288/288
f 289/289/289 153/153/153 140/140/140
f 288/288/288 289/289/289 282/282/282
f 278/278/278 286/286/286 283/283/283
f 286/286/286 276/276/276 287/287/287
f 147/147/147 266/266/266 125/125/125
f 284/284/284 270/270/270 268/268/268
f 284/284/284 266/266/266 147/147/147
f 266/266/266 284/284/284 268/268/268
f 284/284/284 287/287/287 270/270/270
f 270/270/270 287/287/287 272/272/272
f 284/284/284 286/286/286 287/287/287
f 227/227/227 212/212/212 216/216/216
f 216/216/216 212/212/212 213/213/213
