# GloomhavenVR - generic-trigger-squeeze-thumbstick right 'squeeze' (glTF material 0)
# generated by controllers_pipeline.py from webxr-input-profiles (MIT)
o generic_right_squeeze__m0
v -0.004126 0.000423 -0.000831
v -0.009305 0.000655 -0.002789
v -0.004278 0.002388 -0.000545
v -0.009441 0.002424 -0.002511
v -0.004336 0.003811 -0.000535
v -0.009499 0.003848 -0.002501
v -0.004344 0.006110 -0.000807
v -0.009945 0.003859 -0.003277
v -0.009952 0.005737 -0.003534
v -0.009899 0.005870 -0.003091
v -0.009892 0.003852 -0.002829
v -0.009891 0.002436 -0.003289
v -0.008866 0.003258 -0.005431
v -0.009835 0.002429 -0.002839
v -0.009507 0.005926 -0.002765
v -0.009499 0.003848 -0.002501
v -0.009774 0.000849 -0.003557
v -0.009441 0.002424 -0.002511
v -0.009704 0.000711 -0.003115
v -0.008688 0.000359 -0.005327
v -0.006522 0.006691 -0.010341
v -0.008961 0.006886 -0.005202
v -0.002651 0.008235 -0.025646
v 0.003036 0.007747 -0.025888
v 0.003131 0.008605 -0.025561
v 0.003131 0.008605 -0.025561
v -0.002622 0.008630 -0.025182
v -0.002651 0.008235 -0.025646
v -0.002651 0.008235 -0.025646
v -0.002622 0.008630 -0.025182
v -0.003184 0.008524 -0.025116
v -0.003213 0.008137 -0.025574
v -0.002739 0.007438 -0.025949
v -0.003590 0.007905 -0.025320
v -0.003671 0.007168 -0.025605
v -0.003299 0.007357 -0.025871
v -0.003562 0.008273 -0.024875
v -0.003225 -0.000702 -0.025116
v -0.003003 0.000155 -0.025724
v -0.003383 0.000319 -0.025458
v -0.002770 -0.001385 -0.024919
v -0.002838 -0.000915 -0.025369
v -0.002441 0.000093 -0.025802
v -0.002271 -0.000998 -0.025441
v 0.003539 -0.001353 -0.025340
v -0.002271 -0.000998 -0.025441
v -0.002203 -0.001477 -0.024984
v -0.008634 -0.001086 -0.003384
v -0.003864 -0.000623 -0.001026
v -0.003397 -0.001456 -0.001475
v -0.007932 -0.001552 -0.004148
v -0.008634 -0.001086 -0.003384
v -0.008369 -0.001446 -0.004438
v -0.009053 -0.000992 -0.003694
v -0.009558 -0.000046 -0.003721
v -0.009471 -0.000236 -0.003290
v -0.009166 -0.000761 -0.004101
v -0.009064 -0.000314 -0.002969
v -0.009531 0.007785 -0.004034
v -0.009008 0.008279 -0.004612
v -0.008890 0.008554 -0.004237
v -0.009789 0.007040 -0.003245
v -0.009850 0.006846 -0.003680
v -0.009448 0.008031 -0.003621
v -0.009393 0.007121 -0.002922
v -0.009046 0.008132 -0.003308
v -0.008478 0.008665 -0.003942
v -0.009046 0.008132 -0.003308
v -0.003915 0.008461 -0.001392
v -0.004240 0.007386 -0.000964
v -0.008478 0.008665 -0.003942
v 0.003160 0.009030 -0.025059
v -0.002640 0.008816 -0.024543
v 0.002647 0.009255 -0.020386
v -0.003085 0.008841 -0.020859
v 0.003138 0.009229 -0.024369
v -0.002640 0.008816 -0.024543
v -0.003201 0.008705 -0.024488
v -0.004057 0.006847 -0.024467
v -0.003577 0.008442 -0.024265
v -0.003991 0.008453 -0.020729
v -0.003635 0.008727 -0.020857
v -0.003085 0.008841 -0.020859
v -0.003149 -0.001389 -0.024058
v -0.003523 -0.001438 -0.020623
v -0.003148 -0.001692 -0.020754
v -0.004132 0.000459 -0.020488
v -0.003159 -0.001151 -0.024677
v -0.003784 0.000655 -0.024321
v -0.002760 -0.001637 -0.024281
v -0.002203 -0.001477 -0.024984
v -0.002194 -0.001735 -0.024336
v -0.002590 -0.001793 -0.020756
v 0.003618 -0.002150 -0.024146
v -0.002194 -0.001735 -0.024336
v 0.003192 -0.002212 -0.020276
v 0.003610 -0.001871 -0.024846
v 0.001738 0.009239 -0.014862
v -0.003895 0.008836 -0.015750
v -0.000311 0.009217 -0.008397
v -0.005545 0.008914 -0.009786
v -0.002801 0.009151 -0.003037
v -0.007823 0.008853 -0.004826
v -0.003407 0.008981 -0.002089
v -0.009393 0.007121 -0.002922
v -0.009507 0.005926 -0.002765
v -0.009064 -0.000314 -0.002969
v -0.004126 0.000423 -0.000831
v -0.009305 0.000655 -0.002789
v -0.002634 -0.001959 -0.002302
v -0.007185 -0.001665 -0.005161
v -0.001821 -0.002080 -0.003399
v -0.004833 -0.001726 -0.010159
v 0.000755 -0.002153 -0.008799
v -0.003322 -0.001797 -0.015814
v 0.002411 -0.002221 -0.014931
v -0.002590 -0.001793 -0.020756
v 0.003357 -0.000177 -0.025730
v -0.002441 0.000093 -0.025802
v 0.003176 0.001116 -0.025824
v -0.002608 0.001292 -0.025889
v 0.002867 0.004129 -0.025996
v -0.002894 0.004080 -0.026054
v -0.002822 0.006538 -0.026012
v -0.002739 0.007438 -0.025949
v 0.002946 0.006777 -0.025956
v -0.003895 0.008836 -0.015750
v -0.005545 0.008914 -0.009786
v -0.007823 0.008853 -0.004826
v -0.008247 0.008740 -0.005098
v -0.004426 0.008717 -0.015824
v -0.009305 0.000655 -0.002789
v -0.007932 -0.001552 -0.004148
v -0.007641 -0.001557 -0.005424
v -0.007185 -0.001665 -0.005161
v -0.005346 -0.001616 -0.010323
v -0.004833 -0.001726 -0.010159
v -0.003867 -0.001691 -0.015885
v -0.003322 -0.001797 -0.015814
v -0.002608 0.001292 -0.025889
v -0.002894 0.004080 -0.026054
v -0.003167 0.001332 -0.025809
v -0.003379 0.006475 -0.025932
v -0.003448 0.004067 -0.025973
v -0.002822 0.006538 -0.026012
v -0.003538 0.001443 -0.025540
v -0.004194 0.004008 -0.024537
v -0.003806 0.004047 -0.025699
v -0.004495 0.003831 -0.020533
v -0.004221 -0.001427 -0.015880
v -0.005653 -0.001344 -0.010456
v -0.004754 0.000406 -0.015865
v -0.007840 -0.001292 -0.005728
v -0.008524 -0.001188 -0.004800
v -0.006132 0.000629 -0.010554
v -0.006375 0.003421 -0.010471
v -0.006025 0.008797 -0.009960
v -0.006296 0.008503 -0.010115
v -0.004754 0.008429 -0.015827
v -0.005101 0.006714 -0.015835
v -0.004440 0.006846 -0.020564
v -0.005047 0.003563 -0.015861
v -0.008406 0.008455 -0.005422
v -0.003745 0.006333 -0.025662
vt 0.737212 0.661709
vt 0.737212 0.617963
vt 0.752463 0.661709
vt 0.752463 0.617963
vt 0.763942 0.661709
vt 0.763941 0.617963
vt 0.781710 0.661709
vt 0.753350 0.385232
vt 0.755404 0.399693
vt 0.751895 0.400913
vt 0.749736 0.385193
vt 0.753457 0.374252
vt 0.772570 0.380203
vt 0.749833 0.374113
vt 0.747881 0.401882
vt 0.745666 0.385220
vt 0.755500 0.361948
vt 0.745768 0.373706
vt 0.752052 0.360625
vt 0.771721 0.357479
vt 0.815840 0.407064
vt 0.770734 0.408605
vt 0.309323 0.991314
vt 0.302193 0.945417
vt 0.309323 0.945417
vt 0.998047 0.661709
vt 0.993420 0.617963
vt 0.998047 0.617963
vt 0.943444 0.420373
vt 0.939400 0.424268
vt 0.936860 0.420737
vt 0.940180 0.417354
vt 0.946533 0.413222
vt 0.937255 0.414840
vt 0.939228 0.409165
vt 0.942526 0.411170
vt 0.934088 0.417897
vt 0.935498 0.347955
vt 0.941350 0.353834
vt 0.938027 0.355844
vt 0.935043 0.341464
vt 0.938400 0.345331
vt 0.945400 0.351766
vt 0.941710 0.342270
vt 0.233326 0.945417
vt 0.233326 0.991314
vt 0.227999 0.991314
vt 0.039504 0.991141
vt 0.032403 0.945452
vt 0.039504 0.945452
vt 0.047499 0.991314
vt 0.755782 0.343683
vt 0.765250 0.342395
vt 0.758030 0.347105
vt 0.757197 0.355134
vt 0.754027 0.353212
vt 0.760868 0.349479
vt 0.750761 0.350715
vt 0.760389 0.415192
vt 0.765949 0.419417
vt 0.763413 0.422238
vt 0.753648 0.409963
vt 0.756894 0.408103
vt 0.757509 0.417543
vt 0.750090 0.411955
vt 0.754924 0.420617
vt 0.761901 0.425970
vt 0.800973 0.617963
vt 0.800973 0.661709
vt 0.791745 0.661709
vt 0.808701 0.617963
vt 0.993420 0.661709
vt 0.988173 0.617963
vt 0.957896 0.661709
vt 0.957896 0.617963
vt 0.988173 0.661709
vt 0.933834 0.427023
vt 0.932083 0.422777
vt 0.929849 0.406675
vt 0.929552 0.419545
vt 0.901157 0.420818
vt 0.902741 0.424235
vt 0.903609 0.428640
vt 0.927707 0.342307
vt 0.900557 0.341004
vt 0.902131 0.337555
vt 0.898290 0.356758
vt 0.932330 0.344355
vt 0.928631 0.358852
vt 0.930198 0.339055
vt 0.937535 0.337855
vt 0.931919 0.334786
vt 0.902965 0.333101
vt 0.222267 0.945417
vt 0.222267 0.991314
vt 0.192123 0.945417
vt 0.227999 0.945417
vt 0.915314 0.661709
vt 0.915314 0.617963
vt 0.863171 0.661709
vt 0.863171 0.617963
vt 0.817492 0.661709
vt 0.817492 0.617963
vt 0.808701 0.661709
vt 0.791745 0.617963
vt 0.781710 0.617963
vt 0.032403 0.991141
vt 0.024645 0.945452
vt 0.024645 0.991141
vt 0.047499 0.945417
vt 0.056894 0.991314
vt 0.056894 0.945417
vt 0.101374 0.991314
vt 0.101374 0.945417
vt 0.150259 0.991314
vt 0.150259 0.945417
vt 0.192123 0.991314
vt 0.242444 0.945417
vt 0.242444 0.991314
vt 0.252002 0.945417
vt 0.252002 0.991314
vt 0.274409 0.945417
vt 0.274409 0.991314
vt 0.294662 0.991314
vt 0.302193 0.991314
vt 0.294662 0.945417
vt 0.862589 0.428725
vt 0.814073 0.429288
vt 0.770912 0.428656
vt 0.771733 0.424640
vt 0.862178 0.424385
vt 0.748182 0.359237
vt 0.764008 0.338418
vt 0.774811 0.340164
vt 0.774141 0.335950
vt 0.817696 0.338359
vt 0.817688 0.334007
vt 0.863154 0.337454
vt 0.863516 0.333023
vt 0.946626 0.362125
vt 0.947618 0.384901
vt 0.942250 0.363276
vt 0.943176 0.404150
vt 0.943167 0.385035
vt 0.947578 0.405138
vt 0.938699 0.364604
vt 0.929895 0.384821
vt 0.939580 0.385015
vt 0.898089 0.383699
vt 0.862503 0.340915
vt 0.817973 0.341779
vt 0.861422 0.356145
vt 0.776551 0.343347
vt 0.767616 0.345297
vt 0.817877 0.358073
vt 0.816929 0.380679
vt 0.814134 0.425144
vt 0.814617 0.421757
vt 0.861579 0.420959
vt 0.860849 0.406956
vt 0.898838 0.407631
vt 0.860878 0.381604
vt 0.773695 0.421476
vt 0.939613 0.402784
vn -0.353236 -0.201520 0.913572
vn -0.378254 -0.197353 0.904420
vn -0.355466 -0.105802 0.928682
vn -0.379842 -0.103595 0.919232
vn -0.355726 0.058230 0.932775
vn -0.379893 0.060680 0.923038
vn -0.355252 0.125681 0.926283
vn -0.924329 -0.019247 -0.381111
vn -0.913278 -0.008741 -0.407243
vn -0.863788 0.094022 0.495006
vn -0.857311 0.022367 0.514312
vn -0.925987 -0.045355 -0.374822
vn -0.894111 -0.034255 -0.446534
vn -0.853430 -0.096777 0.512145
vn -0.380781 0.125200 0.916150
vn -0.379893 0.060680 0.923038
vn -0.914625 -0.063266 -0.399323
vn -0.379842 -0.103595 0.919232
vn -0.850659 -0.199337 0.486461
vn -0.885105 -0.130001 -0.446866
vn -0.937664 0.053674 -0.343374
vn -0.895820 0.049595 -0.441642
vn -0.035372 0.529958 -0.847286
vn -0.001729 0.224946 -0.974370
vn -0.023776 0.562027 -0.826777
vn -0.023776 0.562027 -0.826777
vn -0.064216 0.880341 -0.469975
vn -0.035372 0.529958 -0.847286
vn -0.035372 0.529958 -0.847286
vn -0.064216 0.880341 -0.469975
vn -0.416700 0.804489 -0.423272
vn -0.408633 0.520496 -0.749735
vn -0.014388 0.200947 -0.979496
vn -0.834112 0.357100 -0.420401
vn -0.834181 0.184863 -0.519584
vn -0.384906 0.231865 -0.893357
vn -0.844580 0.484377 -0.228174
vn -0.826246 -0.357582 -0.435262
vn -0.372926 -0.230834 -0.898689
vn -0.828146 -0.215428 -0.517461
vn -0.395565 -0.774185 -0.494132
vn -0.383589 -0.469667 -0.795156
vn -0.009684 -0.181451 -0.983352
vn -0.024605 -0.447876 -0.893757
vn -0.014563 -0.486303 -0.873669
vn -0.024605 -0.447876 -0.893757
vn -0.054744 -0.824945 -0.562556
vn -0.292399 -0.750328 0.592883
vn -0.336311 -0.446326 0.829269
vn -0.247883 -0.816058 0.522114
vn -0.165636 -0.961130 0.220895
vn -0.292399 -0.750328 0.592883
vn -0.448496 -0.892107 -0.054735
vn -0.650944 -0.735513 0.187861
vn -0.922622 -0.237501 -0.303911
vn -0.804371 -0.435773 0.403842
vn -0.835486 -0.408399 -0.367659
vn -0.365790 -0.399841 0.840431
vn -0.892076 0.300267 -0.337698
vn -0.788243 0.428607 -0.441553
vn -0.540967 0.840945 -0.012910
vn -0.853438 0.283644 0.437252
vn -0.949213 0.111708 -0.294137
vn -0.755511 0.598600 0.266235
vn -0.379146 0.279861 0.882001
vn -0.333305 0.614481 0.715067
vn -0.195434 0.927363 0.319066
vn -0.333305 0.614481 0.715067
vn -0.294316 0.675395 0.676180
vn -0.351679 0.300055 0.886729
vn -0.195434 0.927363 0.319066
vn -0.051742 0.887976 -0.456971
vn -0.079372 0.995268 -0.056043
vn -0.070712 0.997425 -0.011979
vn -0.081606 0.996576 -0.013325
vn -0.069530 0.995915 -0.057607
vn -0.079372 0.995268 -0.056043
vn -0.354111 0.931468 -0.083511
vn -0.986753 0.110092 -0.119153
vn -0.900786 0.421663 -0.103852
vn -0.919599 0.374357 -0.119140
vn -0.390589 0.918902 -0.055305
vn -0.081606 0.996576 -0.013325
vn -0.897904 -0.427020 -0.106877
vn -0.907479 -0.403553 -0.116735
vn -0.353610 -0.933948 -0.051967
vn -0.977277 -0.178169 -0.114828
vn -0.848409 -0.472372 -0.238885
vn -0.977391 -0.175297 -0.118231
vn -0.327772 -0.939211 -0.102220
vn -0.054744 -0.824945 -0.562556
vn -0.076585 -0.993720 -0.081575
vn -0.079983 -0.996636 -0.017861
vn -0.068303 -0.994388 -0.080790
vn -0.076585 -0.993720 -0.081575
vn -0.071107 -0.997323 -0.017036
vn -0.044232 -0.841106 -0.539058
vn -0.065235 0.997741 -0.016051
vn -0.076172 0.996906 -0.019372
vn -0.057767 0.998161 -0.018398
vn -0.069072 0.997362 -0.022306
vn -0.061190 0.998113 0.005141
vn -0.076549 0.997041 0.006973
vn -0.157032 0.950457 0.268278
vn -0.379146 0.279861 0.882001
vn -0.380781 0.125200 0.916150
vn -0.365790 -0.399841 0.840431
vn -0.353236 -0.201520 0.913572
vn -0.378254 -0.197353 0.904420
vn -0.130768 -0.978467 0.159694
vn -0.084856 -0.996323 -0.011822
vn -0.073610 -0.997216 -0.011947
vn -0.081001 -0.996558 -0.017638
vn -0.072262 -0.997293 -0.013568
vn -0.081619 -0.996598 -0.011470
vn -0.072591 -0.997314 -0.009776
vn -0.079983 -0.996636 -0.017861
vn 0.002601 -0.206502 -0.978443
vn -0.009684 -0.181451 -0.983352
vn 0.009712 -0.061805 -0.998041
vn -0.002633 -0.062259 -0.998057
vn 0.009774 -0.023629 -0.999673
vn -0.004355 -0.023021 -0.999726
vn -0.003856 0.029537 -0.999556
vn -0.014388 0.200947 -0.979496
vn 0.008684 0.031309 -0.999472
vn -0.076172 0.996906 -0.019372
vn -0.069072 0.997362 -0.022306
vn -0.076549 0.997041 0.006973
vn -0.380514 0.912004 -0.153157
vn -0.407415 0.908424 -0.093691
vn -0.378254 -0.197353 0.904420
vn -0.165636 -0.961130 0.220895
vn -0.341470 -0.927761 -0.150525
vn -0.084856 -0.996323 -0.011822
vn -0.365324 -0.923013 -0.120767
vn -0.081001 -0.996558 -0.017638
vn -0.365838 -0.928096 -0.069279
vn -0.081619 -0.996598 -0.011470
vn -0.002633 -0.062259 -0.998057
vn -0.004355 -0.023021 -0.999726
vn -0.345775 -0.099273 -0.933051
vn -0.345071 0.045826 -0.937457
vn -0.363708 -0.036789 -0.930786
vn -0.003856 0.029537 -0.999556
vn -0.890950 -0.129977 -0.435102
vn -0.990012 -0.045709 -0.133366
vn -0.898892 -0.047722 -0.435563
vn -0.992754 -0.049454 -0.109518
vn -0.905824 -0.382649 -0.181830
vn -0.873583 -0.374487 -0.310825
vn -0.968126 -0.162835 -0.190305
vn -0.828977 -0.385423 -0.405273
vn -0.744613 -0.488086 -0.455328
vn -0.928788 -0.151560 -0.338206
vn -0.937340 -0.044335 -0.345583
vn -0.405675 0.902003 -0.147712
vn -0.895342 0.307213 -0.322463
vn -0.926613 0.320042 -0.197389
vn -0.978228 0.062294 -0.197965
vn -0.988310 0.099550 -0.115470
vn -0.980200 -0.052687 -0.190871
vn -0.854701 0.327861 -0.402484
vn -0.895164 0.049277 -0.443004
f 3/3/3 2/2/2 1/1/1
f 5/5/5 4/4/4 3/3/3
f 2/2/2 3/3/3 4/4/4
f 5/5/5 7/7/7 6/6/6
f 4/4/4 5/5/5 6/6/6
f 10/10/10 9/9/9 8/8/8
f 11/11/11 10/10/10 8/8/8
f 13/13/13 12/12/12 8/8/8
f 14/14/14 11/11/11 12/12/12
f 11/11/11 8/8/8 12/12/12
f 16/16/16 15/15/15 11/11/11
f 12/12/12 17/17/17 14/14/14
f 16/16/16 11/11/11 14/14/14
f 14/14/14 19/19/19 18/18/18
f 14/14/14 18/18/18 16/16/16
f 8/8/8 9/9/9 13/13/13
f 20/20/20 17/17/17 13/13/13
f 22/22/22 21/21/21 13/13/13
f 25/25/25 24/24/24 23/23/23
f 28/28/28 27/27/27 26/26/26
f 31/31/31 30/30/30 29/29/29
f 29/29/29 33/33/33 32/32/32
f 36/36/36 35/35/35 34/34/34
f 37/37/37 31/31/31 34/34/34
f 40/40/40 39/39/39 38/38/38
f 42/42/42 41/41/41 38/38/38
f 38/38/38 39/39/39 42/42/42
f 39/39/39 43/43/43 42/42/42
f 41/41/41 42/42/42 44/44/44
f 47/47/47 46/46/46 45/45/45
f 50/50/50 49/49/49 48/48/48
f 48/48/48 51/51/51 50/50/50
f 54/54/54 53/53/53 52/52/52
f 56/56/56 55/55/55 54/54/54
f 57/57/57 53/53/53 54/54/54
f 52/52/52 58/58/58 54/54/54
f 61/61/61 60/60/60 59/59/59
f 63/63/63 62/62/62 59/59/59
f 62/62/62 65/65/65 64/64/64
f 67/67/67 61/61/61 66/66/66
f 70/70/70 69/69/69 68/68/68
f 71/71/71 68/68/68 69/69/69
f 72/72/72 26/26/26 27/27/27
f 27/27/27 73/73/73 72/72/72
f 75/75/75 74/74/74 73/73/73
f 76/76/76 72/72/72 73/73/73
f 31/31/31 77/77/77 30/30/30
f 29/29/29 32/32/32 31/31/31
f 32/32/32 34/34/34 31/31/31
f 78/78/78 77/77/77 31/31/31
f 34/34/34 79/79/79 37/37/37
f 80/80/80 78/78/78 37/37/37
f 79/79/79 81/81/81 80/80/80
f 81/81/81 82/82/82 80/80/80
f 37/37/37 79/79/79 80/80/80
f 82/82/82 83/83/83 78/78/78
f 31/31/31 37/37/37 78/78/78
f 80/80/80 82/82/82 78/78/78
f 86/86/86 85/85/85 84/84/84
f 85/85/85 87/87/87 84/84/84
f 84/84/84 89/89/89 88/88/88
f 41/41/41 90/90/90 88/88/88
f 88/88/88 38/38/38 41/41/41
f 44/44/44 91/91/91 41/41/41
f 91/91/91 92/92/92 41/41/41
f 90/90/90 41/41/41 92/92/92
f 84/84/84 88/88/88 90/90/90
f 92/92/92 93/93/93 90/90/90
f 96/96/96 95/95/95 94/94/94
f 95/95/95 47/47/47 94/94/94
f 45/45/45 97/97/97 47/47/47
f 97/97/97 94/94/94 47/47/47
f 76/76/76 73/73/73 74/74/74
f 99/99/99 98/98/98 75/75/75
f 98/98/98 74/74/74 75/75/75
f 101/101/101 100/100/100 99/99/99
f 100/100/100 98/98/98 99/99/99
f 103/103/103 102/102/102 101/101/101
f 69/69/69 104/104/104 71/71/71
f 100/100/100 101/101/101 102/102/102
f 71/71/71 104/104/104 103/103/103
f 102/102/102 103/103/103 104/104/104
f 68/68/68 105/105/105 70/70/70
f 106/106/106 6/6/6 7/7/7
f 70/70/70 105/105/105 7/7/7
f 106/106/106 7/7/7 105/105/105
f 107/107/107 48/48/48 49/49/49
f 109/109/109 107/107/107 108/108/108
f 49/49/49 108/108/108 107/107/107
f 110/110/110 50/50/50 51/51/51
f 51/51/51 111/111/111 110/110/110
f 112/112/112 110/110/110 111/111/111
f 111/111/111 113/113/113 112/112/112
f 114/114/114 112/112/112 113/113/113
f 113/113/113 115/115/115 114/114/114
f 116/116/116 114/114/114 115/115/115
f 116/116/116 115/115/115 117/117/117
f 95/95/95 96/96/96 117/117/117
f 116/116/116 117/117/117 96/96/96
f 45/45/45 46/46/46 118/118/118
f 46/46/46 119/119/119 118/118/118
f 119/119/119 121/121/121 120/120/120
f 118/118/118 119/119/119 120/120/120
f 120/120/120 121/121/121 122/122/122
f 121/121/121 123/123/123 122/122/122
f 124/124/124 122/122/122 123/123/123
f 125/125/125 23/23/23 24/24/24
f 124/124/124 125/125/125 126/126/126
f 122/122/122 124/124/124 126/126/126
f 24/24/24 126/126/126 125/125/125
f 77/77/77 78/78/78 83/83/83
f 83/83/83 82/82/82 127/127/127
f 130/130/130 129/129/129 128/128/128
f 127/127/127 131/131/131 128/128/128
f 129/129/129 130/130/130 67/67/67
f 66/66/66 64/64/64 65/65/65
f 10/10/10 11/11/11 15/15/15
f 56/56/56 54/54/54 58/58/58
f 19/19/19 56/56/56 132/132/132
f 53/53/53 134/134/134 133/133/133
f 134/134/134 136/136/136 135/135/135
f 136/136/136 138/138/138 137/137/137
f 86/86/86 90/90/90 93/93/93
f 138/138/138 86/86/86 139/139/139
f 44/44/44 42/42/42 43/43/43
f 43/43/43 39/39/39 140/140/140
f 140/140/140 142/142/142 141/141/141
f 144/144/144 143/143/143 141/141/141
f 36/36/36 32/32/32 33/33/33
f 143/143/143 36/36/36 145/145/145
f 144/144/144 141/141/141 142/142/142
f 140/140/140 39/39/39 142/142/142
f 40/40/40 142/142/142 39/39/39
f 89/89/89 147/147/147 146/146/146
f 148/148/148 144/144/144 146/146/146
f 146/146/146 142/142/142 40/40/40
f 146/146/146 40/40/40 89/89/89
f 40/40/40 38/38/38 89/89/89
f 38/38/38 88/88/88 89/89/89
f 87/87/87 149/149/149 89/89/89
f 93/93/93 139/139/139 86/86/86
f 84/84/84 90/90/90 86/86/86
f 86/86/86 138/138/138 85/85/85
f 150/150/150 85/85/85 138/138/138
f 139/139/139 137/137/137 138/138/138
f 136/136/136 151/151/151 150/150/150
f 152/152/152 87/87/87 150/150/150
f 150/150/150 138/138/138 136/136/136
f 137/137/137 135/135/135 136/136/136
f 134/134/134 153/153/153 136/136/136
f 133/133/133 52/52/52 53/53/53
f 135/135/135 133/133/133 134/134/134
f 53/53/53 154/154/154 134/134/134
f 153/153/153 134/134/134 154/154/154
f 57/57/57 20/20/20 154/154/154
f 53/53/53 57/57/57 154/154/154
f 155/155/155 152/152/152 151/151/151
f 151/151/151 136/136/136 153/153/153
f 155/155/155 151/151/151 153/153/153
f 58/58/58 132/132/132 56/56/56
f 132/132/132 18/18/18 19/19/19
f 17/17/17 55/55/55 19/19/19
f 12/12/12 13/13/13 17/17/17
f 19/19/19 14/14/14 17/17/17
f 13/13/13 156/156/156 20/20/20
f 153/153/153 154/154/154 20/20/20
f 57/57/57 55/55/55 20/20/20
f 57/57/57 54/54/54 55/55/55
f 17/17/17 20/20/20 55/55/55
f 56/56/56 19/19/19 55/55/55
f 15/15/15 65/65/65 62/62/62
f 64/64/64 59/59/59 62/62/62
f 15/15/15 62/62/62 10/10/10
f 62/62/62 63/63/63 10/10/10
f 22/22/22 13/13/13 9/9/9
f 59/59/59 22/22/22 63/63/63
f 9/9/9 10/10/10 63/63/63
f 131/131/131 127/127/127 82/82/82
f 157/157/157 128/128/128 131/131/131
f 159/159/159 158/158/158 131/131/131
f 82/82/82 81/81/81 131/131/131
f 161/161/161 160/160/160 159/159/159
f 160/160/160 21/21/21 159/159/159
f 159/159/159 131/131/131 81/81/81
f 161/161/161 159/159/159 81/81/81
f 152/152/152 162/162/162 87/87/87
f 85/85/85 150/150/150 87/87/87
f 89/89/89 84/84/84 87/87/87
f 150/150/150 151/151/151 152/152/152
f 156/156/156 162/162/162 155/155/155
f 153/153/153 20/20/20 155/155/155
f 155/155/155 20/20/20 156/156/156
f 21/21/21 160/160/160 156/156/156
f 152/152/152 155/155/155 162/162/162
f 149/149/149 87/87/87 162/162/162
f 147/147/147 89/89/89 149/149/149
f 162/162/162 160/160/160 149/149/149
f 162/162/162 156/156/156 160/160/160
f 149/149/149 160/160/160 161/161/161
f 64/64/64 66/66/66 61/61/61
f 59/59/59 64/64/64 61/61/61
f 128/128/128 157/157/157 130/130/130
f 61/61/61 67/67/67 130/130/130
f 163/163/163 60/60/60 130/130/130
f 163/163/163 130/130/130 157/157/157
f 158/158/158 163/163/163 157/157/157
f 157/157/157 131/131/131 158/158/158
f 156/156/156 13/13/13 21/21/21
f 158/158/158 159/159/159 21/21/21
f 22/22/22 163/163/163 21/21/21
f 158/158/158 21/21/21 163/163/163
f 59/59/59 60/60/60 22/22/22
f 9/9/9 63/63/63 22/22/22
f 61/61/61 130/130/130 60/60/60
f 163/163/163 22/22/22 60/60/60
f 33/33/33 145/145/145 36/36/36
f 34/34/34 32/32/32 36/36/36
f 164/164/164 35/35/35 143/143/143
f 145/145/145 141/141/141 143/143/143
f 142/142/142 146/146/146 144/144/144
f 148/148/148 164/164/164 144/144/144
f 164/164/164 143/143/143 144/144/144
f 161/161/161 79/79/79 147/147/147
f 148/148/148 146/146/146 147/147/147
f 79/79/79 164/164/164 147/147/147
f 149/149/149 161/161/161 147/147/147
f 148/148/148 147/147/147 164/164/164
f 34/34/34 35/35/35 79/79/79
f 161/161/161 81/81/81 79/79/79
f 36/36/36 143/143/143 35/35/35
f 164/164/164 79/79/79 35/35/35
