# GloomhavenVR - generic-trigger-squeeze-thumbstick right 'thumbstick' (glTF material 0)
# generated by controllers_pipeline.py from webxr-input-profiles (MIT)
o generic_right_thumbstick__m0
v 0.003053 0.012889 0.022671
v 0.002788 0.011054 0.023356
v 0.002690 0.012751 0.023688
v 0.003053 0.014322 0.023605
v 0.003235 0.014488 0.023094
v 0.002817 0.013553 0.020645
v 0.002581 0.015323 0.020548
v 0.002221 0.014017 0.019821
v 0.003078 0.015009 0.021502
v 0.002909 0.015178 0.020987
v 0.003319 0.011740 0.021252
v 0.003116 0.013405 0.021681
v 0.001343 0.015681 0.019466
v 0.001372 0.014051 0.019139
v 0.001798 0.015575 0.019787
v 0.001372 0.014051 0.019139
v 0.000345 0.014352 0.018817
v 0.000508 0.012772 0.018127
v 0.001576 0.012588 0.018531
v 0.000805 0.015740 0.019294
v -0.000866 0.015806 0.019111
v -0.001794 0.014283 0.019054
v -0.000728 0.014193 0.018729
v -0.000299 0.015802 0.019117
v -0.001761 0.012725 0.018299
v -0.000637 0.012761 0.018027
v -0.002874 0.015504 0.020059
v -0.002683 0.013925 0.019571
v -0.002412 0.015604 0.019747
v -0.003492 0.012271 0.019706
v -0.002741 0.012499 0.018856
v -0.003213 0.015364 0.020492
v -0.003380 0.013836 0.020440
v -0.003915 0.014891 0.021947
v -0.003745 0.013350 0.021344
v -0.003733 0.015057 0.021436
v -0.004023 0.011586 0.021811
v -0.003932 0.011900 0.020701
v -0.003921 0.014714 0.022486
v -0.003807 0.013181 0.022448
v -0.003592 0.014200 0.024057
v -0.003510 0.012686 0.023371
v -0.003759 0.014369 0.023541
v -0.003260 0.014056 0.024493
v -0.002064 0.012189 0.024876
v -0.002475 0.013805 0.025252
v -0.002023 0.013697 0.025575
v -0.003151 0.010929 0.023808
v -0.002911 0.012570 0.024308
v -0.002064 0.012189 0.024876
v -0.002023 0.013697 0.025575
v -0.001485 0.013639 0.025747
v 0.000187 0.013573 0.025930
v 0.001104 0.012303 0.025075
v 0.000037 0.012046 0.025286
v -0.000381 0.013577 0.025924
v -0.001211 0.010553 0.024936
v -0.001036 0.012234 0.025311
v 0.001991 0.012314 0.024444
v 0.001732 0.013774 0.025295
v 0.002195 0.013875 0.024982
v 0.002533 0.014015 0.024549
v 0.000700 0.012212 0.017306
v 0.001945 0.012044 0.017805
v 0.000905 0.012128 0.016417
v 0.002393 0.011927 0.017013
v -0.002654 0.009786 0.024768
v -0.004318 0.009563 0.024325
v -0.003668 0.010067 0.023921
v -0.002279 0.010651 0.024502
v -0.001409 0.009618 0.025267
v -0.002654 0.009786 0.024768
v 0.001106 0.011975 0.015518
v 0.002835 0.011742 0.016211
v 0.001303 0.011750 0.014616
v 0.003265 0.011485 0.015402
v -0.003550 0.008607 0.025879
v -0.005583 0.008368 0.025044
v -0.004958 0.008997 0.024702
v -0.003105 0.009227 0.025339
v -0.003105 0.009227 0.025339
v -0.001616 0.009026 0.025935
v -0.003550 0.008607 0.025879
v -0.001821 0.008374 0.026571
v 0.001492 0.011448 0.013719
v 0.003680 0.011153 0.014596
v 0.001670 0.011065 0.012840
v 0.004072 0.010741 0.013801
v -0.004403 0.007183 0.026835
v -0.006756 0.006926 0.025599
v -0.006186 0.007677 0.025345
v -0.003984 0.007925 0.026380
v -0.003984 0.007925 0.026380
v -0.002021 0.007660 0.027166
v -0.004403 0.007183 0.026835
v -0.002215 0.006888 0.027712
v 0.001835 0.010601 0.011990
v 0.004433 0.010251 0.013031
v 0.001982 0.010058 0.011186
v -0.004799 0.006384 0.027234
v -0.007284 0.006123 0.025797
v -0.004799 0.006384 0.027234
v -0.002567 0.005186 0.028608
v -0.005166 0.005536 0.027567
v -0.002398 0.006060 0.028196
v 0.004758 0.009684 0.012298
v 0.002109 0.009442 0.010440
v 0.005039 0.009047 0.011614
v -0.005496 0.004648 0.027825
v -0.005166 0.005536 0.027567
v -0.005783 0.003732 0.028001
v -0.008170 0.004394 0.026006
v -0.007758 0.005275 0.025935
v -0.005496 0.004648 0.027825
v -0.002853 0.003337 0.029174
v -0.005783 0.003732 0.028001
v -0.002749 0.016361 0.029020
v -0.004078 0.016268 0.029320
v -0.003593 0.016506 0.028586
v -0.003108 0.016102 0.029818
v -0.003364 0.015133 0.030124
v -0.004427 0.014135 0.029195
v -0.004423 0.015315 0.029580
v -0.002827 0.013235 0.028160
v -0.002023 0.013697 0.025575
v -0.003694 0.013385 0.027714
v -0.003369 0.013954 0.029738
v 0.002096 0.019860 0.018258
v 0.003425 0.019953 0.017959
v 0.002940 0.019715 0.018692
v 0.002705 0.019517 0.016641
v 0.002455 0.020120 0.017460
v 0.002700 0.018338 0.016255
v 0.003763 0.019335 0.017184
v 0.002150 0.016830 0.017106
v 0.001343 0.015681 0.019466
v 0.003017 0.016681 0.017551
v 0.003759 0.018156 0.016799
v 0.004306 0.016835 0.027486
v -0.000330 0.017225 0.023349
v 0.004874 0.017077 0.026738
v 0.005332 0.017338 0.025935
v 0.004959 0.019072 0.020635
v 0.004387 0.019317 0.019892
v 0.003725 0.019536 0.019231
v 0.002940 0.019715 0.018692
v 0.002096 0.019860 0.018258
v 0.001173 0.019956 0.017976
v 0.000228 0.020013 0.017812
v -0.000740 0.020016 0.017815
v -0.001693 0.019980 0.017936
v -0.005985 0.018883 0.021343
v -0.006282 0.018598 0.022220
v -0.006457 0.018305 0.023118
v -0.006454 0.018004 0.024040
v -0.006326 0.017708 0.024943
v -0.006026 0.017420 0.025819
v -0.005623 0.017146 0.026654
v -0.005041 0.016904 0.027386
v 0.000087 0.016205 0.029463
v 0.001040 0.016241 0.029342
v 0.001960 0.016332 0.029054
v 0.002827 0.016457 0.028659
v 0.003610 0.016632 0.028115
v 0.005629 0.017624 0.025058
v 0.005373 0.018801 0.021459
v -0.003481 0.019764 0.018619
v -0.002614 0.019890 0.018224
v -0.005527 0.019144 0.020540
v -0.000882 0.016208 0.029466
v -0.001827 0.016265 0.029302
v -0.004960 0.019386 0.019793
v -0.004263 0.019589 0.019163
v -0.002749 0.016361 0.029020
v -0.003593 0.016506 0.028586
v -0.004364 0.016688 0.028038
v 0.005803 0.017917 0.024160
v 0.005801 0.018218 0.023239
v 0.005675 0.018514 0.022334
v 0.004306 0.016835 0.027486
v 0.005645 0.016924 0.027198
v 0.004993 0.016646 0.028055
v 0.004194 0.016413 0.028779
v 0.003610 0.016632 0.028115
v 0.005332 0.017338 0.025935
v 0.006512 0.017552 0.025268
v 0.006170 0.017224 0.026275
v 0.004874 0.017077 0.026738
v 0.005803 0.017917 0.024160
v 0.005629 0.017624 0.025058
v 0.006710 0.018234 0.023179
v 0.006712 0.017888 0.024237
v 0.005373 0.018801 0.021459
v 0.004959 0.019072 0.020635
v 0.006218 0.018904 0.021135
v 0.005675 0.018514 0.022334
v 0.006565 0.018574 0.022140
v 0.005801 0.018218 0.023239
v 0.005086 0.019496 0.019336
v 0.005742 0.019215 0.020190
v 0.003725 0.019536 0.019231
v 0.004326 0.019747 0.018577
v 0.002096 0.019860 0.018258
v 0.001396 0.020230 0.017137
v 0.002455 0.020120 0.017460
v 0.000228 0.020013 0.017812
v -0.000802 0.020299 0.016952
v 0.000311 0.020296 0.016948
v 0.001173 0.019956 0.017976
v -0.001693 0.019980 0.017936
v -0.000740 0.020016 0.017815
v -0.002953 0.020153 0.017421
v -0.001895 0.020258 0.017091
v -0.004263 0.019589 0.019163
v -0.004960 0.019386 0.019793
v -0.004847 0.019809 0.018499
v -0.003481 0.019764 0.018619
v -0.002614 0.019890 0.018224
v -0.003948 0.020009 0.017875
v -0.005527 0.019144 0.020540
v -0.005985 0.018883 0.021343
v -0.006298 0.019297 0.020080
v -0.005646 0.019575 0.019222
v -0.006824 0.018998 0.021003
v -0.007165 0.018670 0.022010
v -0.006457 0.018305 0.023118
v -0.007363 0.017988 0.024099
v -0.007366 0.018334 0.023041
v -0.006326 0.017708 0.024943
v -0.006454 0.018004 0.024040
v -0.006872 0.017318 0.026143
v -0.007215 0.017648 0.025137
v -0.005041 0.016904 0.027386
v -0.004962 0.016478 0.028690
v -0.005740 0.016725 0.027942
v -0.005623 0.017146 0.026654
v -0.006408 0.017003 0.027101
v -0.006026 0.017420 0.025819
v -0.004364 0.016688 0.028038
v -0.001827 0.016265 0.029302
v -0.000882 0.016208 0.029466
v -0.002049 0.015992 0.030141
v -0.002749 0.016361 0.029020
v -0.003108 0.016102 0.029818
v -0.000964 0.015926 0.030330
v 0.000149 0.015923 0.030326
v 0.001040 0.016241 0.029342
v 0.002300 0.016068 0.029857
v 0.001242 0.015964 0.030187
v 0.002827 0.016457 0.028659
v 0.001960 0.016332 0.029054
v 0.003295 0.016212 0.029404
v 0.006759 0.016357 0.026259
v 0.006186 0.016030 0.027265
v 0.005475 0.015727 0.028201
v 0.007132 0.016715 0.025160
v 0.007350 0.017082 0.024035
v 0.007347 0.017459 0.022881
v 0.007189 0.017831 0.021746
v 0.006811 0.018190 0.020650
v 0.004747 0.019111 0.017860
v 0.005576 0.018837 0.018688
v 0.004387 0.019317 0.019892
v 0.006292 0.018530 0.019619
v 0.001550 0.019637 0.016288
v 0.002705 0.019517 0.016641
v -0.000848 0.019712 0.016086
v 0.000366 0.019709 0.016082
v -0.004281 0.019396 0.017093
v -0.003195 0.019554 0.016598
v -0.002041 0.019667 0.016237
v -0.006134 0.018923 0.018564
v -0.005262 0.019177 0.017774
v -0.007419 0.018293 0.020506
v -0.006845 0.018620 0.019499
v -0.006282 0.018598 0.022220
v -0.007791 0.017935 0.021604
v -0.005388 0.015543 0.028893
v -0.006236 0.015813 0.028077
v -0.006965 0.016116 0.027159
v -0.002209 0.015013 0.030477
v -0.003364 0.015133 0.030124
v 0.000087 0.016205 0.029463
v -0.001025 0.014941 0.030683
v 0.000189 0.014938 0.030679
v 0.001382 0.014983 0.030527
v 0.002536 0.015096 0.030167
v 0.004602 0.015472 0.028990
v 0.003622 0.015254 0.029672
v 0.006755 0.015178 0.025873
v 0.006181 0.014851 0.026880
v 0.005470 0.014548 0.027815
v 0.007127 0.015535 0.024775
v 0.007345 0.015903 0.023649
v 0.007343 0.016280 0.022495
v 0.007185 0.016651 0.021361
v 0.004742 0.017931 0.017474
v 0.005572 0.017657 0.018302
v 0.006288 0.017350 0.019233
v 0.006807 0.017011 0.020265
v 0.001545 0.018458 0.015902
v 0.002700 0.018338 0.016255
v -0.000853 0.018533 0.015700
v 0.000361 0.018530 0.015696
v -0.003200 0.018375 0.016213
v -0.002046 0.018488 0.015852
v -0.004286 0.018217 0.016707
v -0.008010 0.017568 0.022730
v -0.008015 0.016389 0.022345
v -0.007796 0.016756 0.021219
v -0.008007 0.017191 0.023884
v -0.007845 0.016820 0.025017
v -0.007850 0.015641 0.024631
v -0.008011 0.016012 0.023498
v -0.007471 0.016460 0.026114
v -0.006969 0.014937 0.026773
v -0.007475 0.015280 0.025729
v -0.006240 0.014634 0.027692
v -0.005392 0.014364 0.028507
v -0.003369 0.013954 0.029738
v -0.001030 0.013762 0.030297
v -0.002213 0.013834 0.030091
v 0.001377 0.013804 0.030141
v 0.000184 0.013759 0.030293
v 0.003617 0.014074 0.029286
v 0.002531 0.013917 0.029781
v 0.004598 0.014293 0.028605
v 0.005004 0.013971 0.025817
v 0.004420 0.013723 0.026584
v 0.005474 0.014239 0.024991
v 0.005958 0.014834 0.023168
v 0.005779 0.014533 0.024090
v 0.005826 0.015447 0.021292
v 0.005956 0.015143 0.022222
v 0.005091 0.016020 0.019547
v 0.005516 0.015742 0.020393
v 0.003824 0.016497 0.018105
v 0.004504 0.016272 0.018784
v 0.001202 0.016928 0.016816
v 0.002150 0.016830 0.017106
v 0.000232 0.016987 0.016647
v -0.000764 0.016990 0.016651
v -0.001742 0.016953 0.016775
v -0.003578 0.016731 0.017476
v -0.002688 0.016860 0.017071
v -0.005266 0.017998 0.017389
v -0.005098 0.016343 0.018682
v -0.004382 0.016552 0.018035
v -0.006139 0.017743 0.018178
v -0.006850 0.017440 0.019114
v -0.006151 0.015826 0.020275
v -0.005681 0.016094 0.019449
v -0.007423 0.017113 0.020121
v -0.006636 0.015232 0.022098
v -0.006456 0.015533 0.021175
v -0.006633 0.014923 0.023044
v -0.006501 0.014619 0.023973
v -0.006194 0.014323 0.024873
v -0.005779 0.014042 0.025730
v -0.005181 0.013793 0.026482
v -0.004485 0.013572 0.027151
v -0.002827 0.013235 0.028160
v -0.000909 0.013078 0.028619
v -0.001879 0.013137 0.028450
v 0.001065 0.013112 0.028491
v 0.000087 0.013075 0.028615
v 0.002901 0.013334 0.027790
v 0.002011 0.013205 0.028195
v 0.003705 0.013514 0.027231
v 0.002872 0.014155 0.024116
v 0.002533 0.014015 0.024549
v 0.002195 0.013875 0.024982
v 0.003235 0.014488 0.023094
v 0.003053 0.014322 0.023605
v 0.003241 0.014664 0.022555
v 0.003247 0.014840 0.022016
v 0.003078 0.015009 0.021502
v 0.002909 0.015178 0.020987
v 0.002581 0.015323 0.020548
v 0.002253 0.015468 0.020109
v 0.001798 0.015575 0.019787
v 0.000268 0.015798 0.019122
v 0.000805 0.015740 0.019294
v 0.001343 0.015681 0.019466
v -0.000299 0.015802 0.019117
v -0.000866 0.015806 0.019111
v -0.001408 0.015755 0.019273
v -0.001949 0.015705 0.019434
v -0.002412 0.015604 0.019747
v -0.002874 0.015504 0.020059
v -0.003213 0.015364 0.020492
v -0.003552 0.015223 0.020925
v -0.003733 0.015057 0.021436
v -0.003915 0.014891 0.021947
v -0.003927 0.014538 0.023025
v -0.003921 0.014714 0.022486
v -0.003592 0.014200 0.024057
v -0.003759 0.014369 0.023541
v -0.002928 0.013912 0.024930
v -0.003260 0.014056 0.024493
v -0.002475 0.013805 0.025252
v -0.001485 0.013639 0.025747
v -0.002023 0.013697 0.025575
v -0.000948 0.013581 0.025919
v -0.000381 0.013577 0.025924
v 0.000187 0.013573 0.025930
v 0.000728 0.013623 0.025768
v 0.001269 0.013674 0.025607
v 0.001732 0.013774 0.025295
v 0.002872 0.014155 0.024116
v 0.003241 0.014664 0.022555
v 0.003247 0.014840 0.022016
v 0.002253 0.015468 0.020109
v 0.002448 0.012396 0.019254
v 0.001576 0.012588 0.018531
v 0.000268 0.015798 0.019122
v 0.001343 0.015681 0.019466
v -0.001949 0.015705 0.019434
v -0.001408 0.015755 0.019273
v -0.003552 0.015223 0.020925
v -0.003927 0.014538 0.023025
v -0.002928 0.013912 0.024930
v -0.000948 0.013581 0.025919
v 0.000728 0.013623 0.025768
v 0.001269 0.013674 0.025607
v 0.002038 0.010740 0.024178
v 0.001058 0.010601 0.024763
v 0.003301 0.010189 0.023465
v 0.002957 0.009333 0.024943
v 0.002416 0.009874 0.024437
v 0.003837 0.010572 0.022285
v 0.003229 0.011339 0.022333
v 0.003953 0.010991 0.021005
v 0.004794 0.010667 0.020840
v 0.004015 0.009708 0.023781
v 0.003657 0.011401 0.019752
v 0.003606 0.011591 0.018027
v 0.004440 0.011158 0.019341
v 0.003052 0.012045 0.020176
v 0.002959 0.011764 0.018653
v 0.001945 0.012044 0.017805
v -0.000646 0.012256 0.017188
v -0.001962 0.012166 0.017480
v -0.000704 0.012180 0.016276
v -0.003668 0.011821 0.017410
v -0.002278 0.012072 0.016625
v -0.004010 0.011642 0.019108
v -0.003125 0.011956 0.018136
v -0.004727 0.011445 0.018571
v -0.004546 0.011258 0.020288
v -0.005506 0.010487 0.021513
v -0.005367 0.010987 0.019982
v -0.004662 0.010840 0.021568
v -0.003756 0.011194 0.022858
v -0.004366 0.010429 0.022821
v -0.002279 0.010651 0.024502
v -0.000066 0.010477 0.025007
v -0.000063 0.009574 0.025386
v -0.000008 0.008974 0.026077
v 0.001253 0.009665 0.025093
v 0.001566 0.009082 0.025727
v 0.005462 0.009699 0.022431
v 0.005404 0.008560 0.024326
v 0.004718 0.009166 0.024069
v 0.004656 0.010167 0.022370
v 0.005623 0.010279 0.020654
v 0.004008 0.008065 0.025858
v 0.003489 0.008730 0.025419
v 0.005212 0.010850 0.018914
v 0.004865 0.011042 0.016739
v 0.005965 0.010472 0.018472
v 0.006249 0.009165 0.022466
v 0.006431 0.009824 0.020448
v 0.004243 0.011352 0.017388
v 0.002393 0.011927 0.017013
v 0.002835 0.011742 0.016211
v -0.002589 0.011911 0.015760
v -0.000762 0.012037 0.015354
v -0.000818 0.011819 0.014430
v -0.002894 0.011677 0.014891
v -0.004727 0.011346 0.015925
v -0.005433 0.011183 0.018020
v -0.004204 0.011619 0.016671
v -0.006122 0.010850 0.017457
v -0.006967 0.010246 0.019317
v -0.006177 0.010650 0.019658
v -0.007149 0.009587 0.021335
v -0.006338 0.010070 0.021435
v -0.005152 0.009996 0.023011
v -0.005927 0.009500 0.023175
v 0.000047 0.008313 0.026735
v 0.001875 0.008438 0.026329
v 0.000100 0.007591 0.027353
v 0.002175 0.007734 0.026892
v 0.007006 0.008565 0.022471
v 0.006688 0.007161 0.024720
v 0.006064 0.007891 0.024545
v 0.004981 0.006555 0.026595
v 0.004508 0.007339 0.026253
v 0.006690 0.010022 0.018018
v 0.006028 0.010199 0.015437
v 0.007375 0.009500 0.017557
v 0.007209 0.009300 0.020221
v 0.007722 0.007901 0.022444
v 0.007945 0.008708 0.019975
v 0.005463 0.010659 0.016086
v 0.003265 0.011485 0.015402
v 0.003680 0.011153 0.014596
v 0.004072 0.010741 0.013801
v -0.003187 0.011366 0.014025
v -0.000873 0.011525 0.013511
v -0.000926 0.011150 0.012611
v -0.003465 0.010975 0.013175
v -0.005708 0.010570 0.014440
v -0.006787 0.010444 0.016886
v -0.005231 0.010997 0.015178
v -0.007415 0.009964 0.016315
v -0.007932 0.009035 0.021210
v -0.007729 0.009770 0.018960
v -0.008449 0.009224 0.018591
v -0.008673 0.008417 0.021061
v -0.006683 0.008939 0.023311
v -0.007412 0.008313 0.023413
v 0.000151 0.006811 0.027920
v 0.002464 0.006970 0.027406
v 0.002738 0.006150 0.027861
v 0.000198 0.005976 0.028425
v 0.007265 0.006377 0.024847
v 0.008977 0.006402 0.022288
v 0.007782 0.005546 0.024919
v 0.005417 0.005721 0.026875
v 0.008384 0.007178 0.022384
v 0.008008 0.008908 0.017095
v 0.009235 0.007334 0.019434
v 0.008625 0.008050 0.019711
v 0.007020 0.009057 0.014188
v 0.008576 0.008250 0.016639
v 0.006551 0.009664 0.014801
v 0.004433 0.010251 0.013031
v 0.004758 0.009684 0.012298
v -0.000974 0.010693 0.011743
v -0.003722 0.010504 0.012353
v -0.001019 0.010157 0.010921
v -0.006547 0.009487 0.013036
v -0.003954 0.009955 0.011574
v -0.007997 0.009410 0.015751
v -0.006150 0.010066 0.013723
v -0.008520 0.008786 0.015203
v -0.009116 0.008609 0.018214
v -0.009716 0.007930 0.017834
v -0.009358 0.007736 0.020886
v -0.008102 0.007625 0.023478
v -0.008740 0.006879 0.023502
v -0.009974 0.006998 0.020689
v 0.000242 0.005094 0.028855
v -0.002720 0.004274 0.028937
v 0.002990 0.005283 0.028245
v 0.000280 0.004176 0.029201
v 0.003216 0.004378 0.028549
v 0.008231 0.004680 0.024934
v 0.005809 0.004846 0.027086
v 0.009492 0.005583 0.022157
v 0.009764 0.006567 0.019145
v 0.009068 0.007534 0.016196
v 0.007426 0.008386 0.013609
v 0.005039 0.009047 0.011614
v -0.001058 0.009546 0.010161
v -0.004155 0.009333 0.010850
v -0.008975 0.008099 0.014681
v -0.006892 0.008839 0.012394
v -0.010236 0.007196 0.017457
v -0.010508 0.006213 0.020470
v -0.009314 0.006082 0.023483
v -0.009813 0.005246 0.023419
v 0.000313 0.003234 0.029453
v 0.003411 0.003447 0.028765
v 0.006148 0.003941 0.027221
vt 0.788749 0.267379
vt 0.807793 0.263538
vt 0.795023 0.274747
vt 0.782162 0.280402
vt 0.778790 0.278016
vt 0.771357 0.257941
vt 0.759029 0.268439
vt 0.761167 0.255962
vt 0.767488 0.271742
vt 0.763351 0.270111
vt 0.789376 0.249787
vt 0.779409 0.263420
vt 0.745533 0.262697
vt 0.753139 0.250332
vt 0.750120 0.264732
vt 0.869712 0.096074
vt 0.860970 0.100871
vt 0.857060 0.085743
vt 0.865475 0.082247
vt 0.869199 0.111301
vt 0.855807 0.115290
vt 0.842528 0.106454
vt 0.851118 0.101708
vt 0.860128 0.113996
vt 0.835888 0.090997
vt 0.846370 0.087179
vt 0.840295 0.122064
vt 0.833238 0.109427
vt 0.843877 0.119980
vt 0.816221 0.102687
vt 0.825474 0.095710
vt 0.836828 0.124293
vt 0.826223 0.116386
vt 0.828045 0.132775
vt 0.818342 0.121951
vt 0.830704 0.129648
vt 0.800878 0.119795
vt 0.807603 0.110385
vt 0.825428 0.136106
vt 0.813591 0.130879
vt 0.818928 0.147385
vt 0.807468 0.138385
vt 0.820869 0.143411
vt 0.816928 0.151535
vt 0.798471 0.155554
vt 0.812465 0.160041
vt 0.810002 0.164396
vt 0.791633 0.139710
vt 0.804692 0.148242
vt 0.819387 0.316215
vt 0.805998 0.321718
vt 0.804157 0.317118
vt 0.798912 0.304148
vt 0.806465 0.290097
vt 0.812012 0.298218
vt 0.800614 0.308333
vt 0.828494 0.302655
vt 0.813779 0.307953
vt 0.802625 0.281110
vt 0.793087 0.292685
vt 0.790664 0.289300
vt 0.788099 0.286044
vt 0.856628 0.075637
vt 0.869016 0.075509
vt 0.857960 0.067975
vt 0.872556 0.068771
vt 0.779807 0.149018
vt 0.774584 0.136833
vt 0.782238 0.136853
vt 0.832776 0.310712
vt 0.838531 0.301284
vt 0.839836 0.313608
vt 0.859342 0.060178
vt 0.875983 0.061299
vt 0.860674 0.052282
vt 0.879410 0.053827
vt 0.764770 0.153362
vt 0.758794 0.136716
vt 0.766747 0.136815
vt 0.772676 0.151323
vt 0.846896 0.316504
vt 0.846296 0.301893
vt 0.854674 0.319209
vt 0.854201 0.302536
vt 0.861860 0.044326
vt 0.882355 0.046019
vt 0.862882 0.036324
vt 0.885301 0.038211
vt 0.748680 0.156893
vt 0.742757 0.136018
vt 0.750790 0.136454
vt 0.756864 0.155402
vt 0.862452 0.321915
vt 0.862197 0.303117
vt 0.870517 0.324102
vt 0.870238 0.303542
vt 0.863724 0.028295
vt 0.887689 0.030253
vt 0.864394 0.020248
vt 0.740497 0.158384
vt 0.734718 0.135394
vt 0.878581 0.326288
vt 0.886385 0.303868
vt 0.886737 0.327900
vt 0.878307 0.303797
vt 0.890077 0.022296
vt 0.864902 0.012194
vt 0.891943 0.014308
vt 0.724006 0.160211
vt 0.732252 0.159298
vt 0.715815 0.160616
vt 0.718657 0.133633
vt 0.726682 0.134595
vt 0.894892 0.329511
vt 0.902530 0.303493
vt 0.903025 0.330594
vt 0.759459 0.479951
vt 0.771041 0.477011
vt 0.767243 0.484277
vt 0.762514 0.471987
vt 0.767085 0.462728
vt 0.782142 0.459355
vt 0.775612 0.468656
vt 0.788676 0.440620
vt 0.813858 0.431074
vt 0.794189 0.447469
vt 0.774338 0.452437
vt 0.468915 0.497823
vt 0.480243 0.494026
vt 0.477029 0.501480
vt 0.475107 0.480078
vt 0.471330 0.489679
vt 0.481496 0.469185
vt 0.484075 0.485319
vt 0.494886 0.456241
vt 0.519106 0.444804
vt 0.500933 0.462624
vt 0.489826 0.475427
vt 0.412589 0.046835
vt 0.358802 0.056466
vt 0.410297 0.038541
vt 0.406977 0.030684
vt 0.366261 0.002338
vt 0.357667 0.001953
vt 0.349170 0.002683
vt 0.340878 0.004972
vt 0.333021 0.008291
vt 0.325840 0.013030
vt 0.319393 0.018616
vt 0.314032 0.025341
vt 0.309627 0.032647
vt 0.310627 0.082248
vt 0.315367 0.089426
vt 0.320948 0.095876
vt 0.327679 0.101237
vt 0.334986 0.105620
vt 0.343036 0.108662
vt 0.351364 0.110732
vt 0.359937 0.110979
vt 0.403572 0.087590
vt 0.407978 0.080287
vt 0.410998 0.072232
vt 0.412931 0.063924
vt 0.413315 0.055330
vt 0.402238 0.023507
vt 0.374569 0.004271
vt 0.304672 0.049007
vt 0.306606 0.040700
vt 0.307305 0.074391
vt 0.398211 0.094318
vt 0.391763 0.099901
vt 0.305017 0.066099
vt 0.304288 0.057601
vt 0.384584 0.104642
vt 0.376727 0.107960
vt 0.368450 0.110095
vt 0.396652 0.017058
vt 0.389925 0.011697
vt 0.382623 0.007291
vt 0.591417 0.530466
vt 0.579427 0.523801
vt 0.590127 0.522415
vt 0.600602 0.520299
vt 0.602406 0.527845
vt 0.568733 0.532368
vt 0.557925 0.523858
vt 0.568718 0.524212
vt 0.580050 0.531534
vt 0.546043 0.530595
vt 0.557331 0.531592
vt 0.536737 0.520462
vt 0.547300 0.522539
vt 0.513679 0.521051
vt 0.503594 0.516785
vt 0.516492 0.513801
vt 0.524075 0.525255
vt 0.526516 0.517479
vt 0.534958 0.528015
vt 0.497717 0.504445
vt 0.506962 0.509361
vt 0.485313 0.506458
vt 0.488944 0.499132
vt 0.958319 0.495777
vt 0.947227 0.491161
vt 0.956561 0.487452
vt 0.941269 0.503157
vt 0.928971 0.500244
vt 0.938214 0.495575
vt 0.949859 0.498837
vt 0.922214 0.512065
vt 0.931902 0.507514
vt 0.909509 0.508117
vt 0.919441 0.504399
vt 0.889970 0.520849
vt 0.878801 0.522552
vt 0.888798 0.513179
vt 0.901124 0.518926
vt 0.911743 0.515563
vt 0.899308 0.510981
vt 0.867387 0.522673
vt 0.856039 0.522569
vt 0.867405 0.514917
vt 0.878186 0.514421
vt 0.856700 0.514440
vt 0.845973 0.513192
vt 0.833575 0.518922
vt 0.825136 0.508053
vt 0.835493 0.510997
vt 0.812132 0.511810
vt 0.822739 0.515434
vt 0.805502 0.499760
vt 0.815197 0.504255
vt 0.783387 0.495635
vt 0.779263 0.482842
vt 0.787598 0.488857
vt 0.792370 0.501570
vt 0.796369 0.494440
vt 0.802121 0.506772
vt 0.775182 0.489604
vt 0.660268 0.500950
vt 0.652065 0.505963
vt 0.657009 0.493517
vt 0.668443 0.497198
vt 0.666003 0.489049
vt 0.648391 0.498660
vt 0.639566 0.504081
vt 0.633813 0.516418
vt 0.620825 0.513535
vt 0.630414 0.509010
vt 0.613361 0.525005
vt 0.623665 0.520773
vt 0.610895 0.517236
vt 0.568687 0.515005
vt 0.578730 0.514797
vt 0.588697 0.513326
vt 0.558614 0.514853
vt 0.548668 0.513442
vt 0.538759 0.511667
vt 0.529158 0.508687
vt 0.519651 0.505352
vt 0.492939 0.490796
vt 0.501587 0.496245
vt 0.494230 0.511470
vt 0.510581 0.500949
vt 0.944063 0.482193
vt 0.953638 0.477516
vt 0.925761 0.491760
vt 0.934831 0.486975
vt 0.897336 0.502013
vt 0.907051 0.499435
vt 0.916465 0.495736
vt 0.877510 0.505246
vt 0.887506 0.504247
vt 0.857427 0.505262
vt 0.867456 0.505888
vt 0.844740 0.520852
vt 0.847407 0.504277
vt 0.783853 0.474928
vt 0.792151 0.480931
vt 0.800669 0.486385
vt 0.653113 0.484842
vt 0.662268 0.479386
vt 0.643089 0.511083
vt 0.644310 0.490371
vt 0.635666 0.495890
vt 0.626730 0.500624
vt 0.617655 0.505089
vt 0.598576 0.511502
vt 0.608187 0.508463
vt 0.568698 0.504289
vt 0.577849 0.503810
vt 0.587098 0.502742
vt 0.559411 0.503861
vt 0.550291 0.502865
vt 0.541166 0.500950
vt 0.532268 0.498499
vt 0.498182 0.481398
vt 0.506469 0.486530
vt 0.514907 0.491276
vt 0.523470 0.495129
vt 0.939080 0.471859
vt 0.947757 0.466232
vt 0.921649 0.481659
vt 0.930415 0.477103
vt 0.904014 0.488931
vt 0.912979 0.485695
vt 0.895105 0.491582
vt 0.837608 0.502044
vt 0.840099 0.491642
vt 0.849106 0.493388
vt 0.827876 0.499454
vt 0.818565 0.495703
vt 0.822511 0.485788
vt 0.831166 0.488975
vt 0.809367 0.491593
vt 0.805751 0.477172
vt 0.814020 0.481702
vt 0.797779 0.471721
vt 0.789925 0.465774
vt 0.655472 0.468630
vt 0.639091 0.480898
vt 0.647290 0.474954
vt 0.622425 0.490904
vt 0.630732 0.486165
vt 0.605100 0.498253
vt 0.613760 0.494872
vt 0.596083 0.500795
vt 0.576562 0.487741
vt 0.584600 0.486947
vt 0.568643 0.488260
vt 0.552681 0.487052
vt 0.560596 0.487785
vt 0.536999 0.483328
vt 0.544773 0.485325
vt 0.521838 0.477089
vt 0.529347 0.480369
vt 0.507481 0.468243
vt 0.514568 0.472885
vt 0.928940 0.458258
vt 0.935389 0.452264
vt 0.922092 0.463291
vt 0.914607 0.467437
vt 0.907141 0.471031
vt 0.891546 0.476102
vt 0.899284 0.473760
vt 0.885909 0.493370
vt 0.875611 0.478619
vt 0.883513 0.477513
vt 0.876792 0.494566
vt 0.867487 0.494864
vt 0.859601 0.478606
vt 0.867538 0.478745
vt 0.858326 0.494582
vt 0.843793 0.476081
vt 0.851623 0.477466
vt 0.836055 0.473702
vt 0.828488 0.471047
vt 0.821104 0.467471
vt 0.813799 0.463639
vt 0.807003 0.458757
vt 0.800376 0.453481
vt 0.641992 0.455735
vt 0.629654 0.467825
vt 0.636060 0.462241
vt 0.615392 0.476774
vt 0.622536 0.472576
vt 0.600269 0.483119
vt 0.607791 0.480145
vt 0.592383 0.485191
vt 0.571640 0.463495
vt 0.577564 0.462805
vt 0.583488 0.462116
vt 0.559688 0.463137
vt 0.565664 0.463316
vt 0.553826 0.462097
vt 0.547964 0.461056
vt 0.542403 0.459187
vt 0.536843 0.457319
vt 0.531862 0.454637
vt 0.526881 0.451956
vt 0.522994 0.448380
vt 0.908551 0.442394
vt 0.912048 0.438607
vt 0.915545 0.434820
vt 0.903799 0.445143
vt 0.899046 0.447893
vt 0.893607 0.449781
vt 0.888167 0.451670
vt 0.882363 0.452725
vt 0.876558 0.453780
vt 0.870599 0.453977
vt 0.864639 0.454175
vt 0.858697 0.453502
vt 0.852754 0.452828
vt 0.841248 0.449779
vt 0.847001 0.451304
vt 0.830431 0.445166
vt 0.835840 0.447473
vt 0.820972 0.438964
vt 0.825702 0.442065
vt 0.817415 0.435019
vt 0.617597 0.444055
vt 0.620769 0.439991
vt 0.614425 0.448119
vt 0.609916 0.451252
vt 0.605407 0.454386
vt 0.600145 0.456718
vt 0.594882 0.459049
vt 0.589185 0.460582
vt 0.785535 0.282787
vt 0.775208 0.275694
vt 0.771625 0.273372
vt 0.754707 0.266768
vt 0.768518 0.242203
vt 0.760744 0.237966
vt 0.864448 0.112701
vt 0.873949 0.109900
vt 0.847460 0.117895
vt 0.851633 0.116592
vt 0.833362 0.126521
vt 0.822810 0.139438
vt 0.814928 0.155686
vt 0.802315 0.312517
vt 0.797210 0.300109
vt 0.795509 0.296070
vt 0.815597 0.272119
vt 0.821263 0.282058
vt 0.816023 0.255776
vt 0.831524 0.261166
vt 0.824575 0.265918
vt 0.806000 0.247068
vt 0.799344 0.255647
vt 0.794818 0.240125
vt 0.797954 0.232476
vt 0.821951 0.249779
vt 0.782897 0.235218
vt 0.770141 0.225014
vt 0.784304 0.227314
vt 0.779284 0.244847
vt 0.770660 0.232614
vt 0.758265 0.231162
vt 0.844265 0.076921
vt 0.831950 0.080514
vt 0.843542 0.068815
vt 0.816041 0.078852
vt 0.829425 0.072560
vt 0.809247 0.093792
vt 0.820128 0.086208
vt 0.803824 0.087337
vt 0.799667 0.102984
vt 0.784438 0.109664
vt 0.793161 0.097710
vt 0.791752 0.113504
vt 0.795101 0.129371
vt 0.785832 0.124933
vt 0.786939 0.146712
vt 0.826053 0.292143
vt 0.836082 0.289092
vt 0.844092 0.287616
vt 0.831346 0.277164
vt 0.839036 0.273910
vt 0.815223 0.233197
vt 0.833620 0.238024
vt 0.827812 0.243868
vt 0.810649 0.240098
vt 0.801004 0.224881
vt 0.845238 0.251945
vt 0.838410 0.256522
vt 0.785613 0.219396
vt 0.768892 0.209296
vt 0.786908 0.211477
vt 0.819752 0.226356
vt 0.804021 0.217336
vt 0.769508 0.217220
vt 0.755786 0.224358
vt 0.753047 0.216699
vt 0.827028 0.064687
vt 0.842942 0.060745
vt 0.842371 0.052702
vt 0.824690 0.056880
vt 0.808132 0.064349
vt 0.798479 0.080959
vt 0.812055 0.071570
vt 0.793194 0.074640
vt 0.780314 0.087395
vt 0.786711 0.092525
vt 0.769930 0.102255
vt 0.777163 0.105935
vt 0.778098 0.122829
vt 0.770340 0.120822
vt 0.852078 0.286262
vt 0.846656 0.270788
vt 0.860037 0.284936
vt 0.854214 0.267731
vt 0.824265 0.219568
vt 0.845136 0.226468
vt 0.839391 0.232228
vt 0.858756 0.242871
vt 0.852017 0.247400
vt 0.788275 0.203571
vt 0.768124 0.193266
vt 0.789730 0.195677
vt 0.807057 0.209837
vt 0.828775 0.212821
vt 0.810127 0.202376
vt 0.768424 0.201305
vt 0.750308 0.209040
vt 0.748038 0.201038
vt 0.745768 0.193036
vt 0.822343 0.049124
vt 0.841733 0.044679
vt 0.841015 0.036670
vt 0.819974 0.041407
vt 0.800353 0.050051
vt 0.787954 0.068364
vt 0.804235 0.057180
vt 0.782747 0.062117
vt 0.762742 0.098563
vt 0.773966 0.082287
vt 0.767659 0.077187
vt 0.755591 0.094844
vt 0.762578 0.118827
vt 0.754833 0.116762
vt 0.867969 0.283544
vt 0.861719 0.264668
vt 0.869182 0.261584
vt 0.875878 0.282071
vt 0.850865 0.220733
vt 0.837828 0.199419
vt 0.856586 0.215014
vt 0.865467 0.238344
vt 0.833295 0.206107
vt 0.791287 0.187793
vt 0.816402 0.187533
vt 0.813242 0.194944
vt 0.768082 0.177122
vt 0.792942 0.179915
vt 0.768012 0.185202
vt 0.744076 0.184892
vt 0.742383 0.176749
vt 0.840202 0.028671
vt 0.817567 0.033717
vt 0.839301 0.020677
vt 0.792582 0.035868
vt 0.815124 0.026045
vt 0.777562 0.055887
vt 0.796469 0.042950
vt 0.772394 0.049667
vt 0.761382 0.072080
vt 0.755131 0.066963
vt 0.748467 0.091083
vt 0.747103 0.114613
vt 0.739388 0.112365
vt 0.741364 0.087279
vt 0.883766 0.280501
vt 0.894462 0.303763
vt 0.876614 0.258463
vt 0.891641 0.278841
vt 0.884024 0.255306
vt 0.862305 0.209306
vt 0.872158 0.233812
vt 0.842380 0.192750
vt 0.819607 0.180135
vt 0.794689 0.172039
vt 0.768327 0.169036
vt 0.741244 0.168580
vt 0.838318 0.012684
vt 0.812646 0.018381
vt 0.767238 0.043449
vt 0.788686 0.028798
vt 0.748900 0.061828
vt 0.734272 0.083432
vt 0.731683 0.110022
vt 0.723982 0.107591
vt 0.899505 0.277097
vt 0.891421 0.252113
vt 0.878835 0.229272
vn 0.977683 -0.025144 0.208574
vn 0.802690 0.177994 0.569217
vn 0.869218 -0.131428 0.476641
vn 0.418452 -0.899858 -0.123095
vn 0.464230 -0.864167 -0.194179
vn 0.912116 0.165867 -0.374877
vn 0.353824 -0.768490 -0.533135
vn 0.738359 0.231968 -0.633258
vn 0.433503 -0.813261 -0.388178
vn 0.424300 -0.773689 -0.470505
vn 0.935150 0.352695 0.033167
vn 0.993531 0.056187 -0.098692
vn 0.221079 -0.707120 -0.671644
vn 0.498195 0.309718 -0.809862
vn 0.281702 -0.739820 -0.610991
vn 0.498195 0.309718 -0.809862
vn 0.201264 0.328667 -0.922752
vn 0.215580 0.614451 -0.758930
vn 0.484560 0.588129 -0.647538
vn 0.128130 -0.718388 -0.683741
vn -0.067885 -0.690034 -0.720586
vn -0.412814 0.309386 -0.856659
vn -0.105996 0.351312 -0.930239
vn 0.021065 -0.707657 -0.706242
vn -0.361599 0.601467 -0.712379
vn -0.076962 0.630969 -0.771981
vn -0.332139 -0.728795 -0.598783
vn -0.669561 0.274996 -0.689975
vn -0.248967 -0.729113 -0.637503
vn -0.800087 0.485485 -0.352371
vn -0.608490 0.563388 -0.558868
vn -0.368531 -0.769381 -0.521764
vn -0.868990 0.181616 -0.460296
vn -0.470695 -0.808727 -0.352713
vn -0.977338 0.109774 -0.180996
vn -0.425047 -0.795795 -0.431331
vn -0.932670 0.310566 0.183507
vn -0.907173 0.411081 -0.089722
vn -0.449937 -0.850940 -0.271031
vn -0.993395 -0.006064 0.114582
vn -0.428905 -0.900092 -0.076654
vn -0.911610 -0.081832 0.402828
vn -0.440659 -0.882053 -0.166741
vn -0.358535 -0.933269 -0.021478
vn -0.498097 -0.224710 0.837499
vn -0.290549 -0.955121 0.057664
vn -0.228408 -0.965533 0.124802
vn -0.708172 0.143847 0.691231
vn -0.737591 -0.181699 0.650342
vn -0.498097 -0.224710 0.837499
vn -0.228408 -0.965533 0.124802
vn -0.134772 -0.982623 0.127628
vn 0.061331 -0.982884 0.173719
vn 0.412943 -0.259263 0.873076
vn 0.106230 -0.266721 0.957901
vn -0.027641 -0.988010 0.151895
vn -0.213072 0.049037 0.975805
vn -0.201128 -0.278427 0.939162
vn 0.669900 -0.190377 0.717628
vn 0.242352 -0.966611 0.083239
vn 0.325617 -0.944077 0.051881
vn 0.361924 -0.931574 -0.034367
vn 0.142443 0.951832 -0.271524
vn 0.306323 0.929608 -0.204930
vn 0.107583 0.987796 -0.112627
vn 0.230269 0.971111 -0.062615
vn -0.300277 0.631188 0.715147
vn -0.324345 0.775658 0.541438
vn -0.435324 0.667987 0.603561
vn -0.481932 0.095490 0.870990
vn -0.136427 0.608629 0.781638
vn -0.300277 0.631188 0.715147
vn 0.123410 0.975275 -0.183328
vn 0.264849 0.956067 -0.125658
vn 0.139343 0.956406 -0.256654
vn 0.299710 0.934656 -0.191292
vn -0.258416 0.699091 0.666704
vn -0.425233 0.679143 0.598282
vn -0.374562 0.730714 0.570755
vn -0.223598 0.748207 0.624652
vn -0.223598 0.748207 0.624652
vn -0.100926 0.731263 0.674587
vn -0.258416 0.699091 0.666704
vn -0.116986 0.679528 0.724262
vn 0.155277 0.930239 -0.332482
vn 0.334618 0.905940 -0.259428
vn 0.171014 0.895754 -0.410340
vn 0.369137 0.868939 -0.329671
vn -0.328824 0.580143 0.745191
vn -0.526364 0.553263 0.645632
vn -0.476036 0.620203 0.623488
vn -0.293565 0.643309 0.707088
vn -0.293565 0.643309 0.707088
vn -0.133208 0.621118 0.772313
vn -0.328824 0.580143 0.745191
vn -0.149493 0.555326 0.818086
vn 0.186204 0.852145 -0.489058
vn 0.402517 0.822895 -0.401030
vn 0.200471 0.798761 -0.567268
vn -0.363774 0.509003 0.780118
vn -0.575112 0.478247 0.663722
vn -0.363774 0.509003 0.780118
vn -0.181328 0.399988 0.898404
vn -0.397647 0.429909 0.810589
vn -0.165652 0.481585 0.860602
vn 0.433939 0.767202 -0.472332
vn 0.206564 0.771025 -0.602372
vn 0.447347 0.738563 -0.504385
vn -0.429607 0.343123 0.835287
vn -0.397647 0.429909 0.810589
vn -0.443275 0.301216 0.844261
vn -0.640785 0.354920 0.680755
vn -0.621078 0.395308 0.676752
vn -0.429607 0.343123 0.835287
vn -0.202503 0.267849 0.941939
vn -0.443275 0.301216 0.844261
vn 0.053679 0.978979 0.196772
vn -0.271824 0.685768 0.675154
vn 0.070846 0.975933 0.206240
vn -0.198141 0.670581 0.714886
vn -0.375634 -0.002378 0.926765
vn -0.477349 -0.677960 0.559024
vn -0.516221 0.021967 0.856174
vn -0.160929 -0.984315 0.072291
vn -0.228408 -0.965533 0.124802
vn -0.223676 -0.973894 0.038713
vn -0.348262 -0.698802 0.624811
vn -0.046390 0.906519 0.419609
vn 0.273365 0.951564 -0.140702
vn -0.063626 0.909803 0.410135
vn 0.377739 0.542867 -0.750072
vn 0.204469 0.961943 -0.181267
vn 0.344852 -0.197198 -0.917709
vn 0.511383 0.521654 -0.682909
vn 0.154172 -0.752673 -0.640089
vn 0.221079 -0.707120 -0.671644
vn 0.213068 -0.765112 -0.607622
vn 0.467304 -0.219849 -0.856326
vn -0.092272 0.969126 0.228651
vn 0.003690 0.950495 0.310719
vn -0.103448 0.964148 0.244370
vn -0.113458 0.958728 0.260706
vn -0.105707 0.922829 0.370422
vn -0.093444 0.918004 0.385404
vn -0.080148 0.913229 0.399486
vn -0.063626 0.909803 0.410135
vn -0.046390 0.906519 0.419609
vn -0.027208 0.904845 0.424870
vn -0.007701 0.903363 0.428808
vn 0.012200 0.903608 0.428187
vn 0.031995 0.904059 0.426208
vn 0.120791 0.926783 0.355643
vn 0.126350 0.932838 0.337415
vn 0.130531 0.938785 0.318818
vn 0.129893 0.945058 0.299990
vn 0.127971 0.951104 0.281113
vn 0.121000 0.957113 0.263238
vn 0.112407 0.962649 0.246314
vn 0.100893 0.967660 0.231204
vn -0.004868 0.982106 0.188264
vn -0.024732 0.981436 0.190191
vn -0.043475 0.979500 0.196698
vn -0.061699 0.976955 0.204334
vn -0.077429 0.973314 0.216021
vn -0.119012 0.952890 0.278992
vn -0.113757 0.928631 0.353134
vn 0.068997 0.908539 0.412063
vn 0.050762 0.906208 0.419773
vn 0.110778 0.921573 0.372063
vn 0.015100 0.982131 0.187592
vn 0.034555 0.980868 0.191585
vn 0.099588 0.916378 0.387729
vn 0.084736 0.912399 0.400436
vn 0.053679 0.978979 0.196772
vn 0.070846 0.975933 0.206240
vn 0.087981 0.972355 0.216300
vn -0.123220 0.946736 0.297503
vn -0.122566 0.940650 0.316473
vn -0.120535 0.934378 0.335274
vn -0.092272 0.969126 0.228651
vn 0.432609 0.733617 0.524075
vn 0.389142 0.710071 0.586829
vn 0.328159 0.696833 0.637758
vn -0.077429 0.973314 0.216021
vn -0.113458 0.958728 0.260706
vn 0.495071 0.778741 0.385315
vn 0.474357 0.752031 0.457640
vn -0.103448 0.964148 0.244370
vn -0.123220 0.946736 0.297503
vn -0.119012 0.952890 0.278992
vn 0.509404 0.827810 0.235026
vn 0.513495 0.800207 0.309824
vn -0.113757 0.928631 0.353134
vn -0.105707 0.922829 0.370422
vn 0.474093 0.876068 0.087977
vn -0.120535 0.934378 0.335274
vn 0.502722 0.849907 0.157889
vn -0.122566 0.940650 0.316473
vn 0.392820 0.918675 -0.041582
vn 0.442886 0.896426 0.016495
vn -0.080148 0.913229 0.399486
vn 0.340244 0.934974 -0.100292
vn -0.046390 0.906519 0.419609
vn 0.127433 0.971467 -0.200032
vn 0.204469 0.961943 -0.181267
vn -0.007701 0.903363 0.428808
vn -0.030636 0.976503 -0.213315
vn 0.049032 0.974638 -0.218348
vn -0.027208 0.904845 0.424870
vn 0.031995 0.904059 0.426208
vn 0.012200 0.903608 0.428187
vn -0.185457 0.966092 -0.179643
vn -0.110928 0.971858 -0.207816
vn 0.084736 0.912399 0.400436
vn 0.099588 0.916378 0.387729
vn -0.321776 0.941277 -0.102260
vn 0.068997 0.908539 0.412063
vn 0.050762 0.906208 0.419773
vn -0.259707 0.953811 -0.150987
vn 0.110778 0.921573 0.372063
vn 0.120791 0.926783 0.355643
vn -0.426293 0.904513 0.011424
vn -0.382778 0.922307 -0.053209
vn -0.467997 0.880454 0.076025
vn -0.488679 0.859455 0.150100
vn 0.130531 0.938785 0.318818
vn -0.503259 0.809950 0.301184
vn -0.507269 0.832233 0.223756
vn 0.127971 0.951104 0.281113
vn 0.129893 0.945058 0.299990
vn -0.468201 0.764299 0.443435
vn -0.495964 0.782783 0.375860
vn 0.100893 0.967660 0.231204
vn -0.332107 0.699762 0.632486
vn -0.380891 0.717068 0.583725
vn 0.112407 0.962649 0.246314
vn -0.438710 0.734340 0.517956
vn 0.121000 0.957113 0.263238
vn 0.087981 0.972355 0.216300
vn 0.034555 0.980868 0.191585
vn 0.015100 0.982131 0.187592
vn -0.121083 0.666674 0.735448
vn 0.053679 0.978979 0.196772
vn -0.198141 0.670581 0.714886
vn -0.042677 0.657781 0.751999
vn 0.037047 0.661712 0.748842
vn -0.024732 0.981436 0.190191
vn 0.191816 0.672032 0.715248
vn 0.117250 0.660591 0.741534
vn -0.061699 0.976955 0.204334
vn -0.043475 0.979500 0.196698
vn 0.266060 0.678607 0.684620
vn 0.882630 0.150196 0.445428
vn 0.812201 0.110046 0.572904
vn 0.723094 0.071790 0.687009
vn 0.930217 0.195284 0.310741
vn 0.955900 0.240295 0.168862
vn 0.957267 0.287951 0.026907
vn 0.935693 0.333376 -0.115494
vn 0.890670 0.379110 -0.250963
vn 0.631738 0.492421 -0.598689
vn 0.737008 0.459652 -0.495519
vn -0.093444 0.918004 0.385404
vn 0.823963 0.420277 -0.380069
vn 0.235741 0.559344 -0.794707
vn 0.377739 0.542867 -0.750072
vn -0.062823 0.568881 -0.820017
vn 0.086885 0.566719 -0.819317
vn -0.490750 0.527763 -0.693275
vn -0.355320 0.549183 -0.756403
vn -0.212372 0.561548 -0.799726
vn -0.720999 0.468791 -0.510290
vn -0.612691 0.502323 -0.610149
vn -0.880550 0.390436 -0.268685
vn -0.810137 0.432865 -0.395355
vn 0.126350 0.932838 0.337415
vn -0.928036 0.347757 -0.133470
vn -0.629503 0.048751 0.775467
vn -0.724303 0.079457 0.684888
vn -0.821988 0.120067 0.556705
vn -0.233659 -0.016504 0.972179
vn -0.375634 -0.002378 0.926765
vn -0.004868 0.982106 0.188264
vn -0.084780 -0.026147 0.996057
vn 0.065008 -0.025912 0.997548
vn 0.214475 -0.020861 0.976507
vn 0.357358 -0.006218 0.933947
vn 0.614839 0.040659 0.787604
vn 0.492871 0.012883 0.870007
vn 0.809262 -0.558538 0.182020
vn 0.743836 -0.598292 0.297917
vn 0.662508 -0.630613 0.404241
vn 0.852290 -0.519956 0.056980
vn 0.876663 -0.475624 -0.072413
vn 0.877166 -0.434746 -0.203900
vn 0.858087 -0.390026 -0.334016
vn 0.578419 -0.243581 -0.778524
vn 0.674755 -0.276913 -0.684123
vn 0.755335 -0.310051 -0.577354
vn 0.815937 -0.351054 -0.459356
vn 0.213976 -0.185205 -0.959121
vn 0.344852 -0.197198 -0.917709
vn -0.060463 -0.176656 -0.982414
vn 0.077199 -0.175324 -0.981479
vn -0.329293 -0.194673 -0.923942
vn -0.198112 -0.180190 -0.963475
vn -0.454145 -0.211148 -0.865545
vn -0.953787 0.300380 0.007856
vn -0.880172 -0.420337 -0.220485
vn -0.855714 -0.379868 -0.351361
vn -0.955081 0.254450 0.151905
vn -0.933571 0.207317 0.292343
vn -0.861475 -0.506133 0.041111
vn -0.880620 -0.465396 -0.088964
vn -0.891491 0.166656 0.421272
vn -0.759144 -0.585327 0.284766
vn -0.821929 -0.547172 0.158226
vn -0.668598 -0.626235 0.401006
vn -0.581540 -0.653090 0.485061
vn -0.348262 -0.698802 0.624811
vn -0.080703 -0.720654 0.688581
vn -0.217480 -0.714514 0.664960
vn 0.194601 -0.715870 0.670568
vn 0.057072 -0.723219 0.688257
vn 0.450671 -0.684827 0.572632
vn 0.325725 -0.705137 0.629830
vn 0.562435 -0.662083 0.495291
vn 0.336455 -0.938375 -0.079059
vn 0.304181 -0.952081 -0.031881
vn 0.371169 -0.918757 -0.134611
vn 0.401529 -0.880489 -0.252018
vn 0.386688 -0.902638 -0.188991
vn 0.392207 -0.841118 -0.372417
vn 0.398752 -0.863710 -0.308225
vn 0.344254 -0.804313 -0.484323
vn 0.371450 -0.825369 -0.425195
vn 0.262168 -0.773837 -0.576579
vn 0.307489 -0.791377 -0.528369
vn 0.097454 -0.749062 -0.655293
vn 0.154172 -0.752673 -0.640089
vn 0.030659 -0.742787 -0.668826
vn -0.027970 -0.744901 -0.666589
vn -0.096119 -0.745238 -0.659834
vn -0.213775 -0.759713 -0.614114
vn -0.151046 -0.752962 -0.640495
vn -0.565911 -0.237696 -0.789459
vn -0.310911 -0.784905 -0.535965
vn -0.259683 -0.772458 -0.579545
vn -0.665987 -0.265374 -0.697164
vn -0.747392 -0.301537 -0.592014
vn -0.377899 -0.818227 -0.433240
vn -0.343226 -0.801487 -0.489709
vn -0.812730 -0.337513 -0.474927
vn -0.408322 -0.856468 -0.315809
vn -0.393390 -0.837199 -0.379922
vn -0.405565 -0.876325 -0.259946
vn -0.398770 -0.895973 -0.195488
vn -0.379071 -0.913653 -0.146779
vn -0.352070 -0.932331 -0.082499
vn -0.309315 -0.950281 -0.035910
vn -0.267870 -0.963428 0.007243
vn -0.160929 -0.984315 0.072291
vn -0.037430 -0.994180 0.101018
vn -0.104247 -0.990785 0.086473
vn 0.089329 -0.991740 0.092039
vn 0.021298 -0.994975 0.097828
vn 0.207049 -0.977236 0.046270
vn 0.144275 -0.986932 0.071769
vn 0.252928 -0.967425 0.010804
vn 0.304176 -0.942378 -0.139289
vn 0.361924 -0.931574 -0.034367
vn 0.325617 -0.944077 0.051881
vn 0.464230 -0.864167 -0.194179
vn 0.418452 -0.899858 -0.123095
vn 0.443178 -0.849903 -0.285057
vn 0.339759 -0.876804 -0.340263
vn 0.433503 -0.813261 -0.388178
vn 0.424300 -0.773689 -0.470505
vn 0.353824 -0.768490 -0.533135
vn 0.244188 -0.816821 -0.522663
vn 0.281702 -0.739820 -0.610991
vn 0.054101 -0.785333 -0.616704
vn 0.128130 -0.718388 -0.683741
vn 0.221079 -0.707120 -0.671644
vn 0.021065 -0.707657 -0.706242
vn -0.067885 -0.690034 -0.720586
vn -0.147850 -0.718745 -0.679372
vn -0.158065 -0.794416 -0.586445
vn -0.248967 -0.729113 -0.637503
vn -0.332139 -0.728795 -0.598783
vn -0.368531 -0.769381 -0.521764
vn -0.311099 -0.840488 -0.443618
vn -0.425047 -0.795795 -0.431331
vn -0.470695 -0.808727 -0.352713
vn -0.347685 -0.905648 -0.242727
vn -0.449937 -0.850940 -0.271031
vn -0.428905 -0.900092 -0.076654
vn -0.440659 -0.882053 -0.166741
vn -0.252392 -0.965898 -0.057792
vn -0.358535 -0.933269 -0.021478
vn -0.290549 -0.955121 0.057664
vn -0.134772 -0.982623 0.127628
vn -0.228408 -0.965533 0.124802
vn -0.061034 -0.997562 0.033832
vn -0.027641 -0.988010 0.151895
vn 0.061331 -0.982884 0.173719
vn 0.141136 -0.982272 0.123378
vn 0.151087 -0.988514 0.003672
vn 0.242352 -0.966611 0.083239
vn 0.304176 -0.942378 -0.139289
vn 0.443178 -0.849903 -0.285057
vn 0.339759 -0.876804 -0.340263
vn 0.244188 -0.816821 -0.522663
vn 0.710896 0.519430 -0.474151
vn 0.484560 0.588129 -0.647538
vn 0.054101 -0.785333 -0.616704
vn 0.221079 -0.707120 -0.671644
vn -0.158065 -0.794416 -0.586445
vn -0.147850 -0.718745 -0.679372
vn -0.311099 -0.840488 -0.443618
vn -0.347685 -0.905648 -0.242727
vn -0.252392 -0.965898 -0.057792
vn -0.061034 -0.997562 0.033832
vn 0.141136 -0.982272 0.123378
vn 0.151087 -0.988514 0.003672
vn 0.611165 0.120205 0.782322
vn 0.364136 0.061989 0.929281
vn 0.486643 0.684167 0.543225
vn 0.276772 0.756955 0.591960
vn 0.369245 0.643073 0.670906
vn 0.556701 0.735266 0.386612
vn 0.909815 0.272426 0.313082
vn 0.572851 0.790192 0.217802
vn 0.429259 0.866972 0.253171
vn 0.364819 0.787708 0.496410
vn 0.532692 0.844706 0.052068
vn 0.331019 0.943401 0.020530
vn 0.399266 0.907632 0.129580
vn 0.861475 0.451149 -0.233078
vn 0.441392 0.892438 -0.093420
vn 0.306323 0.929608 -0.204930
vn -0.035893 0.957505 -0.286176
vn -0.209693 0.945673 -0.248459
vn -0.025418 0.992017 -0.123514
vn -0.270096 0.962369 -0.029908
vn -0.155632 0.983197 -0.095406
vn -0.480587 0.876321 -0.033121
vn -0.363176 0.917761 -0.160682
vn -0.358153 0.931359 0.065551
vn -0.550667 0.825522 0.123610
vn -0.422591 0.852081 0.308827
vn -0.410361 0.893481 0.182470
vn -0.566839 0.770225 0.292313
vn -0.858844 0.232112 0.456630
vn -0.526659 0.716028 0.458186
vn -0.481932 0.095490 0.870990
vn 0.079536 0.052597 0.995443
vn 0.041917 0.603293 0.796418
vn 0.032078 0.727294 0.685576
vn 0.215745 0.614809 0.758594
vn 0.162303 0.735864 0.657390
vn 0.480168 0.788572 0.384178
vn 0.475576 0.694863 0.539438
vn 0.419984 0.744583 0.518854
vn 0.417023 0.825833 0.379594
vn 0.494264 0.835981 0.238411
vn 0.360500 0.654715 0.664370
vn 0.318472 0.709151 0.629031
vn 0.459680 0.882888 0.095929
vn 0.431382 0.898378 -0.082621
vn 0.520621 0.851682 0.059930
vn 0.543836 0.744754 0.386759
vn 0.559802 0.798479 0.221478
vn 0.380994 0.924097 -0.029805
vn 0.230269 0.971111 -0.062615
vn 0.264849 0.956067 -0.125658
vn -0.180075 0.969972 -0.163486
vn -0.029935 0.980171 -0.195881
vn -0.034518 0.961988 -0.270902
vn -0.204746 0.950393 -0.234164
vn -0.354387 0.923225 -0.148542
vn -0.413558 0.910209 0.022107
vn -0.312050 0.945985 -0.087955
vn -0.469458 0.882635 -0.023751
vn -0.537714 0.833187 0.129089
vn -0.473735 0.866575 0.156917
vn -0.553666 0.779022 0.294244
vn -0.487826 0.818821 0.302586
vn -0.392593 0.811678 0.432492
vn -0.453243 0.772268 0.445166
vn 0.036351 0.674972 0.736947
vn 0.186491 0.684815 0.704450
vn 0.040639 0.615974 0.786717
vn 0.210853 0.627116 0.749844
vn 0.607610 0.693587 0.386973
vn 0.586309 0.572698 0.572939
vn 0.531240 0.637788 0.557683
vn 0.444233 0.523116 0.727329
vn 0.402587 0.592909 0.697412
vn 0.581662 0.813147 0.021485
vn 0.531728 0.824066 -0.195399
vn 0.642043 0.766424 -0.019368
vn 0.625434 0.753640 0.202137
vn 0.670717 0.634343 0.384379
vn 0.690356 0.700672 0.180187
vn 0.481838 0.865341 -0.137901
vn 0.299710 0.934656 -0.191292
vn 0.334618 0.905940 -0.259428
vn 0.369137 0.868939 -0.329671
vn -0.229488 0.923513 -0.307341
vn -0.039139 0.936512 -0.348445
vn -0.043750 0.902704 -0.428032
vn -0.254020 0.888309 -0.382597
vn -0.438909 0.854797 -0.276915
vn -0.525486 0.847744 -0.072074
vn -0.396838 0.893159 -0.211630
vn -0.580976 0.804615 -0.122724
vn -0.619661 0.731881 0.283497
vn -0.601854 0.792468 0.098821
vn -0.665375 0.743581 0.066052
vn -0.685003 0.676639 0.270054
vn -0.514466 0.726270 0.455913
vn -0.575859 0.672912 0.464302
vn 0.044905 0.549586 0.834230
vn 0.235233 0.562042 0.792953
vn 0.259340 0.489010 0.832834
vn 0.049096 0.475239 0.878486
vn 0.639573 0.499466 0.584363
vn 0.789276 0.490794 0.369006
vn 0.689714 0.418186 0.591113
vn 0.484514 0.445320 0.752952
vn 0.731776 0.566761 0.378530
vn 0.700457 0.710974 -0.062258
vn 0.812268 0.568969 0.128431
vn 0.753150 0.639181 0.155604
vn 0.625397 0.714331 -0.314024
vn 0.755469 0.646438 -0.106698
vn 0.579974 0.773894 -0.254398
vn 0.402517 0.822895 -0.401030
vn 0.433939 0.767202 -0.472332
vn -0.048257 0.859748 -0.508434
vn -0.277801 0.844011 -0.458772
vn -0.052547 0.806990 -0.588223
vn -0.518097 0.750591 -0.410109
vn -0.300235 0.790031 -0.534519
vn -0.634714 0.752650 -0.175086
vn -0.479667 0.807443 -0.343448
vn -0.685379 0.691438 -0.228405
vn -0.726912 0.686031 0.030985
vn -0.784966 0.619509 -0.006076
vn -0.748285 0.612946 0.253705
vn -0.636675 0.611500 0.469801
vn -0.695590 0.541823 0.471786
vn -0.807968 0.540646 0.234285
vn 0.053116 0.393040 0.917986
vn -0.196140 0.310874 0.929993
vn 0.282635 0.408093 0.868088
vn 0.056858 0.303343 0.951184
vn 0.304532 0.319605 0.897281
vn 0.711181 0.378503 0.592416
vn 0.522429 0.359731 0.773085
vn 0.813825 0.453502 0.363351
vn 0.837579 0.534032 0.115198
vn 0.778955 0.614029 -0.127268
vn 0.644843 0.683948 -0.341164
vn 0.447347 0.738563 -0.504385
vn -0.054402 0.779614 -0.623893
vn -0.309869 0.762059 -0.568548
vn -0.707105 0.660365 -0.252826
vn -0.534534 0.721484 -0.440152
vn -0.809792 0.586247 -0.023483
vn -0.833561 0.504803 0.224387
vn -0.751159 0.463888 0.469647
vn -0.774915 0.425752 0.467164
vn 0.058433 0.260197 0.963786
vn 0.313891 0.276843 0.908202
vn 0.538609 0.318328 0.780107
f 3/3/3 2/2/2 1/1/1
f 5/5/5 4/4/4 1/1/1
f 8/8/8 7/7/7 6/6/6
f 10/10/10 9/9/9 6/6/6
f 12/12/12 11/11/11 6/6/6
f 15/15/15 14/14/14 13/13/13
f 18/18/18 17/17/17 16/16/16
f 19/19/19 18/18/18 16/16/16
f 17/17/17 20/20/20 16/16/16
f 23/23/23 22/22/22 21/21/21
f 24/24/24 23/23/23 21/21/21
f 25/25/25 22/22/22 23/23/23
f 26/26/26 25/25/25 23/23/23
f 18/18/18 26/26/26 23/23/23
f 29/29/29 28/28/28 27/27/27
f 31/31/31 30/30/30 28/28/28
f 33/33/33 32/32/32 28/28/28
f 36/36/36 35/35/35 34/34/34
f 38/38/38 37/37/37 35/35/35
f 40/40/40 39/39/39 35/35/35
f 43/43/43 42/42/42 41/41/41
f 44/44/44 41/41/41 42/42/42
f 47/47/47 46/46/46 45/45/45
f 49/49/49 48/48/48 45/45/45
f 52/52/52 51/51/51 50/50/50
f 55/55/55 54/54/54 53/53/53
f 53/53/53 56/56/56 55/55/55
f 58/58/58 57/57/57 55/55/55
f 61/61/61 60/60/60 59/59/59
f 3/3/3 62/62/62 59/59/59
f 64/64/64 63/63/63 19/19/19
f 66/66/66 65/65/65 64/64/64
f 69/69/69 68/68/68 67/67/67
f 48/48/48 69/69/69 67/67/67
f 57/57/57 50/50/50 70/70/70
f 72/72/72 71/71/71 70/70/70
f 74/74/74 73/73/73 66/66/66
f 76/76/76 75/75/75 74/74/74
f 79/79/79 78/78/78 77/77/77
f 68/68/68 79/79/79 80/80/80
f 67/67/67 68/68/68 80/80/80
f 82/82/82 71/71/71 81/81/81
f 84/84/84 82/82/82 83/83/83
f 86/86/86 85/85/85 76/76/76
f 88/88/88 87/87/87 86/86/86
f 91/91/91 90/90/90 89/89/89
f 77/77/77 78/78/78 92/92/92
f 78/78/78 91/91/91 92/92/92
f 94/94/94 84/84/84 93/93/93
f 96/96/96 94/94/94 95/95/95
f 98/98/98 97/97/97 88/88/88
f 99/99/99 97/97/97 98/98/98
f 89/89/89 90/90/90 100/100/100
f 90/90/90 101/101/101 100/100/100
f 104/104/104 103/103/103 102/102/102
f 105/105/105 96/96/96 102/102/102
f 108/108/108 107/107/107 106/106/106
f 110/110/110 101/101/101 109/109/109
f 113/113/113 112/112/112 111/111/111
f 109/109/109 113/113/113 111/111/111
f 116/116/116 115/115/115 114/114/114
f 119/119/119 118/118/118 117/117/117
f 117/117/117 118/118/118 120/120/120
f 123/123/123 122/122/122 121/121/121
f 120/120/120 118/118/118 121/121/121
f 126/126/126 125/125/125 124/124/124
f 127/127/127 122/122/122 124/124/124
f 130/130/130 129/129/129 128/128/128
f 132/132/132 129/129/129 131/131/131
f 131/131/131 134/134/134 133/133/133
f 137/137/137 136/136/136 135/135/135
f 133/133/133 138/138/138 135/135/135
f 141/141/141 140/140/140 139/139/139
f 142/142/142 140/140/140 141/141/141
f 144/144/144 140/140/140 143/143/143
f 145/145/145 140/140/140 144/144/144
f 146/146/146 140/140/140 145/145/145
f 147/147/147 140/140/140 146/146/146
f 148/148/148 140/140/140 147/147/147
f 149/149/149 140/140/140 148/148/148
f 150/150/150 140/140/140 149/149/149
f 151/151/151 140/140/140 150/150/150
f 153/153/153 140/140/140 152/152/152
f 154/154/154 140/140/140 153/153/153
f 155/155/155 140/140/140 154/154/154
f 156/156/156 140/140/140 155/155/155
f 157/157/157 140/140/140 156/156/156
f 158/158/158 140/140/140 157/157/157
f 159/159/159 140/140/140 158/158/158
f 161/161/161 140/140/140 160/160/160
f 162/162/162 140/140/140 161/161/161
f 163/163/163 140/140/140 162/162/162
f 139/139/139 140/140/140 164/164/164
f 142/142/142 165/165/165 140/140/140
f 166/166/166 143/143/143 140/140/140
f 168/168/168 167/167/167 140/140/140
f 169/169/169 152/152/152 140/140/140
f 170/170/170 160/160/160 140/140/140
f 171/171/171 170/170/170 140/140/140
f 173/173/173 172/172/172 140/140/140
f 174/174/174 171/171/171 140/140/140
f 175/175/175 174/174/174 140/140/140
f 172/172/172 169/169/169 140/140/140
f 176/176/176 175/175/175 140/140/140
f 167/167/167 173/173/173 140/140/140
f 151/151/151 168/168/168 140/140/140
f 159/159/159 176/176/176 140/140/140
f 165/165/165 177/177/177 140/140/140
f 177/177/177 178/178/178 140/140/140
f 178/178/178 179/179/179 140/140/140
f 179/179/179 166/166/166 140/140/140
f 164/164/164 140/140/140 163/163/163
f 182/182/182 181/181/181 180/180/180
f 184/184/184 183/183/183 180/180/180
f 187/187/187 186/186/186 185/185/185
f 188/188/188 181/181/181 185/185/185
f 190/190/190 186/186/186 189/189/189
f 192/192/192 191/191/191 189/189/189
f 195/195/195 194/194/194 193/193/193
f 197/197/197 195/195/195 196/196/196
f 191/191/191 197/197/197 196/196/196
f 198/198/198 191/191/191 196/196/196
f 200/200/200 199/199/199 194/194/194
f 195/195/195 200/200/200 194/194/194
f 202/202/202 129/129/129 201/201/201
f 205/205/205 204/204/204 203/203/203
f 208/208/208 207/207/207 206/206/206
f 209/209/209 204/204/204 206/206/206
f 211/211/211 207/207/207 210/210/210
f 213/213/213 212/212/212 210/210/210
f 216/216/216 215/215/215 214/214/214
f 218/218/218 212/212/212 217/217/217
f 219/219/219 216/216/216 217/217/217
f 222/222/222 221/221/221 220/220/220
f 223/223/223 222/222/222 215/215/215
f 216/216/216 223/223/223 215/215/215
f 222/222/222 224/224/224 221/221/221
f 224/224/224 225/225/225 221/221/221
f 228/228/228 227/227/227 226/226/226
f 230/230/230 227/227/227 229/229/229
f 232/232/232 231/231/231 229/229/229
f 235/235/235 234/234/234 233/233/233
f 237/237/237 235/235/235 236/236/236
f 238/238/238 231/231/231 236/236/236
f 239/239/239 234/234/234 119/119/119
f 242/242/242 241/241/241 240/240/240
f 244/244/244 242/242/242 243/243/243
f 242/242/242 245/245/245 241/241/241
f 245/245/245 246/246/246 241/241/241
f 249/249/249 248/248/248 247/247/247
f 246/246/246 249/249/249 247/247/247
f 251/251/251 248/248/248 250/250/250
f 252/252/252 183/183/183 250/250/250
f 187/187/187 185/185/185 181/181/181
f 254/254/254 253/253/253 181/181/181
f 188/188/188 180/180/180 181/181/181
f 255/255/255 254/254/254 182/182/182
f 190/190/190 185/185/185 186/186/186
f 253/253/253 256/256/256 187/187/187
f 186/186/186 256/256/256 192/192/192
f 189/189/189 186/186/186 192/192/192
f 198/198/198 189/189/189 191/191/191
f 192/192/192 257/257/257 191/191/191
f 191/191/191 258/258/258 197/197/197
f 193/193/193 196/196/196 195/195/195
f 197/197/197 259/259/259 195/195/195
f 260/260/260 200/200/200 195/195/195
f 262/262/262 261/261/261 199/199/199
f 263/263/263 194/194/194 199/199/199
f 201/201/201 263/263/263 199/199/199
f 202/202/202 201/201/201 199/199/199
f 260/260/260 264/264/264 200/200/200
f 264/264/264 262/262/262 200/200/200
f 130/130/130 201/201/201 129/129/129
f 132/132/132 128/128/128 129/129/129
f 134/134/134 131/131/131 129/129/129
f 261/261/261 134/134/134 202/202/202
f 208/208/208 206/206/206 204/204/204
f 265/265/265 208/208/208 204/204/204
f 209/209/209 203/203/203 204/204/204
f 266/266/266 265/265/265 205/205/205
f 211/211/211 206/206/206 207/207/207
f 267/267/267 213/213/213 207/207/207
f 213/213/213 210/210/210 207/207/207
f 268/268/268 267/267/267 207/207/207
f 265/265/265 268/268/268 208/208/208
f 268/268/268 207/207/207 208/208/208
f 270/270/270 269/269/269 212/212/212
f 218/218/218 210/210/210 212/212/212
f 271/271/271 270/270/270 212/212/212
f 267/267/267 271/271/271 213/213/213
f 271/271/271 212/212/212 213/213/213
f 214/214/214 217/217/217 216/216/216
f 273/273/273 272/272/272 216/216/216
f 217/217/217 212/212/212 219/219/219
f 269/269/269 273/273/273 219/219/219
f 220/220/220 215/215/215 222/222/222
f 275/275/275 274/274/274 222/222/222
f 272/272/272 275/275/275 223/223/223
f 226/226/226 276/276/276 225/225/225
f 228/228/228 226/226/226 225/225/225
f 276/276/276 221/221/221 225/225/225
f 274/274/274 277/277/277 224/224/224
f 230/230/230 226/226/226 227/227/227
f 232/232/232 229/229/229 227/227/227
f 238/238/238 229/229/229 231/231/231
f 237/237/237 236/236/236 231/231/231
f 233/233/233 236/236/236 235/235/235
f 279/279/279 278/278/278 235/235/235
f 280/280/280 279/279/279 237/237/237
f 123/123/123 121/121/121 118/118/118
f 119/119/119 234/234/234 118/118/118
f 278/278/278 123/123/123 234/234/234
f 239/239/239 233/233/233 234/234/234
f 240/240/240 243/243/243 242/242/242
f 282/282/282 281/281/281 244/244/244
f 242/242/242 281/281/281 245/245/245
f 283/283/283 241/241/241 246/246/246
f 247/247/247 283/283/283 246/246/246
f 245/245/245 284/284/284 246/246/246
f 246/246/246 285/285/285 249/249/249
f 249/249/249 286/286/286 248/248/248
f 252/252/252 250/250/250 248/248/248
f 251/251/251 247/247/247 248/248/248
f 248/248/248 287/287/287 252/252/252
f 182/182/182 180/180/180 183/183/183
f 288/288/288 255/255/255 183/183/183
f 184/184/184 250/250/250 183/183/183
f 252/252/252 289/289/289 183/183/183
f 181/181/181 182/182/182 254/254/254
f 291/291/291 290/290/290 254/254/254
f 182/182/182 183/183/183 255/255/255
f 292/292/292 291/291/291 255/255/255
f 186/186/186 187/187/187 256/256/256
f 290/290/290 293/293/293 253/253/253
f 187/187/187 181/181/181 253/253/253
f 256/256/256 293/293/293 257/257/257
f 192/192/192 256/256/256 257/257/257
f 191/191/191 257/257/257 258/258/258
f 257/257/257 294/294/294 258/258/258
f 197/197/197 258/258/258 259/259/259
f 258/258/258 295/295/295 259/259/259
f 195/195/195 259/259/259 260/260/260
f 259/259/259 296/296/296 260/260/260
f 199/199/199 200/200/200 262/262/262
f 298/298/298 297/297/297 262/262/262
f 299/299/299 298/298/298 264/264/264
f 260/260/260 300/300/300 264/264/264
f 129/129/129 202/202/202 134/134/134
f 138/138/138 133/133/133 134/134/134
f 297/297/297 138/138/138 261/261/261
f 202/202/202 199/199/199 261/261/261
f 301/301/301 268/268/268 265/265/265
f 204/204/204 205/205/205 265/265/265
f 302/302/302 301/301/301 266/266/266
f 304/304/304 303/303/303 267/267/267
f 303/303/303 271/271/271 267/267/267
f 304/304/304 267/267/267 268/268/268
f 301/301/301 304/304/304 268/268/268
f 305/305/305 269/269/269 270/270/270
f 306/306/306 305/305/305 270/270/270
f 303/303/303 306/306/306 271/271/271
f 306/306/306 270/270/270 271/271/271
f 216/216/216 219/219/219 273/273/273
f 305/305/305 307/307/307 269/269/269
f 219/219/219 212/212/212 269/269/269
f 222/222/222 223/223/223 275/275/275
f 223/223/223 216/216/216 272/272/272
f 308/308/308 228/228/228 277/277/277
f 228/228/228 225/225/225 277/277/277
f 310/310/310 309/309/309 277/277/277
f 225/225/225 224/224/224 277/277/277
f 224/224/224 222/222/222 274/274/274
f 312/312/312 232/232/232 311/311/311
f 232/232/232 227/227/227 311/311/311
f 314/314/314 313/313/313 311/311/311
f 227/227/227 228/228/228 308/308/308
f 311/311/311 227/227/227 308/308/308
f 309/309/309 314/314/314 308/308/308
f 237/237/237 231/231/231 315/315/315
f 280/280/280 237/237/237 315/315/315
f 317/317/317 316/316/316 315/315/315
f 231/231/231 232/232/232 312/312/312
f 313/313/313 317/317/317 312/312/312
f 315/315/315 231/231/231 312/312/312
f 280/280/280 316/316/316 279/279/279
f 235/235/235 237/237/237 279/279/279
f 234/234/234 235/235/235 278/278/278
f 279/279/279 318/318/318 278/278/278
f 118/118/118 234/234/234 123/123/123
f 278/278/278 319/319/319 123/123/123
f 282/282/282 320/320/320 281/281/281
f 242/242/242 244/244/244 281/281/281
f 322/322/322 321/321/321 281/281/281
f 284/284/284 245/245/245 281/281/281
f 324/324/324 323/323/323 285/285/285
f 286/286/286 249/249/249 285/285/285
f 321/321/321 324/324/324 284/284/284
f 285/285/285 246/246/246 284/284/284
f 326/326/326 325/325/325 287/287/287
f 289/289/289 252/252/252 287/287/287
f 248/248/248 286/286/286 287/287/287
f 323/323/323 326/326/326 286/286/286
f 327/327/327 292/292/292 288/288/288
f 288/288/288 183/183/183 289/289/289
f 325/325/325 327/327/327 289/289/289
f 329/329/329 328/328/328 291/291/291
f 328/328/328 330/330/330 291/291/291
f 254/254/254 255/255/255 291/291/291
f 329/329/329 291/291/291 292/292/292
f 255/255/255 288/288/288 292/292/292
f 253/253/253 254/254/254 290/290/290
f 256/256/256 253/253/253 293/293/293
f 332/332/332 331/331/331 293/293/293
f 290/290/290 330/330/330 293/293/293
f 257/257/257 293/293/293 294/294/294
f 294/294/294 331/331/331 295/295/295
f 258/258/258 294/294/294 295/295/295
f 334/334/334 333/333/333 295/295/295
f 259/259/259 295/295/295 296/296/296
f 296/296/296 333/333/333 300/300/300
f 260/260/260 296/296/296 300/300/300
f 336/336/336 335/335/335 300/300/300
f 264/264/264 300/300/300 299/299/299
f 262/262/262 264/264/264 298/298/298
f 338/338/338 337/337/337 298/298/298
f 299/299/299 335/335/335 298/298/298
f 134/134/134 261/261/261 138/138/138
f 337/337/337 137/137/137 138/138/138
f 137/137/137 135/135/135 138/138/138
f 261/261/261 262/262/262 297/297/297
f 340/340/340 339/339/339 301/301/301
f 265/265/265 266/266/266 301/301/301
f 339/339/339 341/341/341 301/301/301
f 340/340/340 301/301/301 302/302/302
f 304/304/304 341/341/341 303/303/303
f 341/341/341 342/342/342 303/303/303
f 342/342/342 343/343/343 303/303/303
f 345/345/345 344/344/344 305/305/305
f 306/306/306 343/343/343 305/305/305
f 346/346/346 273/273/273 307/307/307
f 273/273/273 269/269/269 307/307/307
f 348/348/348 347/347/347 346/346/346
f 272/272/272 273/273/273 346/346/346
f 307/307/307 344/344/344 346/346/346
f 349/349/349 272/272/272 346/346/346
f 275/275/275 272/272/272 349/349/349
f 350/350/350 275/275/275 349/349/349
f 352/352/352 351/351/351 350/350/350
f 274/274/274 275/275/275 350/350/350
f 349/349/349 347/347/347 350/350/350
f 353/353/353 274/274/274 350/350/350
f 355/355/355 354/354/354 310/310/310
f 310/310/310 277/277/277 353/353/353
f 277/277/277 274/274/274 353/353/353
f 354/354/354 356/356/356 314/314/314
f 356/356/356 357/357/357 314/314/314
f 311/311/311 308/308/308 314/314/314
f 308/308/308 277/277/277 309/309/309
f 357/357/357 358/358/358 317/317/317
f 358/358/358 359/359/359 317/317/317
f 315/315/315 312/312/312 317/317/317
f 357/357/357 317/317/317 313/313/313
f 312/312/312 311/311/311 313/313/313
f 280/280/280 315/315/315 316/316/316
f 318/318/318 279/279/279 316/316/316
f 316/316/316 359/359/359 318/318/318
f 319/319/319 278/278/278 318/318/318
f 359/359/359 360/360/360 318/318/318
f 122/122/122 123/123/123 319/319/319
f 318/318/318 360/360/360 319/319/319
f 127/127/127 121/121/121 122/122/122
f 319/319/319 361/361/361 122/122/122
f 126/126/126 124/124/124 122/122/122
f 322/322/322 281/281/281 320/320/320
f 320/320/320 362/362/362 322/322/322
f 364/364/364 363/363/363 322/322/322
f 284/284/284 281/281/281 321/321/321
f 321/321/321 363/363/363 324/324/324
f 366/366/366 365/365/365 324/324/324
f 285/285/285 284/284/284 324/324/324
f 368/368/368 367/367/367 326/326/326
f 287/287/287 286/286/286 326/326/326
f 286/286/286 285/285/285 323/323/323
f 367/367/367 369/369/369 327/327/327
f 288/288/288 289/289/289 327/327/327
f 369/369/369 329/329/329 327/327/327
f 289/289/289 287/287/287 325/325/325
f 371/371/371 370/370/370 328/328/328
f 328/328/328 329/329/329 371/371/371
f 292/292/292 327/327/327 329/329/329
f 369/369/369 372/372/372 329/329/329
f 372/372/372 371/371/371 329/329/329
f 374/374/374 373/373/373 332/332/332
f 370/370/370 374/374/374 330/330/330
f 332/332/332 293/293/293 330/330/330
f 290/290/290 291/291/291 330/330/330
f 328/328/328 370/370/370 330/330/330
f 332/332/332 330/330/330 374/374/374
f 334/334/334 295/295/295 331/331/331
f 373/373/373 375/375/375 331/331/331
f 294/294/294 293/293/293 331/331/331
f 332/332/332 373/373/373 331/331/331
f 334/334/334 331/331/331 375/375/375
f 376/376/376 334/334/334 375/375/375
f 296/296/296 295/295/295 333/333/333
f 376/376/376 377/377/377 333/333/333
f 334/334/334 376/376/376 333/333/333
f 336/336/336 300/300/300 333/333/333
f 378/378/378 336/336/336 377/377/377
f 336/336/336 333/333/333 377/377/377
f 380/380/380 338/338/338 379/379/379
f 338/338/338 335/335/335 379/379/379
f 336/336/336 378/378/378 335/335/335
f 378/378/378 379/379/379 335/335/335
f 299/299/299 300/300/300 335/335/335
f 338/338/338 298/298/298 335/335/335
f 137/137/137 337/337/337 381/381/381
f 136/136/136 137/137/137 381/381/381
f 338/338/338 380/380/380 337/337/337
f 297/297/297 298/298/298 337/337/337
f 380/380/380 381/381/381 337/337/337
f 138/138/138 297/297/297 337/337/337
f 383/383/383 382/382/382 339/339/339
f 339/339/339 340/340/340 383/383/383
f 384/384/384 383/383/383 340/340/340
f 304/304/304 301/301/301 341/341/341
f 382/382/382 385/385/385 341/341/341
f 339/339/339 382/382/382 341/341/341
f 342/342/342 341/341/341 385/385/385
f 385/385/385 386/386/386 342/342/342
f 342/342/342 386/386/386 343/343/343
f 345/345/345 305/305/305 343/343/343
f 306/306/306 303/303/303 343/343/343
f 386/386/386 387/387/387 343/343/343
f 388/388/388 345/345/345 387/387/387
f 345/345/345 343/343/343 387/387/387
f 388/388/388 389/389/389 344/344/344
f 307/307/307 305/305/305 344/344/344
f 345/345/345 388/388/388 344/344/344
f 348/348/348 346/346/346 344/344/344
f 390/390/390 348/348/348 389/389/389
f 348/348/348 344/344/344 389/389/389
f 392/392/392 352/352/352 391/391/391
f 352/352/352 347/347/347 391/391/391
f 349/349/349 346/346/346 347/347/347
f 348/348/348 390/390/390 347/347/347
f 390/390/390 391/391/391 347/347/347
f 352/352/352 350/350/350 347/347/347
f 355/355/355 351/351/351 393/393/393
f 394/394/394 355/355/355 393/393/393
f 352/352/352 392/392/392 351/351/351
f 353/353/353 350/350/350 351/351/351
f 355/355/355 310/310/310 351/351/351
f 310/310/310 353/353/353 351/351/351
f 392/392/392 393/393/393 351/351/351
f 396/396/396 395/395/395 356/356/356
f 356/356/356 354/354/354 396/396/396
f 355/355/355 394/394/394 354/354/354
f 394/394/394 396/396/396 354/354/354
f 314/314/314 309/309/309 354/354/354
f 309/309/309 310/310/310 354/354/354
f 398/398/398 397/397/397 358/358/358
f 358/358/358 357/357/357 398/398/398
f 395/395/395 398/398/398 357/357/357
f 313/313/313 314/314/314 357/357/357
f 356/356/356 395/395/395 357/357/357
f 361/361/361 319/319/319 360/360/360
f 400/400/400 399/399/399 360/360/360
f 397/397/397 400/400/400 359/359/359
f 358/358/358 397/397/397 359/359/359
f 316/316/316 317/317/317 359/359/359
f 360/360/360 359/359/359 400/400/400
f 126/126/126 122/122/122 361/361/361
f 360/360/360 399/399/399 361/361/361
f 399/399/399 401/401/401 361/361/361
f 126/126/126 361/361/361 401/401/401
f 125/125/125 126/126/126 401/401/401
f 403/403/403 402/402/402 362/362/362
f 364/364/364 322/322/322 362/362/362
f 404/404/404 364/364/364 402/402/402
f 364/364/364 362/362/362 402/402/402
f 366/366/366 363/363/363 405/405/405
f 406/406/406 366/366/366 405/405/405
f 321/321/321 322/322/322 363/363/363
f 404/404/404 405/405/405 363/363/363
f 364/364/364 404/404/404 363/363/363
f 366/366/366 324/324/324 363/363/363
f 368/368/368 365/365/365 407/407/407
f 408/408/408 368/368/368 407/407/407
f 366/366/366 406/406/406 365/365/365
f 323/323/323 324/324/324 365/365/365
f 368/368/368 326/326/326 365/365/365
f 326/326/326 323/323/323 365/365/365
f 406/406/406 407/407/407 365/365/365
f 409/409/409 372/372/372 369/369/369
f 369/369/369 367/367/367 409/409/409
f 325/325/325 326/326/326 367/367/367
f 368/368/368 408/408/408 367/367/367
f 408/408/408 409/409/409 367/367/367
f 327/327/327 325/325/325 367/367/367
f 61/61/61 59/59/59 62/62/62
f 3/3/3 1/1/1 4/4/4
f 410/410/410 62/62/62 3/3/3
f 4/4/4 410/410/410 3/3/3
f 59/59/59 2/2/2 3/3/3
f 1/1/1 12/12/12 411/411/411
f 5/5/5 1/1/1 411/411/411
f 12/12/12 6/6/6 9/9/9
f 9/9/9 412/412/412 12/12/12
f 412/412/412 411/411/411 12/12/12
f 1/1/1 11/11/11 12/12/12
f 8/8/8 14/14/14 15/15/15
f 413/413/413 8/8/8 15/15/15
f 10/10/10 6/6/6 7/7/7
f 6/6/6 414/414/414 8/8/8
f 414/414/414 415/415/415 8/8/8
f 413/413/413 7/7/7 8/8/8
f 17/17/17 23/23/23 24/24/24
f 416/416/416 17/17/17 24/24/24
f 417/417/417 16/16/16 20/20/20
f 18/18/18 23/23/23 17/17/17
f 416/416/416 20/20/20 17/17/17
f 418/418/418 22/22/22 29/29/29
f 22/22/22 28/28/28 29/29/29
f 419/419/419 21/21/21 22/22/22
f 418/418/418 419/419/419 22/22/22
f 33/33/33 35/35/35 36/36/36
f 420/420/420 33/33/33 36/36/36
f 27/27/27 28/28/28 32/32/32
f 32/32/32 33/33/33 420/420/420
f 40/40/40 42/42/42 43/43/43
f 421/421/421 40/40/40 43/43/43
f 34/34/34 35/35/35 39/39/39
f 39/39/39 40/40/40 421/421/421
f 42/42/42 49/49/49 44/44/44
f 49/49/49 422/422/422 44/44/44
f 45/45/45 46/46/46 49/49/49
f 422/422/422 49/49/49 46/46/46
f 58/58/58 423/423/423 52/52/52
f 50/50/50 58/58/58 52/52/52
f 55/55/55 56/56/56 58/58/58
f 423/423/423 58/58/58 56/56/56
f 54/54/54 425/425/425 424/424/424
f 424/424/424 53/53/53 54/54/54
f 427/427/427 426/426/426 54/54/54
f 425/425/425 54/54/54 60/60/60
f 54/54/54 59/59/59 60/60/60
f 430/430/430 429/429/429 428/428/428
f 2/2/2 426/426/426 428/428/428
f 428/428/428 431/431/431 2/2/2
f 432/432/432 1/1/1 2/2/2
f 434/434/434 433/433/433 431/431/431
f 432/432/432 2/2/2 431/431/431
f 428/428/428 435/435/435 431/431/431
f 438/438/438 437/437/437 436/436/436
f 433/433/433 434/434/434 436/436/436
f 431/431/431 433/433/433 11/11/11
f 1/1/1 432/432/432 11/11/11
f 432/432/432 431/431/431 11/11/11
f 436/436/436 439/439/439 433/433/433
f 6/6/6 11/11/11 439/439/439
f 436/436/436 440/440/440 439/439/439
f 11/11/11 433/433/433 439/439/439
f 414/414/414 439/439/439 440/440/440
f 6/6/6 439/439/439 414/414/414
f 440/440/440 441/441/441 414/414/414
f 414/414/414 441/441/441 415/415/415
f 14/14/14 8/8/8 415/415/415
f 443/443/443 25/25/25 442/442/442
f 65/65/65 444/444/444 63/63/63
f 18/18/18 19/19/19 63/63/63
f 442/442/442 26/26/26 63/63/63
f 18/18/18 63/63/63 26/26/26
f 446/446/446 445/445/445 443/443/443
f 442/442/442 446/446/446 443/443/443
f 448/448/448 447/447/447 31/31/31
f 31/31/31 28/28/28 25/25/25
f 26/26/26 442/442/442 25/25/25
f 28/28/28 22/22/22 25/25/25
f 443/443/443 448/448/448 25/25/25
f 445/445/445 449/449/449 448/448/448
f 31/31/31 25/25/25 448/448/448
f 452/452/452 451/451/451 450/450/450
f 453/453/453 37/37/37 450/450/450
f 450/450/450 38/38/38 30/30/30
f 35/35/35 33/33/33 30/30/30
f 33/33/33 28/28/28 30/30/30
f 38/38/38 35/35/35 30/30/30
f 450/450/450 30/30/30 447/447/447
f 30/30/30 31/31/31 447/447/447
f 449/449/449 452/452/452 447/447/447
f 42/42/42 40/40/40 37/37/37
f 40/40/40 35/35/35 37/37/37
f 454/454/454 42/42/42 37/37/37
f 38/38/38 450/450/450 37/37/37
f 455/455/455 454/454/454 453/453/453
f 453/453/453 451/451/451 455/455/455
f 67/67/67 456/456/456 48/48/48
f 456/456/456 45/45/45 48/48/48
f 49/49/49 42/42/42 48/48/48
f 48/48/48 42/42/42 454/454/454
f 455/455/455 69/69/69 454/454/454
f 37/37/37 453/453/453 454/454/454
f 48/48/48 454/454/454 69/69/69
f 58/58/58 50/50/50 57/57/57
f 457/457/457 55/55/55 57/57/57
f 427/427/427 457/457/457 458/458/458
f 82/82/82 459/459/459 458/458/458
f 57/57/57 71/71/71 457/457/457
f 427/427/427 55/55/55 457/457/457
f 458/458/458 457/457/457 71/71/71
f 72/72/72 81/81/81 71/71/71
f 57/57/57 70/70/70 71/71/71
f 82/82/82 458/458/458 71/71/71
f 2/2/2 59/59/59 426/426/426
f 430/430/430 428/428/428 426/426/426
f 59/59/59 54/54/54 426/426/426
f 54/54/54 55/55/55 427/427/427
f 458/458/458 459/459/459 460/460/460
f 427/427/427 458/458/458 460/460/460
f 426/426/426 427/427/427 430/430/430
f 460/460/460 461/461/461 430/430/430
f 427/427/427 460/460/460 430/430/430
f 464/464/464 463/463/463 462/462/462
f 435/435/435 464/464/464 465/465/465
f 431/431/431 435/435/435 465/465/465
f 462/462/462 466/466/466 465/465/465
f 468/468/468 467/467/467 464/464/464
f 435/435/435 468/468/468 464/464/464
f 462/462/462 465/465/465 464/464/464
f 471/471/471 470/470/470 469/469/469
f 431/431/431 465/465/465 434/434/434
f 434/434/434 465/465/465 466/466/466
f 469/469/469 438/438/438 466/466/466
f 462/462/462 472/472/472 466/466/466
f 473/473/473 469/469/469 466/466/466
f 434/434/434 466/466/466 438/438/438
f 469/469/469 474/474/474 438/438/438
f 436/436/436 434/434/434 438/438/438
f 441/441/441 440/440/440 437/437/437
f 475/475/475 441/441/441 437/437/437
f 440/440/440 436/436/436 437/437/437
f 437/437/437 474/474/474 475/475/475
f 476/476/476 475/475/475 474/474/474
f 470/470/470 476/476/476 474/474/474
f 437/437/437 438/438/438 474/474/474
f 442/442/442 63/63/63 444/444/444
f 478/478/478 477/477/477 444/444/444
f 63/63/63 64/64/64 65/65/65
f 75/75/75 479/479/479 73/73/73
f 65/65/65 66/66/66 73/73/73
f 480/480/480 477/477/477 478/478/478
f 65/65/65 73/73/73 478/478/478
f 444/444/444 65/65/65 478/478/478
f 446/446/446 444/444/444 477/477/477
f 480/480/480 481/481/481 477/477/477
f 483/483/483 482/482/482 445/445/445
f 448/448/448 443/443/443 445/445/445
f 442/442/442 444/444/444 446/446/446
f 477/477/477 483/483/483 446/446/446
f 445/445/445 446/446/446 483/483/483
f 481/481/481 484/484/484 483/483/483
f 484/484/484 485/485/485 482/482/482
f 449/449/449 445/445/445 482/482/482
f 485/485/485 487/487/487 486/486/486
f 450/450/450 447/447/447 452/452/452
f 486/486/486 488/488/488 452/452/452
f 482/482/482 486/486/486 449/449/449
f 486/486/486 452/452/452 449/449/449
f 447/447/447 448/448/448 449/449/449
f 453/453/453 450/450/450 451/451/451
f 489/489/489 455/455/455 451/451/451
f 490/490/490 489/489/489 488/488/488
f 451/451/451 452/452/452 488/488/488
f 488/488/488 487/487/487 490/490/490
f 455/455/455 489/489/489 68/68/68
f 69/69/69 455/455/455 68/68/68
f 490/490/490 79/79/79 489/489/489
f 451/451/451 488/488/488 489/489/489
f 77/77/77 80/80/80 79/79/79
f 68/68/68 489/489/489 79/79/79
f 492/492/492 461/461/461 491/491/491
f 94/94/94 493/493/493 491/491/491
f 81/81/81 83/83/83 82/82/82
f 491/491/491 459/459/459 84/84/84
f 83/83/83 93/93/93 84/84/84
f 94/94/94 491/491/491 84/84/84
f 82/82/82 84/84/84 459/459/459
f 461/461/461 460/460/460 459/459/459
f 459/459/459 491/491/491 461/461/461
f 429/429/429 430/430/430 461/461/461
f 492/492/492 494/494/494 468/468/468
f 435/435/435 429/429/429 468/468/468
f 435/435/435 428/428/428 429/429/429
f 461/461/461 492/492/492 429/429/429
f 491/491/491 493/493/493 492/492/492
f 468/468/468 429/429/429 492/492/492
f 497/497/497 496/496/496 495/495/495
f 463/463/463 497/497/497 472/472/472
f 462/462/462 463/463/463 472/472/472
f 473/473/473 466/466/466 472/472/472
f 495/495/495 472/472/472 497/497/497
f 499/499/499 498/498/498 497/497/497
f 463/463/463 499/499/499 497/497/497
f 502/502/502 501/501/501 500/500/500
f 472/472/472 495/495/495 473/473/473
f 500/500/500 471/471/471 503/503/503
f 495/495/495 504/504/504 503/503/503
f 505/505/505 500/500/500 503/503/503
f 473/473/473 495/495/495 503/503/503
f 469/469/469 473/473/473 471/471/471
f 473/473/473 503/503/503 471/471/471
f 500/500/500 506/506/506 471/471/471
f 507/507/507 476/476/476 470/470/470
f 508/508/508 507/507/507 470/470/470
f 474/474/474 469/469/469 470/470/470
f 501/501/501 509/509/509 506/506/506
f 470/470/470 471/471/471 506/506/506
f 470/470/470 506/506/506 508/508/508
f 478/478/478 73/73/73 479/479/479
f 511/511/511 510/510/510 479/479/479
f 73/73/73 74/74/74 75/75/75
f 87/87/87 512/512/512 85/85/85
f 75/75/75 76/76/76 85/85/85
f 75/75/75 85/85/85 511/511/511
f 479/479/479 75/75/75 511/511/511
f 513/513/513 510/510/510 511/511/511
f 513/513/513 514/514/514 510/510/510
f 480/480/480 479/479/479 510/510/510
f 483/483/483 477/477/477 481/481/481
f 516/516/516 515/515/515 481/481/481
f 510/510/510 516/516/516 480/480/480
f 478/478/478 479/479/479 480/480/480
f 481/481/481 480/480/480 516/516/516
f 514/514/514 517/517/517 516/516/516
f 486/486/486 482/482/482 485/485/485
f 519/519/519 518/518/518 485/485/485
f 519/519/519 485/485/485 484/484/484
f 482/482/482 483/483/483 484/484/484
f 484/484/484 481/481/481 515/515/515
f 517/517/517 520/520/520 515/515/515
f 520/520/520 521/521/521 519/519/519
f 484/484/484 515/515/515 519/519/519
f 522/522/522 490/490/490 487/487/487
f 488/488/488 486/486/486 487/487/487
f 523/523/523 522/522/522 518/518/518
f 487/487/487 485/485/485 518/518/518
f 518/518/518 521/521/521 523/523/523
f 490/490/490 522/522/522 78/78/78
f 79/79/79 490/490/490 78/78/78
f 523/523/523 91/91/91 522/522/522
f 487/487/487 518/518/518 522/522/522
f 89/89/89 92/92/92 91/91/91
f 78/78/78 522/522/522 91/91/91
f 525/525/525 494/494/494 524/524/524
f 93/93/93 95/95/95 94/94/94
f 524/524/524 493/493/493 96/96/96
f 105/105/105 524/524/524 96/96/96
f 95/95/95 102/102/102 96/96/96
f 494/494/494 492/492/492 493/493/493
f 94/94/94 96/96/96 493/493/493
f 467/467/467 468/468/468 494/494/494
f 493/493/493 524/524/524 494/494/494
f 525/525/525 526/526/526 499/499/499
f 499/499/499 463/463/463 467/467/467
f 463/463/463 464/464/464 467/467/467
f 494/494/494 525/525/525 467/467/467
f 524/524/524 527/527/527 525/525/525
f 499/499/499 467/467/467 525/525/525
f 530/530/530 529/529/529 528/528/528
f 496/496/496 531/531/531 528/528/528
f 495/495/495 496/496/496 504/504/504
f 505/505/505 503/503/503 504/504/504
f 528/528/528 532/532/532 496/496/496
f 504/504/504 496/496/496 532/532/532
f 535/535/535 534/534/534 533/533/533
f 537/537/537 536/536/536 533/533/533
f 504/504/504 532/532/532 505/505/505
f 533/533/533 502/502/502 535/535/535
f 505/505/505 532/532/532 535/535/535
f 532/532/532 529/529/529 535/535/535
f 505/505/505 535/535/535 502/502/502
f 500/500/500 505/505/505 502/502/502
f 533/533/533 538/538/538 502/502/502
f 508/508/508 506/506/506 509/509/509
f 506/506/506 500/500/500 501/501/501
f 539/539/539 509/509/509 501/501/501
f 536/536/536 540/540/540 538/538/538
f 501/501/501 502/502/502 538/538/538
f 501/501/501 538/538/538 539/539/539
f 85/85/85 86/86/86 87/87/87
f 87/87/87 88/88/88 97/97/97
f 99/99/99 541/541/541 97/97/97
f 541/541/541 512/512/512 97/97/97
f 511/511/511 85/85/85 512/512/512
f 541/541/541 542/542/542 512/512/512
f 87/87/87 97/97/97 512/512/512
f 513/513/513 512/512/512 542/542/542
f 541/541/541 543/543/543 542/542/542
f 545/545/545 544/544/544 542/542/542
f 547/547/547 546/546/546 514/514/514
f 516/516/516 510/510/510 514/514/514
f 511/511/511 512/512/512 513/513/513
f 542/542/542 547/547/547 513/513/513
f 544/544/544 548/548/548 547/547/547
f 514/514/514 513/513/513 547/547/547
f 519/519/519 515/515/515 520/520/520
f 549/549/549 521/521/521 520/520/520
f 515/515/515 516/516/516 517/517/517
f 549/549/549 520/520/520 517/517/517
f 517/517/517 514/514/514 546/546/546
f 548/548/548 550/550/550 546/546/546
f 517/517/517 546/546/546 549/549/549
f 551/551/551 521/521/521 549/549/549
f 552/552/552 523/523/523 521/521/521
f 518/518/518 519/519/519 521/521/521
f 553/553/553 552/552/552 551/551/551
f 549/549/549 550/550/550 551/551/551
f 554/554/554 553/553/553 551/551/551
f 113/113/113 101/101/101 553/553/553
f 91/91/91 523/523/523 90/90/90
f 523/523/523 552/552/552 90/90/90
f 521/521/521 551/551/551 552/552/552
f 553/553/553 101/101/101 552/552/552
f 90/90/90 552/552/552 101/101/101
f 113/113/113 109/109/109 101/101/101
f 110/110/110 100/100/100 101/101/101
f 103/103/103 556/556/556 555/555/555
f 557/557/557 526/526/526 555/555/555
f 526/526/526 525/525/525 527/527/527
f 105/105/105 103/103/103 527/527/527
f 524/524/524 105/105/105 527/527/527
f 105/105/105 102/102/102 103/103/103
f 555/555/555 527/527/527 103/103/103
f 527/527/527 555/555/555 526/526/526
f 498/498/498 499/499/499 526/526/526
f 530/530/530 528/528/528 531/531/531
f 496/496/496 497/497/497 498/498/498
f 526/526/526 557/557/557 498/498/498
f 531/531/531 496/496/496 498/498/498
f 555/555/555 558/558/558 557/557/557
f 559/559/559 531/531/531 557/557/557
f 531/531/531 498/498/498 557/557/557
f 530/530/530 561/561/561 560/560/560
f 532/532/532 528/528/528 529/529/529
f 534/534/534 535/535/535 529/529/529
f 531/531/531 561/561/561 530/530/530
f 560/560/560 562/562/562 530/530/530
f 529/529/529 530/530/530 562/562/562
f 529/529/529 562/562/562 534/534/534
f 534/534/534 562/562/562 563/563/563
f 564/564/564 537/537/537 563/563/563
f 564/564/564 565/565/565 537/537/537
f 534/534/534 563/563/563 537/537/537
f 533/533/533 534/534/534 537/537/537
f 536/536/536 537/537/537 565/565/565
f 539/539/539 538/538/538 540/540/540
f 538/538/538 533/533/533 536/536/536
f 566/566/566 540/540/540 536/536/536
f 565/565/565 566/566/566 536/536/536
f 568/568/568 545/545/545 567/567/567
f 98/98/98 106/106/106 99/99/99
f 567/567/567 543/543/543 107/107/107
f 99/99/99 106/106/106 107/107/107
f 541/541/541 99/99/99 543/543/543
f 545/545/545 542/542/542 543/543/543
f 99/99/99 107/107/107 543/543/543
f 547/547/547 542/542/542 544/544/544
f 570/570/570 569/569/569 544/544/544
f 543/543/543 567/567/567 545/545/545
f 570/570/570 544/544/544 545/545/545
f 545/545/545 568/568/568 570/570/570
f 571/571/571 554/554/554 550/550/550
f 549/549/549 546/546/546 550/550/550
f 554/554/554 551/551/551 550/550/550
f 546/546/546 547/547/547 548/548/548
f 571/571/571 550/550/550 548/548/548
f 548/548/548 544/544/544 569/569/569
f 572/572/572 554/554/554 571/571/571
f 548/548/548 569/569/569 571/571/571
f 573/573/573 553/553/553 554/554/554
f 574/574/574 573/573/573 572/572/572
f 553/553/553 573/573/573 113/113/113
f 113/113/113 573/573/573 112/112/112
f 554/554/554 572/572/572 573/573/573
f 574/574/574 112/112/112 573/573/573
f 558/558/558 555/555/555 556/556/556
f 104/104/104 114/114/114 556/556/556
f 103/103/103 104/104/104 556/556/556
f 556/556/556 115/115/115 558/558/558
f 575/575/575 559/559/559 558/558/558
f 559/559/559 557/557/557 558/558/558
f 556/556/556 114/114/114 115/115/115
f 575/575/575 558/558/558 115/115/115
f 559/559/559 575/575/575 576/576/576
f 577/577/577 560/560/560 561/561/561
f 561/561/561 531/531/531 559/559/559
f 561/561/561 559/559/559 577/577/577
f 559/559/559 576/576/576 577/577/577
