# GloomhavenVR - generic-trigger-squeeze-thumbstick left 'thumbstick' (glTF material 0)
# generated by controllers_pipeline.py from webxr-input-profiles (MIT)
o generic_left_thumbstick__m0
v 0.003789 0.012932 0.022535
v 0.003574 0.011093 0.023228
v 0.003468 0.012788 0.023566
v 0.003808 0.014363 0.023470
v 0.003967 0.014532 0.022952
v 0.003465 0.013593 0.020520
v 0.003203 0.015360 0.020434
v 0.002831 0.014049 0.019721
v 0.003741 0.015052 0.021367
v 0.003550 0.015219 0.020860
v 0.004013 0.011786 0.021106
v 0.003806 0.013448 0.021544
v 0.001918 0.015703 0.019403
v 0.001955 0.014073 0.019073
v 0.002387 0.015602 0.019705
v 0.001955 0.014073 0.019073
v 0.000913 0.014362 0.018792
v 0.001067 0.012784 0.018095
v 0.002153 0.012613 0.018457
v 0.001374 0.015755 0.019252
v -0.000304 0.015800 0.019135
v -0.001215 0.014266 0.019113
v -0.000161 0.014189 0.018746
v 0.000263 0.015803 0.019119
v -0.001192 0.012708 0.018357
v -0.000080 0.012759 0.018041
v -0.002269 0.015473 0.020162
v -0.002078 0.013897 0.019665
v -0.001821 0.015579 0.019831
v -0.002860 0.012233 0.019831
v -0.002146 0.012470 0.018952
v -0.002589 0.015328 0.020608
v -0.002739 0.013798 0.020561
v -0.003226 0.014846 0.022089
v -0.003062 0.013307 0.021478
v -0.003067 0.015015 0.021571
v -0.003299 0.011540 0.021954
v -0.003256 0.011856 0.020842
v -0.003209 0.014669 0.022627
v -0.003078 0.013138 0.022584
v -0.002812 0.014158 0.024184
v -0.002738 0.012646 0.023494
v -0.003002 0.014326 0.023675
v -0.002461 0.014018 0.024607
v -0.001228 0.012166 0.024940
v -0.001644 0.013777 0.025334
v -0.001178 0.013675 0.025638
v -0.002341 0.010894 0.023915
v -0.002102 0.012537 0.024406
v -0.001228 0.012166 0.024940
v -0.001178 0.013675 0.025638
v -0.000633 0.013624 0.025789
v 0.001045 0.013578 0.025905
v 0.001943 0.012321 0.025013
v 0.000889 0.012050 0.025267
v 0.000478 0.013575 0.025922
v -0.000353 0.010541 0.024965
v -0.000184 0.012225 0.025334
v 0.002805 0.012342 0.024348
v 0.002562 0.013799 0.025210
v 0.003010 0.013905 0.024879
v 0.003330 0.014050 0.024433
v 0.001234 0.012227 0.017267
v 0.002500 0.012074 0.017716
v 0.001405 0.012145 0.016371
v 0.002918 0.011963 0.016907
v -0.001791 0.009756 0.024854
v -0.003469 0.009513 0.024477
v -0.002842 0.010025 0.024047
v -0.001438 0.010626 0.024574
v -0.000526 0.009604 0.025303
v -0.001791 0.009756 0.024854
v 0.001573 0.011996 0.015464
v 0.003330 0.011784 0.016088
v 0.001736 0.011773 0.014555
v 0.003731 0.011533 0.015263
v -0.002628 0.008566 0.025998
v -0.004690 0.008302 0.025243
v -0.004086 0.008939 0.024878
v -0.002213 0.009191 0.025441
v -0.002213 0.009191 0.025441
v -0.000699 0.009009 0.025978
v -0.002628 0.008566 0.025998
v -0.000871 0.008354 0.026621
v 0.001893 0.011473 0.013651
v 0.004118 0.011205 0.014440
v 0.002041 0.011093 0.012765
v 0.004483 0.010799 0.013631
v -0.003425 0.007131 0.026986
v -0.005822 0.006846 0.025843
v -0.005271 0.007603 0.025568
v -0.003034 0.007878 0.026515
v -0.003034 0.007878 0.026515
v -0.001038 0.007638 0.027223
v -0.003425 0.007131 0.026986
v -0.001200 0.006863 0.027775
v 0.002178 0.010632 0.011909
v 0.004820 0.010313 0.012846
v 0.002300 0.010091 0.011099
v -0.003795 0.006327 0.027400
v -0.006331 0.006035 0.026062
v -0.003795 0.006327 0.027400
v -0.001496 0.005156 0.028683
v -0.004138 0.005475 0.027746
v -0.001354 0.006033 0.028266
v 0.005122 0.009751 0.012100
v 0.002405 0.009477 0.010349
v 0.005384 0.009118 0.011405
v -0.004446 0.004582 0.028016
v -0.004138 0.005475 0.027746
v -0.004715 0.003663 0.028203
v -0.007187 0.004295 0.026304
v -0.006789 0.005181 0.026217
v -0.004446 0.004582 0.028016
v -0.001736 0.003304 0.029259
v -0.004715 0.003663 0.028203
v -0.001800 0.016329 0.029111
v -0.003115 0.016219 0.029463
v -0.002663 0.016463 0.028711
v -0.002124 0.016064 0.029922
v -0.002356 0.015092 0.030238
v -0.003443 0.014082 0.029350
v -0.003438 0.015261 0.029736
v -0.001873 0.013202 0.028253
v -0.001178 0.013675 0.025638
v -0.002760 0.013341 0.027842
v -0.002361 0.013913 0.029851
v 0.002571 0.019891 0.018169
v 0.003886 0.020001 0.017817
v 0.003434 0.019757 0.018569
v 0.003120 0.019556 0.016529
v 0.002895 0.020156 0.017358
v 0.003115 0.018377 0.016143
v 0.004201 0.019388 0.017030
v 0.002617 0.016862 0.017013
v 0.001918 0.015703 0.019403
v 0.003504 0.016724 0.017424
v 0.004196 0.018208 0.016644
v 0.005182 0.016891 0.027300
v 0.000381 0.017224 0.023350
v 0.005717 0.017141 0.026531
v 0.006139 0.017407 0.025710
v 0.005535 0.019138 0.020431
v 0.004932 0.019377 0.019711
v 0.004242 0.019587 0.019077
v 0.003434 0.019757 0.018569
v 0.002571 0.019891 0.018169
v 0.001637 0.019976 0.017924
v 0.000686 0.020021 0.017797
v -0.000282 0.020012 0.017839
v -0.001229 0.019964 0.017998
v -0.005369 0.018812 0.021571
v -0.005627 0.018523 0.022458
v -0.005763 0.018228 0.023362
v -0.005720 0.017926 0.024283
v -0.005552 0.017631 0.025180
v -0.005215 0.017347 0.026044
v -0.004775 0.017078 0.026861
v -0.004162 0.016843 0.027570
v 0.001053 0.016208 0.029442
v 0.001999 0.016256 0.029283
v 0.002907 0.016358 0.028959
v 0.003756 0.016495 0.028530
v 0.004514 0.016679 0.027956
v 0.006398 0.017697 0.024822
v 0.005985 0.018872 0.021237
v -0.002985 0.019725 0.018750
v -0.002136 0.019862 0.018321
v -0.004946 0.019079 0.020750
v 0.000085 0.016199 0.029483
v -0.000867 0.016244 0.029356
v -0.004412 0.019329 0.019981
v -0.003743 0.019541 0.019324
v -0.001800 0.016329 0.029111
v -0.002663 0.016463 0.028711
v -0.003457 0.016636 0.028194
v 0.006533 0.017992 0.023918
v 0.006490 0.018294 0.022998
v 0.006325 0.018589 0.022099
v 0.005182 0.016891 0.027300
v 0.006507 0.016997 0.026959
v 0.005893 0.016711 0.027842
v 0.005126 0.016467 0.028596
v 0.004514 0.016679 0.027956
v 0.006139 0.017407 0.025710
v 0.007289 0.017636 0.024998
v 0.006992 0.017303 0.026017
v 0.005717 0.017141 0.026531
v 0.006533 0.017992 0.023918
v 0.006398 0.017697 0.024822
v 0.007396 0.018321 0.022903
v 0.007444 0.017975 0.023959
v 0.005985 0.018872 0.021237
v 0.005535 0.019138 0.020431
v 0.006816 0.018986 0.020880
v 0.006325 0.018589 0.022099
v 0.007206 0.018660 0.021871
v 0.006490 0.018294 0.022998
v 0.005606 0.019564 0.019128
v 0.006299 0.019291 0.019955
v 0.004242 0.019587 0.019077
v 0.004814 0.019806 0.018400
v 0.002571 0.019891 0.018169
v 0.001823 0.020252 0.017077
v 0.002895 0.020156 0.017358
v 0.000686 0.020021 0.017797
v -0.000381 0.020294 0.016979
v 0.000730 0.020305 0.016931
v 0.001637 0.019976 0.017924
v -0.001229 0.019964 0.017998
v -0.000282 0.020012 0.017839
v -0.002510 0.020122 0.017533
v -0.001468 0.020239 0.017161
v -0.003743 0.019541 0.019324
v -0.004412 0.019329 0.019981
v -0.004355 0.019753 0.018684
v -0.002985 0.019725 0.018750
v -0.002136 0.019862 0.018321
v -0.003485 0.019965 0.018025
v -0.004946 0.019079 0.020750
v -0.005369 0.018812 0.021571
v -0.005737 0.019223 0.020321
v -0.005123 0.019509 0.019438
v -0.006221 0.018917 0.021264
v -0.006519 0.018584 0.022283
v -0.005763 0.018228 0.023362
v -0.006625 0.017899 0.024378
v -0.006674 0.018245 0.023321
v -0.005552 0.017631 0.025180
v -0.005720 0.017926 0.024283
v -0.006045 0.017234 0.026400
v -0.006432 0.017561 0.025409
v -0.004162 0.016843 0.027570
v -0.004026 0.016417 0.028869
v -0.004836 0.016656 0.028152
v -0.004775 0.017078 0.026861
v -0.005540 0.016925 0.027339
v -0.005215 0.017347 0.026044
v -0.003457 0.016636 0.028194
v -0.000867 0.016244 0.029356
v 0.000085 0.016199 0.029483
v -0.001052 0.015968 0.030204
v -0.001800 0.016329 0.029111
v -0.002124 0.016064 0.029922
v 0.000040 0.015915 0.030350
v 0.001152 0.015926 0.030302
v 0.001999 0.016256 0.029283
v 0.003280 0.016098 0.029748
v 0.002238 0.015981 0.030120
v 0.003756 0.016495 0.028530
v 0.002907 0.016358 0.028959
v 0.004255 0.016255 0.029256
v 0.007590 0.016444 0.025976
v 0.007061 0.016110 0.027004
v 0.006391 0.015798 0.027967
v 0.007915 0.016807 0.024864
v 0.008084 0.017177 0.023731
v 0.008031 0.017554 0.022579
v 0.007823 0.017924 0.021452
v 0.007398 0.018280 0.020372
v 0.005214 0.019175 0.017666
v 0.006078 0.018911 0.018460
v 0.004932 0.019377 0.019711
v 0.006834 0.018613 0.019362
v 0.001950 0.019662 0.016222
v 0.003120 0.019556 0.016529
v -0.000454 0.019707 0.016115
v 0.000758 0.019719 0.016063
v -0.003841 0.019348 0.017257
v -0.002777 0.019520 0.016719
v -0.001640 0.019647 0.016314
v -0.005628 0.018851 0.018799
v -0.004791 0.019117 0.017976
v -0.006827 0.018204 0.020790
v -0.006298 0.018539 0.019762
v -0.005627 0.018523 0.022458
v -0.007151 0.017842 0.021902
v -0.004432 0.015478 0.029088
v -0.005315 0.015737 0.028306
v -0.006083 0.016031 0.027418
v -0.001186 0.014987 0.030544
v -0.002356 0.015092 0.030238
v 0.001053 0.016208 0.029442
v 0.000005 0.014930 0.030703
v 0.001218 0.014941 0.030652
v 0.002404 0.015001 0.030453
v 0.003541 0.015129 0.030047
v 0.005554 0.015532 0.028790
v 0.004604 0.015300 0.029510
v 0.007585 0.015265 0.025590
v 0.007056 0.014931 0.026618
v 0.006386 0.014619 0.027581
v 0.007910 0.015628 0.024478
v 0.008079 0.015998 0.023345
v 0.008026 0.016375 0.022193
v 0.007818 0.016745 0.021066
v 0.005208 0.017996 0.017280
v 0.006073 0.017732 0.018074
v 0.006829 0.017434 0.018976
v 0.007393 0.017100 0.019986
v 0.001945 0.018483 0.015836
v 0.003115 0.018377 0.016143
v -0.000460 0.018528 0.015729
v 0.000753 0.018540 0.015677
v -0.002782 0.018340 0.016333
v -0.001645 0.018468 0.015927
v -0.003846 0.018169 0.016871
v -0.007320 0.017472 0.023035
v -0.007326 0.016292 0.022649
v -0.007156 0.016663 0.021516
v -0.007267 0.017094 0.024188
v -0.007057 0.016725 0.025313
v -0.007062 0.015546 0.024927
v -0.007272 0.015915 0.023802
v -0.006634 0.016369 0.026394
v -0.006088 0.014852 0.027032
v -0.006639 0.015190 0.026009
v -0.005320 0.014558 0.027921
v -0.004437 0.014299 0.028702
v -0.002361 0.013913 0.029851
v 0.000000 0.013751 0.030317
v -0.001192 0.013808 0.030158
v 0.002399 0.013822 0.030067
v 0.001213 0.013762 0.030265
v 0.004599 0.014121 0.029124
v 0.003536 0.013950 0.029661
v 0.005549 0.014353 0.028404
v 0.005849 0.014037 0.025602
v 0.005299 0.013781 0.026391
v 0.006282 0.014311 0.024759
v 0.006687 0.014912 0.022918
v 0.006548 0.014608 0.023847
v 0.006473 0.015524 0.021050
v 0.006643 0.015221 0.021973
v 0.005662 0.016089 0.019336
v 0.006125 0.015816 0.020164
v 0.004334 0.016550 0.017945
v 0.005043 0.016334 0.018596
v 0.001658 0.016949 0.016761
v 0.002617 0.016862 0.017013
v 0.000681 0.016996 0.016631
v -0.000314 0.016986 0.016674
v -0.001286 0.016937 0.016836
v -0.003090 0.016692 0.017609
v -0.002218 0.016832 0.017169
v -0.004796 0.017938 0.017590
v -0.004555 0.016284 0.018874
v -0.003869 0.016502 0.018199
v -0.005633 0.017672 0.018413
v -0.006303 0.017360 0.019376
v -0.005538 0.015754 0.020507
v -0.005105 0.016028 0.019663
v -0.006832 0.017025 0.020404
v -0.005943 0.015153 0.022348
v -0.005804 0.015457 0.021419
v -0.005899 0.014844 0.023293
v -0.005727 0.014541 0.024215
v -0.005381 0.014249 0.025102
v -0.004929 0.013972 0.025941
v -0.004299 0.013731 0.026669
v -0.003575 0.013518 0.027310
v -0.001873 0.013202 0.028253
v 0.000063 0.013069 0.028635
v -0.000914 0.013116 0.028504
v 0.002030 0.013128 0.028429
v 0.001058 0.013079 0.028592
v 0.003834 0.013373 0.027656
v 0.002962 0.013233 0.028097
v 0.004613 0.013563 0.027066
v 0.003649 0.014195 0.023987
v 0.003330 0.014050 0.024433
v 0.003010 0.013905 0.024879
v 0.003967 0.014532 0.022952
v 0.003808 0.014363 0.023470
v 0.003950 0.014709 0.022413
v 0.003933 0.014885 0.021875
v 0.003741 0.015052 0.021367
v 0.003550 0.015219 0.020860
v 0.003203 0.015360 0.020434
v 0.002856 0.015501 0.020008
v 0.002387 0.015602 0.019705
v 0.000830 0.015806 0.019102
v 0.001374 0.015755 0.019252
v 0.001918 0.015703 0.019403
v 0.000263 0.015803 0.019119
v -0.000304 0.015800 0.019135
v -0.000838 0.015743 0.019318
v -0.001372 0.015685 0.019501
v -0.001821 0.015579 0.019831
v -0.002269 0.015473 0.020162
v -0.002589 0.015328 0.020608
v -0.002908 0.015183 0.021053
v -0.003067 0.015015 0.021571
v -0.003226 0.014846 0.022089
v -0.003191 0.014493 0.023166
v -0.003209 0.014669 0.022627
v -0.002812 0.014158 0.024184
v -0.003002 0.014326 0.023675
v -0.002111 0.013878 0.025029
v -0.002461 0.014018 0.024607
v -0.001644 0.013777 0.025334
v -0.000633 0.013624 0.025789
v -0.001178 0.013675 0.025638
v -0.000089 0.013572 0.025939
v 0.000478 0.013575 0.025922
v 0.001045 0.013578 0.025905
v 0.001579 0.013636 0.025723
v 0.002113 0.013693 0.025540
v 0.002562 0.013799 0.025210
v 0.003649 0.014195 0.023987
v 0.003950 0.014709 0.022413
v 0.003933 0.014885 0.021875
v 0.002856 0.015501 0.020008
v 0.003056 0.012432 0.019145
v 0.002153 0.012613 0.018457
v 0.000830 0.015806 0.019102
v 0.001918 0.015703 0.019403
v -0.001372 0.015685 0.019501
v -0.000838 0.015743 0.019318
v -0.002908 0.015183 0.021053
v -0.003191 0.014493 0.023166
v -0.002111 0.013878 0.025029
v -0.000089 0.013572 0.025939
v 0.001579 0.013636 0.025723
v 0.002113 0.013693 0.025540
v 0.002861 0.010769 0.024080
v 0.001907 0.010617 0.024703
v 0.004102 0.010234 0.023317
v 0.003827 0.009373 0.024806
v 0.003260 0.009908 0.024323
v 0.004586 0.010625 0.022117
v 0.003970 0.011383 0.022189
v 0.004646 0.011045 0.020834
v 0.005484 0.010732 0.020635
v 0.004833 0.009763 0.023604
v 0.004296 0.011452 0.019593
v 0.004174 0.011642 0.017872
v 0.005065 0.011219 0.019152
v 0.003700 0.012088 0.020042
v 0.003550 0.011806 0.018523
v 0.002500 0.012074 0.017716
v -0.000116 0.012254 0.017202
v -0.001418 0.012147 0.017546
v -0.000209 0.012178 0.016293
v -0.003121 0.011781 0.017543
v -0.001766 0.012050 0.016704
v -0.003394 0.011597 0.019253
v -0.002552 0.011922 0.018247
v -0.004128 0.011392 0.018745
v -0.003878 0.011206 0.020453
v -0.004778 0.010423 0.021714
v -0.004707 0.010925 0.020180
v -0.003938 0.010786 0.021736
v -0.002986 0.011152 0.022990
v -0.003587 0.010379 0.022977
v -0.001438 0.010626 0.024574
v 0.000795 0.010480 0.024991
v 0.000824 0.009577 0.025368
v 0.000914 0.008977 0.026056
v 0.002127 0.009684 0.025024
v 0.002472 0.009105 0.025645
v 0.006226 0.009771 0.022198
v 0.006257 0.008631 0.024092
v 0.005554 0.009229 0.023864
v 0.005412 0.010230 0.022169
v 0.006309 0.010354 0.020416
v 0.004930 0.008118 0.025678
v 0.004385 0.008777 0.025260
v 0.005823 0.010920 0.018694
v 0.005387 0.011109 0.016535
v 0.006562 0.010552 0.018222
v 0.007020 0.009247 0.022201
v 0.007114 0.009909 0.020178
v 0.004788 0.011411 0.017208
v 0.002918 0.011963 0.016907
v 0.003330 0.011784 0.016088
v -0.002110 0.011885 0.015852
v -0.000301 0.012033 0.015374
v -0.000392 0.011816 0.014452
v -0.002445 0.011647 0.014995
v -0.004232 0.011293 0.016100
v -0.004852 0.011121 0.018222
v -0.003683 0.011573 0.016825
v -0.005559 0.010780 0.017686
v -0.006322 0.010164 0.019578
v -0.005524 0.010578 0.019888
v -0.006416 0.009502 0.021601
v -0.005607 0.009996 0.021669
v -0.004360 0.009936 0.023197
v -0.005121 0.009430 0.023391
v 0.001003 0.008316 0.026712
v 0.002812 0.008465 0.026234
v 0.001089 0.007595 0.027326
v 0.003143 0.007764 0.026783
v 0.007785 0.008657 0.022175
v 0.007573 0.007249 0.024435
v 0.006934 0.007971 0.024284
v 0.005949 0.006621 0.026375
v 0.005454 0.007398 0.026052
v 0.007274 0.010111 0.017740
v 0.006509 0.010281 0.015187
v 0.007947 0.009598 0.017252
v 0.007890 0.009395 0.019920
v 0.008507 0.008002 0.022120
v 0.008622 0.008812 0.019644
v 0.005964 0.010733 0.015858
v 0.003731 0.011533 0.015263
v 0.004118 0.011205 0.014440
v 0.004483 0.010799 0.013631
v -0.002769 0.011333 0.014141
v -0.000479 0.011521 0.013536
v -0.000562 0.011145 0.012639
v -0.003075 0.010939 0.013303
v -0.005261 0.010506 0.014655
v -0.006241 0.010366 0.017142
v -0.004761 0.010938 0.015374
v -0.006885 0.009877 0.016596
v -0.007196 0.008941 0.021507
v -0.007092 0.009679 0.019251
v -0.007819 0.009124 0.018910
v -0.007935 0.008314 0.021386
v -0.005865 0.008860 0.023556
v -0.006581 0.008225 0.023686
v 0.001172 0.006815 0.027890
v 0.003462 0.007003 0.027285
v 0.003763 0.006187 0.027728
v 0.001250 0.005981 0.028392
v 0.008164 0.006472 0.024537
v 0.009774 0.006519 0.021913
v 0.008695 0.005648 0.024589
v 0.006407 0.005792 0.026637
v 0.009175 0.007287 0.022033
v 0.008569 0.009014 0.016765
v 0.009907 0.007455 0.019052
v 0.009299 0.008164 0.019354
v 0.007465 0.009152 0.013899
v 0.009127 0.008363 0.016286
v 0.007013 0.009753 0.014530
v 0.004820 0.010313 0.012846
v 0.005122 0.009751 0.012100
v -0.000640 0.010688 0.011773
v -0.003359 0.010465 0.012491
v -0.000710 0.010152 0.010953
v -0.006141 0.009412 0.013285
v -0.003614 0.009913 0.011721
v -0.007482 0.009316 0.016055
v -0.005724 0.009996 0.013955
v -0.008019 0.008686 0.015527
v -0.008493 0.008501 0.018559
v -0.009098 0.007815 0.018203
v -0.008617 0.007624 0.021238
v -0.007259 0.007528 0.023778
v -0.007887 0.006774 0.023827
v -0.009231 0.006879 0.021064
v 0.001322 0.005100 0.028819
v -0.001624 0.004243 0.029017
v 0.004041 0.005323 0.028101
v 0.001385 0.004182 0.029163
v 0.004290 0.004421 0.028395
v 0.009154 0.004787 0.024585
v 0.006817 0.004921 0.026831
v 0.010293 0.005707 0.021762
v 0.010434 0.006695 0.018742
v 0.009610 0.007653 0.015823
v 0.007856 0.008486 0.013304
v 0.005384 0.009118 0.011405
v -0.000771 0.009541 0.010195
v -0.003836 0.009289 0.011005
v -0.008485 0.007994 0.015022
v -0.006503 0.008760 0.012655
v -0.009624 0.007075 0.017846
v -0.009765 0.006087 0.020866
v -0.008451 0.005970 0.023830
v -0.008941 0.005128 0.023785
v 0.001440 0.003240 0.029413
v 0.004505 0.003492 0.028603
v 0.007173 0.004021 0.026952
vt 0.788749 0.267379
vt 0.807793 0.263538
vt 0.795023 0.274747
vt 0.782162 0.280402
vt 0.778790 0.278016
vt 0.771357 0.257941
vt 0.759029 0.268439
vt 0.761167 0.255962
vt 0.767488 0.271742
vt 0.763351 0.270111
vt 0.789376 0.249787
vt 0.779409 0.263420
vt 0.745533 0.262697
vt 0.753139 0.250332
vt 0.750120 0.264732
vt 0.869712 0.096074
vt 0.860970 0.100871
vt 0.857060 0.085743
vt 0.865475 0.082247
vt 0.869199 0.111301
vt 0.855807 0.115290
vt 0.842528 0.106454
vt 0.851118 0.101708
vt 0.860128 0.113996
vt 0.835888 0.090997
vt 0.846370 0.087179
vt 0.840295 0.122064
vt 0.833238 0.109427
vt 0.843877 0.119980
vt 0.816221 0.102687
vt 0.825474 0.095710
vt 0.836828 0.124293
vt 0.826223 0.116386
vt 0.828045 0.132775
vt 0.818342 0.121951
vt 0.830704 0.129648
vt 0.800878 0.119795
vt 0.807603 0.110385
vt 0.825428 0.136106
vt 0.813591 0.130879
vt 0.818928 0.147385
vt 0.807468 0.138385
vt 0.820869 0.143411
vt 0.816928 0.151535
vt 0.798471 0.155554
vt 0.812465 0.160041
vt 0.810002 0.164396
vt 0.791633 0.139710
vt 0.804692 0.148242
vt 0.819387 0.316215
vt 0.805998 0.321718
vt 0.804157 0.317118
vt 0.798912 0.304148
vt 0.806465 0.290097
vt 0.812012 0.298218
vt 0.800614 0.308333
vt 0.828494 0.302655
vt 0.813779 0.307953
vt 0.802625 0.281110
vt 0.793087 0.292685
vt 0.790664 0.289300
vt 0.788099 0.286044
vt 0.856628 0.075637
vt 0.869016 0.075509
vt 0.857960 0.067975
vt 0.872556 0.068771
vt 0.779807 0.149018
vt 0.774584 0.136833
vt 0.782238 0.136853
vt 0.832776 0.310712
vt 0.838531 0.301284
vt 0.839836 0.313608
vt 0.859342 0.060178
vt 0.875983 0.061299
vt 0.860674 0.052282
vt 0.879410 0.053827
vt 0.764770 0.153362
vt 0.758794 0.136716
vt 0.766747 0.136815
vt 0.772676 0.151323
vt 0.846896 0.316504
vt 0.846296 0.301893
vt 0.854674 0.319209
vt 0.854201 0.302536
vt 0.861860 0.044326
vt 0.882355 0.046019
vt 0.862882 0.036324
vt 0.885301 0.038211
vt 0.748680 0.156893
vt 0.742757 0.136018
vt 0.750790 0.136454
vt 0.756864 0.155402
vt 0.862452 0.321915
vt 0.862197 0.303117
vt 0.870517 0.324102
vt 0.870238 0.303542
vt 0.863724 0.028295
vt 0.887689 0.030253
vt 0.864394 0.020248
vt 0.740497 0.158384
vt 0.734718 0.135394
vt 0.878581 0.326288
vt 0.886385 0.303868
vt 0.886737 0.327900
vt 0.878307 0.303797
vt 0.890077 0.022296
vt 0.864902 0.012194
vt 0.891943 0.014308
vt 0.724006 0.160211
vt 0.732252 0.159298
vt 0.715815 0.160616
vt 0.718657 0.133633
vt 0.726682 0.134595
vt 0.894892 0.329511
vt 0.902530 0.303493
vt 0.903025 0.330594
vt 0.759459 0.479951
vt 0.771041 0.477011
vt 0.767243 0.484277
vt 0.762514 0.471987
vt 0.767085 0.462728
vt 0.782142 0.459355
vt 0.775612 0.468656
vt 0.788676 0.440620
vt 0.813858 0.431074
vt 0.794189 0.447469
vt 0.774338 0.452437
vt 0.468915 0.497823
vt 0.480243 0.494026
vt 0.477029 0.501480
vt 0.475107 0.480078
vt 0.471330 0.489679
vt 0.481496 0.469185
vt 0.484075 0.485319
vt 0.494886 0.456241
vt 0.519106 0.444804
vt 0.500933 0.462624
vt 0.489826 0.475427
vt 0.412589 0.046835
vt 0.358802 0.056466
vt 0.410297 0.038541
vt 0.406977 0.030684
vt 0.366261 0.002338
vt 0.357667 0.001953
vt 0.349170 0.002683
vt 0.340878 0.004972
vt 0.333021 0.008291
vt 0.325840 0.013030
vt 0.319393 0.018616
vt 0.314032 0.025341
vt 0.309627 0.032647
vt 0.310627 0.082248
vt 0.315367 0.089426
vt 0.320948 0.095876
vt 0.327679 0.101237
vt 0.334986 0.105620
vt 0.343036 0.108662
vt 0.351364 0.110732
vt 0.359937 0.110979
vt 0.403572 0.087590
vt 0.407978 0.080287
vt 0.410998 0.072232
vt 0.412931 0.063924
vt 0.413315 0.055330
vt 0.402238 0.023507
vt 0.374569 0.004271
vt 0.304672 0.049007
vt 0.306606 0.040700
vt 0.307305 0.074391
vt 0.398211 0.094318
vt 0.391763 0.099901
vt 0.305017 0.066099
vt 0.304288 0.057601
vt 0.384584 0.104642
vt 0.376727 0.107960
vt 0.368450 0.110095
vt 0.396652 0.017058
vt 0.389925 0.011697
vt 0.382623 0.007291
vt 0.591417 0.530466
vt 0.579427 0.523801
vt 0.590127 0.522415
vt 0.600602 0.520299
vt 0.602406 0.527845
vt 0.568733 0.532368
vt 0.557925 0.523858
vt 0.568718 0.524212
vt 0.580050 0.531534
vt 0.546043 0.530595
vt 0.557331 0.531592
vt 0.536737 0.520462
vt 0.547300 0.522539
vt 0.513679 0.521051
vt 0.503594 0.516785
vt 0.516492 0.513801
vt 0.524075 0.525255
vt 0.526516 0.517479
vt 0.534958 0.528015
vt 0.497717 0.504445
vt 0.506962 0.509361
vt 0.485313 0.506458
vt 0.488944 0.499132
vt 0.958319 0.495777
vt 0.947227 0.491161
vt 0.956561 0.487452
vt 0.941269 0.503157
vt 0.928971 0.500244
vt 0.938214 0.495575
vt 0.949859 0.498837
vt 0.922214 0.512065
vt 0.931902 0.507514
vt 0.909509 0.508117
vt 0.919441 0.504399
vt 0.889970 0.520849
vt 0.878801 0.522552
vt 0.888798 0.513179
vt 0.901124 0.518926
vt 0.911743 0.515563
vt 0.899308 0.510981
vt 0.867387 0.522673
vt 0.856039 0.522569
vt 0.867405 0.514917
vt 0.878186 0.514421
vt 0.856700 0.514440
vt 0.845973 0.513192
vt 0.833575 0.518922
vt 0.825136 0.508053
vt 0.835493 0.510997
vt 0.812132 0.511810
vt 0.822739 0.515434
vt 0.805502 0.499760
vt 0.815197 0.504255
vt 0.783387 0.495635
vt 0.779263 0.482842
vt 0.787598 0.488857
vt 0.792370 0.501570
vt 0.796369 0.494440
vt 0.802121 0.506772
vt 0.775182 0.489604
vt 0.660268 0.500950
vt 0.652065 0.505963
vt 0.657009 0.493517
vt 0.668443 0.497198
vt 0.666003 0.489049
vt 0.648391 0.498660
vt 0.639566 0.504081
vt 0.633813 0.516418
vt 0.620825 0.513535
vt 0.630414 0.509010
vt 0.613361 0.525005
vt 0.623665 0.520773
vt 0.610895 0.517236
vt 0.568687 0.515005
vt 0.578730 0.514797
vt 0.588697 0.513326
vt 0.558614 0.514853
vt 0.548668 0.513442
vt 0.538759 0.511667
vt 0.529158 0.508687
vt 0.519651 0.505352
vt 0.492939 0.490796
vt 0.501587 0.496245
vt 0.494230 0.511470
vt 0.510581 0.500949
vt 0.944063 0.482193
vt 0.953638 0.477516
vt 0.925761 0.491760
vt 0.934831 0.486975
vt 0.897336 0.502013
vt 0.907051 0.499435
vt 0.916465 0.495736
vt 0.877510 0.505246
vt 0.887506 0.504247
vt 0.857427 0.505262
vt 0.867456 0.505888
vt 0.844740 0.520852
vt 0.847407 0.504277
vt 0.783853 0.474928
vt 0.792151 0.480931
vt 0.800669 0.486385
vt 0.653113 0.484842
vt 0.662268 0.479386
vt 0.643089 0.511083
vt 0.644310 0.490371
vt 0.635666 0.495890
vt 0.626730 0.500624
vt 0.617655 0.505089
vt 0.598576 0.511502
vt 0.608187 0.508463
vt 0.568698 0.504289
vt 0.577849 0.503810
vt 0.587098 0.502742
vt 0.559411 0.503861
vt 0.550291 0.502865
vt 0.541166 0.500950
vt 0.532268 0.498499
vt 0.498182 0.481398
vt 0.506469 0.486530
vt 0.514907 0.491276
vt 0.523470 0.495129
vt 0.939080 0.471859
vt 0.947757 0.466232
vt 0.921649 0.481659
vt 0.930415 0.477103
vt 0.904014 0.488931
vt 0.912979 0.485695
vt 0.895105 0.491582
vt 0.837608 0.502044
vt 0.840099 0.491642
vt 0.849106 0.493388
vt 0.827876 0.499454
vt 0.818565 0.495703
vt 0.822511 0.485788
vt 0.831166 0.488975
vt 0.809367 0.491593
vt 0.805751 0.477172
vt 0.814020 0.481702
vt 0.797779 0.471721
vt 0.789925 0.465774
vt 0.655472 0.468630
vt 0.639091 0.480898
vt 0.647290 0.474954
vt 0.622425 0.490904
vt 0.630732 0.486165
vt 0.605100 0.498253
vt 0.613760 0.494872
vt 0.596083 0.500795
vt 0.576562 0.487741
vt 0.584600 0.486947
vt 0.568643 0.488260
vt 0.552681 0.487052
vt 0.560596 0.487785
vt 0.536999 0.483328
vt 0.544773 0.485325
vt 0.521838 0.477089
vt 0.529347 0.480369
vt 0.507481 0.468243
vt 0.514568 0.472885
vt 0.928940 0.458258
vt 0.935389 0.452264
vt 0.922092 0.463291
vt 0.914607 0.467437
vt 0.907141 0.471031
vt 0.891546 0.476102
vt 0.899284 0.473760
vt 0.885909 0.493370
vt 0.875611 0.478619
vt 0.883513 0.477513
vt 0.876792 0.494566
vt 0.867487 0.494864
vt 0.859601 0.478606
vt 0.867538 0.478745
vt 0.858326 0.494582
vt 0.843793 0.476081
vt 0.851623 0.477466
vt 0.836055 0.473702
vt 0.828488 0.471047
vt 0.821104 0.467471
vt 0.813799 0.463639
vt 0.807003 0.458757
vt 0.800376 0.453481
vt 0.641992 0.455735
vt 0.629654 0.467825
vt 0.636060 0.462241
vt 0.615392 0.476774
vt 0.622536 0.472576
vt 0.600269 0.483119
vt 0.607791 0.480145
vt 0.592383 0.485191
vt 0.571640 0.463495
vt 0.577564 0.462805
vt 0.583488 0.462116
vt 0.559688 0.463137
vt 0.565664 0.463316
vt 0.553826 0.462097
vt 0.547964 0.461056
vt 0.542403 0.459187
vt 0.536843 0.457319
vt 0.531862 0.454637
vt 0.526881 0.451956
vt 0.522994 0.448380
vt 0.908551 0.442394
vt 0.912048 0.438607
vt 0.915545 0.434820
vt 0.903799 0.445143
vt 0.899046 0.447893
vt 0.893607 0.449781
vt 0.888167 0.451670
vt 0.882363 0.452725
vt 0.876558 0.453780
vt 0.870599 0.453977
vt 0.864639 0.454175
vt 0.858697 0.453502
vt 0.852754 0.452828
vt 0.841248 0.449779
vt 0.847001 0.451304
vt 0.830431 0.445166
vt 0.835840 0.447473
vt 0.820972 0.438964
vt 0.825702 0.442065
vt 0.817415 0.435019
vt 0.617597 0.444055
vt 0.620769 0.439991
vt 0.614425 0.448119
vt 0.609916 0.451252
vt 0.605407 0.454386
vt 0.600145 0.456718
vt 0.594882 0.459049
vt 0.589185 0.460582
vt 0.785535 0.282787
vt 0.775208 0.275694
vt 0.771625 0.273372
vt 0.754707 0.266768
vt 0.768518 0.242203
vt 0.760744 0.237966
vt 0.864448 0.112701
vt 0.873949 0.109900
vt 0.847460 0.117895
vt 0.851633 0.116592
vt 0.833362 0.126521
vt 0.822810 0.139438
vt 0.814928 0.155686
vt 0.802315 0.312517
vt 0.797210 0.300109
vt 0.795509 0.296070
vt 0.815597 0.272119
vt 0.821263 0.282058
vt 0.816023 0.255776
vt 0.831524 0.261166
vt 0.824575 0.265918
vt 0.806000 0.247068
vt 0.799344 0.255647
vt 0.794818 0.240125
vt 0.797954 0.232476
vt 0.821951 0.249779
vt 0.782897 0.235218
vt 0.770141 0.225014
vt 0.784304 0.227314
vt 0.779284 0.244847
vt 0.770660 0.232614
vt 0.758265 0.231162
vt 0.844265 0.076921
vt 0.831950 0.080514
vt 0.843542 0.068815
vt 0.816041 0.078852
vt 0.829425 0.072560
vt 0.809247 0.093792
vt 0.820128 0.086208
vt 0.803824 0.087337
vt 0.799667 0.102984
vt 0.784438 0.109664
vt 0.793161 0.097710
vt 0.791752 0.113504
vt 0.795101 0.129371
vt 0.785832 0.124933
vt 0.786939 0.146712
vt 0.826053 0.292143
vt 0.836082 0.289092
vt 0.844092 0.287616
vt 0.831346 0.277164
vt 0.839036 0.273910
vt 0.815223 0.233197
vt 0.833620 0.238024
vt 0.827812 0.243868
vt 0.810649 0.240098
vt 0.801004 0.224881
vt 0.845238 0.251945
vt 0.838410 0.256522
vt 0.785613 0.219396
vt 0.768892 0.209296
vt 0.786908 0.211477
vt 0.819752 0.226356
vt 0.804021 0.217336
vt 0.769508 0.217220
vt 0.755786 0.224358
vt 0.753047 0.216699
vt 0.827028 0.064687
vt 0.842942 0.060745
vt 0.842371 0.052702
vt 0.824690 0.056880
vt 0.808132 0.064349
vt 0.798479 0.080959
vt 0.812055 0.071570
vt 0.793194 0.074640
vt 0.780314 0.087395
vt 0.786711 0.092525
vt 0.769930 0.102255
vt 0.777163 0.105935
vt 0.778098 0.122829
vt 0.770340 0.120822
vt 0.852078 0.286262
vt 0.846656 0.270788
vt 0.860037 0.284936
vt 0.854214 0.267731
vt 0.824265 0.219568
vt 0.845136 0.226468
vt 0.839391 0.232228
vt 0.858756 0.242871
vt 0.852017 0.247400
vt 0.788275 0.203571
vt 0.768124 0.193266
vt 0.789730 0.195677
vt 0.807057 0.209837
vt 0.828775 0.212821
vt 0.810127 0.202376
vt 0.768424 0.201305
vt 0.750308 0.209040
vt 0.748038 0.201038
vt 0.745768 0.193036
vt 0.822343 0.049124
vt 0.841733 0.044679
vt 0.841015 0.036670
vt 0.819974 0.041407
vt 0.800353 0.050051
vt 0.787954 0.068364
vt 0.804235 0.057180
vt 0.782747 0.062117
vt 0.762742 0.098563
vt 0.773966 0.082287
vt 0.767659 0.077187
vt 0.755591 0.094844
vt 0.762578 0.118827
vt 0.754833 0.116762
vt 0.867969 0.283544
vt 0.861719 0.264668
vt 0.869182 0.261584
vt 0.875878 0.282071
vt 0.850865 0.220733
vt 0.837828 0.199419
vt 0.856586 0.215014
vt 0.865467 0.238344
vt 0.833295 0.206107
vt 0.791287 0.187793
vt 0.816402 0.187533
vt 0.813242 0.194944
vt 0.768082 0.177122
vt 0.792942 0.179915
vt 0.768012 0.185202
vt 0.744076 0.184892
vt 0.742383 0.176749
vt 0.840202 0.028671
vt 0.817567 0.033717
vt 0.839301 0.020677
vt 0.792582 0.035868
vt 0.815124 0.026045
vt 0.777562 0.055887
vt 0.796469 0.042950
vt 0.772394 0.049667
vt 0.761382 0.072080
vt 0.755131 0.066963
vt 0.748467 0.091083
vt 0.747103 0.114613
vt 0.739388 0.112365
vt 0.741364 0.087279
vt 0.883766 0.280501
vt 0.894462 0.303763
vt 0.876614 0.258463
vt 0.891641 0.278841
vt 0.884024 0.255306
vt 0.862305 0.209306
vt 0.872158 0.233812
vt 0.842380 0.192750
vt 0.819607 0.180135
vt 0.794689 0.172039
vt 0.768327 0.169036
vt 0.741244 0.168580
vt 0.838318 0.012684
vt 0.812646 0.018381
vt 0.767238 0.043449
vt 0.788686 0.028798
vt 0.748900 0.061828
vt 0.734272 0.083432
vt 0.731683 0.110022
vt 0.723982 0.107591
vt 0.899505 0.277097
vt 0.891421 0.252113
vt 0.878835 0.229272
vn 0.985401 -0.012993 0.169750
vn 0.822280 0.187828 0.537192
vn 0.888952 -0.120709 0.441808
vn 0.424450 -0.894520 -0.140268
vn 0.466934 -0.858237 -0.213076
vn 0.894445 0.177370 -0.410498
vn 0.342030 -0.763839 -0.547326
vn 0.709800 0.241378 -0.661756
vn 0.427929 -0.807657 -0.405668
vn 0.414987 -0.768177 -0.487535
vn 0.931259 0.364341 -0.003531
vn 0.988075 0.068628 -0.137835
vn 0.203159 -0.704089 -0.680431
vn 0.461890 0.316177 -0.828667
vn 0.266536 -0.736048 -0.622247
vn 0.461890 0.316177 -0.828667
vn 0.160517 0.331450 -0.929718
vn 0.177731 0.617339 -0.766358
vn 0.451211 0.594344 -0.665705
vn 0.109953 -0.716513 -0.688854
vn -0.087704 -0.690599 -0.717901
vn -0.450181 0.304476 -0.839423
vn -0.147058 0.350257 -0.925038
vn 0.001956 -0.707113 -0.707097
vn -0.396949 0.597128 -0.697043
vn -0.115282 0.630204 -0.767823
vn -0.346433 -0.732698 -0.585780
vn -0.699690 0.266828 -0.662750
vn -0.264859 -0.731963 -0.627758
vn -0.819384 0.475562 -0.320080
vn -0.637086 0.555919 -0.533925
vn -0.379243 -0.773759 -0.507416
vn -0.888703 0.170890 -0.425444
vn -0.474146 -0.814433 -0.334492
vn -0.985022 0.097611 -0.142139
vn -0.431806 -0.800906 -0.414841
vn -0.928489 0.298829 0.220477
vn -0.915067 0.399742 -0.053465
vn -0.449650 -0.856409 -0.253728
vn -0.987937 -0.018512 0.153748
vn -0.420340 -0.905356 -0.060374
vn -0.893883 -0.093344 0.438475
vn -0.435870 -0.887437 -0.149912
vn -0.347436 -0.937669 -0.008049
vn -0.461760 -0.231183 0.856348
vn -0.276107 -0.958695 0.068326
vn -0.211235 -0.968352 0.132948
vn -0.682034 0.134767 0.718796
vn -0.708983 -0.191108 0.678838
vn -0.461760 -0.231183 0.856348
vn -0.211235 -0.968352 0.132948
vn -0.117355 -0.984271 0.132057
vn 0.080404 -0.982096 0.170361
vn 0.450333 -0.254361 0.855863
vn 0.147330 -0.265678 0.952738
vn -0.009290 -0.988327 0.152066
vn -0.174928 0.046060 0.983503
vn -0.160359 -0.281218 0.946151
vn 0.700066 -0.182220 0.690437
vn 0.257490 -0.963534 0.072810
vn 0.339163 -0.939951 0.038205
vn 0.371874 -0.926968 -0.049401
vn 0.119716 0.953624 -0.276168
vn 0.286364 0.933428 -0.216121
vn 0.090718 0.989099 -0.115988
vn 0.215483 0.973932 -0.070878
vn -0.279623 0.627159 0.726968
vn -0.312338 0.771372 0.554464
vn -0.419423 0.662303 0.620837
vn -0.448279 0.089183 0.889434
vn -0.113003 0.606628 0.786914
vn -0.279623 0.627159 0.726968
vn 0.103893 0.976799 -0.187269
vn 0.247730 0.959342 -0.135250
vn 0.117149 0.958154 -0.261184
vn 0.280233 0.938389 -0.202229
vn -0.240559 0.695595 0.676964
vn -0.409689 0.673586 0.615172
vn -0.360793 0.725794 0.585706
vn -0.208046 0.745156 0.633609
vn -0.208046 0.745156 0.633609
vn -0.083295 0.729730 0.678643
vn -0.240559 0.695595 0.676964
vn -0.096732 0.677782 0.728872
vn 0.130398 0.932213 -0.337603
vn 0.312776 0.910133 -0.271714
vn 0.143474 0.897952 -0.416051
vn 0.344950 0.873589 -0.343296
vn -0.306321 0.575751 0.758075
vn -0.507291 0.546437 0.666380
vn -0.458717 0.614008 0.642318
vn -0.273386 0.639365 0.718660
vn -0.273386 0.639365 0.718660
vn -0.110311 0.619159 0.777479
vn -0.306321 0.575751 0.758075
vn -0.123953 0.553154 0.823806
vn 0.156083 0.854561 -0.495342
vn 0.376055 0.827988 -0.415956
vn 0.167913 0.801384 -0.574098
vn -0.338973 0.504169 0.794299
vn -0.554346 0.470812 0.686321
vn -0.338973 0.504169 0.794299
vn -0.150649 0.397405 0.905193
vn -0.370625 0.424649 0.826021
vn -0.137498 0.479203 0.866867
vn 0.405326 0.772715 -0.488490
vn 0.172959 0.773738 -0.609438
vn 0.417813 0.744256 -0.521071
vn -0.400499 0.337462 0.851892
vn -0.370625 0.424649 0.826021
vn -0.413278 0.295384 0.861365
vn -0.617751 0.346669 0.705836
vn -0.598723 0.387301 0.701090
vn -0.400499 0.337462 0.851892
vn -0.168436 0.264997 0.949424
vn -0.413278 0.295384 0.861365
vn 0.049201 0.979510 0.195292
vn -0.253456 0.682103 0.685926
vn 0.066765 0.976677 0.204071
vn -0.178075 0.667825 0.722703
vn -0.338647 -0.007367 0.940885
vn -0.446386 -0.684049 0.576902
vn -0.482208 0.015243 0.875924
vn -0.145656 -0.986272 0.077795
vn -0.211235 -0.968352 0.132948
vn -0.209807 -0.976625 0.046732
vn -0.314548 -0.703298 0.637519
vn -0.041070 0.905734 0.421851
vn 0.255700 0.954950 -0.150623
vn -0.058706 0.908806 0.413068
vn 0.340994 0.547783 -0.763974
vn 0.185130 0.964481 -0.188425
vn 0.310739 -0.192581 -0.930781
vn 0.477443 0.528220 -0.702162
vn 0.138125 -0.750484 -0.646294
vn 0.203159 -0.704089 -0.680431
vn 0.198409 -0.762197 -0.616190
vn 0.435795 -0.213720 -0.874304
vn -0.095242 0.967824 0.232907
vn 0.004114 0.950367 0.311103
vn -0.105724 0.962703 0.249050
vn -0.115013 0.957152 0.265765
vn -0.102484 0.921318 0.375060
vn -0.089579 0.916642 0.389542
vn -0.075679 0.912029 0.403083
vn -0.058706 0.908806 0.413068
vn -0.041070 0.905734 0.421851
vn -0.021675 0.904299 0.426348
vn -0.002012 0.903059 0.429511
vn 0.017845 0.903553 0.428105
vn 0.037539 0.904252 0.425345
vn 0.123186 0.928107 0.351344
vn 0.127944 0.934236 0.332916
vn 0.131312 0.940241 0.314173
vn 0.129852 0.946511 0.295389
vn 0.127111 0.952539 0.276608
vn 0.119363 0.958466 0.259027
vn 0.110040 0.963900 0.242461
vn 0.097876 0.968771 0.227822
vn -0.009671 0.981909 0.189107
vn -0.029434 0.980989 0.191817
vn -0.047879 0.978817 0.199059
vn -0.065754 0.976043 0.207406
vn -0.080964 0.972201 0.219703
vn -0.119767 0.951240 0.284252
vn -0.111282 0.927025 0.358108
vn 0.073894 0.909199 0.409752
vn 0.056009 0.906638 0.418175
vn 0.113896 0.922767 0.368143
vn 0.010252 0.982183 0.187646
vn 0.029864 0.981162 0.190866
vn 0.103399 0.917427 0.384235
vn 0.089112 0.913258 0.397515
vn 0.049201 0.979510 0.195292
vn 0.066765 0.976677 0.204071
vn 0.084327 0.973309 0.213444
vn -0.123163 0.945027 0.302910
vn -0.121683 0.938944 0.321834
vn -0.118833 0.932692 0.340535
vn -0.095242 0.967824 0.232907
vn 0.443803 0.738799 0.507164
vn 0.403148 0.714691 0.571568
vn 0.344396 0.700676 0.624856
vn -0.080964 0.972201 0.219703
vn -0.115013 0.957152 0.265765
vn 0.500164 0.784743 0.366080
vn 0.482660 0.757754 0.439146
vn -0.105724 0.962703 0.249050
vn -0.123163 0.945027 0.302910
vn -0.119767 0.951240 0.284252
vn 0.507932 0.834036 0.215382
vn 0.515320 0.806462 0.289938
vn -0.111282 0.927025 0.358108
vn -0.102484 0.921318 0.375060
vn 0.466237 0.881896 0.069882
vn -0.118833 0.932692 0.340535
vn 0.497931 0.856071 0.138588
vn -0.121683 0.938944 0.321834
vn 0.379380 0.923525 -0.056328
vn 0.431977 0.901885 -0.000293
vn -0.075679 0.912029 0.403083
vn 0.324325 0.939184 -0.112901
vn -0.041070 0.905734 0.421851
vn 0.107299 0.973047 -0.204123
vn 0.185130 0.964481 -0.188425
vn -0.002012 0.903059 0.429511
vn -0.051221 0.976112 -0.211145
vn 0.028202 0.975245 -0.219323
vn -0.021675 0.904299 0.426348
vn 0.037539 0.904252 0.425345
vn 0.017845 0.903553 0.428105
vn -0.204448 0.963757 -0.171388
vn -0.131169 0.970462 -0.202480
vn 0.089112 0.913258 0.397515
vn 0.103399 0.917427 0.384235
vn -0.337282 0.937216 -0.088698
vn 0.073894 0.909199 0.409752
vn 0.056009 0.906638 0.418175
vn -0.277349 0.950539 -0.139830
vn 0.113896 0.922767 0.368143
vn 0.123186 0.928107 0.351344
vn -0.436757 0.899112 0.028998
vn -0.396056 0.917469 -0.037290
vn -0.475571 0.874513 0.095177
vn -0.493045 0.853234 0.169994
vn 0.131312 0.940241 0.314173
vn -0.501023 0.803502 0.321497
vn -0.508368 0.825758 0.244306
vn 0.127111 0.952539 0.276608
vn 0.129852 0.946511 0.295389
vn -0.459803 0.758248 0.462213
vn -0.490444 0.776405 0.395803
vn 0.097876 0.968771 0.227822
vn -0.315548 0.695356 0.645686
vn -0.366433 0.712067 0.598905
vn 0.110040 0.963900 0.242461
vn -0.427018 0.728636 0.535486
vn 0.119363 0.958466 0.259027
vn 0.084327 0.973309 0.213444
vn 0.029864 0.981162 0.190866
vn 0.010252 0.982183 0.187646
vn -0.100222 0.664875 0.740200
vn 0.049201 0.979510 0.195292
vn -0.178075 0.667825 0.722703
vn -0.021119 0.656957 0.753632
vn 0.058362 0.661884 0.747330
vn -0.029434 0.980989 0.191817
vn 0.211543 0.674148 0.707654
vn 0.138222 0.661768 0.736857
vn -0.065754 0.976043 0.207406
vn -0.047879 0.978817 0.199059
vn 0.284430 0.681660 0.674121
vn 0.897605 0.161070 0.410319
vn 0.832777 0.120004 0.540446
vn 0.748734 0.080601 0.657952
vn 0.939265 0.206793 0.273893
vn 0.958756 0.252166 0.131146
vn 0.953916 0.299881 -0.010713
vn 0.926166 0.345078 -0.152114
vn 0.875256 0.390289 -0.285660
vn 0.601388 0.500467 -0.622788
vn 0.711054 0.468983 -0.523886
vn -0.089579 0.916642 0.389542
vn 0.802989 0.430661 -0.411995
vn 0.197148 0.562500 -0.802949
vn 0.340994 0.547783 -0.763974
vn -0.102279 0.568313 -0.816431
vn 0.047355 0.568022 -0.821650
vn -0.524316 0.521811 -0.672909
vn -0.391764 0.544942 -0.741323
vn -0.250806 0.559105 -0.790252
vn -0.746398 0.459908 -0.481015
vn -0.642549 0.494822 -0.585049
vn -0.895284 0.379489 -0.233357
vn -0.830468 0.422835 -0.362676
vn 0.127944 0.934236 0.332916
vn -0.936852 0.336177 -0.096405
vn -0.598917 0.040635 0.799779
vn -0.697599 0.070183 0.713043
vn -0.800773 0.109609 0.588854
vn -0.194823 -0.019732 0.980640
vn -0.338647 -0.007367 0.940885
vn -0.009671 0.981909 0.189107
vn -0.045008 -0.027522 0.998607
vn 0.104707 -0.025415 0.994178
vn 0.253152 -0.018491 0.967250
vn 0.394047 -0.002050 0.919088
vn 0.644936 0.048087 0.762722
vn 0.526678 0.018763 0.849858
vn 0.822728 -0.548440 0.149441
vn 0.762435 -0.589047 0.267800
vn 0.685783 -0.622415 0.377229
vn 0.860295 -0.509284 0.022829
vn 0.878979 -0.464610 -0.107391
vn 0.873775 -0.423687 -0.238761
vn 0.849011 -0.379167 -0.367985
vn 0.550186 -0.236087 -0.800973
vn 0.650587 -0.268242 -0.710481
vn 0.735731 -0.300405 -0.607007
vn 0.801456 -0.340685 -0.491529
vn 0.178189 -0.182211 -0.966979
vn 0.310739 -0.192581 -0.930781
vn -0.097042 -0.177084 -0.979400
vn 0.040523 -0.174033 -0.983906
vn -0.363105 -0.198477 -0.910363
vn -0.233779 -0.182344 -0.955038
vn -0.485335 -0.216530 -0.847092
vn -0.956404 0.288436 0.045790
vn -0.882889 -0.431231 -0.185868
vn -0.864129 -0.390418 -0.317576
vn -0.951429 0.242448 0.189739
vn -0.923799 0.195542 0.329180
vn -0.852797 -0.516870 0.074714
vn -0.877575 -0.476335 -0.054469
vn -0.876151 0.155369 0.456311
vn -0.739935 -0.594858 0.314070
vn -0.808144 -0.557450 0.190142
vn -0.644361 -0.634668 0.426608
vn -0.553721 -0.660460 0.507135
vn -0.314548 -0.703298 0.637519
vn -0.044426 -0.721826 0.690647
vn -0.182096 -0.717388 0.672455
vn 0.229869 -0.713596 0.661771
vn 0.093249 -0.722669 0.684876
vn 0.481461 -0.679325 0.553816
vn 0.359136 -0.701213 0.615891
vn 0.589788 -0.655161 0.472137
vn 0.344744 -0.934073 -0.093056
vn 0.314535 -0.948195 -0.044651
vn 0.376988 -0.914004 -0.149921
vn 0.402204 -0.875323 -0.268406
vn 0.390143 -0.897675 -0.204859
vn 0.387639 -0.836033 -0.388310
vn 0.396998 -0.858561 -0.324445
vn 0.334845 -0.799795 -0.498204
vn 0.364617 -0.820528 -0.440213
vn 0.248803 -0.770317 -0.587118
vn 0.296209 -0.787305 -0.540751
vn 0.080810 -0.747577 -0.659241
vn 0.138125 -0.750484 -0.646294
vn 0.013459 -0.742132 -0.670118
vn -0.045005 -0.744979 -0.665568
vn -0.112824 -0.746171 -0.656125
vn -0.228390 -0.762129 -0.605802
vn -0.166843 -0.754586 -0.634636
vn -0.593667 -0.244496 -0.766669
vn -0.322040 -0.788558 -0.523896
vn -0.272734 -0.775458 -0.569457
vn -0.689663 -0.273453 -0.670514
vn -0.766390 -0.310664 -0.562258
vn -0.384494 -0.822747 -0.418631
vn -0.352292 -0.805557 -0.476412
vn -0.826595 -0.347490 -0.442709
vn -0.409772 -0.861403 -0.300120
vn -0.397628 -0.841928 -0.364758
vn -0.404562 -0.881241 -0.244426
vn -0.394979 -0.900823 -0.180303
vn -0.373151 -0.918271 -0.132424
vn -0.343400 -0.936631 -0.069277
vn -0.298616 -0.954061 -0.024429
vn -0.255337 -0.966702 0.017042
vn -0.145656 -0.986272 0.077795
vn -0.021005 -0.994602 0.101611
vn -0.088382 -0.992038 0.089721
vn 0.105260 -0.990576 0.087631
vn 0.037557 -0.994663 0.096102
vn 0.220888 -0.974587 0.037257
vn 0.159297 -0.985075 0.065209
vn 0.265204 -0.964192 0.000014
vn 0.310162 -0.938459 -0.151967
vn 0.371874 -0.926968 -0.049401
vn 0.339163 -0.939951 0.038205
vn 0.466934 -0.858237 -0.213076
vn 0.424450 -0.894520 -0.140268
vn 0.442130 -0.844208 -0.303040
vn 0.336953 -0.872381 -0.354138
vn 0.427929 -0.807657 -0.405668
vn 0.414987 -0.768177 -0.487535
vn 0.342030 -0.763839 -0.547326
vn 0.233506 -0.813539 -0.532568
vn 0.266536 -0.736048 -0.622247
vn 0.039472 -0.784400 -0.618999
vn 0.109953 -0.716513 -0.688854
vn 0.203159 -0.704089 -0.680431
vn 0.001956 -0.707113 -0.707097
vn -0.087704 -0.690599 -0.717901
vn -0.165613 -0.720320 -0.673581
vn -0.171202 -0.796142 -0.580385
vn -0.264859 -0.731963 -0.627758
vn -0.346433 -0.732698 -0.585780
vn -0.379243 -0.773759 -0.507416
vn -0.317884 -0.844168 -0.431659
vn -0.431806 -0.800906 -0.414841
vn -0.474146 -0.814433 -0.334492
vn -0.345685 -0.909844 -0.229532
vn -0.449650 -0.856409 -0.253728
vn -0.420340 -0.905356 -0.060374
vn -0.435870 -0.887437 -0.149912
vn -0.242412 -0.968958 -0.048557
vn -0.347436 -0.937669 -0.008049
vn -0.276107 -0.958695 0.068326
vn -0.117355 -0.984271 0.132057
vn -0.211235 -0.968352 0.132948
vn -0.047202 -0.998258 0.035407
vn -0.009290 -0.988327 0.152066
vn 0.080404 -0.982096 0.170361
vn 0.158143 -0.980471 0.116906
vn 0.163432 -0.986550 -0.003105
vn 0.257490 -0.963534 0.072810
vn 0.310162 -0.938459 -0.151967
vn 0.442130 -0.844208 -0.303040
vn 0.336953 -0.872381 -0.354138
vn 0.233506 -0.813539 -0.532568
vn 0.685064 0.528423 -0.501454
vn 0.451211 0.594344 -0.665705
vn 0.039472 -0.784400 -0.618999
vn 0.203159 -0.704089 -0.680431
vn -0.171202 -0.796142 -0.580385
vn -0.165613 -0.720320 -0.673581
vn -0.317884 -0.844168 -0.431659
vn -0.345685 -0.909844 -0.229532
vn -0.242412 -0.968958 -0.048557
vn -0.047202 -0.998258 0.035407
vn 0.158143 -0.980471 0.116906
vn 0.163432 -0.986550 -0.003105
vn 0.640064 0.127583 0.757654
vn 0.399783 0.066238 0.914213
vn 0.499165 0.690021 0.524123
vn 0.290492 0.760165 0.581174
vn 0.387427 0.647423 0.656311
vn 0.562334 0.742041 0.364905
vn 0.918011 0.283673 0.277101
vn 0.571112 0.797219 0.195634
vn 0.428084 0.872187 0.236712
vn 0.374303 0.792047 0.482243
vn 0.523756 0.851280 0.031661
vn 0.319780 0.947456 0.008197
vn 0.392725 0.912508 0.114436
vn 0.845894 0.461952 -0.266576
vn 0.426189 0.897913 -0.110067
vn 0.286364 0.933428 -0.216121
vn -0.059117 0.957073 -0.283756
vn -0.231129 0.943058 -0.239209
vn -0.042652 0.991662 -0.121607
vn -0.283049 0.958928 -0.018428
vn -0.171532 0.981206 -0.088382
vn -0.492413 0.870259 -0.013390
vn -0.380662 0.913202 -0.145457
vn -0.366871 0.926790 0.080412
vn -0.555604 0.818537 0.145948
vn -0.420648 0.846636 0.325979
vn -0.413939 0.888226 0.199271
vn -0.564404 0.762989 0.315113
vn -0.842951 0.221218 0.490404
vn -0.517026 0.709246 0.479224
vn -0.448279 0.089183 0.889434
vn 0.118160 0.053269 0.991565
vn 0.065838 0.603515 0.794629
vn 0.050079 0.727419 0.684364
vn 0.237877 0.617215 0.749974
vn 0.178972 0.737625 0.651059
vn 0.485106 0.794388 0.365541
vn 0.487824 0.700579 0.520785
vn 0.430846 0.749608 0.502455
vn 0.421370 0.830858 0.363487
vn 0.492836 0.842015 0.219370
vn 0.378286 0.658957 0.650135
vn 0.334218 0.712874 0.616529
vn 0.452065 0.888532 0.078404
vn 0.416540 0.903724 -0.098876
vn 0.511919 0.858102 0.039999
vn 0.549368 0.751368 0.365569
vn 0.558117 0.805341 0.199829
vn 0.367963 0.928795 -0.044089
vn 0.215483 0.973932 -0.070878
vn 0.247730 0.959342 -0.135250
vn -0.198481 0.967698 -0.155454
vn -0.049878 0.979783 -0.193748
vn -0.057195 0.961568 -0.268544
vn -0.225680 0.947835 -0.225117
vn -0.371470 0.918772 -0.133669
vn -0.423682 0.904964 0.039174
vn -0.327058 0.942040 -0.074785
vn -0.481002 0.876708 -0.004461
vn -0.542541 0.826362 0.150916
vn -0.477934 0.860538 0.176221
vn -0.551275 0.771949 0.316528
vn -0.485659 0.812565 0.322295
vn -0.385283 0.806571 0.448330
vn -0.444888 0.766403 0.463358
vn 0.057032 0.675139 0.735483
vn 0.205635 0.686867 0.697085
vn 0.064019 0.616183 0.784997
vn 0.232491 0.629463 0.741434
vn 0.613733 0.701001 0.363220
vn 0.601310 0.579797 0.549784
vn 0.544873 0.644198 0.536770
vn 0.466077 0.528394 0.709628
vn 0.422414 0.597670 0.681437
vn 0.571870 0.820344 -0.000860
vn 0.513268 0.830708 -0.215592
vn 0.631167 0.774392 -0.044105
vn 0.623487 0.761331 0.177873
vn 0.677423 0.642551 0.358086
vn 0.688146 0.709186 0.153332
vn 0.465180 0.871338 -0.156133
vn 0.280233 0.938389 -0.202229
vn 0.312776 0.910133 -0.271714
vn 0.344950 0.873589 -0.343296
vn -0.252958 0.920672 -0.297281
vn -0.064560 0.936061 -0.345865
vn -0.071891 0.902223 -0.425235
vn -0.280005 0.885188 -0.371537
vn -0.460139 0.849334 -0.258657
vn -0.538457 0.841135 -0.050561
vn -0.416002 0.888198 -0.195055
vn -0.595364 0.797332 -0.099013
vn -0.617051 0.723991 0.308360
vn -0.607315 0.784855 0.123174
vn -0.671466 0.735189 0.092901
vn -0.682179 0.667941 0.297465
vn -0.505060 0.719640 0.476479
vn -0.565403 0.665516 0.487245
vn 0.070988 0.549838 0.832249
vn 0.259365 0.564685 0.783493
vn 0.285939 0.491947 0.822330
vn 0.077852 0.475536 0.876245
vn 0.655893 0.507232 0.559035
vn 0.797062 0.500500 0.337922
vn 0.707271 0.426583 0.563732
vn 0.508307 0.451099 0.733576
vn 0.739041 0.575740 0.349773
vn 0.688527 0.719690 -0.089315
vn 0.809550 0.579033 0.096691
vn 0.750682 0.648492 0.126235
vn 0.603537 0.722189 -0.337915
vn 0.742540 0.655861 -0.135947
vn 0.559767 0.781162 -0.276492
vn 0.376055 0.827988 -0.415956
vn 0.405326 0.772715 -0.488490
vn -0.079037 0.859240 -0.505431
vn -0.306224 0.840620 -0.446749
vn -0.085819 0.806458 -0.585031
vn -0.543225 0.744189 -0.388702
vn -0.330960 0.786388 -0.521594
vn -0.650477 0.744717 -0.149253
vn -0.502901 0.801496 -0.323566
vn -0.702443 0.682893 -0.200577
vn -0.733619 0.676885 0.060247
vn -0.792258 0.609655 0.025456
vn -0.745259 0.603468 0.283578
vn -0.625184 0.603347 0.495093
vn -0.683101 0.532939 0.499348
vn -0.804756 0.530433 0.266473
vn 0.084455 0.393381 0.915488
vn -0.163087 0.308102 0.937270
vn 0.311617 0.411316 0.856571
vn 0.090625 0.303726 0.948440
vn 0.335753 0.323099 0.884803
vn 0.729267 0.387171 0.564153
vn 0.548053 0.365985 0.752126
vn 0.821833 0.463520 0.331271
vn 0.834752 0.544420 0.082439
vn 0.765597 0.623754 -0.157456
vn 0.622272 0.692061 -0.365827
vn 0.417813 0.744256 -0.521071
vn -0.088741 0.779073 -0.620621
vn -0.341581 0.758309 -0.555238
vn -0.724727 0.651559 -0.224146
vn -0.560472 0.714889 -0.418097
vn -0.817336 0.576090 0.009016
vn -0.830271 0.494277 0.257566
vn -0.737735 0.454316 0.499344
vn -0.761093 0.415887 0.497771
vn 0.093235 0.260600 0.960934
vn 0.346068 0.280454 0.895311
vn 0.565013 0.324785 0.758469
f 3/3/3 2/2/2 1/1/1
f 5/5/5 4/4/4 1/1/1
f 8/8/8 7/7/7 6/6/6
f 10/10/10 9/9/9 6/6/6
f 12/12/12 11/11/11 6/6/6
f 15/15/15 14/14/14 13/13/13
f 18/18/18 17/17/17 16/16/16
f 19/19/19 18/18/18 16/16/16
f 17/17/17 20/20/20 16/16/16
f 23/23/23 22/22/22 21/21/21
f 24/24/24 23/23/23 21/21/21
f 25/25/25 22/22/22 23/23/23
f 26/26/26 25/25/25 23/23/23
f 18/18/18 26/26/26 23/23/23
f 29/29/29 28/28/28 27/27/27
f 31/31/31 30/30/30 28/28/28
f 33/33/33 32/32/32 28/28/28
f 36/36/36 35/35/35 34/34/34
f 38/38/38 37/37/37 35/35/35
f 40/40/40 39/39/39 35/35/35
f 43/43/43 42/42/42 41/41/41
f 44/44/44 41/41/41 42/42/42
f 47/47/47 46/46/46 45/45/45
f 49/49/49 48/48/48 45/45/45
f 52/52/52 51/51/51 50/50/50
f 55/55/55 54/54/54 53/53/53
f 53/53/53 56/56/56 55/55/55
f 58/58/58 57/57/57 55/55/55
f 61/61/61 60/60/60 59/59/59
f 3/3/3 62/62/62 59/59/59
f 64/64/64 63/63/63 19/19/19
f 66/66/66 65/65/65 64/64/64
f 69/69/69 68/68/68 67/67/67
f 48/48/48 69/69/69 67/67/67
f 57/57/57 50/50/50 70/70/70
f 72/72/72 71/71/71 70/70/70
f 74/74/74 73/73/73 66/66/66
f 76/76/76 75/75/75 74/74/74
f 79/79/79 78/78/78 77/77/77
f 68/68/68 79/79/79 80/80/80
f 67/67/67 68/68/68 80/80/80
f 82/82/82 71/71/71 81/81/81
f 84/84/84 82/82/82 83/83/83
f 86/86/86 85/85/85 76/76/76
f 88/88/88 87/87/87 86/86/86
f 91/91/91 90/90/90 89/89/89
f 77/77/77 78/78/78 92/92/92
f 78/78/78 91/91/91 92/92/92
f 94/94/94 84/84/84 93/93/93
f 96/96/96 94/94/94 95/95/95
f 98/98/98 97/97/97 88/88/88
f 99/99/99 97/97/97 98/98/98
f 89/89/89 90/90/90 100/100/100
f 90/90/90 101/101/101 100/100/100
f 104/104/104 103/103/103 102/102/102
f 105/105/105 96/96/96 102/102/102
f 108/108/108 107/107/107 106/106/106
f 110/110/110 101/101/101 109/109/109
f 113/113/113 112/112/112 111/111/111
f 109/109/109 113/113/113 111/111/111
f 116/116/116 115/115/115 114/114/114
f 119/119/119 118/118/118 117/117/117
f 117/117/117 118/118/118 120/120/120
f 123/123/123 122/122/122 121/121/121
f 120/120/120 118/118/118 121/121/121
f 126/126/126 125/125/125 124/124/124
f 127/127/127 122/122/122 124/124/124
f 130/130/130 129/129/129 128/128/128
f 132/132/132 129/129/129 131/131/131
f 131/131/131 134/134/134 133/133/133
f 137/137/137 136/136/136 135/135/135
f 133/133/133 138/138/138 135/135/135
f 141/141/141 140/140/140 139/139/139
f 142/142/142 140/140/140 141/141/141
f 144/144/144 140/140/140 143/143/143
f 145/145/145 140/140/140 144/144/144
f 146/146/146 140/140/140 145/145/145
f 147/147/147 140/140/140 146/146/146
f 148/148/148 140/140/140 147/147/147
f 149/149/149 140/140/140 148/148/148
f 150/150/150 140/140/140 149/149/149
f 151/151/151 140/140/140 150/150/150
f 153/153/153 140/140/140 152/152/152
f 154/154/154 140/140/140 153/153/153
f 155/155/155 140/140/140 154/154/154
f 156/156/156 140/140/140 155/155/155
f 157/157/157 140/140/140 156/156/156
f 158/158/158 140/140/140 157/157/157
f 159/159/159 140/140/140 158/158/158
f 161/161/161 140/140/140 160/160/160
f 162/162/162 140/140/140 161/161/161
f 163/163/163 140/140/140 162/162/162
f 139/139/139 140/140/140 164/164/164
f 142/142/142 165/165/165 140/140/140
f 166/166/166 143/143/143 140/140/140
f 168/168/168 167/167/167 140/140/140
f 169/169/169 152/152/152 140/140/140
f 170/170/170 160/160/160 140/140/140
f 171/171/171 170/170/170 140/140/140
f 173/173/173 172/172/172 140/140/140
f 174/174/174 171/171/171 140/140/140
f 175/175/175 174/174/174 140/140/140
f 172/172/172 169/169/169 140/140/140
f 176/176/176 175/175/175 140/140/140
f 167/167/167 173/173/173 140/140/140
f 151/151/151 168/168/168 140/140/140
f 159/159/159 176/176/176 140/140/140
f 165/165/165 177/177/177 140/140/140
f 177/177/177 178/178/178 140/140/140
f 178/178/178 179/179/179 140/140/140
f 179/179/179 166/166/166 140/140/140
f 164/164/164 140/140/140 163/163/163
f 182/182/182 181/181/181 180/180/180
f 184/184/184 183/183/183 180/180/180
f 187/187/187 186/186/186 185/185/185
f 188/188/188 181/181/181 185/185/185
f 190/190/190 186/186/186 189/189/189
f 192/192/192 191/191/191 189/189/189
f 195/195/195 194/194/194 193/193/193
f 197/197/197 195/195/195 196/196/196
f 191/191/191 197/197/197 196/196/196
f 198/198/198 191/191/191 196/196/196
f 200/200/200 199/199/199 194/194/194
f 195/195/195 200/200/200 194/194/194
f 202/202/202 129/129/129 201/201/201
f 205/205/205 204/204/204 203/203/203
f 208/208/208 207/207/207 206/206/206
f 209/209/209 204/204/204 206/206/206
f 211/211/211 207/207/207 210/210/210
f 213/213/213 212/212/212 210/210/210
f 216/216/216 215/215/215 214/214/214
f 218/218/218 212/212/212 217/217/217
f 219/219/219 216/216/216 217/217/217
f 222/222/222 221/221/221 220/220/220
f 223/223/223 222/222/222 215/215/215
f 216/216/216 223/223/223 215/215/215
f 222/222/222 224/224/224 221/221/221
f 224/224/224 225/225/225 221/221/221
f 228/228/228 227/227/227 226/226/226
f 230/230/230 227/227/227 229/229/229
f 232/232/232 231/231/231 229/229/229
f 235/235/235 234/234/234 233/233/233
f 237/237/237 235/235/235 236/236/236
f 238/238/238 231/231/231 236/236/236
f 239/239/239 234/234/234 119/119/119
f 242/242/242 241/241/241 240/240/240
f 244/244/244 242/242/242 243/243/243
f 242/242/242 245/245/245 241/241/241
f 245/245/245 246/246/246 241/241/241
f 249/249/249 248/248/248 247/247/247
f 246/246/246 249/249/249 247/247/247
f 251/251/251 248/248/248 250/250/250
f 252/252/252 183/183/183 250/250/250
f 187/187/187 185/185/185 181/181/181
f 254/254/254 253/253/253 181/181/181
f 188/188/188 180/180/180 181/181/181
f 255/255/255 254/254/254 182/182/182
f 190/190/190 185/185/185 186/186/186
f 253/253/253 256/256/256 187/187/187
f 186/186/186 256/256/256 192/192/192
f 189/189/189 186/186/186 192/192/192
f 198/198/198 189/189/189 191/191/191
f 192/192/192 257/257/257 191/191/191
f 191/191/191 258/258/258 197/197/197
f 193/193/193 196/196/196 195/195/195
f 197/197/197 259/259/259 195/195/195
f 260/260/260 200/200/200 195/195/195
f 262/262/262 261/261/261 199/199/199
f 263/263/263 194/194/194 199/199/199
f 201/201/201 263/263/263 199/199/199
f 202/202/202 201/201/201 199/199/199
f 260/260/260 264/264/264 200/200/200
f 264/264/264 262/262/262 200/200/200
f 130/130/130 201/201/201 129/129/129
f 132/132/132 128/128/128 129/129/129
f 134/134/134 131/131/131 129/129/129
f 261/261/261 134/134/134 202/202/202
f 208/208/208 206/206/206 204/204/204
f 265/265/265 208/208/208 204/204/204
f 209/209/209 203/203/203 204/204/204
f 266/266/266 265/265/265 205/205/205
f 211/211/211 206/206/206 207/207/207
f 267/267/267 213/213/213 207/207/207
f 213/213/213 210/210/210 207/207/207
f 268/268/268 267/267/267 207/207/207
f 265/265/265 268/268/268 208/208/208
f 268/268/268 207/207/207 208/208/208
f 270/270/270 269/269/269 212/212/212
f 218/218/218 210/210/210 212/212/212
f 271/271/271 270/270/270 212/212/212
f 267/267/267 271/271/271 213/213/213
f 271/271/271 212/212/212 213/213/213
f 214/214/214 217/217/217 216/216/216
f 273/273/273 272/272/272 216/216/216
f 217/217/217 212/212/212 219/219/219
f 269/269/269 273/273/273 219/219/219
f 220/220/220 215/215/215 222/222/222
f 275/275/275 274/274/274 222/222/222
f 272/272/272 275/275/275 223/223/223
f 226/226/226 276/276/276 225/225/225
f 228/228/228 226/226/226 225/225/225
f 276/276/276 221/221/221 225/225/225
f 274/274/274 277/277/277 224/224/224
f 230/230/230 226/226/226 227/227/227
f 232/232/232 229/229/229 227/227/227
f 238/238/238 229/229/229 231/231/231
f 237/237/237 236/236/236 231/231/231
f 233/233/233 236/236/236 235/235/235
f 279/279/279 278/278/278 235/235/235
f 280/280/280 279/279/279 237/237/237
f 123/123/123 121/121/121 118/118/118
f 119/119/119 234/234/234 118/118/118
f 278/278/278 123/123/123 234/234/234
f 239/239/239 233/233/233 234/234/234
f 240/240/240 243/243/243 242/242/242
f 282/282/282 281/281/281 244/244/244
f 242/242/242 281/281/281 245/245/245
f 283/283/283 241/241/241 246/246/246
f 247/247/247 283/283/283 246/246/246
f 245/245/245 284/284/284 246/246/246
f 246/246/246 285/285/285 249/249/249
f 249/249/249 286/286/286 248/248/248
f 252/252/252 250/250/250 248/248/248
f 251/251/251 247/247/247 248/248/248
f 248/248/248 287/287/287 252/252/252
f 182/182/182 180/180/180 183/183/183
f 288/288/288 255/255/255 183/183/183
f 184/184/184 250/250/250 183/183/183
f 252/252/252 289/289/289 183/183/183
f 181/181/181 182/182/182 254/254/254
f 291/291/291 290/290/290 254/254/254
f 182/182/182 183/183/183 255/255/255
f 292/292/292 291/291/291 255/255/255
f 186/186/186 187/187/187 256/256/256
f 290/290/290 293/293/293 253/253/253
f 187/187/187 181/181/181 253/253/253
f 256/256/256 293/293/293 257/257/257
f 192/192/192 256/256/256 257/257/257
f 191/191/191 257/257/257 258/258/258
f 257/257/257 294/294/294 258/258/258
f 197/197/197 258/258/258 259/259/259
f 258/258/258 295/295/295 259/259/259
f 195/195/195 259/259/259 260/260/260
f 259/259/259 296/296/296 260/260/260
f 199/199/199 200/200/200 262/262/262
f 298/298/298 297/297/297 262/262/262
f 299/299/299 298/298/298 264/264/264
f 260/260/260 300/300/300 264/264/264
f 129/129/129 202/202/202 134/134/134
f 138/138/138 133/133/133 134/134/134
f 297/297/297 138/138/138 261/261/261
f 202/202/202 199/199/199 261/261/261
f 301/301/301 268/268/268 265/265/265
f 204/204/204 205/205/205 265/265/265
f 302/302/302 301/301/301 266/266/266
f 304/304/304 303/303/303 267/267/267
f 303/303/303 271/271/271 267/267/267
f 304/304/304 267/267/267 268/268/268
f 301/301/301 304/304/304 268/268/268
f 305/305/305 269/269/269 270/270/270
f 306/306/306 305/305/305 270/270/270
f 303/303/303 306/306/306 271/271/271
f 306/306/306 270/270/270 271/271/271
f 216/216/216 219/219/219 273/273/273
f 305/305/305 307/307/307 269/269/269
f 219/219/219 212/212/212 269/269/269
f 222/222/222 223/223/223 275/275/275
f 223/223/223 216/216/216 272/272/272
f 308/308/308 228/228/228 277/277/277
f 228/228/228 225/225/225 277/277/277
f 310/310/310 309/309/309 277/277/277
f 225/225/225 224/224/224 277/277/277
f 224/224/224 222/222/222 274/274/274
f 312/312/312 232/232/232 311/311/311
f 232/232/232 227/227/227 311/311/311
f 314/314/314 313/313/313 311/311/311
f 227/227/227 228/228/228 308/308/308
f 311/311/311 227/227/227 308/308/308
f 309/309/309 314/314/314 308/308/308
f 237/237/237 231/231/231 315/315/315
f 280/280/280 237/237/237 315/315/315
f 317/317/317 316/316/316 315/315/315
f 231/231/231 232/232/232 312/312/312
f 313/313/313 317/317/317 312/312/312
f 315/315/315 231/231/231 312/312/312
f 280/280/280 316/316/316 279/279/279
f 235/235/235 237/237/237 279/279/279
f 234/234/234 235/235/235 278/278/278
f 279/279/279 318/318/318 278/278/278
f 118/118/118 234/234/234 123/123/123
f 278/278/278 319/319/319 123/123/123
f 282/282/282 320/320/320 281/281/281
f 242/242/242 244/244/244 281/281/281
f 322/322/322 321/321/321 281/281/281
f 284/284/284 245/245/245 281/281/281
f 324/324/324 323/323/323 285/285/285
f 286/286/286 249/249/249 285/285/285
f 321/321/321 324/324/324 284/284/284
f 285/285/285 246/246/246 284/284/284
f 326/326/326 325/325/325 287/287/287
f 289/289/289 252/252/252 287/287/287
f 248/248/248 286/286/286 287/287/287
f 323/323/323 326/326/326 286/286/286
f 327/327/327 292/292/292 288/288/288
f 288/288/288 183/183/183 289/289/289
f 325/325/325 327/327/327 289/289/289
f 329/329/329 328/328/328 291/291/291
f 328/328/328 330/330/330 291/291/291
f 254/254/254 255/255/255 291/291/291
f 329/329/329 291/291/291 292/292/292
f 255/255/255 288/288/288 292/292/292
f 253/253/253 254/254/254 290/290/290
f 256/256/256 253/253/253 293/293/293
f 332/332/332 331/331/331 293/293/293
f 290/290/290 330/330/330 293/293/293
f 257/257/257 293/293/293 294/294/294
f 294/294/294 331/331/331 295/295/295
f 258/258/258 294/294/294 295/295/295
f 334/334/334 333/333/333 295/295/295
f 259/259/259 295/295/295 296/296/296
f 296/296/296 333/333/333 300/300/300
f 260/260/260 296/296/296 300/300/300
f 336/336/336 335/335/335 300/300/300
f 264/264/264 300/300/300 299/299/299
f 262/262/262 264/264/264 298/298/298
f 338/338/338 337/337/337 298/298/298
f 299/299/299 335/335/335 298/298/298
f 134/134/134 261/261/261 138/138/138
f 337/337/337 137/137/137 138/138/138
f 137/137/137 135/135/135 138/138/138
f 261/261/261 262/262/262 297/297/297
f 340/340/340 339/339/339 301/301/301
f 265/265/265 266/266/266 301/301/301
f 339/339/339 341/341/341 301/301/301
f 340/340/340 301/301/301 302/302/302
f 304/304/304 341/341/341 303/303/303
f 341/341/341 342/342/342 303/303/303
f 342/342/342 343/343/343 303/303/303
f 345/345/345 344/344/344 305/305/305
f 306/306/306 343/343/343 305/305/305
f 346/346/346 273/273/273 307/307/307
f 273/273/273 269/269/269 307/307/307
f 348/348/348 347/347/347 346/346/346
f 272/272/272 273/273/273 346/346/346
f 307/307/307 344/344/344 346/346/346
f 349/349/349 272/272/272 346/346/346
f 275/275/275 272/272/272 349/349/349
f 350/350/350 275/275/275 349/349/349
f 352/352/352 351/351/351 350/350/350
f 274/274/274 275/275/275 350/350/350
f 349/349/349 347/347/347 350/350/350
f 353/353/353 274/274/274 350/350/350
f 355/355/355 354/354/354 310/310/310
f 310/310/310 277/277/277 353/353/353
f 277/277/277 274/274/274 353/353/353
f 354/354/354 356/356/356 314/314/314
f 356/356/356 357/357/357 314/314/314
f 311/311/311 308/308/308 314/314/314
f 308/308/308 277/277/277 309/309/309
f 357/357/357 358/358/358 317/317/317
f 358/358/358 359/359/359 317/317/317
f 315/315/315 312/312/312 317/317/317
f 357/357/357 317/317/317 313/313/313
f 312/312/312 311/311/311 313/313/313
f 280/280/280 315/315/315 316/316/316
f 318/318/318 279/279/279 316/316/316
f 316/316/316 359/359/359 318/318/318
f 319/319/319 278/278/278 318/318/318
f 359/359/359 360/360/360 318/318/318
f 122/122/122 123/123/123 319/319/319
f 318/318/318 360/360/360 319/319/319
f 127/127/127 121/121/121 122/122/122
f 319/319/319 361/361/361 122/122/122
f 126/126/126 124/124/124 122/122/122
f 322/322/322 281/281/281 320/320/320
f 320/320/320 362/362/362 322/322/322
f 364/364/364 363/363/363 322/322/322
f 284/284/284 281/281/281 321/321/321
f 321/321/321 363/363/363 324/324/324
f 366/366/366 365/365/365 324/324/324
f 285/285/285 284/284/284 324/324/324
f 368/368/368 367/367/367 326/326/326
f 287/287/287 286/286/286 326/326/326
f 286/286/286 285/285/285 323/323/323
f 367/367/367 369/369/369 327/327/327
f 288/288/288 289/289/289 327/327/327
f 369/369/369 329/329/329 327/327/327
f 289/289/289 287/287/287 325/325/325
f 371/371/371 370/370/370 328/328/328
f 328/328/328 329/329/329 371/371/371
f 292/292/292 327/327/327 329/329/329
f 369/369/369 372/372/372 329/329/329
f 372/372/372 371/371/371 329/329/329
f 374/374/374 373/373/373 332/332/332
f 370/370/370 374/374/374 330/330/330
f 332/332/332 293/293/293 330/330/330
f 290/290/290 291/291/291 330/330/330
f 328/328/328 370/370/370 330/330/330
f 332/332/332 330/330/330 374/374/374
f 334/334/334 295/295/295 331/331/331
f 373/373/373 375/375/375 331/331/331
f 294/294/294 293/293/293 331/331/331
f 332/332/332 373/373/373 331/331/331
f 334/334/334 331/331/331 375/375/375
f 376/376/376 334/334/334 375/375/375
f 296/296/296 295/295/295 333/333/333
f 376/376/376 377/377/377 333/333/333
f 334/334/334 376/376/376 333/333/333
f 336/336/336 300/300/300 333/333/333
f 378/378/378 336/336/336 377/377/377
f 336/336/336 333/333/333 377/377/377
f 380/380/380 338/338/338 379/379/379
f 338/338/338 335/335/335 379/379/379
f 336/336/336 378/378/378 335/335/335
f 378/378/378 379/379/379 335/335/335
f 299/299/299 300/300/300 335/335/335
f 338/338/338 298/298/298 335/335/335
f 137/137/137 337/337/337 381/381/381
f 136/136/136 137/137/137 381/381/381
f 338/338/338 380/380/380 337/337/337
f 297/297/297 298/298/298 337/337/337
f 380/380/380 381/381/381 337/337/337
f 138/138/138 297/297/297 337/337/337
f 383/383/383 382/382/382 339/339/339
f 339/339/339 340/340/340 383/383/383
f 384/384/384 383/383/383 340/340/340
f 304/304/304 301/301/301 341/341/341
f 382/382/382 385/385/385 341/341/341
f 339/339/339 382/382/382 341/341/341
f 342/342/342 341/341/341 385/385/385
f 385/385/385 386/386/386 342/342/342
f 342/342/342 386/386/386 343/343/343
f 345/345/345 305/305/305 343/343/343
f 306/306/306 303/303/303 343/343/343
f 386/386/386 387/387/387 343/343/343
f 388/388/388 345/345/345 387/387/387
f 345/345/345 343/343/343 387/387/387
f 388/388/388 389/389/389 344/344/344
f 307/307/307 305/305/305 344/344/344
f 345/345/345 388/388/388 344/344/344
f 348/348/348 346/346/346 344/344/344
f 390/390/390 348/348/348 389/389/389
f 348/348/348 344/344/344 389/389/389
f 392/392/392 352/352/352 391/391/391
f 352/352/352 347/347/347 391/391/391
f 349/349/349 346/346/346 347/347/347
f 348/348/348 390/390/390 347/347/347
f 390/390/390 391/391/391 347/347/347
f 352/352/352 350/350/350 347/347/347
f 355/355/355 351/351/351 393/393/393
f 394/394/394 355/355/355 393/393/393
f 352/352/352 392/392/392 351/351/351
f 353/353/353 350/350/350 351/351/351
f 355/355/355 310/310/310 351/351/351
f 310/310/310 353/353/353 351/351/351
f 392/392/392 393/393/393 351/351/351
f 396/396/396 395/395/395 356/356/356
f 356/356/356 354/354/354 396/396/396
f 355/355/355 394/394/394 354/354/354
f 394/394/394 396/396/396 354/354/354
f 314/314/314 309/309/309 354/354/354
f 309/309/309 310/310/310 354/354/354
f 398/398/398 397/397/397 358/358/358
f 358/358/358 357/357/357 398/398/398
f 395/395/395 398/398/398 357/357/357
f 313/313/313 314/314/314 357/357/357
f 356/356/356 395/395/395 357/357/357
f 361/361/361 319/319/319 360/360/360
f 400/400/400 399/399/399 360/360/360
f 397/397/397 400/400/400 359/359/359
f 358/358/358 397/397/397 359/359/359
f 316/316/316 317/317/317 359/359/359
f 360/360/360 359/359/359 400/400/400
f 126/126/126 122/122/122 361/361/361
f 360/360/360 399/399/399 361/361/361
f 399/399/399 401/401/401 361/361/361
f 126/126/126 361/361/361 401/401/401
f 125/125/125 126/126/126 401/401/401
f 403/403/403 402/402/402 362/362/362
f 364/364/364 322/322/322 362/362/362
f 404/404/404 364/364/364 402/402/402
f 364/364/364 362/362/362 402/402/402
f 366/366/366 363/363/363 405/405/405
f 406/406/406 366/366/366 405/405/405
f 321/321/321 322/322/322 363/363/363
f 404/404/404 405/405/405 363/363/363
f 364/364/364 404/404/404 363/363/363
f 366/366/366 324/324/324 363/363/363
f 368/368/368 365/365/365 407/407/407
f 408/408/408 368/368/368 407/407/407
f 366/366/366 406/406/406 365/365/365
f 323/323/323 324/324/324 365/365/365
f 368/368/368 326/326/326 365/365/365
f 326/326/326 323/323/323 365/365/365
f 406/406/406 407/407/407 365/365/365
f 409/409/409 372/372/372 369/369/369
f 369/369/369 367/367/367 409/409/409
f 325/325/325 326/326/326 367/367/367
f 368/368/368 408/408/408 367/367/367
f 408/408/408 409/409/409 367/367/367
f 327/327/327 325/325/325 367/367/367
f 61/61/61 59/59/59 62/62/62
f 3/3/3 1/1/1 4/4/4
f 410/410/410 62/62/62 3/3/3
f 4/4/4 410/410/410 3/3/3
f 59/59/59 2/2/2 3/3/3
f 1/1/1 12/12/12 411/411/411
f 5/5/5 1/1/1 411/411/411
f 12/12/12 6/6/6 9/9/9
f 9/9/9 412/412/412 12/12/12
f 412/412/412 411/411/411 12/12/12
f 1/1/1 11/11/11 12/12/12
f 8/8/8 14/14/14 15/15/15
f 413/413/413 8/8/8 15/15/15
f 10/10/10 6/6/6 7/7/7
f 6/6/6 414/414/414 8/8/8
f 414/414/414 415/415/415 8/8/8
f 413/413/413 7/7/7 8/8/8
f 17/17/17 23/23/23 24/24/24
f 416/416/416 17/17/17 24/24/24
f 417/417/417 16/16/16 20/20/20
f 18/18/18 23/23/23 17/17/17
f 416/416/416 20/20/20 17/17/17
f 418/418/418 22/22/22 29/29/29
f 22/22/22 28/28/28 29/29/29
f 419/419/419 21/21/21 22/22/22
f 418/418/418 419/419/419 22/22/22
f 33/33/33 35/35/35 36/36/36
f 420/420/420 33/33/33 36/36/36
f 27/27/27 28/28/28 32/32/32
f 32/32/32 33/33/33 420/420/420
f 40/40/40 42/42/42 43/43/43
f 421/421/421 40/40/40 43/43/43
f 34/34/34 35/35/35 39/39/39
f 39/39/39 40/40/40 421/421/421
f 42/42/42 49/49/49 44/44/44
f 49/49/49 422/422/422 44/44/44
f 45/45/45 46/46/46 49/49/49
f 422/422/422 49/49/49 46/46/46
f 58/58/58 423/423/423 52/52/52
f 50/50/50 58/58/58 52/52/52
f 55/55/55 56/56/56 58/58/58
f 423/423/423 58/58/58 56/56/56
f 54/54/54 425/425/425 424/424/424
f 424/424/424 53/53/53 54/54/54
f 427/427/427 426/426/426 54/54/54
f 425/425/425 54/54/54 60/60/60
f 54/54/54 59/59/59 60/60/60
f 430/430/430 429/429/429 428/428/428
f 2/2/2 426/426/426 428/428/428
f 428/428/428 431/431/431 2/2/2
f 432/432/432 1/1/1 2/2/2
f 434/434/434 433/433/433 431/431/431
f 432/432/432 2/2/2 431/431/431
f 428/428/428 435/435/435 431/431/431
f 438/438/438 437/437/437 436/436/436
f 433/433/433 434/434/434 436/436/436
f 431/431/431 433/433/433 11/11/11
f 1/1/1 432/432/432 11/11/11
f 432/432/432 431/431/431 11/11/11
f 436/436/436 439/439/439 433/433/433
f 6/6/6 11/11/11 439/439/439
f 436/436/436 440/440/440 439/439/439
f 11/11/11 433/433/433 439/439/439
f 414/414/414 439/439/439 440/440/440
f 6/6/6 439/439/439 414/414/414
f 440/440/440 441/441/441 414/414/414
f 414/414/414 441/441/441 415/415/415
f 14/14/14 8/8/8 415/415/415
f 443/443/443 25/25/25 442/442/442
f 65/65/65 444/444/444 63/63/63
f 18/18/18 19/19/19 63/63/63
f 442/442/442 26/26/26 63/63/63
f 18/18/18 63/63/63 26/26/26
f 446/446/446 445/445/445 443/443/443
f 442/442/442 446/446/446 443/443/443
f 448/448/448 447/447/447 31/31/31
f 31/31/31 28/28/28 25/25/25
f 26/26/26 442/442/442 25/25/25
f 28/28/28 22/22/22 25/25/25
f 443/443/443 448/448/448 25/25/25
f 445/445/445 449/449/449 448/448/448
f 31/31/31 25/25/25 448/448/448
f 452/452/452 451/451/451 450/450/450
f 453/453/453 37/37/37 450/450/450
f 450/450/450 38/38/38 30/30/30
f 35/35/35 33/33/33 30/30/30
f 33/33/33 28/28/28 30/30/30
f 38/38/38 35/35/35 30/30/30
f 450/450/450 30/30/30 447/447/447
f 30/30/30 31/31/31 447/447/447
f 449/449/449 452/452/452 447/447/447
f 42/42/42 40/40/40 37/37/37
f 40/40/40 35/35/35 37/37/37
f 454/454/454 42/42/42 37/37/37
f 38/38/38 450/450/450 37/37/37
f 455/455/455 454/454/454 453/453/453
f 453/453/453 451/451/451 455/455/455
f 67/67/67 456/456/456 48/48/48
f 456/456/456 45/45/45 48/48/48
f 49/49/49 42/42/42 48/48/48
f 48/48/48 42/42/42 454/454/454
f 455/455/455 69/69/69 454/454/454
f 37/37/37 453/453/453 454/454/454
f 48/48/48 454/454/454 69/69/69
f 58/58/58 50/50/50 57/57/57
f 457/457/457 55/55/55 57/57/57
f 427/427/427 457/457/457 458/458/458
f 82/82/82 459/459/459 458/458/458
f 57/57/57 71/71/71 457/457/457
f 427/427/427 55/55/55 457/457/457
f 458/458/458 457/457/457 71/71/71
f 72/72/72 81/81/81 71/71/71
f 57/57/57 70/70/70 71/71/71
f 82/82/82 458/458/458 71/71/71
f 2/2/2 59/59/59 426/426/426
f 430/430/430 428/428/428 426/426/426
f 59/59/59 54/54/54 426/426/426
f 54/54/54 55/55/55 427/427/427
f 458/458/458 459/459/459 460/460/460
f 427/427/427 458/458/458 460/460/460
f 426/426/426 427/427/427 430/430/430
f 460/460/460 461/461/461 430/430/430
f 427/427/427 460/460/460 430/430/430
f 464/464/464 463/463/463 462/462/462
f 435/435/435 464/464/464 465/465/465
f 431/431/431 435/435/435 465/465/465
f 462/462/462 466/466/466 465/465/465
f 468/468/468 467/467/467 464/464/464
f 435/435/435 468/468/468 464/464/464
f 462/462/462 465/465/465 464/464/464
f 471/471/471 470/470/470 469/469/469
f 431/431/431 465/465/465 434/434/434
f 434/434/434 465/465/465 466/466/466
f 469/469/469 438/438/438 466/466/466
f 462/462/462 472/472/472 466/466/466
f 473/473/473 469/469/469 466/466/466
f 434/434/434 466/466/466 438/438/438
f 469/469/469 474/474/474 438/438/438
f 436/436/436 434/434/434 438/438/438
f 441/441/441 440/440/440 437/437/437
f 475/475/475 441/441/441 437/437/437
f 440/440/440 436/436/436 437/437/437
f 437/437/437 474/474/474 475/475/475
f 476/476/476 475/475/475 474/474/474
f 470/470/470 476/476/476 474/474/474
f 437/437/437 438/438/438 474/474/474
f 442/442/442 63/63/63 444/444/444
f 478/478/478 477/477/477 444/444/444
f 63/63/63 64/64/64 65/65/65
f 75/75/75 479/479/479 73/73/73
f 65/65/65 66/66/66 73/73/73
f 480/480/480 477/477/477 478/478/478
f 65/65/65 73/73/73 478/478/478
f 444/444/444 65/65/65 478/478/478
f 446/446/446 444/444/444 477/477/477
f 480/480/480 481/481/481 477/477/477
f 483/483/483 482/482/482 445/445/445
f 448/448/448 443/443/443 445/445/445
f 442/442/442 444/444/444 446/446/446
f 477/477/477 483/483/483 446/446/446
f 445/445/445 446/446/446 483/483/483
f 481/481/481 484/484/484 483/483/483
f 484/484/484 485/485/485 482/482/482
f 449/449/449 445/445/445 482/482/482
f 485/485/485 487/487/487 486/486/486
f 450/450/450 447/447/447 452/452/452
f 486/486/486 488/488/488 452/452/452
f 482/482/482 486/486/486 449/449/449
f 486/486/486 452/452/452 449/449/449
f 447/447/447 448/448/448 449/449/449
f 453/453/453 450/450/450 451/451/451
f 489/489/489 455/455/455 451/451/451
f 490/490/490 489/489/489 488/488/488
f 451/451/451 452/452/452 488/488/488
f 488/488/488 487/487/487 490/490/490
f 455/455/455 489/489/489 68/68/68
f 69/69/69 455/455/455 68/68/68
f 490/490/490 79/79/79 489/489/489
f 451/451/451 488/488/488 489/489/489
f 77/77/77 80/80/80 79/79/79
f 68/68/68 489/489/489 79/79/79
f 492/492/492 461/461/461 491/491/491
f 94/94/94 493/493/493 491/491/491
f 81/81/81 83/83/83 82/82/82
f 491/491/491 459/459/459 84/84/84
f 83/83/83 93/93/93 84/84/84
f 94/94/94 491/491/491 84/84/84
f 82/82/82 84/84/84 459/459/459
f 461/461/461 460/460/460 459/459/459
f 459/459/459 491/491/491 461/461/461
f 429/429/429 430/430/430 461/461/461
f 492/492/492 494/494/494 468/468/468
f 435/435/435 429/429/429 468/468/468
f 435/435/435 428/428/428 429/429/429
f 461/461/461 492/492/492 429/429/429
f 491/491/491 493/493/493 492/492/492
f 468/468/468 429/429/429 492/492/492
f 497/497/497 496/496/496 495/495/495
f 463/463/463 497/497/497 472/472/472
f 462/462/462 463/463/463 472/472/472
f 473/473/473 466/466/466 472/472/472
f 495/495/495 472/472/472 497/497/497
f 499/499/499 498/498/498 497/497/497
f 463/463/463 499/499/499 497/497/497
f 502/502/502 501/501/501 500/500/500
f 472/472/472 495/495/495 473/473/473
f 500/500/500 471/471/471 503/503/503
f 495/495/495 504/504/504 503/503/503
f 505/505/505 500/500/500 503/503/503
f 473/473/473 495/495/495 503/503/503
f 469/469/469 473/473/473 471/471/471
f 473/473/473 503/503/503 471/471/471
f 500/500/500 506/506/506 471/471/471
f 507/507/507 476/476/476 470/470/470
f 508/508/508 507/507/507 470/470/470
f 474/474/474 469/469/469 470/470/470
f 501/501/501 509/509/509 506/506/506
f 470/470/470 471/471/471 506/506/506
f 470/470/470 506/506/506 508/508/508
f 478/478/478 73/73/73 479/479/479
f 511/511/511 510/510/510 479/479/479
f 73/73/73 74/74/74 75/75/75
f 87/87/87 512/512/512 85/85/85
f 75/75/75 76/76/76 85/85/85
f 75/75/75 85/85/85 511/511/511
f 479/479/479 75/75/75 511/511/511
f 513/513/513 510/510/510 511/511/511
f 513/513/513 514/514/514 510/510/510
f 480/480/480 479/479/479 510/510/510
f 483/483/483 477/477/477 481/481/481
f 516/516/516 515/515/515 481/481/481
f 510/510/510 516/516/516 480/480/480
f 478/478/478 479/479/479 480/480/480
f 481/481/481 480/480/480 516/516/516
f 514/514/514 517/517/517 516/516/516
f 486/486/486 482/482/482 485/485/485
f 519/519/519 518/518/518 485/485/485
f 519/519/519 485/485/485 484/484/484
f 482/482/482 483/483/483 484/484/484
f 484/484/484 481/481/481 515/515/515
f 517/517/517 520/520/520 515/515/515
f 520/520/520 521/521/521 519/519/519
f 484/484/484 515/515/515 519/519/519
f 522/522/522 490/490/490 487/487/487
f 488/488/488 486/486/486 487/487/487
f 523/523/523 522/522/522 518/518/518
f 487/487/487 485/485/485 518/518/518
f 518/518/518 521/521/521 523/523/523
f 490/490/490 522/522/522 78/78/78
f 79/79/79 490/490/490 78/78/78
f 523/523/523 91/91/91 522/522/522
f 487/487/487 518/518/518 522/522/522
f 89/89/89 92/92/92 91/91/91
f 78/78/78 522/522/522 91/91/91
f 525/525/525 494/494/494 524/524/524
f 93/93/93 95/95/95 94/94/94
f 524/524/524 493/493/493 96/96/96
f 105/105/105 524/524/524 96/96/96
f 95/95/95 102/102/102 96/96/96
f 494/494/494 492/492/492 493/493/493
f 94/94/94 96/96/96 493/493/493
f 467/467/467 468/468/468 494/494/494
f 493/493/493 524/524/524 494/494/494
f 525/525/525 526/526/526 499/499/499
f 499/499/499 463/463/463 467/467/467
f 463/463/463 464/464/464 467/467/467
f 494/494/494 525/525/525 467/467/467
f 524/524/524 527/527/527 525/525/525
f 499/499/499 467/467/467 525/525/525
f 530/530/530 529/529/529 528/528/528
f 496/496/496 531/531/531 528/528/528
f 495/495/495 496/496/496 504/504/504
f 505/505/505 503/503/503 504/504/504
f 528/528/528 532/532/532 496/496/496
f 504/504/504 496/496/496 532/532/532
f 535/535/535 534/534/534 533/533/533
f 537/537/537 536/536/536 533/533/533
f 504/504/504 532/532/532 505/505/505
f 533/533/533 502/502/502 535/535/535
f 505/505/505 532/532/532 535/535/535
f 532/532/532 529/529/529 535/535/535
f 505/505/505 535/535/535 502/502/502
f 500/500/500 505/505/505 502/502/502
f 533/533/533 538/538/538 502/502/502
f 508/508/508 506/506/506 509/509/509
f 506/506/506 500/500/500 501/501/501
f 539/539/539 509/509/509 501/501/501
f 536/536/536 540/540/540 538/538/538
f 501/501/501 502/502/502 538/538/538
f 501/501/501 538/538/538 539/539/539
f 85/85/85 86/86/86 87/87/87
f 87/87/87 88/88/88 97/97/97
f 99/99/99 541/541/541 97/97/97
f 541/541/541 512/512/512 97/97/97
f 511/511/511 85/85/85 512/512/512
f 541/541/541 542/542/542 512/512/512
f 87/87/87 97/97/97 512/512/512
f 513/513/513 512/512/512 542/542/542
f 541/541/541 543/543/543 542/542/542
f 545/545/545 544/544/544 542/542/542
f 547/547/547 546/546/546 514/514/514
f 516/516/516 510/510/510 514/514/514
f 511/511/511 512/512/512 513/513/513
f 542/542/542 547/547/547 513/513/513
f 544/544/544 548/548/548 547/547/547
f 514/514/514 513/513/513 547/547/547
f 519/519/519 515/515/515 520/520/520
f 549/549/549 521/521/521 520/520/520
f 515/515/515 516/516/516 517/517/517
f 549/549/549 520/520/520 517/517/517
f 517/517/517 514/514/514 546/546/546
f 548/548/548 550/550/550 546/546/546
f 517/517/517 546/546/546 549/549/549
f 551/551/551 521/521/521 549/549/549
f 552/552/552 523/523/523 521/521/521
f 518/518/518 519/519/519 521/521/521
f 553/553/553 552/552/552 551/551/551
f 549/549/549 550/550/550 551/551/551
f 554/554/554 553/553/553 551/551/551
f 113/113/113 101/101/101 553/553/553
f 91/91/91 523/523/523 90/90/90
f 523/523/523 552/552/552 90/90/90
f 521/521/521 551/551/551 552/552/552
f 553/553/553 101/101/101 552/552/552
f 90/90/90 552/552/552 101/101/101
f 113/113/113 109/109/109 101/101/101
f 110/110/110 100/100/100 101/101/101
f 103/103/103 556/556/556 555/555/555
f 557/557/557 526/526/526 555/555/555
f 526/526/526 525/525/525 527/527/527
f 105/105/105 103/103/103 527/527/527
f 524/524/524 105/105/105 527/527/527
f 105/105/105 102/102/102 103/103/103
f 555/555/555 527/527/527 103/103/103
f 527/527/527 555/555/555 526/526/526
f 498/498/498 499/499/499 526/526/526
f 530/530/530 528/528/528 531/531/531
f 496/496/496 497/497/497 498/498/498
f 526/526/526 557/557/557 498/498/498
f 531/531/531 496/496/496 498/498/498
f 555/555/555 558/558/558 557/557/557
f 559/559/559 531/531/531 557/557/557
f 531/531/531 498/498/498 557/557/557
f 530/530/530 561/561/561 560/560/560
f 532/532/532 528/528/528 529/529/529
f 534/534/534 535/535/535 529/529/529
f 531/531/531 561/561/561 530/530/530
f 560/560/560 562/562/562 530/530/530
f 529/529/529 530/530/530 562/562/562
f 529/529/529 562/562/562 534/534/534
f 534/534/534 562/562/562 563/563/563
f 564/564/564 537/537/537 563/563/563
f 564/564/564 565/565/565 537/537/537
f 534/534/534 563/563/563 537/537/537
f 533/533/533 534/534/534 537/537/537
f 536/536/536 537/537/537 565/565/565
f 539/539/539 538/538/538 540/540/540
f 538/538/538 533/533/533 536/536/536
f 566/566/566 540/540/540 536/536/536
f 565/565/565 566/566/566 536/536/536
f 568/568/568 545/545/545 567/567/567
f 98/98/98 106/106/106 99/99/99
f 567/567/567 543/543/543 107/107/107
f 99/99/99 106/106/106 107/107/107
f 541/541/541 99/99/99 543/543/543
f 545/545/545 542/542/542 543/543/543
f 99/99/99 107/107/107 543/543/543
f 547/547/547 542/542/542 544/544/544
f 570/570/570 569/569/569 544/544/544
f 543/543/543 567/567/567 545/545/545
f 570/570/570 544/544/544 545/545/545
f 545/545/545 568/568/568 570/570/570
f 571/571/571 554/554/554 550/550/550
f 549/549/549 546/546/546 550/550/550
f 554/554/554 551/551/551 550/550/550
f 546/546/546 547/547/547 548/548/548
f 571/571/571 550/550/550 548/548/548
f 548/548/548 544/544/544 569/569/569
f 572/572/572 554/554/554 571/571/571
f 548/548/548 569/569/569 571/571/571
f 573/573/573 553/553/553 554/554/554
f 574/574/574 573/573/573 572/572/572
f 553/553/553 573/573/573 113/113/113
f 113/113/113 573/573/573 112/112/112
f 554/554/554 572/572/572 573/573/573
f 574/574/574 112/112/112 573/573/573
f 558/558/558 555/555/555 556/556/556
f 104/104/104 114/114/114 556/556/556
f 103/103/103 104/104/104 556/556/556
f 556/556/556 115/115/115 558/558/558
f 575/575/575 559/559/559 558/558/558
f 559/559/559 557/557/557 558/558/558
f 556/556/556 114/114/114 115/115/115
f 575/575/575 558/558/558 115/115/115
f 559/559/559 575/575/575 576/576/576
f 577/577/577 560/560/560 561/561/561
f 561/561/561 531/531/531 559/559/559
f 561/561/561 559/559/559 577/577/577
f 559/559/559 576/576/576 577/577/577
