# GloomhavenVR - generic-trigger-squeeze-thumbstick left 'trigger' (glTF material 0)
# generated by controllers_pipeline.py from webxr-input-profiles (MIT)
o generic_left_trigger__m0
v -0.012703 -0.019585 0.053878
v -0.013145 -0.021035 0.052641
v -0.012835 -0.021235 0.052862
v -0.012096 -0.018788 0.054499
v -0.012994 -0.019296 0.053678
v -0.011010 -0.017972 0.054896
v -0.012350 -0.018490 0.054290
v -0.010802 -0.017861 0.053660
v -0.012232 -0.018351 0.053022
v -0.011777 -0.018655 0.052773
v -0.012861 -0.019167 0.052373
v -0.012423 -0.019412 0.052121
v -0.013026 -0.020731 0.051376
v -0.010490 -0.018256 0.053359
v -0.011777 -0.018655 0.052773
v -0.011927 -0.016682 0.048664
v -0.012423 -0.019412 0.052121
v -0.010881 -0.016385 0.049250
v -0.012605 -0.017310 0.047791
v -0.012538 -0.020891 0.051139
v 0.017258 -0.017328 0.049970
v 0.016027 -0.016626 0.050931
v 0.015975 -0.016973 0.051129
v 0.017749 -0.018049 0.049190
v 0.017954 -0.017721 0.048937
v 0.017752 -0.019609 0.048290
v 0.017981 -0.019370 0.048007
v 0.016028 -0.019249 0.049804
v 0.017416 -0.016995 0.049726
v 0.016963 -0.016837 0.048546
v 0.017479 -0.017577 0.047733
v 0.017007 -0.017873 0.047605
v 0.017516 -0.019050 0.046838
v 0.016993 -0.019259 0.046746
v 0.016496 -0.017187 0.048422
v 0.015162 -0.016935 0.049590
v 0.015504 -0.016512 0.049801
v 0.015132 -0.015837 0.043430
v 0.016993 -0.019259 0.046746
v 0.014963 -0.016843 0.042365
v 0.017007 -0.017873 0.047605
v 0.014691 -0.015277 0.044456
v 0.016496 -0.017187 0.048422
v -0.005508 -0.018408 0.054430
v -0.003216 -0.017909 0.055117
v -0.003113 -0.018381 0.054770
v -0.005935 -0.018370 0.056149
v -0.001952 -0.020836 0.055390
v -0.003382 -0.018360 0.056502
v -0.000388 -0.018289 0.054869
v 0.002503 -0.017684 0.055011
v 0.002486 -0.018157 0.054665
v -0.000434 -0.017818 0.055219
v -0.005872 -0.018029 0.055998
v -0.000438 -0.018280 0.056598
v -0.003344 -0.018016 0.056351
v -0.007868 -0.018367 0.053931
v -0.005657 -0.017935 0.054768
v -0.008079 -0.017914 0.054256
v -0.010877 -0.018301 0.055081
v -0.008326 -0.018004 0.055482
v -0.008350 -0.018340 0.055642
v -0.011178 -0.020582 0.053773
v -0.007150 -0.020651 0.054827
v 0.000348 -0.039558 0.049219
v 0.002927 -0.040190 0.049105
v 0.000227 -0.040056 0.049400
v 0.000176 -0.039697 0.050506
v 0.002959 -0.038731 0.050125
v 0.000179 -0.038616 0.050486
v -0.002658 -0.039386 0.050565
v 0.000123 -0.040016 0.050374
v -0.002137 -0.038989 0.049284
v -0.002403 -0.039459 0.049482
v -0.004454 -0.038091 0.049229
v -0.004829 -0.038512 0.049431
v -0.002551 -0.039076 0.050719
v -0.002495 -0.038055 0.050686
v -0.005159 -0.038383 0.050609
v -0.005006 -0.038088 0.050790
v -0.004906 -0.037143 0.050750
v -0.007190 -0.037231 0.050545
v -0.006993 -0.036965 0.050749
v -0.008559 -0.036153 0.050414
v -0.006870 -0.036109 0.050697
v -0.008317 -0.035936 0.050625
v -0.008200 -0.035184 0.050547
v -0.009558 -0.034877 0.050161
v -0.006395 -0.037010 0.049117
v -0.006850 -0.037379 0.049313
v -0.007756 -0.035895 0.049010
v -0.008263 -0.036222 0.049192
v -0.009279 -0.034710 0.050375
v -0.010481 -0.033131 0.049737
v -0.009012 -0.034363 0.050335
v -0.010182 -0.032992 0.049956
v -0.011283 -0.030769 0.049577
v -0.009424 -0.032018 0.050137
v -0.008785 -0.034582 0.048797
v -0.009326 -0.034864 0.048966
v -0.009732 -0.032906 0.048370
v -0.010293 -0.033128 0.048530
v -0.010561 -0.030591 0.048182
v -0.011127 -0.030743 0.048342
v -0.011236 -0.027360 0.048683
v -0.011793 -0.027437 0.048860
v -0.010981 -0.030667 0.049800
v -0.011922 -0.027642 0.050118
v -0.011633 -0.027620 0.050342
v -0.012507 -0.024236 0.051194
v -0.010550 -0.026118 0.051244
v -0.011861 -0.023898 0.049720
v -0.012392 -0.023877 0.049923
v -0.012538 -0.020891 0.051139
v -0.012222 -0.024320 0.051416
v -0.006228 -0.016435 0.050228
v -0.007868 -0.018367 0.053931
v -0.005508 -0.018408 0.054430
v -0.003858 -0.016393 0.050582
v -0.003113 -0.018381 0.054770
v -0.001306 -0.016292 0.050698
v -0.000388 -0.018289 0.054869
v 0.002486 -0.018157 0.054665
v 0.001322 -0.016165 0.050519
v -0.010490 -0.018256 0.053359
v -0.008530 -0.016428 0.049747
v -0.000433 -0.017934 0.056450
v 0.002684 -0.018149 0.056374
v 0.002652 -0.017803 0.056230
v -0.002019 -0.029527 0.036700
v 0.000348 -0.039558 0.049219
v -0.002137 -0.038989 0.049284
v 0.000332 -0.029591 0.036465
v 0.002888 -0.039687 0.048948
v -0.004185 -0.029281 0.036948
v -0.004454 -0.038091 0.049229
v -0.007251 -0.029023 0.038292
v -0.005909 -0.029104 0.037517
v -0.006395 -0.037010 0.049117
v -0.008272 -0.029063 0.039159
v -0.008785 -0.034582 0.048797
v -0.009093 -0.028841 0.039861
v -0.007756 -0.035895 0.049010
v -0.009732 -0.032906 0.048370
v -0.009839 -0.027974 0.040144
v -0.010561 -0.030591 0.048182
v -0.010586 -0.026290 0.040713
v -0.011861 -0.023898 0.049720
v -0.011405 -0.023615 0.042276
v -0.011236 -0.027360 0.048683
v -0.012173 -0.020722 0.044373
v -0.012760 -0.018385 0.046541
v -0.011861 -0.023898 0.049720
v -0.012173 -0.020722 0.044373
v 0.003014 -0.039838 0.050134
v 0.003017 -0.040157 0.050006
v -0.006967 -0.026756 0.052123
v -0.006352 -0.033164 0.050685
v -0.001493 -0.034366 0.050732
v 0.004147 -0.027396 0.051803
v -0.001895 -0.027468 0.052438
v 0.004214 -0.020645 0.054856
v 0.008647 -0.015726 0.048290
v 0.012544 -0.017338 0.051195
v 0.010935 -0.015472 0.047125
v 0.005328 -0.018007 0.054097
v 0.003918 -0.016045 0.049986
v 0.006390 -0.015907 0.049207
v 0.007976 -0.017831 0.053291
v 0.010265 -0.017623 0.052377
v 0.008637 -0.017789 0.054901
v 0.011082 -0.017557 0.053933
v 0.010954 -0.017222 0.053812
v 0.009863 -0.020061 0.053252
v 0.005774 -0.017986 0.055761
v 0.008534 -0.017449 0.054772
v 0.012544 -0.017338 0.051195
v 0.010265 -0.017623 0.052377
v 0.010443 -0.017139 0.052677
v 0.012783 -0.016868 0.051465
v 0.013498 -0.015117 0.045608
v 0.015162 -0.016935 0.049590
v 0.013423 -0.017287 0.052721
v 0.013330 -0.016951 0.052585
v 0.005367 -0.039268 0.048382
v 0.002888 -0.039687 0.048948
v 0.005803 -0.039385 0.049583
v 0.007709 -0.038423 0.047669
v 0.005566 -0.039750 0.048514
v 0.009842 -0.037274 0.046959
v 0.008049 -0.038862 0.047775
v 0.008408 -0.038470 0.048950
v 0.005691 -0.038309 0.049584
v 0.010699 -0.037226 0.048328
v 0.008249 -0.037459 0.048958
v 0.008510 -0.038767 0.048762
v 0.012510 -0.035899 0.047765
v 0.010506 -0.036295 0.048344
v 0.010838 -0.037501 0.048099
v 0.013674 -0.034733 0.047308
v 0.014687 -0.033536 0.046551
v 0.014447 -0.033404 0.046843
v 0.012682 -0.036139 0.047503
v 0.012301 -0.035059 0.047777
v 0.011590 -0.035987 0.046337
v 0.010285 -0.037655 0.047038
v 0.012780 -0.034727 0.045888
v 0.012104 -0.036306 0.046388
v 0.013476 -0.033995 0.047294
v 0.015340 -0.031690 0.045954
v 0.015085 -0.031588 0.046255
v 0.015917 -0.029238 0.045667
v 0.015664 -0.029175 0.045972
v 0.014148 -0.033087 0.046894
v 0.013611 -0.033302 0.045444
v 0.013339 -0.034999 0.045913
v 0.014282 -0.031521 0.044836
v 0.014195 -0.033526 0.045448
v 0.014872 -0.029112 0.044515
v 0.014881 -0.031682 0.044828
v 0.015456 -0.025803 0.044932
v 0.015473 -0.029202 0.044508
v 0.015210 -0.024729 0.047645
v 0.014240 -0.030751 0.046701
v 0.016497 -0.026038 0.046123
v 0.016263 -0.026055 0.046420
v 0.017158 -0.022585 0.047007
v 0.016939 -0.022707 0.047294
v 0.016131 -0.022288 0.045779
v 0.016049 -0.025820 0.044946
v 0.016699 -0.022210 0.045827
v 0.008110 -0.017352 0.053610
v 0.005703 -0.017642 0.055624
v 0.005407 -0.017531 0.054431
v 0.007976 -0.017831 0.053291
v 0.005328 -0.018007 0.054097
v 0.005367 -0.039268 0.048382
v 0.002609 -0.029226 0.035938
v 0.007709 -0.038423 0.047669
v 0.011590 -0.035987 0.046337
v 0.009225 -0.027999 0.036503
v 0.012780 -0.034727 0.045888
v 0.007989 -0.028078 0.035948
v 0.009842 -0.037274 0.046959
v 0.006486 -0.028320 0.035564
v 0.004698 -0.028709 0.035508
v 0.010191 -0.027686 0.036968
v 0.013611 -0.033302 0.045444
v 0.014282 -0.031521 0.044836
v 0.010887 -0.026739 0.037083
v 0.014872 -0.029112 0.044515
v 0.011593 -0.024978 0.037511
v 0.015456 -0.025803 0.044932
v 0.016131 -0.022288 0.045779
v 0.012587 -0.022224 0.038919
v 0.013751 -0.019254 0.040729
v 0.013751 -0.019254 0.040729
v 0.016131 -0.022288 0.045779
v 0.005858 -0.039697 0.049434
v 0.013884 -0.034918 0.047026
v 0.004196 -0.034386 0.050046
v 0.009430 -0.033121 0.048710
v 0.009681 -0.026417 0.050330
vt 0.262535 0.851606
vt 0.255469 0.839519
vt 0.258581 0.838091
vt 0.267783 0.857732
vt 0.259880 0.853682
vt 0.274827 0.864432
vt 0.265303 0.859602
vt 0.269953 0.872394
vt 0.257377 0.863810
vt 0.254883 0.867500
vt 0.250616 0.854823
vt 0.246574 0.854913
vt 0.245639 0.838950
vt 0.269900 0.876623
vt 0.050825 0.888874
vt 0.056268 0.924595
vt 0.042111 0.892458
vt 0.064806 0.919808
vt 0.047883 0.930174
vt 0.028601 0.896461
vt 0.505230 0.841215
vt 0.496809 0.849835
vt 0.494594 0.847672
vt 0.509766 0.834415
vt 0.512672 0.836215
vt 0.511367 0.821410
vt 0.514626 0.822570
vt 0.494966 0.827764
vt 0.507942 0.842806
vt 0.516595 0.845887
vt 0.522009 0.836259
vt 0.526065 0.835789
vt 0.524278 0.821081
vt 0.527619 0.818207
vt 0.519383 0.849277
vt 0.503367 0.861574
vt 0.502814 0.857299
vt 0.280833 0.926331
vt 0.301463 0.891456
vt 0.290557 0.932808
vt 0.289158 0.887537
vt 0.272609 0.920822
vt 0.280488 0.883964
vt 0.316128 0.882035
vt 0.336250 0.877065
vt 0.336881 0.881742
vt 0.315507 0.864243
vt 0.345649 0.841618
vt 0.335668 0.864059
vt 0.360077 0.880871
vt 0.384164 0.874855
vt 0.384523 0.879474
vt 0.359581 0.876220
vt 0.315699 0.867279
vt 0.358703 0.863439
vt 0.335940 0.867048
vt 0.294943 0.881605
vt 0.315426 0.877317
vt 0.294224 0.876932
vt 0.276713 0.862102
vt 0.295814 0.866876
vt 0.296268 0.863837
vt 0.272937 0.842915
vt 0.304891 0.843839
vt 0.349312 0.669125
vt 0.371965 0.670565
vt 0.349541 0.673392
vt 0.350287 0.683824
vt 0.372763 0.689019
vt 0.351245 0.692352
vt 0.328660 0.687949
vt 0.349664 0.681127
vt 0.327391 0.674671
vt 0.327831 0.679190
vt 0.306885 0.683091
vt 0.307739 0.687756
vt 0.329783 0.690597
vt 0.331053 0.698599
vt 0.310028 0.697187
vt 0.311643 0.699735
vt 0.313184 0.707107
vt 0.295221 0.707118
vt 0.297265 0.709392
vt 0.285634 0.715858
vt 0.298729 0.715980
vt 0.287980 0.717682
vt 0.288996 0.723449
vt 0.278069 0.725336
vt 0.289402 0.693449
vt 0.290990 0.698023
vt 0.276516 0.704466
vt 0.279330 0.708483
vt 0.280676 0.726811
vt 0.270046 0.738389
vt 0.282537 0.729649
vt 0.272889 0.739772
vt 0.263046 0.756774
vt 0.278957 0.747796
vt 0.266145 0.716866
vt 0.269987 0.720017
vt 0.256895 0.732197
vt 0.261263 0.734443
vt 0.249207 0.751876
vt 0.253805 0.753294
vt 0.244161 0.778638
vt 0.248700 0.779842
vt 0.265944 0.757897
vt 0.258690 0.782114
vt 0.261590 0.782639
vt 0.256070 0.811036
vt 0.271856 0.795441
vt 0.241329 0.808098
vt 0.245531 0.809789
vt 0.241765 0.836876
vt 0.259093 0.810712
vt 0.099887 0.906083
vt 0.081078 0.875919
vt 0.098853 0.868886
vt 0.117978 0.900329
vt 0.117138 0.863141
vt 0.137809 0.896189
vt 0.138319 0.858843
vt 0.161058 0.856596
vt 0.158595 0.894104
vt 0.061429 0.884072
vt 0.082506 0.912797
vt 0.358966 0.866421
vt 0.383183 0.862172
vt 0.383388 0.865138
vt 0.598152 0.969808
vt 0.595530 0.841372
vt 0.615141 0.846235
vt 0.579468 0.968591
vt 0.575325 0.839870
vt 0.615440 0.971645
vt 0.633528 0.853268
vt 0.641772 0.967688
vt 0.629860 0.970727
vt 0.649286 0.861158
vt 0.651378 0.963174
vt 0.671165 0.877343
vt 0.659775 0.960746
vt 0.661096 0.868610
vt 0.681471 0.889081
vt 0.668537 0.963960
vt 0.695689 0.902474
vt 0.682763 0.969524
vt 0.744767 0.928127
vt 0.707717 0.974202
vt 0.718212 0.916335
vt 0.736549 0.976768
vt 0.036791 0.937165
vt 0.001953 0.900031
vt 0.013500 0.947991
vt 0.372097 0.680279
vt 0.371953 0.677570
vt 0.301671 0.790981
vt 0.303801 0.739035
vt 0.341524 0.727293
vt 0.390855 0.779674
vt 0.342304 0.783906
vt 0.394241 0.838442
vt 0.218997 0.900749
vt 0.244655 0.869317
vt 0.238601 0.906519
vt 0.184045 0.857013
vt 0.179602 0.894526
vt 0.200023 0.896918
vt 0.205875 0.859468
vt 0.225095 0.863315
vt 0.431118 0.857945
vt 0.451603 0.855565
vt 0.451783 0.858572
vt 0.440473 0.835484
vt 0.407731 0.860246
vt 0.431243 0.860965
vt 0.475804 0.869916
vt 0.453327 0.873260
vt 0.453406 0.868527
vt 0.475830 0.865217
vt 0.260904 0.914725
vt 0.267515 0.878224
vt 0.471954 0.852679
vt 0.472777 0.855603
vt 0.394552 0.666302
vt 0.371844 0.666510
vt 0.394292 0.680917
vt 0.417144 0.669097
vt 0.394628 0.670526
vt 0.438661 0.674873
vt 0.417115 0.673561
vt 0.415826 0.684980
vt 0.394564 0.689491
vt 0.435399 0.691653
vt 0.415715 0.693107
vt 0.416692 0.682206
vt 0.451225 0.699416
vt 0.434926 0.699172
vt 0.436770 0.688919
vt 0.461916 0.706388
vt 0.473294 0.712799
vt 0.470775 0.714595
vt 0.453085 0.696890
vt 0.450571 0.706168
vt 0.457432 0.682890
vt 0.438334 0.679520
vt 0.471889 0.692011
vt 0.456474 0.687563
vt 0.461871 0.712143
vt 0.483062 0.725079
vt 0.480288 0.726776
vt 0.492756 0.742584
vt 0.489899 0.744031
vt 0.469213 0.717654
vt 0.483823 0.703187
vt 0.469709 0.696317
vt 0.495160 0.717154
vt 0.480508 0.706850
vt 0.505697 0.735661
vt 0.491248 0.720093
vt 0.514825 0.761661
vt 0.501423 0.737893
vt 0.488551 0.781799
vt 0.474458 0.735276
vt 0.501032 0.767359
vt 0.498102 0.768189
vt 0.508587 0.795512
vt 0.505453 0.795477
vt 0.522663 0.790422
vt 0.510578 0.763752
vt 0.518884 0.793037
vt 0.432262 0.870686
vt 0.407881 0.863239
vt 0.408783 0.872984
vt 0.432273 0.875388
vt 0.409000 0.877643
vt 0.555143 0.842938
vt 0.560936 0.971359
vt 0.535582 0.849144
vt 0.501447 0.865506
vt 0.507274 0.967452
vt 0.489646 0.873367
vt 0.517168 0.971650
vt 0.517214 0.857053
vt 0.529332 0.974275
vt 0.543831 0.974466
vt 0.498696 0.965268
vt 0.479613 0.882453
vt 0.469405 0.894551
vt 0.490018 0.968759
vt 0.455426 0.908591
vt 0.475918 0.974967
vt 0.433320 0.923774
vt 0.407736 0.937717
vt 0.450909 0.981045
vt 0.422265 0.985910
vt 0.312695 0.944423
vt 0.327130 0.896203
vt 0.394646 0.678165
vt 0.464101 0.704325
vt 0.386538 0.722266
vt 0.430207 0.725722
vt 0.437476 0.779933
vn -0.453469 -0.391526 0.800671
vn -0.991816 -0.110645 0.063711
vn -0.397966 -0.435026 0.807698
vn -0.365501 -0.275230 0.889189
vn -0.950454 0.265787 0.161230
vn -0.181235 0.948057 0.261423
vn -0.597746 0.767412 0.231902
vn -0.075433 0.984348 -0.159274
vn -0.473522 0.852490 -0.221445
vn -0.584021 0.779106 0.227844
vn -0.867783 0.411786 -0.278183
vn -0.943067 0.328644 0.051162
vn -0.941921 0.064431 -0.329597
vn -0.130926 0.947265 0.292484
vn -0.584021 0.779106 0.227844
vn -0.698167 0.633593 0.333352
vn -0.943067 0.328644 0.051162
vn -0.236529 0.874834 0.422752
vn -0.976878 0.171992 0.126999
vn -0.991130 -0.075212 -0.109562
vn 0.638465 -0.230824 0.734223
vn 0.164484 0.955502 0.244869
vn 0.555906 -0.224657 0.800311
vn 0.680387 -0.330108 0.654295
vn 0.930826 0.356050 -0.082404
vn 0.625324 -0.374814 0.684459
vn 0.975225 -0.058912 -0.213229
vn 0.504045 -0.388752 0.771240
vn 0.527144 0.841923 0.115263
vn 0.280069 0.915770 -0.287969
vn 0.722272 0.488018 -0.490063
vn 0.830920 0.470905 -0.296344
vn 0.813574 0.090685 -0.574346
vn 0.860353 0.014879 -0.509481
vn 0.460087 0.886434 0.050543
vn 0.111144 0.963037 0.245370
vn -0.075170 0.988236 -0.133186
vn 0.908345 0.339682 -0.243977
vn 0.860353 0.014879 -0.509481
vn 0.895595 -0.041536 -0.442927
vn 0.830920 0.470905 -0.296344
vn 0.602701 0.790777 0.106876
vn 0.460087 0.886434 0.050543
vn -0.057739 0.947145 0.315567
vn -0.000962 0.978505 -0.206220
vn -0.051848 0.947519 0.315468
vn -0.132898 -0.372581 0.918434
vn 0.001482 -0.418934 0.908015
vn -0.099402 -0.368426 0.924328
vn -0.033228 0.949003 0.313510
vn -0.073097 0.978762 -0.191526
vn -0.002819 0.952089 0.305810
vn -0.040023 0.978785 -0.200944
vn -0.050866 0.952194 0.301229
vn 0.069331 -0.394142 0.916431
vn -0.044120 0.946273 0.320344
vn -0.048369 0.948514 0.313020
vn 0.038961 0.977089 -0.209233
vn 0.057296 0.978849 -0.196395
vn -0.239612 -0.344813 0.907574
vn -0.049374 0.956964 0.285975
vn -0.221644 -0.343711 0.912544
vn -0.263875 -0.424241 0.866250
vn -0.171973 -0.416722 0.892619
vn -0.129880 -0.772154 -0.622021
vn -0.000999 -0.937765 -0.347268
vn -0.144825 -0.927528 -0.344553
vn 0.090903 -0.094833 0.991334
vn 0.140681 -0.010354 0.990001
vn 0.113647 -0.008652 0.993484
vn -0.287981 -0.923514 0.253357
vn -0.113128 -0.948683 0.295299
vn -0.211114 -0.769799 -0.602362
vn -0.270275 -0.897156 -0.349374
vn -0.303145 -0.757481 -0.578209
vn -0.381905 -0.853840 -0.353702
vn 0.022210 -0.103652 0.994366
vn 0.030580 0.001615 0.999531
vn -0.428652 -0.877708 0.214208
vn -0.044580 -0.108717 0.993073
vn 0.004705 0.009871 0.999940
vn -0.559093 -0.812266 0.166246
vn -0.113929 -0.102172 0.988221
vn -0.717717 -0.688396 0.104850
vn -0.066025 0.042493 0.996913
vn -0.218299 -0.075317 0.972971
vn -0.124366 0.062018 0.990296
vn -0.845516 -0.526511 0.088819
vn -0.395807 -0.734457 -0.551279
vn -0.487778 -0.788120 -0.375419
vn -0.512317 -0.690384 -0.510784
vn -0.603075 -0.669340 -0.433917
vn -0.339442 -0.012188 0.940548
vn -0.918848 -0.386430 0.079939
vn -0.202969 0.074812 0.976323
vn -0.367926 -0.019447 0.929652
vn -0.964703 -0.254820 0.066439
vn -0.262110 -0.190897 0.945969
vn -0.658341 -0.608693 -0.442809
vn -0.694050 -0.546994 -0.468073
vn -0.813763 -0.467095 -0.345850
vn -0.776885 -0.403152 -0.483652
vn -0.933897 -0.276264 -0.226968
vn -0.852197 -0.198174 -0.484239
vn -0.970497 -0.180785 -0.159535
vn -0.889927 -0.060297 -0.452099
vn -0.423060 -0.228584 0.876795
vn -0.978662 -0.196304 0.060706
vn -0.425310 -0.263237 0.865920
vn -0.978515 -0.200993 0.045925
vn -0.277155 -0.343900 0.897172
vn -0.977983 -0.159873 -0.134122
vn -0.911098 -0.009574 -0.412079
vn -0.991130 -0.075212 -0.109562
vn -0.382783 -0.422804 0.821410
vn -0.079552 0.897362 0.434067
vn -0.048369 0.948514 0.313020
vn -0.057739 0.947145 0.315567
vn -0.064672 0.897036 0.437201
vn -0.051848 0.947519 0.315468
vn -0.032820 0.899066 0.436581
vn -0.033228 0.949003 0.313510
vn -0.002819 0.952089 0.305810
vn 0.012614 0.903424 0.428563
vn -0.130926 0.947265 0.292484
vn -0.070182 0.901655 0.426723
vn -0.027608 0.942880 0.331986
vn 0.107756 -0.391826 0.913707
vn 0.000306 0.941146 0.337999
vn -0.137579 -0.785869 -0.602895
vn -0.129880 -0.772154 -0.622021
vn -0.211114 -0.769799 -0.602362
vn -0.054729 -0.782549 -0.620179
vn -0.058764 -0.768936 -0.636620
vn -0.225163 -0.782976 -0.579871
vn -0.303145 -0.757481 -0.578209
vn -0.406659 -0.750457 -0.521002
vn -0.315634 -0.771252 -0.552761
vn -0.395807 -0.734457 -0.551279
vn -0.535146 -0.705253 -0.465013
vn -0.658341 -0.608693 -0.442809
vn -0.712744 -0.599058 -0.364864
vn -0.512317 -0.690384 -0.510784
vn -0.813763 -0.467095 -0.345850
vn -0.875438 -0.418860 -0.241172
vn -0.933897 -0.276264 -0.226968
vn -0.954750 -0.261606 -0.141475
vn -0.977983 -0.159873 -0.134122
vn -0.976658 -0.195894 -0.088114
vn -0.970497 -0.180785 -0.159535
vn -0.980459 -0.186222 -0.063418
vn -0.989810 -0.139392 -0.029093
vn -0.977983 -0.159873 -0.134122
vn -0.980459 -0.186222 -0.063418
vn 0.165635 -0.089796 0.982090
vn 0.099707 -0.948225 0.301542
vn -0.167271 -0.330239 0.928958
vn -0.115391 -0.176336 0.977543
vn 0.045428 -0.171254 0.984179
vn 0.196858 -0.322669 0.925814
vn 0.013162 -0.325248 0.945537
vn 0.191464 -0.416915 0.888552
vn 0.086293 0.916187 0.391349
vn 0.034356 0.956828 0.288618
vn 0.093543 0.918553 0.384070
vn 0.023719 0.954359 0.297719
vn 0.054524 0.908558 0.414185
vn 0.075357 0.912800 0.401394
vn 0.033876 0.955924 0.291654
vn 0.034398 0.956976 0.288122
vn 0.303923 -0.377185 0.874850
vn 0.462223 -0.383465 0.799565
vn 0.042343 0.949611 0.310556
vn 0.393089 -0.404823 0.825590
vn 0.273560 -0.373127 0.886533
vn 0.035749 0.946020 0.322132
vn 0.034356 0.956828 0.288618
vn 0.034398 0.956976 0.288122
vn -0.177358 0.970572 -0.162893
vn -0.196367 0.971465 -0.133024
vn 0.218769 0.918054 0.330632
vn 0.111144 0.963037 0.245370
vn 0.483877 -0.393673 0.781591
vn 0.056710 0.952266 0.299955
vn 0.015008 -0.762842 -0.646411
vn -0.058764 -0.768936 -0.636620
vn 0.234927 -0.088563 0.967970
vn 0.104165 -0.748607 -0.654780
vn 0.135645 -0.914691 -0.380711
vn 0.204873 -0.721228 -0.661708
vn 0.253492 -0.872212 -0.418316
vn 0.287486 -0.095632 0.952999
vn 0.231816 -0.011539 0.972691
vn 0.334620 -0.101945 0.936823
vn 0.248152 -0.007863 0.968689
vn 0.443399 -0.882211 0.158436
vn 0.390828 -0.095118 0.915536
vn 0.304826 0.031166 0.951898
vn 0.556889 -0.825816 0.088897
vn 0.479392 -0.063288 0.875316
vn 0.886988 -0.446370 -0.118344
vn 0.571843 0.007862 0.820325
vn 0.659895 -0.751224 0.014160
vn 0.331792 0.052717 0.941878
vn 0.299406 -0.683721 -0.665493
vn 0.358283 -0.817638 -0.450668
vn 0.413970 -0.623052 -0.663653
vn 0.449308 -0.741678 -0.498032
vn 0.317933 0.103171 0.942483
vn 0.940507 -0.308557 -0.142262
vn 0.591631 -0.000807 0.806208
vn 0.967571 -0.188763 -0.167856
vn 0.637651 -0.206409 0.742157
vn 0.445411 0.082573 0.891510
vn 0.554961 -0.523320 -0.646649
vn 0.534773 -0.612557 -0.582058
vn 0.700821 -0.367398 -0.611448
vn 0.602854 -0.481410 -0.636248
vn 0.817242 -0.163847 -0.552512
vn 0.663255 -0.332611 -0.670419
vn 0.851967 -0.062483 -0.519854
vn 0.713890 -0.129345 -0.688208
vn 0.498987 -0.317823 0.806226
vn 0.471565 -0.184393 0.862337
vn 0.972832 -0.141366 -0.183341
vn 0.639299 -0.239488 0.730713
vn 0.964822 -0.156120 -0.211531
vn 0.608841 -0.367191 0.703195
vn 0.851256 -0.057631 -0.521577
vn 0.744638 -0.006026 -0.667441
vn 0.768045 0.012676 -0.640271
vn -0.140434 0.973557 -0.180181
vn 0.025386 0.943220 0.331196
vn -0.105661 0.976513 -0.187772
vn 0.033876 0.955924 0.291654
vn 0.023719 0.954359 0.297719
vn 0.015008 -0.762842 -0.646411
vn 0.030748 -0.774861 -0.631383
vn 0.104165 -0.748607 -0.654780
vn 0.299406 -0.683721 -0.665493
vn 0.443731 -0.638016 -0.629315
vn 0.413970 -0.623052 -0.663653
vn 0.316684 -0.699250 -0.640906
vn 0.204873 -0.721228 -0.661708
vn 0.223235 -0.733472 -0.642017
vn 0.125697 -0.759230 -0.638569
vn 0.617823 -0.513810 -0.595227
vn 0.554961 -0.523320 -0.646649
vn 0.700821 -0.367398 -0.611448
vn 0.774055 -0.324343 -0.543728
vn 0.817242 -0.163847 -0.552512
vn 0.858554 -0.151705 -0.489766
vn 0.851967 -0.062483 -0.519854
vn 0.851256 -0.057631 -0.521577
vn 0.882741 -0.076944 -0.463517
vn 0.882428 -0.080227 -0.463556
vn 0.882428 -0.080227 -0.463556
vn 0.851256 -0.057631 -0.521577
vn 0.298493 -0.923314 0.241646
vn 0.783222 -0.616887 -0.077541
vn 0.193262 -0.171286 0.966080
vn 0.347888 -0.164633 0.922968
vn 0.392690 -0.313984 0.864412
f 1/1/1 2/2/2 3/3/3
f 4/4/4 5/5/5 1/1/1
f 4/4/4 6/6/6 7/7/7
f 7/7/7 8/8/8 9/9/9
f 5/5/5 4/4/4 7/7/7
f 5/5/5 2/2/2 1/1/1
f 9/9/9 5/5/5 7/7/7
f 9/9/9 8/8/8 10/10/10
f 11/11/11 5/5/5 9/9/9
f 11/11/11 2/2/2 5/5/5
f 12/12/12 13/13/13 11/11/11
f 10/10/10 11/11/11 9/9/9
f 10/10/10 12/12/12 11/11/11
f 10/10/10 8/8/8 14/14/14
f 15/15/15 16/16/16 17/17/17
f 15/15/15 18/18/18 16/16/16
f 19/19/19 20/20/20 17/17/17
f 19/19/19 17/17/17 16/16/16
f 21/21/21 22/22/22 23/23/23
f 21/21/21 24/24/24 25/25/25
f 24/24/24 26/26/26 27/27/27
f 24/24/24 28/28/28 26/26/26
f 25/25/25 29/29/29 21/21/21
f 25/25/25 30/30/30 29/29/29
f 30/30/30 25/25/25 31/31/31
f 32/32/32 33/33/33 34/34/34
f 31/31/31 27/27/27 33/33/33
f 31/31/31 35/35/35 30/30/30
f 35/35/35 36/36/36 37/37/37
f 35/35/35 31/31/31 32/32/32
f 38/38/38 39/39/39 40/40/40
f 41/41/41 42/42/42 43/43/43
f 42/42/42 41/41/41 38/38/38
f 44/44/44 45/45/45 46/46/46
f 47/47/47 48/48/48 49/49/49
f 50/50/50 51/51/51 52/52/52
f 46/46/46 53/53/53 50/50/50
f 49/49/49 54/54/54 47/47/47
f 55/55/55 56/56/56 49/49/49
f 57/57/57 58/58/58 44/44/44
f 14/14/14 59/59/59 57/57/57
f 60/60/60 61/61/61 6/6/6
f 62/62/62 54/54/54 61/61/61
f 62/62/62 63/63/63 64/64/64
f 65/65/65 66/66/66 67/67/67
f 68/68/68 69/69/69 70/70/70
f 68/68/68 71/71/71 72/72/72
f 73/73/73 67/67/67 74/74/74
f 75/75/75 74/74/74 76/76/76
f 77/77/77 70/70/70 78/78/78
f 77/77/77 79/79/79 71/71/71
f 80/80/80 78/78/78 81/81/81
f 80/80/80 82/82/82 79/79/79
f 83/83/83 84/84/84 82/82/82
f 83/83/83 81/81/81 85/85/85
f 86/86/86 85/85/85 87/87/87
f 86/86/86 88/88/88 84/84/84
f 89/89/89 76/76/76 90/90/90
f 91/91/91 90/90/90 92/92/92
f 93/93/93 94/94/94 88/88/88
f 93/93/93 87/87/87 95/95/95
f 96/96/96 97/97/97 94/94/94
f 96/96/96 95/95/95 98/98/98
f 99/99/99 92/92/92 100/100/100
f 101/101/101 100/100/100 102/102/102
f 103/103/103 102/102/102 104/104/104
f 105/105/105 104/104/104 106/106/106
f 107/107/107 108/108/108 97/97/97
f 109/109/109 110/110/110 108/108/108
f 109/109/109 98/98/98 111/111/111
f 112/112/112 106/106/106 113/113/113
f 114/114/114 113/113/113 13/13/13
f 3/3/3 110/110/110 115/115/115
f 116/116/116 117/117/117 118/118/118
f 116/116/116 118/118/118 119/119/119
f 119/119/119 118/118/118 120/120/120
f 120/120/120 121/121/121 119/119/119
f 122/122/122 123/123/123 124/124/124
f 121/121/121 120/120/120 122/122/122
f 121/121/121 122/122/122 124/124/124
f 18/18/18 15/15/15 125/125/125
f 117/117/117 116/116/116 126/126/126
f 126/126/126 125/125/125 117/117/117
f 126/126/126 18/18/18 125/125/125
f 54/54/54 59/59/59 61/61/61
f 54/54/54 62/62/62 47/47/47
f 54/54/54 49/49/49 56/56/56
f 58/58/58 57/57/57 59/59/59
f 58/58/58 56/56/56 45/45/45
f 56/56/56 55/55/55 127/127/127
f 56/56/56 58/58/58 54/54/54
f 45/45/45 127/127/127 53/53/53
f 45/45/45 44/44/44 58/58/58
f 127/127/127 128/128/128 129/129/129
f 127/127/127 45/45/45 56/56/56
f 53/53/53 46/46/46 45/45/45
f 53/53/53 129/129/129 51/51/51
f 6/6/6 4/4/4 60/60/60
f 59/59/59 54/54/54 58/58/58
f 61/61/61 60/60/60 62/62/62
f 61/61/61 8/8/8 6/6/6
f 8/8/8 59/59/59 14/14/14
f 8/8/8 7/7/7 6/6/6
f 8/8/8 61/61/61 59/59/59
f 130/130/130 131/131/131 132/132/132
f 131/131/131 133/133/133 134/134/134
f 132/132/132 135/135/135 130/130/130
f 136/136/136 137/137/137 138/138/138
f 136/136/136 135/135/135 132/132/132
f 135/135/135 136/136/136 138/138/138
f 137/137/137 136/136/136 139/139/139
f 137/137/137 139/139/139 140/140/140
f 140/140/140 141/141/141 142/142/142
f 140/140/140 139/139/139 143/143/143
f 140/140/140 143/143/143 141/141/141
f 142/142/142 144/144/144 145/145/145
f 144/144/144 142/142/142 141/141/141
f 145/145/145 144/144/144 146/146/146
f 145/145/145 146/146/146 147/147/147
f 148/148/148 149/149/149 150/150/150
f 149/149/149 148/148/148 151/151/151
f 150/150/150 147/147/147 146/146/146
f 147/147/147 150/150/150 149/149/149
f 20/20/20 19/19/19 152/152/152
f 152/152/152 153/153/153 20/20/20
f 154/154/154 153/153/153 152/152/152
f 72/72/72 71/71/71 74/74/74
f 72/72/72 155/155/155 68/68/68
f 67/67/67 73/73/73 65/65/65
f 67/67/67 156/156/156 72/72/72
f 74/74/74 67/67/67 72/72/72
f 74/74/74 75/75/75 73/73/73
f 71/71/71 76/76/76 74/74/74
f 71/71/71 68/68/68 77/77/77
f 76/76/76 71/71/71 79/79/79
f 76/76/76 89/89/89 75/75/75
f 79/79/79 90/90/90 76/76/76
f 79/79/79 77/77/77 80/80/80
f 82/82/82 80/80/80 83/83/83
f 92/92/92 88/88/88 100/100/100
f 92/92/92 99/99/99 91/91/91
f 84/84/84 83/83/83 86/86/86
f 84/84/84 88/88/88 92/92/92
f 84/84/84 90/90/90 82/82/82
f 90/90/90 84/84/84 92/92/92
f 90/90/90 79/79/79 82/82/82
f 90/90/90 91/91/91 89/89/89
f 102/102/102 97/97/97 104/104/104
f 102/102/102 103/103/103 101/101/101
f 88/88/88 86/86/86 93/93/93
f 100/100/100 94/94/94 102/102/102
f 100/100/100 101/101/101 99/99/99
f 94/94/94 100/100/100 88/88/88
f 94/94/94 97/97/97 102/102/102
f 94/94/94 93/93/93 96/96/96
f 104/104/104 105/105/105 103/103/103
f 97/97/97 106/106/106 104/104/104
f 97/97/97 96/96/96 107/107/107
f 106/106/106 97/97/97 108/108/108
f 106/106/106 112/112/112 105/105/105
f 108/108/108 113/113/113 106/106/106
f 108/108/108 107/107/107 109/109/109
f 2/2/2 11/11/11 13/13/13
f 113/113/113 114/114/114 112/112/112
f 113/113/113 108/108/108 110/110/110
f 13/13/13 110/110/110 2/2/2
f 13/13/13 12/12/12 114/114/114
f 110/110/110 13/13/13 113/113/113
f 110/110/110 3/3/3 2/2/2
f 110/110/110 109/109/109 115/115/115
f 70/70/70 77/77/77 68/68/68
f 63/63/63 3/3/3 115/115/115
f 63/63/63 4/4/4 1/1/1
f 63/63/63 60/60/60 4/4/4
f 63/63/63 1/1/1 3/3/3
f 63/63/63 62/62/62 60/60/60
f 111/111/111 63/63/63 115/115/115
f 111/111/111 115/115/115 109/109/109
f 98/98/98 107/107/107 96/96/96
f 98/98/98 109/109/109 107/107/107
f 98/98/98 157/157/157 111/111/111
f 87/87/87 158/158/158 98/98/98
f 87/87/87 93/93/93 86/86/86
f 95/95/95 96/96/96 93/93/93
f 95/95/95 87/87/87 98/98/98
f 159/159/159 160/160/160 161/161/161
f 159/159/159 78/78/78 70/70/70
f 78/78/78 159/159/159 81/81/81
f 78/78/78 80/80/80 77/77/77
f 158/158/158 161/161/161 157/157/157
f 158/158/158 157/157/157 98/98/98
f 81/81/81 159/159/159 158/158/158
f 81/81/81 83/83/83 80/80/80
f 85/85/85 81/81/81 158/158/158
f 85/85/85 158/158/158 87/87/87
f 85/85/85 86/86/86 83/83/83
f 161/161/161 160/160/160 162/162/162
f 161/161/161 158/158/158 159/159/159
f 161/161/161 162/162/162 48/48/48
f 64/64/64 48/48/48 47/47/47
f 64/64/64 63/63/63 111/111/111
f 64/64/64 47/47/47 62/62/62
f 48/48/48 157/157/157 161/161/161
f 48/48/48 128/128/128 55/55/55
f 48/48/48 55/55/55 49/49/49
f 157/157/157 64/64/64 111/111/111
f 157/157/157 48/48/48 64/64/64
f 163/163/163 164/164/164 165/165/165
f 123/123/123 166/166/166 167/167/167
f 124/124/124 123/123/123 167/167/167
f 168/168/168 169/169/169 170/170/170
f 168/168/168 170/170/170 163/163/163
f 166/166/166 169/169/169 168/168/168
f 167/167/167 166/166/166 168/168/168
f 171/171/171 172/172/172 173/173/173
f 171/171/171 162/162/162 174/174/174
f 128/128/128 48/48/48 162/162/162
f 128/128/128 127/127/127 55/55/55
f 175/175/175 171/171/171 176/176/176
f 177/177/177 178/178/178 179/179/179
f 36/36/36 177/177/177 180/180/180
f 164/164/164 163/163/163 170/170/170
f 181/181/181 182/182/182 43/43/43
f 181/181/181 43/43/43 42/42/42
f 182/182/182 165/165/165 164/164/164
f 165/165/165 182/182/182 181/181/181
f 183/183/183 173/173/173 172/172/172
f 23/23/23 184/184/184 183/183/183
f 185/185/185 66/66/66 186/186/186
f 155/155/155 72/72/72 156/156/156
f 187/187/187 69/69/69 155/155/155
f 188/188/188 189/189/189 185/185/185
f 190/190/190 191/191/191 188/188/188
f 192/192/192 193/193/193 187/187/187
f 194/194/194 195/195/195 192/192/192
f 194/194/194 192/192/192 196/196/196
f 197/197/197 198/198/198 194/194/194
f 197/197/197 194/194/194 199/199/199
f 200/200/200 201/201/201 202/202/202
f 200/200/200 197/197/197 203/203/203
f 200/200/200 204/204/204 197/197/197
f 205/205/205 206/206/206 190/190/190
f 207/207/207 208/208/208 205/205/205
f 202/202/202 209/209/209 200/200/200
f 202/202/202 210/210/210 211/211/211
f 211/211/211 212/212/212 213/213/213
f 211/211/211 214/214/214 202/202/202
f 215/215/215 216/216/216 207/207/207
f 217/217/217 218/218/218 215/215/215
f 219/219/219 220/220/220 217/217/217
f 221/221/221 222/222/222 219/219/219
f 213/213/213 223/223/223 224/224/224
f 213/213/213 225/225/225 226/226/226
f 226/226/226 227/227/227 228/228/228
f 229/229/229 230/230/230 221/221/221
f 34/34/34 231/231/231 229/229/229
f 173/173/173 176/176/176 171/171/171
f 173/173/173 183/183/183 184/184/184
f 179/179/179 176/176/176 173/173/173
f 179/179/179 184/184/184 180/180/180
f 179/179/179 180/180/180 177/177/177
f 176/176/176 179/179/179 232/232/232
f 176/176/176 233/233/233 175/175/175
f 232/232/232 234/234/234 233/233/233
f 232/232/232 179/179/179 178/178/178
f 232/232/232 178/178/178 235/235/235
f 129/129/129 53/53/53 127/127/127
f 234/234/234 235/235/235 236/236/236
f 234/234/234 232/232/232 235/235/235
f 233/233/233 176/176/176 232/232/232
f 233/233/233 51/51/51 129/129/129
f 233/233/233 128/128/128 175/175/175
f 233/233/233 129/129/129 128/128/128
f 51/51/51 236/236/236 52/52/52
f 51/51/51 234/234/234 236/236/236
f 51/51/51 233/233/233 234/234/234
f 51/51/51 50/50/50 53/53/53
f 184/184/184 179/179/179 173/173/173
f 184/184/184 23/23/23 22/22/22
f 37/37/37 30/30/30 35/35/35
f 37/37/37 29/29/29 30/30/30
f 22/22/22 21/21/21 29/29/29
f 22/22/22 180/180/180 184/184/184
f 22/22/22 29/29/29 37/37/37
f 180/180/180 37/37/37 36/36/36
f 180/180/180 22/22/22 37/37/37
f 133/133/133 131/131/131 130/130/130
f 133/133/133 237/237/237 134/134/134
f 238/238/238 239/239/239 237/237/237
f 238/238/238 237/237/237 133/133/133
f 240/240/240 241/241/241 242/242/242
f 240/240/240 243/243/243 241/241/241
f 243/243/243 244/244/244 245/245/245
f 239/239/239 246/246/246 244/244/244
f 246/246/246 239/239/239 238/238/238
f 244/244/244 246/246/246 245/245/245
f 244/244/244 243/243/243 240/240/240
f 242/242/242 247/247/247 248/248/248
f 247/247/247 242/242/242 241/241/241
f 247/247/247 249/249/249 248/248/248
f 249/249/249 250/250/250 251/251/251
f 249/249/249 247/247/247 250/250/250
f 252/252/252 251/251/251 250/250/250
f 252/252/252 253/253/253 251/251/251
f 254/254/254 255/255/255 256/256/256
f 255/255/255 254/254/254 253/253/253
f 255/255/255 253/253/253 252/252/252
f 257/257/257 39/39/39 258/258/258
f 39/39/39 38/38/38 41/41/41
f 39/39/39 257/257/257 40/40/40
f 156/156/156 67/67/67 66/66/66
f 156/156/156 259/259/259 187/187/187
f 156/156/156 187/187/187 155/155/155
f 66/66/66 185/185/185 189/189/189
f 66/66/66 65/65/65 186/186/186
f 66/66/66 259/259/259 156/156/156
f 66/66/66 189/189/189 259/259/259
f 259/259/259 192/192/192 187/187/187
f 259/259/259 196/196/196 192/192/192
f 189/189/189 191/191/191 259/259/259
f 189/189/189 188/188/188 191/191/191
f 196/196/196 199/199/199 194/194/194
f 191/191/191 196/196/196 259/259/259
f 191/191/191 206/206/206 196/196/196
f 191/191/191 190/190/190 206/206/206
f 199/199/199 203/203/203 197/197/197
f 206/206/206 208/208/208 203/203/203
f 206/206/206 203/203/203 199/199/199
f 206/206/206 199/199/199 196/196/196
f 206/206/206 205/205/205 208/208/208
f 216/216/216 215/215/215 218/218/218
f 216/216/216 218/218/218 201/201/201
f 260/260/260 216/216/216 201/201/201
f 208/208/208 207/207/207 216/216/216
f 208/208/208 216/216/216 260/260/260
f 203/203/203 260/260/260 200/200/200
f 203/203/203 208/208/208 260/260/260
f 220/220/220 219/219/219 222/222/222
f 220/220/220 222/222/222 212/212/212
f 218/218/218 217/217/217 220/220/220
f 218/218/218 220/220/220 210/210/210
f 201/201/201 200/200/200 260/260/260
f 210/210/210 201/201/201 218/218/218
f 210/210/210 202/202/202 201/201/201
f 212/212/212 210/210/210 220/220/220
f 212/212/212 211/211/211 210/210/210
f 222/222/222 230/230/230 212/212/212
f 222/222/222 221/221/221 230/230/230
f 230/230/230 225/225/225 212/212/212
f 230/230/230 229/229/229 231/231/231
f 225/225/225 213/213/213 212/212/212
f 225/225/225 231/231/231 227/227/227
f 27/27/27 25/25/25 24/24/24
f 27/27/27 31/31/31 25/25/25
f 231/231/231 34/34/34 33/33/33
f 231/231/231 225/225/225 230/230/230
f 227/227/227 27/27/27 26/26/26
f 227/227/227 33/33/33 27/27/27
f 227/227/227 26/26/26 228/228/228
f 227/227/227 226/226/226 225/225/225
f 33/33/33 227/227/227 231/231/231
f 33/33/33 32/32/32 31/31/31
f 193/193/193 192/192/192 195/195/195
f 69/69/69 187/187/187 193/193/193
f 69/69/69 68/68/68 155/155/155
f 261/261/261 195/195/195 262/262/262
f 261/261/261 159/159/159 70/70/70
f 261/261/261 70/70/70 69/69/69
f 261/261/261 69/69/69 193/193/193
f 209/209/209 202/202/202 214/214/214
f 209/209/209 224/224/224 204/204/204
f 214/214/214 211/211/211 224/224/224
f 214/214/214 224/224/224 209/209/209
f 195/195/195 261/261/261 193/193/193
f 195/195/195 194/194/194 198/198/198
f 198/198/198 262/262/262 195/195/195
f 198/198/198 197/197/197 204/204/204
f 262/262/262 160/160/160 261/261/261
f 224/224/224 211/211/211 213/213/213
f 224/224/224 263/263/263 262/262/262
f 204/204/204 262/262/262 198/198/198
f 204/204/204 224/224/224 262/262/262
f 204/204/204 200/200/200 209/209/209
f 160/160/160 262/262/262 263/263/263
f 160/160/160 159/159/159 261/261/261
f 162/162/162 263/263/263 174/174/174
f 162/162/162 171/171/171 175/175/175
f 162/162/162 175/175/175 128/128/128
f 28/28/28 183/183/183 174/174/174
f 28/28/28 23/23/23 183/183/183
f 28/28/28 228/228/228 26/26/26
f 28/28/28 223/223/223 228/228/228
f 28/28/28 24/24/24 21/21/21
f 28/28/28 21/21/21 23/23/23
f 263/263/263 162/162/162 160/160/160
f 263/263/263 224/224/224 223/223/223
f 174/174/174 223/223/223 28/28/28
f 174/174/174 172/172/172 171/171/171
f 174/174/174 183/183/183 172/172/172
f 223/223/223 213/213/213 226/226/226
f 223/223/223 226/226/226 228/228/228
f 223/223/223 174/174/174 263/263/263
