# GloomhavenVR - pico-4 left 'thumbstick' (glTF material 0)
# generated by controllers_pipeline.py from webxr-input-profiles (MIT)
o pico4_left_thumbstick__m0
v -0.015460 0.027433 0.016272
v -0.015460 0.027433 0.016272
v -0.015460 0.029919 0.016272
v -0.015460 0.029919 0.016272
v -0.015814 0.027433 0.018054
v -0.015814 0.027433 0.018054
v -0.015814 0.029919 0.018054
v -0.015814 0.029919 0.018054
v -0.015460 0.027433 0.019835
v -0.015460 0.027433 0.019835
v -0.015460 0.029919 0.019835
v -0.015460 0.029919 0.019835
v -0.014450 0.027433 0.021346
v -0.014450 0.027433 0.021346
v -0.014450 0.029919 0.021346
v -0.014450 0.029919 0.021346
v -0.012940 0.027433 0.022355
v -0.012940 0.027433 0.022355
v -0.012940 0.029919 0.022355
v -0.012940 0.029919 0.022355
v -0.011158 0.027433 0.022710
v -0.011158 0.027433 0.022710
v -0.011158 0.029919 0.022710
v -0.011158 0.029919 0.022710
v -0.009376 0.027433 0.022355
v -0.009376 0.027433 0.022355
v -0.009376 0.029919 0.022355
v -0.009376 0.029919 0.022355
v -0.007866 0.027433 0.021346
v -0.007866 0.027433 0.021346
v -0.007866 0.029919 0.021346
v -0.007866 0.029919 0.021346
v -0.006856 0.027433 0.019835
v -0.006856 0.027433 0.019835
v -0.006856 0.029919 0.019835
v -0.006856 0.029919 0.019835
v -0.006502 0.027433 0.018054
v -0.006502 0.027433 0.018054
v -0.006502 0.029919 0.018054
v -0.006502 0.029919 0.018054
v -0.006856 0.027433 0.016272
v -0.006856 0.027433 0.016272
v -0.006856 0.029919 0.016272
v -0.006856 0.029919 0.016272
v -0.007866 0.027433 0.014761
v -0.007866 0.027433 0.014761
v -0.007866 0.029919 0.014761
v -0.007866 0.029919 0.014761
v -0.009376 0.027433 0.013752
v -0.009376 0.027433 0.013752
v -0.009376 0.029919 0.013752
v -0.009376 0.029919 0.013752
v -0.011158 0.027433 0.013398
v -0.011158 0.027433 0.013398
v -0.011158 0.029919 0.013398
v -0.011158 0.029919 0.013398
v -0.012940 0.027433 0.013752
v -0.012940 0.027433 0.013752
v -0.012940 0.029919 0.013752
v -0.012940 0.029919 0.013752
v -0.014450 0.027433 0.014761
v -0.014450 0.027433 0.014761
v -0.014450 0.029919 0.014761
v -0.014450 0.029919 0.014761
v -0.006189 0.033340 0.015995
v -0.011158 0.032616 0.011561
v -0.013643 0.032616 0.012055
v -0.015749 0.032616 0.013463
v -0.017156 0.032616 0.015569
v -0.017651 0.032616 0.018054
v -0.017156 0.032616 0.020538
v -0.015749 0.032616 0.022645
v -0.013643 0.032616 0.024052
v -0.011158 0.032616 0.024546
v -0.008673 0.032616 0.024052
v -0.006567 0.032616 0.022645
v -0.005160 0.032616 0.020538
v -0.004665 0.032616 0.018054
v -0.005160 0.032616 0.015569
v -0.008673 0.032616 0.012055
v -0.006567 0.032616 0.013463
v -0.005780 0.033340 0.018054
v -0.006189 0.033340 0.020112
v -0.007355 0.033340 0.021857
v -0.009100 0.033340 0.023023
v -0.011158 0.033340 0.023432
v -0.013216 0.033340 0.023023
v -0.014961 0.033340 0.021857
v -0.016127 0.033340 0.020112
v -0.016536 0.033340 0.018054
v -0.016127 0.033340 0.015995
v -0.014961 0.033340 0.014251
v -0.013216 0.033340 0.013085
v -0.011158 0.033340 0.012675
v -0.009100 0.033340 0.013085
v -0.007355 0.033340 0.014251
v -0.016674 0.024029 0.023569
v -0.018365 0.024029 0.021039
v -0.014143 0.024029 0.025260
v -0.011158 0.024029 0.025854
v -0.008173 0.024029 0.025260
v -0.005643 0.024029 0.023569
v -0.003952 0.024029 0.021039
v -0.003359 0.024029 0.018054
v -0.003952 0.024029 0.015069
v -0.005643 0.024029 0.012538
v -0.008173 0.024029 0.010847
v -0.011158 0.024029 0.010254
v -0.014143 0.024029 0.010847
v -0.016674 0.024029 0.012538
v -0.018365 0.024029 0.015069
v -0.018958 0.024029 0.018054
v -0.015931 0.029919 0.016077
v -0.016324 0.029919 0.018054
v -0.015931 0.029919 0.020031
v -0.014811 0.029919 0.021706
v -0.013135 0.029919 0.022826
v -0.011158 0.029919 0.023220
v -0.009181 0.029919 0.022826
v -0.007505 0.029919 0.021706
v -0.006385 0.029919 0.020031
v -0.005992 0.029919 0.018054
v -0.006385 0.029919 0.016077
v -0.007505 0.029919 0.014401
v -0.009181 0.029919 0.013281
v -0.011158 0.029919 0.012888
v -0.013135 0.029919 0.013281
v -0.014811 0.029919 0.014401
v -0.015123 0.030002 0.014089
v -0.016339 0.030002 0.015908
v -0.013304 0.030002 0.012873
v -0.011158 0.030002 0.012446
v -0.009012 0.030002 0.012873
v -0.007193 0.030002 0.014089
v -0.005977 0.030002 0.015908
v -0.005551 0.030002 0.018054
v -0.005977 0.030002 0.020200
v -0.007193 0.030002 0.022019
v -0.009012 0.030002 0.023234
v -0.011158 0.030002 0.023661
v -0.013304 0.030002 0.023234
v -0.015123 0.030002 0.022019
v -0.016339 0.030002 0.020200
v -0.016765 0.030002 0.018054
v -0.013448 0.030216 0.012526
v -0.015389 0.030216 0.013823
v -0.016686 0.030216 0.015764
v -0.017141 0.030216 0.018054
v -0.016686 0.030216 0.020343
v -0.015389 0.030216 0.022284
v -0.013448 0.030216 0.023581
v -0.011158 0.030216 0.024037
v -0.008868 0.030216 0.023581
v -0.006927 0.030216 0.022284
v -0.005630 0.030216 0.020343
v -0.005175 0.030216 0.018054
v -0.005630 0.030216 0.015764
v -0.006927 0.030216 0.013823
v -0.008868 0.030216 0.012526
v -0.011158 0.030216 0.012070
v -0.011158 0.030822 0.011447
v -0.013686 0.030822 0.011950
v -0.008630 0.030822 0.011950
v -0.006486 0.030822 0.013382
v -0.005054 0.030822 0.015525
v -0.004551 0.030822 0.018054
v -0.005054 0.030822 0.020582
v -0.006486 0.030822 0.022726
v -0.008630 0.030822 0.024158
v -0.011158 0.030822 0.024661
v -0.013686 0.030822 0.024158
v -0.015830 0.030822 0.022726
v -0.017262 0.030822 0.020582
v -0.017765 0.030822 0.018054
v -0.017262 0.030822 0.015525
v -0.015830 0.030822 0.013382
v -0.008536 0.031721 0.011725
v -0.011158 0.031721 0.011203
v -0.013780 0.031721 0.011725
v -0.016002 0.031721 0.013210
v -0.017487 0.031721 0.015432
v -0.018008 0.031721 0.018054
v -0.017487 0.031721 0.020675
v -0.016002 0.031721 0.022898
v -0.013780 0.031721 0.024383
v -0.011158 0.031721 0.024904
v -0.008536 0.031721 0.024383
v -0.006314 0.031721 0.022898
v -0.004829 0.031721 0.020675
v -0.004308 0.031721 0.018054
v -0.004829 0.031721 0.015432
v -0.006314 0.031721 0.013210
v -0.007283 0.027433 0.020687
v -0.007283 0.027433 0.020687
v -0.004664 0.024029 0.022462
v -0.007270 0.029919 0.020667
v -0.007270 0.029919 0.020667
v -0.006832 0.029919 0.020936
v -0.006455 0.030002 0.021171
v -0.006136 0.030216 0.021375
v -0.006659 0.033340 0.021061
v -0.005701 0.032616 0.021645
v -0.005595 0.030822 0.021693
v -0.005386 0.031721 0.021821
v -0.008535 0.027433 0.021935
v -0.008535 0.027433 0.021935
v -0.006804 0.024029 0.024583
v -0.008565 0.029919 0.021955
v -0.008565 0.029919 0.021955
v -0.007357 0.031721 0.023804
v -0.008279 0.029919 0.022381
v -0.008032 0.030002 0.022750
v -0.007823 0.030216 0.023066
v -0.007482 0.030822 0.023592
v -0.007558 0.032616 0.023505
v -0.008193 0.033340 0.022581
v -0.010236 0.027433 0.022647
v -0.010236 0.027433 0.022647
v -0.009605 0.024029 0.025747
v -0.010246 0.029919 0.022649
v -0.010246 0.029919 0.022649
v -0.010104 0.033340 0.023362
v -0.009860 0.031721 0.024823
v -0.009917 0.032616 0.024467
v -0.010188 0.029919 0.023160
v -0.009956 0.030822 0.024593
v -0.010132 0.030002 0.023602
v -0.010073 0.030216 0.023976
v -0.012163 0.033340 0.023371
v -0.012405 0.032616 0.024466
v -0.012466 0.031721 0.024821
v -0.012430 0.030822 0.024579
v -0.012060 0.029919 0.022651
v -0.012060 0.029919 0.022651
v -0.012060 0.029919 0.022651
v -0.012316 0.030216 0.023962
v -0.006569 0.027433 0.018996
v -0.006569 0.027433 0.018996
v -0.012245 0.030002 0.023590
v -0.012086 0.027433 0.022646
v -0.012086 0.027433 0.022646
v -0.012725 0.024029 0.025744
v -0.004398 0.031721 0.019400
v -0.012152 0.029919 0.023156
v -0.012152 0.029919 0.023156
v -0.012152 0.029919 0.023156
v -0.014153 0.033340 0.022561
v -0.014793 0.032616 0.023482
v -0.014988 0.031721 0.023785
v -0.013731 0.029919 0.021969
v -0.013731 0.029919 0.021969
v -0.014020 0.029919 0.022393
v -0.014270 0.030002 0.022760
v -0.014485 0.030216 0.023071
v -0.014843 0.030822 0.023587
v -0.013740 0.027433 0.021963
v -0.013740 0.027433 0.021963
v -0.015463 0.024029 0.024616
v -0.015662 0.033340 0.021054
v -0.016598 0.032616 0.021670
v -0.016892 0.031721 0.021879
v -0.015046 0.029919 0.020668
v -0.015046 0.029919 0.020668
v -0.015046 0.029919 0.020668
v -0.015473 0.029919 0.020953
v -0.015473 0.029919 0.020953
v -0.015842 0.030002 0.021199
v -0.016158 0.030216 0.021407
v -0.016683 0.030822 0.021751
v -0.015055 0.027433 0.020655
v -0.015055 0.027433 0.020655
v -0.003459 0.024029 0.019579
v -0.017702 0.024029 0.022387
v -0.016476 0.033340 0.019055
v -0.017569 0.032616 0.019312
v -0.017916 0.031721 0.019411
v -0.017677 0.030822 0.019359
v -0.017063 0.030216 0.019229
v -0.015756 0.029919 0.018953
v -0.015756 0.029919 0.018953
v -0.016258 0.029919 0.019059
v -0.016693 0.030002 0.019151
v -0.015752 0.027433 0.018974
v -0.015752 0.027433 0.018974
v -0.018867 0.024029 0.019526
v -0.016466 0.033340 0.016999
v -0.017560 0.032616 0.016753
v -0.017916 0.031721 0.016698
v -0.015752 0.029919 0.017136
v -0.015752 0.029919 0.017136
v -0.017063 0.030216 0.016882
v -0.016128 0.029919 0.017066
v -0.016692 0.030002 0.016956
v -0.017678 0.030822 0.016757
v -0.015749 0.027433 0.017119
v -0.015749 0.027433 0.017119
v -0.006055 0.029919 0.019044
v -0.005248 0.030216 0.019202
v -0.018860 0.024029 0.016546
v -0.015675 0.033340 0.015073
v -0.016586 0.032616 0.014418
v -0.016860 0.031721 0.014179
v -0.015104 0.029919 0.015526
v -0.015104 0.029919 0.015526
v -0.015507 0.029919 0.015206
v -0.016657 0.030822 0.014318
v -0.015858 0.030002 0.014931
v -0.016157 0.030216 0.014699
v -0.015065 0.027433 0.015468
v -0.015065 0.027433 0.015468
v -0.017662 0.024029 0.013659
v -0.014157 0.033340 0.013549
v -0.014758 0.032616 0.012602
v -0.014958 0.031721 0.012302
v -0.014829 0.030822 0.012511
v -0.013786 0.029919 0.014175
v -0.013786 0.029919 0.014175
v -0.014059 0.029919 0.013741
v -0.014296 0.030002 0.013364
v -0.014497 0.030216 0.013043
v -0.013765 0.027433 0.014161
v -0.013765 0.027433 0.014161
v -0.015515 0.024029 0.011526
v -0.012169 0.033340 0.012737
v -0.012401 0.032616 0.011640
v -0.012496 0.031721 0.011292
v -0.012201 0.029919 0.012961
v -0.012288 0.030002 0.012526
v -0.012359 0.030216 0.012154
v -0.012469 0.030822 0.011536
v -0.012096 0.029919 0.013463
v -0.012096 0.029919 0.013463
v -0.012112 0.027433 0.013467
v -0.012112 0.027433 0.013467
v -0.012761 0.024029 0.010370
v -0.010120 0.033340 0.012742
v -0.009875 0.032616 0.011648
v -0.009795 0.031721 0.011297
v -0.009847 0.030822 0.011536
v -0.010234 0.029919 0.013461
v -0.010234 0.029919 0.013461
v -0.010234 0.029919 0.013461
v -0.009972 0.030216 0.012151
v -0.010134 0.029919 0.012957
v -0.010047 0.030002 0.012522
v -0.010227 0.027433 0.013462
v -0.010227 0.027433 0.013462
v -0.010227 0.027433 0.013462
v -0.010227 0.027433 0.013462
v -0.009572 0.024029 0.010367
v -0.009572 0.024029 0.010367
v -0.008561 0.029919 0.014154
v -0.008561 0.029919 0.014154
v -0.008128 0.033340 0.013570
v -0.007503 0.032616 0.012639
v -0.005619 0.030002 0.019127
v -0.008022 0.030002 0.013363
v -0.007808 0.030216 0.013051
v -0.007451 0.030822 0.012535
v -0.007306 0.031721 0.012337
v -0.008556 0.027433 0.014158
v -0.008556 0.027433 0.014158
v -0.006858 0.024029 0.011487
v -0.008262 0.029919 0.013737
v -0.004634 0.030822 0.019333
v -0.006644 0.033340 0.015069
v -0.007278 0.029919 0.015428
v -0.007278 0.029919 0.015428
v -0.005746 0.032616 0.014395
v -0.005466 0.031721 0.014165
v -0.006863 0.029919 0.015126
v -0.006502 0.030002 0.014866
v -0.006193 0.030216 0.014648
v -0.005677 0.030822 0.014291
v -0.007283 0.027433 0.015420
v -0.007283 0.027433 0.015420
v -0.004676 0.024029 0.013628
v -0.005847 0.033340 0.017015
v -0.004402 0.031721 0.016688
v -0.004752 0.032616 0.016773
v -0.004642 0.030822 0.016737
v -0.006563 0.029919 0.017142
v -0.006563 0.029919 0.017142
v -0.006061 0.029919 0.017035
v -0.005626 0.030002 0.016944
v -0.005256 0.030216 0.016868
v -0.006559 0.027433 0.017161
v -0.006559 0.027433 0.017161
v -0.003460 0.024029 0.016526
v -0.005862 0.033340 0.019166
v -0.006559 0.029919 0.018949
v -0.006559 0.029919 0.018949
v -0.004756 0.032616 0.019355
vt 0.789966 0.343331
vt 0.789966 0.343331
vt 0.790612 0.331275
vt 0.807748 0.233797
vt 0.780255 0.342077
vt 0.780255 0.342077
vt 0.782854 0.330122
vt 0.823268 0.242157
vt 0.770892 0.339079
vt 0.770892 0.339079
vt 0.775297 0.328184
vt 0.834295 0.255907
vt 0.762098 0.334652
vt 0.762098 0.334652
vt 0.768412 0.324497
vt 0.839166 0.272819
vt 0.754197 0.328795
vt 0.754197 0.328795
vt 0.762163 0.319764
vt 0.837295 0.290295
vt 0.747345 0.321738
vt 0.747345 0.321738
vt 0.828935 0.305771
vt 0.756853 0.313984
vt 0.741833 0.313593
vt 0.741833 0.313593
vt 0.815162 0.316735
vt 0.752243 0.307636
vt 0.737764 0.304634
vt 0.737764 0.304634
vt 0.798275 0.321673
vt 0.748772 0.300648
vt 0.735168 0.295150
vt 0.735168 0.295150
vt 0.780760 0.319736
vt 0.746957 0.293060
vt 0.734254 0.285393
vt 0.734254 0.285393
vt 0.765337 0.311221
vt 0.746336 0.285260
vt 0.734952 0.275673
vt 0.734952 0.275673
vt 0.754350 0.297415
vt 0.747150 0.277443
vt 0.737345 0.266343
vt 0.737345 0.266343
vt 0.749463 0.280347
vt 0.748909 0.269678
vt 0.741056 0.257741
vt 0.741056 0.257741
vt 0.752244 0.262085
vt 0.752244 0.262085
vt 0.817836 0.337679
vt 0.817836 0.337679
vt 0.814129 0.326311
vt 0.759497 0.248483
vt 0.809113 0.341025
vt 0.809113 0.341025
vt 0.806315 0.329344
vt 0.773297 0.237054
vt 0.799702 0.342987
vt 0.799702 0.342987
vt 0.798481 0.330966
vt 0.790224 0.231892
vt 0.774657 0.287097
vt 0.773119 0.259066
vt 0.781446 0.252198
vt 0.791834 0.249139
vt 0.802631 0.250308
vt 0.812109 0.255509
vt 0.818973 0.263944
vt 0.822004 0.274352
vt 0.820843 0.285133
vt 0.815635 0.294652
vt 0.807171 0.301420
vt 0.796782 0.304478
vt 0.785993 0.303295
vt 0.776461 0.298110
vt 0.769751 0.289615
vt 0.767971 0.268524
vt 0.766701 0.279236
vt 0.780066 0.293854
vt 0.787669 0.298015
vt 0.796295 0.298955
vt 0.804626 0.296523
vt 0.811393 0.291093
vt 0.815557 0.283479
vt 0.816488 0.274848
vt 0.814043 0.266518
vt 0.808585 0.259762
vt 0.800977 0.255601
vt 0.792359 0.254674
vt 0.784061 0.257123
vt 0.777355 0.262577
vt 0.773211 0.270183
vt 0.772245 0.278786
vt 0.750140 0.354076
vt 0.762347 0.360268
vt 0.739137 0.345954
vt 0.729654 0.336100
vt 0.721957 0.324790
vt 0.716246 0.312343
vt 0.712690 0.299085
vt 0.711415 0.285358
vt 0.712511 0.271505
vt 0.716109 0.257877
vt 0.722501 0.244936
vt 0.829933 0.356685
vt 0.816760 0.362567
vt 0.803001 0.365619
vt 0.789115 0.366177
vt 0.775448 0.364356
vt 0.807045 0.235997
vt 0.821798 0.243931
vt 0.832204 0.256980
vt 0.836930 0.273005
vt 0.835152 0.289609
vt 0.827140 0.304262
vt 0.814123 0.314748
vt 0.798063 0.319432
vt 0.781437 0.317596
vt 0.766792 0.309505
vt 0.756350 0.296399
vt 0.751812 0.280232
vt 0.754055 0.263562
vt 0.761293 0.249758
vt 0.774341 0.239042
vt 0.790389 0.234223
vt 0.790566 0.236167
vt 0.806456 0.237863
vt 0.775244 0.240720
vt 0.762836 0.250865
vt 0.755732 0.264396
vt 0.753699 0.280127
vt 0.758044 0.295545
vt 0.768026 0.308052
vt 0.782015 0.315787
vt 0.797898 0.317532
vt 0.813243 0.313065
vt 0.825692 0.303056
vt 0.833332 0.289036
vt 0.835035 0.273169
vt 0.830524 0.257864
vt 0.820562 0.245423
vt 0.776104 0.242302
vt 0.790755 0.237996
vt 0.805940 0.239559
vt 0.819384 0.246798
vt 0.828933 0.258697
vt 0.833245 0.273327
vt 0.831618 0.288496
vt 0.824268 0.301872
vt 0.812409 0.311483
vt 0.797742 0.315739
vt 0.782562 0.314083
vt 0.769194 0.306678
vt 0.759638 0.294743
vt 0.755493 0.280025
vt 0.757368 0.265045
vt 0.764275 0.251938
vt 0.766974 0.254053
vt 0.777750 0.245347
vt 0.760590 0.266143
vt 0.758944 0.279816
vt 0.762687 0.293211
vt 0.771436 0.304040
vt 0.783612 0.310820
vt 0.797442 0.312296
vt 0.810819 0.308456
vt 0.821627 0.299666
vt 0.828319 0.287474
vt 0.829806 0.273638
vt 0.825871 0.260305
vt 0.817099 0.249560
vt 0.804922 0.242817
vt 0.791095 0.241404
vt 0.764102 0.267288
vt 0.769984 0.256472
vt 0.779526 0.248644
vt 0.791474 0.245119
vt 0.803837 0.246379
vt 0.814729 0.252382
vt 0.822541 0.262040
vt 0.826088 0.273978
vt 0.824755 0.286356
vt 0.818772 0.297278
vt 0.809040 0.305029
vt 0.797122 0.308576
vt 0.784786 0.307125
vt 0.773863 0.301197
vt 0.766122 0.291458
vt 0.762678 0.279562
vt 0.736312 0.300134
vt 0.736312 0.300134
vt 0.713980 0.306117
vt 0.789534 0.321692
vt 0.747744 0.296949
vt 0.789633 0.319306
vt 0.789747 0.317377
vt 0.789902 0.315605
vt 0.791924 0.299044
vt 0.791154 0.304412
vt 0.790123 0.312032
vt 0.790539 0.308238
vt 0.739552 0.309082
vt 0.739552 0.309082
vt 0.718592 0.318836
vt 0.807080 0.320113
vt 0.750399 0.304240
vt 0.803352 0.307137
vt 0.806391 0.317833
vt 0.805840 0.315983
vt 0.805349 0.314273
vt 0.804384 0.310824
vt 0.802280 0.303469
vt 0.800812 0.298223
vt 0.744408 0.317734
vt 0.744408 0.317734
vt 0.725273 0.330690
vt 0.822557 0.311936
vt 0.754398 0.310923
vt 0.808371 0.294245
vt 0.814379 0.301393
vt 0.811909 0.298426
vt 0.821393 0.309937
vt 0.816927 0.304076
vt 0.820319 0.308295
vt 0.819235 0.306858
vt 0.813865 0.287747
vt 0.818689 0.290277
vt 0.822016 0.292154
vt 0.825388 0.293950
vt 0.759331 0.316969
vt 0.833882 0.298552
vt 0.833882 0.298552
vt 0.828554 0.295651
vt 0.734522 0.290439
vt 0.734522 0.290439
vt 0.830070 0.296467
vt 0.750688 0.325449
vt 0.750688 0.325449
vt 0.734093 0.341543
vt 0.779076 0.304622
vt 0.831766 0.297421
vt 0.831766 0.297421
vt 0.831766 0.297421
vt 0.816576 0.279279
vt 0.821999 0.279779
vt 0.825792 0.280211
vt 0.765068 0.322165
vt 0.839166 0.281955
vt 0.836803 0.281643
vt 0.834889 0.281380
vt 0.833125 0.281138
vt 0.829578 0.280675
vt 0.757923 0.331804
vt 0.757923 0.331804
vt 0.744057 0.350301
vt 0.815797 0.270496
vt 0.821017 0.268929
vt 0.824683 0.267882
vt 0.771747 0.326439
vt 0.837590 0.264219
vt 0.837590 0.264219
vt 0.835388 0.264842
vt 0.835388 0.264842
vt 0.833530 0.265392
vt 0.831809 0.265875
vt 0.828356 0.266845
vt 0.766411 0.337057
vt 0.766411 0.337057
vt 0.711477 0.292258
vt 0.756108 0.357749
vt 0.811605 0.262609
vt 0.815902 0.259314
vt 0.819016 0.257013
vt 0.821963 0.254604
vt 0.824719 0.252296
vt 0.779087 0.329324
vt 0.829417 0.248357
vt 0.827579 0.249899
vt 0.826093 0.251152
vt 0.775484 0.340761
vt 0.775484 0.340761
vt 0.768974 0.362939
vt 0.805054 0.257187
vt 0.807557 0.252319
vt 0.809456 0.248975
vt 0.786723 0.330893
vt 0.815775 0.237341
vt 0.813039 0.242589
vt 0.815013 0.238834
vt 0.813879 0.240970
vt 0.811351 0.245603
vt 0.785200 0.342910
vt 0.785200 0.342910
vt 0.773570 0.314145
vt 0.775387 0.310898
vt 0.782091 0.365821
vt 0.796856 0.254592
vt 0.797279 0.249182
vt 0.797424 0.245303
vt 0.794158 0.331306
vt 0.799856 0.232156
vt 0.799223 0.234401
vt 0.797808 0.241511
vt 0.798741 0.236244
vt 0.798373 0.237952
vt 0.794742 0.343372
vt 0.794742 0.343372
vt 0.796250 0.366464
vt 0.788010 0.255368
vt 0.786332 0.250180
vt 0.785222 0.246546
vt 0.784140 0.242896
vt 0.802277 0.330335
vt 0.781732 0.233495
vt 0.782287 0.235826
vt 0.782747 0.237714
vt 0.783188 0.239445
vt 0.804444 0.342220
vt 0.804444 0.342220
vt 0.810002 0.364659
vt 0.780210 0.259530
vt 0.776788 0.255292
vt 0.774395 0.252187
vt 0.767500 0.243608
vt 0.768746 0.245086
vt 0.769878 0.246467
vt 0.772134 0.249279
vt 0.810069 0.327955
vt 0.765944 0.241805
vt 0.813406 0.339632
vt 0.813406 0.339632
vt 0.823257 0.360342
vt 0.774831 0.266049
vt 0.770027 0.263555
vt 0.766670 0.261777
vt 0.763338 0.259962
vt 0.754368 0.256638
vt 0.754368 0.256638
vt 0.818239 0.324773
vt 0.760184 0.258348
vt 0.756785 0.256974
vt 0.758584 0.257622
vt 0.743290 0.253925
vt 0.821885 0.335490
vt 0.743290 0.253925
vt 0.821885 0.335490
vt 0.726691 0.239082
vt 0.836366 0.352369
vt 0.749768 0.271245
vt 0.750488 0.265884
vt 0.772159 0.274541
vt 0.766764 0.273941
vt 0.774502 0.312450
vt 0.753932 0.272111
vt 0.755681 0.272438
vt 0.759221 0.272983
vt 0.762991 0.273486
vt 0.739002 0.261909
vt 0.739002 0.261909
vt 0.718890 0.250856
vt 0.752001 0.271816
vt 0.777193 0.307783
vt 0.772939 0.283204
vt 0.750937 0.288962
vt 0.747873 0.273419
vt 0.767631 0.284455
vt 0.763812 0.285323
vt 0.753205 0.288193
vt 0.755050 0.287609
vt 0.756765 0.287115
vt 0.760242 0.286186
vt 0.736000 0.270757
vt 0.736000 0.270757
vt 0.713835 0.264215
vt 0.776967 0.290886
vt 0.769604 0.296499
vt 0.772637 0.294192
vt 0.766594 0.298853
vt 0.759099 0.304957
vt 0.746547 0.281351
vt 0.760931 0.303434
vt 0.762424 0.302214
vt 0.763813 0.301105
vt 0.734400 0.280621
vt 0.734400 0.280621
vt 0.711386 0.278417
vt 0.783804 0.296544
vt 0.772447 0.316249
vt 0.746469 0.289095
vt 0.781074 0.301261
vn -0.923975 0.000350 -0.382452
vn -0.677380 0.678147 -0.285084
vn -0.926856 -0.001464 -0.375414
vn 0.000000 -1.000000 0.000002
vn -0.999998 -0.000438 -0.001888
vn -0.734268 0.678852 -0.003413
vn -0.999997 -0.000339 -0.002400
vn 0.000000 -1.000000 0.000000
vn -0.923509 0.000316 0.383576
vn -0.680443 0.678170 0.277638
vn -0.923579 0.000430 0.383409
vn 0.000000 -1.000000 -0.000001
vn -0.705304 0.000219 0.708905
vn -0.520805 0.678435 0.518158
vn -0.703763 -0.000321 0.710435
vn 0.000000 -1.000000 -0.000002
vn -0.380959 0.000531 0.924592
vn -0.282552 0.678709 0.677878
vn -0.378136 -0.000235 0.925750
vn 0.000000 -1.000000 0.000001
vn -0.003842 0.678486 0.734604
vn -0.000544 -0.000202 1.000000
vn 0.000000 -1.000000 -0.000002
vn 0.000669 -0.000520 1.000000
vn 0.280793 0.678597 0.678720
vn 0.385100 -0.000735 0.922874
vn 0.000000 -1.000000 0.000001
vn 0.381989 0.000203 0.924167
vn 0.516231 0.678297 0.522895
vn 0.706679 0.000509 0.707534
vn 0.000000 -1.000000 -0.000001
vn 0.706229 0.000732 0.707983
vn 0.675330 0.678585 0.288881
vn 0.921602 0.000953 0.388135
vn 0.000000 -1.000000 0.000001
vn 0.923852 -0.000474 0.382750
vn 0.734287 0.678809 0.006319
vn 0.999988 0.000391 0.004885
vn 0.000000 -1.000000 0.000000
vn 0.999999 -0.000979 -0.000417
vn 0.679089 0.678733 -0.279570
vn 0.923527 -0.000173 -0.383534
vn 0.000000 -1.000000 0.000001
vn 0.923087 -0.000381 -0.384592
vn 0.518955 0.678686 -0.519684
vn 0.704149 0.000119 -0.710052
vn 0.000000 -1.000000 0.000000
vn 0.704372 0.000187 -0.709831
vn 0.283939 0.678964 -0.677042
vn 0.384025 0.000152 -0.923323
vn 0.000000 -1.000000 0.000001
vn 0.383026 -0.000119 -0.923737
vn -0.001917 -0.000316 -0.999998
vn 0.001969 0.678405 -0.734685
vn -0.000898 -0.000147 -1.000000
vn 0.000000 -1.000000 0.000000
vn -0.387920 0.000510 -0.921693
vn -0.282103 0.678576 -0.678198
vn -0.388465 0.000342 -0.921463
vn 0.000000 -1.000000 -0.000002
vn -0.710318 0.001331 -0.703880
vn -0.518538 0.678513 -0.520326
vn -0.715405 -0.000525 -0.698709
vn 0.000000 -1.000000 -0.000001
vn 0.100417 0.994106 -0.040854
vn 0.004011 0.659723 -0.751499
vn -0.282720 0.661977 -0.694158
vn -0.528149 0.661266 -0.532716
vn -0.692919 0.659557 -0.291286
vn -0.751484 0.659740 -0.003814
vn -0.693721 0.661575 0.284727
vn -0.532021 0.661148 0.528996
vn -0.286818 0.661050 0.693360
vn -0.001105 0.661703 0.749766
vn 0.282346 0.659553 0.696614
vn 0.531141 0.658884 0.532692
vn 0.693463 0.660752 0.287256
vn 0.750902 0.660410 0.002211
vn 0.694519 0.659116 -0.288459
vn 0.290036 0.661151 -0.691924
vn 0.530307 0.661888 -0.529791
vn 0.215365 0.976532 0.001884
vn 0.467156 0.861919 0.197130
vn 0.182865 0.965485 0.185468
vn 0.045750 0.992489 0.113458
vn 0.000032 0.996714 0.081001
vn -0.025486 0.997607 0.064276
vn -0.053581 0.997143 0.053241
vn -0.100369 0.994115 0.040767
vn -0.218106 0.975923 -0.002105
vn -0.468143 0.861885 -0.194924
vn -0.188544 0.963620 -0.189443
vn -0.045621 0.992598 -0.112553
vn 0.000563 0.996798 -0.079964
vn 0.026656 0.997620 -0.063584
vn 0.053370 0.997178 -0.052789
vn -0.519347 0.678497 0.519540
vn -0.680565 0.678685 0.276075
vn -0.280748 0.678609 0.678727
vn -0.002007 0.678529 0.734571
vn 0.280713 0.678754 0.678596
vn 0.516395 0.678566 0.522383
vn 0.677361 0.678340 0.284671
vn 0.734705 0.678386 0.001276
vn 0.677899 0.678507 -0.282986
vn 0.515717 0.678289 -0.523412
vn 0.281092 0.678661 -0.678533
vn 0.000621 0.678538 -0.734565
vn -0.283160 0.678604 -0.677729
vn -0.516969 0.678898 -0.521383
vn -0.678032 0.678329 -0.283094
vn -0.734307 0.678812 -0.002546
vn -0.090037 -0.995346 -0.034341
vn -0.098666 -0.995099 -0.006495
vn -0.086552 -0.995593 0.036104
vn -0.065916 -0.995593 0.066712
vn -0.035295 -0.995596 0.086845
vn -0.000228 -0.995676 0.092898
vn 0.035951 -0.995510 0.087565
vn 0.066731 -0.995560 0.066383
vn 0.086641 -0.995612 0.035352
vn 0.093789 -0.995592 -0.000479
vn 0.086641 -0.995563 -0.036707
vn 0.065605 -0.995630 -0.066464
vn 0.035985 -0.995565 -0.086923
vn -0.000363 -0.995574 -0.093981
vn -0.036234 -0.995628 -0.086094
vn -0.066516 -0.995616 -0.065761
vn -0.248672 -0.936406 -0.247602
vn -0.326251 -0.935792 -0.133616
vn -0.135542 -0.936448 -0.323564
vn -0.001137 -0.936220 -0.351412
vn 0.134175 -0.936344 -0.324433
vn 0.246076 -0.936573 -0.249555
vn 0.323899 -0.936080 -0.137275
vn 0.351377 -0.936232 -0.001811
vn 0.324981 -0.936393 0.132498
vn 0.249452 -0.936107 0.247944
vn 0.133157 -0.935839 0.326306
vn -0.001593 -0.936484 0.350708
vn -0.132712 -0.936151 0.325591
vn -0.247125 -0.936307 0.249518
vn -0.324235 -0.936274 0.135137
vn -0.344022 -0.938957 -0.002823
vn -0.246357 -0.768997 -0.589874
vn -0.451341 -0.769299 -0.452184
vn -0.591767 -0.768287 -0.244024
vn -0.639522 -0.768771 0.001750
vn -0.590179 -0.768809 0.246215
vn -0.450130 -0.768944 0.453991
vn -0.241568 -0.768512 0.592482
vn -0.002937 -0.769026 0.639211
vn 0.241065 -0.768528 0.592666
vn 0.454898 -0.768129 0.450606
vn 0.592187 -0.768901 0.241049
vn 0.639541 -0.768748 -0.003560
vn 0.588948 -0.768470 -0.250189
vn 0.448557 -0.769234 -0.455056
vn 0.244514 -0.768690 -0.591040
vn -0.001781 -0.768930 -0.639331
vn -0.000568 -0.490216 -0.871601
vn -0.333872 -0.489605 -0.805492
vn 0.334573 -0.489330 -0.805368
vn 0.612530 -0.490501 -0.619851
vn 0.802525 -0.490116 -0.340205
vn 0.872210 -0.489118 -0.003681
vn 0.806578 -0.491733 0.328072
vn 0.619882 -0.488630 0.613993
vn 0.327433 -0.489791 0.808017
vn -0.002701 -0.488165 0.872747
vn -0.330314 -0.488626 0.807550
vn -0.615248 -0.489674 0.617810
vn -0.804694 -0.490155 0.334986
vn -0.872209 -0.489131 0.001773
vn -0.805511 -0.488344 -0.335668
vn -0.614080 -0.488896 -0.619586
vn 0.384657 0.062903 -0.920914
vn 0.002451 0.061023 -0.998133
vn -0.379343 0.063141 -0.923099
vn -0.701763 0.064931 -0.709445
vn -0.920203 0.061531 -0.386576
vn -0.998141 0.060941 -0.000329
vn -0.922114 0.061515 0.381997
vn -0.706110 0.062340 0.705353
vn -0.379606 0.061959 0.923071
vn -0.000910 0.062265 0.998059
vn 0.375385 0.059449 0.924961
vn 0.707440 0.061404 0.704101
vn 0.923918 0.060284 0.377811
vn 0.998068 0.062116 -0.001400
vn 0.920064 0.060339 -0.387093
vn 0.703373 0.062563 -0.708062
vn 0.605639 0.680900 0.411797
vn 0.830844 0.000494 0.556505
vn 0.607415 0.680826 0.409296
vn 0.000000 -1.000000 0.000000
vn 0.831698 -0.000484 0.555228
vn 0.080557 -0.995306 0.053638
vn 0.296065 -0.934730 0.196531
vn 0.532646 -0.768511 0.354512
vn 0.333955 0.914728 0.227480
vn 0.625957 0.656235 0.421346
vn 0.727947 -0.486495 0.483131
vn 0.830536 0.062685 0.553426
vn 0.402591 0.680561 0.612174
vn 0.556756 -0.000708 0.830676
vn 0.404435 0.681047 0.610416
vn 0.000000 -1.000000 -0.000002
vn 0.554711 0.000718 0.832043
vn 0.553891 0.061224 0.830335
vn 0.054159 -0.995293 0.080367
vn 0.198498 -0.934751 0.294683
vn 0.357794 -0.768478 0.530495
vn 0.487295 -0.486804 0.724959
vn 0.417158 0.656701 0.628269
vn 0.097550 0.984117 0.148316
vn 0.136892 0.680835 0.719530
vn 0.195490 -0.000203 0.980706
vn 0.140563 0.680777 0.718878
vn 0.000000 -1.000000 -0.000003
vn 0.194696 0.000202 0.980864
vn 0.018949 0.995048 0.097568
vn 0.196090 0.061786 0.978637
vn 0.144557 0.656707 0.740161
vn 0.019785 -0.995265 0.095161
vn 0.169811 -0.488402 0.855936
vn 0.070647 -0.934676 0.348411
vn 0.126992 -0.768431 0.627205
vn -0.015089 0.997142 0.074024
vn -0.150371 0.656563 0.739130
vn -0.194122 0.062250 0.979000
vn -0.168715 -0.487119 0.856884
vn -0.194211 -0.000538 0.980960
vn 0.000000 -1.000000 -0.000001
vn 0.000000 -1.000000 -0.000006
vn -0.122617 -0.768546 0.627935
vn 0.716893 0.681066 0.149043
vn 0.980512 0.001002 0.196459
vn -0.068328 -0.934847 0.348415
vn -0.195890 0.000535 0.980626
vn -0.148436 0.680747 0.717322
vn -0.145670 0.680878 0.717764
vn 0.978923 0.061666 0.194699
vn -0.031102 -0.995192 0.092877
vn -0.012032 -0.982684 0.184900
vn 0.000000 -1.000000 -0.000001
vn -0.041451 0.997254 0.061375
vn -0.421652 0.656523 0.625449
vn -0.555020 0.061518 0.829559
vn -0.555391 -0.000225 0.831590
vn 0.000000 -1.000000 0.000000
vn -0.053436 -0.995291 0.080876
vn -0.196167 -0.934784 0.296136
vn -0.353110 -0.768469 0.533638
vn -0.483391 -0.487049 0.727404
vn -0.555974 0.000220 0.831200
vn -0.412366 0.680921 0.605228
vn -0.408728 0.680702 0.607936
vn -0.075734 0.995874 0.049993
vn -0.628963 0.656422 0.416551
vn -0.830065 0.061718 0.554241
vn -0.830961 -0.000321 0.556330
vn 0.000000 -1.000000 0.000002
vn 0.000000 -1.000000 -0.000001
vn -0.087420 -0.995223 0.043471
vn -0.073525 -0.995205 0.064510
vn -0.294635 -0.934769 0.198486
vn -0.530509 -0.768486 0.357757
vn -0.725033 -0.486868 0.487121
vn -0.831626 0.000320 0.555336
vn -0.612028 0.680680 0.402612
vn 0.718225 0.680571 0.144828
vn -0.610510 0.680983 0.404400
vn -0.140830 0.989673 0.026707
vn -0.740708 0.656153 0.144273
vn -0.978660 0.062449 0.195769
vn -0.856212 -0.487015 0.172386
vn -0.627118 -0.768503 0.126990
vn -0.980974 0.000425 0.194140
vn 0.000000 -1.000000 -0.000002
vn -0.094942 -0.995298 0.019164
vn -0.348269 -0.934762 0.070212
vn -0.980695 -0.000435 0.195542
vn -0.719715 0.680438 0.137894
vn -0.718790 0.681110 0.139390
vn -0.310080 0.948612 -0.063127
vn -0.739414 0.656121 -0.150908
vn -0.978918 0.061652 -0.194725
vn -0.980924 -0.000341 -0.194390
vn 0.000000 -1.000000 -0.000001
vn -0.628056 -0.768526 -0.122124
vn -0.087610 -0.996073 -0.012750
vn -0.315258 -0.947235 -0.057955
vn -0.857227 -0.486758 -0.168013
vn -0.980718 0.000347 -0.195426
vn -0.716862 0.681073 -0.149160
vn 0.095138 -0.995292 0.018522
vn 0.628115 -0.768510 0.121923
vn -0.718264 0.680546 -0.144756
vn -0.328474 0.918228 -0.221274
vn -0.625675 0.657471 -0.419837
vn -0.828672 0.060706 -0.556432
vn -0.832583 -0.001445 -0.553898
vn 0.000000 -1.000000 0.000000
vn -0.081047 -0.995302 -0.052972
vn -0.726549 -0.487403 -0.484319
vn -0.296430 -0.934760 -0.195840
vn -0.534002 -0.768413 -0.352679
vn -0.830041 0.001479 -0.557701
vn -0.606356 0.680469 -0.411453
vn -0.607134 0.681147 -0.409179
vn -0.096246 0.984663 -0.145521
vn -0.416677 0.656454 -0.628847
vn -0.554049 0.061316 -0.830223
vn -0.486693 -0.487091 -0.725170
vn -0.556427 -0.000515 -0.830896
vn 0.000000 -1.000000 -0.000004
vn -0.054391 -0.995286 -0.080292
vn -0.198690 -0.934740 -0.294590
vn -0.357997 -0.768464 -0.530378
vn -0.555172 0.000511 -0.831735
vn -0.402204 0.680740 -0.612229
vn -0.404685 0.680892 -0.610423
vn -0.019123 0.994812 -0.099921
vn -0.143568 0.656145 -0.740852
vn -0.194521 0.061713 -0.978955
vn -0.019318 -0.995290 -0.095000
vn -0.070708 -0.934728 -0.348259
vn -0.127739 -0.768507 -0.626960
vn -0.173029 -0.486782 -0.856215
vn -0.194537 0.000325 -0.980895
vn 0.000000 -1.000000 0.000001
vn -0.195614 -0.000310 -0.980681
vn -0.136682 0.680799 -0.719604
vn -0.140725 0.680782 -0.718841
vn 0.015135 0.997127 -0.074222
vn 0.149694 0.656785 -0.739071
vn 0.195542 0.061362 -0.978774
vn 0.168312 -0.487045 -0.857005
vn 0.000000 -1.000000 0.000001
vn 0.194920 -0.000149 -0.980819
vn 0.194920 -0.000149 -0.980819
vn 0.122296 -0.768509 -0.628043
vn 0.018517 -0.995294 -0.095116
vn 0.068097 -0.934756 -0.348704
vn 0.148174 0.680683 -0.717436
vn 0.148174 0.680683 -0.717436
vn 0.195303 0.000149 -0.980743
vn 0.195303 0.000149 -0.980743
vn 0.146002 0.680941 -0.717637
vn 0.146002 0.680941 -0.717637
vn 0.000000 -1.000000 0.000001
vn 0.555620 -0.000120 -0.831436
vn 0.041483 0.997260 -0.061254
vn 0.421361 0.656535 -0.625633
vn 0.348902 -0.934696 0.067902
vn 0.196186 -0.934675 -0.296469
vn 0.353169 -0.768451 -0.533623
vn 0.483394 -0.487039 -0.727409
vn 0.554973 0.061467 -0.829595
vn 0.412617 0.681149 -0.604800
vn 0.555675 0.000117 -0.831400
vn 0.408543 0.680514 -0.608270
vn 0.053415 -0.995329 -0.080417
vn 0.857354 -0.486613 0.167784
vn 0.076611 0.995803 -0.050079
vn 0.000000 -1.000000 -0.000001
vn 0.831454 0.000178 -0.555594
vn 0.628944 0.656142 -0.417021
vn 0.829557 0.062100 -0.554959
vn 0.080488 -0.995291 -0.054011
vn 0.294832 -0.934716 -0.198446
vn 0.530685 -0.768478 -0.357513
vn 0.724881 -0.486476 -0.487739
vn 0.612430 0.680875 -0.401670
vn 0.831139 -0.000173 -0.556065
vn 0.610215 0.680774 -0.405198
vn 0.142883 0.989364 -0.027279
vn 0.978836 0.062054 -0.195010
vn 0.740430 0.656357 -0.144773
vn 0.856241 -0.486902 -0.172564
vn 0.000000 -1.000000 0.000001
vn 0.980692 -0.000389 -0.195559
vn 0.095013 -0.995291 -0.019197
vn 0.348314 -0.934734 -0.070355
vn 0.627109 -0.768524 -0.126903
vn 0.719476 0.680955 -0.136584
vn 0.980950 0.000386 -0.194259
vn 0.719000 0.680670 -0.140456
vn 0.307064 0.949553 0.063718
vn 0.000000 -1.000000 0.000001
vn 0.981142 -0.001004 0.193287
vn 0.739426 0.656288 0.150118
f 114/114/114 144/144/144 292/292/292
f 152/152/152 239/239/239 140/140/140
f 364/364/364 47/47/47 352/352/352
f 358/358/358 134/134/134 357/357/357
f 148/148/148 174/174/174 291/291/291
f 246/246/246 234/234/234 118/118/118
f 82/82/82 216/216/216 84/84/84
f 115/115/115 12/12/12 265/265/265
f 390/390/390 201/201/201 83/83/83
f 143/143/143 115/115/115 267/267/267
f 390/390/390 84/84/84 201/201/201
f 84/84/84 390/390/390 82/82/82
f 216/216/216 82/82/82 378/378/378
f 85/85/85 378/378/378 65/65/65
f 222/222/222 65/65/65 366/366/366
f 86/86/86 366/366/366 96/96/96
f 229/229/229 96/96/96 354/354/354
f 87/87/87 354/354/354 95/95/95
f 247/247/247 336/336/336 88/88/88
f 88/88/88 336/336/336 94/94/94
f 88/88/88 94/94/94 259/259/259
f 259/259/259 94/94/94 324/324/324
f 259/259/259 324/324/324 89/89/89
f 89/89/89 324/324/324 93/93/93
f 89/89/89 93/93/93 274/274/274
f 274/274/274 93/93/93 312/312/312
f 274/274/274 312/312/312 90/90/90
f 90/90/90 312/312/312 92/92/92
f 90/90/90 92/92/92 286/286/286
f 286/286/286 92/92/92 300/300/300
f 286/286/286 300/300/300 91/91/91
f 104/104/104 37/37/37 272/272/272
f 272/272/272 237/237/237 103/103/103
f 392/392/392 238/238/238 40/40/40
f 389/389/389 387/387/387 104/104/104
f 383/383/383 388/388/388 44/44/44
f 381/381/381 386/386/386 165/165/165
f 377/377/377 375/375/375 105/105/105
f 368/368/368 376/376/376 48/48/48
f 291/291/291 174/174/174 294/294/294
f 350/350/350 346/346/346 107/107/107
f 339/339/339 343/343/343 161/161/161
f 335/335/335 334/334/334 108/108/108
f 331/331/331 333/333/333 59/59/59
f 327/327/327 332/332/332 127/127/127
f 326/326/326 330/330/330 179/179/179
f 323/323/323 322/322/322 109/109/109
f 316/316/316 321/321/321 63/63/63
f 315/315/315 320/320/320 176/176/176
f 311/311/311 310/310/310 110/110/110
f 303/303/303 309/309/309 3/3/3
f 302/302/302 306/306/306 181/181/181
f 299/299/299 296/296/296 111/111/111
f 291/291/291 293/293/293 148/148/148
f 288/288/288 294/294/294 182/182/182
f 285/285/285 284/284/284 112/112/112
f 279/279/279 283/283/283 11/11/11
f 278/278/278 282/282/282 149/149/149
f 276/276/276 277/277/277 183/183/183
f 273/273/273 271/271/271 98/98/98
f 262/262/262 270/270/270 15/15/15
f 261/261/261 269/269/269 184/184/184
f 258/258/258 257/257/257 97/97/97
f 250/250/250 256/256/256 19/19/19
f 249/249/249 255/255/255 185/185/185
f 239/239/239 245/245/245 140/140/140
f 232/232/232 236/236/236 170/170/170
f 226/226/226 228/228/228 169/169/169
f 170/170/170 152/152/152 226/226/226
f 221/221/221 218/218/218 28/28/28
f 216/216/216 215/215/215 84/84/84
f 210/210/210 214/214/214 188/188/188
f 209/209/209 206/206/206 32/32/32
f 204/204/204 203/203/203 189/189/189
f 188/188/188 168/168/168 204/204/204
f 200/200/200 199/199/199 155/155/155
f 197/197/197 194/194/194 36/36/36
f 36/36/36 34/34/34 392/392/392
f 137/137/137 121/121/121 356/356/356
f 297/297/297 391/391/391 122/122/122
f 121/121/121 35/35/35 297/297/297
f 393/393/393 243/243/243 78/78/78
f 77/77/77 189/189/189 393/393/393
f 390/390/390 393/393/393 82/82/82
f 83/83/83 77/77/77 390/390/390
f 105/105/105 41/41/41 389/389/389
f 40/40/40 38/38/38 383/383/383
f 136/136/136 122/122/122 385/385/385
f 236/236/236 239/239/239 152/152/152
f 219/219/219 217/217/217 100/100/100
f 207/207/207 205/205/205 101/101/101
f 195/195/195 193/193/193 102/102/102
f 134/134/134 124/124/124 357/357/357
f 108/108/108 54/54/54 351/351/351
f 380/380/380 379/379/379 79/79/79
f 243/243/243 365/365/365 190/190/190
f 201/201/201 202/202/202 83/83/83
f 85/85/85 75/75/75 216/216/216
f 224/224/224 223/223/223 75/75/75
f 230/230/230 231/231/231 74/74/74
f 247/247/247 248/248/248 87/87/87
f 259/259/259 260/260/260 88/88/88
f 274/274/274 275/275/275 89/89/89
f 286/286/286 287/287/287 90/90/90
f 300/300/300 301/301/301 91/91/91
f 313/313/313 314/314/314 68/68/68
f 324/324/324 325/325/325 93/93/93
f 337/337/337 338/338/338 66/66/66
f 355/355/355 360/360/360 80/80/80
f 370/370/370 374/374/374 192/192/192
f 80/80/80 177/177/177 337/337/337
f 67/67/67 179/179/179 313/313/313
f 73/73/73 185/185/185 230/230/230
f 74/74/74 186/186/186 224/224/224
f 189/189/189 167/167/167 243/243/243
f 78/78/78 190/190/190 380/380/380
f 191/191/191 165/165/165 370/370/370
f 181/181/181 175/175/175 288/288/288
f 148/148/148 144/144/144 278/278/278
f 183/183/183 173/173/173 261/261/261
f 184/184/184 172/172/172 249/249/249
f 171/171/171 151/151/151 232/232/232
f 365/365/365 298/298/298 166/166/166
f 166/166/166 156/156/156 381/381/381
f 374/374/374 373/373/373 164/164/164
f 81/81/81 192/192/192 355/355/355
f 163/163/163 159/159/159 339/339/339
f 162/162/162 145/145/145 315/315/315
f 180/180/180 176/176/176 302/302/302
f 306/306/306 308/308/308 175/175/175
f 320/320/320 319/319/319 146/146/146
f 178/178/178 161/161/161 326/326/326
f 343/343/343 345/345/345 160/160/160
f 360/360/360 359/359/359 177/177/177
f 165/165/165 157/157/157 374/374/374
f 386/386/386 385/385/385 157/157/157
f 167/167/167 155/155/155 365/365/365
f 154/154/154 138/138/138 200/200/200
f 187/187/187 169/169/169 210/210/210
f 228/228/228 227/227/227 153/153/153
f 255/255/255 254/254/254 171/171/171
f 269/269/269 268/268/268 172/172/172
f 282/282/282 281/281/281 143/143/143
f 145/145/145 131/131/131 320/320/320
f 176/176/176 146/146/146 306/306/306
f 175/175/175 147/147/147 294/294/294
f 144/144/144 114/114/114 282/282/282
f 173/173/173 149/149/149 269/269/269
f 172/172/172 150/150/150 255/255/255
f 151/151/151 141/141/141 236/236/236
f 152/152/152 140/140/140 228/228/228
f 214/214/214 213/213/213 168/168/168
f 199/199/199 198/198/198 137/137/137
f 298/298/298 356/356/356 156/156/156
f 156/156/156 136/136/136 386/386/386
f 373/373/373 372/372/372 158/158/158
f 192/192/192 164/164/164 360/360/360
f 159/159/159 133/133/133 343/343/343
f 330/330/330 329/329/329 162/162/162
f 161/161/161 160/160/160 330/330/330
f 345/345/345 344/344/344 132/132/132
f 359/359/359 358/358/358 163/163/163
f 157/157/157 135/135/135 373/373/373
f 385/385/385 384/384/384 135/135/135
f 155/155/155 137/137/137 298/298/298
f 169/169/169 153/153/153 214/214/214
f 227/227/227 225/225/225 139/139/139
f 242/242/242 241/241/241 99/99/99
f 254/254/254 253/253/253 151/151/151
f 268/268/268 267/267/267 150/150/150
f 134/134/134 358/358/358 158/158/158
f 308/308/308 307/307/307 147/147/147
f 319/319/319 318/318/318 129/129/129
f 329/329/329 328/328/328 145/145/145
f 146/146/146 129/129/129 308/308/308
f 147/147/147 130/130/130 291/291/291
f 182/182/182 174/174/174 276/276/276
f 149/149/149 143/143/143 268/268/268
f 150/150/150 142/142/142 254/254/254
f 213/213/213 212/212/212 154/154/154
f 202/202/202 204/204/204 77/77/77
f 356/356/356 297/297/297 136/136/136
f 372/372/372 371/371/371 134/134/134
f 164/164/164 158/158/158 359/359/359
f 358/358/358 357/357/357 159/159/159
f 384/384/384 382/382/382 123/123/123
f 103/103/103 33/33/33 195/195/195
f 32/32/32 30/30/30 197/197/197
f 120/120/120 31/31/31 198/198/198
f 198/198/198 196/196/196 121/121/121
f 138/138/138 120/120/120 199/199/199
f 84/84/84 76/76/76 201/201/201
f 168/168/168 154/154/154 203/203/203
f 203/203/203 200/200/200 167/167/167
f 76/76/76 188/188/188 202/202/202
f 102/102/102 29/29/29 207/207/207
f 28/28/28 26/26/26 209/209/209
f 119/119/119 27/27/27 211/211/211
f 211/211/211 208/208/208 120/120/120
f 139/139/139 119/119/119 212/212/212
f 212/212/212 211/211/211 138/138/138
f 153/153/153 139/139/139 213/213/213
f 75/75/75 187/187/187 215/215/215
f 215/215/215 210/210/210 76/76/76
f 101/101/101 25/25/25 219/219/219
f 24/24/24 22/22/22 221/221/221
f 86/86/86 74/74/74 222/222/222
f 222/222/222 224/224/224 85/85/85
f 118/118/118 23/23/23 225/225/225
f 225/225/225 220/220/220 119/119/119
f 186/186/186 170/170/170 223/223/223
f 223/223/223 226/226/226 187/187/187
f 140/140/140 118/118/118 227/227/227
f 87/87/87 73/73/73 229/229/229
f 229/229/229 230/230/230 86/86/86
f 185/185/185 171/171/171 231/231/231
f 231/231/231 232/232/232 186/186/186
f 117/117/117 20/20/20 244/244/244
f 141/141/141 117/117/117 239/239/239
f 19/19/19 17/17/17 233/233/233
f 233/233/233 240/240/240 24/24/24
f 100/100/100 21/21/21 242/242/242
f 88/88/88 72/72/72 247/247/247
f 72/72/72 184/184/184 248/248/248
f 248/248/248 249/249/249 73/73/73
f 116/116/116 16/16/16 252/252/252
f 252/252/252 251/251/251 117/117/117
f 142/142/142 116/116/116 253/253/253
f 253/253/253 252/252/252 141/141/141
f 15/15/15 13/13/13 250/250/250
f 99/99/99 18/18/18 258/258/258
f 89/89/89 71/71/71 259/259/259
f 71/71/71 183/183/183 260/260/260
f 260/260/260 261/261/261 72/72/72
f 266/266/266 264/264/264 116/116/116
f 267/267/267 266/266/266 142/142/142
f 11/11/11 9/9/9 262/262/262
f 97/97/97 14/14/14 273/273/273
f 90/90/90 70/70/70 274/274/274
f 70/70/70 182/182/182 275/275/275
f 275/275/275 276/276/276 71/71/71
f 174/174/174 148/148/148 277/277/277
f 277/277/277 278/278/278 173/173/173
f 114/114/114 8/8/8 281/281/281
f 281/281/281 280/280/280 115/115/115
f 7/7/7 5/5/5 279/279/279
f 98/98/98 10/10/10 285/285/285
f 91/91/91 69/69/69 286/286/286
f 69/69/69 181/181/181 287/287/287
f 287/287/287 288/288/288 70/70/70
f 113/113/113 4/4/4 292/292/292
f 292/292/292 290/290/290 114/114/114
f 130/130/130 113/113/113 293/293/293
f 3/3/3 1/1/1 289/289/289
f 289/289/289 295/295/295 7/7/7
f 6/6/6 299/299/299 112/112/112
f 92/92/92 68/68/68 300/300/300
f 68/68/68 180/180/180 301/301/301
f 301/301/301 302/302/302 69/69/69
f 128/128/128 64/64/64 305/305/305
f 305/305/305 304/304/304 113/113/113
f 129/129/129 128/128/128 307/307/307
f 307/307/307 305/305/305 130/130/130
f 63/63/63 61/61/61 303/303/303
f 111/111/111 2/2/2 311/311/311
f 93/93/93 67/67/67 312/312/312
f 312/312/312 313/313/313 92/92/92
f 179/179/179 162/162/162 314/314/314
f 314/314/314 315/315/315 180/180/180
f 127/127/127 60/60/60 318/318/318
f 318/318/318 317/317/317 128/128/128
f 131/131/131 127/127/127 319/319/319
f 59/59/59 57/57/57 316/316/316
f 110/110/110 62/62/62 323/323/323
f 94/94/94 66/66/66 324/324/324
f 66/66/66 178/178/178 325/325/325
f 325/325/325 326/326/326 67/67/67
f 132/132/132 126/126/126 328/328/328
f 328/328/328 327/327/327 131/131/131
f 160/160/160 132/132/132 329/329/329
f 126/126/126 56/56/56 327/327/327
f 55/55/55 53/53/53 331/331/331
f 109/109/109 58/58/58 335/335/335
f 95/95/95 80/80/80 336/336/336
f 336/336/336 337/337/337 94/94/94
f 177/177/177 163/163/163 338/338/338
f 338/338/338 339/339/339 178/178/178
f 125/125/125 51/51/51 344/344/344
f 344/344/344 340/340/340 126/126/126
f 133/133/133 125/125/125 345/345/345
f 52/52/52 50/50/50 341/341/341
f 342/342/342 349/349/349 55/55/55
f 96/96/96 81/81/81 354/354/354
f 354/354/354 355/355/355 95/95/95
f 364/364/364 352/352/352 125/125/125
f 363/363/363 361/361/361 106/106/106
f 357/357/357 364/364/364 133/133/133
f 48/48/48 46/46/46 353/353/353
f 353/353/353 362/362/362 52/52/52
f 107/107/107 49/49/49 363/363/363
f 65/65/65 79/79/79 366/366/366
f 366/366/366 369/369/369 96/96/96
f 79/79/79 191/191/191 369/369/369
f 369/369/369 370/370/370 81/81/81
f 123/123/123 43/43/43 371/371/371
f 371/371/371 367/367/367 124/124/124
f 135/135/135 123/123/123 372/372/372
f 44/44/44 42/42/42 368/368/368
f 106/106/106 45/45/45 377/377/377
f 82/82/82 78/78/78 378/378/378
f 378/378/378 380/380/380 65/65/65
f 190/190/190 166/166/166 379/379/379
f 379/379/379 381/381/381 191/191/191
f 122/122/122 39/39/39 384/384/384
f 247/247/247 95/95/95 336/336/336
f 95/95/95 247/247/247 87/87/87
f 354/354/354 87/87/87 229/229/229
f 96/96/96 229/229/229 86/86/86
f 366/366/366 86/86/86 222/222/222
f 65/65/65 222/222/222 85/85/85
f 378/378/378 85/85/85 216/216/216
f 118/118/118 234/234/234 23/23/23
f 265/265/265 12/12/12 263/263/263
f 267/267/267 115/115/115 265/265/265
f 272/272/272 37/37/37 237/237/237
f 103/103/103 237/237/237 33/33/33
f 40/40/40 238/238/238 38/38/38
f 104/104/104 387/387/387 37/37/37
f 44/44/44 388/388/388 42/42/42
f 165/165/165 386/386/386 157/157/157
f 105/105/105 375/375/375 41/41/41
f 48/48/48 376/376/376 46/46/46
f 384/384/384 39/39/39 382/382/382
f 107/107/107 346/346/346 49/49/49
f 161/161/161 343/343/343 160/160/160
f 108/108/108 334/334/334 54/54/54
f 59/59/59 333/333/333 57/57/57
f 127/127/127 332/332/332 60/60/60
f 179/179/179 330/330/330 162/162/162
f 109/109/109 322/322/322 58/58/58
f 63/63/63 321/321/321 61/61/61
f 176/176/176 320/320/320 146/146/146
f 110/110/110 310/310/310 62/62/62
f 3/3/3 309/309/309 1/1/1
f 181/181/181 306/306/306 175/175/175
f 111/111/111 296/296/296 2/2/2
f 148/148/148 293/293/293 144/144/144
f 182/182/182 294/294/294 174/174/174
f 112/112/112 284/284/284 6/6/6
f 11/11/11 283/283/283 9/9/9
f 149/149/149 282/282/282 143/143/143
f 183/183/183 277/277/277 173/173/173
f 98/98/98 271/271/271 10/10/10
f 15/15/15 270/270/270 13/13/13
f 184/184/184 269/269/269 172/172/172
f 97/97/97 257/257/257 14/14/14
f 19/19/19 256/256/256 17/17/17
f 185/185/185 255/255/255 171/171/171
f 140/140/140 245/245/245 118/118/118
f 170/170/170 236/236/236 152/152/152
f 169/169/169 228/228/228 153/153/153
f 226/226/226 152/152/152 228/228/228
f 28/28/28 218/218/218 26/26/26
f 84/84/84 215/215/215 76/76/76
f 188/188/188 214/214/214 168/168/168
f 32/32/32 206/206/206 30/30/30
f 189/189/189 203/203/203 167/167/167
f 204/204/204 168/168/168 203/203/203
f 155/155/155 199/199/199 137/137/137
f 36/36/36 194/194/194 34/34/34
f 392/392/392 34/34/34 238/238/238
f 356/356/356 121/121/121 297/297/297
f 122/122/122 391/391/391 39/39/39
f 297/297/297 35/35/35 391/391/391
f 78/78/78 243/243/243 190/190/190
f 393/393/393 189/189/189 243/243/243
f 82/82/82 393/393/393 78/78/78
f 390/390/390 77/77/77 393/393/393
f 389/389/389 41/41/41 387/387/387
f 383/383/383 38/38/38 388/388/388
f 385/385/385 122/122/122 384/384/384
f 100/100/100 217/217/217 21/21/21
f 101/101/101 205/205/205 25/25/25
f 102/102/102 193/193/193 29/29/29
f 357/357/357 124/124/124 364/364/364
f 351/351/351 54/54/54 347/347/347
f 79/79/79 379/379/379 191/191/191
f 190/190/190 365/365/365 166/166/166
f 83/83/83 202/202/202 77/77/77
f 216/216/216 75/75/75 215/215/215
f 75/75/75 223/223/223 187/187/187
f 74/74/74 231/231/231 186/186/186
f 87/87/87 248/248/248 73/73/73
f 88/88/88 260/260/260 72/72/72
f 89/89/89 275/275/275 71/71/71
f 90/90/90 287/287/287 70/70/70
f 91/91/91 301/301/301 69/69/69
f 68/68/68 314/314/314 180/180/180
f 93/93/93 325/325/325 67/67/67
f 66/66/66 338/338/338 178/178/178
f 80/80/80 360/360/360 177/177/177
f 192/192/192 374/374/374 164/164/164
f 337/337/337 177/177/177 338/338/338
f 313/313/313 179/179/179 314/314/314
f 230/230/230 185/185/185 231/231/231
f 224/224/224 186/186/186 223/223/223
f 243/243/243 167/167/167 365/365/365
f 380/380/380 190/190/190 379/379/379
f 370/370/370 165/165/165 374/374/374
f 288/288/288 175/175/175 294/294/294
f 278/278/278 144/144/144 282/282/282
f 261/261/261 173/173/173 269/269/269
f 249/249/249 172/172/172 255/255/255
f 232/232/232 151/151/151 236/236/236
f 166/166/166 298/298/298 156/156/156
f 381/381/381 156/156/156 386/386/386
f 164/164/164 373/373/373 158/158/158
f 355/355/355 192/192/192 360/360/360
f 339/339/339 159/159/159 343/343/343
f 315/315/315 145/145/145 320/320/320
f 302/302/302 176/176/176 306/306/306
f 175/175/175 308/308/308 147/147/147
f 146/146/146 319/319/319 129/129/129
f 326/326/326 161/161/161 330/330/330
f 160/160/160 345/345/345 132/132/132
f 177/177/177 359/359/359 163/163/163
f 374/374/374 157/157/157 373/373/373
f 157/157/157 385/385/385 135/135/135
f 365/365/365 155/155/155 298/298/298
f 200/200/200 138/138/138 199/199/199
f 210/210/210 169/169/169 214/214/214
f 153/153/153 227/227/227 139/139/139
f 171/171/171 254/254/254 151/151/151
f 172/172/172 268/268/268 150/150/150
f 143/143/143 281/281/281 115/115/115
f 320/320/320 131/131/131 319/319/319
f 306/306/306 146/146/146 308/308/308
f 294/294/294 147/147/147 291/291/291
f 282/282/282 114/114/114 281/281/281
f 269/269/269 149/149/149 268/268/268
f 255/255/255 150/150/150 254/254/254
f 236/236/236 141/141/141 239/239/239
f 228/228/228 140/140/140 227/227/227
f 168/168/168 213/213/213 154/154/154
f 137/137/137 198/198/198 121/121/121
f 156/156/156 356/356/356 136/136/136
f 386/386/386 136/136/136 385/385/385
f 158/158/158 372/372/372 134/134/134
f 360/360/360 164/164/164 359/359/359
f 343/343/343 133/133/133 345/345/345
f 162/162/162 329/329/329 145/145/145
f 330/330/330 160/160/160 329/329/329
f 132/132/132 344/344/344 126/126/126
f 163/163/163 358/358/358 159/159/159
f 373/373/373 135/135/135 372/372/372
f 135/135/135 384/384/384 123/123/123
f 298/298/298 137/137/137 356/356/356
f 214/214/214 153/153/153 213/213/213
f 139/139/139 225/225/225 119/119/119
f 99/99/99 241/241/241 18/18/18
f 151/151/151 253/253/253 141/141/141
f 150/150/150 267/267/267 142/142/142
f 292/292/292 144/144/144 293/293/293
f 147/147/147 307/307/307 130/130/130
f 129/129/129 318/318/318 128/128/128
f 145/145/145 328/328/328 131/131/131
f 308/308/308 129/129/129 307/307/307
f 291/291/291 130/130/130 293/293/293
f 276/276/276 174/174/174 277/277/277
f 268/268/268 143/143/143 267/267/267
f 254/254/254 142/142/142 253/253/253
f 154/154/154 212/212/212 138/138/138
f 77/77/77 204/204/204 189/189/189
f 136/136/136 297/297/297 122/122/122
f 134/134/134 371/371/371 124/124/124
f 359/359/359 158/158/158 358/358/358
f 159/159/159 357/357/357 133/133/133
f 123/123/123 382/382/382 43/43/43
f 195/195/195 33/33/33 193/193/193
f 197/197/197 30/30/30 194/194/194
f 198/198/198 31/31/31 196/196/196
f 121/121/121 196/196/196 35/35/35
f 199/199/199 120/120/120 198/198/198
f 201/201/201 76/76/76 202/202/202
f 203/203/203 154/154/154 200/200/200
f 167/167/167 200/200/200 155/155/155
f 202/202/202 188/188/188 204/204/204
f 207/207/207 29/29/29 205/205/205
f 209/209/209 26/26/26 206/206/206
f 211/211/211 27/27/27 208/208/208
f 120/120/120 208/208/208 31/31/31
f 212/212/212 119/119/119 211/211/211
f 138/138/138 211/211/211 120/120/120
f 213/213/213 139/139/139 212/212/212
f 215/215/215 187/187/187 210/210/210
f 76/76/76 210/210/210 188/188/188
f 219/219/219 25/25/25 217/217/217
f 221/221/221 22/22/22 218/218/218
f 222/222/222 74/74/74 224/224/224
f 85/85/85 224/224/224 75/75/75
f 225/225/225 23/23/23 220/220/220
f 119/119/119 220/220/220 27/27/27
f 223/223/223 170/170/170 226/226/226
f 187/187/187 226/226/226 169/169/169
f 227/227/227 118/118/118 225/225/225
f 229/229/229 73/73/73 230/230/230
f 86/86/86 230/230/230 74/74/74
f 231/231/231 171/171/171 232/232/232
f 186/186/186 232/232/232 170/170/170
f 244/244/244 20/20/20 235/235/235
f 239/239/239 117/117/117 244/244/244
f 233/233/233 17/17/17 240/240/240
f 24/24/24 240/240/240 22/22/22
f 242/242/242 21/21/21 241/241/241
f 247/247/247 72/72/72 248/248/248
f 248/248/248 184/184/184 249/249/249
f 73/73/73 249/249/249 185/185/185
f 252/252/252 16/16/16 251/251/251
f 117/117/117 251/251/251 20/20/20
f 253/253/253 116/116/116 252/252/252
f 141/141/141 252/252/252 117/117/117
f 250/250/250 13/13/13 256/256/256
f 258/258/258 18/18/18 257/257/257
f 259/259/259 71/71/71 260/260/260
f 260/260/260 183/183/183 261/261/261
f 72/72/72 261/261/261 184/184/184
f 116/116/116 264/264/264 16/16/16
f 142/142/142 266/266/266 116/116/116
f 262/262/262 9/9/9 270/270/270
f 273/273/273 14/14/14 271/271/271
f 274/274/274 70/70/70 275/275/275
f 275/275/275 182/182/182 276/276/276
f 71/71/71 276/276/276 183/183/183
f 277/277/277 148/148/148 278/278/278
f 173/173/173 278/278/278 149/149/149
f 281/281/281 8/8/8 280/280/280
f 115/115/115 280/280/280 12/12/12
f 279/279/279 5/5/5 283/283/283
f 285/285/285 10/10/10 284/284/284
f 286/286/286 69/69/69 287/287/287
f 287/287/287 181/181/181 288/288/288
f 70/70/70 288/288/288 182/182/182
f 292/292/292 4/4/4 290/290/290
f 114/114/114 290/290/290 8/8/8
f 293/293/293 113/113/113 292/292/292
f 289/289/289 1/1/1 295/295/295
f 7/7/7 295/295/295 5/5/5
f 47/47/47 364/364/364 124/124/124
f 300/300/300 68/68/68 301/301/301
f 301/301/301 180/180/180 302/302/302
f 69/69/69 302/302/302 181/181/181
f 305/305/305 64/64/64 304/304/304
f 113/113/113 304/304/304 4/4/4
f 307/307/307 128/128/128 305/305/305
f 130/130/130 305/305/305 113/113/113
f 303/303/303 61/61/61 309/309/309
f 311/311/311 2/2/2 310/310/310
f 312/312/312 67/67/67 313/313/313
f 92/92/92 313/313/313 68/68/68
f 314/314/314 162/162/162 315/315/315
f 180/180/180 315/315/315 176/176/176
f 318/318/318 60/60/60 317/317/317
f 128/128/128 317/317/317 64/64/64
f 319/319/319 127/127/127 318/318/318
f 316/316/316 57/57/57 321/321/321
f 323/323/323 62/62/62 322/322/322
f 324/324/324 66/66/66 325/325/325
f 325/325/325 178/178/178 326/326/326
f 67/67/67 326/326/326 179/179/179
f 328/328/328 126/126/126 327/327/327
f 131/131/131 327/327/327 127/127/127
f 329/329/329 132/132/132 328/328/328
f 327/327/327 56/56/56 332/332/332
f 331/331/331 53/53/53 333/333/333
f 335/335/335 58/58/58 334/334/334
f 336/336/336 80/80/80 337/337/337
f 94/94/94 337/337/337 66/66/66
f 338/338/338 163/163/163 339/339/339
f 178/178/178 339/339/339 161/161/161
f 344/344/344 51/51/51 340/340/340
f 126/126/126 340/340/340 56/56/56
f 345/345/345 125/125/125 344/344/344
f 341/341/341 50/50/50 348/348/348
f 55/55/55 349/349/349 53/53/53
f 354/354/354 81/81/81 355/355/355
f 95/95/95 355/355/355 80/80/80
f 125/125/125 352/352/352 51/51/51
f 106/106/106 361/361/361 45/45/45
f 133/133/133 364/364/364 125/125/125
f 353/353/353 46/46/46 362/362/362
f 52/52/52 362/362/362 50/50/50
f 363/363/363 49/49/49 361/361/361
f 366/366/366 79/79/79 369/369/369
f 96/96/96 369/369/369 81/81/81
f 369/369/369 191/191/191 370/370/370
f 81/81/81 370/370/370 192/192/192
f 371/371/371 43/43/43 367/367/367
f 124/124/124 367/367/367 47/47/47
f 372/372/372 123/123/123 371/371/371
f 368/368/368 42/42/42 376/376/376
f 377/377/377 45/45/45 375/375/375
f 378/378/378 78/78/78 380/380/380
f 65/65/65 380/380/380 79/79/79
f 379/379/379 166/166/166 381/381/381
f 191/191/191 381/381/381 165/165/165
f 299/299/299 6/6/6 296/296/296
