# GloomhavenVR - pico-4 right 'thumbstick' (glTF material 0)
# generated by controllers_pipeline.py from webxr-input-profiles (MIT)
o pico4_right_thumbstick__m0
v 0.015460 0.027433 0.016272
v 0.015460 0.027433 0.016272
v 0.015460 0.029919 0.016272
v 0.015460 0.029919 0.016272
v 0.015814 0.027433 0.018054
v 0.015814 0.027433 0.018054
v 0.015814 0.029919 0.018054
v 0.015814 0.029919 0.018054
v 0.015460 0.027433 0.019835
v 0.015460 0.027433 0.019835
v 0.015460 0.029919 0.019835
v 0.015460 0.029919 0.019835
v 0.014450 0.027433 0.021346
v 0.014450 0.027433 0.021346
v 0.014450 0.029919 0.021346
v 0.014450 0.029919 0.021346
v 0.012940 0.027433 0.022355
v 0.012940 0.027433 0.022355
v 0.012940 0.029919 0.022355
v 0.012940 0.029919 0.022355
v 0.011158 0.027433 0.022710
v 0.011158 0.027433 0.022710
v 0.011158 0.029919 0.022710
v 0.011158 0.029919 0.022710
v 0.009376 0.027433 0.022355
v 0.009376 0.027433 0.022355
v 0.009376 0.029919 0.022355
v 0.009376 0.029919 0.022355
v 0.007866 0.027433 0.021346
v 0.007866 0.027433 0.021346
v 0.007866 0.029919 0.021346
v 0.007866 0.029919 0.021346
v 0.006856 0.027433 0.019835
v 0.006856 0.027433 0.019835
v 0.006856 0.029919 0.019835
v 0.006856 0.029919 0.019835
v 0.006502 0.027433 0.018054
v 0.006502 0.027433 0.018054
v 0.006502 0.029919 0.018054
v 0.006502 0.029919 0.018054
v 0.006856 0.027433 0.016272
v 0.006856 0.027433 0.016272
v 0.006856 0.029919 0.016272
v 0.006856 0.029919 0.016272
v 0.007866 0.027433 0.014761
v 0.007866 0.027433 0.014761
v 0.007866 0.029919 0.014761
v 0.007866 0.029919 0.014761
v 0.009376 0.027433 0.013752
v 0.009376 0.027433 0.013752
v 0.009376 0.029919 0.013752
v 0.009376 0.029919 0.013752
v 0.011158 0.027433 0.013398
v 0.011158 0.027433 0.013398
v 0.011158 0.029919 0.013398
v 0.011158 0.029919 0.013398
v 0.012940 0.027433 0.013752
v 0.012940 0.027433 0.013752
v 0.012940 0.029919 0.013752
v 0.012940 0.029919 0.013752
v 0.014450 0.027433 0.014761
v 0.014450 0.027433 0.014761
v 0.014450 0.029919 0.014761
v 0.014450 0.029919 0.014761
v 0.006189 0.033340 0.015995
v 0.011158 0.032616 0.011561
v 0.013643 0.032616 0.012055
v 0.015749 0.032616 0.013463
v 0.017156 0.032616 0.015569
v 0.017651 0.032616 0.018054
v 0.017156 0.032616 0.020538
v 0.015749 0.032616 0.022645
v 0.013643 0.032616 0.024052
v 0.011158 0.032616 0.024546
v 0.008673 0.032616 0.024052
v 0.006567 0.032616 0.022645
v 0.005160 0.032616 0.020538
v 0.004665 0.032616 0.018054
v 0.005160 0.032616 0.015569
v 0.008673 0.032616 0.012055
v 0.006567 0.032616 0.013463
v 0.005780 0.033340 0.018054
v 0.006189 0.033340 0.020112
v 0.007355 0.033340 0.021857
v 0.009100 0.033340 0.023023
v 0.011158 0.033340 0.023432
v 0.013216 0.033340 0.023023
v 0.014961 0.033340 0.021857
v 0.016127 0.033340 0.020112
v 0.016536 0.033340 0.018054
v 0.016127 0.033340 0.015995
v 0.014961 0.033340 0.014251
v 0.013216 0.033340 0.013085
v 0.011158 0.033340 0.012675
v 0.009100 0.033340 0.013085
v 0.007355 0.033340 0.014251
v 0.016673 0.024029 0.023569
v 0.018364 0.024029 0.021039
v 0.014143 0.024029 0.025260
v 0.011158 0.024029 0.025854
v 0.008173 0.024029 0.025260
v 0.005642 0.024029 0.023569
v 0.003951 0.024029 0.021039
v 0.003358 0.024029 0.018054
v 0.003951 0.024029 0.015069
v 0.005642 0.024029 0.012538
v 0.008173 0.024029 0.010847
v 0.011158 0.024029 0.010254
v 0.014143 0.024029 0.010847
v 0.016673 0.024029 0.012538
v 0.018364 0.024029 0.015069
v 0.018957 0.024029 0.018054
v 0.015931 0.029919 0.016077
v 0.016324 0.029919 0.018054
v 0.015931 0.029919 0.020031
v 0.014811 0.029919 0.021706
v 0.013135 0.029919 0.022826
v 0.011158 0.029919 0.023220
v 0.009181 0.029919 0.022826
v 0.007505 0.029919 0.021706
v 0.006385 0.029919 0.020031
v 0.005992 0.029919 0.018054
v 0.006385 0.029919 0.016077
v 0.007505 0.029919 0.014401
v 0.009181 0.029919 0.013281
v 0.011158 0.029919 0.012888
v 0.013135 0.029919 0.013281
v 0.014811 0.029919 0.014401
v 0.015123 0.030002 0.014089
v 0.016339 0.030002 0.015908
v 0.013304 0.030002 0.012873
v 0.011158 0.030002 0.012446
v 0.009012 0.030002 0.012873
v 0.007193 0.030002 0.014089
v 0.005977 0.030002 0.015908
v 0.005551 0.030002 0.018054
v 0.005977 0.030002 0.020200
v 0.007193 0.030002 0.022019
v 0.009012 0.030002 0.023234
v 0.011158 0.030002 0.023661
v 0.013304 0.030002 0.023234
v 0.015123 0.030002 0.022019
v 0.016339 0.030002 0.020200
v 0.016765 0.030002 0.018054
v 0.013448 0.030216 0.012526
v 0.015389 0.030216 0.013823
v 0.016686 0.030216 0.015764
v 0.017141 0.030216 0.018054
v 0.016686 0.030216 0.020343
v 0.015389 0.030216 0.022284
v 0.013448 0.030216 0.023581
v 0.011158 0.030216 0.024037
v 0.008868 0.030216 0.023581
v 0.006927 0.030216 0.022284
v 0.005630 0.030216 0.020343
v 0.005175 0.030216 0.018054
v 0.005630 0.030216 0.015764
v 0.006927 0.030216 0.013823
v 0.008868 0.030216 0.012526
v 0.011158 0.030216 0.012070
v 0.011158 0.030822 0.011447
v 0.013686 0.030822 0.011950
v 0.008630 0.030822 0.011950
v 0.006486 0.030822 0.013382
v 0.005054 0.030822 0.015525
v 0.004551 0.030822 0.018054
v 0.005054 0.030822 0.020582
v 0.006486 0.030822 0.022726
v 0.008630 0.030822 0.024158
v 0.011158 0.030822 0.024661
v 0.013686 0.030822 0.024158
v 0.015830 0.030822 0.022726
v 0.017262 0.030822 0.020582
v 0.017765 0.030822 0.018054
v 0.017262 0.030822 0.015525
v 0.015830 0.030822 0.013382
v 0.008536 0.031721 0.011725
v 0.011158 0.031721 0.011203
v 0.013780 0.031721 0.011725
v 0.016002 0.031721 0.013210
v 0.017487 0.031721 0.015432
v 0.018008 0.031721 0.018054
v 0.017487 0.031721 0.020675
v 0.016002 0.031721 0.022898
v 0.013780 0.031721 0.024383
v 0.011158 0.031721 0.024904
v 0.008536 0.031721 0.024383
v 0.006314 0.031721 0.022898
v 0.004829 0.031721 0.020675
v 0.004308 0.031721 0.018054
v 0.004829 0.031721 0.015432
v 0.006314 0.031721 0.013210
v 0.007283 0.027433 0.020687
v 0.007283 0.027433 0.020687
v 0.004664 0.024029 0.022462
v 0.007270 0.029919 0.020667
v 0.007270 0.029919 0.020667
v 0.006832 0.029919 0.020936
v 0.006454 0.030002 0.021171
v 0.006136 0.030216 0.021375
v 0.006658 0.033340 0.021061
v 0.005700 0.032616 0.021645
v 0.005594 0.030822 0.021693
v 0.005385 0.031721 0.021821
v 0.008534 0.027433 0.021935
v 0.008534 0.027433 0.021935
v 0.006803 0.024029 0.024583
v 0.008564 0.029919 0.021955
v 0.008564 0.029919 0.021955
v 0.007357 0.031721 0.023804
v 0.008278 0.029919 0.022381
v 0.008031 0.030002 0.022750
v 0.007823 0.030216 0.023066
v 0.007481 0.030822 0.023592
v 0.007558 0.032616 0.023505
v 0.008192 0.033340 0.022581
v 0.010235 0.027433 0.022647
v 0.010235 0.027433 0.022647
v 0.009605 0.024029 0.025747
v 0.010245 0.029919 0.022649
v 0.010245 0.029919 0.022649
v 0.010104 0.033340 0.023362
v 0.009860 0.031721 0.024823
v 0.009916 0.032616 0.024467
v 0.010187 0.029919 0.023160
v 0.009955 0.030822 0.024593
v 0.010131 0.030002 0.023602
v 0.010072 0.030216 0.023976
v 0.012162 0.033340 0.023371
v 0.012404 0.032616 0.024466
v 0.012466 0.031721 0.024821
v 0.012430 0.030822 0.024579
v 0.012060 0.029919 0.022651
v 0.012060 0.029919 0.022651
v 0.012060 0.029919 0.022651
v 0.012315 0.030216 0.023962
v 0.006568 0.027433 0.018996
v 0.006568 0.027433 0.018996
v 0.012245 0.030002 0.023590
v 0.012085 0.027433 0.022646
v 0.012085 0.027433 0.022646
v 0.012724 0.024029 0.025744
v 0.004397 0.031721 0.019400
v 0.012151 0.029919 0.023156
v 0.012151 0.029919 0.023156
v 0.012151 0.029919 0.023156
v 0.014153 0.033340 0.022561
v 0.014792 0.032616 0.023482
v 0.014988 0.031721 0.023785
v 0.013730 0.029919 0.021969
v 0.013730 0.029919 0.021969
v 0.014019 0.029919 0.022393
v 0.014270 0.030002 0.022760
v 0.014485 0.030216 0.023071
v 0.014843 0.030822 0.023587
v 0.013739 0.027433 0.021963
v 0.013739 0.027433 0.021963
v 0.015462 0.024029 0.024616
v 0.015661 0.033340 0.021054
v 0.016598 0.032616 0.021670
v 0.016892 0.031721 0.021879
v 0.015045 0.029919 0.020668
v 0.015045 0.029919 0.020668
v 0.015045 0.029919 0.020668
v 0.015472 0.029919 0.020953
v 0.015472 0.029919 0.020953
v 0.015842 0.030002 0.021199
v 0.016157 0.030216 0.021407
v 0.016683 0.030822 0.021750
v 0.015054 0.027433 0.020654
v 0.015054 0.027433 0.020654
v 0.003459 0.024029 0.019579
v 0.017701 0.024029 0.022387
v 0.016476 0.033340 0.019055
v 0.017568 0.032616 0.019312
v 0.017915 0.031721 0.019411
v 0.017676 0.030822 0.019359
v 0.017062 0.030216 0.019229
v 0.015756 0.029919 0.018953
v 0.015756 0.029919 0.018953
v 0.016258 0.029919 0.019059
v 0.016692 0.030002 0.019151
v 0.015751 0.027433 0.018974
v 0.015751 0.027433 0.018974
v 0.018867 0.024029 0.019526
v 0.016465 0.033340 0.016999
v 0.017560 0.032616 0.016753
v 0.017916 0.031721 0.016698
v 0.015752 0.029919 0.017136
v 0.015752 0.029919 0.017136
v 0.017063 0.030216 0.016882
v 0.016127 0.029919 0.017066
v 0.016692 0.030002 0.016956
v 0.017678 0.030822 0.016757
v 0.015749 0.027433 0.017119
v 0.015749 0.027433 0.017119
v 0.006054 0.029919 0.019044
v 0.005248 0.030216 0.019202
v 0.018860 0.024029 0.016546
v 0.015675 0.033340 0.015073
v 0.016585 0.032616 0.014418
v 0.016859 0.031721 0.014179
v 0.015103 0.029919 0.015526
v 0.015103 0.029919 0.015526
v 0.015507 0.029919 0.015206
v 0.016657 0.030822 0.014318
v 0.015857 0.030002 0.014931
v 0.016157 0.030216 0.014699
v 0.015065 0.027433 0.015468
v 0.015065 0.027433 0.015468
v 0.017661 0.024029 0.013659
v 0.014156 0.033340 0.013549
v 0.014758 0.032616 0.012602
v 0.014958 0.031721 0.012302
v 0.014829 0.030822 0.012511
v 0.013786 0.029919 0.014175
v 0.013786 0.029919 0.014175
v 0.014059 0.029919 0.013741
v 0.014295 0.030002 0.013364
v 0.014496 0.030216 0.013043
v 0.013765 0.027433 0.014161
v 0.013765 0.027433 0.014161
v 0.015515 0.024029 0.011526
v 0.012169 0.033340 0.012737
v 0.012400 0.032616 0.011640
v 0.012495 0.031721 0.011292
v 0.012201 0.029919 0.012961
v 0.012288 0.030002 0.012526
v 0.012358 0.030216 0.012154
v 0.012469 0.030822 0.011536
v 0.012096 0.029919 0.013463
v 0.012096 0.029919 0.013463
v 0.012112 0.027433 0.013467
v 0.012112 0.027433 0.013467
v 0.012761 0.024029 0.010370
v 0.010119 0.033340 0.012742
v 0.009874 0.032616 0.011648
v 0.009795 0.031721 0.011297
v 0.009847 0.030822 0.011536
v 0.010234 0.029919 0.013461
v 0.010234 0.029919 0.013461
v 0.010234 0.029919 0.013461
v 0.009972 0.030216 0.012151
v 0.010133 0.029919 0.012957
v 0.010046 0.030002 0.012522
v 0.010226 0.027433 0.013462
v 0.010226 0.027433 0.013462
v 0.010226 0.027433 0.013462
v 0.010226 0.027433 0.013462
v 0.009571 0.024029 0.010367
v 0.009571 0.024029 0.010367
v 0.008560 0.029919 0.014154
v 0.008560 0.029919 0.014154
v 0.008128 0.033340 0.013570
v 0.007502 0.032616 0.012639
v 0.005618 0.030002 0.019127
v 0.008021 0.030002 0.013363
v 0.007807 0.030216 0.013051
v 0.007450 0.030822 0.012535
v 0.007306 0.031721 0.012337
v 0.008556 0.027433 0.014158
v 0.008556 0.027433 0.014158
v 0.006858 0.024029 0.011487
v 0.008262 0.029919 0.013737
v 0.004634 0.030822 0.019333
v 0.006643 0.033340 0.015069
v 0.007277 0.029919 0.015428
v 0.007277 0.029919 0.015428
v 0.005745 0.032616 0.014395
v 0.005466 0.031721 0.014165
v 0.006862 0.029919 0.015126
v 0.006501 0.030002 0.014866
v 0.006192 0.030216 0.014648
v 0.005676 0.030822 0.014291
v 0.007282 0.027433 0.015420
v 0.007282 0.027433 0.015420
v 0.004675 0.024029 0.013628
v 0.005847 0.033340 0.017015
v 0.004401 0.031721 0.016688
v 0.004751 0.032616 0.016773
v 0.004641 0.030822 0.016737
v 0.006562 0.029919 0.017142
v 0.006562 0.029919 0.017142
v 0.006060 0.029919 0.017035
v 0.005626 0.030002 0.016944
v 0.005255 0.030216 0.016868
v 0.006558 0.027433 0.017160
v 0.006558 0.027433 0.017160
v 0.003459 0.024029 0.016526
v 0.005861 0.033340 0.019166
v 0.006559 0.029919 0.018949
v 0.006559 0.029919 0.018949
v 0.004756 0.032616 0.019355
vt 0.789966 0.343331
vt 0.789966 0.343331
vt 0.807748 0.233797
vt 0.790612 0.331275
vt 0.780255 0.342077
vt 0.780255 0.342077
vt 0.823268 0.242157
vt 0.782854 0.330122
vt 0.770892 0.339079
vt 0.770892 0.339079
vt 0.834295 0.255907
vt 0.775297 0.328184
vt 0.762098 0.334652
vt 0.762098 0.334652
vt 0.839166 0.272819
vt 0.768412 0.324497
vt 0.754197 0.328795
vt 0.754197 0.328795
vt 0.837295 0.290295
vt 0.762163 0.319764
vt 0.747345 0.321738
vt 0.747345 0.321738
vt 0.756853 0.313984
vt 0.828935 0.305771
vt 0.741833 0.313593
vt 0.741833 0.313593
vt 0.752243 0.307636
vt 0.815162 0.316735
vt 0.737764 0.304634
vt 0.737764 0.304634
vt 0.748772 0.300648
vt 0.798275 0.321673
vt 0.735168 0.295150
vt 0.735168 0.295150
vt 0.746957 0.293060
vt 0.780760 0.319736
vt 0.734254 0.285393
vt 0.734254 0.285393
vt 0.746336 0.285260
vt 0.765337 0.311221
vt 0.734952 0.275673
vt 0.734952 0.275673
vt 0.747150 0.277443
vt 0.754350 0.297415
vt 0.737345 0.266343
vt 0.737345 0.266343
vt 0.748909 0.269678
vt 0.749463 0.280347
vt 0.741056 0.257741
vt 0.741056 0.257741
vt 0.752244 0.262085
vt 0.752244 0.262085
vt 0.817836 0.337679
vt 0.817836 0.337679
vt 0.759497 0.248483
vt 0.814129 0.326311
vt 0.809113 0.341025
vt 0.809113 0.341025
vt 0.773297 0.237054
vt 0.806315 0.329344
vt 0.799702 0.342987
vt 0.799702 0.342987
vt 0.790224 0.231892
vt 0.798481 0.330966
vt 0.774657 0.287097
vt 0.773119 0.259066
vt 0.781446 0.252198
vt 0.791834 0.249139
vt 0.802631 0.250308
vt 0.812109 0.255509
vt 0.818973 0.263944
vt 0.822004 0.274352
vt 0.820843 0.285133
vt 0.815635 0.294652
vt 0.807171 0.301420
vt 0.796782 0.304478
vt 0.785993 0.303295
vt 0.776461 0.298110
vt 0.769751 0.289615
vt 0.767971 0.268524
vt 0.766701 0.279236
vt 0.780066 0.293854
vt 0.787669 0.298015
vt 0.796295 0.298955
vt 0.804626 0.296523
vt 0.811393 0.291093
vt 0.815557 0.283479
vt 0.816488 0.274848
vt 0.814043 0.266518
vt 0.808585 0.259762
vt 0.800977 0.255601
vt 0.792359 0.254674
vt 0.784061 0.257123
vt 0.777355 0.262577
vt 0.773211 0.270183
vt 0.772245 0.278786
vt 0.750140 0.354076
vt 0.762347 0.360268
vt 0.739137 0.345954
vt 0.729654 0.336100
vt 0.721957 0.324790
vt 0.716246 0.312343
vt 0.712690 0.299085
vt 0.711415 0.285358
vt 0.712511 0.271505
vt 0.716109 0.257877
vt 0.722501 0.244936
vt 0.829933 0.356685
vt 0.816760 0.362567
vt 0.803001 0.365619
vt 0.789115 0.366177
vt 0.775448 0.364356
vt 0.807045 0.235997
vt 0.821798 0.243931
vt 0.832204 0.256980
vt 0.836930 0.273005
vt 0.835152 0.289609
vt 0.827140 0.304262
vt 0.814123 0.314748
vt 0.798063 0.319432
vt 0.781437 0.317596
vt 0.766792 0.309505
vt 0.756350 0.296399
vt 0.751812 0.280232
vt 0.754055 0.263562
vt 0.761293 0.249758
vt 0.774341 0.239042
vt 0.790389 0.234223
vt 0.790566 0.236167
vt 0.806456 0.237863
vt 0.775244 0.240720
vt 0.762836 0.250865
vt 0.755732 0.264396
vt 0.753699 0.280127
vt 0.758044 0.295545
vt 0.768026 0.308052
vt 0.782015 0.315787
vt 0.797898 0.317532
vt 0.813243 0.313065
vt 0.825692 0.303056
vt 0.833332 0.289036
vt 0.835035 0.273169
vt 0.830524 0.257864
vt 0.820562 0.245423
vt 0.776104 0.242302
vt 0.790755 0.237996
vt 0.805940 0.239559
vt 0.819384 0.246798
vt 0.828933 0.258697
vt 0.833245 0.273327
vt 0.831618 0.288496
vt 0.824268 0.301872
vt 0.812409 0.311483
vt 0.797742 0.315739
vt 0.782562 0.314083
vt 0.769194 0.306678
vt 0.759638 0.294743
vt 0.755493 0.280025
vt 0.757368 0.265045
vt 0.764275 0.251938
vt 0.766974 0.254053
vt 0.777750 0.245347
vt 0.760590 0.266143
vt 0.758944 0.279816
vt 0.762687 0.293211
vt 0.771436 0.304040
vt 0.783612 0.310820
vt 0.797442 0.312296
vt 0.810819 0.308456
vt 0.821627 0.299666
vt 0.828319 0.287474
vt 0.829806 0.273638
vt 0.825871 0.260305
vt 0.817099 0.249560
vt 0.804922 0.242817
vt 0.791095 0.241404
vt 0.764102 0.267288
vt 0.769984 0.256472
vt 0.779526 0.248644
vt 0.791474 0.245119
vt 0.803837 0.246379
vt 0.814729 0.252382
vt 0.822541 0.262040
vt 0.826088 0.273978
vt 0.824755 0.286356
vt 0.818772 0.297278
vt 0.809040 0.305029
vt 0.797122 0.308576
vt 0.784786 0.307125
vt 0.773863 0.301197
vt 0.766122 0.291458
vt 0.762678 0.279562
vt 0.736312 0.300134
vt 0.736312 0.300134
vt 0.713980 0.306117
vt 0.747744 0.296949
vt 0.789534 0.321692
vt 0.789633 0.319306
vt 0.789747 0.317377
vt 0.789902 0.315605
vt 0.791924 0.299044
vt 0.791154 0.304412
vt 0.790123 0.312032
vt 0.790539 0.308238
vt 0.739552 0.309082
vt 0.739552 0.309082
vt 0.718592 0.318836
vt 0.750399 0.304240
vt 0.807080 0.320113
vt 0.803352 0.307137
vt 0.806391 0.317833
vt 0.805840 0.315983
vt 0.805349 0.314273
vt 0.804384 0.310824
vt 0.802280 0.303469
vt 0.800812 0.298223
vt 0.744408 0.317734
vt 0.744408 0.317734
vt 0.725273 0.330690
vt 0.754398 0.310923
vt 0.822557 0.311936
vt 0.808371 0.294245
vt 0.814379 0.301393
vt 0.811909 0.298426
vt 0.821393 0.309937
vt 0.816927 0.304076
vt 0.820319 0.308295
vt 0.819235 0.306858
vt 0.813865 0.287747
vt 0.818689 0.290277
vt 0.822016 0.292154
vt 0.825388 0.293950
vt 0.833882 0.298552
vt 0.833882 0.298552
vt 0.759331 0.316969
vt 0.828554 0.295651
vt 0.734522 0.290439
vt 0.734522 0.290439
vt 0.830070 0.296467
vt 0.750688 0.325449
vt 0.750688 0.325449
vt 0.734093 0.341543
vt 0.779076 0.304622
vt 0.831766 0.297421
vt 0.831766 0.297421
vt 0.831766 0.297421
vt 0.816576 0.279279
vt 0.821999 0.279779
vt 0.825792 0.280211
vt 0.839166 0.281955
vt 0.765068 0.322165
vt 0.836803 0.281643
vt 0.834889 0.281380
vt 0.833125 0.281138
vt 0.829578 0.280675
vt 0.757923 0.331804
vt 0.757923 0.331804
vt 0.744057 0.350301
vt 0.815797 0.270496
vt 0.821017 0.268929
vt 0.824683 0.267882
vt 0.837590 0.264219
vt 0.837590 0.264219
vt 0.771747 0.326439
vt 0.835388 0.264842
vt 0.835388 0.264842
vt 0.833530 0.265392
vt 0.831809 0.265875
vt 0.828356 0.266845
vt 0.766411 0.337057
vt 0.766411 0.337057
vt 0.711477 0.292258
vt 0.756108 0.357749
vt 0.811605 0.262609
vt 0.815902 0.259314
vt 0.819016 0.257013
vt 0.821963 0.254604
vt 0.824719 0.252296
vt 0.829417 0.248357
vt 0.779087 0.329324
vt 0.827579 0.249899
vt 0.826093 0.251152
vt 0.775484 0.340761
vt 0.775484 0.340761
vt 0.768974 0.362939
vt 0.805054 0.257187
vt 0.807557 0.252319
vt 0.809456 0.248975
vt 0.815775 0.237341
vt 0.786723 0.330893
vt 0.813039 0.242589
vt 0.815013 0.238834
vt 0.813879 0.240970
vt 0.811351 0.245603
vt 0.785200 0.342910
vt 0.785200 0.342910
vt 0.773570 0.314145
vt 0.775387 0.310898
vt 0.782091 0.365821
vt 0.796856 0.254592
vt 0.797279 0.249182
vt 0.797424 0.245303
vt 0.799856 0.232156
vt 0.794158 0.331306
vt 0.799223 0.234401
vt 0.797808 0.241511
vt 0.798741 0.236244
vt 0.798373 0.237952
vt 0.794742 0.343372
vt 0.794742 0.343372
vt 0.796250 0.366464
vt 0.788010 0.255368
vt 0.786332 0.250180
vt 0.785222 0.246546
vt 0.784140 0.242896
vt 0.781732 0.233495
vt 0.802277 0.330335
vt 0.782287 0.235826
vt 0.782747 0.237714
vt 0.783188 0.239445
vt 0.804444 0.342220
vt 0.804444 0.342220
vt 0.810002 0.364659
vt 0.780210 0.259530
vt 0.776788 0.255292
vt 0.774395 0.252187
vt 0.767500 0.243608
vt 0.768746 0.245086
vt 0.769878 0.246467
vt 0.772134 0.249279
vt 0.765944 0.241805
vt 0.810069 0.327955
vt 0.813406 0.339632
vt 0.813406 0.339632
vt 0.823257 0.360342
vt 0.774831 0.266049
vt 0.770027 0.263555
vt 0.766670 0.261777
vt 0.763338 0.259962
vt 0.754368 0.256638
vt 0.818239 0.324773
vt 0.754368 0.256638
vt 0.760184 0.258348
vt 0.756785 0.256974
vt 0.758584 0.257622
vt 0.743290 0.253925
vt 0.821885 0.335490
vt 0.743290 0.253925
vt 0.821885 0.335490
vt 0.726691 0.239082
vt 0.836366 0.352369
vt 0.750488 0.265884
vt 0.749768 0.271245
vt 0.772159 0.274541
vt 0.766764 0.273941
vt 0.774502 0.312450
vt 0.753932 0.272111
vt 0.755681 0.272438
vt 0.759221 0.272983
vt 0.762991 0.273486
vt 0.739002 0.261909
vt 0.739002 0.261909
vt 0.718890 0.250856
vt 0.752001 0.271816
vt 0.777193 0.307783
vt 0.772939 0.283204
vt 0.747873 0.273419
vt 0.750937 0.288962
vt 0.767631 0.284455
vt 0.763812 0.285323
vt 0.753205 0.288193
vt 0.755050 0.287609
vt 0.756765 0.287115
vt 0.760242 0.286186
vt 0.736000 0.270757
vt 0.736000 0.270757
vt 0.713835 0.264215
vt 0.776967 0.290886
vt 0.769604 0.296499
vt 0.772637 0.294192
vt 0.766594 0.298853
vt 0.746547 0.281351
vt 0.759099 0.304957
vt 0.760931 0.303434
vt 0.762424 0.302214
vt 0.763813 0.301105
vt 0.734400 0.280621
vt 0.734400 0.280621
vt 0.711386 0.278417
vt 0.783804 0.296544
vt 0.746469 0.289095
vt 0.772447 0.316249
vt 0.781074 0.301261
vn 0.677380 0.678147 -0.285085
vn 0.923975 0.000350 -0.382452
vn 0.000000 -1.000000 -0.000001
vn 0.926856 -0.001464 -0.375414
vn 0.734267 0.678852 -0.003415
vn 0.999998 -0.000435 -0.001888
vn 0.000000 -1.000000 0.000000
vn 0.999997 -0.000335 -0.002400
vn 0.680424 0.678170 0.277685
vn 0.923641 0.000316 0.383258
vn 0.000000 -1.000000 0.000000
vn 0.923767 0.000429 0.382956
vn 0.520770 0.678435 0.518194
vn 0.705302 0.000217 0.708907
vn 0.000000 -1.000000 0.000001
vn 0.703660 -0.000311 0.710537
vn 0.282506 0.678709 0.677897
vn 0.381141 0.000530 0.924517
vn 0.000000 -1.000000 -0.000000
vn 0.378184 -0.000228 0.925730
vn 0.000542 -0.000202 1.000000
vn 0.003888 0.678485 0.734604
vn -0.000325 -0.000530 1.000000
vn 0.000000 -1.000000 0.000000
vn -0.385099 -0.000735 0.922875
vn -0.280747 0.678597 0.678739
vn -0.381988 0.000203 0.924167
vn 0.000000 -1.000000 -0.000001
vn -0.706681 0.000509 0.707532
vn -0.516232 0.678296 0.522895
vn -0.705986 0.000739 0.708226
vn 0.000000 -1.000000 -0.000001
vn -0.921602 0.000952 0.388135
vn -0.675329 0.678585 0.288883
vn -0.923851 -0.000474 0.382751
vn 0.000000 -1.000000 -0.000002
vn -0.999988 0.000379 0.004885
vn -0.734288 0.678809 0.006369
vn -0.999999 -0.000949 -0.000760
vn 0.000000 -1.000000 0.000000
vn -0.923527 -0.000173 -0.383533
vn -0.679089 0.678734 -0.279569
vn -0.923049 -0.000376 -0.384683
vn 0.000000 -1.000000 0.000000
vn -0.704150 0.000116 -0.710052
vn -0.518955 0.678686 -0.519683
vn -0.704301 0.000184 -0.709901
vn 0.000000 -1.000000 -0.000000
vn -0.383707 0.000152 -0.923455
vn -0.283985 0.678964 -0.677024
vn -0.383027 -0.000119 -0.923737
vn 0.000001 -1.000000 0.000001
vn -0.001918 0.678405 -0.734685
vn 0.001918 -0.000312 -0.999998
vn 0.000000 -1.000000 -0.000002
vn 0.001487 -0.000146 -0.999999
vn 0.282058 0.678576 -0.678217
vn 0.387919 0.000500 -0.921693
vn 0.000000 -1.000000 0.000006
vn 0.388467 0.000332 -0.921463
vn 0.518539 0.678512 -0.520326
vn 0.710248 0.001324 -0.703951
vn 0.000000 -1.000000 -0.000000
vn 0.715406 -0.000490 -0.698709
vn -0.100411 0.994106 -0.040866
vn -0.004006 0.659724 -0.751498
vn 0.282722 0.661978 -0.694157
vn 0.528146 0.661267 -0.532717
vn 0.692919 0.659559 -0.291284
vn 0.751483 0.659741 -0.003813
vn 0.693720 0.661575 0.284730
vn 0.532022 0.661148 0.528995
vn 0.286820 0.661051 0.693358
vn 0.001106 0.661702 0.749766
vn -0.282344 0.659552 0.696615
vn -0.531143 0.658885 0.532689
vn -0.693463 0.660753 0.287255
vn -0.750901 0.660411 0.002211
vn -0.694518 0.659117 -0.288462
vn -0.290037 0.661153 -0.691922
vn -0.530310 0.661888 -0.529788
vn -0.215364 0.976532 0.001884
vn -0.467155 0.861919 0.197133
vn -0.182864 0.965486 0.185468
vn -0.045755 0.992489 0.113455
vn -0.000018 0.996714 0.081000
vn 0.026350 0.997607 0.063920
vn 0.053578 0.997143 0.053245
vn 0.100370 0.994115 0.040762
vn 0.218105 0.975923 -0.002106
vn 0.468139 0.861893 -0.194901
vn 0.188541 0.963620 -0.189441
vn 0.045623 0.992598 -0.112551
vn -0.000552 0.996798 -0.079963
vn -0.026551 0.997620 -0.063628
vn -0.053365 0.997179 -0.052794
vn 0.519278 0.678497 0.519608
vn 0.680565 0.678685 0.276075
vn 0.280660 0.678609 0.678764
vn 0.001910 0.678529 0.734571
vn -0.280622 0.678755 0.678633
vn -0.516394 0.678567 0.522384
vn -0.677361 0.678340 0.284670
vn -0.734705 0.678385 0.001324
vn -0.677899 0.678507 -0.282986
vn -0.515751 0.678290 -0.523377
vn -0.281182 0.678661 -0.678496
vn -0.000621 0.678537 -0.734566
vn 0.283160 0.678604 -0.677729
vn 0.516969 0.678898 -0.521383
vn 0.677995 0.678328 -0.283184
vn 0.734307 0.678812 -0.002642
vn 0.090028 -0.995345 -0.034393
vn 0.098669 -0.995099 -0.006495
vn 0.086507 -0.995597 0.036091
vn 0.065919 -0.995592 0.066715
vn 0.035296 -0.995596 0.086849
vn 0.000230 -0.995670 0.092954
vn -0.035952 -0.995510 0.087567
vn -0.066702 -0.995564 0.066349
vn -0.086642 -0.995612 0.035349
vn -0.093791 -0.995592 -0.000480
vn -0.086643 -0.995563 -0.036709
vn -0.065646 -0.995625 -0.066496
vn -0.035986 -0.995564 -0.086930
vn 0.000363 -0.995574 -0.093985
vn 0.036250 -0.995623 -0.086144
vn 0.066487 -0.995620 -0.065722
vn 0.248626 -0.936420 -0.247593
vn 0.326254 -0.935790 -0.133620
vn 0.135586 -0.936433 -0.323590
vn 0.001165 -0.936204 -0.351454
vn -0.134178 -0.936390 -0.324298
vn -0.246096 -0.936607 -0.249408
vn -0.323901 -0.936079 -0.137275
vn -0.351380 -0.936231 -0.001812
vn -0.324983 -0.936392 0.132499
vn -0.249500 -0.936092 0.247955
vn -0.133171 -0.935820 0.326354
vn 0.001596 -0.936463 0.350762
vn 0.132722 -0.936164 0.325548
vn 0.247131 -0.936291 0.249570
vn 0.324236 -0.936274 0.135137
vn 0.344025 -0.938956 -0.002823
vn 0.246357 -0.768999 -0.589872
vn 0.451342 -0.769298 -0.452185
vn 0.591767 -0.768287 -0.244023
vn 0.639522 -0.768771 0.001751
vn 0.590180 -0.768809 0.246214
vn 0.450127 -0.768944 0.453995
vn 0.241565 -0.768512 0.592483
vn 0.002943 -0.769026 0.639210
vn -0.241064 -0.768528 0.592666
vn -0.454900 -0.768129 0.450603
vn -0.592187 -0.768901 0.241051
vn -0.639541 -0.768749 -0.003557
vn -0.588948 -0.768470 -0.250188
vn -0.448556 -0.769233 -0.455058
vn -0.244515 -0.768690 -0.591040
vn 0.001783 -0.768930 -0.639331
vn 0.000566 -0.490263 -0.871575
vn 0.333873 -0.489606 -0.805490
vn -0.334573 -0.489329 -0.805368
vn -0.612529 -0.490501 -0.619852
vn -0.802525 -0.490115 -0.340206
vn -0.872210 -0.489118 -0.003680
vn -0.806578 -0.491732 0.328074
vn -0.619883 -0.488630 0.613991
vn -0.327434 -0.489791 0.808017
vn 0.002701 -0.488165 0.872747
vn 0.330315 -0.488626 0.807550
vn 0.615246 -0.489675 0.617811
vn 0.804695 -0.490155 0.334984
vn 0.872209 -0.489130 0.001775
vn 0.805501 -0.488345 -0.335690
vn 0.614079 -0.488895 -0.619588
vn -0.384656 0.062904 -0.920914
vn -0.002451 0.061023 -0.998133
vn 0.379343 0.063141 -0.923099
vn 0.701763 0.064932 -0.709446
vn 0.920214 0.061480 -0.386557
vn 0.998141 0.060941 -0.000329
vn 0.922114 0.061515 0.381996
vn 0.706109 0.062338 0.705354
vn 0.379595 0.062013 0.923072
vn 0.000908 0.062265 0.998059
vn -0.375351 0.059492 0.924972
vn -0.707442 0.061404 0.704099
vn -0.923922 0.060335 0.377792
vn -0.998065 0.062171 -0.001404
vn -0.920064 0.060340 -0.387093
vn -0.703374 0.062563 -0.708061
vn -0.830872 0.000522 0.556463
vn -0.605668 0.680899 0.411757
vn -0.607442 0.680826 0.409255
vn -0.831697 -0.000499 0.555229
vn 0.000000 -1.000000 -0.000006
vn -0.080595 -0.995301 0.053676
vn -0.295973 -0.934764 0.196508
vn -0.532645 -0.768512 0.354511
vn -0.333958 0.914727 0.227478
vn -0.625957 0.656235 0.421347
vn -0.727947 -0.486495 0.483131
vn -0.830536 0.062684 0.553427
vn -0.556756 -0.000727 0.830676
vn -0.402591 0.680560 0.612175
vn -0.404435 0.681048 0.610415
vn -0.554626 0.000721 0.832100
vn 0.000000 -1.000000 0.000001
vn -0.553890 0.061224 0.830336
vn -0.054140 -0.995297 0.080324
vn -0.198499 -0.934751 0.294686
vn -0.357796 -0.768478 0.530494
vn -0.487295 -0.486804 0.724959
vn -0.417158 0.656701 0.628270
vn -0.097534 0.984117 0.148329
vn -0.195345 -0.000204 0.980735
vn -0.136845 0.680835 0.719540
vn -0.140562 0.680777 0.718878
vn -0.194696 0.000203 0.980864
vn 0.000000 -1.000000 -0.000001
vn -0.018956 0.995049 0.097565
vn -0.196092 0.061786 0.978637
vn -0.144554 0.656708 0.740162
vn -0.019795 -0.995270 0.095113
vn -0.169813 -0.488402 0.855936
vn -0.070698 -0.934669 0.348419
vn -0.126988 -0.768432 0.627205
vn 0.015098 0.997142 0.074022
vn 0.150373 0.656564 0.739129
vn 0.194122 0.062249 0.979000
vn 0.168716 -0.487120 0.856883
vn 0.000000 -1.000000 0.000006
vn 0.000000 -1.000000 0.000000
vn 0.194164 -0.000543 0.980969
vn 0.122615 -0.768547 0.627934
vn -0.980512 0.001032 0.196458
vn -0.716884 0.681065 0.149093
vn 0.068343 -0.934864 0.348366
vn 0.148434 0.680746 0.717323
vn 0.195890 0.000542 0.980626
vn 0.145186 0.680874 0.717866
vn -0.978923 0.061666 0.194699
vn 0.000000 -1.000000 0.000008
vn 0.012033 -0.982685 0.184892
vn 0.031102 -0.995192 0.092878
vn 0.041458 0.997254 0.061371
vn 0.421652 0.656524 0.625449
vn 0.555019 0.061517 0.829560
vn 0.000000 -1.000000 -0.000001
vn 0.555391 -0.000238 0.831589
vn 0.053437 -0.995291 0.080876
vn 0.196214 -0.934749 0.296218
vn 0.353104 -0.768471 0.533639
vn 0.483391 -0.487049 0.727404
vn 0.412323 0.680922 0.605256
vn 0.555971 0.000230 0.831201
vn 0.408729 0.680702 0.607935
vn 0.075734 0.995874 0.049991
vn 0.628962 0.656424 0.416552
vn 0.830065 0.061719 0.554241
vn 0.000000 -1.000000 0.000002
vn 0.000000 -1.000000 0.000001
vn 0.831045 -0.000326 0.556205
vn 0.073490 -0.995210 0.064476
vn 0.087378 -0.995227 0.043452
vn 0.294660 -0.934752 0.198528
vn 0.530510 -0.768485 0.357756
vn 0.725032 -0.486868 0.487123
vn 0.612054 0.680680 0.402572
vn 0.831626 0.000321 0.555337
vn -0.718226 0.680571 0.144827
vn 0.610242 0.680977 0.404816
vn 0.140825 0.989674 0.026729
vn 0.740642 0.656160 0.144582
vn 0.978659 0.062450 0.195769
vn 0.856212 -0.487015 0.172386
vn 0.627119 -0.768503 0.126986
vn 0.000000 -1.000000 -0.000000
vn 0.980974 0.000431 0.194140
vn 0.094846 -0.995308 0.019163
vn 0.348270 -0.934761 0.070212
vn 0.719715 0.680438 0.137892
vn 0.980715 -0.000436 0.195443
vn 0.718790 0.681110 0.139390
vn 0.310079 0.948613 -0.063127
vn 0.739413 0.656121 -0.150906
vn 0.978918 0.061652 -0.194726
vn 0.000000 -1.000000 -0.000001
vn 0.980924 -0.000345 -0.194390
vn 0.628055 -0.768526 -0.122124
vn 0.087612 -0.996073 -0.012752
vn 0.315261 -0.947234 -0.057955
vn 0.857227 -0.486758 -0.168014
vn 0.716862 0.681073 -0.149161
vn 0.980718 0.000358 -0.195426
vn -0.095188 -0.995287 0.018534
vn -0.628113 -0.768510 0.121929
vn 0.718266 0.680544 -0.144754
vn 0.328484 0.918226 -0.221267
vn 0.625678 0.657471 -0.419831
vn 0.828672 0.060706 -0.556433
vn 0.000000 -1.000000 -0.000006
vn 0.832583 -0.001444 -0.553898
vn 0.081049 -0.995301 -0.052976
vn 0.726549 -0.487403 -0.484319
vn 0.296432 -0.934760 -0.195838
vn 0.534003 -0.768414 -0.352676
vn 0.606384 0.680469 -0.411413
vn 0.830041 0.001479 -0.557701
vn 0.607133 0.681147 -0.409179
vn 0.096228 0.984663 -0.145532
vn 0.416682 0.656455 -0.628843
vn 0.554027 0.061270 -0.830241
vn 0.486719 -0.487045 -0.725184
vn 0.000000 -1.000000 -0.000007
vn 0.556386 -0.000537 -0.830924
vn 0.054345 -0.995295 -0.080215
vn 0.198691 -0.934739 -0.294593
vn 0.357994 -0.768465 -0.530379
vn 0.402247 0.680740 -0.612201
vn 0.555046 0.000521 -0.831820
vn 0.404726 0.680892 -0.610395
vn 0.019118 0.994812 -0.099921
vn 0.144091 0.656150 -0.740746
vn 0.194521 0.061712 -0.978955
vn 0.019329 -0.995284 -0.095058
vn 0.070714 -0.934745 -0.348213
vn 0.127737 -0.768508 -0.626960
vn 0.173030 -0.486782 -0.856215
vn -0.000000 -1.000000 -0.000005
vn 0.194537 0.000341 -0.980895
vn 0.136683 0.680799 -0.719604
vn 0.195614 -0.000329 -0.980681
vn 0.140676 0.680782 -0.718851
vn -0.015097 0.997127 -0.074228
vn -0.149699 0.656786 -0.739068
vn -0.195541 0.061361 -0.978774
vn -0.168313 -0.487045 -0.857005
vn -0.194871 -0.000152 -0.980829
vn -0.194871 -0.000152 -0.980829
vn -0.000001 -1.000000 -0.000002
vn -0.122290 -0.768508 -0.628045
vn -0.018518 -0.995293 -0.095123
vn -0.068064 -0.934742 -0.348747
vn -0.195303 0.000153 -0.980743
vn -0.195303 0.000153 -0.980743
vn -0.148222 0.680684 -0.717426
vn -0.148222 0.680684 -0.717426
vn -0.146003 0.680941 -0.717637
vn -0.146003 0.680941 -0.717637
vn -0.555453 -0.000120 -0.831548
vn 0.000000 -1.000000 0.000001
vn -0.041461 0.997260 -0.061269
vn -0.421363 0.656535 -0.625631
vn -0.348856 -0.934714 0.067896
vn -0.196193 -0.934688 -0.296423
vn -0.353171 -0.768452 -0.533621
vn -0.483393 -0.487039 -0.727409
vn -0.554951 0.061517 -0.829606
vn -0.555674 0.000117 -0.831400
vn -0.412618 0.681149 -0.604799
vn -0.408543 0.680514 -0.608270
vn -0.053451 -0.995324 -0.080458
vn -0.857355 -0.486613 0.167782
vn -0.076604 0.995803 -0.050087
vn -0.831453 0.000187 -0.555594
vn 0.000000 -1.000000 -0.000001
vn -0.628944 0.656143 -0.417020
vn -0.829557 0.062098 -0.554959
vn -0.080491 -0.995291 -0.054012
vn -0.294833 -0.934715 -0.198447
vn -0.530686 -0.768477 -0.357512
vn -0.724881 -0.486477 -0.487738
vn -0.831140 -0.000183 -0.556064
vn -0.612430 0.680876 -0.401669
vn -0.610215 0.680774 -0.405198
vn -0.142882 0.989364 -0.027282
vn -0.978837 0.062106 -0.194990
vn -0.740430 0.656357 -0.144773
vn -0.856240 -0.486902 -0.172565
vn -0.980731 -0.000393 -0.195362
vn 0.000000 -1.000000 0.000000
vn -0.095015 -0.995291 -0.019198
vn -0.348317 -0.934733 -0.070355
vn -0.627110 -0.768524 -0.126901
vn -0.980950 0.000397 -0.194258
vn -0.719476 0.680955 -0.136583
vn -0.719000 0.680669 -0.140456
vn -0.307064 0.949554 0.063715
vn -0.981142 -0.001016 0.193287
vn 0.000000 -1.000000 0.000000
vn -0.739425 0.656289 0.150119
f 144/144/144 114/114/114 292/292/292
f 239/239/239 152/152/152 140/140/140
f 48/48/48 364/364/364 353/353/353
f 134/134/134 358/358/358 357/357/357
f 174/174/174 148/148/148 291/291/291
f 233/233/233 244/244/244 118/118/118
f 216/216/216 82/82/82 84/84/84
f 11/11/11 115/115/115 266/266/266
f 201/201/201 390/390/390 83/83/83
f 115/115/115 143/143/143 267/267/267
f 84/84/84 390/390/390 201/201/201
f 390/390/390 84/84/84 82/82/82
f 82/82/82 216/216/216 378/378/378
f 378/378/378 85/85/85 65/65/65
f 65/65/65 222/222/222 366/366/366
f 366/366/366 86/86/86 96/96/96
f 96/96/96 229/229/229 354/354/354
f 354/354/354 87/87/87 95/95/95
f 336/336/336 247/247/247 88/88/88
f 336/336/336 88/88/88 94/94/94
f 94/94/94 88/88/88 259/259/259
f 94/94/94 259/259/259 324/324/324
f 324/324/324 259/259/259 89/89/89
f 324/324/324 89/89/89 93/93/93
f 93/93/93 89/89/89 274/274/274
f 93/93/93 274/274/274 312/312/312
f 312/312/312 274/274/274 90/90/90
f 312/312/312 90/90/90 92/92/92
f 92/92/92 90/90/90 286/286/286
f 92/92/92 286/286/286 300/300/300
f 300/300/300 286/286/286 91/91/91
f 38/38/38 104/104/104 272/272/272
f 238/238/238 272/272/272 103/103/103
f 237/237/237 391/391/391 39/39/39
f 388/388/388 389/389/389 104/104/104
f 387/387/387 382/382/382 43/43/43
f 386/386/386 381/381/381 165/165/165
f 376/376/376 377/377/377 105/105/105
f 375/375/375 367/367/367 47/47/47
f 174/174/174 291/291/291 294/294/294
f 348/348/348 350/350/350 107/107/107
f 343/343/343 339/339/339 161/161/161
f 333/333/333 335/335/335 108/108/108
f 334/334/334 332/332/332 60/60/60
f 331/331/331 327/327/327 127/127/127
f 330/330/330 326/326/326 179/179/179
f 321/321/321 323/323/323 109/109/109
f 322/322/322 317/317/317 64/64/64
f 320/320/320 315/315/315 176/176/176
f 309/309/309 311/311/311 110/110/110
f 310/310/310 304/304/304 4/4/4
f 306/306/306 302/302/302 181/181/181
f 295/295/295 299/299/299 111/111/111
f 293/293/293 291/291/291 148/148/148
f 294/294/294 288/288/288 182/182/182
f 283/283/283 285/285/285 112/112/112
f 284/284/284 280/280/280 12/12/12
f 282/282/282 278/278/278 149/149/149
f 277/277/277 276/276/276 183/183/183
f 270/270/270 273/273/273 98/98/98
f 271/271/271 264/264/264 16/16/16
f 269/269/269 261/261/261 184/184/184
f 256/256/256 258/258/258 97/97/97
f 257/257/257 251/251/251 20/20/20
f 255/255/255 249/249/249 185/185/185
f 245/245/245 239/239/239 140/140/140
f 236/236/236 232/232/232 170/170/170
f 228/228/228 226/226/226 169/169/169
f 152/152/152 170/170/170 226/226/226
f 217/217/217 220/220/220 27/27/27
f 215/215/215 216/216/216 84/84/84
f 214/214/214 210/210/210 188/188/188
f 205/205/205 208/208/208 31/31/31
f 203/203/203 204/204/204 189/189/189
f 168/168/168 188/188/188 204/204/204
f 199/199/199 200/200/200 155/155/155
f 193/193/193 196/196/196 35/35/35
f 33/33/33 35/35/35 391/391/391
f 121/121/121 137/137/137 356/356/356
f 392/392/392 297/297/297 122/122/122
f 36/36/36 121/121/121 297/297/297
f 243/243/243 393/393/393 78/78/78
f 189/189/189 77/77/77 393/393/393
f 393/393/393 390/390/390 82/82/82
f 77/77/77 83/83/83 390/390/390
f 42/42/42 105/105/105 389/389/389
f 37/37/37 39/39/39 382/382/382
f 122/122/122 136/136/136 385/385/385
f 239/239/239 236/236/236 152/152/152
f 218/218/218 219/219/219 100/100/100
f 206/206/206 207/207/207 101/101/101
f 194/194/194 195/195/195 102/102/102
f 124/124/124 134/134/134 357/357/357
f 53/53/53 108/108/108 351/351/351
f 379/379/379 380/380/380 79/79/79
f 365/365/365 243/243/243 190/190/190
f 202/202/202 201/201/201 83/83/83
f 75/75/75 85/85/85 216/216/216
f 223/223/223 224/224/224 75/75/75
f 231/231/231 230/230/230 74/74/74
f 248/248/248 247/247/247 87/87/87
f 260/260/260 259/259/259 88/88/88
f 275/275/275 274/274/274 89/89/89
f 287/287/287 286/286/286 90/90/90
f 301/301/301 300/300/300 91/91/91
f 314/314/314 313/313/313 68/68/68
f 325/325/325 324/324/324 93/93/93
f 338/338/338 337/337/337 66/66/66
f 360/360/360 355/355/355 80/80/80
f 374/374/374 370/370/370 192/192/192
f 177/177/177 80/80/80 337/337/337
f 179/179/179 67/67/67 313/313/313
f 185/185/185 73/73/73 230/230/230
f 186/186/186 74/74/74 224/224/224
f 167/167/167 189/189/189 243/243/243
f 190/190/190 78/78/78 380/380/380
f 165/165/165 191/191/191 370/370/370
f 175/175/175 181/181/181 288/288/288
f 144/144/144 148/148/148 278/278/278
f 173/173/173 183/183/183 261/261/261
f 172/172/172 184/184/184 249/249/249
f 151/151/151 171/171/171 232/232/232
f 298/298/298 365/365/365 166/166/166
f 156/156/156 166/166/166 381/381/381
f 373/373/373 374/374/374 164/164/164
f 192/192/192 81/81/81 355/355/355
f 159/159/159 163/163/163 339/339/339
f 145/145/145 162/162/162 315/315/315
f 176/176/176 180/180/180 302/302/302
f 308/308/308 306/306/306 175/175/175
f 319/319/319 320/320/320 146/146/146
f 161/161/161 178/178/178 326/326/326
f 345/345/345 343/343/343 160/160/160
f 359/359/359 360/360/360 177/177/177
f 157/157/157 165/165/165 374/374/374
f 385/385/385 386/386/386 157/157/157
f 155/155/155 167/167/167 365/365/365
f 138/138/138 154/154/154 200/200/200
f 169/169/169 187/187/187 210/210/210
f 227/227/227 228/228/228 153/153/153
f 254/254/254 255/255/255 171/171/171
f 268/268/268 269/269/269 172/172/172
f 281/281/281 282/282/282 143/143/143
f 131/131/131 145/145/145 320/320/320
f 146/146/146 176/176/176 306/306/306
f 147/147/147 175/175/175 294/294/294
f 114/114/114 144/144/144 282/282/282
f 149/149/149 173/173/173 269/269/269
f 150/150/150 172/172/172 255/255/255
f 141/141/141 151/151/151 236/236/236
f 140/140/140 152/152/152 228/228/228
f 213/213/213 214/214/214 168/168/168
f 198/198/198 199/199/199 137/137/137
f 356/356/356 298/298/298 156/156/156
f 136/136/136 156/156/156 386/386/386
f 372/372/372 373/373/373 158/158/158
f 164/164/164 192/192/192 360/360/360
f 133/133/133 159/159/159 343/343/343
f 329/329/329 330/330/330 162/162/162
f 160/160/160 161/161/161 330/330/330
f 344/344/344 345/345/345 132/132/132
f 358/358/358 359/359/359 163/163/163
f 135/135/135 157/157/157 373/373/373
f 384/384/384 385/385/385 135/135/135
f 137/137/137 155/155/155 298/298/298
f 153/153/153 169/169/169 214/214/214
f 225/225/225 227/227/227 139/139/139
f 240/240/240 242/242/242 99/99/99
f 253/253/253 254/254/254 151/151/151
f 267/267/267 268/268/268 150/150/150
f 358/358/358 134/134/134 158/158/158
f 307/307/307 308/308/308 147/147/147
f 318/318/318 319/319/319 129/129/129
f 328/328/328 329/329/329 145/145/145
f 129/129/129 146/146/146 308/308/308
f 130/130/130 147/147/147 291/291/291
f 174/174/174 182/182/182 276/276/276
f 143/143/143 149/149/149 268/268/268
f 142/142/142 150/150/150 254/254/254
f 212/212/212 213/213/213 154/154/154
f 204/204/204 202/202/202 77/77/77
f 297/297/297 356/356/356 136/136/136
f 371/371/371 372/372/372 134/134/134
f 158/158/158 164/164/164 359/359/359
f 357/357/357 358/358/358 159/159/159
f 383/383/383 384/384/384 123/123/123
f 34/34/34 103/103/103 195/195/195
f 29/29/29 31/31/31 196/196/196
f 32/32/32 120/120/120 198/198/198
f 197/197/197 198/198/198 121/121/121
f 120/120/120 138/138/138 199/199/199
f 76/76/76 84/84/84 201/201/201
f 154/154/154 168/168/168 203/203/203
f 200/200/200 203/203/203 167/167/167
f 188/188/188 76/76/76 202/202/202
f 30/30/30 102/102/102 207/207/207
f 25/25/25 27/27/27 208/208/208
f 28/28/28 119/119/119 211/211/211
f 209/209/209 211/211/211 120/120/120
f 119/119/119 139/139/139 212/212/212
f 211/211/211 212/212/212 138/138/138
f 139/139/139 153/153/153 213/213/213
f 187/187/187 75/75/75 215/215/215
f 210/210/210 215/215/215 76/76/76
f 26/26/26 101/101/101 219/219/219
f 21/21/21 23/23/23 220/220/220
f 74/74/74 86/86/86 222/222/222
f 224/224/224 222/222/222 85/85/85
f 24/24/24 118/118/118 225/225/225
f 221/221/221 225/225/225 119/119/119
f 170/170/170 186/186/186 223/223/223
f 226/226/226 223/223/223 187/187/187
f 118/118/118 140/140/140 227/227/227
f 73/73/73 87/87/87 229/229/229
f 230/230/230 229/229/229 86/86/86
f 171/171/171 185/185/185 231/231/231
f 232/232/232 231/231/231 186/186/186
f 19/19/19 117/117/117 246/246/246
f 117/117/117 141/141/141 239/239/239
f 18/18/18 20/20/20 235/235/235
f 241/241/241 235/235/235 23/23/23
f 22/22/22 100/100/100 242/242/242
f 72/72/72 88/88/88 247/247/247
f 184/184/184 72/72/72 248/248/248
f 249/249/249 248/248/248 73/73/73
f 15/15/15 116/116/116 252/252/252
f 250/250/250 252/252/252 117/117/117
f 116/116/116 142/142/142 253/253/253
f 252/252/252 253/253/253 141/141/141
f 14/14/14 16/16/16 251/251/251
f 17/17/17 99/99/99 258/258/258
f 71/71/71 89/89/89 259/259/259
f 183/183/183 71/71/71 260/260/260
f 261/261/261 260/260/260 72/72/72
f 263/263/263 265/265/265 116/116/116
f 265/265/265 267/267/267 142/142/142
f 10/10/10 12/12/12 264/264/264
f 13/13/13 97/97/97 273/273/273
f 70/70/70 90/90/90 274/274/274
f 182/182/182 70/70/70 275/275/275
f 276/276/276 275/275/275 71/71/71
f 148/148/148 174/174/174 277/277/277
f 278/278/278 277/277/277 173/173/173
f 7/7/7 114/114/114 281/281/281
f 279/279/279 281/281/281 115/115/115
f 6/6/6 8/8/8 280/280/280
f 9/9/9 98/98/98 285/285/285
f 69/69/69 91/91/91 286/286/286
f 181/181/181 69/69/69 287/287/287
f 288/288/288 287/287/287 70/70/70
f 3/3/3 113/113/113 292/292/292
f 289/289/289 292/292/292 114/114/114
f 113/113/113 130/130/130 293/293/293
f 2/2/2 4/4/4 290/290/290
f 296/296/296 290/290/290 8/8/8
f 299/299/299 5/5/5 112/112/112
f 68/68/68 92/92/92 300/300/300
f 180/180/180 68/68/68 301/301/301
f 302/302/302 301/301/301 69/69/69
f 63/63/63 128/128/128 305/305/305
f 303/303/303 305/305/305 113/113/113
f 128/128/128 129/129/129 307/307/307
f 305/305/305 307/307/307 130/130/130
f 62/62/62 64/64/64 304/304/304
f 1/1/1 111/111/111 311/311/311
f 67/67/67 93/93/93 312/312/312
f 313/313/313 312/312/312 92/92/92
f 162/162/162 179/179/179 314/314/314
f 315/315/315 314/314/314 180/180/180
f 59/59/59 127/127/127 318/318/318
f 316/316/316 318/318/318 128/128/128
f 127/127/127 131/131/131 319/319/319
f 58/58/58 60/60/60 317/317/317
f 61/61/61 110/110/110 323/323/323
f 66/66/66 94/94/94 324/324/324
f 178/178/178 66/66/66 325/325/325
f 326/326/326 325/325/325 67/67/67
f 126/126/126 132/132/132 328/328/328
f 327/327/327 328/328/328 131/131/131
f 132/132/132 160/160/160 329/329/329
f 55/55/55 126/126/126 327/327/327
f 54/54/54 56/56/56 332/332/332
f 57/57/57 109/109/109 335/335/335
f 80/80/80 95/95/95 336/336/336
f 337/337/337 336/336/336 94/94/94
f 163/163/163 177/177/177 338/338/338
f 339/339/339 338/338/338 178/178/178
f 52/52/52 125/125/125 344/344/344
f 342/342/342 344/344/344 126/126/126
f 125/125/125 133/133/133 345/345/345
f 49/49/49 51/51/51 340/340/340
f 347/347/347 341/341/341 56/56/56
f 81/81/81 96/96/96 354/354/354
f 355/355/355 354/354/354 95/95/95
f 353/353/353 364/364/364 125/125/125
f 362/362/362 363/363/363 106/106/106
f 364/364/364 357/357/357 133/133/133
f 45/45/45 47/47/47 352/352/352
f 361/361/361 352/352/352 51/51/51
f 50/50/50 107/107/107 363/363/363
f 79/79/79 65/65/65 366/366/366
f 369/369/369 366/366/366 96/96/96
f 191/191/191 79/79/79 369/369/369
f 370/370/370 369/369/369 81/81/81
f 44/44/44 123/123/123 371/371/371
f 368/368/368 371/371/371 124/124/124
f 123/123/123 135/135/135 372/372/372
f 41/41/41 43/43/43 367/367/367
f 46/46/46 106/106/106 377/377/377
f 78/78/78 82/82/82 378/378/378
f 380/380/380 378/378/378 65/65/65
f 166/166/166 190/190/190 379/379/379
f 381/381/381 379/379/379 191/191/191
f 40/40/40 122/122/122 384/384/384
f 95/95/95 247/247/247 336/336/336
f 247/247/247 95/95/95 87/87/87
f 87/87/87 354/354/354 229/229/229
f 229/229/229 96/96/96 86/86/86
f 86/86/86 366/366/366 222/222/222
f 222/222/222 65/65/65 85/85/85
f 85/85/85 378/378/378 216/216/216
f 233/233/233 118/118/118 24/24/24
f 11/11/11 266/266/266 262/262/262
f 115/115/115 267/267/267 266/266/266
f 38/38/38 272/272/272 238/238/238
f 238/238/238 103/103/103 34/34/34
f 237/237/237 39/39/39 37/37/37
f 388/388/388 104/104/104 38/38/38
f 387/387/387 43/43/43 41/41/41
f 386/386/386 165/165/165 157/157/157
f 376/376/376 105/105/105 42/42/42
f 375/375/375 47/47/47 45/45/45
f 40/40/40 384/384/384 383/383/383
f 348/348/348 107/107/107 50/50/50
f 343/343/343 161/161/161 160/160/160
f 333/333/333 108/108/108 53/53/53
f 334/334/334 60/60/60 58/58/58
f 331/331/331 127/127/127 59/59/59
f 330/330/330 179/179/179 162/162/162
f 321/321/321 109/109/109 57/57/57
f 322/322/322 64/64/64 62/62/62
f 320/320/320 176/176/176 146/146/146
f 309/309/309 110/110/110 61/61/61
f 310/310/310 4/4/4 2/2/2
f 306/306/306 181/181/181 175/175/175
f 295/295/295 111/111/111 1/1/1
f 293/293/293 148/148/148 144/144/144
f 294/294/294 182/182/182 174/174/174
f 283/283/283 112/112/112 5/5/5
f 284/284/284 12/12/12 10/10/10
f 282/282/282 149/149/149 143/143/143
f 277/277/277 183/183/183 173/173/173
f 270/270/270 98/98/98 9/9/9
f 271/271/271 16/16/16 14/14/14
f 269/269/269 184/184/184 172/172/172
f 256/256/256 97/97/97 13/13/13
f 257/257/257 20/20/20 18/18/18
f 255/255/255 185/185/185 171/171/171
f 245/245/245 140/140/140 118/118/118
f 236/236/236 170/170/170 152/152/152
f 228/228/228 169/169/169 153/153/153
f 152/152/152 226/226/226 228/228/228
f 217/217/217 27/27/27 25/25/25
f 215/215/215 84/84/84 76/76/76
f 214/214/214 188/188/188 168/168/168
f 205/205/205 31/31/31 29/29/29
f 203/203/203 189/189/189 167/167/167
f 168/168/168 204/204/204 203/203/203
f 199/199/199 155/155/155 137/137/137
f 193/193/193 35/35/35 33/33/33
f 33/33/33 391/391/391 237/237/237
f 121/121/121 356/356/356 297/297/297
f 392/392/392 122/122/122 40/40/40
f 36/36/36 297/297/297 392/392/392
f 243/243/243 78/78/78 190/190/190
f 189/189/189 393/393/393 243/243/243
f 393/393/393 82/82/82 78/78/78
f 77/77/77 390/390/390 393/393/393
f 42/42/42 389/389/389 388/388/388
f 37/37/37 382/382/382 387/387/387
f 122/122/122 385/385/385 384/384/384
f 218/218/218 100/100/100 22/22/22
f 206/206/206 101/101/101 26/26/26
f 194/194/194 102/102/102 30/30/30
f 124/124/124 357/357/357 364/364/364
f 53/53/53 351/351/351 349/349/349
f 379/379/379 79/79/79 191/191/191
f 365/365/365 190/190/190 166/166/166
f 202/202/202 83/83/83 77/77/77
f 75/75/75 216/216/216 215/215/215
f 223/223/223 75/75/75 187/187/187
f 231/231/231 74/74/74 186/186/186
f 248/248/248 87/87/87 73/73/73
f 260/260/260 88/88/88 72/72/72
f 275/275/275 89/89/89 71/71/71
f 287/287/287 90/90/90 70/70/70
f 301/301/301 91/91/91 69/69/69
f 314/314/314 68/68/68 180/180/180
f 325/325/325 93/93/93 67/67/67
f 338/338/338 66/66/66 178/178/178
f 360/360/360 80/80/80 177/177/177
f 374/374/374 192/192/192 164/164/164
f 177/177/177 337/337/337 338/338/338
f 179/179/179 313/313/313 314/314/314
f 185/185/185 230/230/230 231/231/231
f 186/186/186 224/224/224 223/223/223
f 167/167/167 243/243/243 365/365/365
f 190/190/190 380/380/380 379/379/379
f 165/165/165 370/370/370 374/374/374
f 175/175/175 288/288/288 294/294/294
f 144/144/144 278/278/278 282/282/282
f 173/173/173 261/261/261 269/269/269
f 172/172/172 249/249/249 255/255/255
f 151/151/151 232/232/232 236/236/236
f 298/298/298 166/166/166 156/156/156
f 156/156/156 381/381/381 386/386/386
f 373/373/373 164/164/164 158/158/158
f 192/192/192 355/355/355 360/360/360
f 159/159/159 339/339/339 343/343/343
f 145/145/145 315/315/315 320/320/320
f 176/176/176 302/302/302 306/306/306
f 308/308/308 175/175/175 147/147/147
f 319/319/319 146/146/146 129/129/129
f 161/161/161 326/326/326 330/330/330
f 345/345/345 160/160/160 132/132/132
f 359/359/359 177/177/177 163/163/163
f 157/157/157 374/374/374 373/373/373
f 385/385/385 157/157/157 135/135/135
f 155/155/155 365/365/365 298/298/298
f 138/138/138 200/200/200 199/199/199
f 169/169/169 210/210/210 214/214/214
f 227/227/227 153/153/153 139/139/139
f 254/254/254 171/171/171 151/151/151
f 268/268/268 172/172/172 150/150/150
f 281/281/281 143/143/143 115/115/115
f 131/131/131 320/320/320 319/319/319
f 146/146/146 306/306/306 308/308/308
f 147/147/147 294/294/294 291/291/291
f 114/114/114 282/282/282 281/281/281
f 149/149/149 269/269/269 268/268/268
f 150/150/150 255/255/255 254/254/254
f 141/141/141 236/236/236 239/239/239
f 140/140/140 228/228/228 227/227/227
f 213/213/213 168/168/168 154/154/154
f 198/198/198 137/137/137 121/121/121
f 356/356/356 156/156/156 136/136/136
f 136/136/136 386/386/386 385/385/385
f 372/372/372 158/158/158 134/134/134
f 164/164/164 360/360/360 359/359/359
f 133/133/133 343/343/343 345/345/345
f 329/329/329 162/162/162 145/145/145
f 160/160/160 330/330/330 329/329/329
f 344/344/344 132/132/132 126/126/126
f 358/358/358 163/163/163 159/159/159
f 135/135/135 373/373/373 372/372/372
f 384/384/384 135/135/135 123/123/123
f 137/137/137 298/298/298 356/356/356
f 153/153/153 214/214/214 213/213/213
f 225/225/225 139/139/139 119/119/119
f 240/240/240 99/99/99 17/17/17
f 253/253/253 151/151/151 141/141/141
f 267/267/267 150/150/150 142/142/142
f 144/144/144 292/292/292 293/293/293
f 307/307/307 147/147/147 130/130/130
f 318/318/318 129/129/129 128/128/128
f 328/328/328 145/145/145 131/131/131
f 129/129/129 308/308/308 307/307/307
f 130/130/130 291/291/291 293/293/293
f 174/174/174 276/276/276 277/277/277
f 143/143/143 268/268/268 267/267/267
f 142/142/142 254/254/254 253/253/253
f 212/212/212 154/154/154 138/138/138
f 204/204/204 77/77/77 189/189/189
f 297/297/297 136/136/136 122/122/122
f 371/371/371 134/134/134 124/124/124
f 158/158/158 359/359/359 358/358/358
f 357/357/357 159/159/159 133/133/133
f 383/383/383 123/123/123 44/44/44
f 34/34/34 195/195/195 194/194/194
f 29/29/29 196/196/196 193/193/193
f 32/32/32 198/198/198 197/197/197
f 197/197/197 121/121/121 36/36/36
f 120/120/120 199/199/199 198/198/198
f 76/76/76 201/201/201 202/202/202
f 154/154/154 203/203/203 200/200/200
f 200/200/200 167/167/167 155/155/155
f 188/188/188 202/202/202 204/204/204
f 30/30/30 207/207/207 206/206/206
f 25/25/25 208/208/208 205/205/205
f 28/28/28 211/211/211 209/209/209
f 209/209/209 120/120/120 32/32/32
f 119/119/119 212/212/212 211/211/211
f 211/211/211 138/138/138 120/120/120
f 139/139/139 213/213/213 212/212/212
f 187/187/187 215/215/215 210/210/210
f 210/210/210 76/76/76 188/188/188
f 26/26/26 219/219/219 218/218/218
f 21/21/21 220/220/220 217/217/217
f 74/74/74 222/222/222 224/224/224
f 224/224/224 85/85/85 75/75/75
f 24/24/24 225/225/225 221/221/221
f 221/221/221 119/119/119 28/28/28
f 170/170/170 223/223/223 226/226/226
f 226/226/226 187/187/187 169/169/169
f 118/118/118 227/227/227 225/225/225
f 73/73/73 229/229/229 230/230/230
f 230/230/230 86/86/86 74/74/74
f 171/171/171 231/231/231 232/232/232
f 232/232/232 186/186/186 170/170/170
f 19/19/19 246/246/246 234/234/234
f 117/117/117 239/239/239 246/246/246
f 18/18/18 235/235/235 241/241/241
f 241/241/241 23/23/23 21/21/21
f 22/22/22 242/242/242 240/240/240
f 72/72/72 247/247/247 248/248/248
f 184/184/184 248/248/248 249/249/249
f 249/249/249 73/73/73 185/185/185
f 15/15/15 252/252/252 250/250/250
f 250/250/250 117/117/117 19/19/19
f 116/116/116 253/253/253 252/252/252
f 252/252/252 141/141/141 117/117/117
f 14/14/14 251/251/251 257/257/257
f 17/17/17 258/258/258 256/256/256
f 71/71/71 259/259/259 260/260/260
f 183/183/183 260/260/260 261/261/261
f 261/261/261 72/72/72 184/184/184
f 263/263/263 116/116/116 15/15/15
f 265/265/265 142/142/142 116/116/116
f 10/10/10 264/264/264 271/271/271
f 13/13/13 273/273/273 270/270/270
f 70/70/70 274/274/274 275/275/275
f 182/182/182 275/275/275 276/276/276
f 276/276/276 71/71/71 183/183/183
f 148/148/148 277/277/277 278/278/278
f 278/278/278 173/173/173 149/149/149
f 7/7/7 281/281/281 279/279/279
f 279/279/279 115/115/115 11/11/11
f 6/6/6 280/280/280 284/284/284
f 9/9/9 285/285/285 283/283/283
f 69/69/69 286/286/286 287/287/287
f 181/181/181 287/287/287 288/288/288
f 288/288/288 70/70/70 182/182/182
f 3/3/3 292/292/292 289/289/289
f 289/289/289 114/114/114 7/7/7
f 113/113/113 293/293/293 292/292/292
f 2/2/2 290/290/290 296/296/296
f 296/296/296 8/8/8 6/6/6
f 364/364/364 48/48/48 124/124/124
f 68/68/68 300/300/300 301/301/301
f 180/180/180 301/301/301 302/302/302
f 302/302/302 69/69/69 181/181/181
f 63/63/63 305/305/305 303/303/303
f 303/303/303 113/113/113 3/3/3
f 128/128/128 307/307/307 305/305/305
f 305/305/305 130/130/130 113/113/113
f 62/62/62 304/304/304 310/310/310
f 1/1/1 311/311/311 309/309/309
f 67/67/67 312/312/312 313/313/313
f 313/313/313 92/92/92 68/68/68
f 162/162/162 314/314/314 315/315/315
f 315/315/315 180/180/180 176/176/176
f 59/59/59 318/318/318 316/316/316
f 316/316/316 128/128/128 63/63/63
f 127/127/127 319/319/319 318/318/318
f 58/58/58 317/317/317 322/322/322
f 61/61/61 323/323/323 321/321/321
f 66/66/66 324/324/324 325/325/325
f 178/178/178 325/325/325 326/326/326
f 326/326/326 67/67/67 179/179/179
f 126/126/126 328/328/328 327/327/327
f 327/327/327 131/131/131 127/127/127
f 132/132/132 329/329/329 328/328/328
f 55/55/55 327/327/327 331/331/331
f 54/54/54 332/332/332 334/334/334
f 57/57/57 335/335/335 333/333/333
f 80/80/80 336/336/336 337/337/337
f 337/337/337 94/94/94 66/66/66
f 163/163/163 338/338/338 339/339/339
f 339/339/339 178/178/178 161/161/161
f 52/52/52 344/344/344 342/342/342
f 342/342/342 126/126/126 55/55/55
f 125/125/125 345/345/345 344/344/344
f 49/49/49 340/340/340 346/346/346
f 347/347/347 56/56/56 54/54/54
f 81/81/81 354/354/354 355/355/355
f 355/355/355 95/95/95 80/80/80
f 353/353/353 125/125/125 52/52/52
f 362/362/362 106/106/106 46/46/46
f 364/364/364 133/133/133 125/125/125
f 45/45/45 352/352/352 361/361/361
f 361/361/361 51/51/51 49/49/49
f 50/50/50 363/363/363 362/362/362
f 79/79/79 366/366/366 369/369/369
f 369/369/369 96/96/96 81/81/81
f 191/191/191 369/369/369 370/370/370
f 370/370/370 81/81/81 192/192/192
f 44/44/44 371/371/371 368/368/368
f 368/368/368 124/124/124 48/48/48
f 123/123/123 372/372/372 371/371/371
f 41/41/41 367/367/367 375/375/375
f 46/46/46 377/377/377 376/376/376
f 78/78/78 378/378/378 380/380/380
f 380/380/380 65/65/65 79/79/79
f 166/166/166 379/379/379 381/381/381
f 381/381/381 191/191/191 165/165/165
f 5/5/5 299/299/299 295/295/295
