# GloomhavenVR - pico-4 left 'button_primary' (glTF material 0)
# generated by controllers_pipeline.py from webxr-input-profiles (MIT)
o pico4_left_button_primary__m0
v -0.000604 0.026692 0.000670
v -0.000367 0.026916 0.002443
v -0.003600 0.020183 -0.000847
v 0.001171 0.026054 0.007036
v 0.001171 0.026054 0.007036
v -0.004740 0.020265 0.000638
v -0.001925 0.025647 -0.002049
v -0.001925 0.025647 -0.002049
v -0.005223 0.020357 0.002447
v -0.000687 0.026083 0.007282
v -0.000687 0.026083 0.007282
v -0.004977 0.020443 0.004303
v -0.000067 0.025618 -0.002294
v -0.000067 0.025618 -0.002294
v -0.004038 0.020512 0.005924
v -0.002498 0.026077 0.006797
v -0.002498 0.026077 0.006797
v -0.002551 0.020552 0.007062
v 0.001744 0.025623 -0.001810
v 0.001744 0.025623 -0.001810
v 0.001744 0.025623 -0.001810
v -0.000740 0.020558 0.007546
v -0.003985 0.026037 0.005659
v -0.003985 0.026037 0.005659
v 0.001118 0.020528 0.007301
v 0.003231 0.025664 -0.000671
v 0.003231 0.025664 -0.000671
v 0.002740 0.020468 0.006364
v -0.004924 0.025968 0.004038
v -0.004924 0.025968 0.004038
v 0.003879 0.020386 0.004879
v 0.004170 0.025733 0.000949
v 0.004170 0.025733 0.000949
v 0.004363 0.020294 0.003071
v -0.005170 0.025882 0.002182
v -0.005170 0.025882 0.002182
v 0.004116 0.020207 0.001215
v 0.004416 0.025819 0.002806
v 0.004416 0.025819 0.002806
v 0.003178 0.020139 -0.000406
v -0.004687 0.025790 0.000373
v -0.004687 0.025790 0.000373
v 0.001690 0.020098 -0.001545
v 0.001690 0.020098 -0.001545
v 0.003932 0.025911 0.004614
v 0.003932 0.025911 0.004614
v -0.000120 0.020093 -0.002029
v -0.003547 0.025708 -0.001112
v -0.003547 0.025708 -0.001112
v -0.001978 0.020122 -0.001784
v 0.002793 0.025993 0.006099
v 0.002793 0.025993 0.006099
v -0.003068 0.026401 0.000399
v -0.002149 0.026803 0.002684
v -0.003739 0.026528 0.002908
v -0.001461 0.026854 0.003874
v -0.002437 0.026624 0.005156
v -0.001784 0.026737 0.001376
v 0.000075 0.026631 0.005827
v -0.000132 0.026858 0.004229
v 0.002326 0.026547 0.004528
v 0.001413 0.026746 0.002214
v 0.002997 0.026421 0.002020
v 0.000725 0.026696 0.001025
v 0.001695 0.026325 -0.000229
v 0.001059 0.026813 0.003542
v -0.000817 0.026317 -0.000900
v 0.000273 0.026069 0.007247
v 0.000273 0.026069 0.007247
v 0.000163 0.020544 0.007524
v 0.001980 0.026027 0.006676
v 0.001980 0.026027 0.006676
v 0.001974 0.020500 0.006916
v 0.003422 0.025957 0.005435
v 0.003422 0.025957 0.005435
v 0.003372 0.020431 0.005694
v 0.004208 0.020344 0.004007
v 0.004267 0.025869 0.003735
v 0.004267 0.025869 0.003735
v 0.004397 0.025783 0.001924
v 0.004397 0.025783 0.001924
v 0.004332 0.020255 0.002146
v 0.003792 0.025702 0.000101
v 0.003792 0.025702 0.000101
v 0.003736 0.020177 0.000378
v 0.002600 0.025648 -0.001278
v 0.002600 0.025648 -0.001278
v 0.002473 0.020121 -0.001059
v 0.000935 0.025622 -0.002127
v 0.000935 0.025622 -0.002127
v 0.000788 0.020096 -0.001880
v -0.000967 0.025632 -0.002273
v -0.000967 0.025632 -0.002273
v -0.001059 0.020107 -0.001998
v -0.002744 0.025674 -0.001686
v -0.002744 0.025674 -0.001686
v -0.002824 0.020150 -0.001403
v -0.004154 0.025743 -0.000475
v -0.004154 0.025743 -0.000475
v -0.004236 0.020220 -0.000174
v -0.005006 0.025830 0.001212
v -0.005006 0.025830 0.001212
v -0.005078 0.020307 0.001530
v -0.005135 0.025922 0.003136
v -0.005135 0.025922 0.003136
v -0.005194 0.020396 0.003406
v -0.004529 0.026000 0.004899
v -0.004529 0.026000 0.004899
v -0.004609 0.020473 0.005134
v -0.003349 0.026053 0.006259
v -0.003349 0.026053 0.006259
v -0.003369 0.020529 0.006559
v -0.001630 0.026079 0.007123
v -0.001630 0.026079 0.007123
v -0.001641 0.020554 0.007406
v -0.001217 0.026625 0.005755
v -0.000768 0.026856 0.004059
v -0.003279 0.026568 0.004226
v -0.001777 0.026830 0.003328
v -0.003668 0.026455 0.001624
v -0.001976 0.026772 0.002064
v -0.002046 0.026352 -0.000495
v -0.001180 0.026714 0.001014
v 0.000512 0.026324 -0.000817
v 0.000048 0.026694 0.000844
v 0.002560 0.026382 0.000740
v 0.001056 0.026720 0.001598
v 0.002923 0.026494 0.003313
v 0.001242 0.026779 0.002853
v 0.001372 0.026594 0.005383
v 0.000507 0.026834 0.003860
vt 0.327114 0.637353
vt 0.320334 0.632365
vt 0.360136 0.667613
vt 0.304658 0.615192
vt 0.314856 0.717600
vt 0.357187 0.675995
vt 0.338467 0.650577
vt 0.336023 0.649530
vt 0.354238 0.684381
vt 0.317814 0.709225
vt 0.299281 0.622498
vt 0.351287 0.692763
vt 0.341416 0.642195
vt 0.341416 0.642195
vt 0.348333 0.701148
vt 0.320770 0.700847
vt 0.297112 0.631307
vt 0.345378 0.709529
vt 0.343570 0.633448
vt 0.297112 0.767883
vt 0.344378 0.633778
vt 0.342420 0.717910
vt 0.323723 0.692474
vt 0.298476 0.640272
vt 0.339461 0.726290
vt 0.342211 0.624459
vt 0.300065 0.759498
vt 0.336501 0.734668
vt 0.326675 0.684096
vt 0.303164 0.648036
vt 0.333542 0.743045
vt 0.337518 0.616685
vt 0.303020 0.751118
vt 0.330585 0.751420
vt 0.329623 0.675719
vt 0.310469 0.653415
vt 0.327628 0.759798
vt 0.330205 0.611302
vt 0.305979 0.742734
vt 0.324676 0.768171
vt 0.332572 0.667338
vt 0.319278 0.655592
vt 0.321724 0.776549
vt 0.368983 0.642469
vt 0.321393 0.609130
vt 0.308938 0.734355
vt 0.366033 0.650848
vt 0.335519 0.658958
vt 0.328252 0.654229
vt 0.363084 0.659230
vt 0.312423 0.610499
vt 0.311897 0.725977
vt 0.322747 0.648212
vt 0.315346 0.639141
vt 0.310835 0.645273
vt 0.312015 0.633628
vt 0.304490 0.634772
vt 0.321548 0.640602
vt 0.307428 0.622863
vt 0.313558 0.627376
vt 0.317927 0.616514
vt 0.325325 0.625589
vt 0.329842 0.619453
vt 0.328656 0.631103
vt 0.336190 0.629964
vt 0.319070 0.624045
vt 0.333252 0.641863
vt 0.301673 0.618513
vt 0.316321 0.713501
vt 0.341019 0.721935
vt 0.308080 0.612612
vt 0.313470 0.721541
vt 0.337992 0.730471
vt 0.316712 0.609400
vt 0.310452 0.730045
vt 0.335047 0.738770
vt 0.332061 0.747188
vt 0.325899 0.609786
vt 0.307442 0.738533
vt 0.333889 0.613466
vt 0.304566 0.746651
vt 0.329106 0.755533
vt 0.340210 0.620288
vt 0.301532 0.755238
vt 0.326157 0.763876
vt 0.343278 0.628566
vt 0.298660 0.763385
vt 0.323139 0.772440
vt 0.342991 0.637632
vt 0.342991 0.637632
vt 0.367451 0.646743
vt 0.339988 0.646194
vt 0.339192 0.645965
vt 0.364545 0.655025
vt 0.337057 0.654562
vt 0.332554 0.652143
vt 0.361626 0.663360
vt 0.334146 0.662877
vt 0.324126 0.655299
vt 0.358693 0.671738
vt 0.331181 0.671341
vt 0.314975 0.654977
vt 0.355712 0.680248
vt 0.328152 0.679978
vt 0.306505 0.651035
vt 0.352762 0.688660
vt 0.325217 0.688326
vt 0.300434 0.644349
vt 0.349892 0.696822
vt 0.322380 0.696376
vt 0.297414 0.636173
vt 0.346917 0.705265
vt 0.319339 0.704980
vt 0.297759 0.626868
vt 0.343877 0.713865
vt 0.304771 0.628363
vt 0.312816 0.630365
vt 0.306405 0.640386
vt 0.313539 0.636159
vt 0.316308 0.647919
vt 0.318287 0.639837
vt 0.328772 0.646018
vt 0.324399 0.638941
vt 0.335909 0.636185
vt 0.327873 0.634287
vt 0.334119 0.624186
vt 0.327054 0.628445
vt 0.324314 0.616824
vt 0.322314 0.624843
vt 0.312214 0.618508
vt 0.316515 0.625585
vn -0.013286 0.982198 -0.187376
vn 0.009805 0.998818 -0.047605
vn -0.656863 -0.030108 -0.753409
vn 0.136596 0.932571 0.334144
vn 0.317500 0.042279 0.947315
vn -0.896703 -0.012707 -0.442450
vn -0.314285 -0.042554 -0.948374
vn -0.117688 0.897546 -0.424924
vn -0.998049 0.007145 -0.062024
vn -0.063780 0.049238 0.996749
vn -0.020104 0.935232 0.353464
vn -0.946729 0.025508 0.321021
vn 0.033431 0.894097 -0.446624
vn 0.075333 -0.048331 -0.995986
vn -0.754804 0.038919 0.654795
vn -0.448362 0.048190 0.892552
vn -0.166182 0.934957 0.313432
vn -0.440569 0.047428 0.896465
vn 0.193387 0.895088 -0.401770
vn 0.454047 -0.047040 -0.889735
vn 0.454047 -0.047040 -0.889735
vn -0.063946 0.049211 0.996739
vn -0.755426 0.039011 0.654071
vn -0.293614 0.931326 0.215457
vn 0.318400 0.042078 0.947022
vn 0.310698 0.897785 -0.312167
vn 0.757192 -0.039331 -0.652007
vn 0.658750 0.029562 0.751781
vn -0.945677 0.025229 0.324128
vn -0.364529 0.926939 0.088894
vn 0.896129 0.012375 0.443622
vn 0.392943 0.904158 -0.167614
vn 0.948988 -0.024426 -0.314365
vn 0.997684 -0.007252 0.067632
vn -0.997754 0.007208 -0.066593
vn -0.391082 0.917603 -0.071130
vn 0.947838 -0.024939 -0.317776
vn 0.410795 0.911540 -0.018492
vn 0.997372 -0.006572 0.072155
vn 0.752206 -0.040130 -0.657705
vn -0.892976 -0.012504 -0.449931
vn -0.348887 0.911205 -0.219051
vn 0.439185 -0.048613 -0.897080
vn 0.439185 -0.048613 -0.897080
vn 0.368272 0.919486 0.137557
vn 0.895637 0.012659 0.444605
vn 0.063955 -0.049159 -0.996741
vn -0.652189 -0.029956 -0.757464
vn -0.255327 0.902949 -0.345676
vn -0.319613 -0.042760 -0.946583
vn 0.271551 0.926817 0.259367
vn 0.653506 0.030580 0.756304
vn -0.225913 0.948986 -0.219974
vn -0.132925 0.990749 -0.027352
vn -0.280350 0.959897 -0.001494
vn -0.078315 0.994656 0.067278
vn -0.166423 0.967950 0.188083
vn -0.103997 0.985690 -0.132668
vn 0.046689 0.968579 0.244284
vn 0.028740 0.995012 0.095524
vn 0.242157 0.960952 0.133907
vn 0.149643 0.986244 -0.070215
vn 0.301943 0.949527 -0.085024
vn 0.091152 0.982472 -0.162604
vn 0.187155 0.940984 -0.281996
vn 0.124814 0.991460 0.037799
vn -0.032236 0.940735 -0.337608
vn 0.062788 0.930809 0.360071
vn 0.132182 0.046123 0.990152
vn 0.130384 0.047169 0.990341
vn 0.210440 0.927891 0.307787
vn 0.500159 0.037288 0.865131
vn 0.501183 0.036409 0.864575
vn 0.329605 0.922159 0.202442
vn 0.793776 0.021443 0.607832
vn 0.793896 0.021318 0.607679
vn 0.966052 0.002719 0.258332
vn 0.404455 0.912408 0.062673
vn 0.966097 0.002585 0.258167
vn 0.407011 0.908430 -0.095374
vn 0.991281 -0.016174 -0.130770
vn 0.991143 -0.016871 -0.131722
vn 0.365641 0.896853 -0.248920
vn 0.865266 -0.033221 -0.500210
vn 0.865357 -0.033046 -0.500065
vn 0.253522 0.897486 -0.360896
vn 0.608549 -0.044053 -0.792293
vn 0.606932 -0.045379 -0.793457
vn 0.116000 0.890498 -0.439952
vn 0.258578 -0.048790 -0.964758
vn 0.256462 -0.050200 -0.965250
vn -0.131028 -0.046433 -0.990291
vn -0.043281 0.895612 -0.442725
vn -0.131876 -0.047026 -0.990150
vn -0.500529 -0.036624 -0.864945
vn -0.195238 0.897089 -0.396375
vn -0.501113 -0.037098 -0.864587
vn -0.793401 -0.021066 -0.608335
vn -0.313038 0.903924 -0.291426
vn -0.793969 -0.021745 -0.607569
vn -0.965915 -0.002255 -0.258849
vn -0.380401 0.912742 -0.148987
vn -0.966290 -0.003061 -0.257438
vn -0.991339 0.016489 0.130287
vn -0.396973 0.917776 0.009960
vn -0.991327 0.016453 0.130387
vn -0.865301 0.032824 0.500177
vn -0.338263 0.928057 0.155845
vn -0.866021 0.033401 0.498891
vn -0.608731 0.045052 0.792096
vn -0.241198 0.928975 0.280764
vn -0.607870 0.044302 0.792800
vn -0.259157 0.049783 0.964551
vn -0.095639 0.934291 0.343443
vn -0.257766 0.049032 0.964963
vn -0.067593 0.969064 0.237372
vn -0.031236 0.995829 0.085721
vn -0.245288 0.964209 0.100677
vn -0.114305 0.993271 0.018637
vn -0.273400 0.954080 -0.122413
vn -0.122005 0.988456 -0.089833
vn -0.134032 0.944785 -0.299025
vn -0.052779 0.984654 -0.166343
vn 0.086877 0.941458 -0.325744
vn 0.052145 0.983738 -0.171875
vn 0.261645 0.946534 -0.188718
vn 0.127684 0.986279 -0.104646
vn 0.289836 0.956560 0.031417
vn 0.135697 0.990738 -0.004982
vn 0.154672 0.965912 0.207584
vn 0.071992 0.994671 0.073805
f 130/130/130 131/131/131 59/59/59
f 2/2/2 129/129/129 62/62/62
f 2/2/2 127/127/127 64/64/64
f 2/2/2 125/125/125 1/1/1
f 2/2/2 123/123/123 58/58/58
f 120/120/120 121/121/121 53/53/53
f 118/118/118 119/119/119 55/55/55
f 116/116/116 117/117/117 57/57/57
f 2/2/2 1/1/1 123/123/123
f 98/98/98 100/100/100 41/41/41
f 59/59/59 68/68/68 4/4/4
f 101/101/101 103/103/103 35/35/35
f 55/55/55 54/54/54 120/120/120
f 2/2/2 64/64/64 125/125/125
f 104/104/104 106/106/106 29/29/29
f 74/74/74 61/61/61 51/51/51
f 107/107/107 109/109/109 23/23/23
f 57/57/57 56/56/56 118/118/118
f 2/2/2 62/62/62 127/127/127
f 110/110/110 112/112/112 16/16/16
f 113/113/113 115/115/115 10/10/10
f 59/59/59 60/60/60 116/116/116
f 2/2/2 66/66/66 129/129/129
f 69/69/69 70/70/70 5/5/5
f 65/65/65 86/86/86 19/19/19
f 72/72/72 73/73/73 52/52/52
f 61/61/61 66/66/66 130/130/130
f 2/2/2 131/131/131 66/66/66
f 75/75/75 76/76/76 46/46/46
f 93/93/93 67/67/67 13/13/13
f 79/79/79 77/77/77 39/39/39
f 128/128/128 129/129/129 61/61/61
f 2/2/2 117/117/117 60/60/60
f 81/81/81 82/82/82 33/33/33
f 80/80/80 63/63/63 38/38/38
f 99/99/99 53/53/53 49/49/49
f 84/84/84 85/85/85 27/27/27
f 126/126/126 127/127/127 63/63/63
f 2/2/2 119/119/119 56/56/56
f 87/87/87 88/88/88 20/20/20
f 105/105/105 55/55/55 36/36/36
f 90/90/90 91/91/91 14/14/14
f 124/124/124 125/125/125 65/65/65
f 2/2/2 121/121/121 54/54/54
f 92/92/92 94/94/94 7/7/7
f 111/111/111 57/57/57 24/24/24
f 95/95/95 97/97/97 48/48/48
f 122/122/122 123/123/123 67/67/67
f 10/10/10 22/22/22 69/69/69
f 5/5/5 25/25/25 72/72/72
f 52/52/52 28/28/28 75/75/75
f 46/46/46 31/31/31 79/79/79
f 39/39/39 34/34/34 81/81/81
f 33/33/33 37/37/37 84/84/84
f 27/27/27 40/40/40 87/87/87
f 21/21/21 44/44/44 90/90/90
f 14/14/14 47/47/47 92/92/92
f 7/7/7 50/50/50 95/95/95
f 48/48/48 3/3/3 98/98/98
f 41/41/41 6/6/6 101/101/101
f 35/35/35 9/9/9 104/104/104
f 29/29/29 12/12/12 107/107/107
f 23/23/23 15/15/15 110/110/110
f 16/16/16 18/18/18 113/113/113
f 17/17/17 116/116/116 57/57/57
f 116/116/116 11/11/11 59/59/59
f 2/2/2 56/56/56 117/117/117
f 24/24/24 118/118/118 108/108/108
f 118/118/118 30/30/30 108/108/108
f 2/2/2 54/54/54 119/119/119
f 36/36/36 120/120/120 102/102/102
f 120/120/120 42/42/42 102/102/102
f 2/2/2 58/58/58 121/121/121
f 49/49/49 122/122/122 96/96/96
f 122/122/122 8/8/8 96/96/96
f 53/53/53 58/58/58 122/122/122
f 13/13/13 124/124/124 89/89/89
f 124/124/124 19/19/19 89/89/89
f 67/67/67 1/1/1 124/124/124
f 26/26/26 126/126/126 83/83/83
f 126/126/126 32/32/32 83/83/83
f 65/65/65 64/64/64 126/126/126
f 38/38/38 128/128/128 78/78/78
f 128/128/128 45/45/45 78/78/78
f 63/63/63 62/62/62 128/128/128
f 51/51/51 130/130/130 71/71/71
f 130/130/130 4/4/4 71/71/71
f 2/2/2 60/60/60 131/131/131
f 68/68/68 59/59/59 11/11/11
f 74/74/74 45/45/45 61/61/61
f 51/51/51 61/61/61 130/130/130
f 4/4/4 130/130/130 59/59/59
f 45/45/45 128/128/128 61/61/61
f 38/38/38 63/63/63 128/128/128
f 80/80/80 32/32/32 63/63/63
f 32/32/32 126/126/126 63/63/63
f 26/26/26 65/65/65 126/126/126
f 65/65/65 26/26/26 86/86/86
f 19/19/19 124/124/124 65/65/65
f 13/13/13 67/67/67 124/124/124
f 93/93/93 8/8/8 67/67/67
f 8/8/8 122/122/122 67/67/67
f 49/49/49 53/53/53 122/122/122
f 99/99/99 42/42/42 53/53/53
f 42/42/42 120/120/120 53/53/53
f 36/36/36 55/55/55 120/120/120
f 105/105/105 30/30/30 55/55/55
f 30/30/30 118/118/118 55/55/55
f 24/24/24 57/57/57 118/118/118
f 111/111/111 17/17/17 57/57/57
f 116/116/116 17/17/17 114/114/114
f 116/116/116 114/114/114 11/11/11
f 59/59/59 131/131/131 60/60/60
f 53/53/53 121/121/121 58/58/58
f 55/55/55 119/119/119 54/54/54
f 57/57/57 117/117/117 56/56/56
f 41/41/41 100/100/100 6/6/6
f 35/35/35 103/103/103 9/9/9
f 120/120/120 54/54/54 121/121/121
f 29/29/29 106/106/106 12/12/12
f 23/23/23 109/109/109 15/15/15
f 118/118/118 56/56/56 119/119/119
f 16/16/16 112/112/112 18/18/18
f 10/10/10 115/115/115 22/22/22
f 116/116/116 60/60/60 117/117/117
f 5/5/5 70/70/70 25/25/25
f 52/52/52 73/73/73 28/28/28
f 130/130/130 66/66/66 131/131/131
f 46/46/46 76/76/76 31/31/31
f 39/39/39 77/77/77 34/34/34
f 61/61/61 129/129/129 66/66/66
f 33/33/33 82/82/82 37/37/37
f 27/27/27 85/85/85 40/40/40
f 63/63/63 127/127/127 62/62/62
f 20/20/20 88/88/88 43/43/43
f 14/14/14 91/91/91 47/47/47
f 65/65/65 125/125/125 64/64/64
f 7/7/7 94/94/94 50/50/50
f 48/48/48 97/97/97 3/3/3
f 67/67/67 123/123/123 1/1/1
f 69/69/69 22/22/22 70/70/70
f 72/72/72 25/25/25 73/73/73
f 75/75/75 28/28/28 76/76/76
f 79/79/79 31/31/31 77/77/77
f 81/81/81 34/34/34 82/82/82
f 84/84/84 37/37/37 85/85/85
f 87/87/87 40/40/40 88/88/88
f 90/90/90 44/44/44 91/91/91
f 92/92/92 47/47/47 94/94/94
f 95/95/95 50/50/50 97/97/97
f 98/98/98 3/3/3 100/100/100
f 101/101/101 6/6/6 103/103/103
f 104/104/104 9/9/9 106/106/106
f 107/107/107 12/12/12 109/109/109
f 110/110/110 15/15/15 112/112/112
f 113/113/113 18/18/18 115/115/115
f 122/122/122 58/58/58 123/123/123
f 124/124/124 1/1/1 125/125/125
f 126/126/126 64/64/64 127/127/127
f 128/128/128 62/62/62 129/129/129
