# GloomhavenVR - pico-4 right 'body' (glTF material 1)
# generated by controllers_pipeline.py from webxr-input-profiles (MIT)
o pico4_right_body__m1
v -0.005711 0.016465 0.005118
v -0.005711 0.016465 0.005118
v -0.005711 0.016465 0.005118
v -0.008811 0.016465 0.005118
v -0.008811 0.016465 0.005118
v -0.008811 0.016465 0.005118
v -0.008811 0.016465 0.007718
v -0.008811 0.016465 0.007718
v -0.008811 0.016465 0.007718
v -0.005711 0.016465 0.007718
v -0.005711 0.016465 0.007718
v -0.005711 0.016465 0.007718
v -0.008811 0.015495 0.007718
v -0.008811 0.015495 0.007718
v -0.008811 0.015495 0.007718
v -0.005711 0.015495 0.007718
v -0.005711 0.015495 0.007718
v -0.005711 0.015495 0.007718
v -0.005711 0.015495 0.005118
v -0.005711 0.015495 0.005118
v -0.005711 0.015495 0.005118
v -0.008811 0.015495 0.005118
v -0.008811 0.015495 0.005118
v -0.008811 0.015495 0.005118
v -0.007261 0.016465 0.006418
v 0.006242 -0.018642 -0.069786
v 0.006259 -0.022351 -0.072997
v 0.011488 -0.018815 -0.069835
v 0.011405 -0.022588 -0.073028
v 0.001261 -0.020508 -0.068412
v 0.016073 -0.020348 -0.068442
v 0.001891 -0.023362 -0.071454
v 0.015858 -0.023827 -0.071391
vt 0.000000 1.000000
vt 1.000000 1.000000
vt 0.000000 1.000000
vt 1.000000 1.000000
vt 0.000000 0.000000
vt 0.000000 1.000000
vt 0.000000 1.000000
vt 1.000000 1.000000
vt 1.000000 0.000000
vt 0.000000 1.000000
vt 1.000000 1.000000
vt 1.000000 1.000000
vt 0.000000 0.000000
vt 1.000000 0.000000
vt 1.000000 0.000000
vt 0.000000 0.000000
vt 1.000000 1.000000
vt 1.000000 0.000000
vt 0.000000 1.000000
vt 1.000000 0.000000
vt 0.000000 0.000000
vt 1.000000 0.000000
vt 0.000000 0.000000
vt 0.000000 0.000000
vt 0.500000 0.500000
vt 0.005804 0.336394
vt 0.333216 0.337536
vt 0.016730 0.686516
vt 0.346591 0.681045
vt 0.040490 0.005804
vt 0.033732 0.994196
vt 0.317314 0.047534
vt 0.338094 0.979863
vn 0.000000 1.000000 -0.000001
vn 0.000000 -0.000000 -1.000000
vn 1.000000 0.000000 -0.000000
vn -1.000000 0.000000 -0.000000
vn 0.000000 1.000000 -0.000001
vn 0.000000 -0.000000 -1.000000
vn -1.000000 0.000000 -0.000000
vn 0.000000 0.000000 1.000000
vn 0.000000 1.000000 0.000000
vn 0.000000 0.000000 1.000000
vn 0.000000 1.000000 0.000000
vn 1.000000 0.000000 -0.000000
vn -1.000000 0.000000 -0.000000
vn 0.000000 0.000000 1.000000
vn 0.000000 -1.000000 0.000000
vn 0.000000 0.000000 1.000000
vn 0.000000 -1.000000 0.000000
vn 1.000000 0.000000 -0.000000
vn 0.000000 -1.000000 0.000000
vn 0.000000 -0.000000 -1.000000
vn 1.000000 0.000000 -0.000000
vn -1.000000 0.000000 -0.000000
vn 0.000000 -1.000000 0.000000
vn 0.000000 -0.000000 -1.000000
vn 0.000000 1.000000 -0.000000
vn -0.127248 0.645856 -0.752780
vn -0.262727 0.640756 -0.721392
vn 0.285440 0.612480 -0.737151
vn 0.155594 0.639188 -0.753146
vn -0.398656 0.613763 -0.681446
vn 0.407756 0.575713 -0.708724
vn -0.384000 0.632256 -0.672902
vn 0.412946 0.578575 -0.703368
f 25/25/25 5/5/5 9/9/9
f 25/25/25 9/9/9 11/11/11
f 2/2/2 20/20/20 24/24/24
f 24/24/24 6/6/6 2/2/2
f 4/4/4 22/22/22 13/13/13
f 13/13/13 7/7/7 4/4/4
f 8/8/8 14/14/14 16/16/16
f 16/16/16 10/10/10 8/8/8
f 12/12/12 18/18/18 21/21/21
f 21/21/21 3/3/3 12/12/12
f 17/17/17 15/15/15 23/23/23
f 23/23/23 19/19/19 17/17/17
f 25/25/25 11/11/11 1/1/1
f 25/25/25 1/1/1 5/5/5
f 29/29/29 27/27/27 26/26/26
f 27/27/27 32/32/32 30/30/30
f 33/33/33 29/29/29 28/28/28
f 29/29/29 26/26/26 28/28/28
f 27/27/27 30/30/30 26/26/26
f 33/33/33 28/28/28 31/31/31
