# GloomhavenVR - pico-4 right 'button_primary' (glTF material 0)
# generated by controllers_pipeline.py from webxr-input-profiles (MIT)
o pico4_right_button_primary__m0
v 0.000603 0.026692 0.000670
v 0.000366 0.026916 0.002443
v 0.003600 0.020183 -0.000847
v -0.001171 0.026054 0.007036
v -0.001171 0.026054 0.007036
v 0.004739 0.020265 0.000638
v 0.001924 0.025647 -0.002049
v 0.001924 0.025647 -0.002049
v 0.005223 0.020357 0.002447
v 0.000686 0.026083 0.007282
v 0.000686 0.026083 0.007282
v 0.004976 0.020443 0.004303
v 0.000066 0.025618 -0.002294
v 0.000066 0.025618 -0.002294
v 0.004038 0.020512 0.005924
v 0.002497 0.026077 0.006797
v 0.002497 0.026077 0.006797
v 0.002550 0.020552 0.007062
v -0.001744 0.025623 -0.001810
v -0.001744 0.025623 -0.001810
v -0.001744 0.025623 -0.001810
v 0.000740 0.020558 0.007546
v 0.003985 0.026037 0.005659
v 0.003985 0.026037 0.005659
v -0.001118 0.020528 0.007301
v -0.003232 0.025664 -0.000671
v -0.003232 0.025664 -0.000671
v -0.002740 0.020468 0.006364
v 0.004923 0.025968 0.004037
v 0.004923 0.025968 0.004037
v -0.003880 0.020386 0.004879
v -0.004170 0.025733 0.000949
v -0.004170 0.025733 0.000949
v -0.004364 0.020294 0.003071
v 0.005169 0.025882 0.002182
v 0.005169 0.025882 0.002182
v -0.004117 0.020207 0.001215
v -0.004417 0.025819 0.002806
v -0.004417 0.025819 0.002806
v -0.003179 0.020139 -0.000406
v 0.004686 0.025790 0.000373
v 0.004686 0.025790 0.000373
v -0.001691 0.020098 -0.001545
v -0.001691 0.020098 -0.001545
v -0.003933 0.025911 0.004614
v -0.003933 0.025911 0.004614
v 0.000120 0.020093 -0.002029
v 0.003546 0.025708 -0.001112
v 0.003546 0.025708 -0.001112
v 0.001978 0.020122 -0.001784
v -0.002793 0.025993 0.006099
v -0.002793 0.025993 0.006099
v 0.003067 0.026401 0.000399
v 0.002149 0.026803 0.002684
v 0.003738 0.026528 0.002908
v 0.001460 0.026854 0.003874
v 0.002436 0.026624 0.005156
v 0.001784 0.026737 0.001376
v -0.000076 0.026631 0.005827
v 0.000131 0.026858 0.004229
v -0.002326 0.026547 0.004528
v -0.001414 0.026746 0.002214
v -0.002997 0.026421 0.002020
v -0.000725 0.026696 0.001025
v -0.001695 0.026325 -0.000229
v -0.001059 0.026813 0.003541
v 0.000817 0.026317 -0.000900
v -0.000273 0.026069 0.007247
v -0.000273 0.026069 0.007247
v -0.000163 0.020544 0.007524
v -0.001980 0.026027 0.006676
v -0.001980 0.026027 0.006676
v -0.001975 0.020500 0.006916
v -0.003422 0.025957 0.005435
v -0.003422 0.025957 0.005435
v -0.003373 0.020431 0.005694
v -0.004208 0.020344 0.004007
v -0.004268 0.025869 0.003735
v -0.004268 0.025869 0.003735
v -0.004398 0.025783 0.001924
v -0.004398 0.025783 0.001924
v -0.004332 0.020255 0.002146
v -0.003792 0.025702 0.000101
v -0.003792 0.025702 0.000101
v -0.003737 0.020177 0.000378
v -0.002600 0.025648 -0.001278
v -0.002600 0.025648 -0.001278
v -0.002473 0.020121 -0.001059
v -0.000936 0.025622 -0.002127
v -0.000936 0.025622 -0.002127
v -0.000789 0.020096 -0.001880
v 0.000966 0.025632 -0.002273
v 0.000966 0.025632 -0.002273
v 0.001059 0.020107 -0.001998
v 0.002743 0.025674 -0.001686
v 0.002743 0.025674 -0.001686
v 0.002824 0.020150 -0.001403
v 0.004153 0.025743 -0.000475
v 0.004153 0.025743 -0.000475
v 0.004235 0.020220 -0.000174
v 0.005005 0.025830 0.001212
v 0.005005 0.025830 0.001212
v 0.005077 0.020307 0.001530
v 0.005134 0.025922 0.003136
v 0.005134 0.025922 0.003136
v 0.005194 0.020396 0.003406
v 0.004528 0.026000 0.004899
v 0.004528 0.026000 0.004899
v 0.004608 0.020473 0.005134
v 0.003348 0.026053 0.006259
v 0.003348 0.026053 0.006259
v 0.003369 0.020529 0.006559
v 0.001629 0.026079 0.007123
v 0.001629 0.026079 0.007123
v 0.001640 0.020554 0.007406
v 0.001216 0.026625 0.005755
v 0.000767 0.026856 0.004059
v 0.003278 0.026568 0.004226
v 0.001776 0.026830 0.003328
v 0.003667 0.026455 0.001624
v 0.001976 0.026772 0.002064
v 0.002045 0.026352 -0.000495
v 0.001180 0.026714 0.001014
v -0.000512 0.026324 -0.000817
v -0.000049 0.026694 0.000844
v -0.002560 0.026382 0.000740
v -0.001057 0.026720 0.001598
v -0.002924 0.026494 0.003313
v -0.001243 0.026779 0.002853
v -0.001372 0.026594 0.005383
v -0.000508 0.026834 0.003860
vt 0.741988 0.377303
vt 0.735121 0.382170
vt 0.945026 0.288426
vt 0.912677 0.324138
vt 0.713888 0.391647
vt 0.942919 0.294414
vt 0.756350 0.372677
vt 0.929545 0.276255
vt 0.940812 0.300405
vt 0.719132 0.399050
vt 0.914790 0.318154
vt 0.938704 0.306394
vt 0.931652 0.270267
vt 0.751084 0.365251
vt 0.936594 0.312384
vt 0.726811 0.403880
vt 0.916902 0.312169
vt 0.934483 0.318372
vt 0.900000 0.360061
vt 0.933768 0.264253
vt 0.743459 0.360454
vt 0.932369 0.324359
vt 0.735750 0.405405
vt 0.919012 0.306187
vt 0.930255 0.330346
vt 0.902110 0.354071
vt 0.734499 0.358916
vt 0.928141 0.336331
vt 0.744594 0.403398
vt 0.921121 0.300202
vt 0.926027 0.342316
vt 0.904221 0.348084
vt 0.725643 0.360925
vt 0.923914 0.348300
vt 0.751999 0.398156
vt 0.923227 0.294217
vt 0.921802 0.354285
vt 0.906335 0.342094
vt 0.718233 0.366174
vt 0.919693 0.360267
vt 0.756836 0.390479
vt 0.925334 0.288229
vt 0.917584 0.366252
vt 0.951346 0.270463
vt 0.908449 0.336108
vt 0.713399 0.373855
vt 0.949239 0.276449
vt 0.758366 0.381532
vt 0.927439 0.282243
vt 0.947132 0.282437
vt 0.910563 0.330122
vt 0.711876 0.382800
vt 0.750922 0.384864
vt 0.739984 0.389036
vt 0.744385 0.395247
vt 0.733702 0.390464
vt 0.732421 0.397967
vt 0.743321 0.383609
vt 0.722041 0.391431
vt 0.728253 0.387032
vt 0.719317 0.379468
vt 0.730259 0.375300
vt 0.725856 0.369082
vt 0.736541 0.373873
vt 0.737830 0.366363
vt 0.726825 0.380752
vt 0.748200 0.372895
vt 0.913724 0.321209
vt 0.716101 0.395525
vt 0.931368 0.327235
vt 0.911687 0.326953
vt 0.712516 0.387587
vt 0.929206 0.333333
vt 0.909531 0.333029
vt 0.712182 0.378383
vt 0.927102 0.339262
vt 0.924969 0.345276
vt 0.907380 0.339093
vt 0.715439 0.369784
vt 0.905326 0.344892
vt 0.721446 0.363357
vt 0.922857 0.351238
vt 0.903158 0.351027
vt 0.729910 0.359504
vt 0.920751 0.357198
vt 0.901106 0.356848
vt 0.738733 0.359195
vt 0.918594 0.363317
vt 0.932777 0.267007
vt 0.747248 0.362320
vt 0.950252 0.273516
vt 0.753963 0.368548
vt 0.930632 0.273124
vt 0.948176 0.279433
vt 0.757739 0.376792
vt 0.928538 0.279102
vt 0.946090 0.285387
vt 0.758083 0.385785
vt 0.926458 0.285043
vt 0.943995 0.291373
vt 0.754899 0.394370
vt 0.924340 0.291089
vt 0.941865 0.297453
vt 0.748492 0.401170
vt 0.922176 0.297260
vt 0.939758 0.303462
vt 0.740236 0.404829
vt 0.920079 0.303224
vt 0.937707 0.309294
vt 0.731525 0.405124
vt 0.918052 0.308975
vt 0.935582 0.315325
vt 0.722801 0.401869
vt 0.915880 0.315122
vt 0.933410 0.321469
vt 0.726426 0.395684
vt 0.730857 0.388677
vt 0.738353 0.397915
vt 0.736585 0.389813
vt 0.748619 0.390884
vt 0.741570 0.386463
vt 0.750735 0.378455
vt 0.742642 0.380380
vt 0.743647 0.368587
vt 0.739317 0.375618
vt 0.731694 0.366511
vt 0.733514 0.374558
vt 0.721621 0.373503
vt 0.728603 0.377924
vt 0.719413 0.385518
vt 0.727484 0.383662
vn 0.013286 0.982199 -0.187375
vn -0.009804 0.998818 -0.047605
vn 0.656825 -0.030110 -0.753441
vn -0.317500 0.042274 0.947315
vn -0.136606 0.932554 0.334187
vn 0.896703 -0.012707 -0.442450
vn 0.117595 0.897569 -0.424900
vn 0.314285 -0.042536 -0.948375
vn 0.998052 0.007132 -0.061973
vn 0.020071 0.935165 0.353643
vn 0.063780 0.049241 0.996748
vn 0.946840 0.025487 0.320694
vn -0.075333 -0.048314 -0.995987
vn -0.033431 0.894097 -0.446625
vn 0.754804 0.038934 0.654794
vn 0.166216 0.934922 0.313516
vn 0.448361 0.048192 0.892552
vn 0.440569 0.047429 0.896465
vn -0.454047 -0.047000 -0.889737
vn -0.454047 -0.047000 -0.889737
vn -0.193415 0.895098 -0.401733
vn 0.063947 0.049212 0.996739
vn 0.293623 0.931291 0.215598
vn 0.755426 0.038980 0.654073
vn -0.318400 0.042094 0.947021
vn -0.757159 -0.039333 -0.652045
vn -0.310698 0.897786 -0.312165
vn -0.658750 0.029566 0.751781
vn 0.364529 0.926939 0.088894
vn 0.945661 0.025233 0.324175
vn -0.896106 0.012381 0.443667
vn -0.948988 -0.024399 -0.314367
vn -0.392956 0.904144 -0.167656
vn -0.997684 -0.007248 0.067632
vn 0.391082 0.917603 -0.071130
vn 0.997764 0.007214 -0.066444
vn -0.947838 -0.024939 -0.317776
vn -0.997372 -0.006546 0.072154
vn -0.410757 0.911557 -0.018521
vn -0.752206 -0.040131 -0.657705
vn 0.348887 0.911205 -0.219052
vn 0.892976 -0.012537 -0.449930
vn -0.439096 -0.048618 -0.897124
vn -0.439096 -0.048618 -0.897124
vn -0.895638 0.012662 0.444604
vn -0.368273 0.919485 0.137558
vn -0.063856 -0.049149 -0.996748
vn 0.255326 0.902949 -0.345676
vn 0.652189 -0.029956 -0.757464
vn 0.319613 -0.042762 -0.946583
vn -0.653506 0.030552 0.756305
vn -0.271376 0.926883 0.259313
vn 0.225913 0.948986 -0.219973
vn 0.132925 0.990749 -0.027349
vn 0.280349 0.959897 -0.001495
vn 0.078315 0.994656 0.067275
vn 0.166423 0.967951 0.188081
vn 0.103995 0.985689 -0.132671
vn -0.046690 0.968579 0.244283
vn -0.028741 0.995012 0.095522
vn -0.242157 0.960952 0.133908
vn -0.149644 0.986244 -0.070216
vn -0.301991 0.949511 -0.085035
vn -0.091150 0.982472 -0.162604
vn -0.187155 0.940984 -0.281996
vn -0.124813 0.991460 0.037797
vn 0.032258 0.940719 -0.337651
vn -0.132133 0.046133 0.990158
vn -0.062982 0.930807 0.360044
vn -0.130335 0.047222 0.990345
vn -0.500159 0.037316 0.865129
vn -0.210526 0.927888 0.307739
vn -0.501183 0.036405 0.864575
vn -0.793746 0.021449 0.607871
vn -0.329726 0.922149 0.202291
vn -0.793896 0.021312 0.607680
vn -0.966052 0.002715 0.258332
vn -0.966097 0.002585 0.258167
vn -0.404455 0.912408 0.062673
vn -0.991281 -0.016148 -0.130771
vn -0.407006 0.908427 -0.095426
vn -0.991150 -0.016869 -0.131673
vn -0.865241 -0.033223 -0.500254
vn -0.365689 0.896858 -0.248831
vn -0.865382 -0.033073 -0.500021
vn -0.608549 -0.044006 -0.792295
vn -0.253522 0.897485 -0.360897
vn -0.606932 -0.045393 -0.793456
vn -0.258626 -0.048733 -0.964747
vn -0.115953 0.890497 -0.439966
vn -0.256414 -0.050213 -0.965262
vn 0.043280 0.895611 -0.442727
vn 0.131028 -0.046418 -0.990291
vn 0.131876 -0.047031 -0.990150
vn 0.195282 0.897089 -0.396353
vn 0.500529 -0.036609 -0.864945
vn 0.501241 -0.037104 -0.864512
vn 0.313100 0.903927 -0.291351
vn 0.793401 -0.021039 -0.608336
vn 0.794060 -0.021745 -0.607451
vn 0.380357 0.912738 -0.149126
vn 0.965915 -0.002233 -0.258850
vn 0.966277 -0.003065 -0.257486
vn 0.396973 0.917776 0.009961
vn 0.991345 0.016504 0.130237
vn 0.991327 0.016450 0.130387
vn 0.338490 0.928047 0.155415
vn 0.865301 0.032825 0.500176
vn 0.866020 0.033402 0.498892
vn 0.241160 0.928976 0.280795
vn 0.608731 0.045084 0.792095
vn 0.607870 0.044318 0.792799
vn 0.095966 0.934294 0.343343
vn 0.259109 0.049790 0.964564
vn 0.257814 0.049023 0.964950
vn 0.067593 0.969065 0.237370
vn 0.031269 0.995826 0.085754
vn 0.245287 0.964209 0.100677
vn 0.114304 0.993271 0.018638
vn 0.273448 0.954065 -0.122416
vn 0.122004 0.988456 -0.089831
vn 0.134031 0.944786 -0.299025
vn 0.052779 0.984655 -0.166343
vn -0.086876 0.941458 -0.325744
vn -0.052144 0.983738 -0.171876
vn -0.261646 0.946535 -0.188717
vn -0.127640 0.986283 -0.104663
vn -0.289836 0.956561 0.031417
vn -0.135718 0.990735 -0.004940
vn -0.154708 0.965899 0.207618
vn -0.071990 0.994671 0.073805
f 131/131/131 130/130/130 59/59/59
f 129/129/129 2/2/2 62/62/62
f 127/127/127 2/2/2 64/64/64
f 125/125/125 2/2/2 1/1/1
f 123/123/123 2/2/2 58/58/58
f 121/121/121 120/120/120 53/53/53
f 119/119/119 118/118/118 55/55/55
f 117/117/117 116/116/116 57/57/57
f 1/1/1 2/2/2 123/123/123
f 100/100/100 99/99/99 42/42/42
f 69/69/69 59/59/59 5/5/5
f 103/103/103 102/102/102 36/36/36
f 54/54/54 55/55/55 120/120/120
f 64/64/64 2/2/2 125/125/125
f 106/106/106 105/105/105 30/30/30
f 61/61/61 75/75/75 52/52/52
f 109/109/109 108/108/108 24/24/24
f 56/56/56 57/57/57 118/118/118
f 62/62/62 2/2/2 127/127/127
f 112/112/112 111/111/111 17/17/17
f 115/115/115 114/114/114 11/11/11
f 60/60/60 59/59/59 116/116/116
f 66/66/66 2/2/2 129/129/129
f 70/70/70 68/68/68 4/4/4
f 87/87/87 65/65/65 21/21/21
f 73/73/73 71/71/71 51/51/51
f 66/66/66 61/61/61 130/130/130
f 131/131/131 2/2/2 66/66/66
f 76/76/76 74/74/74 45/45/45
f 67/67/67 92/92/92 14/14/14
f 77/77/77 78/78/78 38/38/38
f 129/129/129 128/128/128 61/61/61
f 117/117/117 2/2/2 60/60/60
f 82/82/82 80/80/80 32/32/32
f 63/63/63 81/81/81 39/39/39
f 53/53/53 98/98/98 48/48/48
f 85/85/85 83/83/83 26/26/26
f 127/127/127 126/126/126 63/63/63
f 119/119/119 2/2/2 56/56/56
f 88/88/88 86/86/86 19/19/19
f 55/55/55 104/104/104 35/35/35
f 91/91/91 89/89/89 13/13/13
f 125/125/125 124/124/124 65/65/65
f 121/121/121 2/2/2 54/54/54
f 94/94/94 93/93/93 8/8/8
f 57/57/57 110/110/110 23/23/23
f 97/97/97 96/96/96 49/49/49
f 123/123/123 122/122/122 67/67/67
f 22/22/22 11/11/11 68/68/68
f 25/25/25 4/4/4 71/71/71
f 28/28/28 51/51/51 74/74/74
f 31/31/31 45/45/45 78/78/78
f 34/34/34 38/38/38 80/80/80
f 37/37/37 32/32/32 83/83/83
f 40/40/40 26/26/26 86/86/86
f 44/44/44 20/20/20 89/89/89
f 47/47/47 13/13/13 93/93/93
f 50/50/50 8/8/8 96/96/96
f 3/3/3 49/49/49 99/99/99
f 6/6/6 42/42/42 102/102/102
f 9/9/9 36/36/36 105/105/105
f 12/12/12 30/30/30 108/108/108
f 15/15/15 24/24/24 111/111/111
f 18/18/18 17/17/17 114/114/114
f 116/116/116 16/16/16 57/57/57
f 10/10/10 116/116/116 59/59/59
f 56/56/56 2/2/2 117/117/117
f 118/118/118 23/23/23 107/107/107
f 29/29/29 118/118/118 107/107/107
f 54/54/54 2/2/2 119/119/119
f 120/120/120 35/35/35 101/101/101
f 41/41/41 120/120/120 101/101/101
f 58/58/58 2/2/2 121/121/121
f 122/122/122 48/48/48 95/95/95
f 7/7/7 122/122/122 95/95/95
f 58/58/58 53/53/53 122/122/122
f 124/124/124 14/14/14 90/90/90
f 21/21/21 124/124/124 90/90/90
f 1/1/1 67/67/67 124/124/124
f 126/126/126 27/27/27 84/84/84
f 33/33/33 126/126/126 84/84/84
f 64/64/64 65/65/65 126/126/126
f 128/128/128 39/39/39 79/79/79
f 46/46/46 128/128/128 79/79/79
f 62/62/62 63/63/63 128/128/128
f 130/130/130 52/52/52 72/72/72
f 5/5/5 130/130/130 72/72/72
f 60/60/60 2/2/2 131/131/131
f 59/59/59 69/69/69 10/10/10
f 46/46/46 75/75/75 61/61/61
f 61/61/61 52/52/52 130/130/130
f 130/130/130 5/5/5 59/59/59
f 128/128/128 46/46/46 61/61/61
f 63/63/63 39/39/39 128/128/128
f 33/33/33 81/81/81 63/63/63
f 126/126/126 33/33/33 63/63/63
f 65/65/65 27/27/27 126/126/126
f 27/27/27 65/65/65 87/87/87
f 124/124/124 21/21/21 65/65/65
f 67/67/67 14/14/14 124/124/124
f 7/7/7 92/92/92 67/67/67
f 122/122/122 7/7/7 67/67/67
f 53/53/53 48/48/48 122/122/122
f 41/41/41 98/98/98 53/53/53
f 120/120/120 41/41/41 53/53/53
f 55/55/55 35/35/35 120/120/120
f 29/29/29 104/104/104 55/55/55
f 118/118/118 29/29/29 55/55/55
f 57/57/57 23/23/23 118/118/118
f 16/16/16 110/110/110 57/57/57
f 16/16/16 116/116/116 113/113/113
f 113/113/113 116/116/116 10/10/10
f 131/131/131 59/59/59 60/60/60
f 121/121/121 53/53/53 58/58/58
f 119/119/119 55/55/55 54/54/54
f 117/117/117 57/57/57 56/56/56
f 100/100/100 42/42/42 6/6/6
f 103/103/103 36/36/36 9/9/9
f 54/54/54 120/120/120 121/121/121
f 106/106/106 30/30/30 12/12/12
f 109/109/109 24/24/24 15/15/15
f 56/56/56 118/118/118 119/119/119
f 112/112/112 17/17/17 18/18/18
f 115/115/115 11/11/11 22/22/22
f 60/60/60 116/116/116 117/117/117
f 70/70/70 4/4/4 25/25/25
f 73/73/73 51/51/51 28/28/28
f 66/66/66 130/130/130 131/131/131
f 76/76/76 45/45/45 31/31/31
f 77/77/77 38/38/38 34/34/34
f 129/129/129 61/61/61 66/66/66
f 82/82/82 32/32/32 37/37/37
f 85/85/85 26/26/26 40/40/40
f 127/127/127 63/63/63 62/62/62
f 88/88/88 19/19/19 43/43/43
f 91/91/91 13/13/13 47/47/47
f 125/125/125 65/65/65 64/64/64
f 94/94/94 8/8/8 50/50/50
f 97/97/97 49/49/49 3/3/3
f 123/123/123 67/67/67 1/1/1
f 22/22/22 68/68/68 70/70/70
f 25/25/25 71/71/71 73/73/73
f 28/28/28 74/74/74 76/76/76
f 31/31/31 78/78/78 77/77/77
f 34/34/34 80/80/80 82/82/82
f 37/37/37 83/83/83 85/85/85
f 40/40/40 86/86/86 88/88/88
f 44/44/44 89/89/89 91/91/91
f 47/47/47 93/93/93 94/94/94
f 50/50/50 96/96/96 97/97/97
f 3/3/3 99/99/99 100/100/100
f 6/6/6 102/102/102 103/103/103
f 9/9/9 105/105/105 106/106/106
f 12/12/12 108/108/108 109/109/109
f 15/15/15 111/111/111 112/112/112
f 18/18/18 114/114/114 115/115/115
f 58/58/58 122/122/122 123/123/123
f 1/1/1 124/124/124 125/125/125
f 64/64/64 126/126/126 127/127/127
f 62/62/62 128/128/128 129/129/129
