# GloomhavenVR - pico-4 right 'trigger' (glTF material 0)
# generated by controllers_pipeline.py from webxr-input-profiles (MIT)
o pico4_right_trigger__m0
v 0.000730 -0.013049 0.031963
v 0.005870 -0.014766 0.032528
v 0.003868 -0.010417 0.015236
v -0.000692 -0.008764 0.017184
v 0.011206 -0.013458 0.032128
v -0.007349 -0.001861 0.033253
v 0.017732 0.003585 0.036570
v 0.011931 -0.005813 0.033566
v 0.018395 0.004180 0.036121
v 0.006415 -0.005648 0.033998
v -0.008023 -0.001717 0.032492
v 0.001155 -0.005208 0.033471
v -0.002876 -0.006849 0.018732
v -0.002876 -0.006849 0.018732
v -0.003952 -0.007124 0.032022
v 0.012172 -0.016772 0.030920
v 0.014261 -0.007213 0.017912
v 0.014261 -0.007213 0.017912
v 0.011940 -0.016304 0.031666
v 0.020004 -0.000780 0.033869
v 0.015574 0.002767 0.036509
v 0.020701 -0.000124 0.033354
v 0.018180 -0.002578 0.033680
v -0.000386 -0.016089 0.030709
v -0.000108 -0.015668 0.031488
v 0.018955 0.002479 0.035622
v 0.015714 -0.009659 0.031716
v 0.019748 0.002871 0.035014
v 0.002017 -0.009960 0.015903
v 0.016473 0.004684 0.037311
v 0.016889 0.005479 0.036997
v 0.009153 -0.017727 0.031998
v 0.005858 -0.010554 0.015115
v 0.009038 -0.018334 0.031314
v -0.005532 -0.001288 0.034181
v 0.012487 0.006533 0.038624
v 0.008878 -0.010136 0.015409
v 0.012306 0.007514 0.038464
v -0.004203 0.002273 0.036109
v 0.007253 0.007297 0.039261
v 0.007310 0.008185 0.039008
v 0.001936 0.006917 0.038965
v 0.000616 0.004863 0.037978
v 0.002044 0.007835 0.038746
v -0.001654 0.005906 0.038147
v -0.002249 0.006622 0.037764
v 0.012818 -0.000058 0.035543
v -0.004942 0.003934 0.036736
v 0.011788 -0.008915 0.016421
v 0.016483 -0.005218 0.019702
v 0.018740 -0.002206 0.022268
v 0.020159 0.000710 0.024713
v 0.000886 0.001928 0.036726
v -0.005266 0.004737 0.036406
v -0.004595 -0.004774 0.020108
v -0.005661 -0.002788 0.021762
v -0.006695 -0.000646 0.023538
v -0.007639 0.001701 0.025559
v -0.008003 0.004404 0.027886
v -0.008003 0.004404 0.027886
v -0.007193 0.006774 0.030043
v -0.005136 0.008955 0.031842
v -0.001785 0.010735 0.033369
v 0.002115 0.011856 0.034319
v 0.007449 0.012294 0.034715
v 0.012343 0.011438 0.033959
v 0.016717 0.009687 0.032469
v 0.019767 0.007014 0.030174
v 0.019767 0.007014 0.030174
v 0.020732 0.004617 0.028132
v 0.018433 0.008470 0.031446
v 0.006912 0.002218 0.037192
v 0.007127 0.005625 0.038595
v 0.014724 -0.014431 0.030591
v 0.017743 -0.003676 0.021015
v 0.016594 -0.012169 0.030477
v 0.015817 -0.012302 0.031273
v 0.015817 -0.012302 0.031273
v 0.019536 0.002738 0.035495
v 0.018808 -0.008289 0.030605
v 0.018077 -0.008594 0.031385
v 0.020236 -0.004248 0.031660
v 0.019613 -0.004190 0.032483
v 0.005665 -0.018905 0.031537
v 0.005711 -0.018363 0.032215
v -0.007093 0.002842 0.034955
v 0.017814 -0.010173 0.030569
v 0.017220 -0.010150 0.031378
v 0.014171 -0.014325 0.031381
v -0.002694 -0.013033 0.031084
v -0.003078 -0.013293 0.030288
v -0.005380 -0.009678 0.030281
v -0.004958 -0.009388 0.031153
v -0.006951 -0.006219 0.030906
v -0.006296 -0.006408 0.031690
v -0.007602 -0.004000 0.031683
v -0.006884 -0.004565 0.032346
v 0.002443 -0.017972 0.031201
v -0.006335 0.002401 0.035558
v 0.002633 -0.017557 0.031924
v -0.008025 0.000586 0.033495
v -0.007346 0.000039 0.034073
v 0.020115 -0.004296 0.032203
v 0.018614 -0.008481 0.031111
v 0.017675 -0.010227 0.031090
v 0.020550 -0.000478 0.033766
v 0.020550 -0.000478 0.033766
v 0.020550 -0.000478 0.033766
v 0.016346 -0.012328 0.030990
v 0.014563 -0.014472 0.031103
v 0.012136 -0.016694 0.031414
v 0.009133 -0.018208 0.031782
v 0.005679 -0.018819 0.032005
v 0.002485 -0.017937 0.031687
v -0.000339 -0.016025 0.031216
v -0.003015 -0.013271 0.030798
v -0.005330 -0.009591 0.030829
v -0.006806 -0.006325 0.031419
v -0.007435 -0.004225 0.032146
v -0.007883 -0.001737 0.033015
v -0.007883 0.000395 0.033940
v -0.006898 0.002735 0.035433
v -0.005209 0.004475 0.036767
v -0.002069 0.006430 0.038171
v 0.001965 0.007558 0.039084
v 0.007295 0.007928 0.039367
v 0.012479 0.007202 0.038768
v 0.016826 0.005231 0.037359
v 0.018229 0.004015 0.036538
vt 0.853290 0.098715
vt 0.827896 0.096956
vt 0.842383 0.003010
vt 0.868095 0.012547
vt 0.802984 0.097991
vt 0.894468 0.145492
vt 0.773339 0.177147
vt 0.799612 0.131878
vt 0.768998 0.179947
vt 0.826949 0.133895
vt 0.899624 0.144334
vt 0.853068 0.133329
vt 0.883068 0.018127
vt 0.934598 0.075533
vt 0.877439 0.120113
vt 0.800383 0.081210
vt 0.717976 0.072520
vt 0.783026 0.009119
vt 0.801545 0.085358
vt 0.761117 0.153273
vt 0.783367 0.173095
vt 0.756119 0.155051
vt 0.769892 0.145156
vt 0.855536 0.082871
vt 0.854147 0.087064
vt 0.766392 0.170841
vt 0.781507 0.110577
vt 0.760366 0.172118
vt 0.852525 0.006378
vt 0.780051 0.182814
vt 0.777373 0.186939
vt 0.814070 0.084087
vt 0.831795 0.001953
vt 0.814679 0.080526
vt 0.885384 0.150018
vt 0.799324 0.192415
vt 0.815631 0.002344
vt 0.799766 0.197700
vt 0.877870 0.168866
vt 0.823699 0.196533
vt 0.823388 0.201534
vt 0.848259 0.193952
vt 0.854445 0.183381
vt 0.848214 0.199042
vt 0.864734 0.188040
vt 0.868308 0.191773
vt 0.796042 0.159375
vt 0.880028 0.177312
vt 0.798799 0.005249
vt 0.717014 0.089249
vt 0.716460 0.112617
vt 0.718193 0.134326
vt 0.853553 0.168831
vt 0.883024 0.181272
vt 0.936779 0.090268
vt 0.937023 0.104406
vt 0.936849 0.119680
vt 0.935723 0.136396
vt 0.924309 0.182078
vt 0.934034 0.154225
vt 0.912500 0.193664
vt 0.897495 0.206581
vt 0.876614 0.218670
vt 0.852979 0.226407
vt 0.821340 0.229016
vt 0.792223 0.224181
vt 0.766602 0.212940
vt 0.728321 0.178808
vt 0.746050 0.199950
vt 0.723310 0.162255
vt 0.755831 0.206379
vt 0.824911 0.171445
vt 0.824223 0.188213
vt 0.785984 0.083315
vt 0.716460 0.101305
vt 0.776369 0.095600
vt 0.781611 0.096939
vt 0.781611 0.096939
vt 0.763165 0.172107
vt 0.764773 0.114051
vt 0.770212 0.114414
vt 0.757705 0.133839
vt 0.762626 0.135833
vt 0.828557 0.081299
vt 0.828241 0.084714
vt 0.892965 0.170594
vt 0.770247 0.105397
vt 0.774777 0.107262
vt 0.789834 0.088429
vt 0.868657 0.091088
vt 0.871624 0.085917
vt 0.885004 0.103655
vt 0.881258 0.107391
vt 0.893572 0.120742
vt 0.888592 0.122007
vt 0.896980 0.132315
vt 0.891672 0.131890
vt 0.841971 0.081827
vt 0.888071 0.168833
vt 0.841118 0.085284
vt 0.900536 0.157556
vt 0.894782 0.155851
vt 0.759959 0.135258
vt 0.767393 0.114430
vt 0.772466 0.106432
vt 0.758387 0.154754
vt 0.758387 0.154754
vt 0.758387 0.154754
vt 0.778971 0.096194
vt 0.787968 0.085890
vt 0.801049 0.083266
vt 0.814471 0.082281
vt 0.828387 0.082975
vt 0.841409 0.083570
vt 0.854743 0.084963
vt 0.870097 0.088568
vt 0.883198 0.105685
vt 0.891253 0.121732
vt 0.894533 0.132572
vt 0.897320 0.145493
vt 0.897857 0.157300
vt 0.890642 0.170292
vt 0.881651 0.179806
vt 0.866641 0.190371
vt 0.848315 0.196957
vt 0.823529 0.199506
vt 0.799486 0.195552
vt 0.778569 0.185335
vt 0.771034 0.179098
vn -0.176079 -0.150341 0.972828
vn -0.025833 -0.135722 0.990410
vn -0.210961 -0.871160 -0.443368
vn -0.615240 -0.693329 -0.375200
vn 0.157923 -0.172264 0.972309
vn -0.346592 -0.383500 0.856038
vn 0.226786 -0.424646 0.876495
vn 0.124138 -0.267250 0.955598
vn 0.750910 0.484312 0.448972
vn -0.021060 -0.263076 0.964545
vn -0.993180 -0.089349 -0.074906
vn -0.130750 -0.301625 0.944419
vn -0.777353 -0.541859 -0.319548
vn -0.777353 -0.541859 -0.319548
vn -0.189055 -0.272393 0.943430
vn 0.464689 -0.793928 -0.392099
vn 0.714404 -0.596601 -0.365642
vn 0.714404 -0.596601 -0.365642
vn 0.244268 -0.190641 0.950783
vn 0.287400 -0.370521 0.883242
vn 0.117903 -0.415256 0.902032
vn 0.998346 0.009933 0.056621
vn 0.193155 -0.351368 0.916096
vn -0.545037 -0.759114 -0.355922
vn -0.298332 -0.178822 0.937561
vn 0.246369 -0.403354 0.881254
vn 0.214358 -0.247446 0.944892
vn 0.916072 0.277854 0.289154
vn -0.442838 -0.796264 -0.412139
vn 0.161879 -0.351007 0.922274
vn 0.560524 0.624033 0.544422
vn 0.127450 -0.157107 0.979323
vn 0.061834 -0.887889 -0.455883
vn 0.231792 -0.880006 -0.414562
vn -0.189762 -0.405888 0.894005
vn 0.095974 -0.378284 0.920701
vn 0.308437 -0.839387 -0.447544
vn 0.338639 0.704923 0.623223
vn -0.158558 -0.414615 0.896077
vn 0.013208 -0.293343 0.955916
vn 0.034127 0.734758 0.677470
vn -0.062365 -0.322408 0.944544
vn -0.079095 -0.398638 0.913691
vn -0.203998 0.736743 0.644666
vn -0.158982 -0.331480 0.929971
vn -0.478234 0.662345 0.576707
vn 0.113407 -0.379446 0.918237
vn -0.240336 -0.346729 0.906652
vn 0.555294 -0.721153 -0.414230
vn 0.792807 -0.514312 -0.327016
vn 0.919329 -0.314609 -0.236336
vn 0.974785 -0.176363 -0.136713
vn -0.088231 -0.409715 0.907936
vn -0.705931 0.531004 0.468718
vn -0.864409 -0.420088 -0.276266
vn -0.931016 -0.281993 -0.231710
vn -0.947502 -0.250776 -0.198370
vn -0.977951 -0.167252 -0.125057
vn -0.998615 0.045276 0.026804
vn -0.998615 0.045276 0.026804
vn -0.902436 0.334396 0.271641
vn -0.696026 0.543476 0.469235
vn -0.454786 0.671903 0.584565
vn -0.209865 0.720305 0.661148
vn 0.043806 0.730390 0.681624
vn 0.354115 0.701383 0.618598
vn 0.537871 0.624536 0.566259
vn 0.915357 0.301250 0.267153
vn 0.915357 0.301250 0.267153
vn 0.999109 0.028320 0.031304
vn 0.750443 0.489792 0.443778
vn 0.023816 -0.388522 0.921132
vn 0.027245 -0.387564 0.921440
vn 0.648544 -0.670625 -0.360073
vn 0.860777 -0.418147 -0.290200
vn 0.750981 -0.569723 -0.333831
vn 0.167519 -0.156510 0.973366
vn 0.274725 -0.192001 0.942158
vn 0.656822 -0.096452 0.747851
vn 0.909442 -0.358787 -0.210210
vn 0.324784 -0.333436 0.885063
vn 0.968774 -0.215456 -0.122700
vn 0.366471 -0.359366 0.858228
vn -0.032951 -0.908609 -0.416347
vn 0.000466 -0.164291 0.986412
vn -0.881703 0.347121 0.319542
vn 0.834068 -0.475372 -0.279914
vn 0.300955 -0.210462 0.930125
vn 0.279563 -0.182305 0.942661
vn -0.305412 -0.220331 0.926379
vn -0.725585 -0.618408 -0.301824
vn -0.851332 -0.462268 -0.248078
vn -0.366784 -0.267393 0.891050
vn -0.927946 -0.313710 -0.201250
vn -0.344496 -0.363426 0.865589
vn -0.970823 -0.187837 -0.149065
vn -0.293163 -0.367092 0.882779
vn -0.319274 -0.860961 -0.395993
vn -0.323548 -0.369694 0.871001
vn -0.174341 -0.144021 0.974096
vn -0.992138 0.091266 0.085628
vn -0.375135 -0.374411 0.847992
vn 0.761562 -0.354347 0.542643
vn 0.717483 -0.411541 0.562007
vn 0.718322 -0.437651 0.540810
vn 0.379525 -0.386376 0.840639
vn 0.639223 -0.198191 0.743044
vn 0.962595 -0.188723 0.194407
vn 0.679506 -0.506799 0.530496
vn 0.641323 -0.576152 0.506708
vn 0.522631 -0.674642 0.521263
vn 0.303088 -0.753956 0.582828
vn -0.039525 -0.802387 0.595494
vn -0.405519 -0.738374 0.538849
vn -0.600814 -0.618009 0.507038
vn -0.702849 -0.518599 0.486887
vn -0.751787 -0.449301 0.482644
vn -0.777494 -0.423385 0.465026
vn -0.751454 -0.363999 0.550292
vn -0.762569 -0.289226 0.578651
vn -0.742284 -0.182985 0.644617
vn -0.685391 -0.026655 0.727687
vn -0.539929 0.105140 0.835118
vn -0.376093 0.244300 0.893796
vn -0.166419 0.279122 0.945725
vn 0.036556 0.258304 0.965372
vn 0.275255 0.237428 0.931592
vn 0.444747 0.204369 0.872028
vn 0.578096 0.025480 0.815571
f 109/109/109 105/105/105 88/88/88
f 78/78/78 109/109/109 88/88/88
f 14/14/14 91/91/91 92/92/92
f 89/89/89 5/5/5 19/19/19
f 25/25/25 1/1/1 90/90/90
f 49/49/49 18/18/18 74/74/74
f 24/24/24 4/4/4 29/29/29
f 16/16/16 34/34/34 37/37/37
f 21/21/21 73/73/73 72/72/72
f 12/12/12 15/15/15 1/1/1
f 47/47/47 72/72/72 10/10/10
f 27/27/27 8/8/8 5/5/5
f 10/10/10 12/12/12 1/1/1
f 8/8/8 10/10/10 2/2/2
f 72/72/72 53/53/53 12/12/12
f 8/8/8 27/27/27 23/23/23
f 25/25/25 100/100/100 1/1/1
f 34/34/34 84/84/84 33/33/33
f 5/5/5 85/85/85 32/32/32
f 74/74/74 17/17/17 50/50/50
f 80/80/80 87/87/87 75/75/75
f 82/82/82 80/80/80 51/51/51
f 98/98/98 29/29/29 3/3/3
f 1/1/1 15/15/15 90/90/90
f 12/12/12 39/39/39 35/35/35
f 94/94/94 56/56/56 55/55/55
f 96/96/96 57/57/57 56/56/56
f 11/11/11 58/58/58 57/57/57
f 101/101/101 60/60/60 58/58/58
f 61/61/61 59/59/59 101/101/101
f 54/54/54 62/62/62 61/61/61
f 46/46/46 63/63/63 62/62/62
f 44/44/44 64/64/64 63/63/63
f 41/41/41 65/65/65 64/64/64
f 38/38/38 66/66/66 65/65/65
f 31/31/31 67/67/67 66/66/66
f 28/28/28 69/69/69 71/71/71
f 22/22/22 70/70/70 68/68/68
f 82/82/82 52/52/52 70/70/70
f 19/19/19 5/5/5 32/32/32
f 73/73/73 43/43/43 53/53/53
f 15/15/15 95/95/95 93/93/93
f 15/15/15 97/97/97 95/95/95
f 15/15/15 35/35/35 6/6/6
f 35/35/35 102/102/102 6/6/6
f 35/35/35 39/39/39 99/99/99
f 39/39/39 48/48/48 99/99/99
f 39/39/39 43/43/43 45/45/45
f 43/43/43 42/42/42 45/45/45
f 43/43/43 73/73/73 40/40/40
f 73/73/73 21/21/21 36/36/36
f 21/21/21 30/30/30 36/36/36
f 21/21/21 26/26/26 7/7/7
f 21/21/21 23/23/23 20/20/20
f 23/23/23 83/83/83 20/20/20
f 23/23/23 27/27/27 81/81/81
f 27/27/27 88/88/88 81/81/81
f 78/78/78 5/5/5 89/89/89
f 2/2/2 100/100/100 85/85/85
f 90/90/90 15/15/15 93/93/93
f 27/27/27 5/5/5 78/78/78
f 12/12/12 35/35/35 15/15/15
f 53/53/53 43/43/43 39/39/39
f 12/12/12 53/53/53 39/39/39
f 67/67/67 31/31/31 9/9/9
f 3/3/3 33/33/33 84/84/84
f 100/100/100 2/2/2 1/1/1
f 21/21/21 7/7/7 30/30/30
f 23/23/23 21/21/21 47/47/47
f 14/14/14 92/92/92 55/55/55
f 88/88/88 27/27/27 77/77/77
f 75/75/75 87/87/87 76/76/76
f 85/85/85 5/5/5 2/2/2
f 23/23/23 47/47/47 8/8/8
f 34/34/34 112/112/112 113/113/113
f 84/84/84 34/34/34 113/113/113
f 75/75/75 76/76/76 50/50/50
f 74/74/74 110/110/110 111/111/111
f 16/16/16 74/74/74 111/111/111
f 24/24/24 115/115/115 116/116/116
f 91/91/91 24/24/24 116/116/116
f 25/25/25 115/115/115 114/114/114
f 100/100/100 25/25/25 114/114/114
f 32/32/32 112/112/112 111/111/111
f 19/19/19 32/32/32 111/111/111
f 73/73/73 36/36/36 40/40/40
f 89/89/89 110/110/110 109/109/109
f 78/78/78 89/89/89 109/109/109
f 88/88/88 105/105/105 104/104/104
f 81/81/81 88/88/88 104/104/104
f 81/81/81 104/104/104 103/103/103
f 83/83/83 81/81/81 103/103/103
f 100/100/100 114/114/114 113/113/113
f 85/85/85 100/100/100 113/113/113
f 93/93/93 117/117/117 116/116/116
f 90/90/90 93/93/93 116/116/116
f 95/95/95 118/118/118 117/117/117
f 93/93/93 95/95/95 117/117/117
f 97/97/97 119/119/119 118/118/118
f 95/95/95 97/97/97 118/118/118
f 6/6/6 120/120/120 119/119/119
f 97/97/97 6/6/6 119/119/119
f 102/102/102 121/121/121 120/120/120
f 6/6/6 102/102/102 120/120/120
f 99/99/99 122/122/122 121/121/121
f 102/102/102 99/99/99 121/121/121
f 48/48/48 123/123/123 122/122/122
f 99/99/99 48/48/48 122/122/122
f 45/45/45 124/124/124 123/123/123
f 48/48/48 45/45/45 123/123/123
f 42/42/42 125/125/125 124/124/124
f 45/45/45 42/42/42 124/124/124
f 40/40/40 126/126/126 125/125/125
f 42/42/42 40/40/40 125/125/125
f 36/36/36 127/127/127 126/126/126
f 40/40/40 36/36/36 126/126/126
f 30/30/30 128/128/128 127/127/127
f 36/36/36 30/30/30 127/127/127
f 26/26/26 79/79/79 129/129/129
f 7/7/7 26/26/26 129/129/129
f 20/20/20 107/107/107 79/79/79
f 26/26/26 20/20/20 79/79/79
f 83/83/83 103/103/103 106/106/106
f 20/20/20 83/83/83 106/106/106
f 7/7/7 129/129/129 128/128/128
f 30/30/30 7/7/7 128/128/128
f 21/21/21 20/20/20 26/26/26
f 3/3/3 84/84/84 98/98/98
f 49/49/49 74/74/74 16/16/16
f 24/24/24 29/29/29 98/98/98
f 16/16/16 37/37/37 49/49/49
f 21/21/21 72/72/72 47/47/47
f 47/47/47 10/10/10 8/8/8
f 10/10/10 1/1/1 2/2/2
f 8/8/8 2/2/2 5/5/5
f 72/72/72 12/12/12 10/10/10
f 34/34/34 33/33/33 37/37/37
f 74/74/74 50/50/50 76/76/76
f 80/80/80 75/75/75 51/51/51
f 82/82/82 51/51/51 52/52/52
f 4/4/4 24/24/24 91/91/91
f 23/23/23 81/81/81 83/83/83
f 67/67/67 9/9/9 71/71/71
f 94/94/94 55/55/55 92/92/92
f 96/96/96 56/56/56 94/94/94
f 11/11/11 57/57/57 96/96/96
f 101/101/101 58/58/58 11/11/11
f 61/61/61 101/101/101 86/86/86
f 54/54/54 61/61/61 86/86/86
f 46/46/46 62/62/62 54/54/54
f 44/44/44 63/63/63 46/46/46
f 41/41/41 64/64/64 44/44/44
f 38/38/38 65/65/65 41/41/41
f 31/31/31 66/66/66 38/38/38
f 28/28/28 71/71/71 9/9/9
f 22/22/22 68/68/68 28/28/28
f 82/82/82 70/70/70 22/22/22
f 73/73/73 53/53/53 72/72/72
f 15/15/15 6/6/6 97/97/97
f 35/35/35 99/99/99 102/102/102
f 39/39/39 45/45/45 48/48/48
f 43/43/43 40/40/40 42/42/42
f 80/80/80 82/82/82 103/103/103
f 104/104/104 80/80/80 103/103/103
f 87/87/87 80/80/80 104/104/104
f 105/105/105 87/87/87 104/104/104
f 4/4/4 91/91/91 13/13/13
f 76/76/76 87/87/87 105/105/105
f 109/109/109 76/76/76 105/105/105
f 74/74/74 76/76/76 109/109/109
f 110/110/110 74/74/74 109/109/109
f 89/89/89 19/19/19 111/111/111
f 110/110/110 89/89/89 111/111/111
f 34/34/34 16/16/16 111/111/111
f 112/112/112 34/34/34 111/111/111
f 32/32/32 85/85/85 113/113/113
f 112/112/112 32/32/32 113/113/113
f 98/98/98 84/84/84 113/113/113
f 114/114/114 98/98/98 113/113/113
f 24/24/24 98/98/98 114/114/114
f 115/115/115 24/24/24 114/114/114
f 25/25/25 90/90/90 116/116/116
f 115/115/115 25/25/25 116/116/116
f 92/92/92 91/91/91 116/116/116
f 117/117/117 92/92/92 116/116/116
f 94/94/94 92/92/92 117/117/117
f 118/118/118 94/94/94 117/117/117
f 96/96/96 94/94/94 118/118/118
f 119/119/119 96/96/96 118/118/118
f 11/11/11 96/96/96 119/119/119
f 120/120/120 11/11/11 119/119/119
f 101/101/101 11/11/11 120/120/120
f 121/121/121 101/101/101 120/120/120
f 86/86/86 101/101/101 121/121/121
f 122/122/122 86/86/86 121/121/121
f 54/54/54 86/86/86 122/122/122
f 123/123/123 54/54/54 122/122/122
f 46/46/46 54/54/54 123/123/123
f 124/124/124 46/46/46 123/123/123
f 44/44/44 46/46/46 124/124/124
f 125/125/125 44/44/44 124/124/124
f 41/41/41 44/44/44 125/125/125
f 126/126/126 41/41/41 125/125/125
f 38/38/38 41/41/41 126/126/126
f 127/127/127 38/38/38 126/126/126
f 31/31/31 38/38/38 127/127/127
f 128/128/128 31/31/31 127/127/127
f 9/9/9 31/31/31 128/128/128
f 129/129/129 9/9/9 128/128/128
f 28/28/28 9/9/9 129/129/129
f 79/79/79 28/28/28 129/129/129
f 22/22/22 28/28/28 79/79/79
f 107/107/107 22/22/22 79/79/79
f 82/82/82 22/22/22 108/108/108
f 103/103/103 82/82/82 108/108/108
