# GloomhavenVR - pico-4 right 'button_secondary' (glTF material 0)
# generated by controllers_pipeline.py from webxr-input-profiles (MIT)
o pico4_right_button_secondary__m0
v -0.009343 0.027737 0.012515
v -0.008062 0.027878 0.013776
v -0.009036 0.021279 0.009073
v -0.005361 0.026811 0.017749
v -0.005361 0.026811 0.017749
v -0.007162 0.021279 0.009058
v -0.010762 0.026811 0.009804
v -0.010762 0.026811 0.009804
v -0.005425 0.021279 0.009761
v -0.004047 0.026811 0.016413
v -0.004047 0.026811 0.016413
v -0.004089 0.021279 0.011076
v -0.012076 0.026811 0.011140
v -0.012076 0.026811 0.011140
v -0.003358 0.021279 0.012802
v -0.003344 0.026811 0.014676
v -0.003344 0.026811 0.014676
v -0.003344 0.021279 0.014676
v -0.012780 0.026811 0.012876
v -0.012780 0.026811 0.012876
v -0.004047 0.021279 0.016413
v -0.003358 0.026811 0.012802
v -0.003358 0.026811 0.012802
v -0.005361 0.021279 0.017749
v -0.012765 0.026811 0.014750
v -0.012765 0.026811 0.014750
v -0.007087 0.021279 0.018479
v -0.004089 0.026811 0.011076
v -0.004089 0.026811 0.011076
v -0.008961 0.021279 0.018495
v -0.012034 0.026811 0.016476
v -0.012034 0.026811 0.016476
v -0.010698 0.021279 0.017792
v -0.005425 0.026811 0.009761
v -0.005425 0.026811 0.009761
v -0.012034 0.021279 0.016476
v -0.010698 0.026811 0.017792
v -0.010698 0.026811 0.017792
v -0.012765 0.021279 0.014750
v -0.007162 0.026811 0.009058
v -0.007162 0.026811 0.009058
v -0.012780 0.021279 0.012876
v -0.008961 0.026811 0.018495
v -0.008961 0.026811 0.018495
v -0.012076 0.021279 0.011140
v -0.009036 0.026811 0.009073
v -0.009036 0.026811 0.009073
v -0.010762 0.021279 0.009804
v -0.007087 0.026811 0.018479
v -0.007087 0.026811 0.018479
v -0.008089 0.027436 0.010379
v -0.008047 0.027737 0.015574
v -0.005679 0.027436 0.011355
v -0.008076 0.027737 0.011979
v -0.004665 0.027436 0.013749
v -0.006801 0.027737 0.012495
v -0.005641 0.027436 0.016159
v -0.006781 0.027737 0.015037
v -0.008035 0.027436 0.017174
v -0.009322 0.027737 0.015057
v -0.010445 0.027436 0.016198
v -0.006265 0.027737 0.013762
v -0.011459 0.027436 0.013803
v -0.009859 0.027737 0.013791
v -0.010483 0.027436 0.011393
v -0.003612 0.021279 0.011889
v -0.003612 0.026811 0.011889
v -0.003612 0.026811 0.011889
v -0.003229 0.021279 0.013731
v -0.003229 0.026811 0.013677
v -0.003229 0.026811 0.013677
v -0.004638 0.026811 0.010364
v -0.004638 0.026811 0.010364
v -0.004643 0.021279 0.010359
v -0.006257 0.026811 0.009292
v -0.006257 0.026811 0.009292
v -0.006215 0.021279 0.009310
v -0.008098 0.026811 0.008943
v -0.008098 0.026811 0.008943
v -0.008080 0.021279 0.008943
v -0.009944 0.026811 0.009324
v -0.009944 0.026811 0.009324
v -0.009944 0.021279 0.009324
v -0.011511 0.026811 0.010375
v -0.011511 0.026811 0.010375
v -0.011510 0.021279 0.010389
v -0.012541 0.026811 0.011961
v -0.012541 0.026811 0.011961
v -0.012551 0.021279 0.011986
v -0.012895 0.026811 0.013848
v -0.012895 0.026811 0.013848
v -0.012895 0.021279 0.013823
v -0.012496 0.026811 0.015702
v -0.012496 0.026811 0.015702
v -0.012504 0.021279 0.015680
v -0.011431 0.026811 0.017242
v -0.011431 0.026811 0.017242
v -0.011431 0.026811 0.017242
v -0.011448 0.021279 0.017225
v -0.011448 0.021279 0.017225
v -0.009870 0.021279 0.018259
v -0.009821 0.026811 0.018279
v -0.009821 0.026811 0.018279
v -0.007981 0.026811 0.018609
v -0.007981 0.026811 0.018609
v -0.007985 0.021279 0.018609
v -0.006167 0.026811 0.018223
v -0.006167 0.026811 0.018223
v -0.006146 0.021279 0.018214
v -0.004604 0.026811 0.017153
v -0.004604 0.026811 0.017153
v -0.004599 0.021279 0.017149
v -0.003567 0.026811 0.015553
v -0.003567 0.026811 0.015553
v -0.003580 0.021279 0.015586
v -0.009277 0.027436 0.016928
v -0.008671 0.027737 0.015321
v -0.011184 0.027436 0.015064
v -0.009593 0.027737 0.014419
v -0.011184 0.027436 0.012489
v -0.009598 0.027737 0.013147
v -0.009381 0.027436 0.010667
v -0.008720 0.027737 0.012252
v -0.006758 0.027436 0.010661
v -0.007437 0.027737 0.012238
v -0.004935 0.027436 0.012500
v -0.006526 0.027737 0.013145
v -0.004953 0.027436 0.015097
v -0.006529 0.027737 0.014416
v -0.007401 0.027737 0.015300
v -0.006740 0.027436 0.016884
vt 0.860878 0.435352
vt 0.868458 0.431707
vt 0.911970 0.327299
vt 0.890933 0.425864
vt 0.941034 0.293932
vt 0.913808 0.321765
vt 0.926332 0.338213
vt 0.845945 0.437497
vt 0.915645 0.316229
vt 0.887015 0.417696
vt 0.939196 0.299468
vt 0.917483 0.310695
vt 0.924489 0.343757
vt 0.849910 0.445655
vt 0.919321 0.305160
vt 0.880253 0.411665
vt 0.937358 0.305004
vt 0.921159 0.299625
vt 0.922648 0.349290
vt 0.856633 0.451725
vt 0.922996 0.294090
vt 0.871694 0.408709
vt 0.935521 0.310539
vt 0.924834 0.288554
vt 0.920808 0.354823
vt 0.865224 0.454726
vt 0.926672 0.283019
vt 0.862662 0.409176
vt 0.933683 0.316074
vt 0.928510 0.277485
vt 0.918966 0.360357
vt 0.874324 0.454204
vt 0.930347 0.271950
vt 0.854505 0.413135
vt 0.931845 0.321608
vt 0.902770 0.354972
vt 0.946547 0.277328
vt 0.882450 0.450277
vt 0.904611 0.349437
vt 0.848434 0.419854
vt 0.930007 0.327143
vt 0.906452 0.343902
vt 0.944709 0.282863
vt 0.888506 0.443488
vt 0.908292 0.338370
vt 0.928169 0.332678
vt 0.845429 0.428433
vt 0.910132 0.332835
vt 0.891496 0.434903
vt 0.942871 0.288397
vt 0.853325 0.426398
vt 0.876406 0.434482
vt 0.861505 0.417254
vt 0.860515 0.428922
vt 0.873749 0.416568
vt 0.864805 0.424123
vt 0.882892 0.424729
vt 0.876038 0.428049
vt 0.883598 0.436984
vt 0.872117 0.439288
vt 0.875427 0.446146
vt 0.871235 0.423760
vt 0.863178 0.446834
vt 0.865689 0.439648
vt 0.854015 0.438648
vt 0.918400 0.307933
vt 0.867151 0.408358
vt 0.934599 0.313312
vt 0.920233 0.302413
vt 0.875878 0.409554
vt 0.936381 0.307948
vt 0.858534 0.410549
vt 0.932808 0.318708
vt 0.916602 0.313348
vt 0.851012 0.416128
vt 0.930916 0.324405
vt 0.914761 0.318894
vt 0.929091 0.329903
vt 0.846405 0.423947
vt 0.912909 0.324472
vt 0.927253 0.335436
vt 0.845125 0.432983
vt 0.911054 0.330057
vt 0.925416 0.340972
vt 0.847364 0.441827
vt 0.909208 0.335617
vt 0.923570 0.346520
vt 0.852866 0.449112
vt 0.907348 0.341210
vt 0.921695 0.352155
vt 0.860897 0.453811
vt 0.905523 0.346694
vt 0.919845 0.357719
vt 0.870018 0.455019
vt 0.903670 0.352264
vt 0.918010 0.363235
vt 0.947437 0.274647
vt 0.878711 0.452705
vt 0.901843 0.357756
vt 0.931261 0.269198
vt 0.929423 0.274733
vt 0.945570 0.280268
vt 0.886093 0.447041
vt 0.890600 0.439188
vt 0.943750 0.285752
vt 0.927554 0.280363
vt 0.891796 0.430286
vt 0.941943 0.291194
vt 0.925721 0.285882
vt 0.889447 0.421454
vt 0.940097 0.296756
vt 0.923891 0.291396
vt 0.883863 0.414131
vt 0.938239 0.302352
vt 0.922073 0.296870
vt 0.880534 0.442123
vt 0.874312 0.436834
vt 0.869219 0.447630
vt 0.868879 0.439473
vt 0.857777 0.443516
vt 0.863258 0.437482
vt 0.852538 0.432594
vt 0.860695 0.432190
vt 0.856697 0.420946
vt 0.862662 0.426515
vt 0.867763 0.415784
vt 0.868102 0.423935
vt 0.879273 0.419986
vt 0.873699 0.425956
vt 0.876221 0.431200
vt 0.884365 0.430772
vn -0.102311 0.989702 -0.100112
vn -0.000008 1.000000 -0.000015
vn -0.200706 -0.000185 -0.979651
vn 0.213435 0.921470 0.324558
vn 0.564550 -0.000066 0.825399
vn 0.192472 -0.000460 -0.981302
vn -0.557488 -0.001020 -0.830184
vn -0.218894 0.918812 -0.328435
vn 0.555370 0.000068 -0.831604
vn 0.332979 0.917975 0.215513
vn 0.839018 0.000359 0.544104
vn 0.829209 -0.000000 -0.558939
vn -0.838945 -0.000277 -0.544217
vn -0.328530 0.921697 -0.206259
vn 0.979000 -0.000575 -0.203859
vn 0.387711 0.918796 0.074126
vn 0.984084 0.000530 0.177701
vn 0.982498 -0.000379 0.186275
vn -0.982844 0.000256 -0.184441
vn -0.387776 0.918660 -0.075455
vn 0.837512 0.000067 0.546420
vn 0.377653 0.921844 -0.087075
vn 0.977835 -0.000001 -0.209377
vn 0.566836 0.000240 0.823831
vn -0.977662 0.000179 0.210183
vn -0.386939 0.918300 0.083686
vn 0.210054 -0.000039 0.977690
vn 0.327972 0.919115 -0.218319
vn 0.829604 -0.000075 -0.558352
vn -0.182223 -0.000560 0.983257
vn -0.822582 0.000250 0.568646
vn -0.326564 0.918875 0.221414
vn -0.547806 -0.000256 0.836605
vn 0.208659 0.921390 -0.327874
vn 0.552277 0.000466 -0.833661
vn -0.825362 -0.000312 0.564604
vn -0.541833 0.000530 0.840486
vn -0.212237 0.918963 0.332358
vn -0.978541 -0.000266 0.206050
vn 0.076147 0.918876 -0.387128
vn 0.186958 0.000190 -0.982368
vn -0.982861 0.000282 -0.184350
vn -0.176785 0.000037 0.984249
vn -0.072613 0.918078 0.389692
vn -0.837701 -0.000797 -0.546128
vn -0.202446 0.000002 -0.979294
vn -0.081965 0.918601 -0.386594
vn -0.562393 -0.000002 -0.826870
vn 0.083513 0.918691 0.386048
vn 0.208269 -0.000236 0.978072
vn -0.001192 0.955827 -0.293928
vn 0.002520 0.989701 0.143125
vn 0.207653 0.956065 -0.206929
vn -0.001810 0.989699 -0.143151
vn 0.293249 0.956034 0.002047
vn 0.100748 0.989740 -0.101311
vn 0.208002 0.956071 0.206550
vn 0.101654 0.989744 0.100369
vn 0.004287 0.955770 0.294082
vn -0.099887 0.989625 0.103272
vn -0.205413 0.955918 0.209826
vn 0.143029 0.989718 0.000049
vn -0.294089 0.955778 0.000232
vn -0.142977 0.989726 0.000762
vn -0.207898 0.956186 -0.206122
vn 0.920703 -0.000000 -0.390263
vn 0.362268 0.920827 -0.144362
vn 0.920703 -0.000001 -0.390263
vn 0.999975 -0.000571 -0.007094
vn 0.398779 0.917037 -0.004297
vn 0.999962 0.000563 -0.008708
vn 0.280316 0.917061 -0.283587
vn 0.701530 -0.000077 -0.712640
vn 0.701351 0.000073 -0.712816
vn 0.154022 0.920862 -0.358177
vn 0.374573 0.000473 -0.927197
vn 0.375921 -0.000475 -0.926652
vn -0.007562 0.000190 -0.999971
vn -0.002927 0.917036 -0.398794
vn -0.007470 -0.000190 -0.999972
vn -0.390006 0.000002 -0.920812
vn -0.153519 0.919040 -0.363038
vn -0.389658 -0.000002 -0.920960
vn -0.712211 -0.001253 -0.701964
vn -0.282214 0.918145 -0.278145
vn -0.712450 -0.001037 -0.701723
vn -0.926638 -0.000280 -0.375954
vn -0.358122 0.920749 -0.154825
vn -0.926936 0.000291 -0.375219
vn -0.999966 0.000265 0.008288
vn -0.398722 0.917064 0.003895
vn -0.999972 -0.000269 0.007485
vn -0.920688 0.000174 0.390299
vn -0.362127 0.919137 0.155085
vn -0.920964 -0.000331 0.389647
vn -0.701267 0.000259 0.712899
vn -0.701267 0.000259 0.712899
vn -0.279349 0.917033 0.284630
vn -0.701775 -0.000257 0.712398
vn -0.701775 -0.000257 0.712398
vn -0.376057 -0.000567 0.926596
vn -0.374549 0.000561 0.927207
vn -0.148080 0.919039 0.365294
vn 0.004112 0.916996 0.398876
vn 0.008340 0.000038 0.999965
vn 0.008224 -0.000040 0.999966
vn 0.161005 0.920699 0.355515
vn 0.389236 -0.000244 0.921138
vn 0.389916 0.000251 0.920850
vn 0.284545 0.917052 0.279375
vn 0.712809 -0.000068 0.701358
vn 0.712995 0.000068 0.701169
vn 0.366072 0.919065 0.145981
vn 0.927123 0.000374 0.374758
vn 0.926772 -0.000378 0.375625
vn -0.106684 0.956640 0.271034
vn -0.045190 0.990739 0.128038
vn -0.267446 0.956740 0.114551
vn -0.123147 0.990619 0.059237
vn -0.273139 0.955401 -0.112269
vn -0.128803 0.990641 -0.045173
vn -0.115556 0.956701 -0.267151
vn -0.058991 0.990657 -0.122957
vn 0.112799 0.955393 -0.272946
vn 0.045209 0.990606 -0.129054
vn 0.272606 0.955440 -0.113224
vn 0.123159 0.990616 -0.059257
vn 0.269862 0.956764 0.108524
vn 0.129160 0.990593 0.045205
vn 0.059030 0.990660 0.122918
vn 0.120218 0.955320 0.270022
f 116/116/116 103/103/103 44/44/44
f 116/116/116 44/44/44 59/59/59
f 131/131/131 107/107/107 57/57/57
f 10/10/10 128/128/128 57/57/57
f 128/128/128 16/16/16 55/55/55
f 126/126/126 67/67/67 28/28/28
f 126/126/126 28/28/28 53/53/53
f 124/124/124 75/75/75 40/40/40
f 124/124/124 40/40/40 51/51/51
f 8/8/8 122/122/122 82/82/82
f 120/120/120 88/88/88 20/20/20
f 120/120/120 20/20/20 63/63/63
f 32/32/32 118/118/118 94/94/94
f 57/57/57 107/107/107 4/4/4
f 123/123/123 2/2/2 54/54/54
f 80/80/80 78/78/78 41/41/41
f 77/77/77 76/76/76 35/35/35
f 125/125/125 124/124/124 51/51/51
f 121/121/121 2/2/2 1/1/1
f 74/74/74 73/73/73 29/29/29
f 59/59/59 104/104/104 49/49/49
f 55/55/55 70/70/70 22/22/22
f 12/12/12 29/29/29 68/68/68
f 127/127/127 126/126/126 53/53/53
f 119/119/119 2/2/2 64/64/64
f 69/69/69 71/71/71 17/17/17
f 115/115/115 114/114/114 11/11/11
f 129/129/129 128/128/128 55/55/55
f 117/117/117 2/2/2 60/60/60
f 112/112/112 111/111/111 5/5/5
f 65/65/65 85/85/85 14/14/14
f 110/110/110 57/57/57 4/4/4
f 109/109/109 108/108/108 50/50/50
f 130/130/130 131/131/131 57/57/57
f 52/52/52 59/59/59 131/131/131
f 106/106/106 105/105/105 43/43/43
f 101/101/101 102/102/102 37/37/37
f 52/52/52 2/2/2 117/117/117
f 58/58/58 57/57/57 128/128/128
f 99/99/99 96/96/96 31/31/31
f 91/91/91 63/63/63 20/20/20
f 51/51/51 79/79/79 47/47/47
f 95/95/95 93/93/93 25/25/25
f 60/60/60 2/2/2 119/119/119
f 62/62/62 55/55/55 126/126/126
f 92/92/92 90/90/90 19/19/19
f 89/89/89 87/87/87 13/13/13
f 64/64/64 2/2/2 121/121/121
f 56/56/56 53/53/53 124/124/124
f 86/86/86 84/84/84 7/7/7
f 61/61/61 98/98/98 38/38/38
f 53/53/53 72/72/72 34/34/34
f 83/83/83 81/81/81 46/46/46
f 1/1/1 2/2/2 123/123/123
f 23/23/23 66/66/66 68/68/68
f 15/15/15 23/23/23 71/71/71
f 18/18/18 17/17/17 114/114/114
f 9/9/9 35/35/35 73/73/73
f 6/6/6 41/41/41 76/76/76
f 3/3/3 46/46/46 78/78/78
f 48/48/48 7/7/7 81/81/81
f 45/45/45 13/13/13 84/84/84
f 42/42/42 19/19/19 87/87/87
f 39/39/39 25/25/25 90/90/90
f 36/36/36 31/31/31 93/93/93
f 33/33/33 37/37/37 97/97/97
f 30/30/30 43/43/43 102/102/102
f 27/27/27 50/50/50 105/105/105
f 24/24/24 5/5/5 108/108/108
f 21/21/21 11/11/11 111/111/111
f 28/28/28 72/72/72 53/53/53
f 16/16/16 70/70/70 55/55/55
f 60/60/60 61/61/61 116/116/116
f 117/117/117 116/116/116 59/59/59
f 64/64/64 63/63/63 118/118/118
f 119/119/119 118/118/118 61/61/61
f 1/1/1 65/65/65 120/120/120
f 121/121/121 120/120/120 63/63/63
f 54/54/54 51/51/51 122/122/122
f 123/123/123 122/122/122 65/65/65
f 54/54/54 2/2/2 125/125/125
f 125/125/125 2/2/2 56/56/56
f 56/56/56 2/2/2 127/127/127
f 127/127/127 2/2/2 62/62/62
f 62/62/62 2/2/2 129/129/129
f 129/129/129 2/2/2 58/58/58
f 58/58/58 2/2/2 130/130/130
f 130/130/130 2/2/2 52/52/52
f 118/118/118 26/26/26 94/94/94
f 63/63/63 26/26/26 118/118/118
f 26/26/26 63/63/63 91/91/91
f 88/88/88 65/65/65 14/14/14
f 65/65/65 88/88/88 120/120/120
f 8/8/8 85/85/85 65/65/65
f 122/122/122 47/47/47 82/82/82
f 122/122/122 8/8/8 65/65/65
f 51/51/51 47/47/47 122/122/122
f 40/40/40 79/79/79 51/51/51
f 75/75/75 53/53/53 34/34/34
f 53/53/53 75/75/75 124/124/124
f 67/67/67 55/55/55 22/22/22
f 55/55/55 67/67/67 126/126/126
f 16/16/16 128/128/128 113/113/113
f 61/61/61 38/38/38 116/116/116
f 57/57/57 110/110/110 10/10/10
f 131/131/131 49/49/49 107/107/107
f 59/59/59 49/49/49 131/131/131
f 44/44/44 104/104/104 59/59/59
f 116/116/116 38/38/38 103/103/103
f 113/113/113 128/128/128 10/10/10
f 118/118/118 32/32/32 61/61/61
f 32/32/32 98/98/98 61/61/61
f 80/80/80 41/41/41 6/6/6
f 77/77/77 35/35/35 9/9/9
f 125/125/125 51/51/51 54/54/54
f 74/74/74 29/29/29 12/12/12
f 12/12/12 68/68/68 66/66/66
f 127/127/127 53/53/53 56/56/56
f 69/69/69 17/17/17 18/18/18
f 115/115/115 11/11/11 21/21/21
f 129/129/129 55/55/55 62/62/62
f 112/112/112 5/5/5 24/24/24
f 109/109/109 50/50/50 27/27/27
f 130/130/130 57/57/57 58/58/58
f 52/52/52 131/131/131 130/130/130
f 106/106/106 43/43/43 30/30/30
f 101/101/101 37/37/37 33/33/33
f 58/58/58 128/128/128 129/129/129
f 99/99/99 31/31/31 36/36/36
f 95/95/95 25/25/25 39/39/39
f 62/62/62 126/126/126 127/127/127
f 92/92/92 19/19/19 42/42/42
f 89/89/89 13/13/13 45/45/45
f 56/56/56 124/124/124 125/125/125
f 86/86/86 7/7/7 48/48/48
f 83/83/83 46/46/46 3/3/3
f 123/123/123 65/65/65 1/1/1
f 15/15/15 71/71/71 69/69/69
f 18/18/18 114/114/114 115/115/115
f 9/9/9 73/73/73 74/74/74
f 6/6/6 76/76/76 77/77/77
f 3/3/3 78/78/78 80/80/80
f 48/48/48 81/81/81 83/83/83
f 45/45/45 84/84/84 86/86/86
f 42/42/42 87/87/87 89/89/89
f 39/39/39 90/90/90 92/92/92
f 36/36/36 93/93/93 95/95/95
f 33/33/33 97/97/97 100/100/100
f 30/30/30 102/102/102 101/101/101
f 27/27/27 105/105/105 106/106/106
f 24/24/24 108/108/108 109/109/109
f 21/21/21 111/111/111 112/112/112
f 60/60/60 116/116/116 117/117/117
f 117/117/117 59/59/59 52/52/52
f 64/64/64 118/118/118 119/119/119
f 119/119/119 61/61/61 60/60/60
f 1/1/1 120/120/120 121/121/121
f 121/121/121 63/63/63 64/64/64
f 54/54/54 122/122/122 123/123/123
f 66/66/66 23/23/23 15/15/15
