# GloomhavenVR - pico-4 right 'squeeze' (glTF material 0)
# generated by controllers_pipeline.py from webxr-input-profiles (MIT)
o pico4_right_squeeze__m0
v 0.006314 -0.010397 -0.005593
v 0.006450 -0.008195 -0.004594
v -0.008701 -0.000846 -0.018880
v -0.008758 -0.000778 -0.023189
v 0.006472 -0.005826 -0.004388
v -0.008660 0.001884 -0.016767
v -0.003954 -0.011027 -0.006882
v 0.006428 -0.003846 -0.004782
v 0.006428 -0.003846 -0.004782
v 0.006313 -0.002457 -0.005487
v -0.005479 -0.008506 -0.005498
v -0.008189 0.003997 -0.012369
v -0.007234 -0.005893 -0.004213
v 0.006151 -0.000617 -0.007191
v -0.009164 -0.003283 -0.020753
v 0.005992 0.001461 -0.010209
v -0.008025 -0.003438 -0.014724
v -0.008768 0.003611 -0.012812
v -0.008725 -0.000413 -0.012611
v -0.007923 -0.004127 -0.007202
v 0.005561 0.003163 -0.012739
v -0.005698 -0.009778 -0.011107
v 0.005227 0.004046 -0.014127
v -0.006717 -0.006695 -0.009007
v -0.002029 -0.011961 -0.005884
v -0.008030 -0.006364 -0.016577
v 0.004820 0.005033 -0.016076
v -0.008549 0.001003 -0.021881
v 0.005812 -0.012878 -0.009160
v 0.005812 -0.012878 -0.009160
v 0.006116 -0.011862 -0.007003
v 0.005150 -0.012525 -0.014437
v 0.003496 0.001871 -0.025370
v 0.005404 -0.013095 -0.012066
v 0.004572 -0.009027 -0.020075
v -0.003078 -0.011580 -0.006221
v 0.004976 -0.010854 -0.017216
v 0.003671 -0.005697 -0.024238
v -0.007920 -0.004804 -0.003134
v 0.004026 -0.007645 -0.022233
v 0.003424 -0.001660 -0.025961
v 0.003424 -0.001660 -0.025961
v 0.003530 -0.004038 -0.025299
v 0.004589 0.005627 -0.017810
v 0.004589 0.005627 -0.017810
v 0.004316 0.005742 -0.019694
v -0.008021 0.003352 -0.020002
v -0.007548 -0.004367 -0.002633
v -0.001854 -0.012971 -0.008109
v -0.002869 -0.012398 -0.007918
v 0.003928 0.004986 -0.022386
v -0.003019 -0.013136 -0.010750
v -0.003969 -0.012541 -0.010787
v 0.003726 0.003934 -0.023805
v -0.003248 -0.010402 -0.004223
v -0.004328 -0.009934 -0.004569
v 0.004121 0.005501 -0.021011
v -0.004238 -0.012510 -0.012976
v -0.005030 -0.011981 -0.012684
v 0.003575 0.002641 -0.024911
v -0.005964 -0.010716 -0.015505
v -0.006823 -0.009927 -0.015562
v -0.006327 -0.006362 -0.002558
v -0.007022 -0.006323 -0.003138
v -0.007333 -0.008842 -0.018244
v -0.007954 -0.008373 -0.017847
v -0.008400 -0.007343 -0.020487
v -0.009006 -0.006670 -0.020332
v -0.004962 -0.008171 -0.002945
v -0.005714 -0.008142 -0.003549
v -0.009018 -0.005356 -0.022449
v -0.009506 -0.004971 -0.021938
v -0.009016 -0.003921 -0.023326
v -0.009299 -0.002897 -0.023050
v 0.003426 0.000052 -0.025886
v -0.009165 -0.001159 -0.005225
v -0.008736 -0.000760 -0.004880
v -0.008774 -0.002833 -0.003846
v -0.008284 -0.002659 -0.003309
v -0.009000 0.002375 -0.010649
v -0.008451 0.002866 -0.010419
v -0.009212 0.000904 -0.008321
v -0.008699 0.001179 -0.007760
v -0.008382 0.004465 -0.014654
v -0.007742 0.004991 -0.014469
v -0.007620 0.004944 -0.019123
v -0.006869 0.005526 -0.019407
v -0.007569 0.004465 -0.020458
v -0.006827 0.005016 -0.020844
v -0.007713 0.003777 -0.021446
v -0.007027 0.004085 -0.022135
v -0.007404 0.002810 -0.023212
v -0.008113 0.002309 -0.022689
v -0.008321 0.001644 -0.023036
v -0.007663 0.001967 -0.023692
v -0.008756 -0.000385 -0.023407
v -0.008198 0.000136 -0.024065
v -0.008042 0.005102 -0.016698
v -0.007433 0.005618 -0.016264
v -0.007709 0.005119 -0.018432
v -0.007019 0.005749 -0.018251
v -0.008989 -0.001199 -0.023425
v -0.008653 -0.001505 -0.024062
v -0.009132 -0.000902 -0.004938
v -0.009131 0.001113 -0.007944
v -0.008896 0.002725 -0.010488
v -0.008645 0.003914 -0.012553
v -0.008219 0.004858 -0.014563
v -0.007893 0.005496 -0.016487
v -0.007510 0.005578 -0.018386
v -0.007385 0.005374 -0.019351
v -0.007339 0.004872 -0.020759
v -0.007517 0.004037 -0.021932
v -0.007908 0.002663 -0.023094
v -0.008147 0.001889 -0.023521
v -0.008644 -0.000049 -0.023897
v -0.009007 -0.001347 -0.023903
v -0.009351 -0.003476 -0.023317
v -0.009443 -0.005206 -0.022327
v -0.008870 -0.007089 -0.020499
v -0.007798 -0.008694 -0.018126
v -0.006517 -0.010449 -0.015555
v -0.004743 -0.012377 -0.012845
v -0.003580 -0.012980 -0.010738
v -0.002430 -0.012823 -0.007968
v -0.002622 -0.011886 -0.005949
v -0.003868 -0.010271 -0.004274
v -0.005458 -0.008208 -0.003095
v -0.006813 -0.006374 -0.002693
v -0.007906 -0.004565 -0.002734
v -0.008702 -0.002723 -0.003433
vt 0.853530 0.540698
vt 0.842701 0.534831
vt 0.816805 0.664162
vt 0.828087 0.682694
vt 0.831959 0.529906
vt 0.800752 0.661536
vt 0.839885 0.590672
vt 0.724736 0.583159
vt 0.822980 0.525807
vt 0.723400 0.590742
vt 0.823911 0.592757
vt 0.782311 0.648562
vt 0.809917 0.593024
vt 0.720896 0.603087
vt 0.830200 0.666694
vt 0.718150 0.621590
vt 0.819487 0.641663
vt 0.786234 0.649394
vt 0.802924 0.640001
vt 0.808279 0.609890
vt 0.717747 0.637294
vt 0.840523 0.612269
vt 0.718488 0.645757
vt 0.823141 0.611030
vt 0.844631 0.580629
vt 0.834738 0.643053
vt 0.719304 0.656882
vt 0.817187 0.679815
vt 0.872756 0.551419
vt 0.895993 0.583439
vt 0.862575 0.545851
vt 0.901237 0.610486
vt 0.801711 0.740741
vt 0.898629 0.597663
vt 0.904587 0.646080
vt 0.841992 0.585568
vt 0.904587 0.627823
vt 0.900252 0.674535
vt 0.798998 0.591672
vt 0.902946 0.659961
vt 0.818714 0.745302
vt 0.895494 0.696172
vt 0.898283 0.684558
vt 0.719317 0.665750
vt 0.758985 0.726110
vt 0.767520 0.729322
vt 0.802382 0.677018
vt 0.794290 0.588646
vt 0.856244 0.586717
vt 0.850193 0.589913
vt 0.780715 0.734153
vt 0.858207 0.601119
vt 0.853531 0.603737
vt 0.789200 0.736955
vt 0.832246 0.580429
vt 0.829086 0.585112
vt 0.773812 0.731607
vt 0.857460 0.613153
vt 0.852835 0.613973
vt 0.797367 0.739571
vt 0.853108 0.628597
vt 0.848288 0.631336
vt 0.806455 0.585289
vt 0.806616 0.589243
vt 0.849634 0.644218
vt 0.845176 0.644083
vt 0.846082 0.656555
vt 0.842273 0.657917
vt 0.817559 0.582589
vt 0.817254 0.586684
vt 0.842261 0.668810
vt 0.838837 0.667769
vt 0.839698 0.675916
vt 0.835098 0.677126
vt 0.810772 0.743250
vt 0.792911 0.609338
vt 0.790056 0.608565
vt 0.795166 0.599945
vt 0.792598 0.597276
vt 0.787900 0.638060
vt 0.784038 0.638169
vt 0.789952 0.625809
vt 0.786520 0.624013
vt 0.785064 0.658692
vt 0.780477 0.659435
vt 0.793228 0.677438
vt 0.790744 0.681355
vt 0.798889 0.681334
vt 0.796879 0.685467
vt 0.804263 0.683477
vt 0.803921 0.688192
vt 0.811882 0.689562
vt 0.813526 0.685327
vt 0.817254 0.685469
vt 0.816674 0.689823
vt 0.827088 0.684199
vt 0.826234 0.688757
vt 0.785512 0.668382
vt 0.779552 0.668878
vt 0.790550 0.675171
vt 0.786395 0.677349
vt 0.830740 0.683043
vt 0.835187 0.687042
vt 0.791585 0.608826
vt 0.788428 0.624725
vt 0.786128 0.638134
vt 0.784461 0.648966
vt 0.782924 0.659215
vt 0.782748 0.668588
vt 0.788530 0.676217
vt 0.792108 0.679456
vt 0.798015 0.683501
vt 0.804331 0.685970
vt 0.812856 0.687584
vt 0.817094 0.687770
vt 0.826818 0.686721
vt 0.833166 0.685219
vt 0.837566 0.676563
vt 0.840465 0.668591
vt 0.844096 0.657491
vt 0.847267 0.644447
vt 0.850674 0.629973
vt 0.855094 0.613588
vt 0.855870 0.602375
vt 0.853187 0.588328
vt 0.843200 0.583018
vt 0.830526 0.582691
vt 0.817001 0.584610
vt 0.806104 0.587242
vt 0.796461 0.590266
vt 0.793892 0.598597
vn 0.118417 -0.552916 0.824780
vn 0.139579 -0.238704 0.961009
vn -0.995602 0.025625 0.090110
vn -0.986719 0.158894 0.033740
vn 0.139472 0.047195 0.989101
vn -0.998310 0.029750 -0.049913
vn -0.809430 -0.548677 0.209228
vn 0.130218 0.318767 0.938845
vn 0.130218 0.318767 0.938845
vn 0.109652 0.602283 0.790716
vn -0.843667 -0.536615 0.016423
vn 0.032855 0.878454 0.476696
vn -0.856044 -0.509421 -0.087631
vn 0.087139 0.771563 0.630156
vn -0.985480 0.061582 0.158232
vn 0.076687 0.828101 0.555309
vn -0.976751 -0.189835 0.099604
vn -0.996228 0.071307 -0.049444
vn -0.981556 -0.187386 -0.037865
vn -0.928315 -0.363796 -0.076707
vn 0.071775 0.839567 0.538494
vn -0.907895 -0.385397 0.164914
vn 0.059682 0.875217 0.480035
vn -0.921937 -0.385028 0.042263
vn 0.066763 -0.800799 0.595200
vn -0.961004 -0.157994 0.226957
vn 0.048619 0.918741 0.391855
vn -0.985651 0.168542 0.009203
vn 0.043351 -0.971897 0.231380
vn 0.043351 -0.971897 0.231380
vn 0.087263 -0.812010 0.577083
vn -0.063527 -0.914691 -0.399129
vn -0.135963 0.355704 -0.924656
vn -0.009119 -0.996187 -0.086761
vn -0.093715 -0.846536 -0.524018
vn -0.676856 -0.695697 0.240563
vn -0.089693 -0.848050 -0.522270
vn -0.122807 -0.654217 -0.746270
vn -0.896688 -0.441802 0.027605
vn -0.105002 -0.788686 -0.605763
vn -0.155492 -0.145862 -0.977009
vn -0.155492 -0.145862 -0.977009
vn -0.144937 -0.396645 -0.906458
vn 0.023643 0.981516 0.189915
vn 0.023643 0.981516 0.189915
vn -0.004794 0.999480 -0.031902
vn -0.975736 0.202572 -0.083093
vn 0.106189 0.288937 0.951441
vn 0.016791 -0.974250 0.224843
vn -0.653695 -0.701358 0.284218
vn -0.065716 0.875597 -0.478552
vn -0.041057 -0.994464 -0.096722
vn -0.794493 -0.556013 0.244193
vn -0.093963 0.735246 -0.671256
vn 0.095779 -0.509797 0.854947
vn -0.742418 -0.658564 0.122921
vn -0.036555 0.963379 -0.265641
vn -0.097246 -0.893180 -0.439059
vn -0.875049 -0.438083 0.205843
vn -0.113068 0.607132 -0.786515
vn -0.117441 -0.846376 -0.519476
vn -0.901073 -0.276798 0.333843
vn 0.118278 0.043787 0.992015
vn -0.826132 -0.552722 0.109569
vn -0.116818 -0.848598 -0.515979
vn -0.948612 -0.230795 0.216495
vn -0.128449 -0.781777 -0.610184
vn -0.950508 -0.092483 0.296618
vn 0.106559 -0.251093 0.962080
vn -0.771212 -0.623027 0.130651
vn -0.147165 -0.644721 -0.750119
vn -0.993421 0.010551 0.114036
vn -0.167075 -0.380698 -0.909481
vn -0.974202 0.189860 0.122002
vn -0.149026 0.159054 -0.975958
vn -0.968572 -0.227073 -0.101520
vn 0.067392 0.757222 0.649671
vn -0.942582 -0.333022 -0.025205
vn 0.089591 0.566266 0.819339
vn -0.996403 0.036796 -0.076340
vn 0.044485 0.848834 0.526784
vn -0.983034 -0.175374 -0.053731
vn 0.050911 0.832751 0.551302
vn -0.967055 0.238306 -0.089529
vn 0.021129 0.918206 0.395539
vn -0.887503 0.417965 -0.194022
vn -0.056032 0.962616 -0.265010
vn -0.921604 0.356911 -0.152514
vn -0.082190 0.886049 -0.456248
vn -0.932576 0.340912 -0.118666
vn -0.113141 0.736812 -0.666564
vn -0.134131 0.608667 -0.782006
vn -0.939915 0.330681 -0.084913
vn -0.961925 0.253906 -0.101153
vn -0.158741 0.327165 -0.931539
vn -0.970964 0.239164 0.005441
vn -0.170723 0.140168 -0.975298
vn -0.963247 0.244896 -0.110364
vn -0.000467 0.974170 0.225817
vn -0.920606 0.348442 -0.176274
vn -0.022887 0.999642 -0.013824
vn -0.972491 0.221814 0.071137
vn -0.169171 -0.167054 -0.971326
vn -0.742689 0.470210 0.476777
vn -0.740901 0.573041 0.350270
vn -0.689453 0.648390 0.322868
vn -0.673193 0.694687 0.253419
vn -0.651383 0.737912 0.176595
vn -0.640950 0.767302 0.020754
vn -0.598762 0.788427 -0.140952
vn -0.622890 0.738407 -0.258385
vn -0.618527 0.708887 -0.338973
vn -0.669154 0.615994 -0.415673
vn -0.712704 0.534397 -0.454393
vn -0.732752 0.364353 -0.574735
vn -0.797971 0.251970 -0.547498
vn -0.785897 0.061047 -0.615337
vn -0.827214 -0.112436 -0.550522
vn -0.824034 -0.400404 -0.400805
vn -0.730500 -0.632584 -0.257307
vn -0.687182 -0.709125 -0.157869
vn -0.652200 -0.745478 -0.137470
vn -0.570531 -0.816712 -0.086462
vn -0.496864 -0.855332 0.146743
vn -0.405304 -0.865104 0.295506
vn -0.386924 -0.820022 0.421728
vn -0.441919 -0.725274 0.527907
vn -0.495629 -0.608362 0.619877
vn -0.564674 -0.432949 0.702637
vn -0.673309 -0.191022 0.714259
vn -0.749008 0.146027 0.646269
f 97/97/97 116/116/116 115/115/115
f 95/95/95 97/97/97 115/115/115
f 72/72/72 15/15/15 4/4/4
f 66/66/66 26/26/26 15/15/15
f 74/74/74 4/4/4 102/102/102
f 68/68/68 15/15/15 72/72/72
f 62/62/62 26/26/26 66/66/66
f 53/53/53 22/22/22 59/59/59
f 98/98/98 47/47/47 6/6/6
f 6/6/6 18/18/18 84/84/84
f 19/19/19 82/82/82 80/80/80
f 20/20/20 78/78/78 76/76/76
f 47/47/47 28/28/28 3/3/3
f 88/88/88 47/47/47 100/100/100
f 4/4/4 15/15/15 3/3/3
f 59/59/59 22/22/22 26/26/26
f 7/7/7 22/22/22 53/53/53
f 47/47/47 98/98/98 100/100/100
f 18/18/18 6/6/6 19/19/19
f 20/20/20 24/24/24 11/11/11
f 17/17/17 26/26/26 22/22/22
f 64/64/64 13/13/13 11/11/11
f 11/11/11 7/7/7 36/36/36
f 47/47/47 88/88/88 90/90/90
f 94/94/94 96/96/96 4/4/4
f 6/6/6 3/3/3 17/17/17
f 58/58/58 61/61/61 37/37/37
f 51/51/51 54/54/54 91/91/91
f 60/60/60 33/33/33 95/95/95
f 87/87/87 101/101/101 46/46/46
f 75/75/75 41/41/41 103/103/103
f 43/43/43 38/38/38 71/71/71
f 40/40/40 35/35/35 65/65/65
f 34/34/34 30/30/30 49/49/49
f 99/99/99 85/85/85 27/27/27
f 12/12/12 81/81/81 21/21/21
f 83/83/83 77/77/77 14/14/14
f 8/8/8 10/10/10 79/79/79
f 2/2/2 5/5/5 63/63/63
f 55/55/55 25/25/25 31/31/31
f 3/3/3 15/15/15 26/26/26
f 24/24/24 22/22/22 7/7/7
f 102/102/102 4/4/4 96/96/96
f 19/19/19 17/17/17 24/24/24
f 49/49/49 29/29/29 31/31/31
f 71/71/71 38/38/38 40/40/40
f 90/90/90 93/93/93 28/28/28
f 103/103/103 42/42/42 43/43/43
f 46/46/46 101/101/101 99/99/99
f 95/95/95 33/33/33 75/75/75
f 91/91/91 54/54/54 60/60/60
f 51/51/51 89/89/89 87/87/87
f 50/50/50 36/36/36 7/7/7
f 93/93/93 94/94/94 28/28/28
f 37/37/37 61/61/61 65/65/65
f 64/64/64 39/39/39 13/13/13
f 56/56/56 70/70/70 11/11/11
f 20/20/20 76/76/76 82/82/82
f 2/2/2 69/69/69 55/55/55
f 9/9/9 48/48/48 63/63/63
f 14/14/14 77/77/77 79/79/79
f 21/21/21 81/81/81 83/83/83
f 27/27/27 85/85/85 12/12/12
f 58/58/58 32/32/32 34/34/34
f 39/39/39 78/78/78 20/20/20
f 71/71/71 119/119/119 118/118/118
f 73/73/73 71/71/71 118/118/118
f 65/65/65 121/121/121 120/120/120
f 67/67/67 65/65/65 120/120/120
f 73/73/73 118/118/118 117/117/117
f 103/103/103 73/73/73 117/117/117
f 67/67/67 120/120/120 119/119/119
f 71/71/71 67/67/67 119/119/119
f 61/61/61 122/122/122 121/121/121
f 65/65/65 61/61/61 121/121/121
f 52/52/52 124/124/124 123/123/123
f 58/58/58 52/52/52 123/123/123
f 99/99/99 109/109/109 108/108/108
f 85/85/85 99/99/99 108/108/108
f 85/85/85 108/108/108 107/107/107
f 12/12/12 85/85/85 107/107/107
f 81/81/81 106/106/106 105/105/105
f 83/83/83 81/81/81 105/105/105
f 77/77/77 104/104/104 131/131/131
f 79/79/79 77/77/77 131/131/131
f 87/87/87 111/111/111 110/110/110
f 101/101/101 87/87/87 110/110/110
f 89/89/89 112/112/112 111/111/111
f 87/87/87 89/89/89 111/111/111
f 58/58/58 123/123/123 122/122/122
f 61/61/61 58/58/58 122/122/122
f 49/49/49 125/125/125 124/124/124
f 52/52/52 49/49/49 124/124/124
f 101/101/101 110/110/110 109/109/109
f 99/99/99 101/101/101 109/109/109
f 12/12/12 107/107/107 106/106/106
f 81/81/81 12/12/12 106/106/106
f 63/63/63 129/129/129 128/128/128
f 69/69/69 63/63/63 128/128/128
f 55/55/55 127/127/127 126/126/126
f 25/25/25 55/55/55 126/126/126
f 91/91/91 113/113/113 112/112/112
f 89/89/89 91/91/91 112/112/112
f 93/93/93 114/114/114 115/115/115
f 94/94/94 93/93/93 115/115/115
f 96/96/96 116/116/116 117/117/117
f 102/102/102 96/96/96 117/117/117
f 76/76/76 104/104/104 105/105/105
f 82/82/82 76/76/76 105/105/105
f 39/39/39 130/130/130 131/131/131
f 78/78/78 39/39/39 131/131/131
f 50/50/50 125/125/125 126/126/126
f 36/36/36 50/50/50 126/126/126
f 92/92/92 114/114/114 113/113/113
f 91/91/91 92/92/92 113/113/113
f 48/48/48 130/130/130 129/129/129
f 63/63/63 48/48/48 129/129/129
f 69/69/69 128/128/128 127/127/127
f 55/55/55 69/69/69 127/127/127
f 77/77/77 83/83/83 105/105/105
f 104/104/104 77/77/77 105/105/105
f 80/80/80 82/82/82 105/105/105
f 106/106/106 80/80/80 105/105/105
f 18/18/18 80/80/80 106/106/106
f 107/107/107 18/18/18 106/106/106
f 84/84/84 18/18/18 107/107/107
f 108/108/108 84/84/84 107/107/107
f 98/98/98 84/84/84 108/108/108
f 109/109/109 98/98/98 108/108/108
f 100/100/100 98/98/98 109/109/109
f 110/110/110 100/100/100 109/109/109
f 86/86/86 100/100/100 110/110/110
f 111/111/111 86/86/86 110/110/110
f 88/88/88 86/86/86 111/111/111
f 112/112/112 88/88/88 111/111/111
f 90/90/90 88/88/88 112/112/112
f 113/113/113 90/90/90 112/112/112
f 93/93/93 90/90/90 113/113/113
f 114/114/114 93/93/93 113/113/113
f 92/92/92 95/95/95 115/115/115
f 114/114/114 92/92/92 115/115/115
f 96/96/96 94/94/94 115/115/115
f 116/116/116 96/96/96 115/115/115
f 97/97/97 103/103/103 117/117/117
f 116/116/116 97/97/97 117/117/117
f 74/74/74 102/102/102 117/117/117
f 118/118/118 74/74/74 117/117/117
f 72/72/72 74/74/74 118/118/118
f 119/119/119 72/72/72 118/118/118
f 68/68/68 72/72/72 119/119/119
f 120/120/120 68/68/68 119/119/119
f 66/66/66 68/68/68 120/120/120
f 121/121/121 66/66/66 120/120/120
f 62/62/62 66/66/66 121/121/121
f 122/122/122 62/62/62 121/121/121
f 59/59/59 62/62/62 122/122/122
f 123/123/123 59/59/59 122/122/122
f 53/53/53 59/59/59 123/123/123
f 124/124/124 53/53/53 123/123/123
f 50/50/50 53/53/53 124/124/124
f 125/125/125 50/50/50 124/124/124
f 49/49/49 25/25/25 126/126/126
f 125/125/125 49/49/49 126/126/126
f 56/56/56 36/36/36 126/126/126
f 127/127/127 56/56/56 126/126/126
f 70/70/70 56/56/56 127/127/127
f 128/128/128 70/70/70 127/127/127
f 64/64/64 70/70/70 128/128/128
f 129/129/129 64/64/64 128/128/128
f 39/39/39 64/64/64 129/129/129
f 130/130/130 39/39/39 129/129/129
f 48/48/48 79/79/79 131/131/131
f 130/130/130 48/48/48 131/131/131
f 76/76/76 78/78/78 131/131/131
f 104/104/104 76/76/76 131/131/131
f 72/72/72 4/4/4 74/74/74
f 66/66/66 15/15/15 68/68/68
f 98/98/98 6/6/6 84/84/84
f 47/47/47 3/3/3 6/6/6
f 97/97/97 95/95/95 75/75/75
f 4/4/4 3/3/3 28/28/28
f 59/59/59 26/26/26 62/62/62
f 7/7/7 53/53/53 50/50/50
f 18/18/18 19/19/19 80/80/80
f 20/20/20 11/11/11 13/13/13
f 17/17/17 22/22/22 24/24/24
f 64/64/64 11/11/11 70/70/70
f 11/11/11 36/36/36 56/56/56
f 94/94/94 4/4/4 28/28/28
f 6/6/6 17/17/17 19/19/19
f 58/58/58 37/37/37 32/32/32
f 51/51/51 91/91/91 89/89/89
f 60/60/60 95/95/95 92/92/92
f 87/87/87 46/46/46 57/57/57
f 75/75/75 103/103/103 97/97/97
f 43/43/43 71/71/71 73/73/73
f 40/40/40 65/65/65 67/67/67
f 34/34/34 49/49/49 52/52/52
f 99/99/99 27/27/27 44/44/44
f 12/12/12 21/21/21 23/23/23
f 83/83/83 14/14/14 16/16/16
f 8/8/8 79/79/79 48/48/48
f 2/2/2 63/63/63 69/69/69
f 55/55/55 31/31/31 1/1/1
f 3/3/3 26/26/26 17/17/17
f 24/24/24 7/7/7 11/11/11
f 19/19/19 24/24/24 20/20/20
f 49/49/49 31/31/31 25/25/25
f 71/71/71 40/40/40 67/67/67
f 90/90/90 28/28/28 47/47/47
f 103/103/103 43/43/43 73/73/73
f 46/46/46 99/99/99 45/45/45
f 39/39/39 20/20/20 13/13/13
f 91/91/91 60/60/60 92/92/92
f 51/51/51 87/87/87 57/57/57
f 37/37/37 65/65/65 35/35/35
f 20/20/20 82/82/82 19/19/19
f 2/2/2 55/55/55 1/1/1
f 9/9/9 63/63/63 5/5/5
f 14/14/14 79/79/79 10/10/10
f 21/21/21 83/83/83 16/16/16
f 27/27/27 12/12/12 23/23/23
f 58/58/58 34/34/34 52/52/52
f 88/88/88 100/100/100 86/86/86
