# GloomhavenVR - pico-4 left 'button_secondary' (glTF material 0)
# generated by controllers_pipeline.py from webxr-input-profiles (MIT)
o pico4_left_button_secondary__m0
v 0.009331 0.027337 0.012505
v 0.008061 0.027478 0.013777
v 0.008995 0.020879 0.009065
v 0.005396 0.026411 0.017774
v 0.005396 0.026411 0.017774
v 0.007120 0.020879 0.009067
v 0.010727 0.026411 0.009781
v 0.010727 0.026411 0.009781
v 0.005390 0.020879 0.009786
v 0.004070 0.026411 0.016449
v 0.004070 0.026411 0.016449
v 0.004066 0.020879 0.011112
v 0.012053 0.026411 0.011106
v 0.012053 0.026411 0.011106
v 0.003350 0.020879 0.012844
v 0.003351 0.026411 0.014718
v 0.003351 0.026411 0.014718
v 0.003351 0.020879 0.014718
v 0.012772 0.026411 0.012836
v 0.012772 0.026411 0.012836
v 0.004070 0.020879 0.016449
v 0.003350 0.026411 0.012844
v 0.003350 0.026411 0.012844
v 0.005396 0.020879 0.017774
v 0.012773 0.026411 0.014710
v 0.012773 0.026411 0.014710
v 0.007128 0.020879 0.018489
v 0.004066 0.026411 0.011112
v 0.004066 0.026411 0.011112
v 0.009002 0.020879 0.018488
v 0.012057 0.026411 0.016443
v 0.012057 0.026411 0.016443
v 0.010733 0.020879 0.017769
v 0.005390 0.026411 0.009786
v 0.005390 0.026411 0.009786
v 0.012057 0.020879 0.016443
v 0.010733 0.026411 0.017769
v 0.010733 0.026411 0.017769
v 0.012773 0.020879 0.014710
v 0.007120 0.026411 0.009067
v 0.007120 0.026411 0.009067
v 0.012772 0.020879 0.012836
v 0.009002 0.026411 0.018488
v 0.009002 0.026411 0.018488
v 0.012053 0.020879 0.011106
v 0.008995 0.026411 0.009065
v 0.008995 0.026411 0.009065
v 0.010727 0.020879 0.009781
v 0.007128 0.026411 0.018489
v 0.007128 0.026411 0.018489
v 0.008059 0.027036 0.010380
v 0.008063 0.027337 0.015575
v 0.005657 0.027036 0.011377
v 0.008060 0.027337 0.011980
v 0.004664 0.027036 0.013780
v 0.006790 0.027337 0.012508
v 0.005661 0.027036 0.016181
v 0.006791 0.027337 0.015049
v 0.008064 0.027036 0.017175
v 0.009333 0.027337 0.015047
v 0.010465 0.027036 0.016178
v 0.006264 0.027337 0.013779
v 0.011458 0.027036 0.013775
v 0.009858 0.027337 0.013776
v 0.010462 0.027036 0.011373
v 0.003595 0.020879 0.011929
v 0.003595 0.026411 0.011929
v 0.003595 0.026411 0.011929
v 0.003228 0.020879 0.013774
v 0.003228 0.026411 0.013720
v 0.003228 0.026411 0.013720
v 0.004608 0.026411 0.010395
v 0.004608 0.026411 0.010395
v 0.004613 0.020879 0.010390
v 0.006217 0.026411 0.009309
v 0.006217 0.026411 0.009309
v 0.006175 0.020879 0.009327
v 0.008055 0.026411 0.008944
v 0.008055 0.026411 0.008944
v 0.008037 0.020879 0.008944
v 0.009904 0.026411 0.009309
v 0.009904 0.026411 0.009309
v 0.009904 0.020879 0.009309
v 0.011481 0.026411 0.010346
v 0.011481 0.026411 0.010346
v 0.011480 0.020879 0.010361
v 0.012525 0.026411 0.011923
v 0.012525 0.026411 0.011923
v 0.012535 0.020879 0.011948
v 0.012895 0.026411 0.013807
v 0.012895 0.026411 0.013807
v 0.012895 0.020879 0.013782
v 0.012512 0.026411 0.015665
v 0.012512 0.026411 0.015665
v 0.012520 0.020879 0.015642
v 0.011461 0.026411 0.017214
v 0.011461 0.026411 0.017214
v 0.011461 0.026411 0.017214
v 0.011478 0.020879 0.017196
v 0.011478 0.020879 0.017196
v 0.009909 0.020879 0.018244
v 0.009859 0.026411 0.018265
v 0.009859 0.026411 0.018265
v 0.008023 0.026411 0.018611
v 0.008023 0.026411 0.018611
v 0.008027 0.020879 0.018611
v 0.006206 0.026411 0.018241
v 0.006206 0.026411 0.018241
v 0.006185 0.020879 0.018232
v 0.004633 0.026411 0.017185
v 0.004633 0.026411 0.017185
v 0.004628 0.020879 0.017180
v 0.003582 0.026411 0.015593
v 0.003582 0.026411 0.015593
v 0.003596 0.020879 0.015626
v 0.009304 0.027036 0.016918
v 0.008684 0.027337 0.015317
v 0.011195 0.027036 0.015037
v 0.009598 0.027337 0.014407
v 0.011172 0.027036 0.012463
v 0.009592 0.027337 0.013135
v 0.009353 0.027036 0.010657
v 0.008706 0.027337 0.012247
v 0.006731 0.027036 0.010673
v 0.007423 0.027337 0.012245
v 0.004923 0.027036 0.012528
v 0.006520 0.027337 0.013160
v 0.004964 0.027036 0.015125
v 0.006534 0.027337 0.014430
v 0.007414 0.027337 0.015307
v 0.006766 0.027036 0.016897
vt 0.276172 0.734048
vt 0.274417 0.742273
vt 0.242758 0.682523
vt 0.287611 0.631884
vt 0.265285 0.763624
vt 0.245638 0.674085
vt 0.283614 0.720924
vt 0.264574 0.699389
vt 0.248517 0.665648
vt 0.284731 0.640324
vt 0.274143 0.765523
vt 0.251397 0.657211
vt 0.274735 0.719069
vt 0.261687 0.707840
vt 0.254276 0.648773
vt 0.281851 0.648763
vt 0.283051 0.763866
vt 0.257156 0.640334
vt 0.265820 0.720671
vt 0.258803 0.716274
vt 0.260035 0.631896
vt 0.278972 0.657200
vt 0.290627 0.758906
vt 0.262915 0.623457
vt 0.258190 0.725629
vt 0.255919 0.724710
vt 0.265795 0.615019
vt 0.276092 0.665638
vt 0.295784 0.751477
vt 0.268674 0.606583
vt 0.253034 0.733146
vt 0.253034 0.733146
vt 0.271553 0.598146
vt 0.273213 0.674076
vt 0.297644 0.742603
vt 0.228343 0.724708
vt 0.251167 0.741976
vt 0.296249 0.606573
vt 0.231228 0.716270
vt 0.270333 0.682514
vt 0.296045 0.733689
vt 0.234112 0.707834
vt 0.252831 0.750920
vt 0.293369 0.615010
vt 0.236996 0.699400
vt 0.291098 0.726062
vt 0.267453 0.690952
vt 0.239878 0.690962
vt 0.290490 0.623447
vt 0.257792 0.758538
vt 0.287876 0.733552
vt 0.267359 0.746861
vt 0.290103 0.745618
vt 0.281480 0.737695
vt 0.283153 0.755721
vt 0.282651 0.744025
vt 0.271103 0.757959
vt 0.272672 0.750507
vt 0.260979 0.751019
vt 0.266182 0.740529
vt 0.258732 0.738949
vt 0.279003 0.749332
vt 0.265684 0.728841
vt 0.269831 0.735224
vt 0.277765 0.726602
vt 0.252833 0.653001
vt 0.277529 0.661428
vt 0.293684 0.755527
vt 0.255706 0.644584
vt 0.280320 0.653250
vt 0.287398 0.761698
vt 0.274722 0.669653
vt 0.297224 0.747371
vt 0.250016 0.661256
vt 0.271758 0.678339
vt 0.297414 0.738007
vt 0.247131 0.669709
vt 0.268897 0.686721
vt 0.294049 0.729579
vt 0.244229 0.678214
vt 0.287686 0.723038
vt 0.266018 0.695156
vt 0.241323 0.686728
vt 0.279321 0.719397
vt 0.263139 0.703594
vt 0.238431 0.695203
vt 0.270192 0.719290
vt 0.260247 0.712053
vt 0.235516 0.703730
vt 0.261561 0.722768
vt 0.257310 0.720642
vt 0.232657 0.712089
vt 0.255024 0.729241
vt 0.254410 0.729125
vt 0.229754 0.720580
vt 0.251536 0.737533
vt 0.251536 0.737533
vt 0.297644 0.602485
vt 0.226891 0.728954
vt 0.272985 0.593949
vt 0.270105 0.602389
vt 0.251498 0.746837
vt 0.294719 0.611054
vt 0.254951 0.755207
vt 0.291867 0.619414
vt 0.267177 0.610970
vt 0.289035 0.627710
vt 0.261260 0.761601
vt 0.264305 0.619383
vt 0.286142 0.636189
vt 0.269683 0.765147
vt 0.261437 0.627789
vt 0.283231 0.644720
vt 0.278892 0.765212
vt 0.258589 0.636135
vt 0.258789 0.745450
vt 0.266780 0.743766
vt 0.261357 0.733132
vt 0.268017 0.737854
vt 0.271613 0.726599
vt 0.273031 0.734627
vt 0.283457 0.729139
vt 0.278785 0.735837
vt 0.290125 0.739556
vt 0.282070 0.740866
vt 0.287436 0.751467
vt 0.280782 0.746747
vt 0.277069 0.757999
vt 0.275758 0.749937
vt 0.270068 0.748724
vt 0.265422 0.755427
vn 0.101434 0.989702 -0.101002
vn 0.000008 1.000000 -0.000017
vn 0.192149 -0.000187 -0.981366
vn -0.557327 -0.000067 0.830293
vn -0.210735 0.921449 0.326379
vn -0.201075 -0.000475 -0.979576
vn 0.216138 0.918761 -0.330399
vn 0.549814 -0.001010 -0.835287
vn -0.562647 0.000071 -0.826697
vn -0.834238 0.000370 0.551405
vn -0.331084 0.917976 0.218409
vn -0.834054 -0.000000 -0.551682
vn 0.326716 0.921696 -0.209124
vn 0.833975 -0.000277 -0.551802
vn -0.980742 -0.000575 -0.195308
vn -0.982496 0.000560 0.186282
vn -0.386782 0.918905 0.077545
vn -0.980835 -0.000379 0.194842
vn 0.387275 0.918592 -0.078782
vn 0.981178 0.000260 -0.193108
vn -0.832711 0.000068 0.553708
vn -0.979615 -0.000000 -0.200884
vn -0.378345 0.921858 -0.083859
vn -0.559664 0.000248 0.828720
vn 0.387619 0.918312 0.080338
vn 0.979479 0.000187 0.201547
vn -0.201513 -0.000040 0.979486
vn -0.834445 -0.000077 -0.551091
vn -0.329858 0.919128 -0.215402
vn 0.190749 -0.000571 0.981639
vn 0.328508 0.918858 0.218593
vn 0.827540 0.000260 0.561406
vn 0.555210 -0.000257 0.831710
vn -0.559612 0.000473 -0.828754
vn -0.211184 0.921440 -0.326113
vn 0.830340 -0.000316 0.557257
vn 0.215129 0.918963 0.330494
vn 0.549185 0.000556 0.835700
vn 0.980312 -0.000269 0.197456
vn -0.195043 0.000192 -0.980795
vn -0.079639 0.918950 -0.386250
vn 0.981205 0.000287 -0.192968
vn 0.076083 0.918048 0.389100
vn 0.185367 0.000040 0.982669
vn 0.832984 -0.000808 -0.553296
vn 0.078589 0.918601 -0.387293
vn 0.193892 0.000001 -0.981023
vn 0.555155 -0.000002 -0.831747
vn -0.199921 -0.000243 0.979812
vn -0.080055 0.918652 0.386873
vn -0.001373 0.955827 -0.293927
vn -0.001272 0.989701 0.143142
vn -0.209451 0.956065 -0.205109
vn 0.000561 0.989699 -0.143162
vn -0.293220 0.956034 0.004606
vn -0.101627 0.989740 -0.100427
vn -0.206191 0.956071 0.208359
vn -0.100822 0.989741 0.101236
vn -0.001746 0.955783 0.294067
vn 0.100787 0.989625 0.102395
vn 0.207237 0.955918 0.208026
vn -0.142998 0.989722 0.001339
vn 0.294079 0.955778 -0.002333
vn 0.142999 0.989723 -0.000444
vn 0.206091 0.956187 -0.207928
vn -0.924208 -0.000000 -0.381890
vn -0.924074 -0.000001 -0.382214
vn -0.363512 0.920828 -0.141194
vn -0.999999 -0.000560 0.001582
vn -1.000000 0.000526 0.000019
vn -0.398800 0.917038 -0.000818
vn -0.707722 -0.000073 -0.706491
vn -0.282745 0.917062 -0.281165
vn -0.707545 0.000069 -0.706668
vn -0.382743 0.000471 -0.923855
vn -0.157141 0.920863 -0.356818
vn -0.383993 -0.000458 -0.923336
vn -0.001164 0.000190 -0.999999
vn -0.000553 0.917036 -0.398804
vn -0.001256 -0.000186 -0.999999
vn 0.150345 0.919040 -0.364365
vn 0.382095 0.000001 -0.924123
vn 0.382162 -0.000002 -0.924095
vn 0.279776 0.918146 -0.280595
vn 0.706202 -0.001247 -0.708009
vn 0.706369 -0.001033 -0.707843
vn 0.356756 0.920749 -0.157947
vn 0.923322 -0.000280 -0.384026
vn 0.923626 0.000283 -0.383294
vn 0.398742 0.917063 0.000319
vn 1.000000 0.000256 -0.000438
vn 0.999999 -0.000265 -0.001192
vn 0.363467 0.919137 0.151917
vn 0.924059 0.000165 0.382250
vn 0.924329 -0.000321 0.381596
vn 0.281891 0.917032 0.282115
vn 0.707495 0.000250 0.706718
vn 0.707495 0.000250 0.706718
vn 0.707860 -0.000254 0.706352
vn 0.707860 -0.000254 0.706352
vn 0.384039 -0.000558 0.923317
vn 0.151307 0.919038 0.363971
vn 0.382625 0.000526 0.923904
vn -0.000533 0.916994 0.398902
vn 0.000387 0.000038 1.000000
vn 0.000503 -0.000037 1.000000
vn -0.381326 -0.000239 0.924440
vn -0.157850 0.920701 0.356922
vn -0.381909 0.000241 0.924200
vn -0.706660 -0.000067 0.707553
vn -0.282164 0.917053 0.281776
vn -0.706778 0.000066 0.707435
vn -0.923817 0.000358 0.382833
vn -0.364751 0.919063 0.149262
vn -0.923439 -0.000374 0.383745
vn 0.109045 0.956639 0.270093
vn 0.046320 0.990745 0.127592
vn 0.268484 0.956726 0.112216
vn 0.123658 0.990619 0.058158
vn 0.272148 0.955401 -0.114645
vn 0.128403 0.990641 -0.046293
vn 0.113232 0.956686 -0.268197
vn 0.057916 0.990657 -0.123468
vn -0.115177 0.955394 -0.271950
vn -0.046333 0.990607 -0.128655
vn -0.273584 0.955440 -0.110840
vn -0.123695 0.990611 -0.058222
vn -0.268904 0.956764 0.110876
vn -0.128760 0.990593 0.046329
vn -0.057913 0.990665 0.123404
vn -0.117845 0.955308 0.271109
f 102/102/102 116/116/116 43/43/43
f 43/43/43 116/116/116 59/59/59
f 108/108/108 131/131/131 57/57/57
f 128/128/128 11/11/11 57/57/57
f 17/17/17 128/128/128 55/55/55
f 68/68/68 126/126/126 29/29/29
f 29/29/29 126/126/126 53/53/53
f 76/76/76 124/124/124 41/41/41
f 41/41/41 124/124/124 51/51/51
f 122/122/122 7/7/7 81/81/81
f 87/87/87 120/120/120 19/19/19
f 19/19/19 120/120/120 63/63/63
f 118/118/118 31/31/31 93/93/93
f 108/108/108 57/57/57 5/5/5
f 2/2/2 123/123/123 54/54/54
f 78/78/78 80/80/80 40/40/40
f 75/75/75 77/77/77 34/34/34
f 124/124/124 125/125/125 51/51/51
f 2/2/2 121/121/121 1/1/1
f 72/72/72 74/74/74 28/28/28
f 104/104/104 59/59/59 50/50/50
f 71/71/71 55/55/55 23/23/23
f 28/28/28 12/12/12 67/67/67
f 126/126/126 127/127/127 53/53/53
f 2/2/2 119/119/119 64/64/64
f 70/70/70 69/69/69 16/16/16
f 113/113/113 115/115/115 10/10/10
f 128/128/128 129/129/129 55/55/55
f 2/2/2 117/117/117 60/60/60
f 110/110/110 112/112/112 4/4/4
f 84/84/84 65/65/65 13/13/13
f 57/57/57 111/111/111 5/5/5
f 107/107/107 109/109/109 49/49/49
f 131/131/131 130/130/130 57/57/57
f 59/59/59 52/52/52 131/131/131
f 105/105/105 106/106/106 44/44/44
f 103/103/103 101/101/101 38/38/38
f 2/2/2 52/52/52 117/117/117
f 57/57/57 58/58/58 128/128/128
f 97/97/97 99/99/99 32/32/32
f 63/63/63 90/90/90 19/19/19
f 79/79/79 51/51/51 46/46/46
f 94/94/94 95/95/95 26/26/26
f 2/2/2 60/60/60 119/119/119
f 55/55/55 62/62/62 126/126/126
f 91/91/91 92/92/92 20/20/20
f 88/88/88 89/89/89 14/14/14
f 2/2/2 64/64/64 121/121/121
f 53/53/53 56/56/56 124/124/124
f 85/85/85 86/86/86 8/8/8
f 96/96/96 61/61/61 37/37/37
f 73/73/73 53/53/53 35/35/35
f 82/82/82 83/83/83 47/47/47
f 2/2/2 1/1/1 123/123/123
f 66/66/66 22/22/22 67/67/67
f 22/22/22 15/15/15 70/70/70
f 16/16/16 18/18/18 113/113/113
f 34/34/34 9/9/9 72/72/72
f 40/40/40 6/6/6 75/75/75
f 47/47/47 3/3/3 78/78/78
f 8/8/8 48/48/48 82/82/82
f 14/14/14 45/45/45 85/85/85
f 20/20/20 42/42/42 88/88/88
f 26/26/26 39/39/39 91/91/91
f 32/32/32 36/36/36 94/94/94
f 38/38/38 33/33/33 98/98/98
f 44/44/44 30/30/30 103/103/103
f 49/49/49 27/27/27 105/105/105
f 4/4/4 24/24/24 107/107/107
f 10/10/10 21/21/21 110/110/110
f 73/73/73 29/29/29 53/53/53
f 71/71/71 17/17/17 55/55/55
f 61/61/61 60/60/60 116/116/116
f 116/116/116 117/117/117 59/59/59
f 63/63/63 64/64/64 118/118/118
f 118/118/118 119/119/119 61/61/61
f 65/65/65 1/1/1 120/120/120
f 120/120/120 121/121/121 63/63/63
f 51/51/51 54/54/54 122/122/122
f 122/122/122 123/123/123 65/65/65
f 2/2/2 54/54/54 125/125/125
f 2/2/2 125/125/125 56/56/56
f 2/2/2 56/56/56 127/127/127
f 2/2/2 127/127/127 62/62/62
f 2/2/2 62/62/62 129/129/129
f 2/2/2 129/129/129 58/58/58
f 2/2/2 58/58/58 130/130/130
f 2/2/2 130/130/130 52/52/52
f 25/25/25 118/118/118 93/93/93
f 25/25/25 63/63/63 118/118/118
f 63/63/63 25/25/25 90/90/90
f 65/65/65 87/87/87 13/13/13
f 87/87/87 65/65/65 120/120/120
f 84/84/84 7/7/7 65/65/65
f 46/46/46 122/122/122 81/81/81
f 7/7/7 122/122/122 65/65/65
f 46/46/46 51/51/51 122/122/122
f 79/79/79 41/41/41 51/51/51
f 53/53/53 76/76/76 35/35/35
f 76/76/76 53/53/53 124/124/124
f 55/55/55 68/68/68 23/23/23
f 68/68/68 55/55/55 126/126/126
f 128/128/128 17/17/17 114/114/114
f 37/37/37 61/61/61 116/116/116
f 111/111/111 57/57/57 11/11/11
f 50/50/50 131/131/131 108/108/108
f 50/50/50 59/59/59 131/131/131
f 104/104/104 43/43/43 59/59/59
f 37/37/37 116/116/116 102/102/102
f 128/128/128 114/114/114 11/11/11
f 31/31/31 118/118/118 61/61/61
f 96/96/96 31/31/31 61/61/61
f 40/40/40 80/80/80 6/6/6
f 34/34/34 77/77/77 9/9/9
f 51/51/51 125/125/125 54/54/54
f 28/28/28 74/74/74 12/12/12
f 67/67/67 12/12/12 66/66/66
f 53/53/53 127/127/127 56/56/56
f 16/16/16 69/69/69 18/18/18
f 10/10/10 115/115/115 21/21/21
f 55/55/55 129/129/129 62/62/62
f 4/4/4 112/112/112 24/24/24
f 49/49/49 109/109/109 27/27/27
f 57/57/57 130/130/130 58/58/58
f 131/131/131 52/52/52 130/130/130
f 44/44/44 106/106/106 30/30/30
f 38/38/38 101/101/101 33/33/33
f 128/128/128 58/58/58 129/129/129
f 32/32/32 99/99/99 36/36/36
f 26/26/26 95/95/95 39/39/39
f 126/126/126 62/62/62 127/127/127
f 20/20/20 92/92/92 42/42/42
f 14/14/14 89/89/89 45/45/45
f 124/124/124 56/56/56 125/125/125
f 8/8/8 86/86/86 48/48/48
f 47/47/47 83/83/83 3/3/3
f 65/65/65 123/123/123 1/1/1
f 70/70/70 15/15/15 69/69/69
f 113/113/113 18/18/18 115/115/115
f 72/72/72 9/9/9 74/74/74
f 75/75/75 6/6/6 77/77/77
f 78/78/78 3/3/3 80/80/80
f 82/82/82 48/48/48 83/83/83
f 85/85/85 45/45/45 86/86/86
f 88/88/88 42/42/42 89/89/89
f 91/91/91 39/39/39 92/92/92
f 94/94/94 36/36/36 95/95/95
f 98/98/98 33/33/33 100/100/100
f 103/103/103 30/30/30 101/101/101
f 105/105/105 27/27/27 106/106/106
f 107/107/107 24/24/24 109/109/109
f 110/110/110 21/21/21 112/112/112
f 116/116/116 60/60/60 117/117/117
f 59/59/59 117/117/117 52/52/52
f 118/118/118 64/64/64 119/119/119
f 61/61/61 119/119/119 60/60/60
f 120/120/120 1/1/1 121/121/121
f 63/63/63 121/121/121 64/64/64
f 122/122/122 54/54/54 123/123/123
f 22/22/22 66/66/66 15/15/15
