# GloomhavenVR - pico-4 left 'trigger' (glTF material 0)
# generated by controllers_pipeline.py from webxr-input-profiles (MIT)
o pico4_left_trigger__m0
v -0.000731 -0.013049 0.031963
v -0.005871 -0.014766 0.032528
v -0.003868 -0.010417 0.015236
v 0.000692 -0.008764 0.017184
v -0.011206 -0.013458 0.032128
v 0.007348 -0.001861 0.033253
v -0.017732 0.003585 0.036570
v -0.011931 -0.005813 0.033566
v -0.018396 0.004180 0.036121
v -0.006416 -0.005648 0.033998
v 0.008023 -0.001717 0.032492
v -0.001155 -0.005208 0.033471
v 0.002876 -0.006849 0.018732
v 0.002876 -0.006849 0.018732
v 0.003951 -0.007124 0.032022
v -0.012173 -0.016772 0.030920
v -0.014262 -0.007213 0.017912
v -0.014262 -0.007213 0.017912
v -0.011940 -0.016304 0.031666
v -0.020005 -0.000780 0.033869
v -0.015574 0.002767 0.036509
v -0.020701 -0.000124 0.033354
v -0.018181 -0.002578 0.033680
v 0.000386 -0.016089 0.030709
v 0.000107 -0.015668 0.031488
v -0.018956 0.002479 0.035622
v -0.015714 -0.009659 0.031716
v -0.019748 0.002871 0.035014
v -0.002017 -0.009960 0.015903
v -0.016473 0.004684 0.037311
v -0.016890 0.005479 0.036997
v -0.009154 -0.017727 0.031998
v -0.005859 -0.010554 0.015115
v -0.009039 -0.018334 0.031314
v 0.005531 -0.001288 0.034181
v -0.012488 0.006533 0.038624
v -0.008878 -0.010136 0.015410
v -0.012307 0.007514 0.038464
v 0.004202 0.002273 0.036109
v -0.007254 0.007297 0.039261
v -0.007311 0.008185 0.039008
v -0.001937 0.006917 0.038965
v -0.000617 0.004863 0.037978
v -0.002045 0.007835 0.038746
v 0.001653 0.005906 0.038147
v 0.002248 0.006622 0.037764
v -0.012819 -0.000058 0.035543
v 0.004941 0.003934 0.036736
v -0.011788 -0.008915 0.016421
v -0.016484 -0.005218 0.019702
v -0.018741 -0.002206 0.022268
v -0.020159 0.000710 0.024713
v -0.000886 0.001928 0.036726
v 0.005266 0.004737 0.036406
v 0.004594 -0.004774 0.020108
v 0.005660 -0.002788 0.021762
v 0.006694 -0.000646 0.023538
v 0.007638 0.001701 0.025559
v 0.008002 0.004404 0.027886
v 0.008002 0.004404 0.027886
v 0.007193 0.006774 0.030043
v 0.005136 0.008955 0.031842
v 0.001784 0.010735 0.033369
v -0.002116 0.011856 0.034319
v -0.007450 0.012294 0.034715
v -0.012343 0.011438 0.033959
v -0.016718 0.009687 0.032469
v -0.019767 0.007014 0.030174
v -0.019767 0.007014 0.030174
v -0.020732 0.004617 0.028132
v -0.018433 0.008470 0.031446
v -0.006913 0.002218 0.037192
v -0.007128 0.005625 0.038595
v -0.014724 -0.014431 0.030591
v -0.017744 -0.003676 0.021015
v -0.016595 -0.012169 0.030477
v -0.015817 -0.012302 0.031273
v -0.015817 -0.012302 0.031273
v -0.019536 0.002738 0.035495
v -0.018808 -0.008289 0.030605
v -0.018077 -0.008594 0.031385
v -0.020237 -0.004248 0.031660
v -0.019613 -0.004190 0.032483
v -0.005666 -0.018905 0.031537
v -0.005712 -0.018363 0.032215
v 0.007092 0.002842 0.034955
v -0.017814 -0.010173 0.030569
v -0.017221 -0.010150 0.031378
v -0.014171 -0.014325 0.031381
v 0.002693 -0.013033 0.031084
v 0.003078 -0.013293 0.030288
v 0.005379 -0.009678 0.030281
v 0.004957 -0.009388 0.031153
v 0.006950 -0.006219 0.030906
v 0.006296 -0.006408 0.031690
v 0.007602 -0.004000 0.031683
v 0.006884 -0.004565 0.032346
v -0.002444 -0.017972 0.031201
v 0.006334 0.002401 0.035558
v -0.002634 -0.017557 0.031924
v 0.008025 0.000586 0.033495
v 0.007346 0.000039 0.034073
v -0.020116 -0.004296 0.032203
v -0.018614 -0.008481 0.031111
v -0.017675 -0.010227 0.031090
v -0.020550 -0.000478 0.033766
v -0.020550 -0.000478 0.033766
v -0.020550 -0.000478 0.033766
v -0.016347 -0.012328 0.030990
v -0.014563 -0.014472 0.031103
v -0.012137 -0.016694 0.031414
v -0.009134 -0.018208 0.031782
v -0.005680 -0.018819 0.032005
v -0.002485 -0.017937 0.031687
v 0.000339 -0.016025 0.031216
v 0.003015 -0.013271 0.030798
v 0.005329 -0.009591 0.030829
v 0.006805 -0.006325 0.031419
v 0.007434 -0.004225 0.032146
v 0.007883 -0.001737 0.033015
v 0.007882 0.000395 0.033940
v 0.006898 0.002735 0.035433
v 0.005208 0.004475 0.036767
v 0.002068 0.006430 0.038171
v -0.001965 0.007558 0.039084
v -0.007296 0.007928 0.039367
v -0.012480 0.007202 0.038768
v -0.016827 0.005231 0.037359
v -0.018230 0.004015 0.036538
vt 0.853290 0.098715
vt 0.827896 0.096956
vt 0.842383 0.003010
vt 0.868095 0.012547
vt 0.802984 0.097991
vt 0.894468 0.145492
vt 0.773339 0.177147
vt 0.799612 0.131878
vt 0.768998 0.179947
vt 0.826949 0.133895
vt 0.899624 0.144334
vt 0.853068 0.133329
vt 0.883068 0.018127
vt 0.934598 0.075533
vt 0.877439 0.120113
vt 0.800383 0.081210
vt 0.717976 0.072520
vt 0.783026 0.009119
vt 0.801545 0.085358
vt 0.761117 0.153273
vt 0.783367 0.173095
vt 0.756119 0.155051
vt 0.769892 0.145156
vt 0.855536 0.082871
vt 0.854147 0.087064
vt 0.766392 0.170841
vt 0.781507 0.110577
vt 0.760366 0.172118
vt 0.852525 0.006378
vt 0.780051 0.182814
vt 0.777373 0.186939
vt 0.814070 0.084087
vt 0.831795 0.001953
vt 0.814679 0.080526
vt 0.885384 0.150018
vt 0.799324 0.192415
vt 0.815631 0.002344
vt 0.799766 0.197700
vt 0.877870 0.168866
vt 0.823699 0.196533
vt 0.823388 0.201534
vt 0.848259 0.193952
vt 0.854445 0.183381
vt 0.848214 0.199042
vt 0.864734 0.188040
vt 0.868308 0.191773
vt 0.796042 0.159375
vt 0.880028 0.177312
vt 0.798799 0.005249
vt 0.717014 0.089249
vt 0.716460 0.112617
vt 0.718193 0.134326
vt 0.853553 0.168831
vt 0.883024 0.181272
vt 0.936779 0.090268
vt 0.937023 0.104406
vt 0.936849 0.119680
vt 0.935723 0.136396
vt 0.924309 0.182078
vt 0.934034 0.154225
vt 0.912500 0.193664
vt 0.897495 0.206581
vt 0.876614 0.218670
vt 0.852979 0.226407
vt 0.821340 0.229016
vt 0.792223 0.224181
vt 0.766602 0.212940
vt 0.728321 0.178808
vt 0.746050 0.199950
vt 0.723310 0.162255
vt 0.755831 0.206379
vt 0.824911 0.171445
vt 0.824223 0.188213
vt 0.785984 0.083315
vt 0.716460 0.101305
vt 0.776369 0.095600
vt 0.781611 0.096939
vt 0.781611 0.096939
vt 0.763165 0.172107
vt 0.764773 0.114051
vt 0.770212 0.114414
vt 0.757705 0.133839
vt 0.762626 0.135833
vt 0.828557 0.081299
vt 0.828241 0.084714
vt 0.892965 0.170594
vt 0.770247 0.105397
vt 0.774777 0.107262
vt 0.789834 0.088429
vt 0.868657 0.091088
vt 0.871624 0.085917
vt 0.885004 0.103655
vt 0.881258 0.107391
vt 0.893572 0.120742
vt 0.888592 0.122007
vt 0.896980 0.132315
vt 0.891672 0.131890
vt 0.841971 0.081827
vt 0.888071 0.168833
vt 0.841118 0.085284
vt 0.900536 0.157556
vt 0.894782 0.155851
vt 0.759959 0.135258
vt 0.767393 0.114430
vt 0.772466 0.106432
vt 0.758387 0.154754
vt 0.758387 0.154754
vt 0.758387 0.154754
vt 0.778971 0.096194
vt 0.787968 0.085890
vt 0.801049 0.083266
vt 0.814471 0.082281
vt 0.828387 0.082975
vt 0.841409 0.083570
vt 0.854743 0.084963
vt 0.870097 0.088568
vt 0.883198 0.105685
vt 0.891253 0.121732
vt 0.894533 0.132572
vt 0.897320 0.145493
vt 0.897857 0.157300
vt 0.890642 0.170292
vt 0.881651 0.179806
vt 0.866641 0.190371
vt 0.848315 0.196957
vt 0.823529 0.199506
vt 0.799486 0.195552
vt 0.778569 0.185335
vt 0.771034 0.179098
vn 0.176076 -0.150339 0.972829
vn 0.025835 -0.135722 0.990410
vn 0.210913 -0.871172 -0.443369
vn 0.615279 -0.693298 -0.375192
vn -0.157925 -0.172265 0.972309
vn 0.346591 -0.383502 0.856038
vn -0.226783 -0.424644 0.876497
vn -0.124139 -0.267250 0.955598
vn -0.750910 0.484312 0.448973
vn 0.021060 -0.263076 0.964545
vn 0.993180 -0.089343 -0.074905
vn 0.130750 -0.301625 0.944419
vn 0.777353 -0.541859 -0.319548
vn 0.777353 -0.541859 -0.319548
vn 0.189056 -0.272391 0.943430
vn -0.464698 -0.793922 -0.392101
vn -0.714370 -0.596632 -0.365659
vn -0.714370 -0.596632 -0.365659
vn -0.244266 -0.190641 0.950784
vn -0.287398 -0.370521 0.883242
vn -0.117903 -0.415256 0.902032
vn -0.998346 0.009934 0.056622
vn -0.193157 -0.351365 0.916097
vn 0.545065 -0.759089 -0.355932
vn 0.298331 -0.178822 0.937561
vn -0.246365 -0.403349 0.881257
vn -0.214359 -0.247446 0.944892
vn -0.916073 0.277848 0.289154
vn 0.442839 -0.796263 -0.412139
vn -0.161880 -0.351007 0.922274
vn -0.560525 0.624026 0.544430
vn -0.127459 -0.157103 0.979323
vn -0.061835 -0.887889 -0.455884
vn -0.231829 -0.879995 -0.414565
vn 0.189761 -0.405887 0.894006
vn -0.095987 -0.378238 0.920719
vn -0.308131 -0.839544 -0.447461
vn -0.338641 0.704922 0.623223
vn 0.158605 -0.414614 0.896069
vn -0.013207 -0.293342 0.955916
vn -0.034126 0.734757 0.677472
vn 0.062365 -0.322408 0.944544
vn 0.079096 -0.398638 0.913691
vn 0.203993 0.736744 0.644667
vn 0.158976 -0.331478 0.929973
vn 0.478235 0.662343 0.576709
vn -0.113395 -0.379489 0.918221
vn 0.240333 -0.346724 0.906654
vn -0.555294 -0.721153 -0.414231
vn -0.792807 -0.514312 -0.327016
vn -0.919329 -0.314609 -0.236337
vn -0.974785 -0.176363 -0.136714
vn 0.088232 -0.409716 0.907936
vn 0.705931 0.531002 0.468719
vn 0.864410 -0.420087 -0.276266
vn 0.930981 -0.282073 -0.231751
vn 0.947502 -0.250775 -0.198371
vn 0.977951 -0.167252 -0.125057
vn 0.998615 0.045276 0.026804
vn 0.998615 0.045276 0.026804
vn 0.902457 0.334367 0.271605
vn 0.696026 0.543475 0.469236
vn 0.454787 0.671902 0.584566
vn 0.209865 0.720304 0.661149
vn -0.043755 0.730388 0.681630
vn -0.354068 0.701388 0.618620
vn -0.537867 0.624339 0.566481
vn -0.915357 0.301249 0.267153
vn -0.915357 0.301249 0.267153
vn -0.999109 0.028321 0.031305
vn -0.750527 0.489939 0.443473
vn -0.023864 -0.388532 0.921126
vn -0.027172 -0.387725 0.921374
vn -0.648561 -0.670607 -0.360077
vn -0.860754 -0.418189 -0.290209
vn -0.750991 -0.569709 -0.333832
vn -0.274723 -0.192001 0.942159
vn -0.167521 -0.156511 0.973366
vn -0.656809 -0.096443 0.747864
vn -0.909434 -0.358803 -0.210214
vn -0.324782 -0.333437 0.885063
vn -0.968772 -0.215466 -0.122703
vn -0.366438 -0.359340 0.858253
vn 0.032999 -0.908606 -0.416349
vn -0.000467 -0.164291 0.986412
vn 0.881701 0.347122 0.319545
vn -0.834064 -0.475380 -0.279913
vn -0.300955 -0.210463 0.930125
vn -0.279562 -0.182305 0.942661
vn 0.305413 -0.220332 0.926378
vn 0.725574 -0.618421 -0.301825
vn 0.851342 -0.462275 -0.248029
vn 0.366784 -0.267394 0.891050
vn 0.927940 -0.313726 -0.201253
vn 0.344496 -0.363425 0.865589
vn 0.970825 -0.187828 -0.149064
vn 0.293161 -0.367096 0.882778
vn 0.319247 -0.860973 -0.395988
vn 0.323547 -0.369695 0.871001
vn 0.174347 -0.144018 0.974096
vn 0.992139 0.091261 0.085627
vn 0.375135 -0.374410 0.847992
vn -0.761562 -0.354347 0.542643
vn -0.717480 -0.411545 0.562008
vn -0.718320 -0.437651 0.540812
vn -0.962595 -0.188723 0.194407
vn -0.639221 -0.198196 0.743044
vn -0.379523 -0.386378 0.840639
vn -0.679506 -0.506798 0.530497
vn -0.641324 -0.576151 0.506709
vn -0.522631 -0.674641 0.521264
vn -0.303088 -0.753955 0.582828
vn 0.039525 -0.802387 0.595493
vn 0.405519 -0.738374 0.538849
vn 0.600814 -0.618011 0.507036
vn 0.702851 -0.518598 0.486884
vn 0.751787 -0.449303 0.482642
vn 0.777494 -0.423383 0.465026
vn 0.751451 -0.364002 0.550294
vn 0.762568 -0.289226 0.578652
vn 0.742285 -0.182993 0.644613
vn 0.685393 -0.026657 0.727686
vn 0.539929 0.105141 0.835118
vn 0.376087 0.244303 0.893798
vn 0.166421 0.279121 0.945725
vn -0.036565 0.258303 0.965372
vn -0.275245 0.237430 0.931594
vn -0.444745 0.204372 0.872029
vn -0.578101 0.025475 0.815567
f 109/109/109 77/77/77 88/88/88
f 105/105/105 109/109/109 88/88/88
f 91/91/91 14/14/14 92/92/92
f 5/5/5 89/89/89 19/19/19
f 1/1/1 25/25/25 90/90/90
f 18/18/18 49/49/49 74/74/74
f 4/4/4 24/24/24 29/29/29
f 34/34/34 16/16/16 37/37/37
f 73/73/73 21/21/21 72/72/72
f 15/15/15 12/12/12 1/1/1
f 72/72/72 47/47/47 10/10/10
f 8/8/8 27/27/27 5/5/5
f 12/12/12 10/10/10 1/1/1
f 10/10/10 8/8/8 2/2/2
f 53/53/53 72/72/72 12/12/12
f 27/27/27 8/8/8 23/23/23
f 100/100/100 25/25/25 1/1/1
f 84/84/84 34/34/34 33/33/33
f 85/85/85 5/5/5 32/32/32
f 17/17/17 74/74/74 50/50/50
f 87/87/87 80/80/80 75/75/75
f 80/80/80 82/82/82 51/51/51
f 29/29/29 98/98/98 3/3/3
f 15/15/15 1/1/1 90/90/90
f 39/39/39 12/12/12 35/35/35
f 56/56/56 94/94/94 55/55/55
f 57/57/57 96/96/96 56/56/56
f 58/58/58 11/11/11 57/57/57
f 60/60/60 101/101/101 58/58/58
f 59/59/59 61/61/61 101/101/101
f 62/62/62 54/54/54 61/61/61
f 63/63/63 46/46/46 62/62/62
f 64/64/64 44/44/44 63/63/63
f 65/65/65 41/41/41 64/64/64
f 66/66/66 38/38/38 65/65/65
f 67/67/67 31/31/31 66/66/66
f 69/69/69 28/28/28 71/71/71
f 70/70/70 22/22/22 68/68/68
f 52/52/52 82/82/82 70/70/70
f 5/5/5 19/19/19 32/32/32
f 43/43/43 73/73/73 53/53/53
f 95/95/95 15/15/15 93/93/93
f 97/97/97 15/15/15 95/95/95
f 35/35/35 15/15/15 6/6/6
f 102/102/102 35/35/35 6/6/6
f 39/39/39 35/35/35 99/99/99
f 48/48/48 39/39/39 99/99/99
f 43/43/43 39/39/39 45/45/45
f 42/42/42 43/43/43 45/45/45
f 73/73/73 43/43/43 40/40/40
f 21/21/21 73/73/73 36/36/36
f 30/30/30 21/21/21 36/36/36
f 26/26/26 21/21/21 7/7/7
f 23/23/23 21/21/21 20/20/20
f 83/83/83 23/23/23 20/20/20
f 27/27/27 23/23/23 81/81/81
f 88/88/88 27/27/27 81/81/81
f 5/5/5 77/77/77 89/89/89
f 100/100/100 2/2/2 85/85/85
f 15/15/15 90/90/90 93/93/93
f 5/5/5 27/27/27 77/77/77
f 35/35/35 12/12/12 15/15/15
f 43/43/43 53/53/53 39/39/39
f 53/53/53 12/12/12 39/39/39
f 31/31/31 67/67/67 9/9/9
f 33/33/33 3/3/3 84/84/84
f 2/2/2 100/100/100 1/1/1
f 7/7/7 21/21/21 30/30/30
f 21/21/21 23/23/23 47/47/47
f 92/92/92 14/14/14 55/55/55
f 27/27/27 88/88/88 78/78/78
f 87/87/87 75/75/75 76/76/76
f 5/5/5 85/85/85 2/2/2
f 47/47/47 23/23/23 8/8/8
f 34/34/34 84/84/84 113/113/113
f 112/112/112 34/34/34 113/113/113
f 76/76/76 75/75/75 50/50/50
f 74/74/74 16/16/16 111/111/111
f 110/110/110 74/74/74 111/111/111
f 24/24/24 91/91/91 116/116/116
f 115/115/115 24/24/24 116/116/116
f 25/25/25 100/100/100 114/114/114
f 115/115/115 25/25/25 114/114/114
f 32/32/32 19/19/19 111/111/111
f 112/112/112 32/32/32 111/111/111
f 36/36/36 73/73/73 40/40/40
f 89/89/89 77/77/77 109/109/109
f 110/110/110 89/89/89 109/109/109
f 88/88/88 81/81/81 104/104/104
f 105/105/105 88/88/88 104/104/104
f 81/81/81 83/83/83 103/103/103
f 104/104/104 81/81/81 103/103/103
f 100/100/100 85/85/85 113/113/113
f 114/114/114 100/100/100 113/113/113
f 93/93/93 90/90/90 116/116/116
f 117/117/117 93/93/93 116/116/116
f 95/95/95 93/93/93 117/117/117
f 118/118/118 95/95/95 117/117/117
f 97/97/97 95/95/95 118/118/118
f 119/119/119 97/97/97 118/118/118
f 6/6/6 97/97/97 119/119/119
f 120/120/120 6/6/6 119/119/119
f 102/102/102 6/6/6 120/120/120
f 121/121/121 102/102/102 120/120/120
f 99/99/99 102/102/102 121/121/121
f 122/122/122 99/99/99 121/121/121
f 48/48/48 99/99/99 122/122/122
f 123/123/123 48/48/48 122/122/122
f 45/45/45 48/48/48 123/123/123
f 124/124/124 45/45/45 123/123/123
f 42/42/42 45/45/45 124/124/124
f 125/125/125 42/42/42 124/124/124
f 40/40/40 42/42/42 125/125/125
f 126/126/126 40/40/40 125/125/125
f 36/36/36 40/40/40 126/126/126
f 127/127/127 36/36/36 126/126/126
f 30/30/30 36/36/36 127/127/127
f 128/128/128 30/30/30 127/127/127
f 26/26/26 7/7/7 129/129/129
f 79/79/79 26/26/26 129/129/129
f 20/20/20 26/26/26 79/79/79
f 107/107/107 20/20/20 79/79/79
f 83/83/83 20/20/20 108/108/108
f 103/103/103 83/83/83 108/108/108
f 7/7/7 30/30/30 128/128/128
f 129/129/129 7/7/7 128/128/128
f 20/20/20 21/21/21 26/26/26
f 84/84/84 3/3/3 98/98/98
f 74/74/74 49/49/49 16/16/16
f 29/29/29 24/24/24 98/98/98
f 37/37/37 16/16/16 49/49/49
f 72/72/72 21/21/21 47/47/47
f 10/10/10 47/47/47 8/8/8
f 1/1/1 10/10/10 2/2/2
f 2/2/2 8/8/8 5/5/5
f 12/12/12 72/72/72 10/10/10
f 33/33/33 34/34/34 37/37/37
f 50/50/50 74/74/74 76/76/76
f 75/75/75 80/80/80 51/51/51
f 51/51/51 82/82/82 52/52/52
f 24/24/24 4/4/4 91/91/91
f 81/81/81 23/23/23 83/83/83
f 9/9/9 67/67/67 71/71/71
f 55/55/55 94/94/94 92/92/92
f 56/56/56 96/96/96 94/94/94
f 57/57/57 11/11/11 96/96/96
f 58/58/58 101/101/101 11/11/11
f 101/101/101 61/61/61 86/86/86
f 61/61/61 54/54/54 86/86/86
f 62/62/62 46/46/46 54/54/54
f 63/63/63 44/44/44 46/46/46
f 64/64/64 41/41/41 44/44/44
f 65/65/65 38/38/38 41/41/41
f 66/66/66 31/31/31 38/38/38
f 71/71/71 28/28/28 9/9/9
f 68/68/68 22/22/22 28/28/28
f 70/70/70 82/82/82 22/22/22
f 53/53/53 73/73/73 72/72/72
f 6/6/6 15/15/15 97/97/97
f 99/99/99 35/35/35 102/102/102
f 45/45/45 39/39/39 48/48/48
f 40/40/40 43/43/43 42/42/42
f 80/80/80 104/104/104 103/103/103
f 82/82/82 80/80/80 103/103/103
f 87/87/87 105/105/105 104/104/104
f 80/80/80 87/87/87 104/104/104
f 91/91/91 4/4/4 13/13/13
f 76/76/76 109/109/109 105/105/105
f 87/87/87 76/76/76 105/105/105
f 74/74/74 110/110/110 109/109/109
f 76/76/76 74/74/74 109/109/109
f 89/89/89 110/110/110 111/111/111
f 19/19/19 89/89/89 111/111/111
f 34/34/34 112/112/112 111/111/111
f 16/16/16 34/34/34 111/111/111
f 32/32/32 112/112/112 113/113/113
f 85/85/85 32/32/32 113/113/113
f 98/98/98 114/114/114 113/113/113
f 84/84/84 98/98/98 113/113/113
f 24/24/24 115/115/115 114/114/114
f 98/98/98 24/24/24 114/114/114
f 25/25/25 115/115/115 116/116/116
f 90/90/90 25/25/25 116/116/116
f 92/92/92 117/117/117 116/116/116
f 91/91/91 92/92/92 116/116/116
f 94/94/94 118/118/118 117/117/117
f 92/92/92 94/94/94 117/117/117
f 96/96/96 119/119/119 118/118/118
f 94/94/94 96/96/96 118/118/118
f 11/11/11 120/120/120 119/119/119
f 96/96/96 11/11/11 119/119/119
f 101/101/101 121/121/121 120/120/120
f 11/11/11 101/101/101 120/120/120
f 86/86/86 122/122/122 121/121/121
f 101/101/101 86/86/86 121/121/121
f 54/54/54 123/123/123 122/122/122
f 86/86/86 54/54/54 122/122/122
f 46/46/46 124/124/124 123/123/123
f 54/54/54 46/46/46 123/123/123
f 44/44/44 125/125/125 124/124/124
f 46/46/46 44/44/44 124/124/124
f 41/41/41 126/126/126 125/125/125
f 44/44/44 41/41/41 125/125/125
f 38/38/38 127/127/127 126/126/126
f 41/41/41 38/38/38 126/126/126
f 31/31/31 128/128/128 127/127/127
f 38/38/38 31/31/31 127/127/127
f 9/9/9 129/129/129 128/128/128
f 31/31/31 9/9/9 128/128/128
f 28/28/28 79/79/79 129/129/129
f 9/9/9 28/28/28 129/129/129
f 22/22/22 107/107/107 79/79/79
f 28/28/28 22/22/22 79/79/79
f 82/82/82 103/103/103 106/106/106
f 22/22/22 82/82/82 106/106/106
