# GloomhavenVR - pico-4 left 'body' (glTF material 1)
# generated by controllers_pipeline.py from webxr-input-profiles (MIT)
o pico4_left_body__m1
v 0.005710 0.016465 0.005118
v 0.005710 0.016465 0.005118
v 0.005710 0.016465 0.005118
v 0.008810 0.016465 0.005118
v 0.008810 0.016465 0.005118
v 0.008810 0.016465 0.005118
v 0.008810 0.016465 0.007718
v 0.008810 0.016465 0.007718
v 0.008810 0.016465 0.007718
v 0.005710 0.016465 0.007718
v 0.005710 0.016465 0.007718
v 0.005710 0.016465 0.007718
v 0.008810 0.015495 0.007718
v 0.008810 0.015495 0.007718
v 0.008810 0.015495 0.007718
v 0.005710 0.015495 0.007718
v 0.005710 0.015495 0.007718
v 0.005710 0.015495 0.007718
v 0.005710 0.015495 0.005118
v 0.005710 0.015495 0.005118
v 0.005710 0.015495 0.005118
v 0.008810 0.015495 0.005118
v 0.008810 0.015495 0.005118
v 0.008810 0.015495 0.005118
v 0.007260 0.016465 0.006418
v -0.006243 -0.018635 -0.069780
v -0.006260 -0.022345 -0.072991
v -0.011488 -0.018809 -0.069829
v -0.011406 -0.022582 -0.073022
v -0.001261 -0.020501 -0.068406
v -0.016074 -0.020342 -0.068436
v -0.001892 -0.023356 -0.071448
v -0.015859 -0.023820 -0.071385
vt 0.000000 1.000000
vt 0.000000 1.000000
vt 1.000000 1.000000
vt 0.000000 0.000000
vt 0.000000 1.000000
vt 1.000000 1.000000
vt 1.000000 1.000000
vt 1.000000 0.000000
vt 0.000000 1.000000
vt 1.000000 1.000000
vt 0.000000 1.000000
vt 1.000000 1.000000
vt 1.000000 0.000000
vt 1.000000 0.000000
vt 0.000000 0.000000
vt 1.000000 0.000000
vt 0.000000 0.000000
vt 1.000000 1.000000
vt 0.000000 0.000000
vt 0.000000 1.000000
vt 1.000000 0.000000
vt 0.000000 0.000000
vt 0.000000 0.000000
vt 1.000000 0.000000
vt 0.500000 0.500000
vt 0.005804 0.663606
vt 0.333215 0.662464
vt 0.016730 0.313484
vt 0.346591 0.318955
vt 0.040490 0.994196
vt 0.033731 0.005804
vt 0.317314 0.952466
vt 0.338094 0.020137
vn -1.000000 0.000000 -0.000000
vn 0.000000 1.000000 -0.000000
vn 0.000000 -0.000000 -1.000000
vn 0.000000 1.000000 -0.000000
vn 0.000000 -0.000000 -1.000000
vn 1.000000 0.000000 -0.000000
vn 0.000000 0.000000 1.000000
vn 0.000000 1.000000 -0.000000
vn 1.000000 0.000000 -0.000000
vn -1.000000 0.000000 -0.000000
vn 0.000000 0.000000 1.000000
vn 0.000000 1.000000 -0.000000
vn 0.000000 0.000000 1.000000
vn 0.000000 -1.000000 0.000000
vn 1.000000 0.000000 -0.000000
vn -1.000000 0.000000 -0.000000
vn 0.000000 0.000000 1.000000
vn 0.000000 -1.000000 0.000000
vn -1.000000 0.000000 -0.000000
vn 0.000000 -1.000000 0.000000
vn 0.000000 -0.000000 -1.000000
vn 0.000000 -1.000000 0.000000
vn 0.000000 -0.000000 -1.000000
vn 1.000000 0.000000 -0.000000
vn 0.000000 1.000000 -0.000000
vn 0.127248 0.645856 -0.752781
vn 0.262771 0.640183 -0.721884
vn -0.285441 0.612479 -0.737152
vn -0.155611 0.639567 -0.752821
vn 0.398628 0.613798 -0.681430
vn -0.407758 0.575712 -0.708723
vn 0.384000 0.632255 -0.672903
vn -0.412946 0.578575 -0.703368
f 4/4/4 25/25/25 8/8/8
f 8/8/8 25/25/25 12/12/12
f 21/21/21 3/3/3 23/23/23
f 5/5/5 23/23/23 3/3/3
f 24/24/24 6/6/6 15/15/15
f 9/9/9 15/15/15 6/6/6
f 13/13/13 7/7/7 17/17/17
f 11/11/11 17/17/17 7/7/7
f 16/16/16 10/10/10 19/19/19
f 1/1/1 19/19/19 10/10/10
f 14/14/14 18/18/18 22/22/22
f 20/20/20 22/22/22 18/18/18
f 12/12/12 25/25/25 2/2/2
f 2/2/2 25/25/25 4/4/4
f 27/27/27 29/29/29 26/26/26
f 32/32/32 27/27/27 30/30/30
f 29/29/29 33/33/33 28/28/28
f 26/26/26 29/29/29 28/28/28
f 30/30/30 27/27/27 26/26/26
f 28/28/28 33/33/33 31/31/31
