# GloomhavenVR - pico-4 left 'squeeze' (glTF material 0)
# generated by controllers_pipeline.py from webxr-input-profiles (MIT)
o pico4_left_squeeze__m0
v -0.006314 -0.010538 -0.005593
v -0.006451 -0.008336 -0.004594
v 0.008700 -0.000987 -0.018880
v 0.008757 -0.000920 -0.023189
v -0.006472 -0.005967 -0.004388
v 0.008659 0.001743 -0.016767
v 0.003954 -0.011168 -0.006882
v -0.006428 -0.003987 -0.004782
v -0.006428 -0.003987 -0.004782
v -0.006314 -0.002598 -0.005487
v 0.005478 -0.008647 -0.005498
v 0.008188 0.003855 -0.012369
v 0.007234 -0.006034 -0.004213
v -0.006151 -0.000759 -0.007191
v 0.009163 -0.003424 -0.020753
v -0.005993 0.001319 -0.010209
v 0.008025 -0.003580 -0.014724
v 0.008768 0.003470 -0.012812
v 0.008725 -0.000555 -0.012611
v 0.007923 -0.004268 -0.007202
v -0.005562 0.003021 -0.012739
v 0.005697 -0.009919 -0.011107
v -0.005227 0.003904 -0.014127
v 0.006717 -0.006836 -0.009007
v 0.002029 -0.012102 -0.005884
v 0.008029 -0.006506 -0.016577
v -0.004820 0.004892 -0.016076
v 0.008549 0.000861 -0.021881
v -0.005813 -0.013019 -0.009160
v -0.005813 -0.013019 -0.009160
v -0.006116 -0.012003 -0.007003
v -0.005150 -0.012666 -0.014437
v -0.003497 0.001730 -0.025370
v -0.005405 -0.013236 -0.012066
v -0.004573 -0.009168 -0.020075
v 0.003078 -0.011721 -0.006221
v -0.004976 -0.010996 -0.017216
v -0.003671 -0.005839 -0.024238
v 0.007920 -0.004945 -0.003134
v -0.004027 -0.007786 -0.022233
v -0.003424 -0.001801 -0.025961
v -0.003424 -0.001801 -0.025961
v -0.003531 -0.004179 -0.025299
v -0.004590 0.005486 -0.017810
v -0.004590 0.005486 -0.017810
v -0.004316 0.005601 -0.019694
v 0.008021 0.003210 -0.020002
v 0.007547 -0.004508 -0.002633
v 0.001854 -0.013112 -0.008109
v 0.002868 -0.012540 -0.007918
v -0.003928 0.004844 -0.022386
v 0.003019 -0.013277 -0.010750
v 0.003969 -0.012683 -0.010787
v -0.003727 0.003793 -0.023805
v 0.003247 -0.010543 -0.004223
v 0.004328 -0.010075 -0.004569
v -0.004122 0.005360 -0.021011
v 0.004237 -0.012652 -0.012976
v 0.005029 -0.012123 -0.012684
v -0.003576 0.002500 -0.024911
v 0.005964 -0.010858 -0.015505
v 0.006822 -0.010068 -0.015562
v 0.006327 -0.006504 -0.002558
v 0.007022 -0.006464 -0.003138
v 0.007333 -0.008983 -0.018244
v 0.007953 -0.008515 -0.017847
v 0.008400 -0.007484 -0.020487
v 0.009005 -0.006811 -0.020332
v 0.004962 -0.008312 -0.002945
v 0.005714 -0.008283 -0.003549
v 0.009017 -0.005497 -0.022449
v 0.009505 -0.005112 -0.021938
v 0.009016 -0.004063 -0.023326
v 0.009299 -0.003038 -0.023050
v -0.003426 -0.000089 -0.025886
v 0.009164 -0.001301 -0.005225
v 0.008736 -0.000902 -0.004880
v 0.008773 -0.002974 -0.003846
v 0.008284 -0.002800 -0.003309
v 0.008999 0.002234 -0.010649
v 0.008451 0.002725 -0.010419
v 0.009211 0.000763 -0.008321
v 0.008698 0.001037 -0.007760
v 0.008382 0.004324 -0.014654
v 0.007741 0.004850 -0.014469
v 0.007619 0.004803 -0.019123
v 0.006869 0.005385 -0.019407
v 0.007568 0.004323 -0.020458
v 0.006827 0.004875 -0.020844
v 0.007712 0.003635 -0.021446
v 0.007027 0.003944 -0.022135
v 0.007403 0.002668 -0.023212
v 0.008112 0.002168 -0.022689
v 0.008320 0.001502 -0.023036
v 0.007662 0.001826 -0.023692
v 0.008755 -0.000526 -0.023407
v 0.008197 -0.000006 -0.024065
v 0.008042 0.004961 -0.016698
v 0.007432 0.005477 -0.016264
v 0.007709 0.004978 -0.018432
v 0.007018 0.005608 -0.018251
v 0.008988 -0.001340 -0.023425
v 0.008653 -0.001647 -0.024062
v 0.009131 -0.001043 -0.004938
v 0.009130 0.000972 -0.007944
v 0.008896 0.002583 -0.010487
v 0.008644 0.003772 -0.012553
v 0.008219 0.004717 -0.014563
v 0.007893 0.005355 -0.016487
v 0.007510 0.005437 -0.018386
v 0.007384 0.005233 -0.019351
v 0.007338 0.004731 -0.020759
v 0.007516 0.003895 -0.021932
v 0.007907 0.002522 -0.023094
v 0.008146 0.001748 -0.023521
v 0.008644 -0.000191 -0.023897
v 0.009007 -0.001488 -0.023903
v 0.009351 -0.003617 -0.023317
v 0.009442 -0.005347 -0.022327
v 0.008869 -0.007230 -0.020499
v 0.007797 -0.008835 -0.018126
v 0.006517 -0.010590 -0.015555
v 0.004742 -0.012518 -0.012845
v 0.003579 -0.013122 -0.010738
v 0.002429 -0.012964 -0.007968
v 0.002621 -0.012027 -0.005949
v 0.003867 -0.010413 -0.004274
v 0.005457 -0.008349 -0.003095
v 0.006812 -0.006516 -0.002693
v 0.007905 -0.004707 -0.002734
v 0.008701 -0.002865 -0.003433
vt 0.853530 0.540698
vt 0.842701 0.534831
vt 0.816805 0.664162
vt 0.828087 0.682694
vt 0.831959 0.529906
vt 0.800752 0.661536
vt 0.839885 0.590672
vt 0.724736 0.583159
vt 0.822980 0.525807
vt 0.723400 0.590742
vt 0.823911 0.592757
vt 0.782311 0.648562
vt 0.809917 0.593024
vt 0.720896 0.603087
vt 0.830200 0.666694
vt 0.718150 0.621590
vt 0.819487 0.641663
vt 0.786234 0.649394
vt 0.802924 0.640001
vt 0.808279 0.609890
vt 0.717747 0.637294
vt 0.840523 0.612269
vt 0.718488 0.645757
vt 0.823141 0.611030
vt 0.844631 0.580629
vt 0.834738 0.643053
vt 0.719304 0.656882
vt 0.817187 0.679815
vt 0.872756 0.551419
vt 0.895993 0.583439
vt 0.862575 0.545851
vt 0.901237 0.610486
vt 0.801711 0.740741
vt 0.898629 0.597663
vt 0.904587 0.646080
vt 0.841992 0.585568
vt 0.904587 0.627823
vt 0.900252 0.674535
vt 0.798998 0.591672
vt 0.902946 0.659961
vt 0.818714 0.745302
vt 0.895494 0.696172
vt 0.898283 0.684558
vt 0.719317 0.665750
vt 0.758985 0.726110
vt 0.767520 0.729322
vt 0.802382 0.677018
vt 0.794290 0.588646
vt 0.856244 0.586717
vt 0.850193 0.589913
vt 0.780715 0.734153
vt 0.858207 0.601119
vt 0.853531 0.603737
vt 0.789200 0.736955
vt 0.832246 0.580429
vt 0.829086 0.585112
vt 0.773812 0.731607
vt 0.857460 0.613153
vt 0.852835 0.613973
vt 0.797367 0.739571
vt 0.853108 0.628597
vt 0.848288 0.631336
vt 0.806455 0.585289
vt 0.806616 0.589243
vt 0.849634 0.644218
vt 0.845176 0.644083
vt 0.846082 0.656555
vt 0.842273 0.657917
vt 0.817559 0.582589
vt 0.817254 0.586684
vt 0.842261 0.668810
vt 0.838837 0.667769
vt 0.839698 0.675916
vt 0.835098 0.677126
vt 0.810772 0.743250
vt 0.792911 0.609338
vt 0.790056 0.608565
vt 0.795166 0.599945
vt 0.792598 0.597276
vt 0.787900 0.638060
vt 0.784038 0.638169
vt 0.789952 0.625809
vt 0.786520 0.624013
vt 0.785064 0.658692
vt 0.780477 0.659435
vt 0.793228 0.677438
vt 0.790744 0.681355
vt 0.798889 0.681334
vt 0.796879 0.685467
vt 0.804263 0.683477
vt 0.803921 0.688192
vt 0.811882 0.689562
vt 0.813526 0.685327
vt 0.817254 0.685469
vt 0.816674 0.689823
vt 0.827088 0.684199
vt 0.826234 0.688757
vt 0.785512 0.668382
vt 0.779552 0.668878
vt 0.790550 0.675171
vt 0.786395 0.677349
vt 0.830740 0.683043
vt 0.835187 0.687042
vt 0.791585 0.608826
vt 0.788428 0.624725
vt 0.786128 0.638134
vt 0.784461 0.648966
vt 0.782924 0.659215
vt 0.782748 0.668588
vt 0.788530 0.676217
vt 0.792108 0.679456
vt 0.798015 0.683501
vt 0.804331 0.685970
vt 0.812856 0.687584
vt 0.817094 0.687770
vt 0.826818 0.686721
vt 0.833166 0.685219
vt 0.837566 0.676563
vt 0.840465 0.668591
vt 0.844096 0.657491
vt 0.847267 0.644447
vt 0.850674 0.629973
vt 0.855094 0.613588
vt 0.855870 0.602375
vt 0.853187 0.588328
vt 0.843200 0.583018
vt 0.830526 0.582691
vt 0.817001 0.584610
vt 0.806104 0.587242
vt 0.796461 0.590266
vt 0.793892 0.598597
vn -0.118382 -0.552916 0.824784
vn -0.139330 -0.238655 0.961057
vn 0.995602 0.025623 0.090108
vn 0.986720 0.158889 0.033741
vn -0.139472 0.047195 0.989101
vn 0.998310 0.029748 -0.049916
vn 0.809429 -0.548680 0.209225
vn -0.130160 0.318721 0.938869
vn -0.130160 0.318721 0.938869
vn -0.109652 0.602283 0.790716
vn 0.843667 -0.536615 0.016425
vn -0.032854 0.878445 0.476713
vn 0.856043 -0.509422 -0.087630
vn -0.087139 0.771563 0.630157
vn 0.985480 0.061582 0.158233
vn -0.076687 0.828101 0.555308
vn 0.976751 -0.189835 0.099602
vn 0.996227 0.071309 -0.049459
vn 0.981556 -0.187389 -0.037869
vn 0.928315 -0.363797 -0.076707
vn -0.071775 0.839568 0.538493
vn 0.907895 -0.385396 0.164917
vn -0.059688 0.875193 0.480078
vn 0.921936 -0.385029 0.042263
vn -0.066762 -0.800798 0.595202
vn 0.961004 -0.157994 0.226957
vn -0.048619 0.918741 0.391856
vn 0.985652 0.168542 0.009203
vn -0.043429 -0.971896 0.231370
vn -0.043429 -0.971896 0.231370
vn -0.087262 -0.812011 0.577082
vn 0.063528 -0.914691 -0.399131
vn 0.135393 0.355703 -0.924740
vn 0.009119 -0.996187 -0.086761
vn 0.093704 -0.846587 -0.523937
vn 0.676857 -0.695696 0.240565
vn 0.089693 -0.848050 -0.522270
vn 0.122808 -0.654218 -0.746269
vn 0.896689 -0.441800 0.027604
vn 0.105003 -0.788686 -0.605763
vn 0.155116 -0.145864 -0.977068
vn 0.155116 -0.145864 -0.977068
vn 0.144992 -0.396645 -0.906449
vn -0.023643 0.981516 0.189913
vn -0.023643 0.981516 0.189913
vn 0.004794 0.999480 -0.031902
vn 0.975736 0.202574 -0.083086
vn -0.106203 0.288913 0.951446
vn -0.016793 -0.974250 0.224846
vn 0.653729 -0.701337 0.284192
vn 0.065813 0.875597 -0.478538
vn 0.041101 -0.994465 -0.096696
vn 0.794493 -0.556015 0.244189
vn 0.093975 0.735178 -0.671328
vn -0.095763 -0.509786 0.854955
vn 0.742417 -0.658564 0.122922
vn 0.036525 0.963392 -0.265596
vn 0.097251 -0.893178 -0.439062
vn 0.875050 -0.438086 0.205835
vn 0.113068 0.607133 -0.786515
vn 0.117440 -0.846378 -0.519473
vn 0.901073 -0.276798 0.333842
vn -0.118278 0.043785 0.992015
vn 0.826130 -0.552724 0.109569
vn 0.116818 -0.848598 -0.515980
vn 0.948609 -0.230797 0.216502
vn 0.128447 -0.781777 -0.610185
vn 0.950508 -0.092480 0.296617
vn -0.106573 -0.251109 0.962074
vn 0.771211 -0.623028 0.130651
vn 0.147212 -0.644703 -0.750125
vn 0.993387 0.010323 0.114353
vn 0.167068 -0.380714 -0.909475
vn 0.974202 0.189859 0.122002
vn 0.149026 0.159053 -0.975958
vn 0.968572 -0.227073 -0.101522
vn -0.067336 0.757233 0.649664
vn 0.942583 -0.333018 -0.025208
vn -0.089601 0.566251 0.819348
vn 0.996402 0.036801 -0.076351
vn -0.044486 0.848834 0.526784
vn 0.983034 -0.175375 -0.053731
vn -0.050913 0.832759 0.551290
vn 0.967055 0.238307 -0.089528
vn -0.021132 0.918211 0.395528
vn 0.887511 0.417950 -0.194018
vn 0.056031 0.962614 -0.265018
vn 0.921605 0.356910 -0.152513
vn 0.082190 0.886041 -0.456264
vn 0.932576 0.340911 -0.118666
vn 0.113142 0.736809 -0.666567
vn 0.134130 0.608668 -0.782005
vn 0.939901 0.330710 -0.084949
vn 0.961925 0.253905 -0.101153
vn 0.158740 0.327164 -0.931539
vn 0.970968 0.239149 0.005440
vn 0.170718 0.140182 -0.975297
vn 0.963248 0.244898 -0.110359
vn 0.000472 0.974166 0.225832
vn 0.920606 0.348442 -0.176275
vn 0.022891 0.999642 -0.013819
vn 0.972492 0.221811 0.071134
vn 0.169162 -0.167041 -0.971330
vn 0.742689 0.470210 0.476777
vn 0.740901 0.573040 0.350272
vn 0.689453 0.648390 0.322869
vn 0.673193 0.694687 0.253421
vn 0.651383 0.737913 0.176595
vn 0.640949 0.767303 0.020753
vn 0.598760 0.788428 -0.140956
vn 0.622891 0.738408 -0.258382
vn 0.618528 0.708888 -0.338972
vn 0.669155 0.615995 -0.415671
vn 0.712704 0.534397 -0.454393
vn 0.732749 0.364352 -0.574740
vn 0.797971 0.251970 -0.547497
vn 0.785894 0.061050 -0.615340
vn 0.827212 -0.112436 -0.550526
vn 0.824034 -0.400403 -0.400806
vn 0.730500 -0.632585 -0.257307
vn 0.687216 -0.709099 -0.157837
vn 0.652235 -0.745444 -0.137487
vn 0.570530 -0.816713 -0.086461
vn 0.496867 -0.855331 0.146742
vn 0.405304 -0.865104 0.295506
vn 0.386972 -0.820009 0.421708
vn 0.441920 -0.725273 0.527907
vn 0.495629 -0.608363 0.619876
vn 0.564673 -0.432950 0.702636
vn 0.673309 -0.191023 0.714259
vn 0.749008 0.146027 0.646268
f 97/97/97 95/95/95 115/115/115
f 116/116/116 97/97/97 115/115/115
f 15/15/15 72/72/72 4/4/4
f 26/26/26 66/66/66 15/15/15
f 4/4/4 74/74/74 102/102/102
f 15/15/15 68/68/68 72/72/72
f 26/26/26 62/62/62 66/66/66
f 22/22/22 53/53/53 59/59/59
f 47/47/47 98/98/98 6/6/6
f 18/18/18 6/6/6 84/84/84
f 82/82/82 19/19/19 80/80/80
f 78/78/78 20/20/20 76/76/76
f 28/28/28 47/47/47 3/3/3
f 47/47/47 88/88/88 100/100/100
f 15/15/15 4/4/4 3/3/3
f 22/22/22 59/59/59 26/26/26
f 22/22/22 7/7/7 53/53/53
f 98/98/98 47/47/47 100/100/100
f 6/6/6 18/18/18 19/19/19
f 24/24/24 20/20/20 11/11/11
f 26/26/26 17/17/17 22/22/22
f 13/13/13 64/64/64 11/11/11
f 7/7/7 11/11/11 36/36/36
f 88/88/88 47/47/47 90/90/90
f 96/96/96 94/94/94 4/4/4
f 3/3/3 6/6/6 17/17/17
f 61/61/61 58/58/58 37/37/37
f 54/54/54 51/51/51 91/91/91
f 33/33/33 60/60/60 95/95/95
f 101/101/101 87/87/87 46/46/46
f 41/41/41 75/75/75 103/103/103
f 38/38/38 43/43/43 71/71/71
f 35/35/35 40/40/40 65/65/65
f 30/30/30 34/34/34 49/49/49
f 85/85/85 99/99/99 27/27/27
f 81/81/81 12/12/12 21/21/21
f 77/77/77 83/83/83 14/14/14
f 10/10/10 8/8/8 79/79/79
f 5/5/5 2/2/2 63/63/63
f 25/25/25 55/55/55 31/31/31
f 15/15/15 3/3/3 26/26/26
f 22/22/22 24/24/24 7/7/7
f 4/4/4 102/102/102 96/96/96
f 17/17/17 19/19/19 24/24/24
f 29/29/29 49/49/49 31/31/31
f 38/38/38 71/71/71 40/40/40
f 93/93/93 90/90/90 28/28/28
f 42/42/42 103/103/103 43/43/43
f 101/101/101 46/46/46 99/99/99
f 33/33/33 95/95/95 75/75/75
f 54/54/54 91/91/91 60/60/60
f 89/89/89 51/51/51 87/87/87
f 36/36/36 50/50/50 7/7/7
f 94/94/94 93/93/93 28/28/28
f 61/61/61 37/37/37 65/65/65
f 39/39/39 64/64/64 13/13/13
f 70/70/70 56/56/56 11/11/11
f 76/76/76 20/20/20 82/82/82
f 69/69/69 2/2/2 55/55/55
f 48/48/48 9/9/9 63/63/63
f 77/77/77 14/14/14 79/79/79
f 81/81/81 21/21/21 83/83/83
f 85/85/85 27/27/27 12/12/12
f 32/32/32 58/58/58 34/34/34
f 78/78/78 39/39/39 20/20/20
f 71/71/71 73/73/73 118/118/118
f 119/119/119 71/71/71 118/118/118
f 65/65/65 67/67/67 120/120/120
f 121/121/121 65/65/65 120/120/120
f 73/73/73 103/103/103 117/117/117
f 118/118/118 73/73/73 117/117/117
f 67/67/67 71/71/71 119/119/119
f 120/120/120 67/67/67 119/119/119
f 61/61/61 65/65/65 121/121/121
f 122/122/122 61/61/61 121/121/121
f 52/52/52 58/58/58 123/123/123
f 124/124/124 52/52/52 123/123/123
f 99/99/99 85/85/85 108/108/108
f 109/109/109 99/99/99 108/108/108
f 85/85/85 12/12/12 107/107/107
f 108/108/108 85/85/85 107/107/107
f 81/81/81 83/83/83 105/105/105
f 106/106/106 81/81/81 105/105/105
f 77/77/77 79/79/79 131/131/131
f 104/104/104 77/77/77 131/131/131
f 87/87/87 101/101/101 110/110/110
f 111/111/111 87/87/87 110/110/110
f 89/89/89 87/87/87 111/111/111
f 112/112/112 89/89/89 111/111/111
f 58/58/58 61/61/61 122/122/122
f 123/123/123 58/58/58 122/122/122
f 49/49/49 52/52/52 124/124/124
f 125/125/125 49/49/49 124/124/124
f 101/101/101 99/99/99 109/109/109
f 110/110/110 101/101/101 109/109/109
f 12/12/12 81/81/81 106/106/106
f 107/107/107 12/12/12 106/106/106
f 63/63/63 69/69/69 128/128/128
f 129/129/129 63/63/63 128/128/128
f 55/55/55 25/25/25 126/126/126
f 127/127/127 55/55/55 126/126/126
f 91/91/91 89/89/89 112/112/112
f 113/113/113 91/91/91 112/112/112
f 93/93/93 94/94/94 115/115/115
f 114/114/114 93/93/93 115/115/115
f 96/96/96 102/102/102 117/117/117
f 116/116/116 96/96/96 117/117/117
f 76/76/76 82/82/82 105/105/105
f 104/104/104 76/76/76 105/105/105
f 39/39/39 78/78/78 131/131/131
f 130/130/130 39/39/39 131/131/131
f 50/50/50 36/36/36 126/126/126
f 125/125/125 50/50/50 126/126/126
f 92/92/92 91/91/91 113/113/113
f 114/114/114 92/92/92 113/113/113
f 48/48/48 63/63/63 129/129/129
f 130/130/130 48/48/48 129/129/129
f 69/69/69 55/55/55 127/127/127
f 128/128/128 69/69/69 127/127/127
f 77/77/77 104/104/104 105/105/105
f 83/83/83 77/77/77 105/105/105
f 80/80/80 106/106/106 105/105/105
f 82/82/82 80/80/80 105/105/105
f 18/18/18 107/107/107 106/106/106
f 80/80/80 18/18/18 106/106/106
f 84/84/84 108/108/108 107/107/107
f 18/18/18 84/84/84 107/107/107
f 98/98/98 109/109/109 108/108/108
f 84/84/84 98/98/98 108/108/108
f 100/100/100 110/110/110 109/109/109
f 98/98/98 100/100/100 109/109/109
f 86/86/86 111/111/111 110/110/110
f 100/100/100 86/86/86 110/110/110
f 88/88/88 112/112/112 111/111/111
f 86/86/86 88/88/88 111/111/111
f 90/90/90 113/113/113 112/112/112
f 88/88/88 90/90/90 112/112/112
f 93/93/93 114/114/114 113/113/113
f 90/90/90 93/93/93 113/113/113
f 92/92/92 114/114/114 115/115/115
f 95/95/95 92/92/92 115/115/115
f 96/96/96 116/116/116 115/115/115
f 94/94/94 96/96/96 115/115/115
f 97/97/97 116/116/116 117/117/117
f 103/103/103 97/97/97 117/117/117
f 74/74/74 118/118/118 117/117/117
f 102/102/102 74/74/74 117/117/117
f 72/72/72 119/119/119 118/118/118
f 74/74/74 72/72/72 118/118/118
f 68/68/68 120/120/120 119/119/119
f 72/72/72 68/68/68 119/119/119
f 66/66/66 121/121/121 120/120/120
f 68/68/68 66/66/66 120/120/120
f 62/62/62 122/122/122 121/121/121
f 66/66/66 62/62/62 121/121/121
f 59/59/59 123/123/123 122/122/122
f 62/62/62 59/59/59 122/122/122
f 53/53/53 124/124/124 123/123/123
f 59/59/59 53/53/53 123/123/123
f 50/50/50 125/125/125 124/124/124
f 53/53/53 50/50/50 124/124/124
f 49/49/49 125/125/125 126/126/126
f 25/25/25 49/49/49 126/126/126
f 56/56/56 127/127/127 126/126/126
f 36/36/36 56/56/56 126/126/126
f 70/70/70 128/128/128 127/127/127
f 56/56/56 70/70/70 127/127/127
f 64/64/64 129/129/129 128/128/128
f 70/70/70 64/64/64 128/128/128
f 39/39/39 130/130/130 129/129/129
f 64/64/64 39/39/39 129/129/129
f 48/48/48 130/130/130 131/131/131
f 79/79/79 48/48/48 131/131/131
f 76/76/76 104/104/104 131/131/131
f 78/78/78 76/76/76 131/131/131
f 4/4/4 72/72/72 74/74/74
f 15/15/15 66/66/66 68/68/68
f 6/6/6 98/98/98 84/84/84
f 3/3/3 47/47/47 6/6/6
f 95/95/95 97/97/97 75/75/75
f 3/3/3 4/4/4 28/28/28
f 26/26/26 59/59/59 62/62/62
f 53/53/53 7/7/7 50/50/50
f 19/19/19 18/18/18 80/80/80
f 11/11/11 20/20/20 13/13/13
f 22/22/22 17/17/17 24/24/24
f 11/11/11 64/64/64 70/70/70
f 36/36/36 11/11/11 56/56/56
f 4/4/4 94/94/94 28/28/28
f 17/17/17 6/6/6 19/19/19
f 37/37/37 58/58/58 32/32/32
f 91/91/91 51/51/51 89/89/89
f 95/95/95 60/60/60 92/92/92
f 46/46/46 87/87/87 57/57/57
f 103/103/103 75/75/75 97/97/97
f 71/71/71 43/43/43 73/73/73
f 65/65/65 40/40/40 67/67/67
f 49/49/49 34/34/34 52/52/52
f 27/27/27 99/99/99 44/44/44
f 21/21/21 12/12/12 23/23/23
f 14/14/14 83/83/83 16/16/16
f 79/79/79 8/8/8 48/48/48
f 63/63/63 2/2/2 69/69/69
f 31/31/31 55/55/55 1/1/1
f 26/26/26 3/3/3 17/17/17
f 7/7/7 24/24/24 11/11/11
f 24/24/24 19/19/19 20/20/20
f 31/31/31 49/49/49 25/25/25
f 40/40/40 71/71/71 67/67/67
f 28/28/28 90/90/90 47/47/47
f 43/43/43 103/103/103 73/73/73
f 99/99/99 46/46/46 45/45/45
f 20/20/20 39/39/39 13/13/13
f 60/60/60 91/91/91 92/92/92
f 87/87/87 51/51/51 57/57/57
f 65/65/65 37/37/37 35/35/35
f 82/82/82 20/20/20 19/19/19
f 55/55/55 2/2/2 1/1/1
f 63/63/63 9/9/9 5/5/5
f 79/79/79 14/14/14 10/10/10
f 83/83/83 21/21/21 16/16/16
f 12/12/12 27/27/27 23/23/23
f 34/34/34 58/58/58 52/52/52
f 100/100/100 88/88/88 86/86/86
