# GloomhavenVR - meta-quest-touch-plus-v2 right 'trigger' (glTF material 0)
# generated by controllers_pipeline.py from webxr-input-profiles (MIT)
o quest3_right_trigger__m0
v -0.023715 -0.029453 0.021258
v -0.019918 -0.029995 0.023169
v -0.021723 -0.032231 0.019617
v -0.024899 -0.026433 0.024152
v -0.024082 -0.029142 0.020770
v -0.024219 -0.028615 0.020255
v -0.022038 -0.032279 0.018961
v -0.025206 -0.026026 0.023819
v -0.025290 -0.025449 0.023444
v -0.025176 -0.023977 0.027414
v -0.025305 -0.023425 0.027170
v -0.024345 -0.022818 0.031016
v -0.024852 -0.024389 0.027596
v -0.020741 -0.026033 0.028328
v -0.024029 -0.023250 0.031032
v -0.020465 -0.024822 0.031089
v -0.022167 -0.022716 0.034943
v -0.019933 -0.024160 0.033322
v -0.018705 -0.023096 0.038300
v -0.022381 -0.022321 0.035046
v -0.022460 -0.021810 0.035036
v -0.018855 -0.022736 0.038568
v -0.018901 -0.022253 0.038700
v -0.013308 -0.023713 0.040757
v -0.013288 -0.023192 0.041021
v -0.006964 -0.024551 0.040314
v -0.013273 -0.024070 0.040298
v -0.012684 -0.025381 0.036164
v -0.007103 -0.024813 0.039953
v -0.007816 -0.025701 0.036143
v -0.002122 -0.025222 0.036958
v -0.004006 -0.025823 0.035107
v 0.001135 -0.025537 0.033080
v -0.001800 -0.024980 0.037276
v -0.001553 -0.024582 0.037492
v 0.001605 -0.025198 0.033196
v 0.001952 -0.024675 0.033268
v 0.003430 -0.025785 0.029131
v 0.003774 -0.025277 0.028952
v 0.003961 -0.027263 0.024898
v 0.002970 -0.026127 0.029244
v -0.002146 -0.027433 0.029579
v 0.003490 -0.027682 0.025086
v -0.001903 -0.028922 0.026455
v 0.002333 -0.030194 0.022014
v -0.002445 -0.030845 0.023862
v -0.000222 -0.033185 0.020104
v 0.002735 -0.030038 0.021657
v 0.003017 -0.029732 0.021236
v 0.000206 -0.033106 0.019692
v 0.000519 -0.032832 0.019232
v -0.002774 -0.035572 0.018739
v -0.002587 -0.035457 0.018103
v -0.006588 -0.037645 0.018371
v -0.003042 -0.035402 0.019347
v -0.004548 -0.034247 0.021003
v -0.006828 -0.037294 0.019049
v -0.007561 -0.035087 0.021081
v -0.011581 -0.038106 0.018699
v -0.011524 -0.035392 0.021022
v -0.015317 -0.037154 0.018491
v -0.011707 -0.038532 0.017947
v -0.011791 -0.038540 0.017151
v -0.015507 -0.037530 0.017724
v -0.015649 -0.037484 0.016927
v -0.019299 -0.035038 0.017865
v -0.019352 -0.034857 0.017101
v -0.019084 -0.034875 0.018621
v -0.017807 -0.033735 0.020419
v -0.015097 -0.034789 0.020693
v -0.018832 -0.032111 0.021479
v -0.015458 -0.032823 0.022509
v -0.011630 -0.033318 0.023054
v -0.015992 -0.030891 0.024460
v -0.011830 -0.031464 0.025164
v -0.016398 -0.029030 0.026744
v -0.016544 -0.027380 0.029319
v -0.011908 -0.029765 0.027459
v -0.020673 -0.027785 0.025535
v -0.012003 -0.028186 0.030018
v -0.007031 -0.029651 0.027284
v -0.007155 -0.028110 0.030003
v -0.007178 -0.031382 0.024904
v -0.007444 -0.033211 0.022868
v -0.003531 -0.032848 0.022005
v -0.007513 -0.026801 0.032931
v -0.012236 -0.026738 0.032863
v -0.002857 -0.026420 0.032608
v -0.016659 -0.025955 0.032073
v -0.017087 -0.024651 0.034986
v -0.022141 -0.032098 0.018276
v -0.018596 -0.029561 0.013399
v -0.021687 -0.026926 0.015438
v -0.014683 -0.031910 0.012601
v -0.017494 -0.024550 0.010713
v -0.017494 -0.024550 0.010713
v -0.020825 -0.022196 0.013285
v -0.020825 -0.022196 0.013285
v -0.013561 -0.026403 0.009665
v -0.013561 -0.026403 0.009665
v -0.017791 -0.024629 0.009836
v -0.021534 -0.021814 0.012509
v -0.013585 -0.026604 0.008854
v -0.009549 -0.027452 0.008907
v -0.004748 -0.027519 0.009643
v -0.009601 -0.027280 0.009748
v -0.009601 -0.027280 0.009748
v -0.010612 -0.032958 0.012596
v -0.004898 -0.027360 0.010575
v -0.004898 -0.027360 0.010575
v -0.005426 -0.032514 0.013346
v -0.000988 -0.026540 0.011992
v -0.000988 -0.026540 0.011992
v -0.001545 -0.030959 0.014587
v 0.002038 -0.025431 0.014135
v 0.002038 -0.025431 0.014135
v -0.000603 -0.026699 0.011166
v 0.002641 -0.025329 0.013327
v 0.005340 -0.023904 0.017022
v 0.004475 -0.024160 0.017400
v 0.004475 -0.024160 0.017400
v 0.006460 -0.022809 0.023155
v 0.005530 -0.023134 0.023151
v 0.005530 -0.023134 0.023151
v 0.005523 -0.022634 0.028500
v 0.004720 -0.022873 0.028095
v 0.004720 -0.022873 0.028095
v 0.003224 -0.022815 0.033835
v -0.000347 -0.022866 0.038948
v 0.002448 -0.023048 0.033078
v 0.002448 -0.023048 0.033078
v 0.002187 -0.023808 0.033150
v -0.001350 -0.023246 0.037547
v -0.001350 -0.023246 0.037547
v -0.001441 -0.023868 0.037497
v -0.006653 -0.022859 0.040429
v -0.006653 -0.022859 0.040429
v -0.006735 -0.023464 0.040469
v -0.013020 -0.021650 0.040774
v -0.013020 -0.021650 0.040774
v -0.005776 -0.021666 0.042686
v -0.012912 -0.019726 0.043290
v -0.018879 -0.018866 0.040819
v -0.018459 -0.020474 0.038622
v -0.018459 -0.020474 0.038622
v -0.023263 -0.018425 0.035822
v -0.022151 -0.019491 0.034617
v -0.022151 -0.019491 0.034617
v -0.024900 -0.017913 0.030674
v -0.023957 -0.018675 0.030307
v -0.023957 -0.018675 0.030307
v -0.025361 -0.017660 0.024731
v -0.024587 -0.018381 0.024996
v -0.024587 -0.018381 0.024996
v -0.024952 -0.018109 0.020261
v -0.024151 -0.018848 0.020729
v -0.024151 -0.018848 0.020729
v -0.023625 -0.019746 0.015802
v -0.022845 -0.020230 0.016449
v -0.022845 -0.020230 0.016449
v -0.023619 -0.024307 0.018225
v -0.024729 -0.022107 0.022046
v -0.024920 -0.020773 0.026009
v -0.024177 -0.020387 0.030599
v -0.024470 -0.022245 0.030963
v -0.022283 -0.020656 0.034835
v -0.018653 -0.021317 0.038636
v -0.013170 -0.022389 0.040890
v -0.006823 -0.024144 0.040525
v 0.004201 -0.023960 0.028473
v 0.004850 -0.024756 0.023858
v 0.003802 -0.026727 0.019163
v 0.004295 -0.026649 0.024664
v 0.001492 -0.028947 0.016358
v -0.006359 -0.037620 0.017652
vt 0.189917 0.332263
vt 0.172135 0.320374
vt 0.176938 0.342179
vt 0.200703 0.315186
vt 0.192689 0.334721
vt 0.195695 0.337303
vt 0.178471 0.345734
vt 0.203755 0.316682
vt 0.207142 0.318249
vt 0.206871 0.295750
vt 0.210222 0.296280
vt 0.203395 0.275302
vt 0.203783 0.295193
vt 0.180433 0.290942
vt 0.200359 0.275824
vt 0.179590 0.276029
vt 0.189438 0.254895
vt 0.176614 0.264300
vt 0.168683 0.238776
vt 0.191630 0.253552
vt 0.194007 0.252137
vt 0.170078 0.236532
vt 0.171506 0.234282
vt 0.138592 0.228030
vt 0.139031 0.224764
vt 0.104012 0.231856
vt 0.138144 0.231142
vt 0.135052 0.252648
vt 0.104796 0.234333
vt 0.108231 0.254040
vt 0.077224 0.251079
vt 0.087283 0.260544
vt 0.059054 0.273649
vt 0.075259 0.249085
vt 0.073316 0.247056
vt 0.055850 0.272788
vt 0.052589 0.271620
vt 0.046748 0.297402
vt 0.043319 0.297994
vt 0.047543 0.323253
vt 0.050039 0.296778
vt 0.077821 0.291593
vt 0.050986 0.322052
vt 0.078315 0.309570
vt 0.062439 0.340214
vt 0.083858 0.324685
vt 0.079881 0.350469
vt 0.060464 0.342542
vt 0.058448 0.345036
vt 0.078231 0.353087
vt 0.076553 0.355720
vt 0.094569 0.357127
vt 0.093947 0.360494
vt 0.111763 0.357502
vt 0.095018 0.353556
vt 0.098499 0.341499
vt 0.111978 0.353579
vt 0.112153 0.339374
vt 0.130796 0.353081
vt 0.129694 0.337581
vt 0.145710 0.351716
vt 0.131618 0.357008
vt 0.132381 0.360559
vt 0.146498 0.355757
vt 0.147570 0.359435
vt 0.163744 0.352785
vt 0.164925 0.356738
vt 0.162764 0.348880
vt 0.158601 0.337802
vt 0.145820 0.337506
vt 0.164735 0.330820
vt 0.148305 0.326055
vt 0.129672 0.324813
vt 0.151875 0.314228
vt 0.130398 0.312256
vt 0.154948 0.301104
vt 0.156499 0.286967
vt 0.130688 0.299242
vt 0.178347 0.306557
vt 0.131210 0.285228
vt 0.104960 0.302033
vt 0.104864 0.286918
vt 0.106939 0.315700
vt 0.109793 0.327950
vt 0.091963 0.335576
vt 0.106505 0.271025
vt 0.132548 0.270013
vt 0.081005 0.274480
vt 0.157553 0.272249
vt 0.160009 0.256819
vt 0.179933 0.349168
vt 0.179481 0.382405
vt 0.199975 0.367508
vt 0.155711 0.389901
vt 0.193912 0.405811
vt 0.193912 0.405811
vt 0.219403 0.383589
vt 0.219403 0.383589
vt 0.163990 0.418605
vt 0.163990 0.418605
vt 0.195530 0.410559
vt 0.224321 0.387151
vt 0.164137 0.423116
vt 0.134210 0.427014
vt 0.099076 0.423160
vt 0.134091 0.422554
vt 0.134091 0.422554
vt 0.133436 0.392569
vt 0.099391 0.418005
vt 0.099391 0.418005
vt 0.105291 0.390892
vt 0.071232 0.407180
vt 0.071232 0.407180
vt 0.082594 0.384993
vt 0.049775 0.391485
vt 0.049775 0.391485
vt 0.069586 0.411777
vt 0.046678 0.395917
vt 0.027717 0.370927
vt 0.032595 0.369013
vt 0.032595 0.369013
vt 0.018976 0.331648
vt 0.024258 0.331766
vt 0.024258 0.331766
vt 0.024606 0.297897
vt 0.028920 0.300350
vt 0.028920 0.300350
vt 0.039993 0.264764
vt 0.063361 0.233958
vt 0.043951 0.269234
vt 0.043951 0.269234
vt 0.048057 0.270298
vt 0.068355 0.241831
vt 0.068355 0.241831
vt 0.070656 0.244434
vt 0.100929 0.223081
vt 0.100929 0.223081
vt 0.101971 0.226110
vt 0.140001 0.216900
vt 0.140001 0.216900
vt 0.096201 0.209776
vt 0.140047 0.200230
vt 0.178012 0.211391
vt 0.175595 0.225819
vt 0.175595 0.225819
vt 0.210226 0.236902
vt 0.204591 0.245866
vt 0.204591 0.245866
vt 0.230099 0.265227
vt 0.224636 0.269100
vt 0.224636 0.269100
vt 0.244504 0.301451
vt 0.238746 0.301322
vt 0.238746 0.301322
vt 0.247703 0.330880
vt 0.241642 0.329488
vt 0.241642 0.329488
vt 0.239944 0.362317
vt 0.234738 0.359569
vt 0.234738 0.359569
vt 0.215327 0.348657
vt 0.224404 0.323748
vt 0.225168 0.298652
vt 0.215863 0.271677
vt 0.206429 0.274472
vt 0.199156 0.248895
vt 0.173650 0.229877
vt 0.139647 0.220711
vt 0.103123 0.229400
vt 0.035628 0.299143
vt 0.033569 0.328201
vt 0.044657 0.357790
vt 0.043869 0.324388
vt 0.062461 0.374969
vt 0.111255 0.361085
vn -0.477105 -0.696321 0.536197
vn -0.382713 -0.711969 0.588754
vn -0.460434 -0.681800 0.568461
vn -0.483904 -0.727946 0.485729
vn -0.878612 -0.475032 0.048834
vn -0.905858 -0.134935 -0.401514
vn -0.755218 -0.649758 0.086370
vn -0.937554 -0.333848 0.097661
vn -0.980372 0.017198 -0.196406
vn -0.926533 -0.295497 0.232850
vn -0.993297 0.108372 0.040200
vn -0.873046 -0.308185 0.377906
vn -0.466557 -0.774003 0.428070
vn -0.382818 -0.810486 0.443354
vn -0.453030 -0.810338 0.371640
vn -0.370262 -0.852346 0.369341
vn -0.422060 -0.841712 0.336729
vn -0.353749 -0.883261 0.307752
vn -0.319107 -0.886835 0.334208
vn -0.766100 -0.329273 0.551970
vn -0.818945 0.124443 0.560217
vn -0.524553 -0.452348 0.721266
vn -0.555776 0.048112 0.829939
vn -0.208663 -0.582387 0.785675
vn -0.171246 -0.068945 0.982813
vn 0.130142 -0.672831 0.728260
vn -0.175461 -0.927771 0.329324
vn -0.153530 -0.939704 0.305588
vn -0.018951 -0.950956 0.308746
vn -0.018558 -0.958062 0.285959
vn 0.138329 -0.950656 0.277702
vn 0.086720 -0.962272 0.257901
vn 0.244166 -0.922131 0.300095
vn 0.425594 -0.708712 0.562669
vn 0.606254 -0.287117 0.741634
vn 0.612961 -0.653171 0.444575
vn 0.810794 -0.280075 0.513975
vn 0.745982 -0.570501 0.343569
vn 0.917545 -0.268545 0.293250
vn 0.795548 -0.556841 0.238814
vn 0.308843 -0.878886 0.363560
vn 0.210006 -0.898897 0.384553
vn 0.353025 -0.821994 0.446876
vn 0.254660 -0.839898 0.479291
vn 0.363490 -0.762046 0.535873
vn 0.274946 -0.764558 0.582971
vn 0.357248 -0.711886 0.604643
vn 0.739550 -0.641274 0.204531
vn 0.880808 -0.426612 -0.205378
vn 0.632078 -0.747660 0.203670
vn 0.729472 -0.548150 -0.409148
vn 0.503937 -0.831353 0.234307
vn 0.528038 -0.638103 -0.560357
vn 0.268506 -0.929630 0.252374
vn 0.314577 -0.694023 0.647590
vn 0.249164 -0.658591 0.710053
vn 0.148979 -0.710905 0.687328
vn 0.113326 -0.669962 0.733695
vn -0.058216 -0.717608 0.694010
vn -0.063057 -0.674384 0.735684
vn -0.283073 -0.697969 0.657806
vn -0.033930 -0.967412 0.250924
vn 0.020224 -0.696919 -0.716864
vn -0.403262 -0.888651 0.218355
vn -0.291932 -0.617980 -0.729984
vn -0.604847 -0.783876 0.140352
vn -0.541335 -0.485872 -0.686210
vn -0.421673 -0.687776 0.590895
vn -0.354316 -0.649466 0.672796
vn -0.251144 -0.661362 0.706772
vn -0.370901 -0.675364 0.637429
vn -0.261291 -0.703949 0.660441
vn -0.067119 -0.723517 0.687036
vn -0.286641 -0.744910 0.602450
vn -0.078508 -0.776923 0.624681
vn -0.298219 -0.789843 0.535923
vn -0.295325 -0.835615 0.463175
vn -0.088736 -0.829027 0.552123
vn -0.388051 -0.759131 0.522624
vn -0.102409 -0.874479 0.474129
vn 0.121655 -0.839987 0.528793
vn 0.087698 -0.890575 0.446301
vn 0.134989 -0.778867 0.612490
vn 0.124828 -0.720611 0.682010
vn 0.271776 -0.703352 0.656836
vn 0.037265 -0.928440 0.369608
vn -0.122491 -0.911920 0.391661
vn 0.152307 -0.938263 0.310590
vn -0.283722 -0.876630 0.388615
vn -0.280709 -0.909317 0.307155
vn -0.755713 -0.321434 -0.570594
vn -0.540804 -0.363037 -0.758773
vn -0.762934 -0.204640 -0.613232
vn -0.270105 -0.489650 -0.829027
vn -0.453252 -0.872976 0.180209
vn -0.543982 -0.294616 -0.785675
vn -0.544677 -0.826772 0.140624
vn -0.767720 -0.148983 -0.623226
vn -0.257255 -0.407481 -0.876230
vn -0.303421 -0.927733 0.217363
vn -0.441557 -0.877750 0.185961
vn -0.549984 -0.823556 0.138831
vn -0.288187 -0.932754 0.216605
vn -0.117894 -0.973877 0.194072
vn 0.028959 -0.980532 0.194214
vn 0.039801 -0.462293 -0.885833
vn -0.117402 -0.973962 0.193944
vn 0.037812 -0.564414 -0.824626
vn 0.271506 -0.480379 -0.833979
vn 0.040392 -0.979665 0.196534
vn 0.279483 -0.572172 -0.771044
vn 0.519988 -0.477153 -0.708475
vn 0.186599 -0.962261 0.198076
vn 0.532140 -0.537592 -0.654080
vn 0.725950 -0.449098 -0.520872
vn 0.293743 -0.944212 0.148925
vn 0.180065 -0.963222 0.199447
vn 0.289283 -0.945022 0.152474
vn 0.327345 -0.938075 0.113403
vn 0.873441 -0.400201 -0.277383
vn 0.327157 -0.938089 0.113831
vn 0.309401 -0.945738 0.099252
vn 0.936388 -0.350612 -0.015782
vn 0.310397 -0.945361 0.099734
vn 0.258297 -0.962844 0.078835
vn 0.916066 -0.321760 0.239362
vn 0.263957 -0.961147 0.080771
vn 0.204624 -0.973203 0.104904
vn 0.118066 -0.951756 0.283234
vn 0.842753 -0.245014 0.479307
vn 0.211167 -0.972501 0.098240
vn 0.842368 -0.188908 0.504707
vn 0.637096 -0.134312 0.758992
vn 0.126054 -0.955751 0.265800
vn 0.639973 -0.106822 0.760936
vn 0.269285 0.020538 0.962842
vn -0.057314 -0.871926 0.486271
vn 0.275759 0.033407 0.960646
vn -0.147862 0.130761 0.980326
vn -0.251910 -0.791384 0.557003
vn -0.062131 -0.869300 0.490364
vn -0.247152 -0.792606 0.557398
vn -0.418362 -0.766311 0.487586
vn -0.446984 -0.767913 0.458819
vn -0.543683 0.177850 0.820231
vn -0.562262 -0.775684 0.286663
vn -0.570231 -0.778399 0.262549
vn -0.831997 0.188765 0.521680
vn -0.628808 -0.773760 0.076794
vn -0.630464 -0.772736 0.073437
vn -0.958194 0.178077 0.223947
vn -0.667850 -0.744071 0.018294
vn -0.663667 -0.747744 0.020600
vn -0.990269 0.137185 -0.023393
vn -0.659539 -0.750330 0.044874
vn -0.662725 -0.747787 0.040126
vn -0.969237 0.071780 -0.235429
vn -0.615136 -0.782316 0.097927
vn -0.616817 -0.781206 0.096198
vn -0.906636 -0.016865 -0.421576
vn -0.907533 -0.047710 -0.417262
vn -0.973892 0.066973 -0.216908
vn -0.988876 0.148392 0.010164
vn -0.949125 0.191745 0.249791
vn -0.951160 0.137675 0.276296
vn -0.811857 0.207438 0.545764
vn -0.535741 0.192340 0.822184
vn -0.148476 0.141281 0.978772
vn 0.252174 -0.192700 0.948301
vn 0.928873 -0.256050 0.267644
vn 0.948324 -0.317163 0.009418
vn 0.887730 -0.393129 -0.239550
vn 0.949811 -0.310783 0.035689
vn 0.737560 -0.477408 -0.477585
vn 0.271450 -0.697293 -0.663398
f 2/2/2 79/79/79 4/4/4
f 1/1/1 2/2/2 4/4/4
f 1/1/1 3/3/3 71/71/71
f 2/2/2 1/1/1 71/71/71
f 7/7/7 3/3/3 1/1/1
f 5/5/5 7/7/7 1/1/1
f 8/8/8 5/5/5 1/1/1
f 4/4/4 8/8/8 1/1/1
f 9/9/9 6/6/6 5/5/5
f 8/8/8 9/9/9 5/5/5
f 91/91/91 7/7/7 5/5/5
f 6/6/6 91/91/91 5/5/5
f 9/9/9 8/8/8 10/10/10
f 11/11/11 9/9/9 10/10/10
f 8/8/8 4/4/4 13/13/13
f 10/10/10 8/8/8 13/13/13
f 10/10/10 12/12/12 165/165/165
f 11/11/11 10/10/10 165/165/165
f 13/13/13 15/15/15 12/12/12
f 10/10/10 13/13/13 12/12/12
f 79/79/79 14/14/14 13/13/13
f 4/4/4 79/79/79 13/13/13
f 14/14/14 16/16/16 15/15/15
f 13/13/13 14/14/14 15/15/15
f 16/16/16 18/18/18 17/17/17
f 15/15/15 16/16/16 17/17/17
f 15/15/15 17/17/17 20/20/20
f 12/12/12 15/15/15 20/20/20
f 18/18/18 90/90/90 19/19/19
f 17/17/17 18/18/18 19/19/19
f 22/22/22 20/20/20 17/17/17
f 19/19/19 22/22/22 17/17/17
f 12/12/12 20/20/20 21/21/21
f 165/165/165 12/12/12 21/21/21
f 23/23/23 21/21/21 20/20/20
f 22/22/22 23/23/23 20/20/20
f 22/22/22 24/24/24 25/25/25
f 23/23/23 22/22/22 25/25/25
f 19/19/19 27/27/27 24/24/24
f 22/22/22 19/19/19 24/24/24
f 169/169/169 25/25/25 24/24/24
f 26/26/26 169/169/169 24/24/24
f 26/26/26 24/24/24 27/27/27
f 29/29/29 26/26/26 27/27/27
f 90/90/90 28/28/28 27/27/27
f 19/19/19 90/90/90 27/27/27
f 29/29/29 27/27/27 28/28/28
f 30/30/30 29/29/29 28/28/28
f 31/31/31 29/29/29 30/30/30
f 32/32/32 31/31/31 30/30/30
f 34/34/34 26/26/26 29/29/29
f 31/31/31 34/34/34 29/29/29
f 33/33/33 31/31/31 32/32/32
f 88/88/88 33/33/33 32/32/32
f 36/36/36 34/34/34 31/31/31
f 33/33/33 36/36/36 31/31/31
f 35/35/35 169/169/169 26/26/26
f 34/34/34 35/35/35 26/26/26
f 37/37/37 35/35/35 34/34/34
f 36/36/36 37/37/37 34/34/34
f 39/39/39 37/37/37 36/36/36
f 38/38/38 39/39/39 36/36/36
f 38/38/38 36/36/36 33/33/33
f 41/41/41 38/38/38 33/33/33
f 38/38/38 40/40/40 173/173/173
f 39/39/39 38/38/38 173/173/173
f 41/41/41 43/43/43 40/40/40
f 38/38/38 41/41/41 40/40/40
f 43/43/43 41/41/41 42/42/42
f 44/44/44 43/43/43 42/42/42
f 41/41/41 33/33/33 88/88/88
f 42/42/42 41/41/41 88/88/88
f 45/45/45 43/43/43 44/44/44
f 46/46/46 45/45/45 44/44/44
f 43/43/43 45/45/45 48/48/48
f 40/40/40 43/43/43 48/48/48
f 46/46/46 85/85/85 47/47/47
f 45/45/45 46/46/46 47/47/47
f 45/45/45 47/47/47 50/50/50
f 48/48/48 45/45/45 50/50/50
f 40/40/40 48/48/48 49/49/49
f 173/173/173 40/40/40 49/49/49
f 48/48/48 50/50/50 51/51/51
f 49/49/49 48/48/48 51/51/51
f 50/50/50 52/52/52 53/53/53
f 51/51/51 50/50/50 53/53/53
f 47/47/47 55/55/55 52/52/52
f 50/50/50 47/47/47 52/52/52
f 52/52/52 54/54/54 175/175/175
f 53/53/53 52/52/52 175/175/175
f 55/55/55 57/57/57 54/54/54
f 52/52/52 55/55/55 54/54/54
f 85/85/85 56/56/56 55/55/55
f 47/47/47 85/85/85 55/55/55
f 56/56/56 58/58/58 57/57/57
f 55/55/55 56/56/56 57/57/57
f 58/58/58 60/60/60 59/59/59
f 57/57/57 58/58/58 59/59/59
f 57/57/57 59/59/59 62/62/62
f 54/54/54 57/57/57 62/62/62
f 70/70/70 61/61/61 59/59/59
f 60/60/60 70/70/70 59/59/59
f 62/62/62 59/59/59 61/61/61
f 64/64/64 62/62/62 61/61/61
f 54/54/54 62/62/62 63/63/63
f 175/175/175 54/54/54 63/63/63
f 63/63/63 62/62/62 64/64/64
f 65/65/65 63/63/63 64/64/64
f 65/65/65 64/64/64 66/66/66
f 67/67/67 65/65/65 66/66/66
f 64/64/64 61/61/61 68/68/68
f 66/66/66 64/64/64 68/68/68
f 67/67/67 66/66/66 7/7/7
f 91/91/91 67/67/67 7/7/7
f 66/66/66 68/68/68 3/3/3
f 7/7/7 66/66/66 3/3/3
f 71/71/71 3/3/3 68/68/68
f 69/69/69 71/71/71 68/68/68
f 68/68/68 61/61/61 70/70/70
f 69/69/69 68/68/68 70/70/70
f 72/72/72 71/71/71 69/69/69
f 70/70/70 72/72/72 69/69/69
f 74/74/74 2/2/2 71/71/71
f 72/72/72 74/74/74 71/71/71
f 75/75/75 74/74/74 72/72/72
f 73/73/73 75/75/75 72/72/72
f 72/72/72 70/70/70 60/60/60
f 73/73/73 72/72/72 60/60/60
f 78/78/78 76/76/76 74/74/74
f 75/75/75 78/78/78 74/74/74
f 2/2/2 74/74/74 76/76/76
f 79/79/79 2/2/2 76/76/76
f 77/77/77 14/14/14 79/79/79
f 76/76/76 77/77/77 79/79/79
f 77/77/77 76/76/76 78/78/78
f 80/80/80 77/77/77 78/78/78
f 81/81/81 82/82/82 80/80/80
f 78/78/78 81/81/81 80/80/80
f 83/83/83 81/81/81 78/78/78
f 75/75/75 83/83/83 78/78/78
f 42/42/42 82/82/82 81/81/81
f 44/44/44 42/42/42 81/81/81
f 83/83/83 46/46/46 44/44/44
f 81/81/81 83/83/83 44/44/44
f 46/46/46 83/83/83 84/84/84
f 85/85/85 46/46/46 84/84/84
f 84/84/84 83/83/83 75/75/75
f 73/73/73 84/84/84 75/75/75
f 85/85/85 84/84/84 58/58/58
f 56/56/56 85/85/85 58/58/58
f 58/58/58 84/84/84 73/73/73
f 60/60/60 58/58/58 73/73/73
f 82/82/82 86/86/86 87/87/87
f 80/80/80 82/82/82 87/87/87
f 88/88/88 86/86/86 82/82/82
f 42/42/42 88/88/88 82/82/82
f 86/86/86 30/30/30 28/28/28
f 87/87/87 86/86/86 28/28/28
f 86/86/86 88/88/88 32/32/32
f 30/30/30 86/86/86 32/32/32
f 87/87/87 89/89/89 77/77/77
f 80/80/80 87/87/87 77/77/77
f 28/28/28 90/90/90 89/89/89
f 87/87/87 28/28/28 89/89/89
f 16/16/16 89/89/89 90/90/90
f 18/18/18 16/16/16 90/90/90
f 14/14/14 77/77/77 89/89/89
f 16/16/16 14/14/14 89/89/89
f 93/93/93 92/92/92 67/67/67
f 91/91/91 93/93/93 67/67/67
f 92/92/92 94/94/94 65/65/65
f 67/67/67 92/92/92 65/65/65
f 98/98/98 96/96/96 92/92/92
f 93/93/93 98/98/98 92/92/92
f 96/96/96 99/99/99 94/94/94
f 92/92/92 96/96/96 94/94/94
f 102/102/102 101/101/101 95/95/95
f 97/97/97 102/102/102 95/95/95
f 101/101/101 103/103/103 100/100/100
f 95/95/95 101/101/101 100/100/100
f 107/107/107 100/100/100 103/103/103
f 104/104/104 107/107/107 103/103/103
f 110/110/110 107/107/107 104/104/104
f 105/105/105 110/110/110 104/104/104
f 99/99/99 106/106/106 108/108/108
f 94/94/94 99/99/99 108/108/108
f 106/106/106 109/109/109 111/111/111
f 108/108/108 106/106/106 111/111/111
f 109/109/109 112/112/112 114/114/114
f 111/111/111 109/109/109 114/114/114
f 113/113/113 110/110/110 105/105/105
f 117/117/117 113/113/113 105/105/105
f 112/112/112 115/115/115 174/174/174
f 114/114/114 112/112/112 174/174/174
f 116/116/116 113/113/113 117/117/117
f 118/118/118 116/116/116 117/117/117
f 118/118/118 119/119/119 121/121/121
f 116/116/116 118/118/118 121/121/121
f 119/119/119 122/122/122 124/124/124
f 121/121/121 119/119/119 124/124/124
f 122/122/122 125/125/125 127/127/127
f 124/124/124 122/122/122 127/127/127
f 125/125/125 128/128/128 131/131/131
f 127/127/127 125/125/125 131/131/131
f 134/134/134 131/131/131 128/128/128
f 129/129/129 134/134/134 128/128/128
f 126/126/126 130/130/130 132/132/132
f 170/170/170 126/126/126 132/132/132
f 130/130/130 133/133/133 135/135/135
f 132/132/132 130/130/130 135/135/135
f 133/133/133 136/136/136 138/138/138
f 135/135/135 133/133/133 138/138/138
f 137/137/137 134/134/134 129/129/129
f 141/141/141 137/137/137 129/129/129
f 136/136/136 139/139/139 168/168/168
f 138/138/138 136/136/136 168/168/168
f 140/140/140 137/137/137 141/141/141
f 142/142/142 140/140/140 141/141/141
f 144/144/144 140/140/140 142/142/142
f 143/143/143 144/144/144 142/142/142
f 147/147/147 144/144/144 143/143/143
f 146/146/146 147/147/147 143/143/143
f 150/150/150 147/147/147 146/146/146
f 149/149/149 150/150/150 146/146/146
f 149/149/149 152/152/152 153/153/153
f 150/150/150 149/149/149 153/153/153
f 156/156/156 153/153/153 152/152/152
f 155/155/155 156/156/156 152/152/152
f 159/159/159 156/156/156 155/155/155
f 158/158/158 159/159/159 155/155/155
f 97/97/97 159/159/159 158/158/158
f 102/102/102 97/97/97 158/158/158
f 162/162/162 157/157/157 160/160/160
f 161/161/161 162/162/162 160/160/160
f 160/160/160 98/98/98 93/93/93
f 161/161/161 160/160/160 93/93/93
f 162/162/162 161/161/161 6/6/6
f 9/9/9 162/162/162 6/6/6
f 161/161/161 93/93/93 91/91/91
f 6/6/6 161/161/161 91/91/91
f 163/163/163 162/162/162 9/9/9
f 11/11/11 163/163/163 9/9/9
f 154/154/154 157/157/157 162/162/162
f 163/163/163 154/154/154 162/162/162
f 11/11/11 165/165/165 164/164/164
f 163/163/163 11/11/11 164/164/164
f 151/151/151 154/154/154 163/163/163
f 164/164/164 151/151/151 163/163/163
f 165/165/165 21/21/21 166/166/166
f 164/164/164 165/165/165 166/166/166
f 148/148/148 151/151/151 164/164/164
f 166/166/166 148/148/148 164/164/164
f 167/167/167 166/166/166 21/21/21
f 23/23/23 167/167/167 21/21/21
f 145/145/145 148/148/148 166/166/166
f 167/167/167 145/145/145 166/166/166
f 23/23/23 25/25/25 168/168/168
f 167/167/167 23/23/23 168/168/168
f 139/139/139 145/145/145 167/167/167
f 168/168/168 139/139/139 167/167/167
f 138/138/138 168/168/168 25/25/25
f 169/169/169 138/138/138 25/25/25
f 135/135/135 138/138/138 169/169/169
f 35/35/35 135/135/135 169/169/169
f 132/132/132 135/135/135 35/35/35
f 37/37/37 132/132/132 35/35/35
f 170/170/170 132/132/132 37/37/37
f 39/39/39 170/170/170 37/37/37
f 123/123/123 126/126/126 170/170/170
f 171/171/171 123/123/123 170/170/170
f 39/39/39 173/173/173 171/171/171
f 170/170/170 39/39/39 171/171/171
f 120/120/120 123/123/123 171/171/171
f 172/172/172 120/120/120 171/171/171
f 173/173/173 49/49/49 172/172/172
f 171/171/171 173/173/173 172/172/172
f 115/115/115 120/120/120 172/172/172
f 174/174/174 115/115/115 172/172/172
f 49/49/49 51/51/51 174/174/174
f 172/172/172 49/49/49 174/174/174
f 51/51/51 53/53/53 114/114/114
f 174/174/174 51/51/51 114/114/114
f 53/53/53 175/175/175 111/111/111
f 114/114/114 53/53/53 111/111/111
f 175/175/175 63/63/63 108/108/108
f 111/111/111 175/175/175 108/108/108
f 94/94/94 108/108/108 63/63/63
f 65/65/65 94/94/94 63/63/63
