# GloomhavenVR - meta-quest-touch-plus-v2 left 'button_secondary' (glTF material 0)
# generated by controllers_pipeline.py from webxr-input-profiles (MIT)
o quest3_left_button_secondary__m0
v 0.015907 0.001271 0.031241
v 0.016323 0.001010 0.031343
v 0.014934 0.000921 0.031843
v 0.016023 0.002044 0.030322
v 0.014706 0.001946 0.030862
v 0.015794 0.003037 0.029036
v 0.016726 0.001912 0.030137
v 0.017201 0.001788 0.030033
v 0.016578 0.002932 0.028726
v 0.017115 0.002835 0.028512
v 0.015859 0.003852 0.027398
v 0.014739 0.004488 0.026520
v 0.016325 0.003835 0.027077
v 0.015190 0.003879 0.027786
v 0.014506 0.004396 0.026938
v 0.013811 0.003985 0.028107
v 0.013330 0.004572 0.026899
v 0.014374 0.003073 0.029524
v 0.012070 0.003884 0.028432
v 0.011699 0.004516 0.027094
v 0.010378 0.003447 0.028794
v 0.012540 0.002872 0.029965
v 0.013017 0.001665 0.031347
v 0.010711 0.002444 0.030233
v 0.009256 0.001980 0.030353
v 0.011272 0.001349 0.031521
v 0.009874 0.001016 0.031542
v 0.011766 0.000370 0.032452
v 0.010566 0.000349 0.032282
v 0.011840 -0.000204 0.032893
v 0.013400 0.000563 0.032336
v 0.013606 -0.000077 0.032826
v 0.013743 -0.000513 0.033145
v 0.015225 0.000373 0.032254
v 0.015453 0.000011 0.032508
v 0.016646 0.000808 0.031421
v 0.015587 -0.000443 0.032462
v 0.013808 -0.000961 0.033086
v 0.016891 0.000375 0.031319
v 0.015739 -0.003087 0.030584
v 0.013908 -0.003638 0.031211
v 0.017102 -0.002156 0.029423
v 0.017800 -0.000989 0.027957
v 0.017703 0.000281 0.026333
v 0.017567 0.001437 0.029869
v 0.017479 0.002620 0.028196
v 0.016580 0.003707 0.026714
v 0.015120 0.004448 0.025677
v 0.016769 0.001442 0.024815
v 0.015263 0.002212 0.023764
v 0.013401 0.002568 0.023245
v 0.011356 0.002430 0.023337
v 0.013334 0.004870 0.025247
v 0.011326 0.004800 0.025367
v 0.013259 0.004971 0.025725
v 0.013264 0.004816 0.026203
v 0.014926 0.004561 0.026186
v 0.011383 0.004971 0.025830
v 0.011508 0.004794 0.026340
v 0.009694 0.004494 0.026500
v 0.008567 0.003694 0.027566
v 0.009894 0.004358 0.026906
v 0.009602 0.004304 0.026085
v 0.008345 0.003403 0.027235
v 0.009526 0.001808 0.024068
v 0.008265 0.000871 0.025225
v 0.007654 -0.000256 0.026651
v 0.007773 -0.001506 0.028259
v 0.007738 0.002308 0.028598
v 0.007850 0.001099 0.030163
v 0.007997 0.002644 0.028925
v 0.008391 0.002752 0.028977
v 0.008086 0.001502 0.030381
v 0.008535 0.001688 0.030370
v 0.008870 0.000488 0.031697
v 0.010184 -0.000259 0.032675
v 0.009247 0.000700 0.031629
v 0.008676 0.000093 0.031548
v 0.010090 -0.000679 0.032572
v 0.008670 -0.002573 0.029658
v 0.010088 -0.003318 0.030710
v 0.011876 -0.003697 0.031249
v 0.011820 -0.001025 0.033115
v 0.011853 -0.000580 0.033170
v 0.010344 0.000001 0.032510
v 0.009045 0.002948 0.029025
v 0.008812 0.003663 0.027763
v 0.009171 0.003625 0.028029
v 0.010161 0.004120 0.027540
vt 0.537171 0.050342
vt 0.537073 0.047666
vt 0.543168 0.052689
vt 0.531305 0.053386
vt 0.537448 0.057952
vt 0.524489 0.059308
vt 0.528907 0.050249
vt 0.527474 0.047974
vt 0.521175 0.056141
vt 0.518966 0.053872
vt 0.515833 0.064496
vt 0.514330 0.073135
vt 0.513185 0.063062
vt 0.519381 0.066689
vt 0.516974 0.072929
vt 0.524653 0.072304
vt 0.520173 0.078632
vt 0.530533 0.064678
vt 0.531570 0.078967
vt 0.526295 0.085191
vt 0.539346 0.084719
vt 0.538259 0.071347
vt 0.545027 0.063759
vt 0.546073 0.077962
vt 0.552402 0.083316
vt 0.551893 0.070412
vt 0.557324 0.075930
vt 0.556450 0.064176
vt 0.559660 0.069841
vt 0.559464 0.061676
vt 0.550503 0.057627
vt 0.553471 0.054291
vt 0.555440 0.052070
vt 0.545352 0.049350
vt 0.546628 0.047045
vt 0.537006 0.045589
vt 0.547687 0.044812
vt 0.557047 0.050273
vt 0.537120 0.042873
vt 0.553465 0.028554
vt 0.568582 0.037367
vt 0.536118 0.026465
vt 0.519552 0.030884
vt 0.505570 0.041642
vt 0.526460 0.045298
vt 0.516775 0.052044
vt 0.510885 0.062374
vt 0.509230 0.073581
vt 0.496381 0.057435
vt 0.494309 0.074520
vt 0.498636 0.091074
vt 0.509549 0.105376
vt 0.512533 0.084025
vt 0.519897 0.092943
vt 0.514963 0.082919
vt 0.517137 0.081270
vt 0.512217 0.073301
vt 0.521614 0.090911
vt 0.523476 0.088600
vt 0.530745 0.095556
vt 0.540135 0.096359
vt 0.531858 0.093339
vt 0.529789 0.097755
vt 0.540613 0.098865
vt 0.525505 0.114242
vt 0.542722 0.115900
vt 0.558888 0.110973
vt 0.572803 0.099637
vt 0.550838 0.096317
vt 0.559951 0.089586
vt 0.549612 0.093723
vt 0.548229 0.091982
vt 0.557702 0.087759
vt 0.555645 0.086043
vt 0.562658 0.079081
vt 0.564026 0.069445
vt 0.560576 0.077942
vt 0.565006 0.079986
vt 0.566331 0.069262
vt 0.581294 0.084589
vt 0.583115 0.067875
vt 0.579016 0.051740
vt 0.563627 0.059215
vt 0.561493 0.060219
vt 0.562183 0.069623
vt 0.545755 0.089225
vt 0.540138 0.094696
vt 0.540033 0.092328
vt 0.533852 0.090049
vn 0.203223 0.687682 0.696989
vn 0.347619 0.590395 0.728419
vn 0.115430 0.678499 0.725475
vn 0.185242 0.751963 0.632643
vn 0.075466 0.753500 0.653102
vn 0.162941 0.811015 0.561877
vn 0.346721 0.709113 0.613958
vn 0.653953 0.537829 0.532057
vn 0.314867 0.802759 0.506395
vn 0.614877 0.711586 0.339959
vn 0.273832 0.879580 0.389044
vn 0.195669 0.945676 0.259637
vn 0.524082 0.841450 0.131532
vn 0.137829 0.862744 0.486493
vn 0.109931 0.905751 0.409304
vn 0.034357 0.849547 0.526393
vn 0.019437 0.902901 0.429409
vn 0.054761 0.804248 0.591765
vn -0.045219 0.838132 0.543590
vn -0.072634 0.890995 0.448166
vn -0.124597 0.821397 0.556582
vn -0.024718 0.792823 0.608950
vn -0.004116 0.742151 0.670221
vn -0.104099 0.776101 0.621956
vn -0.211469 0.744695 0.633017
vn -0.083494 0.725351 0.683297
vn -0.186201 0.686225 0.703153
vn -0.067799 0.646004 0.760317
vn -0.157669 0.623747 0.765559
vn -0.077892 0.509024 0.857220
vn 0.024117 0.664713 0.746710
vn 0.064173 0.538631 0.840094
vn 0.145124 0.216362 0.965467
vn 0.204202 0.559036 0.803605
vn 0.390003 0.259652 0.883447
vn 0.597772 0.346157 0.723080
vn 0.602289 -0.399608 0.691058
vn 0.246802 -0.509393 0.824383
vn 0.855986 -0.222889 0.466486
vn 0.607249 -0.472000 0.639112
vn 0.250122 -0.584884 0.771589
vn 0.861282 -0.292303 0.415634
vn 0.988922 -0.069774 0.131018
vn 0.967881 0.171437 -0.183891
vn 0.982829 0.001382 0.184513
vn 0.961504 0.243667 -0.127034
vn 0.789072 0.454475 -0.413302
vn 0.503576 0.601148 -0.620511
vn 0.794169 0.385601 -0.469689
vn 0.507486 0.534754 -0.675644
vn 0.146312 0.605467 -0.782306
vn -0.250217 0.584867 -0.771571
vn 0.143152 0.673693 -0.725014
vn -0.248496 0.655798 -0.712867
vn 0.076100 0.993498 -0.084678
vn 0.031963 0.961665 0.272359
vn 0.345141 0.936863 -0.056268
vn -0.182448 0.982193 -0.044837
vn -0.110563 0.947125 0.301216
vn -0.426334 0.904503 0.010664
vn -0.632485 0.763685 0.129413
vn -0.250124 0.911680 0.326002
vn -0.606680 0.540911 -0.582542
vn -0.860191 0.359626 -0.361581
vn -0.607178 0.471955 -0.639213
vn -0.861282 0.292303 -0.415634
vn -0.988922 0.069774 -0.131018
vn -0.967881 -0.171437 0.183891
vn -0.987254 0.139916 -0.075855
vn -0.966069 -0.097740 0.239077
vn -0.690332 0.626311 0.362183
vn -0.392630 0.761517 0.515687
vn -0.652386 0.486928 0.580770
vn -0.361263 0.683032 0.634788
vn -0.560451 0.322700 0.762732
vn -0.379758 0.172945 0.908776
vn -0.319640 0.591064 0.740590
vn -0.793439 -0.313230 0.521864
vn -0.507770 -0.464440 0.725579
vn -0.794169 -0.385601 0.469689
vn -0.507486 -0.534754 0.675644
vn -0.146330 -0.605379 0.782371
vn -0.147551 -0.532478 0.833484
vn -0.112442 0.170585 0.978906
vn -0.240345 0.486161 0.840168
vn -0.233581 0.796939 0.557072
vn -0.392304 0.841508 0.371431
vn -0.250956 0.841827 0.477858
vn -0.163789 0.870426 0.464254
f 4/4/4 1/1/1 2/2/2
f 7/7/7 4/4/4 2/2/2
f 34/34/34 2/2/2 1/1/1
f 3/3/3 34/34/34 1/1/1
f 1/1/1 4/4/4 5/5/5
f 3/3/3 1/1/1 5/5/5
f 18/18/18 5/5/5 4/4/4
f 6/6/6 18/18/18 4/4/4
f 9/9/9 6/6/6 4/4/4
f 7/7/7 9/9/9 4/4/4
f 8/8/8 7/7/7 2/2/2
f 36/36/36 8/8/8 2/2/2
f 8/8/8 10/10/10 9/9/9
f 7/7/7 8/8/8 9/9/9
f 6/6/6 9/9/9 11/11/11
f 14/14/14 6/6/6 11/11/11
f 11/11/11 9/9/9 10/10/10
f 13/13/13 11/11/11 10/10/10
f 13/13/13 57/57/57 12/12/12
f 11/11/11 13/13/13 12/12/12
f 12/12/12 15/15/15 14/14/14
f 11/11/11 12/12/12 14/14/14
f 15/15/15 17/17/17 16/16/16
f 14/14/14 15/15/15 16/16/16
f 6/6/6 14/14/14 16/16/16
f 18/18/18 6/6/6 16/16/16
f 19/19/19 16/16/16 17/17/17
f 20/20/20 19/19/19 17/17/17
f 22/22/22 18/18/18 16/16/16
f 19/19/19 22/22/22 16/16/16
f 20/20/20 89/89/89 21/21/21
f 19/19/19 20/20/20 21/21/21
f 22/22/22 19/19/19 21/21/21
f 24/24/24 22/22/22 21/21/21
f 22/22/22 23/23/23 5/5/5
f 18/18/18 22/22/22 5/5/5
f 22/22/22 24/24/24 26/26/26
f 23/23/23 22/22/22 26/26/26
f 24/24/24 21/21/21 86/86/86
f 25/25/25 24/24/24 86/86/86
f 25/25/25 27/27/27 26/26/26
f 24/24/24 25/25/25 26/26/26
f 29/29/29 28/28/28 26/26/26
f 27/27/27 29/29/29 26/26/26
f 23/23/23 26/26/26 28/28/28
f 31/31/31 23/23/23 28/28/28
f 28/28/28 29/29/29 85/85/85
f 30/30/30 28/28/28 85/85/85
f 30/30/30 32/32/32 31/31/31
f 28/28/28 30/30/30 31/31/31
f 31/31/31 32/32/32 34/34/34
f 3/3/3 31/31/31 34/34/34
f 31/31/31 3/3/3 5/5/5
f 23/23/23 31/31/31 5/5/5
f 34/34/34 32/32/32 33/33/33
f 35/35/35 34/34/34 33/33/33
f 84/84/84 33/33/33 32/32/32
f 30/30/30 84/84/84 32/32/32
f 35/35/35 36/36/36 2/2/2
f 34/34/34 35/35/35 2/2/2
f 36/36/36 35/35/35 37/37/37
f 39/39/39 36/36/36 37/37/37
f 35/35/35 33/33/33 38/38/38
f 37/37/37 35/35/35 38/38/38
f 40/40/40 37/37/37 38/38/38
f 41/41/41 40/40/40 38/38/38
f 42/42/42 39/39/39 37/37/37
f 40/40/40 42/42/42 37/37/37
f 43/43/43 45/45/45 39/39/39
f 42/42/42 43/43/43 39/39/39
f 44/44/44 46/46/46 45/45/45
f 43/43/43 44/44/44 45/45/45
f 46/46/46 10/10/10 8/8/8
f 45/45/45 46/46/46 8/8/8
f 45/45/45 8/8/8 36/36/36
f 39/39/39 45/45/45 36/36/36
f 13/13/13 10/10/10 46/46/46
f 47/47/47 13/13/13 46/46/46
f 49/49/49 47/47/47 46/46/46
f 44/44/44 49/49/49 46/46/46
f 57/57/57 13/13/13 47/47/47
f 48/48/48 57/57/57 47/47/47
f 50/50/50 48/48/48 47/47/47
f 49/49/49 50/50/50 47/47/47
f 51/51/51 53/53/53 48/48/48
f 50/50/50 51/51/51 48/48/48
f 52/52/52 54/54/54 53/53/53
f 51/51/51 52/52/52 53/53/53
f 54/54/54 58/58/58 55/55/55
f 53/53/53 54/54/54 55/55/55
f 53/53/53 55/55/55 57/57/57
f 48/48/48 53/53/53 57/57/57
f 55/55/55 58/58/58 59/59/59
f 56/56/56 55/55/55 59/59/59
f 55/55/55 56/56/56 12/12/12
f 57/57/57 55/55/55 12/12/12
f 62/62/62 59/59/59 58/58/58
f 60/60/60 62/62/62 58/58/58
f 60/60/60 58/58/58 54/54/54
f 63/63/63 60/60/60 54/54/54
f 61/61/61 60/60/60 63/63/63
f 64/64/64 61/61/61 63/63/63
f 60/60/60 61/61/61 87/87/87
f 62/62/62 60/60/60 87/87/87
f 65/65/65 63/63/63 54/54/54
f 52/52/52 65/65/65 54/54/54
f 66/66/66 64/64/64 63/63/63
f 65/65/65 66/66/66 63/63/63
f 67/67/67 69/69/69 64/64/64
f 66/66/66 67/67/67 64/64/64
f 68/68/68 70/70/70 69/69/69
f 67/67/67 68/68/68 69/69/69
f 70/70/70 73/73/73 71/71/71
f 69/69/69 70/70/70 71/71/71
f 69/69/69 71/71/71 61/61/61
f 64/64/64 69/69/69 61/61/61
f 71/71/71 73/73/73 74/74/74
f 72/72/72 71/71/71 74/74/74
f 71/71/71 72/72/72 87/87/87
f 61/61/61 71/71/71 87/87/87
f 77/77/77 74/74/74 73/73/73
f 75/75/75 77/77/77 73/73/73
f 75/75/75 73/73/73 70/70/70
f 78/78/78 75/75/75 70/70/70
f 76/76/76 75/75/75 78/78/78
f 79/79/79 76/76/76 78/78/78
f 75/75/75 76/76/76 85/85/85
f 77/77/77 75/75/75 85/85/85
f 80/80/80 78/78/78 70/70/70
f 68/68/68 80/80/80 70/70/70
f 81/81/81 79/79/79 78/78/78
f 80/80/80 81/81/81 78/78/78
f 82/82/82 83/83/83 79/79/79
f 81/81/81 82/82/82 79/79/79
f 41/41/41 38/38/38 83/83/83
f 82/82/82 41/41/41 83/83/83
f 38/38/38 33/33/33 84/84/84
f 83/83/83 38/38/38 84/84/84
f 83/83/83 84/84/84 76/76/76
f 79/79/79 83/83/83 76/76/76
f 84/84/84 30/30/30 85/85/85
f 76/76/76 84/84/84 85/85/85
f 85/85/85 29/29/29 27/27/27
f 77/77/77 85/85/85 27/27/27
f 25/25/25 74/74/74 77/77/77
f 27/27/27 25/25/25 77/77/77
f 74/74/74 25/25/25 86/86/86
f 72/72/72 74/74/74 86/86/86
f 86/86/86 88/88/88 87/87/87
f 72/72/72 86/86/86 87/87/87
f 87/87/87 88/88/88 89/89/89
f 62/62/62 87/87/87 89/89/89
f 88/88/88 86/86/86 21/21/21
f 89/89/89 88/88/88 21/21/21
f 20/20/20 59/59/59 62/62/62
f 89/89/89 20/20/20 62/62/62
f 59/59/59 20/20/20 17/17/17
f 56/56/56 59/59/59 17/17/17
f 17/17/17 15/15/15 12/12/12
f 56/56/56 17/17/17 12/12/12
