# GloomhavenVR - meta-quest-touch-plus-v2 right 'button_secondary' (glTF material 0)
# generated by controllers_pipeline.py from webxr-input-profiles (MIT)
o quest3_right_button_secondary__m0
v -0.015943 0.001271 0.031170
v -0.016359 0.001010 0.031270
v -0.014972 0.000921 0.031776
v -0.016055 0.002043 0.030250
v -0.014740 0.001946 0.030796
v -0.015820 0.003037 0.028966
v -0.016757 0.001912 0.030062
v -0.017232 0.001788 0.029957
v -0.016603 0.002932 0.028652
v -0.017139 0.002835 0.028435
v -0.015878 0.003852 0.027327
v -0.014755 0.004488 0.026454
v -0.015211 0.003879 0.027718
v -0.016343 0.003835 0.027004
v -0.014941 0.004561 0.026119
v -0.016596 0.003706 0.026640
v -0.017502 0.002619 0.028119
v -0.015133 0.004448 0.025609
v -0.016777 0.001442 0.024740
v -0.015268 0.002212 0.023696
v -0.017718 0.000281 0.026254
v -0.017821 -0.000989 0.027878
v -0.017597 0.001437 0.029791
v -0.017130 -0.002157 0.029347
v -0.016927 0.000375 0.031243
v -0.015772 -0.003087 0.030514
v -0.015628 -0.000443 0.032392
v -0.013944 -0.003639 0.031149
v -0.013851 -0.000961 0.033023
v -0.011912 -0.003697 0.031194
v -0.011863 -0.001025 0.033061
v -0.010122 -0.003318 0.030663
v -0.010132 -0.000679 0.032525
v -0.008699 -0.002573 0.029617
v -0.008713 0.000093 0.031507
v -0.007797 -0.001506 0.028222
v -0.007881 0.001099 0.030125
v -0.007671 -0.000257 0.026614
v -0.007763 0.002308 0.028561
v -0.008276 0.000871 0.025186
v -0.008364 0.003403 0.027196
v -0.009532 0.001808 0.024024
v -0.009617 0.004304 0.026040
v -0.011359 0.002430 0.023284
v -0.011337 0.004800 0.025315
v -0.013403 0.002568 0.023185
v -0.013345 0.004870 0.025186
v -0.013272 0.004971 0.025665
v -0.013278 0.004816 0.026143
v -0.011396 0.004970 0.025778
v -0.011524 0.004794 0.026287
v -0.009710 0.004494 0.026455
v -0.008588 0.003694 0.027525
v -0.009912 0.004358 0.026860
v -0.008834 0.003663 0.027721
v -0.010181 0.004120 0.027493
v -0.009193 0.003625 0.027986
v -0.010404 0.003447 0.028746
v -0.011718 0.004516 0.027040
v -0.012094 0.003884 0.028376
v -0.013347 0.004572 0.026839
v -0.013834 0.003985 0.028045
v -0.014524 0.004396 0.026872
v -0.014402 0.003072 0.029459
v -0.012570 0.002872 0.029908
v -0.010742 0.002444 0.030184
v -0.013053 0.001665 0.031288
v -0.011309 0.001349 0.031469
v -0.013441 0.000563 0.032276
v -0.013648 -0.000077 0.032764
v -0.011807 0.000370 0.032398
v -0.010607 0.000349 0.032233
v -0.011883 -0.000204 0.032839
v -0.010385 0.000001 0.032462
v -0.011897 -0.000581 0.033116
v -0.010226 -0.000259 0.032628
v -0.013787 -0.000513 0.033083
v -0.015494 0.000011 0.032439
v -0.016682 0.000808 0.031347
v -0.015265 0.000372 0.032185
v -0.008908 0.000488 0.031655
v -0.009285 0.000700 0.031586
v -0.008119 0.001502 0.030342
v -0.008567 0.001688 0.030330
v -0.008023 0.002644 0.028887
v -0.008417 0.002751 0.028937
v -0.009071 0.002948 0.028983
v -0.009288 0.001980 0.030310
v -0.009911 0.001016 0.031496
vt 0.537171 0.050342
vt 0.537073 0.047666
vt 0.543168 0.052689
vt 0.531305 0.053386
vt 0.537448 0.057952
vt 0.524489 0.059308
vt 0.528907 0.050249
vt 0.527474 0.047974
vt 0.521175 0.056141
vt 0.518966 0.053872
vt 0.515833 0.064496
vt 0.514330 0.073135
vt 0.519381 0.066689
vt 0.513185 0.063062
vt 0.512217 0.073301
vt 0.510885 0.062374
vt 0.516775 0.052044
vt 0.509230 0.073581
vt 0.496381 0.057435
vt 0.494309 0.074520
vt 0.505570 0.041642
vt 0.519552 0.030884
vt 0.526460 0.045298
vt 0.536118 0.026465
vt 0.537120 0.042873
vt 0.553465 0.028554
vt 0.547687 0.044812
vt 0.568582 0.037367
vt 0.557047 0.050273
vt 0.579016 0.051740
vt 0.563627 0.059215
vt 0.583115 0.067875
vt 0.566331 0.069262
vt 0.581294 0.084589
vt 0.565006 0.079986
vt 0.572803 0.099637
vt 0.559951 0.089586
vt 0.558888 0.110973
vt 0.550838 0.096317
vt 0.542722 0.115900
vt 0.540613 0.098865
vt 0.525505 0.114242
vt 0.529789 0.097755
vt 0.509549 0.105376
vt 0.519897 0.092943
vt 0.498636 0.091074
vt 0.512533 0.084025
vt 0.514963 0.082919
vt 0.517137 0.081270
vt 0.521614 0.090911
vt 0.523476 0.088600
vt 0.530745 0.095556
vt 0.540135 0.096359
vt 0.531858 0.093339
vt 0.540138 0.094696
vt 0.533852 0.090049
vt 0.540033 0.092328
vt 0.539346 0.084719
vt 0.526295 0.085191
vt 0.531570 0.078967
vt 0.520173 0.078632
vt 0.524653 0.072304
vt 0.516974 0.072929
vt 0.530533 0.064678
vt 0.538259 0.071347
vt 0.546073 0.077962
vt 0.545027 0.063759
vt 0.551893 0.070412
vt 0.550503 0.057627
vt 0.553471 0.054291
vt 0.556450 0.064176
vt 0.559660 0.069841
vt 0.559464 0.061676
vt 0.562183 0.069623
vt 0.561493 0.060219
vt 0.564026 0.069445
vt 0.555440 0.052070
vt 0.546628 0.047045
vt 0.537006 0.045589
vt 0.545352 0.049350
vt 0.562658 0.079081
vt 0.560576 0.077942
vt 0.557702 0.087759
vt 0.555645 0.086043
vt 0.549612 0.093723
vt 0.548229 0.091982
vt 0.545755 0.089225
vt 0.552402 0.083316
vt 0.557324 0.075930
vn -0.227366 0.702414 0.674477
vn -0.267514 0.682952 0.679716
vn -0.129111 0.677441 0.724158
vn -0.240748 0.762842 0.600094
vn -0.124971 0.746746 0.653263
vn -0.235874 0.821971 0.518389
vn -0.316069 0.756910 0.572004
vn -0.576756 0.622926 0.528504
vn -0.313698 0.820171 0.478449
vn -0.530729 0.758672 0.377815
vn -0.284353 0.874573 0.392766
vn -0.200517 0.925575 0.321097
vn -0.210935 0.873488 0.438777
vn -0.451061 0.864884 0.220274
vn -0.308090 0.947749 0.082780
vn -0.784241 0.491614 -0.378526
vn -0.955877 0.276485 -0.099268
vn -0.487290 0.644312 -0.589416
vn -0.792207 0.427565 -0.435426
vn -0.492451 0.583209 -0.646034
vn -0.965465 0.211358 -0.152330
vn -0.986481 -0.034719 0.160159
vn -0.976926 0.028110 0.211722
vn -0.851127 -0.268861 0.450884
vn -0.843679 -0.212955 0.492804
vn -0.585380 -0.448701 0.675276
vn -0.581180 -0.396979 0.710378
vn -0.228043 -0.552884 0.801446
vn -0.226742 -0.506185 0.832085
vn 0.149043 -0.567897 0.809493
vn 0.150843 -0.524680 0.837829
vn 0.517716 -0.492433 0.699628
vn 0.517225 -0.451394 0.727132
vn 0.795134 -0.345033 0.498714
vn 0.796027 -0.298363 0.526612
vn 0.965598 -0.134821 0.222358
vn 0.963080 -0.087562 0.254577
vn 0.991930 0.098038 -0.080392
vn 0.987940 0.147358 -0.047542
vn 0.869913 0.324774 -0.371178
vn 0.866667 0.368875 -0.335888
vn 0.624722 0.504397 -0.596076
vn 0.617552 0.549793 -0.562457
vn 0.274558 0.623410 -0.732106
vn 0.274069 0.670783 -0.689156
vn -0.112905 0.652587 -0.749255
vn -0.113781 0.709592 -0.695366
vn -0.095187 0.995427 0.008093
vn -0.064705 0.945702 0.318530
vn 0.143186 0.989689 -0.003657
vn 0.051839 0.935385 0.349811
vn 0.404854 0.913897 0.029761
vn 0.621319 0.769860 0.145872
vn 0.159692 0.906513 0.390811
vn 0.258333 0.846544 0.465432
vn 0.143111 0.880413 0.452097
vn 0.224154 0.840810 0.492741
vn 0.138080 0.826460 0.545800
vn 0.045943 0.908745 0.414815
vn 0.032083 0.859847 0.509544
vn -0.060743 0.920563 0.385842
vn -0.090003 0.874436 0.476720
vn -0.169384 0.914860 0.366524
vn -0.118029 0.815225 0.566990
vn 0.012924 0.794495 0.607134
vn 0.124949 0.766556 0.629904
vn -0.010411 0.723468 0.690280
vn 0.093517 0.706350 0.701659
vn -0.033628 0.657382 0.752807
vn -0.049083 0.610797 0.790265
vn 0.058540 0.644256 0.762566
vn 0.144306 0.635725 0.758307
vn 0.051255 0.596806 0.800747
vn 0.163983 0.605253 0.778960
vn 0.104152 0.209595 0.972225
vn 0.372106 0.203087 0.905700
vn -0.135134 0.257856 0.956686
vn -0.367526 0.327033 0.870617
vn -0.546922 0.443346 0.710155
vn -0.152564 0.633777 0.758321
vn 0.553034 0.336766 0.762064
vn 0.237667 0.658623 0.713954
vn 0.656492 0.483896 0.578674
vn 0.269618 0.716258 0.643646
vn 0.692238 0.615532 0.376731
vn 0.284438 0.773594 0.566257
vn 0.223898 0.790772 0.569693
vn 0.210501 0.739315 0.639611
vn 0.181794 0.687382 0.703176
f 4/4/4 7/7/7 2/2/2
f 1/1/1 4/4/4 2/2/2
f 80/80/80 3/3/3 1/1/1
f 2/2/2 80/80/80 1/1/1
f 1/1/1 3/3/3 5/5/5
f 4/4/4 1/1/1 5/5/5
f 64/64/64 6/6/6 4/4/4
f 5/5/5 64/64/64 4/4/4
f 9/9/9 7/7/7 4/4/4
f 6/6/6 9/9/9 4/4/4
f 8/8/8 79/79/79 2/2/2
f 7/7/7 8/8/8 2/2/2
f 8/8/8 7/7/7 9/9/9
f 10/10/10 8/8/8 9/9/9
f 6/6/6 13/13/13 11/11/11
f 9/9/9 6/6/6 11/11/11
f 11/11/11 14/14/14 10/10/10
f 9/9/9 11/11/11 10/10/10
f 14/14/14 11/11/11 12/12/12
f 15/15/15 14/14/14 12/12/12
f 12/12/12 11/11/11 13/13/13
f 63/63/63 12/12/12 13/13/13
f 15/15/15 18/18/18 16/16/16
f 14/14/14 15/15/15 16/16/16
f 14/14/14 16/16/16 17/17/17
f 10/10/10 14/14/14 17/17/17
f 19/19/19 21/21/21 17/17/17
f 16/16/16 19/19/19 17/17/17
f 20/20/20 19/19/19 16/16/16
f 18/18/18 20/20/20 16/16/16
f 21/21/21 22/22/22 23/23/23
f 17/17/17 21/21/21 23/23/23
f 22/22/22 24/24/24 25/25/25
f 23/23/23 22/22/22 25/25/25
f 24/24/24 26/26/26 27/27/27
f 25/25/25 24/24/24 27/27/27
f 26/26/26 28/28/28 29/29/29
f 27/27/27 26/26/26 29/29/29
f 28/28/28 30/30/30 31/31/31
f 29/29/29 28/28/28 31/31/31
f 30/30/30 32/32/32 33/33/33
f 31/31/31 30/30/30 33/33/33
f 32/32/32 34/34/34 35/35/35
f 33/33/33 32/32/32 35/35/35
f 34/34/34 36/36/36 37/37/37
f 35/35/35 34/34/34 37/37/37
f 36/36/36 38/38/38 39/39/39
f 37/37/37 36/36/36 39/39/39
f 38/38/38 40/40/40 41/41/41
f 39/39/39 38/38/38 41/41/41
f 40/40/40 42/42/42 43/43/43
f 41/41/41 40/40/40 43/43/43
f 42/42/42 44/44/44 45/45/45
f 43/43/43 42/42/42 45/45/45
f 44/44/44 46/46/46 47/47/47
f 45/45/45 44/44/44 47/47/47
f 46/46/46 20/20/20 18/18/18
f 47/47/47 46/46/46 18/18/18
f 45/45/45 47/47/47 48/48/48
f 50/50/50 45/45/45 48/48/48
f 47/47/47 18/18/18 15/15/15
f 48/48/48 47/47/47 15/15/15
f 48/48/48 49/49/49 51/51/51
f 50/50/50 48/48/48 51/51/51
f 48/48/48 15/15/15 12/12/12
f 49/49/49 48/48/48 12/12/12
f 54/54/54 52/52/52 50/50/50
f 51/51/51 54/54/54 50/50/50
f 52/52/52 43/43/43 45/45/45
f 50/50/50 52/52/52 45/45/45
f 53/53/53 41/41/41 43/43/43
f 52/52/52 53/53/53 43/43/43
f 52/52/52 54/54/54 55/55/55
f 53/53/53 52/52/52 55/55/55
f 55/55/55 54/54/54 56/56/56
f 57/57/57 55/55/55 56/56/56
f 59/59/59 56/56/56 54/54/54
f 51/51/51 59/59/59 54/54/54
f 57/57/57 56/56/56 58/58/58
f 87/87/87 57/57/57 58/58/58
f 59/59/59 60/60/60 58/58/58
f 56/56/56 59/59/59 58/58/58
f 60/60/60 59/59/59 61/61/61
f 62/62/62 60/60/60 61/61/61
f 51/51/51 49/49/49 61/61/61
f 59/59/59 51/51/51 61/61/61
f 63/63/63 13/13/13 62/62/62
f 61/61/61 63/63/63 62/62/62
f 61/61/61 49/49/49 12/12/12
f 63/63/63 61/61/61 12/12/12
f 6/6/6 64/64/64 62/62/62
f 13/13/13 6/6/6 62/62/62
f 65/65/65 60/60/60 62/62/62
f 64/64/64 65/65/65 62/62/62
f 65/65/65 64/64/64 5/5/5
f 67/67/67 65/65/65 5/5/5
f 65/65/65 66/66/66 58/58/58
f 60/60/60 65/65/65 58/58/58
f 65/65/65 67/67/67 68/68/68
f 66/66/66 65/65/65 68/68/68
f 67/67/67 69/69/69 71/71/71
f 68/68/68 67/67/67 71/71/71
f 69/69/69 67/67/67 5/5/5
f 3/3/3 69/69/69 5/5/5
f 69/69/69 3/3/3 80/80/80
f 70/70/70 69/69/69 80/80/80
f 73/73/73 71/71/71 69/69/69
f 70/70/70 73/73/73 69/69/69
f 72/72/72 89/89/89 68/68/68
f 71/71/71 72/72/72 68/68/68
f 71/71/71 73/73/73 74/74/74
f 72/72/72 71/71/71 74/74/74
f 75/75/75 76/76/76 74/74/74
f 73/73/73 75/75/75 74/74/74
f 75/75/75 73/73/73 70/70/70
f 77/77/77 75/75/75 70/70/70
f 31/31/31 33/33/33 76/76/76
f 75/75/75 31/31/31 76/76/76
f 29/29/29 31/31/31 75/75/75
f 77/77/77 29/29/29 75/75/75
f 80/80/80 78/78/78 77/77/77
f 70/70/70 80/80/80 77/77/77
f 78/78/78 27/27/27 29/29/29
f 77/77/77 78/78/78 29/29/29
f 79/79/79 25/25/25 27/27/27
f 78/78/78 79/79/79 27/27/27
f 78/78/78 80/80/80 2/2/2
f 79/79/79 78/78/78 2/2/2
f 23/23/23 25/25/25 79/79/79
f 8/8/8 23/23/23 79/79/79
f 81/81/81 82/82/82 74/74/74
f 76/76/76 81/81/81 74/74/74
f 76/76/76 33/33/33 35/35/35
f 81/81/81 76/76/76 35/35/35
f 82/82/82 81/81/81 83/83/83
f 84/84/84 82/82/82 83/83/83
f 81/81/81 35/35/35 37/37/37
f 83/83/83 81/81/81 37/37/37
f 85/85/85 86/86/86 84/84/84
f 83/83/83 85/85/85 84/84/84
f 37/37/37 39/39/39 85/85/85
f 83/83/83 37/37/37 85/85/85
f 85/85/85 53/53/53 55/55/55
f 86/86/86 85/85/85 55/55/55
f 39/39/39 41/41/41 53/53/53
f 85/85/85 39/39/39 53/53/53
f 84/84/84 86/86/86 87/87/87
f 88/88/88 84/84/84 87/87/87
f 87/87/87 86/86/86 55/55/55
f 57/57/57 87/87/87 55/55/55
f 66/66/66 88/88/88 87/87/87
f 58/58/58 66/66/66 87/87/87
f 88/88/88 89/89/89 82/82/82
f 84/84/84 88/88/88 82/82/82
f 88/88/88 66/66/66 68/68/68
f 89/89/89 88/88/88 68/68/68
f 74/74/74 82/82/82 89/89/89
f 72/72/72 74/74/74 89/89/89
f 17/17/17 23/23/23 8/8/8
f 10/10/10 17/17/17 8/8/8
