# GloomhavenVR - meta-quest-touch-plus-v2 right 'thumbstick' (glTF material 0)
# generated by controllers_pipeline.py from webxr-input-profiles (MIT)
o quest3_right_thumbstick__m0
v 0.010956 0.006055 0.032779
v 0.010956 0.006055 0.032779
v 0.010956 0.006055 0.032779
v 0.011166 0.006315 0.032322
v 0.011166 0.006315 0.032322
v 0.012131 0.005626 0.033260
v 0.012131 0.005626 0.033260
v 0.009700 0.006245 0.032602
v 0.009700 0.006245 0.032602
v 0.010775 0.005568 0.033005
v 0.009651 0.005738 0.032847
v 0.011826 0.005185 0.033436
v 0.009807 0.003441 0.035259
v 0.010231 0.003178 0.035569
v 0.008953 0.003504 0.035222
v 0.009389 0.003533 0.035164
v 0.008471 0.003311 0.035490
v 0.007383 0.005520 0.033235
v 0.008486 0.005728 0.032918
v 0.008397 0.006234 0.032681
v 0.008397 0.006234 0.032681
v 0.008282 0.006528 0.032177
v 0.007162 0.006002 0.033036
v 0.007162 0.006002 0.033036
v 0.006894 0.006264 0.032567
v 0.006083 0.005569 0.033635
v 0.006083 0.005569 0.033635
v 0.005682 0.005773 0.033240
v 0.005237 0.004963 0.034442
v 0.005237 0.004963 0.034442
v 0.006418 0.005134 0.033771
v 0.005661 0.004592 0.034493
v 0.005177 0.003939 0.035340
v 0.004695 0.004233 0.035390
v 0.004695 0.004233 0.035390
v 0.005003 0.003223 0.036251
v 0.008230 0.002985 0.035913
v 0.010381 0.002822 0.036011
v 0.008244 0.002712 0.036257
v 0.010295 0.002554 0.036353
v 0.008451 0.002463 0.036560
v 0.005145 0.002504 0.037151
v 0.004660 0.002628 0.037416
v 0.004660 0.002628 0.037416
v 0.005596 0.001820 0.037990
v 0.005164 0.001863 0.038354
v 0.005164 0.001863 0.038354
v 0.006322 0.001230 0.038698
v 0.005976 0.001203 0.039146
v 0.005976 0.001203 0.039146
v 0.007268 0.000776 0.039223
v 0.007034 0.000696 0.039732
v 0.007034 0.000696 0.039732
v 0.008370 0.000495 0.039522
v 0.008783 0.002273 0.036783
v 0.009652 0.002207 0.036822
v 0.009211 0.002190 0.036866
v 0.009537 0.000406 0.039576
v 0.009572 0.000281 0.040127
v 0.009572 0.000281 0.040127
v 0.010688 0.000518 0.039377
v 0.010860 0.000407 0.039904
v 0.010860 0.000407 0.039904
v 0.011732 0.000817 0.038947
v 0.012027 0.000742 0.039424
v 0.012027 0.000742 0.039424
v 0.012601 0.001283 0.038316
v 0.010028 0.002342 0.036633
v 0.012999 0.001262 0.038718
v 0.012999 0.001262 0.038718
v 0.013218 0.001883 0.037528
v 0.013689 0.001933 0.037837
v 0.013689 0.001933 0.037837
v 0.013553 0.002572 0.036642
v 0.014063 0.002705 0.036846
v 0.014063 0.002705 0.036846
v 0.013567 0.003304 0.035719
v 0.014079 0.003523 0.035814
v 0.014079 0.003523 0.035814
v 0.013264 0.004019 0.034832
v 0.013741 0.004323 0.034822
v 0.013741 0.004323 0.034822
v 0.012671 0.004661 0.034053
v 0.013077 0.005040 0.033951
v 0.013077 0.005040 0.033951
v 0.013527 0.005186 0.033617
v 0.014261 0.004376 0.034595
v 0.012470 0.005854 0.032842
v 0.014157 0.004971 0.032792
v 0.012932 0.005726 0.031891
v 0.015012 0.004046 0.033930
v 0.014340 0.004197 0.031959
v 0.013064 0.004976 0.031021
v 0.015226 0.003230 0.033143
v 0.013973 0.003193 0.031499
v 0.014808 0.002289 0.032599
v 0.012784 0.003925 0.030625
v 0.013143 0.002374 0.031671
v 0.013837 0.001632 0.032586
v 0.012157 0.002981 0.030944
v 0.012513 0.002004 0.031986
v 0.013097 0.001371 0.032755
v 0.011681 0.002521 0.031376
v 0.010719 0.002928 0.030930
v 0.010719 0.002928 0.030930
v 0.010967 0.003421 0.030454
v 0.010967 0.003421 0.030454
v 0.009542 0.003069 0.030792
v 0.009624 0.003633 0.030253
v 0.008387 0.003061 0.030860
v 0.008251 0.003624 0.030339
v 0.007288 0.002855 0.031175
v 0.006951 0.003386 0.030707
v 0.006334 0.002472 0.031706
v 0.005822 0.002936 0.031343
v 0.005591 0.001940 0.032415
v 0.004943 0.002306 0.032184
v 0.005113 0.001296 0.033250
v 0.004375 0.001536 0.033166
v 0.004942 0.000590 0.034148
v 0.004164 0.000702 0.034232
v 0.005081 -0.000123 0.035041
v 0.004328 -0.000150 0.035288
v 0.005526 -0.000797 0.035868
v 0.004855 -0.000948 0.036274
v 0.006241 -0.001379 0.036566
v 0.005701 -0.001638 0.037115
v 0.007175 -0.001826 0.037083
v 0.006809 -0.002166 0.037736
v 0.008262 -0.002105 0.037379
v 0.008101 -0.002495 0.038081
v 0.009415 -0.002193 0.037433
v 0.009471 -0.002601 0.038132
v 0.010553 -0.002083 0.037237
v 0.010820 -0.002474 0.037896
v 0.011582 -0.001788 0.036813
v 0.012048 -0.002125 0.037389
v 0.012443 -0.001327 0.036189
v 0.013067 -0.001578 0.036655
v 0.013051 -0.000735 0.035412
v 0.013794 -0.000869 0.035731
v 0.013381 -0.000052 0.034534
v 0.014176 -0.000058 0.034690
v 0.013394 0.000669 0.033625
v 0.014190 0.000795 0.033618
v 0.015239 0.001297 0.033852
v 0.015215 0.000271 0.035147
v 0.015685 0.002158 0.034463
v 0.015644 0.001048 0.035853
v 0.015444 0.003016 0.035192
v 0.015427 0.001961 0.036515
v 0.014604 0.003484 0.035703
v 0.014607 0.002590 0.036846
v 0.014218 0.001716 0.037968
v 0.013444 0.000952 0.038954
v 0.014949 0.000953 0.037793
v 0.014073 0.000034 0.038921
v 0.015153 0.000009 0.037171
v 0.014258 -0.000951 0.038372
v 0.014753 -0.000711 0.036398
v 0.013901 -0.001541 0.037552
v 0.012648 -0.002219 0.038403
v 0.011166 -0.002641 0.038992
v 0.012907 -0.001627 0.039320
v 0.011331 -0.002065 0.039963
v 0.012805 -0.000607 0.039846
v 0.011285 -0.001031 0.040472
v 0.012362 0.000368 0.039751
v 0.011043 -0.000004 0.040290
v 0.009598 -0.000148 0.040527
v 0.008136 -0.000051 0.040454
v 0.009620 -0.001197 0.040751
v 0.007932 -0.001075 0.040673
v 0.009602 -0.002228 0.040249
v 0.007842 -0.002089 0.040175
v 0.009548 -0.002797 0.039274
v 0.007902 -0.002663 0.039218
v 0.006342 -0.002271 0.038806
v 0.005001 -0.001635 0.038062
v 0.006196 -0.001660 0.039712
v 0.004767 -0.000978 0.038948
v 0.006348 -0.000648 0.040237
v 0.004995 0.000027 0.039489
v 0.006764 0.000310 0.040082
v 0.005572 0.000893 0.039436
v 0.004670 0.001645 0.038551
v 0.004099 0.002495 0.037505
v 0.003947 0.000871 0.038470
v 0.003284 0.001857 0.037270
v 0.003654 -0.000094 0.037907
v 0.002976 0.000930 0.036636
v 0.003975 -0.000802 0.037065
v 0.003331 0.000161 0.035881
v 0.003132 0.001192 0.034601
v 0.003402 0.002183 0.033301
v 0.002730 0.002027 0.035252
v 0.003033 0.003105 0.033874
v 0.003066 0.002886 0.035944
v 0.003327 0.003928 0.034636
v 0.003924 0.003398 0.036367
v 0.004144 0.004292 0.035226
v 0.004500 0.003432 0.036409
v 0.004500 0.003432 0.036409
v 0.004751 0.005103 0.034154
v 0.004023 0.004867 0.033410
v 0.005095 0.005638 0.032345
v 0.003766 0.004081 0.032618
v 0.004893 0.004905 0.031521
v 0.004084 0.003098 0.032105
v 0.005144 0.003869 0.031103
v 0.006512 0.004399 0.030340
v 0.008071 0.004690 0.029899
v 0.006357 0.005470 0.030715
v 0.008027 0.005790 0.030232
v 0.006503 0.006207 0.031579
v 0.008108 0.006506 0.031116
v 0.009798 0.006520 0.031026
v 0.011445 0.006258 0.031278
v 0.011445 0.006258 0.031278
v 0.009745 0.006540 0.032100
v 0.009785 0.005800 0.030112
v 0.011512 0.005524 0.030384
v 0.011512 0.005524 0.030384
v 0.009722 0.004704 0.029792
v 0.011336 0.004455 0.030043
v 0.011336 0.004455 0.030043
v 0.008267 0.000381 0.040067
v 0.008267 0.000381 0.040067
v 0.016949 -0.003177 0.026521
v 0.013223 -0.000667 0.023510
v 0.007906 0.000049 0.022827
v 0.003029 -0.001302 0.024734
v 0.000455 -0.004203 0.028503
v 0.001166 -0.007548 0.032693
v 0.004892 -0.010057 0.035704
v 0.004892 -0.010057 0.035704
v 0.010209 -0.010774 0.036386
v 0.015086 -0.009423 0.034479
v 0.017660 -0.006521 0.030711
v 0.016143 -0.001980 0.027881
v 0.012803 0.000270 0.025182
v 0.008037 0.000912 0.024570
v 0.003664 -0.000299 0.026280
v 0.001357 -0.002900 0.029658
v 0.001995 -0.005899 0.033414
v 0.005335 -0.008148 0.036113
v 0.005335 -0.008148 0.036113
v 0.010101 -0.008791 0.036725
v 0.014473 -0.007580 0.035015
v 0.016781 -0.004978 0.031637
v 0.014637 -0.001062 0.029556
v 0.012029 0.000695 0.027448
v 0.008307 0.001197 0.026970
v 0.004893 0.000251 0.028305
v 0.003091 -0.001780 0.030943
v 0.003589 -0.004121 0.033876
v 0.006197 -0.005878 0.035984
v 0.006197 -0.005878 0.035984
v 0.009919 -0.006380 0.036462
v 0.013333 -0.005434 0.035127
v 0.015135 -0.003403 0.032489
v 0.013036 -0.000662 0.030949
v 0.011202 0.000574 0.029466
v 0.008583 0.000926 0.029130
v 0.006182 0.000261 0.030069
v 0.004914 -0.001168 0.031924
v 0.005264 -0.002815 0.033988
v 0.007099 -0.004051 0.035471
v 0.007099 -0.004051 0.035471
v 0.009717 -0.004403 0.035807
v 0.012119 -0.003738 0.034868
v 0.013387 -0.002309 0.033012
v 0.012157 -0.000684 0.031610
v 0.012157 -0.000684 0.031610
v 0.010745 0.000267 0.030469
v 0.010745 0.000267 0.030469
v 0.008730 0.000538 0.030210
v 0.008730 0.000538 0.030210
v 0.006882 0.000027 0.030933
v 0.006882 0.000027 0.030933
v 0.005906 -0.001073 0.032361
v 0.005906 -0.001073 0.032361
v 0.006176 -0.002341 0.033949
v 0.006176 -0.002341 0.033949
v 0.007588 -0.003292 0.035090
v 0.007588 -0.003292 0.035090
v 0.007588 -0.003292 0.035090
v 0.007588 -0.003292 0.035090
v 0.009603 -0.003563 0.035348
v 0.009603 -0.003563 0.035348
v 0.011451 -0.003051 0.034625
v 0.011451 -0.003051 0.034625
v 0.012426 -0.001952 0.033197
v 0.012426 -0.001952 0.033197
v 0.012131 0.001640 0.033296
v 0.010760 0.002563 0.032188
v 0.008802 0.002827 0.031936
v 0.007007 0.002330 0.032638
v 0.006060 0.001262 0.034026
v 0.006321 0.000031 0.035568
v 0.007693 -0.000893 0.036676
v 0.007693 -0.000893 0.036676
v 0.009650 -0.001157 0.036927
v 0.011445 -0.000660 0.036225
v 0.012393 0.000408 0.034838
v 0.006012 0.002625 0.031675
v 0.004742 0.001108 0.033643
v 0.007003 0.001946 0.032456
v 0.008597 0.003357 0.030644
v 0.008788 0.002451 0.031746
v 0.011404 0.002979 0.031004
v 0.010726 0.002188 0.031996
v 0.013361 0.001649 0.032601
v 0.012075 0.001269 0.033099
v 0.013676 -0.000090 0.034781
v 0.012291 0.000069 0.034605
v 0.012330 -0.001578 0.036715
v 0.011364 -0.000956 0.035936
v 0.009834 -0.002262 0.037682
v 0.009642 -0.001429 0.036605
v 0.007049 -0.001888 0.037326
v 0.005136 -0.000616 0.035801
v 0.007719 -0.001171 0.036360
v 0.006397 -0.000294 0.035308
v 0.006124 0.000899 0.033814
vt 0.619366 0.076596
vt 0.897963 0.076204
vt 0.654663 0.123841
vt 0.615465 0.075306
vt 0.899832 0.074201
vt 0.888858 0.075513
vt 0.660652 0.128640
vt 0.626775 0.075600
vt 0.650512 0.117773
vt 0.657018 0.121675
vt 0.653363 0.116304
vt 0.662320 0.125913
vt 0.671067 0.109910
vt 0.674109 0.111232
vt 0.668852 0.105604
vt 0.669470 0.108014
vt 0.669522 0.102378
vt 0.650699 0.103485
vt 0.651132 0.110082
vt 0.648004 0.110728
vt 0.638547 0.075877
vt 0.638553 0.072097
vt 0.647498 0.103264
vt 0.650977 0.075767
vt 0.650881 0.072171
vt 0.649022 0.095926
vt 0.663430 0.075749
vt 0.663577 0.072120
vt 0.652489 0.089222
vt 0.676322 0.075678
vt 0.652037 0.097002
vt 0.655100 0.091076
vt 0.659630 0.086211
vt 0.657614 0.083720
vt 0.688558 0.075693
vt 0.665304 0.082765
vt 0.671774 0.099960
vt 0.677390 0.110782
vt 0.674095 0.099076
vt 0.679465 0.109383
vt 0.676586 0.099299
vt 0.671635 0.080997
vt 0.671190 0.077823
vt 0.713507 0.075997
vt 0.678271 0.080991
vt 0.678702 0.077807
vt 0.726768 0.076099
vt 0.684672 0.082765
vt 0.685945 0.079824
vt 0.740045 0.075867
vt 0.690359 0.086198
vt 0.692373 0.083714
vt 0.752139 0.075472
vt 0.694901 0.091066
vt 0.678836 0.100393
vt 0.681102 0.104764
vt 0.680375 0.102371
vt 0.697970 0.096950
vt 0.776111 0.075876
vt 0.700979 0.095874
vt 0.699306 0.103461
vt 0.788825 0.076035
vt 0.702500 0.103235
vt 0.698855 0.110060
vt 0.801492 0.076045
vt 0.702000 0.110704
vt 0.696668 0.116317
vt 0.680710 0.107227
vt 0.814033 0.075881
vt 0.699509 0.117778
vt 0.692840 0.121705
vt 0.826371 0.075730
vt 0.695191 0.123886
vt 0.687707 0.125911
vt 0.838929 0.076021
vt 0.689373 0.128632
vt 0.681583 0.128555
vt 0.851808 0.076053
vt 0.682449 0.131640
vt 0.674966 0.129466
vt 0.864413 0.075906
vt 0.674958 0.132662
vt 0.668397 0.128565
vt 0.876910 0.075773
vt 0.667526 0.131641
vt 0.876833 0.071741
vt 0.864375 0.072006
vt 0.889218 0.072273
vt 0.877325 0.063926
vt 0.890646 0.064496
vt 0.864489 0.064204
vt 0.877423 0.056172
vt 0.891281 0.055714
vt 0.864476 0.056058
vt 0.876992 0.047863
vt 0.864091 0.048089
vt 0.890111 0.046471
vt 0.876210 0.039090
vt 0.863586 0.039281
vt 0.888226 0.038097
vt 0.875603 0.033789
vt 0.863079 0.033934
vt 0.887633 0.033837
vt 0.616965 0.033840
vt 0.896688 0.033731
vt 0.614731 0.035584
vt 0.898301 0.035966
vt 0.625687 0.033326
vt 0.625752 0.037422
vt 0.637620 0.033020
vt 0.637792 0.038111
vt 0.650755 0.032870
vt 0.650714 0.038050
vt 0.662985 0.032804
vt 0.663290 0.038186
vt 0.676147 0.032800
vt 0.676150 0.038155
vt 0.688526 0.032778
vt 0.688604 0.037967
vt 0.701290 0.032807
vt 0.701329 0.038350
vt 0.713878 0.032818
vt 0.714309 0.037887
vt 0.726903 0.032919
vt 0.726770 0.038421
vt 0.739496 0.033087
vt 0.739719 0.038476
vt 0.752447 0.033328
vt 0.752088 0.038876
vt 0.764745 0.033477
vt 0.764674 0.039143
vt 0.777297 0.033641
vt 0.776954 0.039098
vt 0.789688 0.033907
vt 0.789321 0.039631
vt 0.801921 0.033988
vt 0.801666 0.039275
vt 0.814174 0.034256
vt 0.814223 0.039802
vt 0.826177 0.034155
vt 0.826507 0.040095
vt 0.838571 0.034192
vt 0.838654 0.039757
vt 0.850714 0.034080
vt 0.851137 0.039525
vt 0.851435 0.048407
vt 0.838807 0.048621
vt 0.851458 0.056118
vt 0.838818 0.056092
vt 0.851739 0.063796
vt 0.838955 0.063911
vt 0.851710 0.072232
vt 0.839121 0.072042
vt 0.826610 0.072156
vt 0.813869 0.071973
vt 0.826407 0.064083
vt 0.814077 0.063836
vt 0.826496 0.056322
vt 0.813752 0.056447
vt 0.826281 0.048925
vt 0.814117 0.049025
vt 0.801652 0.048646
vt 0.789230 0.048649
vt 0.801429 0.056392
vt 0.789098 0.056239
vt 0.801543 0.063902
vt 0.788981 0.064102
vt 0.801679 0.072266
vt 0.788837 0.071941
vt 0.776337 0.072123
vt 0.764002 0.071764
vt 0.776530 0.063867
vt 0.764191 0.063770
vt 0.776640 0.056247
vt 0.764260 0.056144
vt 0.776843 0.048215
vt 0.764436 0.048475
vt 0.752064 0.048342
vt 0.739373 0.048098
vt 0.751762 0.056074
vt 0.739355 0.056168
vt 0.751814 0.063926
vt 0.739522 0.064036
vt 0.752060 0.071885
vt 0.739839 0.072439
vt 0.726755 0.072556
vt 0.713741 0.072536
vt 0.726564 0.064308
vt 0.714112 0.063934
vt 0.726736 0.056033
vt 0.714117 0.056279
vt 0.726876 0.048326
vt 0.714080 0.047790
vt 0.701299 0.048334
vt 0.688741 0.047796
vt 0.701153 0.055845
vt 0.688572 0.056091
vt 0.701210 0.064173
vt 0.688506 0.063814
vt 0.700881 0.072213
vt 0.688769 0.072263
vt 0.664033 0.079832
vt 0.701048 0.075792
vt 0.676004 0.072259
vt 0.676164 0.064009
vt 0.663440 0.063806
vt 0.676179 0.055832
vt 0.663355 0.055938
vt 0.675994 0.047963
vt 0.663500 0.047977
vt 0.650531 0.047585
vt 0.637969 0.047664
vt 0.650700 0.055929
vt 0.637671 0.055700
vt 0.650766 0.063861
vt 0.638006 0.064066
vt 0.625051 0.064582
vt 0.611280 0.068069
vt 0.905294 0.067912
vt 0.626620 0.072974
vt 0.624391 0.055829
vt 0.609277 0.055362
vt 0.909055 0.055199
vt 0.624593 0.046438
vt 0.611350 0.043576
vt 0.905215 0.043276
vt 0.697523 0.089210
vt 0.763819 0.075583
vt 0.808669 0.082794
vt 0.825296 0.080793
vt 0.841968 0.082721
vt 0.857923 0.088676
vt 0.872172 0.098747
vt 0.883491 0.112610
vt 0.758738 0.128802
vt 0.892015 0.128916
vt 0.767254 0.112449
vt 0.778604 0.098701
vt 0.792804 0.088739
vt 0.810685 0.091009
vt 0.825319 0.089223
vt 0.839977 0.090970
vt 0.853884 0.096287
vt 0.866134 0.105158
vt 0.875777 0.117365
vt 0.768136 0.132735
vt 0.882611 0.132944
vt 0.774937 0.117216
vt 0.784595 0.105106
vt 0.796825 0.096313
vt 0.812790 0.099432
vt 0.825337 0.097886
vt 0.837893 0.099412
vt 0.849711 0.103985
vt 0.859964 0.111526
vt 0.867754 0.121863
vt 0.778620 0.134933
vt 0.872047 0.135228
vt 0.782907 0.121714
vt 0.790723 0.111473
vt 0.800984 0.103992
vt 0.815234 0.109149
vt 0.825358 0.107920
vt 0.835477 0.109135
vt 0.844922 0.112756
vt 0.852977 0.118593
vt 0.858809 0.126290
vt 0.789363 0.135051
vt 0.861127 0.135349
vt 0.791761 0.126165
vt 0.797664 0.118560
vt 0.805768 0.112764
vt 0.816744 0.115264
vt 0.816744 0.115264
vt 0.825376 0.114228
vt 0.825376 0.114228
vt 0.833996 0.115243
vt 0.833996 0.115243
vt 0.842020 0.118231
vt 0.842020 0.118231
vt 0.848845 0.122965
vt 0.848845 0.122965
vt 0.853838 0.128929
vt 0.853838 0.128929
vt 0.794098 0.134665
vt 0.856278 0.134888
vt 0.794098 0.134665
vt 0.856278 0.134888
vt 0.796663 0.128867
vt 0.796663 0.128867
vt 0.801776 0.122974
vt 0.801776 0.122974
vt 0.808679 0.118260
vt 0.808679 0.118260
vt 0.818825 0.124088
vt 0.825427 0.123336
vt 0.832008 0.124038
vt 0.838152 0.126139
vt 0.843483 0.129457
vt 0.847800 0.133658
vt 0.798638 0.138068
vt 0.851361 0.138036
vt 0.802599 0.133829
vt 0.807152 0.129605
vt 0.812613 0.126238
vt 0.720723 0.127371
vt 0.736133 0.128966
vt 0.723490 0.121145
vt 0.709004 0.116518
vt 0.714932 0.113206
vt 0.706053 0.100946
vt 0.712786 0.101825
vt 0.712886 0.086653
vt 0.717787 0.091387
vt 0.726684 0.079442
vt 0.727876 0.086124
vt 0.741993 0.081506
vt 0.739042 0.087630
vt 0.753127 0.092045
vt 0.747181 0.095326
vt 0.756075 0.107492
vt 0.749643 0.121377
vt 0.749343 0.106611
vt 0.744649 0.116761
vt 0.734752 0.122320
vn 0.073180 0.851279 0.519585
vn 0.073180 0.851279 0.519585
vn -0.122275 0.456023 0.881528
vn 0.199629 0.966307 0.162478
vn 0.199725 0.966287 0.162476
vn 0.106796 0.838123 0.534925
vn -0.229027 0.492786 0.839469
vn 0.038917 0.860567 0.507847
vn -0.004451 0.436044 0.899914
vn -0.033970 0.661608 0.749080
vn 0.018095 0.662395 0.748936
vn -0.077533 0.681537 0.727665
vn -0.008022 0.738930 0.673734
vn -0.030630 0.759931 0.649281
vn 0.058633 0.733887 0.676736
vn 0.024341 0.724252 0.689105
vn 0.085922 0.751208 0.654450
vn 0.114162 0.667456 0.735846
vn 0.066339 0.654584 0.753073
vn 0.110799 0.437693 0.892271
vn 0.000229 0.864148 0.503238
vn -0.069590 0.986340 0.149298
vn 0.222986 0.458617 0.860202
vn -0.041511 0.861218 0.506538
vn -0.201243 0.961478 0.187248
vn 0.320072 0.497720 0.806120
vn -0.074386 0.849372 0.522527
vn -0.312547 0.916761 0.248725
vn 0.395903 0.552283 0.733651
vn -0.089506 0.828687 0.552510
vn 0.151469 0.682322 0.715188
vn 0.185556 0.707184 0.682247
vn 0.204330 0.732460 0.649424
vn 0.444527 0.618631 0.647836
vn -0.093053 0.804254 0.586956
vn 0.216239 0.763535 0.608486
vn 0.099217 0.771764 0.628121
vn -0.038382 0.782249 0.621782
vn 0.101760 0.790930 0.603386
vn -0.035743 0.801286 0.597213
vn 0.090126 0.808370 0.581735
vn 0.200035 0.794885 0.572838
vn 0.447916 0.764264 0.463973
vn -0.080521 0.763412 0.640873
vn 0.190360 0.824212 0.533327
vn 0.402618 0.832906 0.379692
vn -0.067407 0.742835 0.666073
vn 0.159300 0.849282 0.503333
vn 0.329670 0.892247 0.308565
vn -0.055297 0.716617 0.695271
vn 0.113762 0.864840 0.488989
vn 0.233754 0.938077 0.255677
vn -0.037026 0.689163 0.723660
vn 0.070952 0.880947 0.467866
vn 0.070453 0.825015 0.560702
vn 0.004198 0.830086 0.557619
vn 0.038194 0.834507 0.549672
vn 0.020667 0.884922 0.465280
vn 0.033044 0.681948 0.730653
vn 0.004318 0.975504 0.219938
vn -0.026139 0.875405 0.482684
vn 0.071910 0.696109 0.714325
vn -0.112295 0.964355 0.239602
vn -0.073880 0.867291 0.492288
vn 0.107145 0.706719 0.699335
vn -0.217037 0.934397 0.282485
vn -0.112091 0.847064 0.519537
vn -0.019540 0.816709 0.576718
vn 0.133150 0.719405 0.681709
vn -0.305028 0.886918 0.346892
vn -0.129568 0.819504 0.558234
vn 0.148351 0.739808 0.656259
vn -0.368522 0.825929 0.426654
vn -0.153567 0.791120 0.592069
vn 0.163928 0.762391 0.626009
vn -0.402123 0.756214 0.516176
vn -0.149999 0.759082 0.633478
vn 0.175460 0.783664 0.595889
vn -0.404184 0.682030 0.609484
vn -0.138455 0.731677 0.667442
vn 0.165980 0.805106 0.569433
vn -0.373819 0.610217 0.698494
vn -0.110979 0.701960 0.703517
vn 0.139172 0.823801 0.549530
vn -0.313264 0.545230 0.777554
vn 0.418030 0.860643 0.290766
vn 0.484458 0.785401 0.385286
vn 0.320939 0.922476 0.214559
vn 0.695192 0.708289 -0.122614
vn 0.524924 0.813201 -0.251313
vn 0.812088 0.582065 0.041388
vn 0.781775 0.316166 -0.537464
vn 0.586136 0.436127 -0.682816
vn 0.918886 0.168332 -0.356810
vn 0.590523 -0.211299 -0.778868
vn 0.696068 -0.327001 -0.639187
vn 0.437554 -0.119357 -0.891235
vn 0.265341 -0.592186 -0.760861
vn 0.316996 -0.646300 -0.694126
vn 0.192611 -0.544470 -0.816366
vn 0.084018 -0.724255 -0.684394
vn 0.107939 -0.742276 -0.661344
vn 0.051265 -0.709556 -0.702782
vn 0.016604 -0.697472 -0.716420
vn 0.016604 -0.697472 -0.716420
vn 0.102909 -0.508814 -0.854704
vn 0.102909 -0.508814 -0.854704
vn -0.020312 -0.689294 -0.724197
vn 0.001445 -0.495672 -0.868509
vn -0.059048 -0.686783 -0.724460
vn -0.100073 -0.496901 -0.862018
vn -0.099056 -0.691314 -0.715732
vn -0.198527 -0.514506 -0.834189
vn -0.136364 -0.701101 -0.699902
vn -0.282264 -0.547253 -0.787935
vn -0.160724 -0.717990 -0.677243
vn -0.343782 -0.593643 -0.727600
vn -0.171919 -0.743421 -0.646351
vn -0.388623 -0.651029 -0.652023
vn -0.174112 -0.769471 -0.614491
vn -0.408679 -0.711388 -0.571759
vn -0.166644 -0.793912 -0.584751
vn -0.395810 -0.775363 -0.492083
vn -0.152869 -0.818203 -0.554233
vn -0.354457 -0.837005 -0.416872
vn -0.132595 -0.839707 -0.526603
vn -0.290503 -0.888897 -0.354217
vn -0.103200 -0.856159 -0.506302
vn -0.207594 -0.928721 -0.307217
vn -0.065695 -0.864486 -0.498346
vn -0.113628 -0.952431 -0.282778
vn -0.025865 -0.864582 -0.501826
vn -0.011710 -0.959304 -0.282131
vn 0.011807 -0.858312 -0.512992
vn 0.090644 -0.949450 -0.300547
vn 0.045158 -0.847250 -0.529272
vn 0.187127 -0.923123 -0.335897
vn 0.075255 -0.832375 -0.549079
vn 0.265234 -0.883095 -0.387032
vn 0.098295 -0.813612 -0.573039
vn 0.316717 -0.830143 -0.458860
vn 0.112170 -0.791079 -0.601342
vn 0.344832 -0.767907 -0.539823
vn 0.116641 -0.765639 -0.632607
vn 0.345090 -0.705832 -0.618638
vn 0.751474 -0.452713 -0.479935
vn 0.748978 -0.582223 -0.316304
vn 0.988272 0.003519 -0.152661
vn 0.984338 -0.165683 0.060233
vn 0.871065 0.440766 0.216730
vn 0.871372 0.291558 0.394595
vn 0.516268 0.706638 0.483870
vn 0.520175 0.623362 0.583813
vn 0.488192 0.533094 0.690999
vn 0.420013 0.457142 0.783971
vn 0.807642 0.151636 0.569843
vn 0.683918 0.020414 0.729274
vn 0.913119 -0.317353 0.255933
vn 0.763869 -0.468169 0.444210
vn 0.685507 -0.708507 -0.167624
vn 0.571328 -0.820450 -0.021115
vn 0.407784 -0.908422 0.092093
vn 0.226022 -0.958400 0.174311
vn 0.550126 -0.582676 0.598206
vn 0.314334 -0.650354 0.691544
vn 0.503561 -0.073634 0.860816
vn 0.292674 -0.137800 0.946231
vn 0.316549 0.405221 0.857667
vn 0.187496 0.372988 0.908694
vn 0.049761 0.359156 0.931950
vn -0.084591 0.368197 0.925892
vn 0.060101 -0.161212 0.985088
vn -0.177212 -0.143963 0.973586
vn 0.051558 -0.676108 0.734996
vn -0.221011 -0.651222 0.725991
vn 0.020841 -0.976973 0.212344
vn -0.189162 -0.959752 0.207592
vn -0.387132 -0.908500 0.157343
vn -0.557009 -0.828226 0.061499
vn -0.475108 -0.580707 0.661099
vn -0.689840 -0.472470 0.548537
vn -0.397911 -0.085555 0.913426
vn -0.582781 0.011688 0.812545
vn -0.207741 0.403015 0.891304
vn -0.318914 0.458301 0.829611
vn -0.402830 0.529719 0.746409
vn -0.457379 0.610447 0.646652
vn -0.728060 0.134387 0.672211
vn -0.818505 0.275532 0.504114
vn -0.858982 -0.335019 0.387185
vn -0.965014 -0.180145 0.190517
vn -0.686833 -0.723567 -0.068634
vn -0.766334 -0.602588 -0.222754
vn -0.791195 -0.471006 -0.390082
vn -0.756850 -0.342661 -0.556562
vn -0.999495 -0.010832 -0.029859
vn -0.956026 0.154783 -0.249112
vn -0.849511 0.422051 0.316549
vn -0.813101 0.567128 0.131272
vn -0.475602 0.694604 0.539748
vn -0.453789 0.778294 0.433974
vn 0.462300 0.691241 0.555396
vn -0.090696 0.782369 0.616176
vn -0.395970 0.855647 0.333282
vn -0.718935 0.694038 -0.037988
vn -0.570125 0.799801 -0.187820
vn -0.847500 0.297330 -0.439702
vn -0.672128 0.419210 -0.610333
vn -0.672575 -0.224324 -0.705210
vn -0.539942 -0.126588 -0.832129
vn -0.365263 -0.060051 -0.928966
vn -0.168102 -0.023709 -0.985485
vn -0.446697 0.506171 -0.737735
vn -0.192527 0.555326 -0.809041
vn -0.373622 0.878685 -0.297185
vn -0.149977 0.919460 -0.363456
vn 0.086835 0.923128 -0.374559
vn 0.316968 0.885817 -0.338908
vn 0.317083 0.885796 -0.338855
vn 0.066267 0.987883 0.140344
vn 0.078711 0.558817 -0.825547
vn 0.346664 0.518923 -0.781373
vn 0.346664 0.518923 -0.781373
vn 0.041924 -0.024853 -0.998812
vn 0.250983 -0.052864 -0.966547
vn 0.250983 -0.052864 -0.966547
vn 0.122665 0.966537 0.225298
vn -0.006142 0.675134 0.737670
vn 0.816540 0.576801 -0.023745
vn 0.444296 0.824531 -0.350355
vn -0.105392 0.894335 -0.434807
vn -0.613087 0.753648 -0.236936
vn -0.873136 0.459152 0.163746
vn -0.787118 0.131623 0.602595
vn -0.401324 -0.102309 0.910205
vn -0.401432 -0.102379 0.910149
vn 0.129491 -0.160286 0.978540
vn 0.613530 -0.025760 0.789251
vn 0.876046 0.252651 0.410745
vn 0.750301 0.657668 0.067247
vn 0.403855 0.887528 -0.221801
vn -0.095426 0.951995 -0.290859
vn -0.554268 0.824827 -0.111571
vn -0.794246 0.555399 0.246384
vn -0.724021 0.248852 0.643325
vn -0.373657 0.022987 0.927282
vn -0.373743 0.022990 0.927247
vn 0.120135 -0.038298 0.992019
vn 0.572776 0.087245 0.815056
vn 0.813412 0.352096 0.463022
vn 0.607414 0.757281 0.239943
vn 0.328622 0.944277 0.018670
vn -0.065721 0.997366 -0.030699
vn -0.427835 0.897203 0.109473
vn -0.621531 0.680779 0.387608
vn -0.571616 0.428902 0.699499
vn -0.293897 0.237888 0.925761
vn -0.294001 0.237966 0.925708
vn 0.106082 0.182780 0.977414
vn 0.472721 0.285641 0.833633
vn 0.663711 0.505873 0.550981
vn 0.464109 0.805164 0.369208
vn 0.252006 0.944836 0.209231
vn -0.040118 0.983774 0.174871
vn -0.309342 0.910011 0.276019
vn -0.459810 0.747456 0.479461
vn -0.429988 0.552130 0.714327
vn -0.220696 0.399214 0.889900
vn -0.220791 0.399208 0.889879
vn 0.090001 0.353925 0.930933
vn 0.373709 0.436974 0.818166
vn 0.514404 0.611739 0.600969
vn 0.906519 0.254449 -0.336866
vn 0.331695 0.818846 0.468476
vn 0.481039 0.523391 -0.703323
vn 0.181442 0.914229 0.362305
vn -0.018215 0.940188 0.340168
vn -0.132642 0.599552 -0.789268
vn -0.203244 0.890657 0.406721
vn -0.694247 0.452348 -0.559824
vn -0.313458 0.778030 0.544439
vn -0.984369 0.140403 -0.106319
vn -0.300260 0.636163 0.710732
vn -0.894645 -0.213237 0.392608
vn -0.153203 0.520407 0.840063
vn -0.153300 0.520402 0.840048
vn -0.467135 -0.473490 0.746721
vn -0.467135 -0.473490 0.746721
vn 0.132894 -0.545706 0.827372
vn 0.073631 0.485419 0.871175
vn 0.683693 -0.404727 0.607257
vn 0.279852 0.549590 0.787168
vn 0.981177 -0.100696 0.164780
vn 0.375033 0.680408 0.629599
vn 0.897468 0.265516 -0.352210
vn 0.470192 0.526928 -0.708002
vn -0.131632 0.599629 -0.789379
vn -0.684127 0.457763 -0.567823
vn -0.980499 0.152633 -0.123796
vn -0.903719 -0.202245 0.377345
vn -0.477916 -0.469993 0.742093
vn -0.477916 -0.469993 0.742093
vn 0.133888 -0.545642 0.827254
vn 0.693995 -0.399312 0.599100
vn 0.985164 -0.088407 0.147091
vn 0.184910 -0.822562 0.537773
vn -0.040741 -0.781449 -0.622637
vn 0.184814 -0.822576 0.537785
vn -0.027852 -0.774171 -0.632363
vn -0.027852 -0.774171 -0.632363
vn -0.018791 -0.775366 -0.631233
vn -0.018694 -0.775432 -0.631155
vn 0.217110 -0.820463 0.528871
vn 0.217110 -0.820463 0.528871
vn -0.010973 -0.785425 -0.618859
vn -0.010977 -0.785554 -0.618696
vn -0.015369 -0.790451 -0.612333
vn -0.015371 -0.790511 -0.612254
vn -0.023770 -0.792892 -0.608898
vn -0.023870 -0.792889 -0.608898
vn -0.033228 -0.791627 -0.610101
vn -0.039663 -0.787222 -0.615393
vn -0.033130 -0.791691 -0.610022
vn -0.039565 -0.787288 -0.615315
vn -0.040744 -0.781511 -0.622559
f 4/4/4 220/220/220 8/8/8
f 1/1/1 4/4/4 8/8/8
f 6/6/6 88/88/88 5/5/5
f 2/2/2 6/6/6 5/5/5
f 12/12/12 7/7/7 3/3/3
f 10/10/10 12/12/12 3/3/3
f 10/10/10 3/3/3 9/9/9
f 11/11/11 10/10/10 9/9/9
f 13/13/13 10/10/10 11/11/11
f 16/16/16 13/13/13 11/11/11
f 13/13/13 12/12/12 10/10/10
f 14/14/14 83/83/83 12/12/12
f 13/13/13 14/14/14 12/12/12
f 13/13/13 15/15/15 17/17/17
f 14/14/14 13/13/13 17/17/17
f 16/16/16 15/15/15 13/13/13
f 16/16/16 11/11/11 19/19/19
f 15/15/15 16/16/16 19/19/19
f 15/15/15 18/18/18 31/31/31
f 17/17/17 15/15/15 31/31/31
f 15/15/15 19/19/19 18/18/18
f 19/19/19 20/20/20 23/23/23
f 18/18/18 19/19/19 23/23/23
f 11/11/11 9/9/9 20/20/20
f 19/19/19 11/11/11 20/20/20
f 220/220/220 22/22/22 21/21/21
f 8/8/8 220/220/220 21/21/21
f 22/22/22 25/25/25 24/24/24
f 21/21/21 22/22/22 24/24/24
f 25/25/25 28/28/28 27/27/27
f 24/24/24 25/25/25 27/27/27
f 18/18/18 23/23/23 26/26/26
f 31/31/31 18/18/18 26/26/26
f 28/28/28 204/204/204 30/30/30
f 27/27/27 28/28/28 30/30/30
f 31/31/31 26/26/26 29/29/29
f 32/32/32 31/31/31 29/29/29
f 17/17/17 31/31/31 32/32/32
f 32/32/32 29/29/29 34/34/34
f 33/33/33 32/32/32 34/34/34
f 17/17/17 32/32/32 33/33/33
f 37/37/37 17/17/17 33/33/33
f 33/33/33 34/34/34 202/202/202
f 36/36/36 33/33/33 202/202/202
f 37/37/37 33/33/33 36/36/36
f 14/14/14 17/17/17 37/37/37
f 38/38/38 14/14/14 37/37/37
f 38/38/38 37/37/37 39/39/39
f 40/40/40 38/38/38 39/39/39
f 37/37/37 36/36/36 42/42/42
f 39/39/39 37/37/37 42/42/42
f 40/40/40 39/39/39 41/41/41
f 68/68/68 40/40/40 41/41/41
f 39/39/39 42/42/42 45/45/45
f 41/41/41 39/39/39 45/45/45
f 42/42/42 43/43/43 46/46/46
f 45/45/45 42/42/42 46/46/46
f 36/36/36 202/202/202 43/43/43
f 42/42/42 36/36/36 43/43/43
f 45/45/45 46/46/46 49/49/49
f 48/48/48 45/45/45 49/49/49
f 41/41/41 45/45/45 48/48/48
f 48/48/48 49/49/49 52/52/52
f 51/51/51 48/48/48 52/52/52
f 41/41/41 48/48/48 51/51/51
f 55/55/55 41/41/41 51/51/51
f 51/51/51 52/52/52 227/227/227
f 54/54/54 51/51/51 227/227/227
f 55/55/55 51/51/51 54/54/54
f 57/57/57 55/55/55 54/54/54
f 57/57/57 56/56/56 55/55/55
f 68/68/68 41/41/41 55/55/55
f 56/56/56 68/68/68 55/55/55
f 57/57/57 58/58/58 61/61/61
f 56/56/56 57/57/57 61/61/61
f 57/57/57 54/54/54 58/58/58
f 58/58/58 60/60/60 63/63/63
f 61/61/61 58/58/58 63/63/63
f 54/54/54 227/227/227 60/60/60
f 58/58/58 54/54/54 60/60/60
f 61/61/61 63/63/63 66/66/66
f 64/64/64 61/61/61 66/66/66
f 56/56/56 61/61/61 64/64/64
f 68/68/68 56/56/56 64/64/64
f 64/64/64 66/66/66 70/70/70
f 67/67/67 64/64/64 70/70/70
f 68/68/68 64/64/64 67/67/67
f 68/68/68 67/67/67 71/71/71
f 40/40/40 68/68/68 71/71/71
f 67/67/67 70/70/70 73/73/73
f 71/71/71 67/67/67 73/73/73
f 71/71/71 73/73/73 76/76/76
f 74/74/74 71/71/71 76/76/76
f 40/40/40 71/71/71 74/74/74
f 38/38/38 40/40/40 74/74/74
f 74/74/74 76/76/76 79/79/79
f 77/77/77 74/74/74 79/79/79
f 38/38/38 74/74/74 77/77/77
f 77/77/77 79/79/79 82/82/82
f 80/80/80 77/77/77 82/82/82
f 38/38/38 77/77/77 80/80/80
f 14/14/14 38/38/38 80/80/80
f 80/80/80 82/82/82 85/85/85
f 83/83/83 80/80/80 85/85/85
f 14/14/14 80/80/80 83/83/83
f 83/83/83 85/85/85 7/7/7
f 12/12/12 83/83/83 7/7/7
f 87/87/87 86/86/86 84/84/84
f 81/81/81 87/87/87 84/84/84
f 86/86/86 88/88/88 6/6/6
f 84/84/84 86/86/86 6/6/6
f 91/91/91 89/89/89 86/86/86
f 87/87/87 91/91/91 86/86/86
f 86/86/86 89/89/89 90/90/90
f 88/88/88 86/86/86 90/90/90
f 92/92/92 93/93/93 90/90/90
f 89/89/89 92/92/92 90/90/90
f 94/94/94 92/92/92 89/89/89
f 91/91/91 94/94/94 89/89/89
f 95/95/95 97/97/97 93/93/93
f 92/92/92 95/95/95 93/93/93
f 94/94/94 96/96/96 95/95/95
f 92/92/92 94/94/94 95/95/95
f 99/99/99 98/98/98 95/95/95
f 96/96/96 99/99/99 95/95/95
f 98/98/98 100/100/100 97/97/97
f 95/95/95 98/98/98 97/97/97
f 102/102/102 101/101/101 98/98/98
f 99/99/99 102/102/102 98/98/98
f 101/101/101 103/103/103 100/100/100
f 98/98/98 101/101/101 100/100/100
f 103/103/103 105/105/105 107/107/107
f 100/100/100 103/103/103 107/107/107
f 104/104/104 108/108/108 109/109/109
f 106/106/106 104/104/104 109/109/109
f 108/108/108 110/110/110 111/111/111
f 109/109/109 108/108/108 111/111/111
f 110/110/110 112/112/112 113/113/113
f 111/111/111 110/110/110 113/113/113
f 112/112/112 114/114/114 115/115/115
f 113/113/113 112/112/112 115/115/115
f 114/114/114 116/116/116 117/117/117
f 115/115/115 114/114/114 117/117/117
f 116/116/116 118/118/118 119/119/119
f 117/117/117 116/116/116 119/119/119
f 118/118/118 120/120/120 121/121/121
f 119/119/119 118/118/118 121/121/121
f 120/120/120 122/122/122 123/123/123
f 121/121/121 120/120/120 123/123/123
f 122/122/122 124/124/124 125/125/125
f 123/123/123 122/122/122 125/125/125
f 124/124/124 126/126/126 127/127/127
f 125/125/125 124/124/124 127/127/127
f 126/126/126 128/128/128 129/129/129
f 127/127/127 126/126/126 129/129/129
f 128/128/128 130/130/130 131/131/131
f 129/129/129 128/128/128 131/131/131
f 130/130/130 132/132/132 133/133/133
f 131/131/131 130/130/130 133/133/133
f 132/132/132 134/134/134 135/135/135
f 133/133/133 132/132/132 135/135/135
f 134/134/134 136/136/136 137/137/137
f 135/135/135 134/134/134 137/137/137
f 136/136/136 138/138/138 139/139/139
f 137/137/137 136/136/136 139/139/139
f 138/138/138 140/140/140 141/141/141
f 139/139/139 138/138/138 141/141/141
f 140/140/140 142/142/142 143/143/143
f 141/141/141 140/140/140 143/143/143
f 142/142/142 144/144/144 145/145/145
f 143/143/143 142/142/142 145/145/145
f 99/99/99 145/145/145 144/144/144
f 102/102/102 99/99/99 144/144/144
f 143/143/143 145/145/145 146/146/146
f 147/147/147 143/143/143 146/146/146
f 145/145/145 99/99/99 96/96/96
f 146/146/146 145/145/145 96/96/96
f 147/147/147 146/146/146 148/148/148
f 149/149/149 147/147/147 148/148/148
f 146/146/146 96/96/96 94/94/94
f 148/148/148 146/146/146 94/94/94
f 149/149/149 148/148/148 150/150/150
f 151/151/151 149/149/149 150/150/150
f 148/148/148 94/94/94 91/91/91
f 150/150/150 148/148/148 91/91/91
f 151/151/151 150/150/150 152/152/152
f 153/153/153 151/151/151 152/152/152
f 150/150/150 91/91/91 87/87/87
f 152/152/152 150/150/150 87/87/87
f 153/153/153 152/152/152 78/78/78
f 75/75/75 153/153/153 78/78/78
f 152/152/152 87/87/87 81/81/81
f 78/78/78 152/152/152 81/81/81
f 156/156/156 151/151/151 153/153/153
f 154/154/154 156/156/156 153/153/153
f 154/154/154 153/153/153 75/75/75
f 72/72/72 154/154/154 75/75/75
f 157/157/157 156/156/156 154/154/154
f 155/155/155 157/157/157 154/154/154
f 155/155/155 154/154/154 72/72/72
f 69/69/69 155/155/155 72/72/72
f 159/159/159 158/158/158 156/156/156
f 157/157/157 159/159/159 156/156/156
f 158/158/158 149/149/149 151/151/151
f 156/156/156 158/158/158 151/151/151
f 161/161/161 160/160/160 158/158/158
f 159/159/159 161/161/161 158/158/158
f 160/160/160 147/147/147 149/149/149
f 158/158/158 160/160/160 149/149/149
f 139/139/139 141/141/141 160/160/160
f 161/161/161 139/139/139 160/160/160
f 141/141/141 143/143/143 147/147/147
f 160/160/160 141/141/141 147/147/147
f 137/137/137 139/139/139 161/161/161
f 162/162/162 137/137/137 161/161/161
f 162/162/162 161/161/161 159/159/159
f 164/164/164 162/162/162 159/159/159
f 135/135/135 137/137/137 162/162/162
f 163/163/163 135/135/135 162/162/162
f 163/163/163 162/162/162 164/164/164
f 165/165/165 163/163/163 164/164/164
f 165/165/165 164/164/164 166/166/166
f 167/167/167 165/165/165 166/166/166
f 164/164/164 159/159/159 157/157/157
f 166/166/166 164/164/164 157/157/157
f 167/167/167 166/166/166 168/168/168
f 169/169/169 167/167/167 168/168/168
f 166/166/166 157/157/157 155/155/155
f 168/168/168 166/166/166 155/155/155
f 169/169/169 168/168/168 65/65/65
f 62/62/62 169/169/169 65/65/65
f 168/168/168 155/155/155 69/69/69
f 65/65/65 168/168/168 69/69/69
f 172/172/172 167/167/167 169/169/169
f 170/170/170 172/172/172 169/169/169
f 170/170/170 169/169/169 62/62/62
f 59/59/59 170/170/170 62/62/62
f 173/173/173 172/172/172 170/170/170
f 171/171/171 173/173/173 170/170/170
f 171/171/171 170/170/170 59/59/59
f 228/228/228 171/171/171 59/59/59
f 175/175/175 174/174/174 172/172/172
f 173/173/173 175/175/175 172/172/172
f 174/174/174 165/165/165 167/167/167
f 172/172/172 174/174/174 167/167/167
f 177/177/177 176/176/176 174/174/174
f 175/175/175 177/177/177 174/174/174
f 176/176/176 163/163/163 165/165/165
f 174/174/174 176/176/176 165/165/165
f 131/131/131 133/133/133 176/176/176
f 177/177/177 131/131/131 176/176/176
f 133/133/133 135/135/135 163/163/163
f 176/176/176 133/133/133 163/163/163
f 129/129/129 131/131/131 177/177/177
f 178/178/178 129/129/129 177/177/177
f 178/178/178 177/177/177 175/175/175
f 180/180/180 178/178/178 175/175/175
f 127/127/127 129/129/129 178/178/178
f 179/179/179 127/127/127 178/178/178
f 179/179/179 178/178/178 180/180/180
f 181/181/181 179/179/179 180/180/180
f 181/181/181 180/180/180 182/182/182
f 183/183/183 181/181/181 182/182/182
f 180/180/180 175/175/175 173/173/173
f 182/182/182 180/180/180 173/173/173
f 183/183/183 182/182/182 184/184/184
f 185/185/185 183/183/183 184/184/184
f 182/182/182 173/173/173 171/171/171
f 184/184/184 182/182/182 171/171/171
f 185/185/185 184/184/184 53/53/53
f 50/50/50 185/185/185 53/53/53
f 184/184/184 171/171/171 228/228/228
f 53/53/53 184/184/184 228/228/228
f 188/188/188 183/183/183 185/185/185
f 186/186/186 188/188/188 185/185/185
f 186/186/186 185/185/185 50/50/50
f 47/47/47 186/186/186 50/50/50
f 189/189/189 188/188/188 186/186/186
f 187/187/187 189/189/189 186/186/186
f 187/187/187 186/186/186 47/47/47
f 44/44/44 187/187/187 47/47/47
f 191/191/191 190/190/190 188/188/188
f 189/189/189 191/191/191 188/188/188
f 190/190/190 181/181/181 183/183/183
f 188/188/188 190/190/190 183/183/183
f 193/193/193 192/192/192 190/190/190
f 191/191/191 193/193/193 190/190/190
f 192/192/192 179/179/179 181/181/181
f 190/190/190 192/192/192 181/181/181
f 123/123/123 125/125/125 192/192/192
f 193/193/193 123/123/123 192/192/192
f 125/125/125 127/127/127 179/179/179
f 192/192/192 125/125/125 179/179/179
f 121/121/121 123/123/123 193/193/193
f 194/194/194 121/121/121 193/193/193
f 194/194/194 193/193/193 191/191/191
f 196/196/196 194/194/194 191/191/191
f 119/119/119 121/121/121 194/194/194
f 195/195/195 119/119/119 194/194/194
f 195/195/195 194/194/194 196/196/196
f 197/197/197 195/195/195 196/196/196
f 197/197/197 196/196/196 198/198/198
f 199/199/199 197/197/197 198/198/198
f 196/196/196 191/191/191 189/189/189
f 198/198/198 196/196/196 189/189/189
f 199/199/199 198/198/198 200/200/200
f 201/201/201 199/199/199 200/200/200
f 198/198/198 189/189/189 187/187/187
f 200/200/200 198/198/198 187/187/187
f 201/201/201 200/200/200 203/203/203
f 35/35/35 201/201/201 203/203/203
f 200/200/200 187/187/187 44/44/44
f 203/203/203 200/200/200 44/44/44
f 205/205/205 199/199/199 201/201/201
f 204/204/204 205/205/205 201/201/201
f 204/204/204 201/201/201 35/35/35
f 30/30/30 204/204/204 35/35/35
f 206/206/206 205/205/205 204/204/204
f 28/28/28 206/206/206 204/204/204
f 208/208/208 207/207/207 205/205/205
f 206/206/206 208/208/208 205/205/205
f 207/207/207 197/197/197 199/199/199
f 205/205/205 207/207/207 199/199/199
f 210/210/210 209/209/209 207/207/207
f 208/208/208 210/210/210 207/207/207
f 209/209/209 195/195/195 197/197/197
f 207/207/207 209/209/209 197/197/197
f 115/115/115 117/117/117 209/209/209
f 210/210/210 115/115/115 209/209/209
f 117/117/117 119/119/119 195/195/195
f 209/209/209 117/117/117 195/195/195
f 113/113/113 115/115/115 210/210/210
f 211/211/211 113/113/113 210/210/210
f 211/211/211 210/210/210 208/208/208
f 213/213/213 211/211/211 208/208/208
f 111/111/111 113/113/113 211/211/211
f 212/212/212 111/111/111 211/211/211
f 212/212/212 211/211/211 213/213/213
f 214/214/214 212/212/212 213/213/213
f 214/214/214 213/213/213 215/215/215
f 216/216/216 214/214/214 215/215/215
f 213/213/213 208/208/208 206/206/206
f 215/215/215 213/213/213 206/206/206
f 216/216/216 215/215/215 25/25/25
f 22/22/22 216/216/216 25/25/25
f 215/215/215 206/206/206 28/28/28
f 25/25/25 215/215/215 28/28/28
f 221/221/221 214/214/214 216/216/216
f 217/217/217 221/221/221 216/216/216
f 217/217/217 216/216/216 22/22/22
f 220/220/220 217/217/217 22/22/22
f 222/222/222 221/221/221 217/217/217
f 218/218/218 222/222/222 217/217/217
f 218/218/218 217/217/217 220/220/220
f 4/4/4 218/218/218 220/220/220
f 225/225/225 224/224/224 221/221/221
f 222/222/222 225/225/225 221/221/221
f 224/224/224 212/212/212 214/214/214
f 221/221/221 224/224/224 214/214/214
f 106/106/106 109/109/109 224/224/224
f 225/225/225 106/106/106 224/224/224
f 109/109/109 111/111/111 212/212/212
f 224/224/224 109/109/109 212/212/212
f 100/100/100 107/107/107 226/226/226
f 97/97/97 100/100/100 226/226/226
f 97/97/97 226/226/226 223/223/223
f 93/93/93 97/97/97 223/223/223
f 93/93/93 223/223/223 219/219/219
f 90/90/90 93/93/93 219/219/219
f 90/90/90 219/219/219 5/5/5
f 88/88/88 90/90/90 5/5/5
f 250/250/250 239/239/239 229/229/229
f 240/240/240 250/250/250 229/229/229
f 230/230/230 241/241/241 240/240/240
f 229/229/229 230/230/230 240/240/240
f 231/231/231 242/242/242 241/241/241
f 230/230/230 231/231/231 241/241/241
f 232/232/232 243/243/243 242/242/242
f 231/231/231 232/232/232 242/242/242
f 233/233/233 244/244/244 243/243/243
f 232/232/232 233/233/233 243/243/243
f 234/234/234 245/245/245 244/244/244
f 233/233/233 234/234/234 244/244/244
f 236/236/236 247/247/247 245/245/245
f 234/234/234 236/236/236 245/245/245
f 237/237/237 248/248/248 246/246/246
f 235/235/235 237/237/237 246/246/246
f 238/238/238 249/249/249 248/248/248
f 237/237/237 238/238/238 248/248/248
f 239/239/239 250/250/250 249/249/249
f 238/238/238 239/239/239 249/249/249
f 251/251/251 261/261/261 250/250/250
f 240/240/240 251/251/251 250/250/250
f 241/241/241 252/252/252 251/251/251
f 240/240/240 241/241/241 251/251/251
f 242/242/242 253/253/253 252/252/252
f 241/241/241 242/242/242 252/252/252
f 243/243/243 254/254/254 253/253/253
f 242/242/242 243/243/243 253/253/253
f 244/244/244 255/255/255 254/254/254
f 243/243/243 244/244/244 254/254/254
f 245/245/245 256/256/256 255/255/255
f 244/244/244 245/245/245 255/255/255
f 247/247/247 258/258/258 256/256/256
f 245/245/245 247/247/247 256/256/256
f 248/248/248 259/259/259 257/257/257
f 246/246/246 248/248/248 257/257/257
f 249/249/249 260/260/260 259/259/259
f 248/248/248 249/249/249 259/259/259
f 250/250/250 261/261/261 260/260/260
f 249/249/249 250/250/250 260/260/260
f 262/262/262 272/272/272 261/261/261
f 251/251/251 262/262/262 261/261/261
f 252/252/252 263/263/263 262/262/262
f 251/251/251 252/252/252 262/262/262
f 253/253/253 264/264/264 263/263/263
f 252/252/252 253/253/253 263/263/263
f 254/254/254 265/265/265 264/264/264
f 253/253/253 254/254/254 264/264/264
f 255/255/255 266/266/266 265/265/265
f 254/254/254 255/255/255 265/265/265
f 256/256/256 267/267/267 266/266/266
f 255/255/255 256/256/256 266/266/266
f 258/258/258 269/269/269 267/267/267
f 256/256/256 258/258/258 267/267/267
f 259/259/259 270/270/270 268/268/268
f 257/257/257 259/259/259 268/268/268
f 260/260/260 271/271/271 270/270/270
f 259/259/259 260/260/260 270/270/270
f 261/261/261 272/272/272 271/271/271
f 260/260/260 261/261/261 271/271/271
f 274/274/274 294/294/294 272/272/272
f 262/262/262 274/274/274 272/272/272
f 263/263/263 276/276/276 274/274/274
f 262/262/262 263/263/263 274/274/274
f 264/264/264 277/277/277 276/276/276
f 263/263/263 264/264/264 276/276/276
f 265/265/265 279/279/279 277/277/277
f 264/264/264 265/265/265 277/277/277
f 266/266/266 281/281/281 279/279/279
f 265/265/265 266/266/266 279/279/279
f 267/267/267 283/283/283 281/281/281
f 266/266/266 267/267/267 281/281/281
f 269/269/269 286/286/286 283/283/283
f 267/267/267 269/269/269 283/283/283
f 270/270/270 290/290/290 285/285/285
f 268/268/268 270/270/270 285/285/285
f 271/271/271 292/292/292 290/290/290
f 270/270/270 271/271/271 290/290/290
f 272/272/272 294/294/294 292/292/292
f 271/271/271 272/272/272 292/292/292
f 278/278/278 280/280/280 298/298/298
f 297/297/297 278/278/278 298/298/298
f 297/297/297 296/296/296 275/275/275
f 278/278/278 297/297/297 275/275/275
f 296/296/296 295/295/295 273/273/273
f 275/275/275 296/296/296 273/273/273
f 295/295/295 305/305/305 293/293/293
f 273/273/273 295/295/295 293/293/293
f 305/305/305 304/304/304 291/291/291
f 293/293/293 305/305/305 291/291/291
f 291/291/291 304/304/304 303/303/303
f 289/289/289 291/291/291 303/303/303
f 303/303/303 301/301/301 287/287/287
f 289/289/289 303/303/303 287/287/287
f 302/302/302 300/300/300 284/284/284
f 288/288/288 302/302/302 284/284/284
f 300/300/300 299/299/299 282/282/282
f 284/284/284 300/300/300 282/282/282
f 299/299/299 298/298/298 280/280/280
f 282/282/282 299/299/299 280/280/280
f 306/306/306 308/308/308 325/325/325
f 307/307/307 306/306/306 325/325/325
f 309/309/309 310/310/310 308/308/308
f 306/306/306 309/309/309 308/308/308
f 311/311/311 312/312/312 310/310/310
f 309/309/309 311/311/311 310/310/310
f 313/313/313 314/314/314 312/312/312
f 311/311/311 313/313/313 312/312/312
f 315/315/315 316/316/316 314/314/314
f 313/313/313 315/315/315 314/314/314
f 317/317/317 318/318/318 316/316/316
f 315/315/315 317/317/317 316/316/316
f 319/319/319 320/320/320 318/318/318
f 317/317/317 319/319/319 318/318/318
f 321/321/321 323/323/323 320/320/320
f 319/319/319 321/321/321 320/320/320
f 324/324/324 323/323/323 321/321/321
f 322/322/322 324/324/324 321/321/321
f 307/307/307 325/325/325 324/324/324
f 322/322/322 307/307/307 324/324/324
