# GloomhavenVR - meta-quest-touch-plus right 'squeeze' (glTF material 0)
# generated by controllers_pipeline.py from webxr-input-profiles (MIT)
o quest3_right_squeeze__m0
v -0.009495 0.009617 -0.022988
v -0.009952 0.009428 -0.022746
v -0.010010 0.007938 -0.024220
v -0.009084 0.010819 -0.021389
v -0.005657 0.009646 -0.023216
v -0.001303 0.009606 -0.023384
v -0.005199 0.011168 -0.021550
v -0.006293 0.007535 -0.024336
v -0.002082 0.007066 -0.024427
v -0.006932 0.004410 -0.024606
v -0.002851 0.004085 -0.024380
v -0.007761 0.000706 -0.023479
v -0.010800 0.004841 -0.024737
v -0.011261 0.004774 -0.024363
v -0.011310 0.001208 -0.023898
v -0.011810 0.001324 -0.023553
v -0.011636 -0.003415 -0.022065
v -0.011058 -0.007839 -0.020246
v -0.012065 -0.003303 -0.021685
v -0.008236 -0.003548 -0.021820
v -0.008068 -0.007917 -0.020022
v -0.004379 -0.003681 -0.021579
v -0.004680 -0.007939 -0.019739
v -0.003802 0.000162 -0.023057
v -0.004222 -0.010979 -0.018403
v -0.007685 -0.010706 -0.018753
v -0.004158 -0.011388 -0.017877
v -0.007706 -0.011173 -0.018268
v -0.004100 -0.011496 -0.017321
v -0.007656 -0.011253 -0.017731
v -0.004310 -0.011207 -0.014893
v -0.007914 -0.010844 -0.015478
v -0.004680 -0.010727 -0.010990
v -0.008097 -0.010222 -0.011734
v -0.005278 -0.010140 -0.006766
v -0.008456 -0.009554 -0.007676
v -0.005864 -0.009773 -0.004734
v -0.008792 -0.009209 -0.005439
v -0.006198 -0.009504 -0.004293
v -0.008983 -0.008884 -0.004965
v -0.006467 -0.008955 -0.004020
v -0.008882 -0.008144 -0.004848
v -0.006844 -0.005917 -0.005296
v -0.009246 -0.005524 -0.005962
v -0.006646 -0.001384 -0.007116
v -0.009439 -0.001071 -0.007884
v -0.005582 0.003547 -0.009046
v -0.008643 0.003613 -0.009745
v -0.004213 0.007060 -0.010217
v -0.007785 0.007074 -0.011140
v -0.002758 0.010082 -0.011919
v -0.006308 0.009834 -0.012651
v -0.001460 0.011966 -0.014223
v -0.005350 0.011517 -0.014794
v -0.000607 0.012801 -0.016565
v -0.004895 0.012259 -0.016961
v -0.000530 0.012644 -0.019344
v -0.004897 0.012168 -0.019390
v -0.000784 0.011442 -0.021654
v -0.008729 0.011585 -0.019394
v -0.009208 0.011239 -0.019314
v -0.008647 0.011586 -0.017334
v -0.009104 0.011278 -0.017397
v -0.008761 0.011018 -0.015346
v -0.009242 0.010793 -0.015513
v -0.009436 0.009601 -0.013311
v -0.009850 0.009384 -0.013586
v -0.010293 0.007185 -0.011784
v -0.010658 0.007053 -0.012128
v -0.011276 0.003657 -0.010403
v -0.011530 0.003600 -0.010816
v -0.011797 -0.000812 -0.008562
v -0.012082 -0.000921 -0.009029
v -0.011357 -0.005193 -0.006587
v -0.010726 -0.006841 -0.005757
v -0.011701 -0.005383 -0.007010
v -0.010991 -0.007267 -0.006044
v -0.011714 -0.005529 -0.007469
v -0.010957 -0.007529 -0.006462
v -0.011410 -0.005820 -0.009378
v -0.012049 -0.001049 -0.009495
v -0.011651 -0.001471 -0.011258
v -0.011548 0.003494 -0.011221
v -0.011203 0.003078 -0.013076
v -0.010793 0.006857 -0.012485
v -0.010621 0.006373 -0.014225
v -0.010052 0.009091 -0.013877
v -0.009981 0.008887 -0.015685
v -0.009510 0.010467 -0.015693
v -0.009375 0.010904 -0.017462
v -0.009474 0.010818 -0.019238
v -0.010199 0.008231 -0.018364
v -0.009754 0.010256 -0.020931
v -0.010515 0.007750 -0.021463
v -0.010186 0.009148 -0.022468
v -0.009518 0.010577 -0.021160
v -0.010663 0.007681 -0.023434
v -0.011412 0.004679 -0.023884
v -0.010476 0.007858 -0.023863
v -0.011131 0.005038 -0.021233
v -0.011946 0.001451 -0.023072
v -0.011598 0.001992 -0.020159
v -0.012179 -0.003141 -0.021223
v -0.011877 -0.002663 -0.018424
v -0.011640 -0.007647 -0.019319
v -0.011484 -0.007096 -0.016869
v -0.010620 -0.009609 -0.018455
v -0.011520 -0.007807 -0.019809
v -0.010574 -0.009686 -0.018978
v -0.010331 -0.009547 -0.019431
v -0.010593 -0.009150 -0.016200
v -0.010540 -0.008424 -0.012566
v -0.011310 -0.006386 -0.013312
v -0.010682 -0.007760 -0.008583
v -0.011548 -0.002116 -0.014851
v -0.011212 0.002515 -0.016573
v -0.010727 0.005697 -0.017638
vt 0.882613 0.365496
vt 0.884140 0.363471
vt 0.876289 0.358672
vt 0.890422 0.370261
vt 0.873103 0.379763
vt 0.863230 0.398264
vt 0.884686 0.386800
vt 0.863326 0.369119
vt 0.848103 0.382971
vt 0.854824 0.352903
vt 0.837017 0.362258
vt 0.852017 0.330648
vt 0.871299 0.345863
vt 0.873686 0.344513
vt 0.869155 0.329561
vt 0.872199 0.329168
vt 0.870869 0.306978
vt 0.873310 0.285143
vt 0.873932 0.306959
vt 0.853871 0.304876
vt 0.860324 0.279494
vt 0.834325 0.302116
vt 0.845998 0.271544
vt 0.832125 0.331600
vt 0.858101 0.250501
vt 0.868793 0.264191
vt 0.861838 0.246839
vt 0.871671 0.261549
vt 0.865272 0.244183
vt 0.874079 0.259641
vt 0.881637 0.237779
vt 0.886618 0.255529
vt 0.908210 0.232701
vt 0.908176 0.251183
vt 0.937218 0.235047
vt 0.932041 0.251335
vt 0.951062 0.240659
vt 0.944682 0.254301
vt 0.954376 0.243792
vt 0.947377 0.256451
vt 0.957701 0.247767
vt 0.950710 0.259577
vt 0.965118 0.269357
vt 0.953854 0.274992
vt 0.968376 0.300989
vt 0.953439 0.302027
vt 0.966075 0.336307
vt 0.950898 0.330787
vt 0.960596 0.362094
vt 0.944992 0.351939
vt 0.949209 0.385666
vt 0.938195 0.371150
vt 0.933402 0.401786
vt 0.926385 0.383451
vt 0.917543 0.410692
vt 0.913566 0.389708
vt 0.898107 0.412093
vt 0.898761 0.390829
vt 0.879747 0.407606
vt 0.899992 0.373201
vt 0.900351 0.370446
vt 0.909883 0.372459
vt 0.909387 0.369896
vt 0.919355 0.368728
vt 0.918069 0.366411
vt 0.928192 0.359585
vt 0.926344 0.357760
vt 0.934071 0.345987
vt 0.931810 0.344840
vt 0.937818 0.326572
vt 0.935356 0.326277
vt 0.940982 0.302173
vt 0.938114 0.301991
vt 0.943596 0.278484
vt 0.945214 0.269499
vt 0.940606 0.278210
vt 0.942437 0.268129
vt 0.938135 0.277911
vt 0.940085 0.267085
vt 0.928482 0.277800
vt 0.935654 0.301817
vt 0.926437 0.301526
vt 0.933239 0.326050
vt 0.923744 0.325749
vt 0.929935 0.343924
vt 0.921363 0.342969
vt 0.924770 0.356230
vt 0.916280 0.356567
vt 0.917011 0.364512
vt 0.908926 0.367730
vt 0.900627 0.368098
vt 0.903674 0.355102
vt 0.892691 0.366135
vt 0.889309 0.354777
vt 0.885399 0.361749
vt 0.891677 0.368043
vt 0.880464 0.355797
vt 0.875797 0.343398
vt 0.878562 0.357104
vt 0.888026 0.342329
vt 0.874821 0.328921
vt 0.889231 0.327631
vt 0.876576 0.306988
vt 0.890856 0.304939
vt 0.879198 0.285033
vt 0.891427 0.282650
vt 0.879248 0.274459
vt 0.876532 0.285097
vt 0.876736 0.275262
vt 0.874134 0.276149
vt 0.890251 0.271290
vt 0.908756 0.267731
vt 0.909045 0.279722
vt 0.929425 0.266527
vt 0.908591 0.302543
vt 0.906672 0.326345
vt 0.905052 0.342393
vn -0.097484 0.659375 -0.745468
vn -0.694422 0.608492 -0.384078
vn -0.066686 0.302959 -0.950668
vn -0.148040 0.853520 -0.499588
vn -0.029959 0.608200 -0.793218
vn -0.023970 0.594814 -0.803506
vn -0.076347 0.836124 -0.543202
vn 0.006889 0.254028 -0.967172
vn 0.008383 0.236641 -0.971561
vn 0.030881 -0.131279 -0.990864
vn 0.031663 -0.148312 -0.988434
vn 0.046100 -0.331644 -0.942278
vn -0.056268 -0.074598 -0.995625
vn -0.786070 0.112583 -0.607799
vn -0.049917 -0.309749 -0.949507
vn -0.813091 -0.109179 -0.571807
vn -0.067218 -0.375709 -0.924297
vn -0.067434 -0.404915 -0.911864
vn -0.840929 -0.228036 -0.490753
vn 0.053959 -0.374989 -0.925457
vn 0.058892 -0.390005 -0.918928
vn 0.052592 -0.377113 -0.924673
vn 0.062022 -0.392987 -0.917450
vn 0.044837 -0.340140 -0.939305
vn 0.056837 -0.488078 -0.870947
vn 0.028614 -0.490577 -0.870928
vn -0.016184 -0.910534 -0.413117
vn -0.190783 -0.909039 -0.370471
vn -0.093653 -0.991615 0.089049
vn -0.296522 -0.950166 0.096221
vn -0.129874 -0.982575 0.132965
vn -0.347552 -0.927454 0.137974
vn -0.170297 -0.977061 0.127871
vn -0.380852 -0.916348 0.123525
vn -0.199628 -0.972248 0.121991
vn -0.401725 -0.910521 0.097819
vn -0.223978 -0.961781 0.157515
vn -0.418284 -0.898799 0.131146
vn -0.322475 -0.714454 0.620939
vn -0.504237 -0.561014 0.656513
vn -0.256517 0.143667 0.955803
vn -0.264971 0.232546 0.935795
vn -0.196080 0.369476 0.908317
vn -0.201398 0.373938 0.905323
vn -0.199112 0.385104 0.901138
vn -0.206329 0.386547 0.898893
vn -0.206740 0.394713 0.895243
vn -0.209299 0.396829 0.893712
vn -0.209982 0.488419 0.846968
vn -0.208646 0.476020 0.854325
vn -0.190660 0.711521 0.676304
vn -0.197259 0.689225 0.697178
vn -0.161409 0.898352 0.408547
vn -0.176544 0.885600 0.429588
vn -0.131091 0.986515 0.097994
vn -0.150466 0.981744 0.116358
vn -0.100151 0.967473 -0.232306
vn -0.117277 0.966947 -0.226405
vn -0.063576 0.829930 -0.554234
vn -0.187817 0.961115 -0.202443
vn -0.688734 0.722322 -0.062427
vn -0.218234 0.968825 0.117273
vn -0.666218 0.740727 0.086471
vn -0.231151 0.882831 0.408875
vn -0.660520 0.715920 0.226210
vn -0.252738 0.694376 0.673769
vn -0.732272 0.590238 0.339700
vn -0.286977 0.487429 0.824656
vn -0.832120 0.420252 0.361890
vn -0.329449 0.403109 0.853796
vn -0.924257 0.266861 0.273009
vn -0.352582 0.371971 0.858676
vn -0.957296 0.124224 0.261061
vn -0.345844 0.342479 0.873556
vn -0.353285 0.245615 0.902698
vn -0.942704 -0.007145 0.333552
vn -0.786072 -0.327132 0.524476
vn -0.971078 -0.219367 -0.094266
vn -0.762097 -0.646850 0.028154
vn -0.980275 -0.190728 -0.051807
vn -0.987348 -0.048719 -0.150896
vn -0.996804 -0.018266 -0.077773
vn -0.984196 0.083959 -0.155914
vn -0.992410 0.094704 -0.078443
vn -0.975579 0.197826 -0.095452
vn -0.982100 0.179078 -0.058406
vn -0.956153 0.290883 -0.034044
vn -0.968571 0.247969 -0.019548
vn -0.928407 0.371436 0.009777
vn -0.940607 0.338864 0.020746
vn -0.944535 0.326713 0.033340
vn -0.967710 0.249253 0.037555
vn -0.944940 0.325533 0.033429
vn -0.967512 0.244206 0.065448
vn -0.943252 0.332077 -0.000697
vn -0.692618 0.687558 -0.218048
vn -0.965037 0.262080 -0.004121
vn -0.981043 0.193737 0.004524
vn -0.747796 0.389920 -0.537368
vn -0.977100 0.199178 0.074860
vn -0.993327 0.110740 0.032215
vn -0.987829 0.129462 0.086212
vn -0.998722 0.005736 0.050218
vn -0.995705 0.025071 0.089129
vn -0.982717 -0.172057 0.068290
vn -0.983801 -0.152575 0.094110
vn -0.728763 -0.676306 0.107310
vn -0.840036 -0.364882 -0.401498
vn -0.576764 -0.761555 -0.295596
vn -0.064081 -0.499815 -0.863758
vn -0.748946 -0.650124 0.128137
vn -0.773392 -0.626942 0.093851
vn -0.987583 -0.152408 0.038100
vn -0.773947 -0.632320 0.034321
vn -0.999434 0.016880 0.029114
vn -0.992192 0.120118 0.033564
vn -0.980534 0.193057 0.035808
f 4/4/4 1/1/1 2/2/2
f 96/96/96 4/4/4 2/2/2
f 1/1/1 3/3/3 99/99/99
f 2/2/2 1/1/1 99/99/99
f 3/3/3 1/1/1 5/5/5
f 8/8/8 3/3/3 5/5/5
f 7/7/7 5/5/5 1/1/1
f 4/4/4 7/7/7 1/1/1
f 6/6/6 9/9/9 8/8/8
f 5/5/5 6/6/6 8/8/8
f 7/7/7 59/59/59 6/6/6
f 5/5/5 7/7/7 6/6/6
f 9/9/9 11/11/11 10/10/10
f 8/8/8 9/9/9 10/10/10
f 13/13/13 3/3/3 8/8/8
f 10/10/10 13/13/13 8/8/8
f 11/11/11 24/24/24 12/12/12
f 10/10/10 11/11/11 12/12/12
f 15/15/15 13/13/13 10/10/10
f 12/12/12 15/15/15 10/10/10
f 3/3/3 13/13/13 14/14/14
f 99/99/99 3/3/3 14/14/14
f 13/13/13 15/15/15 16/16/16
f 14/14/14 13/13/13 16/16/16
f 15/15/15 17/17/17 19/19/19
f 16/16/16 15/15/15 19/19/19
f 17/17/17 15/15/15 12/12/12
f 20/20/20 17/17/17 12/12/12
f 18/18/18 17/17/17 20/20/20
f 21/21/21 18/18/18 20/20/20
f 108/108/108 19/19/19 17/17/17
f 18/18/18 108/108/108 17/17/17
f 22/22/22 23/23/23 21/21/21
f 20/20/20 22/22/22 21/21/21
f 24/24/24 22/22/22 20/20/20
f 12/12/12 24/24/24 20/20/20
f 23/23/23 25/25/25 26/26/26
f 21/21/21 23/23/23 26/26/26
f 25/25/25 27/27/27 28/28/28
f 26/26/26 25/25/25 28/28/28
f 27/27/27 29/29/29 30/30/30
f 28/28/28 27/27/27 30/30/30
f 29/29/29 31/31/31 32/32/32
f 30/30/30 29/29/29 32/32/32
f 31/31/31 33/33/33 34/34/34
f 32/32/32 31/31/31 34/34/34
f 33/33/33 35/35/35 36/36/36
f 34/34/34 33/33/33 36/36/36
f 35/35/35 37/37/37 38/38/38
f 36/36/36 35/35/35 38/38/38
f 37/37/37 39/39/39 40/40/40
f 38/38/38 37/37/37 40/40/40
f 39/39/39 41/41/41 42/42/42
f 40/40/40 39/39/39 42/42/42
f 41/41/41 43/43/43 44/44/44
f 42/42/42 41/41/41 44/44/44
f 43/43/43 45/45/45 46/46/46
f 44/44/44 43/43/43 46/46/46
f 45/45/45 47/47/47 48/48/48
f 46/46/46 45/45/45 48/48/48
f 47/47/47 49/49/49 50/50/50
f 48/48/48 47/47/47 50/50/50
f 49/49/49 51/51/51 52/52/52
f 50/50/50 49/49/49 52/52/52
f 51/51/51 53/53/53 54/54/54
f 52/52/52 51/51/51 54/54/54
f 53/53/53 55/55/55 56/56/56
f 54/54/54 53/53/53 56/56/56
f 55/55/55 57/57/57 58/58/58
f 56/56/56 55/55/55 58/58/58
f 57/57/57 59/59/59 7/7/7
f 58/58/58 57/57/57 7/7/7
f 4/4/4 60/60/60 58/58/58
f 7/7/7 4/4/4 58/58/58
f 60/60/60 62/62/62 56/56/56
f 58/58/58 60/60/60 56/56/56
f 62/62/62 60/60/60 61/61/61
f 63/63/63 62/62/62 61/61/61
f 60/60/60 4/4/4 96/96/96
f 61/61/61 60/60/60 96/96/96
f 64/64/64 62/62/62 63/63/63
f 65/65/65 64/64/64 63/63/63
f 62/62/62 64/64/64 54/54/54
f 56/56/56 62/62/62 54/54/54
f 66/66/66 64/64/64 65/65/65
f 67/67/67 66/66/66 65/65/65
f 64/64/64 66/66/66 52/52/52
f 54/54/54 64/64/64 52/52/52
f 68/68/68 66/66/66 67/67/67
f 69/69/69 68/68/68 67/67/67
f 66/66/66 68/68/68 50/50/50
f 52/52/52 66/66/66 50/50/50
f 70/70/70 68/68/68 69/69/69
f 71/71/71 70/70/70 69/69/69
f 68/68/68 70/70/70 48/48/48
f 50/50/50 68/68/68 48/48/48
f 72/72/72 70/70/70 71/71/71
f 73/73/73 72/72/72 71/71/71
f 70/70/70 72/72/72 46/46/46
f 48/48/48 70/70/70 46/46/46
f 74/74/74 72/72/72 73/73/73
f 76/76/76 74/74/74 73/73/73
f 44/44/44 46/46/46 72/72/72
f 74/74/74 44/44/44 72/72/72
f 42/42/42 44/44/44 74/74/74
f 75/75/75 42/42/42 74/74/74
f 76/76/76 77/77/77 75/75/75
f 74/74/74 76/76/76 75/75/75
f 78/78/78 79/79/79 77/77/77
f 76/76/76 78/78/78 77/77/77
f 76/76/76 73/73/73 81/81/81
f 78/78/78 76/76/76 81/81/81
f 78/78/78 80/80/80 114/114/114
f 79/79/79 78/78/78 114/114/114
f 82/82/82 80/80/80 78/78/78
f 81/81/81 82/82/82 78/78/78
f 84/84/84 82/82/82 81/81/81
f 83/83/83 84/84/84 81/81/81
f 73/73/73 71/71/71 83/83/83
f 81/81/81 73/73/73 83/83/83
f 86/86/86 84/84/84 83/83/83
f 85/85/85 86/86/86 83/83/83
f 71/71/71 69/69/69 85/85/85
f 83/83/83 71/71/71 85/85/85
f 88/88/88 86/86/86 85/85/85
f 87/87/87 88/88/88 85/85/85
f 69/69/69 67/67/67 87/87/87
f 85/85/85 69/69/69 87/87/87
f 90/90/90 88/88/88 87/87/87
f 89/89/89 90/90/90 87/87/87
f 67/67/67 65/65/65 89/89/89
f 87/87/87 67/67/67 89/89/89
f 65/65/65 63/63/63 90/90/90
f 89/89/89 65/65/65 90/90/90
f 88/88/88 90/90/90 91/91/91
f 92/92/92 88/88/88 91/91/91
f 63/63/63 61/61/61 91/91/91
f 90/90/90 63/63/63 91/91/91
f 92/92/92 91/91/91 93/93/93
f 94/94/94 92/92/92 93/93/93
f 61/61/61 96/96/96 93/93/93
f 91/91/91 61/61/61 93/93/93
f 94/94/94 93/93/93 95/95/95
f 97/97/97 94/94/94 95/95/95
f 96/96/96 2/2/2 95/95/95
f 93/93/93 96/96/96 95/95/95
f 2/2/2 99/99/99 97/97/97
f 95/95/95 2/2/2 97/97/97
f 97/97/97 98/98/98 100/100/100
f 94/94/94 97/97/97 100/100/100
f 99/99/99 14/14/14 98/98/98
f 97/97/97 99/99/99 98/98/98
f 98/98/98 101/101/101 102/102/102
f 100/100/100 98/98/98 102/102/102
f 14/14/14 16/16/16 101/101/101
f 98/98/98 14/14/14 101/101/101
f 101/101/101 103/103/103 104/104/104
f 102/102/102 101/101/101 104/104/104
f 16/16/16 19/19/19 103/103/103
f 101/101/101 16/16/16 103/103/103
f 103/103/103 105/105/105 106/106/106
f 104/104/104 103/103/103 106/106/106
f 105/105/105 103/103/103 19/19/19
f 108/108/108 105/105/105 19/19/19
f 106/106/106 105/105/105 107/107/107
f 111/111/111 106/106/106 107/107/107
f 107/107/107 105/105/105 108/108/108
f 109/109/109 107/107/107 108/108/108
f 109/109/109 108/108/108 18/18/18
f 110/110/110 109/109/109 18/18/18
f 28/28/28 109/109/109 110/110/110
f 26/26/26 28/28/28 110/110/110
f 30/30/30 107/107/107 109/109/109
f 28/28/28 30/30/30 109/109/109
f 110/110/110 18/18/18 21/21/21
f 26/26/26 110/110/110 21/21/21
f 111/111/111 107/107/107 30/30/30
f 32/32/32 111/111/111 30/30/30
f 113/113/113 106/106/106 111/111/111
f 112/112/112 113/113/113 111/111/111
f 112/112/112 111/111/111 32/32/32
f 34/34/34 112/112/112 32/32/32
f 80/80/80 113/113/113 112/112/112
f 114/114/114 80/80/80 112/112/112
f 36/36/36 114/114/114 112/112/112
f 34/34/34 36/36/36 112/112/112
f 38/38/38 79/79/79 114/114/114
f 36/36/36 38/38/38 114/114/114
f 104/104/104 106/106/106 113/113/113
f 115/115/115 104/104/104 113/113/113
f 80/80/80 82/82/82 115/115/115
f 113/113/113 80/80/80 115/115/115
f 82/82/82 84/84/84 116/116/116
f 115/115/115 82/82/82 116/116/116
f 102/102/102 104/104/104 115/115/115
f 116/116/116 102/102/102 115/115/115
f 86/86/86 117/117/117 116/116/116
f 84/84/84 86/86/86 116/116/116
f 102/102/102 116/116/116 117/117/117
f 100/100/100 102/102/102 117/117/117
f 92/92/92 94/94/94 100/100/100
f 117/117/117 92/92/92 100/100/100
f 88/88/88 92/92/92 117/117/117
f 86/86/86 88/88/88 117/117/117
f 77/77/77 79/79/79 38/38/38
f 40/40/40 77/77/77 38/38/38
f 42/42/42 75/75/75 77/77/77
f 40/40/40 42/42/42 77/77/77
