# GloomhavenVR - meta-quest-touch-plus left 'trigger' (glTF material 0)
# generated by controllers_pipeline.py from webxr-input-profiles (MIT)
o quest3_left_trigger__m0
v 0.023721 -0.029453 0.021362
v 0.024893 -0.026433 0.024260
v 0.021736 -0.032231 0.019713
v 0.019916 -0.029995 0.023257
v 0.024090 -0.029142 0.020875
v 0.024229 -0.028615 0.020361
v 0.022054 -0.032279 0.019058
v 0.025201 -0.026026 0.023929
v 0.025286 -0.025449 0.023554
v 0.025156 -0.023977 0.027524
v 0.024832 -0.024389 0.027704
v 0.025286 -0.023425 0.027281
v 0.024310 -0.022818 0.031122
v 0.023994 -0.023250 0.031137
v 0.024435 -0.022244 0.031070
v 0.022329 -0.022321 0.035144
v 0.022116 -0.022716 0.035040
v 0.022408 -0.021810 0.035135
v 0.018788 -0.022736 0.038651
v 0.018639 -0.023096 0.038382
v 0.018834 -0.022253 0.038783
v 0.013232 -0.023712 0.040817
v 0.013200 -0.024070 0.040358
v 0.013211 -0.023192 0.041081
v 0.006890 -0.024551 0.040347
v 0.007031 -0.024813 0.039987
v 0.006749 -0.024144 0.040558
v 0.001739 -0.024980 0.037288
v 0.001491 -0.024581 0.037503
v 0.002063 -0.025222 0.036972
v -0.001649 -0.025198 0.033194
v -0.001996 -0.024675 0.033264
v -0.001178 -0.025537 0.033080
v -0.003457 -0.025785 0.029121
v -0.003800 -0.025277 0.028941
v -0.002997 -0.026127 0.029237
v -0.003970 -0.027263 0.024886
v -0.004303 -0.026649 0.024651
v -0.003500 -0.027682 0.025076
v -0.002730 -0.030038 0.021650
v -0.003011 -0.029732 0.021228
v -0.002330 -0.030194 0.022009
v -0.000193 -0.033106 0.019695
v 0.000233 -0.033184 0.020110
v -0.000504 -0.032832 0.019235
v 0.002790 -0.035571 0.018755
v 0.002606 -0.035457 0.018118
v 0.003056 -0.035402 0.019364
v 0.006606 -0.037645 0.018403
v 0.006380 -0.037620 0.017684
v 0.006843 -0.037294 0.019082
v 0.011727 -0.038531 0.018001
v 0.011814 -0.038540 0.017205
v 0.011598 -0.038106 0.018753
v 0.015527 -0.037529 0.017794
v 0.015335 -0.037154 0.018560
v 0.015673 -0.037484 0.016997
v 0.019319 -0.035038 0.017950
v 0.019376 -0.034857 0.017187
v 0.019101 -0.034875 0.018705
v 0.017816 -0.033735 0.020498
v 0.015105 -0.034789 0.020761
v 0.018837 -0.032111 0.021562
v 0.015458 -0.032823 0.022578
v 0.011628 -0.033318 0.023107
v 0.015985 -0.030891 0.024532
v 0.016381 -0.029030 0.026817
v 0.011820 -0.031464 0.025218
v 0.011888 -0.029765 0.027513
v 0.007169 -0.031381 0.024938
v 0.007444 -0.033211 0.022904
v 0.007012 -0.029651 0.027318
v 0.002440 -0.030845 0.023877
v 0.001887 -0.028922 0.026468
v 0.003533 -0.032848 0.022024
v 0.004555 -0.034247 0.021027
v 0.007567 -0.035087 0.021117
v 0.011531 -0.035392 0.021075
v 0.002117 -0.027433 0.029592
v 0.002815 -0.026420 0.032624
v 0.007125 -0.028110 0.030037
v 0.011972 -0.028186 0.030072
v 0.007470 -0.026800 0.032967
v 0.012193 -0.026738 0.032918
v 0.007759 -0.025701 0.036180
v 0.012628 -0.025381 0.036222
v 0.003954 -0.025823 0.035128
v 0.017035 -0.024651 0.035062
v 0.019889 -0.024160 0.033410
v 0.016619 -0.025955 0.032147
v 0.016516 -0.027379 0.029393
v 0.020429 -0.024822 0.031180
v 0.020718 -0.026033 0.028420
v 0.020661 -0.027785 0.025626
v 0.022159 -0.032098 0.018373
v 0.018634 -0.029560 0.013481
v 0.017544 -0.024550 0.010791
v 0.017544 -0.024550 0.010791
v 0.021717 -0.026926 0.015534
v 0.014725 -0.031910 0.012667
v 0.010654 -0.032958 0.012645
v 0.013615 -0.026403 0.009727
v 0.013615 -0.026403 0.009727
v 0.009655 -0.027280 0.009793
v 0.009655 -0.027280 0.009793
v 0.013643 -0.026604 0.008916
v 0.009607 -0.027452 0.008951
v 0.017845 -0.024629 0.009916
v 0.021576 -0.021814 0.012603
v 0.023654 -0.019746 0.015905
v 0.020864 -0.022196 0.013377
v 0.020864 -0.022196 0.013377
v 0.022871 -0.020230 0.016549
v 0.022871 -0.020230 0.016549
v 0.024159 -0.018848 0.020834
v 0.024159 -0.018848 0.020834
v 0.023638 -0.024307 0.018329
v 0.024732 -0.022107 0.022154
v 0.024906 -0.020773 0.026118
v 0.024144 -0.020387 0.030704
v 0.024577 -0.018381 0.025103
v 0.024577 -0.018381 0.025103
v 0.023925 -0.018675 0.030411
v 0.023925 -0.018675 0.030411
v 0.025352 -0.017660 0.024841
v 0.024867 -0.017913 0.030783
v 0.024962 -0.018109 0.020370
v 0.023208 -0.018425 0.035924
v 0.018803 -0.018866 0.040902
v 0.022101 -0.019490 0.034714
v 0.022101 -0.019490 0.034714
v 0.018392 -0.020474 0.038703
v 0.018392 -0.020474 0.038703
v 0.022232 -0.020656 0.034932
v 0.018586 -0.021317 0.038719
v 0.013094 -0.022388 0.040950
v 0.006660 -0.023464 0.040502
v 0.012944 -0.021650 0.040833
v 0.012944 -0.021650 0.040833
v 0.006579 -0.022859 0.040462
v 0.006579 -0.022859 0.040462
v 0.012826 -0.019726 0.043349
v 0.005692 -0.021666 0.042715
v 0.000279 -0.022866 0.038954
v 0.001288 -0.023246 0.037557
v 0.001288 -0.023246 0.037557
v -0.003270 -0.022815 0.033826
v -0.002491 -0.023048 0.033072
v -0.002491 -0.023048 0.033072
v -0.005547 -0.022634 0.028482
v -0.004743 -0.022873 0.028079
v -0.004743 -0.022873 0.028079
v -0.006462 -0.022809 0.023133
v -0.005532 -0.023134 0.023132
v -0.005532 -0.023134 0.023132
v -0.005316 -0.023904 0.017004
v -0.004453 -0.024160 0.017386
v -0.004453 -0.024160 0.017386
v -0.002601 -0.025329 0.013321
v -0.002002 -0.025431 0.014131
v -0.002002 -0.025431 0.014131
v 0.000651 -0.026699 0.011173
v 0.001033 -0.026540 0.012001
v 0.001033 -0.026540 0.012001
v 0.004802 -0.027519 0.009667
v 0.004949 -0.027360 0.010600
v 0.004949 -0.027360 0.010600
v 0.005465 -0.032514 0.013373
v 0.001579 -0.030959 0.014599
v -0.001466 -0.028947 0.016357
v -0.003787 -0.026727 0.019152
v -0.004855 -0.024756 0.023842
v -0.004225 -0.023960 0.028460
v -0.002230 -0.023808 0.033145
v 0.001379 -0.023868 0.037507
vt 0.189917 0.332263
vt 0.200703 0.315186
vt 0.176938 0.342179
vt 0.172135 0.320374
vt 0.192689 0.334721
vt 0.195695 0.337303
vt 0.178471 0.345734
vt 0.203755 0.316682
vt 0.207142 0.318249
vt 0.206871 0.295750
vt 0.203783 0.295193
vt 0.210222 0.296280
vt 0.203395 0.275302
vt 0.200359 0.275824
vt 0.206428 0.274472
vt 0.191630 0.253552
vt 0.189438 0.254895
vt 0.194007 0.252137
vt 0.170078 0.236532
vt 0.168683 0.238776
vt 0.171506 0.234282
vt 0.138592 0.228030
vt 0.138144 0.231142
vt 0.139031 0.224764
vt 0.104012 0.231856
vt 0.104796 0.234333
vt 0.103123 0.229400
vt 0.075259 0.249085
vt 0.073316 0.247056
vt 0.077224 0.251079
vt 0.055850 0.272788
vt 0.052589 0.271620
vt 0.059054 0.273649
vt 0.046748 0.297402
vt 0.043319 0.297994
vt 0.050039 0.296778
vt 0.047543 0.323253
vt 0.043869 0.324388
vt 0.050986 0.322052
vt 0.060464 0.342542
vt 0.058448 0.345036
vt 0.062439 0.340214
vt 0.078231 0.353087
vt 0.079881 0.350469
vt 0.076553 0.355720
vt 0.094569 0.357127
vt 0.093947 0.360494
vt 0.095018 0.353556
vt 0.111763 0.357502
vt 0.111255 0.361085
vt 0.111978 0.353579
vt 0.131618 0.357008
vt 0.132381 0.360559
vt 0.130796 0.353081
vt 0.146498 0.355757
vt 0.145710 0.351716
vt 0.147570 0.359435
vt 0.163744 0.352785
vt 0.164925 0.356738
vt 0.162764 0.348880
vt 0.158601 0.337802
vt 0.145820 0.337506
vt 0.164735 0.330820
vt 0.148305 0.326055
vt 0.129672 0.324813
vt 0.151875 0.314228
vt 0.154948 0.301104
vt 0.130398 0.312256
vt 0.130688 0.299242
vt 0.106939 0.315700
vt 0.109793 0.327950
vt 0.104960 0.302033
vt 0.083858 0.324685
vt 0.078315 0.309570
vt 0.091963 0.335576
vt 0.098499 0.341499
vt 0.112153 0.339374
vt 0.129694 0.337581
vt 0.077822 0.291593
vt 0.081005 0.274480
vt 0.104864 0.286918
vt 0.131210 0.285228
vt 0.106505 0.271025
vt 0.132548 0.270013
vt 0.108231 0.254040
vt 0.135052 0.252648
vt 0.087283 0.260544
vt 0.160009 0.256819
vt 0.176614 0.264300
vt 0.157553 0.272249
vt 0.156499 0.286967
vt 0.179590 0.276029
vt 0.180433 0.290942
vt 0.178347 0.306557
vt 0.179933 0.349168
vt 0.179481 0.382405
vt 0.193912 0.405811
vt 0.193912 0.405811
vt 0.199975 0.367508
vt 0.155711 0.389901
vt 0.133436 0.392569
vt 0.163990 0.418605
vt 0.163990 0.418605
vt 0.134091 0.422554
vt 0.134091 0.422554
vt 0.164137 0.423116
vt 0.134210 0.427014
vt 0.195530 0.410559
vt 0.224321 0.387151
vt 0.239944 0.362317
vt 0.219403 0.383589
vt 0.219403 0.383589
vt 0.234738 0.359569
vt 0.234738 0.359569
vt 0.241642 0.329488
vt 0.241642 0.329488
vt 0.215327 0.348657
vt 0.224404 0.323748
vt 0.225168 0.298652
vt 0.215863 0.271677
vt 0.238746 0.301322
vt 0.238746 0.301322
vt 0.224636 0.269100
vt 0.224636 0.269100
vt 0.244504 0.301451
vt 0.230099 0.265227
vt 0.247703 0.330880
vt 0.210226 0.236902
vt 0.178012 0.211391
vt 0.204591 0.245866
vt 0.204591 0.245866
vt 0.175595 0.225819
vt 0.175595 0.225819
vt 0.199156 0.248895
vt 0.173650 0.229877
vt 0.139647 0.220711
vt 0.101971 0.226110
vt 0.140001 0.216900
vt 0.140001 0.216900
vt 0.100929 0.223081
vt 0.100929 0.223081
vt 0.140047 0.200230
vt 0.096201 0.209776
vt 0.063361 0.233958
vt 0.068355 0.241831
vt 0.068355 0.241831
vt 0.039993 0.264764
vt 0.043951 0.269234
vt 0.043951 0.269234
vt 0.024606 0.297897
vt 0.028920 0.300350
vt 0.028920 0.300350
vt 0.018976 0.331648
vt 0.024258 0.331766
vt 0.024258 0.331766
vt 0.027717 0.370927
vt 0.032595 0.369013
vt 0.032595 0.369013
vt 0.046678 0.395917
vt 0.049775 0.391485
vt 0.049775 0.391485
vt 0.069586 0.411777
vt 0.071232 0.407180
vt 0.071232 0.407180
vt 0.099076 0.423160
vt 0.099391 0.418005
vt 0.099391 0.418005
vt 0.105291 0.390892
vt 0.082594 0.384993
vt 0.062461 0.374969
vt 0.044657 0.357790
vt 0.033569 0.328201
vt 0.035628 0.299143
vt 0.048057 0.270298
vt 0.070656 0.244434
vn 0.474788 -0.696313 0.538261
vn 0.481848 -0.727929 0.487793
vn 0.458057 -0.681755 0.570433
vn 0.380206 -0.711931 0.590421
vn 0.878424 -0.474989 0.052497
vn 0.907516 -0.134935 -0.397752
vn 0.754873 -0.649731 0.089530
vn 0.937126 -0.333883 0.101577
vn 0.981180 0.017236 -0.192326
vn 0.925567 -0.295453 0.236711
vn 0.464662 -0.774066 0.430013
vn 0.993118 0.108393 0.044366
vn 0.871439 -0.308219 0.381570
vn 0.451482 -0.810363 0.373465
vn 0.950002 0.137667 0.280255
vn 0.763765 -0.329276 0.555195
vn 0.420672 -0.841719 0.338445
vn 0.816575 0.124501 0.563652
vn 0.521552 -0.452345 0.723441
vn 0.317628 -0.886883 0.335487
vn 0.552332 0.048107 0.832235
vn 0.205321 -0.582399 0.786546
vn 0.174083 -0.927779 0.330031
vn 0.167162 -0.068925 0.983517
vn -0.133201 -0.672811 0.727724
vn 0.017652 -0.950942 0.308865
vn -0.256083 -0.192721 0.947249
vn -0.427985 -0.708660 0.560918
vn -0.609328 -0.287131 0.739105
vn -0.138550 -0.950531 0.278018
vn -0.614789 -0.653195 0.442008
vn -0.812911 -0.280059 0.510630
vn -0.245370 -0.922140 0.299085
vn -0.747457 -0.570412 0.340497
vn -0.918762 -0.268555 0.289402
vn -0.310382 -0.878895 0.362225
vn -0.796511 -0.556866 0.235522
vn -0.949942 -0.310815 0.031687
vn -0.354715 -0.822924 0.443816
vn -0.740377 -0.641281 0.201497
vn -0.879932 -0.426629 -0.209063
vn -0.365748 -0.762060 0.534315
vn -0.632868 -0.747703 0.201042
vn -0.359736 -0.711899 0.603149
vn -0.727744 -0.548155 -0.412208
vn -0.504985 -0.831311 0.232191
vn -0.525614 -0.638079 -0.562658
vn -0.317261 -0.694007 0.646297
vn -0.269544 -0.929632 0.251256
vn -0.268626 -0.697268 -0.664573
vn -0.151810 -0.710911 0.686702
vn 0.032926 -0.967419 0.251032
vn -0.017293 -0.696872 -0.716987
vn 0.055335 -0.717600 0.694254
vn 0.402350 -0.888657 0.220010
vn 0.280321 -0.697934 0.659020
vn 0.294900 -0.617990 -0.728781
vn 0.604264 -0.783868 0.142885
vn 0.544159 -0.485913 -0.683945
vn 0.419150 -0.687791 0.592669
vn 0.351537 -0.649532 0.674188
vn 0.248204 -0.661339 0.707832
vn 0.368250 -0.675396 0.638931
vn 0.258547 -0.703956 0.661514
vn 0.064216 -0.723525 0.687305
vn 0.284126 -0.744907 0.603644
vn 0.295932 -0.789844 0.537188
vn 0.075832 -0.776935 0.624997
vn 0.086339 -0.829043 0.552480
vn -0.137529 -0.778885 0.611902
vn -0.127709 -0.720608 0.681480
vn -0.123868 -0.839995 0.528267
vn -0.277364 -0.764543 0.581844
vn -0.256725 -0.839868 0.478241
vn -0.274520 -0.703371 0.655674
vn -0.252094 -0.658618 0.708993
vn -0.116353 -0.669970 0.733213
vn 0.060001 -0.674426 0.735900
vn -0.211600 -0.898900 0.383671
vn -0.153600 -0.938283 0.309891
vn -0.089567 -0.890555 0.445971
vn 0.100435 -0.874483 0.474545
vn -0.038866 -0.928428 0.369474
vn 0.120829 -0.911924 0.392167
vn 0.017425 -0.958071 0.286002
vn 0.152309 -0.939693 0.306234
vn -0.087749 -0.962270 0.257557
vn 0.279422 -0.909316 0.308330
vn 0.352496 -0.883261 0.309186
vn 0.282090 -0.876634 0.389792
vn 0.293303 -0.835638 0.464416
vn 0.368689 -0.852409 0.370766
vn 0.380988 -0.810458 0.444978
vn 0.385837 -0.759117 0.524281
vn 0.758093 -0.321387 -0.567455
vn 0.543955 -0.363031 -0.756520
vn 0.547309 -0.294631 -0.783355
vn 0.452538 -0.872957 0.182087
vn 0.765455 -0.204669 -0.610073
vn 0.273621 -0.489674 -0.827860
vn -0.034327 -0.564382 -0.824800
vn 0.302444 -0.927755 0.218628
vn 0.260885 -0.407464 -0.875164
vn 0.116551 -0.973968 0.194426
vn -0.036138 -0.462271 -0.886002
vn 0.287272 -0.932751 0.217832
vn 0.117064 -0.973886 0.194533
vn 0.440785 -0.877737 0.187846
vn 0.548979 -0.823802 0.141323
vn 0.614751 -0.782290 0.100513
vn 0.770317 -0.148947 -0.620021
vn 0.543950 -0.826852 0.142945
vn 0.908381 -0.016862 -0.417803
vn 0.616436 -0.781181 0.098805
vn 0.970206 0.071823 -0.231390
vn 0.662573 -0.747765 0.042943
vn 0.909295 -0.047694 -0.413411
vn 0.974791 0.066940 -0.212841
vn 0.988827 0.148378 0.014323
vn 0.948063 0.191816 0.253740
vn 0.990353 0.137219 -0.019271
vn 0.663589 -0.747734 0.023312
vn 0.957238 0.178115 0.227969
vn 0.630143 -0.772746 0.076047
vn 0.667795 -0.744045 0.021143
vn 0.628437 -0.773787 0.079502
vn 0.659257 -0.750402 0.047710
vn 0.561044 -0.775697 0.289006
vn 0.416326 -0.766304 0.489337
vn 0.829788 0.188766 0.525184
vn 0.569160 -0.778390 0.264888
vn 0.540235 0.177841 0.822508
vn 0.445040 -0.767908 0.460712
vn 0.809572 0.207399 0.549162
vn 0.532241 0.192429 0.824434
vn 0.144409 0.141271 0.979382
vn -0.279729 0.033394 0.959498
vn 0.249560 -0.791403 0.558033
vn 0.143786 0.130762 0.980932
vn 0.055324 -0.871923 0.486507
vn -0.273353 0.020534 0.961695
vn 0.244825 -0.792631 0.558387
vn 0.060099 -0.869293 0.490631
vn -0.119256 -0.951758 0.282728
vn -0.127187 -0.955734 0.265323
vn -0.640248 -0.134310 0.756336
vn -0.205090 -0.973195 0.104067
vn -0.211531 -0.972508 0.097379
vn -0.844734 -0.245048 0.475789
vn -0.258691 -0.962823 0.077786
vn -0.264301 -0.961143 0.079684
vn -0.917043 -0.321788 0.235553
vn -0.309759 -0.945756 0.097950
vn -0.310875 -0.945335 0.098487
vn -0.936290 -0.350675 -0.019693
vn -0.327630 -0.938137 0.112059
vn -0.327650 -0.938082 0.112457
vn -0.872253 -0.400219 -0.281067
vn -0.289861 -0.945032 0.151309
vn -0.294332 -0.944224 0.147683
vn -0.723758 -0.449127 -0.523889
vn -0.180895 -0.963213 0.198742
vn -0.187387 -0.962268 0.197296
vn -0.516992 -0.477109 -0.710694
vn -0.029732 -0.980534 0.194084
vn -0.041303 -0.979654 0.196395
vn -0.268010 -0.480388 -0.835104
vn -0.276269 -0.572174 -0.772200
vn -0.529370 -0.537609 -0.656310
vn -0.735612 -0.477392 -0.480595
vn -0.886705 -0.393169 -0.243253
vn -0.948346 -0.317191 0.005431
vn -0.929961 -0.256043 0.263845
vn -0.844486 -0.188934 0.501146
vn -0.643108 -0.106764 0.758296
f 8/8/8 2/2/2 1/1/1
f 5/5/5 8/8/8 1/1/1
f 4/4/4 1/1/1 2/2/2
f 94/94/94 4/4/4 2/2/2
f 7/7/7 5/5/5 1/1/1
f 3/3/3 7/7/7 1/1/1
f 1/1/1 4/4/4 63/63/63
f 3/3/3 1/1/1 63/63/63
f 9/9/9 8/8/8 5/5/5
f 6/6/6 9/9/9 5/5/5
f 95/95/95 6/6/6 5/5/5
f 7/7/7 95/95/95 5/5/5
f 8/8/8 10/10/10 11/11/11
f 2/2/2 8/8/8 11/11/11
f 9/9/9 12/12/12 10/10/10
f 8/8/8 9/9/9 10/10/10
f 11/11/11 10/10/10 13/13/13
f 14/14/14 11/11/11 13/13/13
f 10/10/10 12/12/12 15/15/15
f 13/13/13 10/10/10 15/15/15
f 14/14/14 13/13/13 16/16/16
f 17/17/17 14/14/14 16/16/16
f 13/13/13 15/15/15 18/18/18
f 16/16/16 13/13/13 18/18/18
f 19/19/19 20/20/20 17/17/17
f 16/16/16 19/19/19 17/17/17
f 21/21/21 19/19/19 16/16/16
f 18/18/18 21/21/21 16/16/16
f 20/20/20 19/19/19 22/22/22
f 23/23/23 20/20/20 22/22/22
f 19/19/19 21/21/21 24/24/24
f 22/22/22 19/19/19 24/24/24
f 25/25/25 26/26/26 23/23/23
f 22/22/22 25/25/25 23/23/23
f 27/27/27 25/25/25 22/22/22
f 24/24/24 27/27/27 22/22/22
f 28/28/28 30/30/30 26/26/26
f 25/25/25 28/28/28 26/26/26
f 29/29/29 28/28/28 25/25/25
f 27/27/27 29/29/29 25/25/25
f 32/32/32 31/31/31 28/28/28
f 29/29/29 32/32/32 28/28/28
f 31/31/31 33/33/33 30/30/30
f 28/28/28 31/31/31 30/30/30
f 35/35/35 34/34/34 31/31/31
f 32/32/32 35/35/35 31/31/31
f 34/34/34 36/36/36 33/33/33
f 31/31/31 34/34/34 33/33/33
f 34/34/34 35/35/35 38/38/38
f 37/37/37 34/34/34 38/38/38
f 36/36/36 34/34/34 37/37/37
f 39/39/39 36/36/36 37/37/37
f 37/37/37 38/38/38 41/41/41
f 40/40/40 37/37/37 41/41/41
f 39/39/39 37/37/37 40/40/40
f 42/42/42 39/39/39 40/40/40
f 40/40/40 41/41/41 45/45/45
f 43/43/43 40/40/40 45/45/45
f 42/42/42 40/40/40 43/43/43
f 44/44/44 42/42/42 43/43/43
f 44/44/44 43/43/43 46/46/46
f 48/48/48 44/44/44 46/46/46
f 43/43/43 45/45/45 47/47/47
f 46/46/46 43/43/43 47/47/47
f 46/46/46 47/47/47 50/50/50
f 49/49/49 46/46/46 50/50/50
f 48/48/48 46/46/46 49/49/49
f 51/51/51 48/48/48 49/49/49
f 49/49/49 50/50/50 53/53/53
f 52/52/52 49/49/49 53/53/53
f 51/51/51 49/49/49 52/52/52
f 54/54/54 51/51/51 52/52/52
f 53/53/53 57/57/57 55/55/55
f 52/52/52 53/53/53 55/55/55
f 52/52/52 55/55/55 56/56/56
f 54/54/54 52/52/52 56/56/56
f 55/55/55 58/58/58 60/60/60
f 56/56/56 55/55/55 60/60/60
f 57/57/57 59/59/59 58/58/58
f 55/55/55 57/57/57 58/58/58
f 59/59/59 95/95/95 7/7/7
f 58/58/58 59/59/59 7/7/7
f 58/58/58 7/7/7 3/3/3
f 60/60/60 58/58/58 3/3/3
f 63/63/63 61/61/61 60/60/60
f 3/3/3 63/63/63 60/60/60
f 60/60/60 61/61/61 62/62/62
f 56/56/56 60/60/60 62/62/62
f 64/64/64 62/62/62 61/61/61
f 63/63/63 64/64/64 61/61/61
f 66/66/66 64/64/64 63/63/63
f 4/4/4 66/66/66 63/63/63
f 64/64/64 65/65/65 78/78/78
f 62/62/62 64/64/64 78/78/78
f 68/68/68 65/65/65 64/64/64
f 66/66/66 68/68/68 64/64/64
f 4/4/4 94/94/94 67/67/67
f 66/66/66 4/4/4 67/67/67
f 69/69/69 68/68/68 66/66/66
f 67/67/67 69/69/69 66/66/66
f 71/71/71 65/65/65 68/68/68
f 70/70/70 71/71/71 68/68/68
f 70/70/70 68/68/68 69/69/69
f 72/72/72 70/70/70 69/69/69
f 73/73/73 75/75/75 71/71/71
f 70/70/70 73/73/73 71/71/71
f 70/70/70 72/72/72 74/74/74
f 73/73/73 70/70/70 74/74/74
f 42/42/42 73/73/73 74/74/74
f 39/39/39 42/42/42 74/74/74
f 73/73/73 42/42/42 44/44/44
f 75/75/75 73/73/73 44/44/44
f 75/75/75 44/44/44 48/48/48
f 76/76/76 75/75/75 48/48/48
f 75/75/75 76/76/76 77/77/77
f 71/71/71 75/75/75 77/77/77
f 76/76/76 48/48/48 51/51/51
f 77/77/77 76/76/76 51/51/51
f 77/77/77 51/51/51 54/54/54
f 78/78/78 77/77/77 54/54/54
f 77/77/77 78/78/78 65/65/65
f 71/71/71 77/77/77 65/65/65
f 62/62/62 78/78/78 54/54/54
f 56/56/56 62/62/62 54/54/54
f 79/79/79 74/74/74 72/72/72
f 81/81/81 79/79/79 72/72/72
f 39/39/39 74/74/74 79/79/79
f 36/36/36 39/39/39 79/79/79
f 80/80/80 79/79/79 81/81/81
f 83/83/83 80/80/80 81/81/81
f 36/36/36 79/79/79 80/80/80
f 33/33/33 36/36/36 80/80/80
f 81/81/81 82/82/82 84/84/84
f 83/83/83 81/81/81 84/84/84
f 72/72/72 69/69/69 82/82/82
f 81/81/81 72/72/72 82/82/82
f 83/83/83 84/84/84 86/86/86
f 85/85/85 83/83/83 86/86/86
f 83/83/83 85/85/85 87/87/87
f 80/80/80 83/83/83 87/87/87
f 26/26/26 85/85/85 86/86/86
f 23/23/23 26/26/26 86/86/86
f 30/30/30 87/87/87 85/85/85
f 26/26/26 30/30/30 85/85/85
f 33/33/33 80/80/80 87/87/87
f 30/30/30 33/33/33 87/87/87
f 86/86/86 84/84/84 90/90/90
f 88/88/88 86/86/86 90/90/90
f 88/88/88 20/20/20 23/23/23
f 86/86/86 88/88/88 23/23/23
f 92/92/92 89/89/89 88/88/88
f 90/90/90 92/92/92 88/88/88
f 89/89/89 17/17/17 20/20/20
f 88/88/88 89/89/89 20/20/20
f 93/93/93 92/92/92 90/90/90
f 91/91/91 93/93/93 90/90/90
f 84/84/84 82/82/82 91/91/91
f 90/90/90 84/84/84 91/91/91
f 93/93/93 11/11/11 14/14/14
f 92/92/92 93/93/93 14/14/14
f 92/92/92 14/14/14 17/17/17
f 89/89/89 92/92/92 17/17/17
f 91/91/91 67/67/67 94/94/94
f 93/93/93 91/91/91 94/94/94
f 94/94/94 2/2/2 11/11/11
f 93/93/93 94/94/94 11/11/11
f 91/91/91 82/82/82 69/69/69
f 67/67/67 91/91/91 69/69/69
f 96/96/96 59/59/59 57/57/57
f 100/100/100 96/96/96 57/57/57
f 99/99/99 95/95/95 59/59/59
f 96/96/96 99/99/99 59/59/59
f 97/97/97 96/96/96 100/100/100
f 103/103/103 97/97/97 100/100/100
f 111/111/111 99/99/99 96/96/96
f 97/97/97 111/111/111 96/96/96
f 100/100/100 57/57/57 53/53/53
f 101/101/101 100/100/100 53/53/53
f 103/103/103 100/100/100 101/101/101
f 105/105/105 103/103/103 101/101/101
f 104/104/104 107/107/107 106/106/106
f 102/102/102 104/104/104 106/106/106
f 108/108/108 98/98/98 102/102/102
f 106/106/106 108/108/108 102/102/102
f 109/109/109 112/112/112 98/98/98
f 108/108/108 109/109/109 98/98/98
f 112/112/112 109/109/109 110/110/110
f 114/114/114 112/112/112 110/110/110
f 113/113/113 117/117/117 99/99/99
f 111/111/111 113/113/113 99/99/99
f 114/114/114 110/110/110 127/127/127
f 116/116/116 114/114/114 127/127/127
f 118/118/118 117/117/117 113/113/113
f 115/115/115 118/118/118 113/113/113
f 117/117/117 6/6/6 95/95/95
f 99/99/99 117/117/117 95/95/95
f 118/118/118 9/9/9 6/6/6
f 117/117/117 118/118/118 6/6/6
f 119/119/119 12/12/12 9/9/9
f 118/118/118 119/119/119 9/9/9
f 121/121/121 119/119/119 118/118/118
f 115/115/115 121/121/121 118/118/118
f 12/12/12 119/119/119 120/120/120
f 15/15/15 12/12/12 120/120/120
f 123/123/123 120/120/120 119/119/119
f 121/121/121 123/123/123 119/119/119
f 116/116/116 127/127/127 125/125/125
f 122/122/122 116/116/116 125/125/125
f 126/126/126 124/124/124 122/122/122
f 125/125/125 126/126/126 122/122/122
f 124/124/124 126/126/126 128/128/128
f 131/131/131 124/124/124 128/128/128
f 131/131/131 128/128/128 129/129/129
f 133/133/133 131/131/131 129/129/129
f 130/130/130 134/134/134 120/120/120
f 123/123/123 130/130/130 120/120/120
f 132/132/132 135/135/135 134/134/134
f 130/130/130 132/132/132 134/134/134
f 135/135/135 21/21/21 18/18/18
f 134/134/134 135/135/135 18/18/18
f 15/15/15 120/120/120 134/134/134
f 18/18/18 15/15/15 134/134/134
f 21/21/21 135/135/135 136/136/136
f 24/24/24 21/21/21 136/136/136
f 139/139/139 136/136/136 135/135/135
f 132/132/132 139/139/139 135/135/135
f 137/137/137 27/27/27 24/24/24
f 136/136/136 137/137/137 24/24/24
f 141/141/141 137/137/137 136/136/136
f 139/139/139 141/141/141 136/136/136
f 133/133/133 129/129/129 142/142/142
f 138/138/138 133/133/133 142/142/142
f 138/138/138 142/142/142 143/143/143
f 140/140/140 138/138/138 143/143/143
f 140/140/140 143/143/143 144/144/144
f 145/145/145 140/140/140 144/144/144
f 145/145/145 144/144/144 147/147/147
f 148/148/148 145/145/145 147/147/147
f 150/150/150 151/151/151 148/148/148
f 147/147/147 150/150/150 148/148/148
f 153/153/153 154/154/154 151/151/151
f 150/150/150 153/153/153 151/151/151
f 156/156/156 157/157/157 154/154/154
f 153/153/153 156/156/156 154/154/154
f 159/159/159 160/160/160 157/157/157
f 156/156/156 159/159/159 157/157/157
f 160/160/160 159/159/159 162/162/162
f 163/163/163 160/160/160 162/162/162
f 163/163/163 162/162/162 165/165/165
f 166/166/166 163/163/163 165/165/165
f 166/166/166 165/165/165 107/107/107
f 104/104/104 166/166/166 107/107/107
f 167/167/167 168/168/168 169/169/169
f 164/164/164 167/167/167 169/169/169
f 105/105/105 101/101/101 168/168/168
f 167/167/167 105/105/105 168/168/168
f 47/47/47 169/169/169 168/168/168
f 50/50/50 47/47/47 168/168/168
f 50/50/50 168/168/168 101/101/101
f 53/53/53 50/50/50 101/101/101
f 164/164/164 169/169/169 170/170/170
f 161/161/161 164/164/164 170/170/170
f 45/45/45 170/170/170 169/169/169
f 47/47/47 45/45/45 169/169/169
f 41/41/41 171/171/171 170/170/170
f 45/45/45 41/41/41 170/170/170
f 161/161/161 170/170/170 171/171/171
f 158/158/158 161/161/161 171/171/171
f 158/158/158 171/171/171 172/172/172
f 155/155/155 158/158/158 172/172/172
f 38/38/38 172/172/172 171/171/171
f 41/41/41 38/38/38 171/171/171
f 155/155/155 172/172/172 173/173/173
f 152/152/152 155/155/155 173/173/173
f 35/35/35 173/173/173 172/172/172
f 38/38/38 35/35/35 172/172/172
f 152/152/152 173/173/173 174/174/174
f 149/149/149 152/152/152 174/174/174
f 173/173/173 35/35/35 32/32/32
f 174/174/174 173/173/173 32/32/32
f 149/149/149 174/174/174 175/175/175
f 146/146/146 149/149/149 175/175/175
f 174/174/174 32/32/32 29/29/29
f 175/175/175 174/174/174 29/29/29
f 146/146/146 175/175/175 137/137/137
f 141/141/141 146/146/146 137/137/137
f 175/175/175 29/29/29 27/27/27
f 137/137/137 175/175/175 27/27/27
