# GloomhavenVR - meta-quest-touch-plus-v2 right 'button_primary' (glTF material 0)
# generated by controllers_pipeline.py from webxr-input-profiles (MIT)
o quest3_right_button_primary__m0
v -0.005420 0.008890 0.021029
v -0.005837 0.008625 0.021128
v -0.004430 0.008540 0.021664
v -0.005522 0.009683 0.020085
v -0.004191 0.009590 0.020650
v -0.005274 0.010673 0.018781
v -0.006246 0.009548 0.019876
v -0.006704 0.009419 0.019776
v -0.006052 0.010578 0.018448
v -0.006540 0.010500 0.018216
v -0.005322 0.011472 0.017160
v -0.004207 0.012087 0.016323
v -0.004661 0.011507 0.017537
v -0.005715 0.011459 0.016868
v -0.004398 0.012159 0.015986
v -0.005927 0.011330 0.016505
v -0.006823 0.010350 0.017980
v -0.004556 0.012034 0.015565
v -0.006121 0.009033 0.014653
v -0.004676 0.009816 0.013654
v -0.007076 0.007901 0.016137
v -0.007178 0.006640 0.017755
v -0.006970 0.009189 0.019635
v -0.006553 0.005490 0.019213
v -0.006357 0.008112 0.021107
v -0.005276 0.004574 0.020353
v -0.005110 0.007298 0.022284
v -0.003430 0.003976 0.021056
v -0.003307 0.006723 0.022976
v -0.001358 0.003884 0.021121
v -0.001303 0.006621 0.023027
v 0.000510 0.004285 0.020586
v 0.000482 0.006982 0.022498
v 0.001969 0.005049 0.019534
v 0.001898 0.007722 0.021478
v 0.002848 0.006148 0.018074
v 0.002762 0.008803 0.020043
v 0.002967 0.007405 0.016466
v 0.002854 0.010008 0.018470
v 0.002344 0.008532 0.015065
v 0.002217 0.011095 0.017077
v 0.001036 0.009473 0.013885
v 0.000980 0.011959 0.015981
v -0.000782 0.010054 0.013185
v -0.000772 0.012480 0.015290
v -0.002837 0.010173 0.013128
v -0.002794 0.012478 0.015141
v -0.002707 0.012565 0.015586
v -0.002701 0.012425 0.016033
v -0.000828 0.012580 0.015681
v -0.000950 0.012418 0.016166
v 0.000880 0.012128 0.016294
v 0.002095 0.011315 0.017346
v 0.000658 0.012007 0.016703
v 0.001774 0.011302 0.017574
v 0.000377 0.011758 0.017365
v 0.001368 0.011272 0.017856
v 0.000157 0.011094 0.018613
v -0.001149 0.012135 0.016925
v -0.001525 0.011526 0.018225
v -0.002779 0.012181 0.016724
v -0.003271 0.011616 0.017889
v -0.003968 0.011996 0.016745
v -0.003835 0.010729 0.019288
v -0.002003 0.010528 0.019761
v -0.000183 0.010097 0.020056
v -0.002489 0.009313 0.021159
v -0.000750 0.009005 0.021351
v -0.002880 0.008190 0.022172
v -0.003093 0.007521 0.022689
v -0.001241 0.008008 0.022294
v -0.000046 0.008009 0.022121
v -0.001332 0.007402 0.022767
v 0.000192 0.007646 0.022362
v -0.001329 0.007013 0.023048
v 0.000379 0.007356 0.022548
v -0.003224 0.007091 0.022998
v -0.004963 0.007602 0.022335
v -0.006165 0.008413 0.021202
v -0.004727 0.007958 0.022099
v 0.001734 0.008075 0.021580
v 0.001336 0.008329 0.021485
v 0.002564 0.009112 0.020218
v 0.002068 0.009321 0.020210
v 0.002685 0.010268 0.018706
v 0.002226 0.010384 0.018799
v 0.001489 0.010602 0.018857
v 0.001273 0.009637 0.020188
v 0.000652 0.008677 0.021383
vt 0.455605 0.085044
vt 0.457565 0.086929
vt 0.449521 0.087626
vt 0.457663 0.078551
vt 0.449936 0.079609
vt 0.458308 0.069458
vt 0.461749 0.079073
vt 0.464289 0.079716
vt 0.462902 0.069285
vt 0.465816 0.069164
vt 0.460691 0.059803
vt 0.455553 0.052796
vt 0.456640 0.060651
vt 0.463205 0.058970
vt 0.456974 0.051174
vt 0.465195 0.057728
vt 0.467894 0.068966
vt 0.458671 0.049231
vt 0.478978 0.051147
vt 0.468291 0.038026
vt 0.484008 0.068919
vt 0.481369 0.086740
vt 0.466214 0.080407
vt 0.472463 0.101242
vt 0.460612 0.089832
vt 0.459006 0.111401
vt 0.452008 0.096043
vt 0.441854 0.115791
vt 0.441120 0.098994
vt 0.424215 0.113408
vt 0.430115 0.097128
vt 0.409512 0.104833
vt 0.421251 0.091526
vt 0.399501 0.091375
vt 0.414462 0.083455
vt 0.394694 0.074510
vt 0.411390 0.072706
vt 0.396626 0.056816
vt 0.412946 0.061659
vt 0.404768 0.042214
vt 0.418341 0.052638
vt 0.418613 0.031404
vt 0.426607 0.046106
vt 0.435763 0.026556
vt 0.437288 0.043211
vt 0.453608 0.029248
vt 0.448892 0.044240
vt 0.447942 0.046534
vt 0.447538 0.049036
vt 0.437483 0.045393
vt 0.437805 0.048185
vt 0.427543 0.047928
vt 0.419825 0.053905
vt 0.428499 0.050356
vt 0.421457 0.055251
vt 0.429506 0.054288
vt 0.423499 0.056957
vt 0.429450 0.061855
vt 0.438283 0.052600
vt 0.439053 0.060471
vt 0.447334 0.053022
vt 0.448774 0.060418
vt 0.453777 0.054812
vt 0.450047 0.069811
vt 0.439774 0.070520
vt 0.429520 0.071331
vt 0.440321 0.080747
vt 0.430757 0.080746
vt 0.440673 0.089146
vt 0.440828 0.093878
vt 0.431835 0.088468
vt 0.425651 0.086501
vt 0.431430 0.092616
vt 0.423920 0.088465
vt 0.430849 0.095142
vt 0.422570 0.090002
vt 0.440914 0.096884
vt 0.451083 0.094381
vt 0.459123 0.088433
vt 0.450280 0.091823
vt 0.416385 0.082426
vt 0.418852 0.081532
vt 0.413599 0.072548
vt 0.416536 0.072313
vt 0.414941 0.062333
vt 0.417512 0.062834
vt 0.421699 0.063131
vt 0.421198 0.071951
vt 0.422959 0.080585
vn -0.238254 0.703064 0.670027
vn -0.281935 0.679864 0.676977
vn -0.136926 0.679819 0.720484
vn -0.248663 0.765533 0.593402
vn -0.132455 0.749846 0.648218
vn -0.241875 0.824313 0.511864
vn -0.325934 0.758002 0.564977
vn -0.547911 0.648921 0.527915
vn -0.319467 0.821235 0.472772
vn -0.510948 0.776439 0.368883
vn -0.286893 0.876004 0.387699
vn -0.203267 0.926573 0.316457
vn -0.216461 0.875576 0.431869
vn -0.454123 0.866971 0.205266
vn -0.316816 0.946159 0.066405
vn -0.784463 0.477870 -0.395295
vn -0.954879 0.271146 -0.121187
vn -0.490848 0.633858 -0.597740
vn -0.793699 0.422387 -0.437756
vn -0.495990 0.580107 -0.646119
vn -0.963809 0.213698 -0.159392
vn -0.988897 -0.022642 0.146866
vn -0.982978 0.029484 0.181339
vn -0.864276 -0.250640 0.436127
vn -0.859998 -0.207508 0.466202
vn -0.603708 -0.435737 0.667585
vn -0.600167 -0.394456 0.695848
vn -0.253807 -0.546163 0.798303
vn -0.253496 -0.505255 0.824898
vn 0.138945 -0.567711 0.811417
vn 0.141477 -0.526062 0.838596
vn 0.509647 -0.494210 0.704284
vn 0.510285 -0.452074 0.731600
vn 0.801456 -0.337599 0.493655
vn 0.798763 -0.298016 0.522651
vn 0.968000 -0.126724 0.216603
vn 0.965654 -0.089664 0.243870
vn 0.990440 0.108574 -0.085092
vn 0.987855 0.142241 -0.062528
vn 0.863612 0.336902 -0.375062
vn 0.860095 0.367471 -0.353839
vn 0.608268 0.519036 -0.600509
vn 0.605982 0.552839 -0.571975
vn 0.257078 0.632593 -0.730573
vn 0.256461 0.676137 -0.690700
vn -0.123772 0.654009 -0.746292
vn -0.125045 0.704851 -0.698247
vn -0.104792 0.994040 0.030054
vn -0.070679 0.946304 0.315458
vn 0.119668 0.992119 0.037133
vn 0.049318 0.937358 0.344858
vn 0.370949 0.926691 0.060337
vn 0.592170 0.787723 0.169786
vn 0.163997 0.909166 0.382781
vn 0.268456 0.849074 0.454978
vn 0.139708 0.882910 0.448276
vn 0.223193 0.844244 0.487275
vn 0.133791 0.829573 0.542134
vn 0.041099 0.910227 0.412065
vn 0.027303 0.862984 0.504494
vn -0.067001 0.921678 0.382127
vn -0.097000 0.877135 0.470346
vn -0.174523 0.916275 0.360530
vn -0.125299 0.818878 0.560124
vn 0.007565 0.798274 0.602247
vn 0.120687 0.770435 0.625991
vn -0.016700 0.726550 0.686911
vn 0.088350 0.709883 0.698756
vn -0.039212 0.660519 0.749785
vn -0.055813 0.610039 0.790403
vn 0.053744 0.647081 0.760525
vn 0.140389 0.638146 0.757008
vn 0.047907 0.598212 0.799905
vn 0.162066 0.607605 0.777529
vn 0.095855 0.275831 0.956415
vn 0.333082 0.288501 0.897677
vn -0.125808 0.316226 0.940305
vn -0.341618 0.376797 0.861000
vn -0.518107 0.485405 0.704235
vn -0.164368 0.631079 0.758104
vn 0.509726 0.396265 0.763645
vn 0.240063 0.660941 0.711004
vn 0.608000 0.523182 0.597174
vn 0.275782 0.717681 0.639436
vn 0.654063 0.646186 0.393250
vn 0.293417 0.775319 0.559273
vn 0.223308 0.793413 0.566242
vn 0.209825 0.742504 0.636130
vn 0.180515 0.690722 0.700227
f 4/4/4 7/7/7 2/2/2
f 1/1/1 4/4/4 2/2/2
f 80/80/80 3/3/3 1/1/1
f 2/2/2 80/80/80 1/1/1
f 1/1/1 3/3/3 5/5/5
f 4/4/4 1/1/1 5/5/5
f 64/64/64 6/6/6 4/4/4
f 5/5/5 64/64/64 4/4/4
f 9/9/9 7/7/7 4/4/4
f 6/6/6 9/9/9 4/4/4
f 8/8/8 79/79/79 2/2/2
f 7/7/7 8/8/8 2/2/2
f 8/8/8 7/7/7 9/9/9
f 10/10/10 8/8/8 9/9/9
f 6/6/6 13/13/13 11/11/11
f 9/9/9 6/6/6 11/11/11
f 11/11/11 14/14/14 10/10/10
f 9/9/9 11/11/11 10/10/10
f 14/14/14 11/11/11 12/12/12
f 15/15/15 14/14/14 12/12/12
f 12/12/12 11/11/11 13/13/13
f 63/63/63 12/12/12 13/13/13
f 15/15/15 18/18/18 16/16/16
f 14/14/14 15/15/15 16/16/16
f 14/14/14 16/16/16 17/17/17
f 10/10/10 14/14/14 17/17/17
f 19/19/19 21/21/21 17/17/17
f 16/16/16 19/19/19 17/17/17
f 20/20/20 19/19/19 16/16/16
f 18/18/18 20/20/20 16/16/16
f 21/21/21 22/22/22 23/23/23
f 17/17/17 21/21/21 23/23/23
f 22/22/22 24/24/24 25/25/25
f 23/23/23 22/22/22 25/25/25
f 24/24/24 26/26/26 27/27/27
f 25/25/25 24/24/24 27/27/27
f 26/26/26 28/28/28 29/29/29
f 27/27/27 26/26/26 29/29/29
f 28/28/28 30/30/30 31/31/31
f 29/29/29 28/28/28 31/31/31
f 30/30/30 32/32/32 33/33/33
f 31/31/31 30/30/30 33/33/33
f 32/32/32 34/34/34 35/35/35
f 33/33/33 32/32/32 35/35/35
f 34/34/34 36/36/36 37/37/37
f 35/35/35 34/34/34 37/37/37
f 36/36/36 38/38/38 39/39/39
f 37/37/37 36/36/36 39/39/39
f 38/38/38 40/40/40 41/41/41
f 39/39/39 38/38/38 41/41/41
f 40/40/40 42/42/42 43/43/43
f 41/41/41 40/40/40 43/43/43
f 42/42/42 44/44/44 45/45/45
f 43/43/43 42/42/42 45/45/45
f 44/44/44 46/46/46 47/47/47
f 45/45/45 44/44/44 47/47/47
f 46/46/46 20/20/20 18/18/18
f 47/47/47 46/46/46 18/18/18
f 45/45/45 47/47/47 48/48/48
f 50/50/50 45/45/45 48/48/48
f 47/47/47 18/18/18 15/15/15
f 48/48/48 47/47/47 15/15/15
f 48/48/48 49/49/49 51/51/51
f 50/50/50 48/48/48 51/51/51
f 48/48/48 15/15/15 12/12/12
f 49/49/49 48/48/48 12/12/12
f 54/54/54 52/52/52 50/50/50
f 51/51/51 54/54/54 50/50/50
f 52/52/52 43/43/43 45/45/45
f 50/50/50 52/52/52 45/45/45
f 53/53/53 41/41/41 43/43/43
f 52/52/52 53/53/53 43/43/43
f 52/52/52 54/54/54 55/55/55
f 53/53/53 52/52/52 55/55/55
f 55/55/55 54/54/54 56/56/56
f 57/57/57 55/55/55 56/56/56
f 59/59/59 56/56/56 54/54/54
f 51/51/51 59/59/59 54/54/54
f 57/57/57 56/56/56 58/58/58
f 87/87/87 57/57/57 58/58/58
f 59/59/59 60/60/60 58/58/58
f 56/56/56 59/59/59 58/58/58
f 60/60/60 59/59/59 61/61/61
f 62/62/62 60/60/60 61/61/61
f 51/51/51 49/49/49 61/61/61
f 59/59/59 51/51/51 61/61/61
f 63/63/63 13/13/13 62/62/62
f 61/61/61 63/63/63 62/62/62
f 61/61/61 49/49/49 12/12/12
f 63/63/63 61/61/61 12/12/12
f 6/6/6 64/64/64 62/62/62
f 13/13/13 6/6/6 62/62/62
f 65/65/65 60/60/60 62/62/62
f 64/64/64 65/65/65 62/62/62
f 65/65/65 64/64/64 5/5/5
f 67/67/67 65/65/65 5/5/5
f 65/65/65 66/66/66 58/58/58
f 60/60/60 65/65/65 58/58/58
f 65/65/65 67/67/67 68/68/68
f 66/66/66 65/65/65 68/68/68
f 67/67/67 69/69/69 71/71/71
f 68/68/68 67/67/67 71/71/71
f 69/69/69 67/67/67 5/5/5
f 3/3/3 69/69/69 5/5/5
f 69/69/69 3/3/3 80/80/80
f 70/70/70 69/69/69 80/80/80
f 73/73/73 71/71/71 69/69/69
f 70/70/70 73/73/73 69/69/69
f 72/72/72 89/89/89 68/68/68
f 71/71/71 72/72/72 68/68/68
f 71/71/71 73/73/73 74/74/74
f 72/72/72 71/71/71 74/74/74
f 75/75/75 76/76/76 74/74/74
f 73/73/73 75/75/75 74/74/74
f 75/75/75 73/73/73 70/70/70
f 77/77/77 75/75/75 70/70/70
f 31/31/31 33/33/33 76/76/76
f 75/75/75 31/31/31 76/76/76
f 29/29/29 31/31/31 75/75/75
f 77/77/77 29/29/29 75/75/75
f 80/80/80 78/78/78 77/77/77
f 70/70/70 80/80/80 77/77/77
f 78/78/78 27/27/27 29/29/29
f 77/77/77 78/78/78 29/29/29
f 79/79/79 25/25/25 27/27/27
f 78/78/78 79/79/79 27/27/27
f 78/78/78 80/80/80 2/2/2
f 79/79/79 78/78/78 2/2/2
f 23/23/23 25/25/25 79/79/79
f 8/8/8 23/23/23 79/79/79
f 81/81/81 82/82/82 74/74/74
f 76/76/76 81/81/81 74/74/74
f 76/76/76 33/33/33 35/35/35
f 81/81/81 76/76/76 35/35/35
f 82/82/82 81/81/81 83/83/83
f 84/84/84 82/82/82 83/83/83
f 81/81/81 35/35/35 37/37/37
f 83/83/83 81/81/81 37/37/37
f 85/85/85 86/86/86 84/84/84
f 83/83/83 85/85/85 84/84/84
f 37/37/37 39/39/39 85/85/85
f 83/83/83 37/37/37 85/85/85
f 85/85/85 53/53/53 55/55/55
f 86/86/86 85/85/85 55/55/55
f 39/39/39 41/41/41 53/53/53
f 85/85/85 39/39/39 53/53/53
f 84/84/84 86/86/86 87/87/87
f 88/88/88 84/84/84 87/87/87
f 87/87/87 86/86/86 55/55/55
f 57/57/57 87/87/87 55/55/55
f 66/66/66 88/88/88 87/87/87
f 58/58/58 66/66/66 87/87/87
f 88/88/88 89/89/89 82/82/82
f 84/84/84 88/88/88 82/82/82
f 88/88/88 66/66/66 68/68/68
f 89/89/89 88/88/88 68/68/68
f 74/74/74 82/82/82 89/89/89
f 72/72/72 74/74/74 89/89/89
f 17/17/17 23/23/23 8/8/8
f 10/10/10 17/17/17 8/8/8
