# GloomhavenVR - meta-quest-touch-plus-v2 left 'squeeze' (glTF material 0)
# generated by controllers_pipeline.py from webxr-input-profiles (MIT)
o quest3_left_squeeze__m0
v 0.009686 0.009617 -0.022943
v 0.009268 0.010819 -0.021346
v 0.010206 0.007938 -0.024173
v 0.005849 0.009646 -0.023188
v 0.010142 0.009428 -0.022699
v 0.010375 0.009148 -0.022420
v 0.010671 0.007858 -0.023814
v 0.009701 0.010577 -0.021115
v 0.009936 0.010256 -0.020885
v 0.009383 0.011239 -0.019271
v 0.009650 0.010818 -0.019193
v 0.008905 0.011585 -0.019352
v 0.009272 0.011278 -0.017353
v 0.009543 0.010904 -0.017418
v 0.008814 0.011586 -0.017293
v 0.009402 0.010793 -0.015469
v 0.009670 0.010467 -0.015649
v 0.008920 0.011018 -0.015304
v 0.010002 0.009384 -0.013540
v 0.010204 0.009091 -0.013830
v 0.009587 0.009601 -0.013267
v 0.010803 0.007053 -0.012078
v 0.010940 0.006857 -0.012435
v 0.010437 0.007185 -0.011736
v 0.011670 0.003600 -0.010763
v 0.011690 0.003494 -0.011168
v 0.011414 0.003657 -0.010350
v 0.012214 -0.000921 -0.008974
v 0.012183 -0.001049 -0.009440
v 0.011928 -0.000811 -0.008508
v 0.011825 -0.005382 -0.006956
v 0.011479 -0.005193 -0.006535
v 0.011840 -0.005529 -0.007415
v 0.011111 -0.007267 -0.005993
v 0.010845 -0.006841 -0.005707
v 0.011079 -0.007529 -0.006411
v 0.009099 -0.008884 -0.004923
v 0.008997 -0.008144 -0.004806
v 0.008910 -0.009209 -0.005398
v 0.006310 -0.009504 -0.004262
v 0.005978 -0.009773 -0.004704
v 0.006579 -0.008955 -0.003988
v 0.006961 -0.005917 -0.005263
v 0.006771 -0.001384 -0.007083
v 0.009366 -0.005524 -0.005918
v 0.009566 -0.001071 -0.007840
v 0.008779 0.003613 -0.009704
v 0.007926 0.007074 -0.011103
v 0.005715 0.003547 -0.009018
v 0.004351 0.007060 -0.010194
v 0.002903 0.010082 -0.011902
v 0.001614 0.011966 -0.014212
v 0.006456 0.009834 -0.012620
v 0.005506 0.011518 -0.014767
v 0.005060 0.012259 -0.016935
v 0.005072 0.012168 -0.019364
v 0.000771 0.012801 -0.016557
v 0.000706 0.012644 -0.019337
v 0.000970 0.011442 -0.021646
v 0.001495 0.009606 -0.023373
v 0.005384 0.011168 -0.021523
v 0.002279 0.007066 -0.024413
v 0.006490 0.007535 -0.024304
v 0.003048 0.004085 -0.024363
v 0.007129 0.004410 -0.024571
v 0.003993 0.000162 -0.023036
v 0.007954 0.000706 -0.023442
v 0.004565 -0.003681 -0.021555
v 0.004858 -0.007939 -0.019715
v 0.008422 -0.003548 -0.021781
v 0.011823 -0.003415 -0.022011
v 0.008246 -0.007917 -0.019983
v 0.011237 -0.007839 -0.020194
v 0.007859 -0.010706 -0.018716
v 0.004394 -0.010979 -0.018380
v 0.010507 -0.009547 -0.019383
v 0.007877 -0.011173 -0.018231
v 0.007825 -0.011253 -0.017694
v 0.004328 -0.011388 -0.017854
v 0.010749 -0.009686 -0.018928
v 0.010792 -0.009609 -0.018406
v 0.011697 -0.007807 -0.019756
v 0.011816 -0.007647 -0.019266
v 0.012251 -0.003303 -0.021629
v 0.012363 -0.003141 -0.021167
v 0.012003 0.001324 -0.023499
v 0.012138 0.001451 -0.023017
v 0.011505 0.001208 -0.023846
v 0.011458 0.004774 -0.024311
v 0.011607 0.004679 -0.023831
v 0.010998 0.004842 -0.024687
v 0.010855 0.007681 -0.023384
v 0.011314 0.005038 -0.021182
v 0.011777 0.001992 -0.020105
v 0.010895 0.005697 -0.017589
v 0.010700 0.007750 -0.021414
v 0.010370 0.008231 -0.018316
v 0.010141 0.008887 -0.015638
v 0.010775 0.006373 -0.014175
v 0.011352 0.003078 -0.013024
v 0.011793 -0.001471 -0.011205
v 0.011376 0.002515 -0.016521
v 0.011705 -0.002116 -0.014798
v 0.011461 -0.006386 -0.013260
v 0.012048 -0.002663 -0.018369
v 0.011649 -0.007096 -0.016816
v 0.010756 -0.009150 -0.016151
v 0.010688 -0.008423 -0.012517
v 0.008073 -0.010844 -0.015440
v 0.004467 -0.011207 -0.014870
v 0.008241 -0.010222 -0.011695
v 0.004821 -0.010726 -0.010966
v 0.008583 -0.009554 -0.007636
v 0.005401 -0.010140 -0.006739
v 0.010812 -0.007760 -0.008534
v 0.011544 -0.005820 -0.009325
v 0.004267 -0.011496 -0.017299
vt 0.882613 0.365496
vt 0.890422 0.370261
vt 0.876289 0.358672
vt 0.873103 0.379763
vt 0.884140 0.363471
vt 0.885399 0.361749
vt 0.878562 0.357104
vt 0.891677 0.368043
vt 0.892691 0.366135
vt 0.900351 0.370446
vt 0.900627 0.368098
vt 0.899992 0.373201
vt 0.909387 0.369896
vt 0.908926 0.367730
vt 0.909883 0.372459
vt 0.918069 0.366411
vt 0.917011 0.364512
vt 0.919355 0.368728
vt 0.926344 0.357760
vt 0.924770 0.356230
vt 0.928192 0.359585
vt 0.931810 0.344840
vt 0.929935 0.343924
vt 0.934071 0.345987
vt 0.935356 0.326277
vt 0.933239 0.326050
vt 0.937818 0.326572
vt 0.938114 0.301991
vt 0.935654 0.301817
vt 0.940982 0.302173
vt 0.940606 0.278210
vt 0.943596 0.278484
vt 0.938135 0.277911
vt 0.942437 0.268129
vt 0.945214 0.269499
vt 0.940085 0.267085
vt 0.947377 0.256451
vt 0.950710 0.259577
vt 0.944682 0.254301
vt 0.954376 0.243792
vt 0.951062 0.240659
vt 0.957701 0.247767
vt 0.965118 0.269357
vt 0.968376 0.300989
vt 0.953854 0.274992
vt 0.953439 0.302027
vt 0.950898 0.330787
vt 0.944992 0.351939
vt 0.966075 0.336307
vt 0.960596 0.362094
vt 0.949209 0.385666
vt 0.933402 0.401786
vt 0.938195 0.371150
vt 0.926385 0.383451
vt 0.913566 0.389708
vt 0.898761 0.390829
vt 0.917543 0.410692
vt 0.898107 0.412093
vt 0.879747 0.407606
vt 0.863230 0.398264
vt 0.884686 0.386800
vt 0.848103 0.382971
vt 0.863326 0.369119
vt 0.837017 0.362258
vt 0.854824 0.352903
vt 0.832125 0.331600
vt 0.852017 0.330648
vt 0.834325 0.302116
vt 0.845998 0.271544
vt 0.853871 0.304876
vt 0.870869 0.306978
vt 0.860324 0.279494
vt 0.873310 0.285143
vt 0.868793 0.264191
vt 0.858101 0.250501
vt 0.874134 0.276149
vt 0.871671 0.261549
vt 0.874079 0.259641
vt 0.861838 0.246839
vt 0.876736 0.275262
vt 0.879248 0.274459
vt 0.876532 0.285097
vt 0.879198 0.285033
vt 0.873932 0.306959
vt 0.876576 0.306988
vt 0.872199 0.329168
vt 0.874821 0.328921
vt 0.869155 0.329561
vt 0.873686 0.344513
vt 0.875797 0.343398
vt 0.871299 0.345863
vt 0.880464 0.355797
vt 0.888026 0.342329
vt 0.889231 0.327631
vt 0.905052 0.342393
vt 0.889309 0.354777
vt 0.903674 0.355102
vt 0.916280 0.356567
vt 0.921363 0.342969
vt 0.923744 0.325749
vt 0.926437 0.301526
vt 0.906672 0.326345
vt 0.908591 0.302543
vt 0.909045 0.279722
vt 0.890856 0.304939
vt 0.891427 0.282650
vt 0.890251 0.271290
vt 0.908756 0.267731
vt 0.886618 0.255529
vt 0.881637 0.237779
vt 0.908176 0.251183
vt 0.908210 0.232701
vt 0.932041 0.251335
vt 0.937218 0.235047
vt 0.929425 0.266527
vt 0.928482 0.277800
vt 0.865272 0.244183
vn 0.100672 0.659361 -0.745056
vn 0.150138 0.853512 -0.498975
vn 0.070763 0.302958 -0.950373
vn 0.033269 0.608193 -0.793091
vn 0.696043 0.608480 -0.381152
vn 0.943209 0.332183 0.003215
vn 0.750005 0.389958 -0.534252
vn 0.693532 0.687537 -0.215186
vn 0.944768 0.325603 0.037370
vn 0.688957 0.722352 -0.059537
vn 0.944368 0.326772 0.037261
vn 0.188686 0.961111 -0.201654
vn 0.665899 0.740683 0.089258
vn 0.940506 0.338877 0.024727
vn 0.217749 0.968823 0.118179
vn 0.659577 0.715911 0.228975
vn 0.928352 0.371453 0.013611
vn 0.229432 0.882817 0.409872
vn 0.730862 0.590219 0.342756
vn 0.956283 0.290896 -0.030049
vn 0.249951 0.694411 0.674772
vn 0.830619 0.420212 0.365368
vn 0.975966 0.197829 -0.091406
vn 0.283569 0.487428 0.825835
vn 0.923094 0.266853 0.276924
vn 0.984841 0.084014 -0.151755
vn 0.325872 0.403117 0.855163
vn 0.956200 0.124214 0.265051
vn 0.987970 -0.048733 -0.146763
vn 0.349003 0.371964 0.860139
vn 0.941294 -0.007113 0.337514
vn 0.342196 0.342474 0.874994
vn 0.971476 -0.219308 -0.090214
vn 0.783854 -0.327153 0.527773
vn 0.349533 0.245576 0.904168
vn 0.762016 -0.646797 0.031389
vn 0.501479 -0.560981 0.658650
vn 0.261063 0.232466 0.936913
vn 0.417726 -0.898792 0.132960
vn 0.319823 -0.714500 0.622256
vn 0.223292 -0.961785 0.158463
vn 0.252511 0.143638 0.956873
vn 0.192280 0.369423 0.909151
vn 0.195342 0.384895 0.902052
vn 0.197627 0.373985 0.906134
vn 0.203116 0.386111 0.899812
vn 0.205734 0.397012 0.894458
vn 0.205067 0.475997 0.855204
vn 0.202805 0.394755 0.896124
vn 0.206453 0.488536 0.847767
vn 0.187782 0.711547 0.677081
vn 0.159738 0.898382 0.409138
vn 0.194350 0.689205 0.698015
vn 0.174745 0.885599 0.430323
vn 0.149952 0.981752 0.116952
vn 0.118271 0.966950 -0.225877
vn 0.130703 0.986510 0.098567
vn 0.101151 0.967487 -0.231815
vn 0.065840 0.829954 -0.553932
vn 0.027367 0.594766 -0.803433
vn 0.078604 0.836115 -0.542894
vn -0.004358 0.236646 -0.971586
vn -0.002888 0.253977 -0.967206
vn -0.027535 -0.148268 -0.988564
vn -0.026740 -0.131253 -0.990988
vn -0.040943 -0.340742 -0.939265
vn -0.042167 -0.331535 -0.942500
vn -0.048680 -0.377070 -0.924905
vn -0.058228 -0.392970 -0.917706
vn -0.050052 -0.375014 -0.925667
vn 0.071152 -0.375722 -0.923997
vn -0.055032 -0.389926 -0.919200
vn 0.071277 -0.405069 -0.911504
vn -0.024903 -0.490632 -0.871011
vn -0.053210 -0.488104 -0.871162
vn 0.067769 -0.499811 -0.863479
vn 0.192292 -0.909060 -0.369639
vn 0.296164 -0.950146 0.097519
vn 0.017925 -0.910540 -0.413031
vn 0.577998 -0.761546 -0.293200
vn 0.728295 -0.676324 0.110324
vn 0.841682 -0.364892 -0.398027
vn 0.982417 -0.172118 0.072334
vn 0.842969 -0.228036 -0.487241
vn 0.998503 0.005737 0.054404
vn 0.815485 -0.109160 -0.568391
vn 0.993184 0.110764 0.036292
vn 0.053924 -0.309687 -0.949308
vn 0.788624 0.112630 -0.604472
vn 0.981012 0.193753 0.008622
vn 0.060390 -0.074533 -0.995388
vn 0.965047 0.262077 -0.000166
vn 0.976784 0.199140 0.078975
vn 0.987466 0.129429 0.090332
vn 0.980367 0.193099 0.039908
vn 0.967236 0.244184 0.069485
vn 0.967527 0.249319 0.041604
vn 0.968651 0.247940 -0.015512
vn 0.982339 0.179047 -0.054326
vn 0.992726 0.094733 -0.074303
vn 0.997123 -0.018277 -0.073567
vn 0.992044 0.120109 0.037710
vn 0.999300 0.016962 0.033350
vn 0.987409 -0.152452 0.042201
vn 0.995328 0.025106 0.093225
vn 0.983390 -0.152634 0.098221
vn 0.748441 -0.650082 0.131263
vn 0.773006 -0.626931 0.097055
vn 0.346989 -0.927454 0.139382
vn 0.129338 -0.982569 0.133532
vn 0.380339 -0.916340 0.125152
vn 0.170270 -0.976978 0.128541
vn 0.401315 -0.910518 0.099512
vn 0.199136 -0.972252 0.122766
vn 0.773796 -0.632323 0.037508
vn 0.980489 -0.190692 -0.047738
vn 0.093331 -0.991607 0.089472
f 61/61/61 2/2/2 1/1/1
f 4/4/4 61/61/61 1/1/1
f 2/2/2 8/8/8 5/5/5
f 1/1/1 2/2/2 5/5/5
f 3/3/3 63/63/63 4/4/4
f 1/1/1 3/3/3 4/4/4
f 1/1/1 5/5/5 7/7/7
f 3/3/3 1/1/1 7/7/7
f 8/8/8 9/9/9 6/6/6
f 5/5/5 8/8/8 6/6/6
f 5/5/5 6/6/6 92/92/92
f 7/7/7 5/5/5 92/92/92
f 10/10/10 11/11/11 9/9/9
f 8/8/8 10/10/10 9/9/9
f 12/12/12 10/10/10 8/8/8
f 2/2/2 12/12/12 8/8/8
f 13/13/13 14/14/14 11/11/11
f 10/10/10 13/13/13 11/11/11
f 15/15/15 13/13/13 10/10/10
f 12/12/12 15/15/15 10/10/10
f 16/16/16 17/17/17 14/14/14
f 13/13/13 16/16/16 14/14/14
f 18/18/18 16/16/16 13/13/13
f 15/15/15 18/18/18 13/13/13
f 19/19/19 20/20/20 17/17/17
f 16/16/16 19/19/19 17/17/17
f 21/21/21 19/19/19 16/16/16
f 18/18/18 21/21/21 16/16/16
f 22/22/22 23/23/23 20/20/20
f 19/19/19 22/22/22 20/20/20
f 24/24/24 22/22/22 19/19/19
f 21/21/21 24/24/24 19/19/19
f 25/25/25 26/26/26 23/23/23
f 22/22/22 25/25/25 23/23/23
f 27/27/27 25/25/25 22/22/22
f 24/24/24 27/27/27 22/22/22
f 28/28/28 29/29/29 26/26/26
f 25/25/25 28/28/28 26/26/26
f 30/30/30 28/28/28 25/25/25
f 27/27/27 30/30/30 25/25/25
f 31/31/31 33/33/33 29/29/29
f 28/28/28 31/31/31 29/29/29
f 32/32/32 31/31/31 28/28/28
f 30/30/30 32/32/32 28/28/28
f 31/31/31 32/32/32 35/35/35
f 34/34/34 31/31/31 35/35/35
f 33/33/33 31/31/31 34/34/34
f 36/36/36 33/33/33 34/34/34
f 38/38/38 37/37/37 34/34/34
f 35/35/35 38/38/38 34/34/34
f 34/34/34 37/37/37 39/39/39
f 36/36/36 34/34/34 39/39/39
f 40/40/40 37/37/37 38/38/38
f 42/42/42 40/40/40 38/38/38
f 41/41/41 39/39/39 37/37/37
f 40/40/40 41/41/41 37/37/37
f 42/42/42 38/38/38 45/45/45
f 43/43/43 42/42/42 45/45/45
f 43/43/43 45/45/45 46/46/46
f 44/44/44 43/43/43 46/46/46
f 38/38/38 35/35/35 32/32/32
f 45/45/45 38/38/38 32/32/32
f 45/45/45 32/32/32 30/30/30
f 46/46/46 45/45/45 30/30/30
f 27/27/27 47/47/47 46/46/46
f 30/30/30 27/27/27 46/46/46
f 44/44/44 46/46/46 47/47/47
f 49/49/49 44/44/44 47/47/47
f 24/24/24 48/48/48 47/47/47
f 27/27/27 24/24/24 47/47/47
f 49/49/49 47/47/47 48/48/48
f 50/50/50 49/49/49 48/48/48
f 50/50/50 48/48/48 53/53/53
f 51/51/51 50/50/50 53/53/53
f 51/51/51 53/53/53 54/54/54
f 52/52/52 51/51/51 54/54/54
f 21/21/21 53/53/53 48/48/48
f 24/24/24 21/21/21 48/48/48
f 18/18/18 54/54/54 53/53/53
f 21/21/21 18/18/18 53/53/53
f 15/15/15 55/55/55 54/54/54
f 18/18/18 15/15/15 54/54/54
f 52/52/52 54/54/54 55/55/55
f 57/57/57 52/52/52 55/55/55
f 12/12/12 56/56/56 55/55/55
f 15/15/15 12/12/12 55/55/55
f 57/57/57 55/55/55 56/56/56
f 58/58/58 57/57/57 56/56/56
f 58/58/58 56/56/56 61/61/61
f 59/59/59 58/58/58 61/61/61
f 61/61/61 4/4/4 60/60/60
f 59/59/59 61/61/61 60/60/60
f 2/2/2 61/61/61 56/56/56
f 12/12/12 2/2/2 56/56/56
f 60/60/60 4/4/4 63/63/63
f 62/62/62 60/60/60 63/63/63
f 62/62/62 63/63/63 65/65/65
f 64/64/64 62/62/62 65/65/65
f 64/64/64 65/65/65 67/67/67
f 66/66/66 64/64/64 67/67/67
f 66/66/66 67/67/67 70/70/70
f 68/68/68 66/66/66 70/70/70
f 68/68/68 70/70/70 72/72/72
f 69/69/69 68/68/68 72/72/72
f 71/71/71 70/70/70 67/67/67
f 88/88/88 71/71/71 67/67/67
f 73/73/73 72/72/72 70/70/70
f 71/71/71 73/73/73 70/70/70
f 76/76/76 74/74/74 72/72/72
f 73/73/73 76/76/76 72/72/72
f 69/69/69 72/72/72 74/74/74
f 75/75/75 69/69/69 74/74/74
f 75/75/75 74/74/74 77/77/77
f 79/79/79 75/75/75 77/77/77
f 77/77/77 74/74/74 76/76/76
f 80/80/80 77/77/77 76/76/76
f 78/78/78 77/77/77 80/80/80
f 81/81/81 78/78/78 80/80/80
f 79/79/79 77/77/77 78/78/78
f 117/117/117 79/79/79 78/78/78
f 81/81/81 80/80/80 82/82/82
f 83/83/83 81/81/81 82/82/82
f 80/80/80 76/76/76 73/73/73
f 82/82/82 80/80/80 73/73/73
f 83/83/83 82/82/82 84/84/84
f 85/85/85 83/83/83 84/84/84
f 82/82/82 73/73/73 71/71/71
f 84/84/84 82/82/82 71/71/71
f 86/86/86 87/87/87 85/85/85
f 84/84/84 86/86/86 85/85/85
f 88/88/88 86/86/86 84/84/84
f 71/71/71 88/88/88 84/84/84
f 89/89/89 90/90/90 87/87/87
f 86/86/86 89/89/89 87/87/87
f 91/91/91 89/89/89 86/86/86
f 88/88/88 91/91/91 86/86/86
f 7/7/7 92/92/92 90/90/90
f 89/89/89 7/7/7 90/90/90
f 3/3/3 7/7/7 89/89/89
f 91/91/91 3/3/3 89/89/89
f 91/91/91 65/65/65 63/63/63
f 3/3/3 91/91/91 63/63/63
f 88/88/88 67/67/67 65/65/65
f 91/91/91 88/88/88 65/65/65
f 90/90/90 93/93/93 94/94/94
f 87/87/87 90/90/90 94/94/94
f 92/92/92 96/96/96 93/93/93
f 90/90/90 92/92/92 93/93/93
f 94/94/94 93/93/93 95/95/95
f 102/102/102 94/94/94 95/95/95
f 97/97/97 95/95/95 93/93/93
f 96/96/96 97/97/97 93/93/93
f 96/96/96 92/92/92 6/6/6
f 9/9/9 96/96/96 6/6/6
f 97/97/97 96/96/96 9/9/9
f 11/11/11 97/97/97 9/9/9
f 98/98/98 99/99/99 95/95/95
f 97/97/97 98/98/98 95/95/95
f 98/98/98 97/97/97 11/11/11
f 14/14/14 98/98/98 11/11/11
f 98/98/98 20/20/20 23/23/23
f 99/99/99 98/98/98 23/23/23
f 14/14/14 17/17/17 20/20/20
f 98/98/98 14/14/14 20/20/20
f 99/99/99 23/23/23 26/26/26
f 100/100/100 99/99/99 26/26/26
f 99/99/99 100/100/100 102/102/102
f 95/95/95 99/99/99 102/102/102
f 100/100/100 26/26/26 29/29/29
f 101/101/101 100/100/100 29/29/29
f 101/101/101 103/103/103 102/102/102
f 100/100/100 101/101/101 102/102/102
f 94/94/94 102/102/102 103/103/103
f 105/105/105 94/94/94 103/103/103
f 105/105/105 103/103/103 104/104/104
f 106/106/106 105/105/105 104/104/104
f 116/116/116 104/104/104 103/103/103
f 101/101/101 116/116/116 103/103/103
f 85/85/85 105/105/105 106/106/106
f 83/83/83 85/85/85 106/106/106
f 87/87/87 94/94/94 105/105/105
f 85/85/85 87/87/87 105/105/105
f 104/104/104 108/108/108 107/107/107
f 106/106/106 104/104/104 107/107/107
f 106/106/106 107/107/107 81/81/81
f 83/83/83 106/106/106 81/81/81
f 107/107/107 109/109/109 78/78/78
f 81/81/81 107/107/107 78/78/78
f 108/108/108 111/111/111 109/109/109
f 107/107/107 108/108/108 109/109/109
f 110/110/110 109/109/109 111/111/111
f 112/112/112 110/110/110 111/111/111
f 117/117/117 78/78/78 109/109/109
f 110/110/110 117/117/117 109/109/109
f 112/112/112 111/111/111 113/113/113
f 114/114/114 112/112/112 113/113/113
f 113/113/113 111/111/111 108/108/108
f 115/115/115 113/113/113 108/108/108
f 114/114/114 113/113/113 39/39/39
f 41/41/41 114/114/114 39/39/39
f 39/39/39 113/113/113 115/115/115
f 36/36/36 39/39/39 115/115/115
f 116/116/116 115/115/115 108/108/108
f 104/104/104 116/116/116 108/108/108
f 33/33/33 36/36/36 115/115/115
f 116/116/116 33/33/33 115/115/115
f 101/101/101 29/29/29 33/33/33
f 116/116/116 101/101/101 33/33/33
