# GloomhavenVR - meta-quest-touch-plus-v2 left 'button_primary' (glTF material 0)
# generated by controllers_pipeline.py from webxr-input-profiles (MIT)
o quest3_left_button_primary__m0
v 0.005427 0.008890 0.021057
v 0.005843 0.008625 0.021158
v 0.004434 0.008540 0.021687
v 0.005533 0.009683 0.020112
v 0.004199 0.009590 0.020672
v 0.005290 0.010673 0.018808
v 0.006258 0.009548 0.019907
v 0.006716 0.009419 0.019809
v 0.006070 0.010578 0.018478
v 0.006558 0.010500 0.018248
v 0.005345 0.011472 0.017187
v 0.004233 0.012087 0.016345
v 0.005739 0.011459 0.016897
v 0.004683 0.011507 0.017562
v 0.003993 0.011997 0.016766
v 0.003291 0.011616 0.017908
v 0.002803 0.012181 0.016741
v 0.003849 0.010729 0.019308
v 0.001544 0.011526 0.018236
v 0.001173 0.012135 0.016934
v -0.000140 0.011094 0.018617
v 0.002015 0.010528 0.019774
v 0.002495 0.009313 0.021174
v 0.000194 0.010097 0.020062
v -0.001262 0.009637 0.020187
v 0.000756 0.009005 0.021358
v -0.000646 0.008677 0.021385
v 0.001242 0.008008 0.022304
v 0.000048 0.008009 0.022126
v 0.001331 0.007402 0.022777
v 0.002882 0.008190 0.022189
v 0.003093 0.007522 0.022707
v 0.003223 0.007091 0.023016
v 0.004729 0.007958 0.022124
v 0.004965 0.007602 0.022360
v 0.006171 0.008413 0.021232
v 0.005112 0.007298 0.022310
v 0.003306 0.006723 0.022994
v 0.006364 0.008112 0.021138
v 0.005286 0.004574 0.020379
v 0.003437 0.003976 0.021075
v 0.006567 0.005490 0.019245
v 0.007199 0.006640 0.017789
v 0.007103 0.007901 0.016171
v 0.006982 0.009190 0.019669
v 0.006843 0.010350 0.018013
v 0.005952 0.011330 0.016535
v 0.004585 0.012034 0.015589
v 0.006154 0.009033 0.014684
v 0.004714 0.009816 0.013678
v 0.002877 0.010173 0.013144
v 0.000821 0.010054 0.013193
v 0.002825 0.012478 0.015158
v 0.000803 0.012480 0.015298
v 0.002737 0.012565 0.015602
v 0.002729 0.012425 0.016049
v 0.004426 0.012159 0.016009
v 0.000858 0.012580 0.015689
v 0.000977 0.012418 0.016175
v -0.000853 0.012128 0.016295
v -0.002072 0.011315 0.017341
v -0.000633 0.012007 0.016704
v -0.000953 0.011959 0.015982
v -0.002194 0.011095 0.017073
v -0.000999 0.009473 0.013885
v -0.002312 0.008532 0.015059
v -0.002941 0.007405 0.016458
v -0.002829 0.006148 0.018067
v -0.002836 0.010008 0.018463
v -0.002751 0.008803 0.020037
v -0.002668 0.010268 0.018699
v -0.002210 0.010384 0.018794
v -0.002554 0.009112 0.020212
v -0.002057 0.009321 0.020206
v -0.001729 0.008075 0.021578
v -0.000379 0.007356 0.022551
v -0.001331 0.008329 0.021484
v -0.001893 0.007722 0.021475
v -0.000481 0.006982 0.022501
v -0.001956 0.005049 0.019530
v -0.000502 0.004285 0.020589
v 0.001365 0.003884 0.021132
v 0.001302 0.006621 0.023037
v 0.001327 0.007013 0.023058
v -0.000191 0.007646 0.022366
v -0.001473 0.010602 0.018856
v -0.001753 0.011302 0.017571
v -0.001348 0.011272 0.017855
v -0.000355 0.011758 0.017368
vt 0.455605 0.085044
vt 0.457565 0.086929
vt 0.449521 0.087626
vt 0.457663 0.078551
vt 0.449936 0.079609
vt 0.458308 0.069458
vt 0.461749 0.079073
vt 0.464289 0.079716
vt 0.462902 0.069285
vt 0.465816 0.069164
vt 0.460691 0.059803
vt 0.455553 0.052796
vt 0.463205 0.058970
vt 0.456640 0.060651
vt 0.453777 0.054812
vt 0.448774 0.060418
vt 0.447334 0.053022
vt 0.450047 0.069811
vt 0.439053 0.060471
vt 0.438283 0.052600
vt 0.429450 0.061855
vt 0.439774 0.070520
vt 0.440321 0.080747
vt 0.429520 0.071331
vt 0.421198 0.071951
vt 0.430757 0.080746
vt 0.422959 0.080585
vt 0.431835 0.088468
vt 0.425651 0.086501
vt 0.431430 0.092616
vt 0.440673 0.089146
vt 0.440828 0.093878
vt 0.440914 0.096884
vt 0.450280 0.091823
vt 0.451083 0.094381
vt 0.459123 0.088433
vt 0.452008 0.096043
vt 0.441120 0.098994
vt 0.460612 0.089832
vt 0.459006 0.111401
vt 0.441854 0.115791
vt 0.472463 0.101242
vt 0.481369 0.086740
vt 0.484008 0.068919
vt 0.466214 0.080407
vt 0.467894 0.068966
vt 0.465195 0.057728
vt 0.458671 0.049231
vt 0.478978 0.051147
vt 0.468291 0.038026
vt 0.453608 0.029248
vt 0.435763 0.026556
vt 0.448892 0.044240
vt 0.437288 0.043211
vt 0.447942 0.046534
vt 0.447538 0.049036
vt 0.456974 0.051174
vt 0.437483 0.045393
vt 0.437805 0.048185
vt 0.427543 0.047928
vt 0.419825 0.053905
vt 0.428499 0.050356
vt 0.426607 0.046106
vt 0.418341 0.052638
vt 0.418613 0.031404
vt 0.404768 0.042214
vt 0.396626 0.056816
vt 0.394694 0.074510
vt 0.412946 0.061659
vt 0.411390 0.072706
vt 0.414941 0.062333
vt 0.417512 0.062834
vt 0.413599 0.072548
vt 0.416536 0.072313
vt 0.416385 0.082426
vt 0.422570 0.090002
vt 0.418852 0.081532
vt 0.414462 0.083455
vt 0.421251 0.091526
vt 0.399501 0.091375
vt 0.409512 0.104833
vt 0.424215 0.113408
vt 0.430115 0.097128
vt 0.430849 0.095142
vt 0.423920 0.088465
vt 0.421699 0.063131
vt 0.421457 0.055251
vt 0.423499 0.056957
vt 0.429506 0.054288
vn 0.203223 0.687683 0.696989
vn 0.347654 0.590377 0.728418
vn 0.115430 0.678500 0.725475
vn 0.185242 0.751963 0.632643
vn 0.075466 0.753500 0.653102
vn 0.162941 0.811015 0.561877
vn 0.346721 0.709113 0.613958
vn 0.565967 0.600768 0.564588
vn 0.314859 0.802814 0.506314
vn 0.531848 0.748946 0.395245
vn 0.273832 0.879580 0.389044
vn 0.195669 0.945676 0.259637
vn 0.453039 0.864943 0.215939
vn 0.137829 0.862744 0.486493
vn 0.109931 0.905752 0.409303
vn 0.034357 0.849547 0.526393
vn 0.019437 0.902901 0.429409
vn 0.054761 0.804249 0.591765
vn -0.045219 0.838132 0.543589
vn -0.072634 0.890995 0.448166
vn -0.124597 0.821397 0.556582
vn -0.024818 0.792820 0.608950
vn -0.004116 0.742151 0.670220
vn -0.104099 0.776102 0.621956
vn -0.211565 0.744677 0.633005
vn -0.083494 0.725351 0.683296
vn -0.186201 0.686225 0.703153
vn -0.067799 0.646005 0.760317
vn -0.157674 0.623823 0.765496
vn -0.077897 0.509001 0.857234
vn 0.024117 0.664713 0.746709
vn 0.064173 0.538631 0.840094
vn 0.122730 0.317448 0.940300
vn 0.204200 0.558956 0.803661
vn 0.335580 0.357803 0.871414
vn 0.517636 0.437598 0.735228
vn 0.602500 -0.400385 0.690424
vn 0.246840 -0.510337 0.823787
vn 0.856072 -0.223738 0.465921
vn 0.607242 -0.471924 0.639176
vn 0.250122 -0.584884 0.771589
vn 0.861282 -0.292303 0.415634
vn 0.988922 -0.069774 0.131018
vn 0.967881 0.171437 -0.183891
vn 0.982945 0.000449 0.183901
vn 0.961626 0.242821 -0.127727
vn 0.789033 0.453833 -0.414080
vn 0.503604 0.600346 -0.621263
vn 0.794169 0.385601 -0.469689
vn 0.507486 0.534754 -0.675645
vn 0.146312 0.605466 -0.782306
vn -0.250217 0.584867 -0.771572
vn 0.143470 0.672935 -0.725655
vn -0.251333 0.654502 -0.713064
vn 0.061806 0.997717 0.027207
vn 0.031969 0.961677 0.272315
vn 0.297082 0.953275 0.054865
vn -0.163041 0.984803 0.059843
vn -0.110563 0.947125 0.301216
vn -0.375479 0.920259 0.110179
vn -0.556378 0.802109 0.216942
vn -0.250143 0.911689 0.325963
vn -0.606834 0.540093 -0.583140
vn -0.860265 0.358828 -0.362196
vn -0.607185 0.472032 -0.639150
vn -0.861282 0.292303 -0.415634
vn -0.988922 0.069774 -0.131018
vn -0.967881 -0.171437 0.183891
vn -0.986903 0.140767 -0.078781
vn -0.966148 -0.098613 0.238398
vn -0.605976 0.677380 0.417074
vn -0.392626 0.761574 0.515606
vn -0.572550 0.553145 0.605159
vn -0.361263 0.683032 0.634788
vn -0.492924 0.413105 0.765748
vn -0.335766 0.286446 0.897335
vn -0.319640 0.591065 0.740590
vn -0.793351 -0.314178 0.521428
vn -0.507786 -0.465277 0.725032
vn -0.794169 -0.385601 0.469689
vn -0.507486 -0.534754 0.675645
vn -0.146312 -0.605466 0.782306
vn -0.149810 -0.533168 0.832640
vn -0.101714 0.280316 0.954504
vn -0.240345 0.486162 0.840167
vn -0.233600 0.796943 0.557057
vn -0.392294 0.841550 0.371347
vn -0.250956 0.841827 0.477858
vn -0.163789 0.870426 0.464254
f 4/4/4 1/1/1 2/2/2
f 7/7/7 4/4/4 2/2/2
f 34/34/34 2/2/2 1/1/1
f 3/3/3 34/34/34 1/1/1
f 1/1/1 4/4/4 5/5/5
f 3/3/3 1/1/1 5/5/5
f 18/18/18 5/5/5 4/4/4
f 6/6/6 18/18/18 4/4/4
f 9/9/9 6/6/6 4/4/4
f 7/7/7 9/9/9 4/4/4
f 8/8/8 7/7/7 2/2/2
f 36/36/36 8/8/8 2/2/2
f 8/8/8 10/10/10 9/9/9
f 7/7/7 8/8/8 9/9/9
f 6/6/6 9/9/9 11/11/11
f 14/14/14 6/6/6 11/11/11
f 11/11/11 9/9/9 10/10/10
f 13/13/13 11/11/11 10/10/10
f 13/13/13 57/57/57 12/12/12
f 11/11/11 13/13/13 12/12/12
f 12/12/12 15/15/15 14/14/14
f 11/11/11 12/12/12 14/14/14
f 15/15/15 17/17/17 16/16/16
f 14/14/14 15/15/15 16/16/16
f 6/6/6 14/14/14 16/16/16
f 18/18/18 6/6/6 16/16/16
f 19/19/19 16/16/16 17/17/17
f 20/20/20 19/19/19 17/17/17
f 22/22/22 18/18/18 16/16/16
f 19/19/19 22/22/22 16/16/16
f 20/20/20 89/89/89 21/21/21
f 19/19/19 20/20/20 21/21/21
f 22/22/22 19/19/19 21/21/21
f 24/24/24 22/22/22 21/21/21
f 22/22/22 23/23/23 5/5/5
f 18/18/18 22/22/22 5/5/5
f 22/22/22 24/24/24 26/26/26
f 23/23/23 22/22/22 26/26/26
f 24/24/24 21/21/21 86/86/86
f 25/25/25 24/24/24 86/86/86
f 25/25/25 27/27/27 26/26/26
f 24/24/24 25/25/25 26/26/26
f 29/29/29 28/28/28 26/26/26
f 27/27/27 29/29/29 26/26/26
f 23/23/23 26/26/26 28/28/28
f 31/31/31 23/23/23 28/28/28
f 28/28/28 29/29/29 85/85/85
f 30/30/30 28/28/28 85/85/85
f 30/30/30 32/32/32 31/31/31
f 28/28/28 30/30/30 31/31/31
f 31/31/31 32/32/32 34/34/34
f 3/3/3 31/31/31 34/34/34
f 31/31/31 3/3/3 5/5/5
f 23/23/23 31/31/31 5/5/5
f 34/34/34 32/32/32 33/33/33
f 35/35/35 34/34/34 33/33/33
f 84/84/84 33/33/33 32/32/32
f 30/30/30 84/84/84 32/32/32
f 35/35/35 36/36/36 2/2/2
f 34/34/34 35/35/35 2/2/2
f 36/36/36 35/35/35 37/37/37
f 39/39/39 36/36/36 37/37/37
f 35/35/35 33/33/33 38/38/38
f 37/37/37 35/35/35 38/38/38
f 40/40/40 37/37/37 38/38/38
f 41/41/41 40/40/40 38/38/38
f 42/42/42 39/39/39 37/37/37
f 40/40/40 42/42/42 37/37/37
f 43/43/43 45/45/45 39/39/39
f 42/42/42 43/43/43 39/39/39
f 44/44/44 46/46/46 45/45/45
f 43/43/43 44/44/44 45/45/45
f 46/46/46 10/10/10 8/8/8
f 45/45/45 46/46/46 8/8/8
f 45/45/45 8/8/8 36/36/36
f 39/39/39 45/45/45 36/36/36
f 13/13/13 10/10/10 46/46/46
f 47/47/47 13/13/13 46/46/46
f 49/49/49 47/47/47 46/46/46
f 44/44/44 49/49/49 46/46/46
f 57/57/57 13/13/13 47/47/47
f 48/48/48 57/57/57 47/47/47
f 50/50/50 48/48/48 47/47/47
f 49/49/49 50/50/50 47/47/47
f 51/51/51 53/53/53 48/48/48
f 50/50/50 51/51/51 48/48/48
f 52/52/52 54/54/54 53/53/53
f 51/51/51 52/52/52 53/53/53
f 54/54/54 58/58/58 55/55/55
f 53/53/53 54/54/54 55/55/55
f 53/53/53 55/55/55 57/57/57
f 48/48/48 53/53/53 57/57/57
f 55/55/55 58/58/58 59/59/59
f 56/56/56 55/55/55 59/59/59
f 55/55/55 56/56/56 12/12/12
f 57/57/57 55/55/55 12/12/12
f 62/62/62 59/59/59 58/58/58
f 60/60/60 62/62/62 58/58/58
f 60/60/60 58/58/58 54/54/54
f 63/63/63 60/60/60 54/54/54
f 61/61/61 60/60/60 63/63/63
f 64/64/64 61/61/61 63/63/63
f 60/60/60 61/61/61 87/87/87
f 62/62/62 60/60/60 87/87/87
f 65/65/65 63/63/63 54/54/54
f 52/52/52 65/65/65 54/54/54
f 66/66/66 64/64/64 63/63/63
f 65/65/65 66/66/66 63/63/63
f 67/67/67 69/69/69 64/64/64
f 66/66/66 67/67/67 64/64/64
f 68/68/68 70/70/70 69/69/69
f 67/67/67 68/68/68 69/69/69
f 70/70/70 73/73/73 71/71/71
f 69/69/69 70/70/70 71/71/71
f 69/69/69 71/71/71 61/61/61
f 64/64/64 69/69/69 61/61/61
f 71/71/71 73/73/73 74/74/74
f 72/72/72 71/71/71 74/74/74
f 71/71/71 72/72/72 87/87/87
f 61/61/61 71/71/71 87/87/87
f 77/77/77 74/74/74 73/73/73
f 75/75/75 77/77/77 73/73/73
f 75/75/75 73/73/73 70/70/70
f 78/78/78 75/75/75 70/70/70
f 76/76/76 75/75/75 78/78/78
f 79/79/79 76/76/76 78/78/78
f 75/75/75 76/76/76 85/85/85
f 77/77/77 75/75/75 85/85/85
f 80/80/80 78/78/78 70/70/70
f 68/68/68 80/80/80 70/70/70
f 81/81/81 79/79/79 78/78/78
f 80/80/80 81/81/81 78/78/78
f 82/82/82 83/83/83 79/79/79
f 81/81/81 82/82/82 79/79/79
f 41/41/41 38/38/38 83/83/83
f 82/82/82 41/41/41 83/83/83
f 38/38/38 33/33/33 84/84/84
f 83/83/83 38/38/38 84/84/84
f 83/83/83 84/84/84 76/76/76
f 79/79/79 83/83/83 76/76/76
f 84/84/84 30/30/30 85/85/85
f 76/76/76 84/84/84 85/85/85
f 85/85/85 29/29/29 27/27/27
f 77/77/77 85/85/85 27/27/27
f 25/25/25 74/74/74 77/77/77
f 27/27/27 25/25/25 77/77/77
f 74/74/74 25/25/25 86/86/86
f 72/72/72 74/74/74 86/86/86
f 86/86/86 88/88/88 87/87/87
f 72/72/72 86/86/86 87/87/87
f 87/87/87 88/88/88 89/89/89
f 62/62/62 87/87/87 89/89/89
f 88/88/88 86/86/86 21/21/21
f 89/89/89 88/88/88 21/21/21
f 20/20/20 59/59/59 62/62/62
f 89/89/89 20/20/20 62/62/62
f 59/59/59 20/20/20 17/17/17
f 56/56/56 59/59/59 17/17/17
f 17/17/17 15/15/15 12/12/12
f 56/56/56 17/17/17 12/12/12
