# GloomhavenVR - meta-quest-touch-plus left 'thumbstick' (glTF material 0)
# generated by controllers_pipeline.py from webxr-input-profiles (MIT)
o quest3_left_thumbstick__m0
v -0.016965 -0.003177 0.026455
v -0.013226 -0.000667 0.023459
v -0.007907 0.000049 0.022799
v -0.003038 -0.001302 0.024726
v -0.000479 -0.004203 0.028505
v -0.001208 -0.007548 0.032692
v -0.004947 -0.010057 0.035688
v -0.004947 -0.010057 0.035688
v -0.010266 -0.010774 0.036348
v -0.015135 -0.009423 0.034420
v -0.017694 -0.006521 0.030641
v -0.016165 -0.001980 0.027818
v -0.012813 0.000270 0.025133
v -0.008044 0.000912 0.024541
v -0.003680 -0.000299 0.026269
v -0.001386 -0.002900 0.029657
v -0.002039 -0.005899 0.033410
v -0.005391 -0.008148 0.036096
v -0.005391 -0.008148 0.036096
v -0.010160 -0.008791 0.036687
v -0.014524 -0.007580 0.034959
v -0.016818 -0.004978 0.031572
v -0.014666 -0.001062 0.029499
v -0.012049 0.000695 0.027402
v -0.008325 0.001197 0.026940
v -0.004917 0.000251 0.028290
v -0.003126 -0.001780 0.030935
v -0.003636 -0.004121 0.033866
v -0.006253 -0.005878 0.035963
v -0.006253 -0.005878 0.035963
v -0.009977 -0.006380 0.036425
v -0.013385 -0.005434 0.035075
v -0.015176 -0.003403 0.032430
v -0.013071 -0.000662 0.030899
v -0.011230 0.000574 0.029423
v -0.008610 0.000926 0.029098
v -0.006213 0.000261 0.030048
v -0.004953 -0.001168 0.031909
v -0.005312 -0.002815 0.033970
v -0.007153 -0.004051 0.035446
v -0.007153 -0.004051 0.035446
v -0.009772 -0.004403 0.035771
v -0.012170 -0.003738 0.034821
v -0.013430 -0.002309 0.032960
v -0.012194 -0.000684 0.031563
v -0.012194 -0.000684 0.031563
v -0.010777 0.000267 0.030428
v -0.010777 0.000267 0.030428
v -0.008761 0.000538 0.030178
v -0.008761 0.000538 0.030178
v -0.006916 0.000027 0.030909
v -0.006916 0.000027 0.030909
v -0.005947 -0.001073 0.032341
v -0.005947 -0.001073 0.032341
v -0.006223 -0.002341 0.033927
v -0.006223 -0.002341 0.033927
v -0.007640 -0.003292 0.035062
v -0.007640 -0.003292 0.035062
v -0.007640 -0.003292 0.035062
v -0.007640 -0.003292 0.035062
v -0.009656 -0.003563 0.035313
v -0.009656 -0.003563 0.035313
v -0.011501 -0.003051 0.034582
v -0.011501 -0.003051 0.034582
v -0.012470 -0.001952 0.033150
v -0.012470 -0.001952 0.033150
v -0.012175 0.001640 0.033250
v -0.010799 0.002563 0.032147
v -0.008841 0.002827 0.031904
v -0.007049 0.002330 0.032614
v -0.006107 0.001262 0.034005
v -0.006375 0.000031 0.035546
v -0.007751 -0.000893 0.036649
v -0.007751 -0.000893 0.036649
v -0.009710 -0.001157 0.036892
v -0.011502 -0.000660 0.036182
v -0.012444 0.000408 0.034791
v -0.006050 0.002625 0.031655
v -0.007044 0.001946 0.032432
v -0.004788 0.001108 0.033628
v -0.008630 0.003357 0.030613
v -0.008826 0.002451 0.031714
v -0.011439 0.002979 0.030961
v -0.010765 0.002188 0.031956
v -0.013402 0.001649 0.032550
v -0.012119 0.001269 0.033053
v -0.013726 -0.000090 0.034729
v -0.012341 0.000069 0.034558
v -0.012389 -0.001578 0.036668
v -0.011420 -0.000956 0.035893
v -0.009897 -0.002262 0.037646
v -0.009700 -0.001429 0.036569
v -0.007110 -0.001888 0.037301
v -0.007776 -0.001172 0.036332
v -0.005191 -0.000616 0.035784
v -0.006450 -0.000294 0.035286
v -0.006171 0.000899 0.033793
v -0.010998 0.006054 0.032737
v -0.010998 0.006054 0.032737
v -0.010998 0.006054 0.032737
v -0.012176 0.005626 0.033214
v -0.012176 0.005626 0.033214
v -0.011206 0.006315 0.032280
v -0.011206 0.006315 0.032280
v -0.009741 0.006245 0.032566
v -0.009741 0.006245 0.032566
v -0.010818 0.005568 0.032965
v -0.009694 0.005738 0.032811
v -0.011871 0.005184 0.033391
v -0.009860 0.003441 0.035222
v -0.009005 0.003504 0.035190
v -0.010285 0.003178 0.035531
v -0.009441 0.003533 0.035129
v -0.008525 0.003311 0.035460
v -0.010437 0.002822 0.035972
v -0.012719 0.004661 0.034005
v -0.013315 0.004019 0.034781
v -0.013622 0.003304 0.035667
v -0.013791 0.004323 0.034769
v -0.013791 0.004323 0.034769
v -0.014310 0.004375 0.034540
v -0.014134 0.003523 0.035760
v -0.014134 0.003523 0.035760
v -0.013124 0.005040 0.033901
v -0.013124 0.005040 0.033901
v -0.013573 0.005186 0.033565
v -0.012513 0.005853 0.032794
v -0.014199 0.004971 0.032737
v -0.012971 0.005726 0.031841
v -0.015059 0.004045 0.033872
v -0.014379 0.004197 0.031903
v -0.013099 0.004976 0.030971
v -0.015270 0.003230 0.033084
v -0.014009 0.003193 0.031445
v -0.014850 0.002289 0.032541
v -0.012817 0.003925 0.030577
v -0.013181 0.002374 0.031621
v -0.013879 0.001632 0.032533
v -0.012192 0.002981 0.030898
v -0.012552 0.002004 0.031938
v -0.013139 0.001371 0.032704
v -0.011718 0.002521 0.031331
v -0.010753 0.002928 0.030890
v -0.010753 0.002928 0.030890
v -0.010999 0.003421 0.030413
v -0.010999 0.003421 0.030413
v -0.009576 0.003069 0.030757
v -0.009656 0.003633 0.030217
v -0.008421 0.003061 0.030829
v -0.008283 0.003624 0.030309
v -0.007324 0.002855 0.031149
v -0.006985 0.003386 0.030682
v -0.006371 0.002472 0.031684
v -0.005858 0.002936 0.031323
v -0.005632 0.001940 0.032396
v -0.004983 0.002306 0.032168
v -0.005157 0.001296 0.033233
v -0.004419 0.001536 0.033152
v -0.004990 0.000590 0.034132
v -0.004212 0.000702 0.034219
v -0.005132 -0.000123 0.035024
v -0.004380 -0.000150 0.035275
v -0.005581 -0.000797 0.035849
v -0.004912 -0.000948 0.036258
v -0.006299 -0.001379 0.036544
v -0.005761 -0.001638 0.037096
v -0.007235 -0.001827 0.037058
v -0.006872 -0.002166 0.037712
v -0.008324 -0.002105 0.037349
v -0.008165 -0.002495 0.038051
v -0.009477 -0.002193 0.037398
v -0.009535 -0.002601 0.038097
v -0.010614 -0.002083 0.037198
v -0.010883 -0.002474 0.037856
v -0.011641 -0.001788 0.036770
v -0.012110 -0.002125 0.037344
v -0.012499 -0.001327 0.036142
v -0.013126 -0.001578 0.036605
v -0.013104 -0.000735 0.035362
v -0.013849 -0.000869 0.035678
v -0.013431 -0.000052 0.034483
v -0.014226 -0.000058 0.034635
v -0.013440 0.000669 0.033574
v -0.014236 0.000795 0.033563
v -0.015285 0.001297 0.033793
v -0.015734 0.002158 0.034402
v -0.015267 0.000271 0.035088
v -0.015699 0.001048 0.035792
v -0.014810 -0.000712 0.036341
v -0.015214 0.000009 0.037112
v -0.013964 -0.001542 0.037499
v -0.014323 -0.000951 0.038317
v -0.012714 -0.002219 0.038355
v -0.012976 -0.001627 0.039271
v -0.011235 -0.002641 0.038950
v -0.011403 -0.002065 0.039920
v -0.009617 -0.002797 0.039239
v -0.009676 -0.002228 0.040213
v -0.007971 -0.002663 0.039190
v -0.007915 -0.002089 0.040146
v -0.006410 -0.002271 0.038784
v -0.006268 -0.001660 0.039691
v -0.005065 -0.001635 0.038046
v -0.004835 -0.000978 0.038933
v -0.004035 -0.000802 0.037053
v -0.003717 -0.000094 0.037896
v -0.003387 0.000161 0.035872
v -0.003034 0.000930 0.036628
v -0.003182 0.001192 0.034593
v -0.002783 0.002027 0.035245
v -0.003446 0.002183 0.033292
v -0.003080 0.003105 0.033866
v -0.004123 0.003098 0.032093
v -0.003807 0.004081 0.032607
v -0.005180 0.003869 0.031086
v -0.004930 0.004905 0.031505
v -0.006544 0.004399 0.030317
v -0.006391 0.005470 0.030693
v -0.008101 0.004690 0.029869
v -0.008059 0.005790 0.030203
v -0.009752 0.004704 0.029756
v -0.009816 0.005800 0.030075
v -0.011367 0.004455 0.030000
v -0.011367 0.004455 0.030000
v -0.011544 0.005524 0.030340
v -0.011544 0.005524 0.030340
v -0.011480 0.006258 0.031235
v -0.011480 0.006258 0.031235
v -0.009833 0.006520 0.030990
v -0.009784 0.006540 0.032063
v -0.008144 0.006506 0.031087
v -0.008321 0.006528 0.032147
v -0.006540 0.006207 0.031556
v -0.006935 0.006264 0.032543
v -0.005136 0.005638 0.032328
v -0.005726 0.005772 0.033221
v -0.004068 0.004867 0.033398
v -0.004799 0.005103 0.034138
v -0.003377 0.003928 0.034626
v -0.004196 0.004292 0.035213
v -0.003122 0.002886 0.035935
v -0.003982 0.003398 0.036355
v -0.003345 0.001857 0.037261
v -0.004161 0.002495 0.037492
v -0.004013 0.000871 0.038458
v -0.004737 0.001645 0.038536
v -0.005066 0.000027 0.039473
v -0.005642 0.000893 0.039417
v -0.006421 -0.000648 0.040215
v -0.006837 0.000310 0.040058
v -0.008007 -0.001075 0.040644
v -0.008211 -0.000051 0.040425
v -0.009696 -0.001197 0.040715
v -0.009673 -0.000148 0.040492
v -0.011360 -0.001031 0.040429
v -0.011116 -0.000004 0.040249
v -0.012877 -0.000607 0.039797
v -0.012433 0.000368 0.039704
v -0.014141 0.000034 0.038866
v -0.013512 0.000951 0.038902
v -0.015012 0.000952 0.037735
v -0.014282 0.001716 0.037913
v -0.015485 0.001960 0.036455
v -0.014667 0.002590 0.036790
v -0.015497 0.003016 0.035132
v -0.014659 0.003484 0.035646
v -0.014122 0.002705 0.036792
v -0.014122 0.002705 0.036792
v -0.013752 0.001933 0.037785
v -0.013752 0.001933 0.037785
v -0.013611 0.002572 0.036590
v -0.013280 0.001883 0.037478
v -0.012667 0.001283 0.038268
v -0.010352 0.002554 0.036315
v -0.008301 0.002712 0.036227
v -0.010086 0.002342 0.036596
v -0.008509 0.002463 0.036529
v -0.009711 0.002207 0.036787
v -0.011800 0.000817 0.038902
v -0.010758 0.000518 0.039336
v -0.012097 0.000741 0.039378
v -0.012097 0.000741 0.039378
v -0.010932 0.000407 0.039864
v -0.010932 0.000407 0.039864
v -0.013066 0.001262 0.038669
v -0.013066 0.001262 0.038669
v -0.009645 0.000281 0.040092
v -0.009645 0.000281 0.040092
v -0.008339 0.000381 0.040037
v -0.008339 0.000381 0.040037
v -0.009608 0.000406 0.039540
v -0.008440 0.000495 0.039491
v -0.009271 0.002190 0.036832
v -0.008842 0.002273 0.036751
v -0.007337 0.000776 0.039197
v -0.006389 0.001230 0.038676
v -0.007105 0.000696 0.039707
v -0.007105 0.000696 0.039707
v -0.006044 0.001203 0.039126
v -0.006044 0.001203 0.039126
v -0.005230 0.001863 0.038337
v -0.005230 0.001863 0.038337
v -0.004722 0.002627 0.037401
v -0.004722 0.002627 0.037401
v -0.005660 0.001820 0.037971
v -0.005206 0.002504 0.037134
v -0.005059 0.003223 0.036235
v -0.005230 0.003939 0.035323
v -0.004558 0.003432 0.036395
v -0.004558 0.003432 0.036395
v -0.008286 0.002985 0.035883
v -0.004748 0.004233 0.035375
v -0.004748 0.004233 0.035375
v -0.005286 0.004963 0.034425
v -0.005286 0.004963 0.034425
v -0.006129 0.005569 0.033614
v -0.006129 0.005569 0.033614
v -0.005711 0.004592 0.034474
v -0.006465 0.005134 0.033749
v -0.007427 0.005520 0.033209
v -0.008529 0.005728 0.032887
v -0.007206 0.006002 0.033011
v -0.007206 0.006002 0.033011
v -0.008439 0.006234 0.032650
v -0.008439 0.006234 0.032650
vt 0.808669 0.082794
vt 0.825296 0.080793
vt 0.841968 0.082721
vt 0.857923 0.088676
vt 0.872172 0.098747
vt 0.883491 0.112610
vt 0.758738 0.128802
vt 0.892015 0.128916
vt 0.767254 0.112449
vt 0.778604 0.098701
vt 0.792804 0.088739
vt 0.810685 0.091009
vt 0.825319 0.089223
vt 0.839977 0.090970
vt 0.853884 0.096287
vt 0.866134 0.105158
vt 0.875777 0.117365
vt 0.768136 0.132735
vt 0.882611 0.132944
vt 0.774937 0.117216
vt 0.784595 0.105106
vt 0.796825 0.096313
vt 0.812790 0.099432
vt 0.825337 0.097886
vt 0.837893 0.099412
vt 0.849711 0.103985
vt 0.859964 0.111526
vt 0.867754 0.121863
vt 0.778620 0.134933
vt 0.872047 0.135228
vt 0.782907 0.121714
vt 0.790723 0.111473
vt 0.800984 0.103992
vt 0.815234 0.109149
vt 0.825358 0.107920
vt 0.835477 0.109135
vt 0.844922 0.112756
vt 0.852977 0.118593
vt 0.858809 0.126290
vt 0.789363 0.135051
vt 0.861127 0.135349
vt 0.791761 0.126165
vt 0.797664 0.118560
vt 0.805768 0.112764
vt 0.816744 0.115264
vt 0.816744 0.115264
vt 0.825376 0.114228
vt 0.825376 0.114228
vt 0.833996 0.115243
vt 0.833996 0.115243
vt 0.842020 0.118231
vt 0.842020 0.118231
vt 0.848845 0.122965
vt 0.848845 0.122965
vt 0.853838 0.128929
vt 0.853838 0.128929
vt 0.794098 0.134665
vt 0.856278 0.134888
vt 0.794098 0.134665
vt 0.856278 0.134888
vt 0.796663 0.128867
vt 0.796663 0.128867
vt 0.801776 0.122974
vt 0.801776 0.122974
vt 0.808679 0.118260
vt 0.808679 0.118260
vt 0.818825 0.124088
vt 0.825427 0.123336
vt 0.832008 0.124038
vt 0.838152 0.126139
vt 0.843483 0.129457
vt 0.847800 0.133658
vt 0.798638 0.138068
vt 0.851361 0.138036
vt 0.802599 0.133829
vt 0.807152 0.129605
vt 0.812613 0.126238
vt 0.720723 0.127371
vt 0.723490 0.121145
vt 0.736133 0.128966
vt 0.709004 0.116518
vt 0.714932 0.113206
vt 0.706053 0.100946
vt 0.712786 0.101825
vt 0.712886 0.086653
vt 0.717787 0.091387
vt 0.726684 0.079442
vt 0.727876 0.086124
vt 0.741993 0.081506
vt 0.739042 0.087630
vt 0.753127 0.092045
vt 0.747181 0.095326
vt 0.756075 0.107492
vt 0.749343 0.106611
vt 0.749643 0.121377
vt 0.744649 0.116761
vt 0.734752 0.122320
vt 0.654663 0.123841
vt 0.619366 0.076596
vt 0.897963 0.076204
vt 0.660652 0.128640
vt 0.888858 0.075513
vt 0.615465 0.075306
vt 0.899832 0.074201
vt 0.650512 0.117773
vt 0.626775 0.075600
vt 0.657018 0.121675
vt 0.653363 0.116304
vt 0.662320 0.125913
vt 0.671067 0.109910
vt 0.668852 0.105604
vt 0.674109 0.111232
vt 0.669470 0.108014
vt 0.669522 0.102378
vt 0.677390 0.110782
vt 0.668397 0.128565
vt 0.674966 0.129466
vt 0.681583 0.128555
vt 0.674958 0.132662
vt 0.864413 0.075906
vt 0.864375 0.072006
vt 0.682449 0.131640
vt 0.851808 0.076053
vt 0.667526 0.131641
vt 0.876910 0.075773
vt 0.876833 0.071741
vt 0.889218 0.072273
vt 0.877325 0.063926
vt 0.890646 0.064496
vt 0.864489 0.064204
vt 0.877423 0.056172
vt 0.891281 0.055714
vt 0.864476 0.056058
vt 0.876992 0.047863
vt 0.864091 0.048089
vt 0.890111 0.046471
vt 0.876210 0.039090
vt 0.863586 0.039281
vt 0.888226 0.038097
vt 0.875603 0.033789
vt 0.863079 0.033934
vt 0.887633 0.033837
vt 0.616965 0.033840
vt 0.896688 0.033731
vt 0.614731 0.035584
vt 0.898301 0.035966
vt 0.625687 0.033326
vt 0.625752 0.037422
vt 0.637620 0.033020
vt 0.637792 0.038111
vt 0.650755 0.032870
vt 0.650714 0.038050
vt 0.662985 0.032804
vt 0.663290 0.038186
vt 0.676147 0.032800
vt 0.676150 0.038155
vt 0.688526 0.032778
vt 0.688604 0.037967
vt 0.701290 0.032807
vt 0.701329 0.038350
vt 0.713878 0.032818
vt 0.714309 0.037887
vt 0.726903 0.032919
vt 0.726770 0.038421
vt 0.739496 0.033087
vt 0.739719 0.038476
vt 0.752447 0.033328
vt 0.752088 0.038876
vt 0.764745 0.033477
vt 0.764674 0.039143
vt 0.777297 0.033641
vt 0.776954 0.039098
vt 0.789688 0.033907
vt 0.789321 0.039631
vt 0.801921 0.033988
vt 0.801666 0.039275
vt 0.814174 0.034256
vt 0.814223 0.039802
vt 0.826177 0.034155
vt 0.826507 0.040095
vt 0.838571 0.034192
vt 0.838654 0.039757
vt 0.850714 0.034080
vt 0.851137 0.039525
vt 0.851435 0.048407
vt 0.851458 0.056118
vt 0.838807 0.048621
vt 0.838818 0.056092
vt 0.826281 0.048925
vt 0.826496 0.056322
vt 0.814117 0.049025
vt 0.813752 0.056447
vt 0.801652 0.048646
vt 0.801429 0.056392
vt 0.789230 0.048649
vt 0.789098 0.056239
vt 0.776843 0.048215
vt 0.776640 0.056247
vt 0.764436 0.048475
vt 0.764260 0.056144
vt 0.752064 0.048342
vt 0.751762 0.056074
vt 0.739373 0.048098
vt 0.739355 0.056168
vt 0.726876 0.048326
vt 0.726736 0.056033
vt 0.714080 0.047790
vt 0.714117 0.056279
vt 0.701299 0.048334
vt 0.701153 0.055845
vt 0.688741 0.047796
vt 0.688572 0.056091
vt 0.675994 0.047963
vt 0.676179 0.055832
vt 0.663500 0.047977
vt 0.663355 0.055938
vt 0.650531 0.047585
vt 0.650700 0.055929
vt 0.637969 0.047664
vt 0.637671 0.055700
vt 0.624593 0.046438
vt 0.624391 0.055829
vt 0.611350 0.043576
vt 0.905215 0.043276
vt 0.609277 0.055362
vt 0.909055 0.055199
vt 0.611280 0.068069
vt 0.905294 0.067912
vt 0.625051 0.064582
vt 0.626620 0.072974
vt 0.638006 0.064066
vt 0.638553 0.072097
vt 0.650766 0.063861
vt 0.650881 0.072171
vt 0.663440 0.063806
vt 0.663577 0.072120
vt 0.676164 0.064009
vt 0.676004 0.072259
vt 0.688506 0.063814
vt 0.688769 0.072263
vt 0.701210 0.064173
vt 0.700881 0.072213
vt 0.714112 0.063934
vt 0.713741 0.072536
vt 0.726564 0.064308
vt 0.726755 0.072556
vt 0.739522 0.064036
vt 0.739839 0.072439
vt 0.751814 0.063926
vt 0.752060 0.071885
vt 0.764191 0.063770
vt 0.764002 0.071764
vt 0.776530 0.063867
vt 0.776337 0.072123
vt 0.788981 0.064102
vt 0.788837 0.071941
vt 0.801543 0.063902
vt 0.801679 0.072266
vt 0.814077 0.063836
vt 0.813869 0.071973
vt 0.826407 0.064083
vt 0.826610 0.072156
vt 0.838955 0.063911
vt 0.839121 0.072042
vt 0.851739 0.063796
vt 0.851710 0.072232
vt 0.689373 0.128632
vt 0.838929 0.076021
vt 0.695191 0.123886
vt 0.826371 0.075730
vt 0.687707 0.125911
vt 0.692840 0.121705
vt 0.696668 0.116317
vt 0.679465 0.109383
vt 0.674095 0.099076
vt 0.680710 0.107227
vt 0.676586 0.099299
vt 0.681102 0.104764
vt 0.698855 0.110060
vt 0.699306 0.103461
vt 0.702000 0.110704
vt 0.801492 0.076045
vt 0.702500 0.103235
vt 0.788825 0.076035
vt 0.699509 0.117778
vt 0.814033 0.075881
vt 0.700979 0.095874
vt 0.776111 0.075876
vt 0.763819 0.075583
vt 0.697523 0.089210
vt 0.697970 0.096950
vt 0.694901 0.091066
vt 0.680375 0.102371
vt 0.678836 0.100393
vt 0.690359 0.086198
vt 0.684672 0.082765
vt 0.752139 0.075472
vt 0.692373 0.083714
vt 0.740045 0.075867
vt 0.685945 0.079824
vt 0.726768 0.076099
vt 0.678702 0.077807
vt 0.713507 0.075997
vt 0.671190 0.077823
vt 0.678271 0.080991
vt 0.671635 0.080997
vt 0.665304 0.082765
vt 0.659630 0.086211
vt 0.701048 0.075792
vt 0.664033 0.079832
vt 0.671774 0.099960
vt 0.688558 0.075693
vt 0.657614 0.083720
vt 0.676322 0.075678
vt 0.652489 0.089222
vt 0.663430 0.075749
vt 0.649022 0.095926
vt 0.655100 0.091076
vt 0.652037 0.097002
vt 0.650699 0.103485
vt 0.651132 0.110082
vt 0.650977 0.075767
vt 0.647498 0.103264
vt 0.638547 0.075877
vt 0.648004 0.110728
vn -0.816481 0.576736 -0.027101
vn -0.442834 0.824526 -0.352215
vn 0.107656 0.894300 -0.434324
vn 0.614032 0.753687 -0.234350
vn 0.872457 0.459093 0.167487
vn 0.784578 0.131643 0.605893
vn 0.397624 -0.102300 0.911828
vn 0.397624 -0.102300 0.911828
vn -0.134122 -0.160220 0.977927
vn -0.616481 -0.025926 0.786943
vn -0.877748 0.252582 0.407137
vn -0.750601 0.657634 0.064153
vn -0.402953 0.887530 -0.223426
vn 0.096593 0.952019 -0.290397
vn 0.554696 0.824858 -0.109183
vn 0.793181 0.555437 0.249706
vn 0.721252 0.248876 0.646419
vn 0.369951 0.022887 0.928769
vn 0.369951 0.022887 0.928769
vn -0.124318 -0.038345 0.991501
vn -0.576150 0.087197 0.812679
vn -0.815206 0.352124 0.459835
vn -0.608346 0.757363 0.237311
vn -0.328586 0.944317 0.017251
vn 0.065891 0.997361 -0.030493
vn 0.427265 0.897254 0.111263
vn 0.619867 0.680881 0.390084
vn 0.568781 0.428961 0.701770
vn 0.290153 0.237959 0.926923
vn 0.290153 0.237959 0.926923
vn -0.110158 0.182767 0.976965
vn -0.476304 0.285700 0.831571
vn -0.666017 0.505764 0.548292
vn -0.465655 0.805181 0.367219
vn -0.252854 0.944833 0.208222
vn 0.039379 0.983784 0.174983
vn 0.308203 0.910021 0.277258
vn 0.457822 0.747455 0.481364
vn 0.426997 0.552151 0.716103
vn 0.217042 0.399213 0.890798
vn 0.217042 0.399213 0.890798
vn -0.093870 0.353857 0.930577
vn -0.377098 0.437016 0.816587
vn -0.516920 0.611764 0.598781
vn -0.333695 0.818796 0.467142
vn -0.905116 0.254427 -0.340636
vn -0.182785 0.914295 0.361463
vn -0.478099 0.523362 -0.705347
vn 0.135966 0.599551 -0.788702
vn 0.016766 0.940185 0.340251
vn 0.696573 0.452368 -0.556910
vn 0.201439 0.890703 0.407517
vn 0.984801 0.140451 -0.102179
vn 0.311196 0.778050 0.545705
vn 0.892836 -0.213383 0.396625
vn 0.297329 0.636242 0.711893
vn 0.463704 -0.473611 0.748780
vn 0.463704 -0.473611 0.748780
vn 0.149776 0.520444 0.840657
vn 0.149776 0.520444 0.840657
vn -0.077322 0.485417 0.870857
vn -0.136336 -0.545693 0.826820
vn -0.283125 0.549559 0.786019
vn -0.686442 -0.404627 0.604213
vn -0.377682 0.680402 0.628020
vn -0.981917 -0.100542 0.160409
vn -0.895990 0.265487 -0.355977
vn -0.467222 0.526924 -0.709968
vn 0.134954 0.599612 -0.788830
vn 0.686482 0.457760 -0.564977
vn 0.981014 0.152637 -0.119640
vn 0.902147 -0.202195 0.381113
vn 0.474815 -0.469986 0.744085
vn 0.474815 -0.469986 0.744085
vn -0.137341 -0.545633 0.826693
vn -0.696148 -0.399472 0.596490
vn -0.985770 -0.088385 0.142988
vn 0.013986 -0.792594 -0.609590
vn 0.013992 -0.792596 -0.609586
vn 0.043354 -0.781452 -0.622458
vn 0.030497 -0.774193 -0.632215
vn 0.030509 -0.774194 -0.632213
vn 0.021430 -0.775396 -0.631111
vn 0.021384 -0.775413 -0.631093
vn 0.047041 -0.788203 -0.613614
vn 0.047041 -0.788199 -0.613620
vn 0.013563 -0.785428 -0.618804
vn 0.013592 -0.785532 -0.618672
vn 0.017885 -0.790473 -0.612236
vn 0.017953 -0.790512 -0.612183
vn 0.026367 -0.792902 -0.608779
vn 0.026426 -0.792906 -0.608771
vn 0.035756 -0.791635 -0.609947
vn 0.035659 -0.791670 -0.609907
vn 0.042194 -0.787196 -0.615257
vn 0.042138 -0.787271 -0.615165
vn 0.043381 -0.781540 -0.622345
vn 0.118651 0.456012 0.882029
vn -0.075321 0.851304 0.519239
vn -0.075321 0.851304 0.519239
vn 0.224913 0.492481 0.840759
vn -0.109032 0.838146 0.534438
vn -0.200370 0.966297 0.161625
vn -0.200370 0.966297 0.161625
vn 0.000698 0.436035 0.899930
vn -0.041057 0.860559 0.507693
vn 0.031424 0.661762 0.749055
vn -0.020879 0.662486 0.748783
vn 0.074488 0.681564 0.727957
vn 0.005168 0.738913 0.673781
vn -0.061473 0.733867 0.676506
vn 0.027938 0.759956 0.649374
vn -0.027204 0.724221 0.689031
vn -0.088616 0.751185 0.654116
vn 0.035819 0.782224 0.621967
vn 0.108031 0.701972 0.703963
vn 0.135589 0.731716 0.667987
vn 0.147307 0.759057 0.634139
vn 0.370874 0.610230 0.700052
vn -0.168361 0.805116 0.568721
vn -0.486072 0.785423 0.383203
vn 0.401596 0.682033 0.611188
vn -0.177990 0.783850 0.594893
vn 0.309978 0.545222 0.778875
vn -0.141453 0.823794 0.548957
vn -0.419257 0.860654 0.288961
vn -0.321804 0.922491 0.213196
vn -0.694689 0.708272 -0.125531
vn -0.523872 0.813204 -0.253492
vn -0.812245 0.582075 0.038036
vn -0.779498 0.315996 -0.540859
vn -0.583245 0.436084 -0.685315
vn -0.917432 0.168253 -0.360568
vn -0.587282 -0.211340 -0.781303
vn -0.693441 -0.326958 -0.642058
vn -0.433788 -0.119329 -0.893078
vn -0.262187 -0.592227 -0.761922
vn -0.314264 -0.646508 -0.695173
vn -0.188982 -0.544308 -0.817322
vn -0.081195 -0.724239 -0.684752
vn -0.105125 -0.742295 -0.661776
vn -0.048071 -0.709429 -0.703136
vn -0.013246 -0.697382 -0.716577
vn -0.013246 -0.697382 -0.716577
vn -0.098995 -0.508737 -0.855211
vn -0.098995 -0.508737 -0.855211
vn 0.023327 -0.689290 -0.724110
vn 0.002280 -0.495680 -0.868502
vn 0.062076 -0.686770 -0.724220
vn 0.103996 -0.496916 -0.861545
vn 0.102012 -0.691268 -0.715361
vn 0.201841 -0.514372 -0.833476
vn 0.139291 -0.701136 -0.699290
vn 0.285652 -0.547316 -0.786669
vn 0.163599 -0.717992 -0.676552
vn 0.346825 -0.593584 -0.726203
vn 0.174603 -0.743400 -0.645655
vn 0.391311 -0.651023 -0.650419
vn 0.176680 -0.769493 -0.613730
vn 0.411081 -0.711224 -0.570240
vn 0.168973 -0.794225 -0.583657
vn 0.397775 -0.775516 -0.490255
vn 0.154956 -0.818299 -0.553512
vn 0.356017 -0.837222 -0.415104
vn 0.134736 -0.839727 -0.526027
vn 0.291829 -0.888977 -0.352924
vn 0.105222 -0.856159 -0.505885
vn 0.208957 -0.928695 -0.306372
vn 0.068148 -0.864514 -0.497967
vn 0.114492 -0.952486 -0.282244
vn 0.027981 -0.864583 -0.501711
vn 0.012554 -0.959305 -0.282092
vn -0.009681 -0.858290 -0.513074
vn -0.089139 -0.949483 -0.300891
vn -0.042969 -0.847312 -0.529354
vn -0.185684 -0.923133 -0.336672
vn -0.072932 -0.832269 -0.549554
vn -0.263802 -0.882957 -0.388323
vn -0.095911 -0.813639 -0.573404
vn -0.314816 -0.830125 -0.460199
vn -0.109503 -0.791037 -0.601888
vn -0.342538 -0.768046 -0.541084
vn -0.113545 -0.765447 -0.633402
vn -0.342428 -0.705596 -0.620385
vn -0.749464 -0.452713 -0.483068
vn -0.987619 0.003463 -0.156830
vn -0.747678 -0.582209 -0.319391
vn -0.984574 -0.165748 0.056050
vn -0.684791 -0.708522 -0.170467
vn -0.914173 -0.317337 0.252162
vn -0.571242 -0.820446 -0.023472
vn -0.765741 -0.468126 0.441021
vn -0.408183 -0.908417 0.090359
vn -0.552610 -0.582699 0.595889
vn -0.226807 -0.958386 0.173366
vn -0.317325 -0.650351 0.690180
vn -0.021721 -0.976981 0.212219
vn -0.054606 -0.676138 0.734748
vn 0.188353 -0.959745 0.208358
vn 0.217922 -0.651182 0.726961
vn 0.386457 -0.908500 0.158994
vn 0.472296 -0.580750 0.663073
vn 0.556757 -0.828222 0.063802
vn 0.687530 -0.472476 0.551424
vn 0.687136 -0.723546 -0.065774
vn 0.857369 -0.334978 0.390780
vn 0.767308 -0.602526 -0.219548
vn 0.964204 -0.180140 0.194579
vn 0.792822 -0.471015 -0.386753
vn 0.999612 -0.010723 -0.025689
vn 0.759182 -0.342677 -0.553368
vn 0.957091 0.154706 -0.245035
vn 0.675533 -0.224311 -0.702381
vn 0.849384 0.297282 -0.436085
vn 0.543412 -0.126534 -0.829875
vn 0.674657 0.419262 -0.607501
vn 0.369240 -0.060036 -0.927393
vn 0.449748 0.506157 -0.735889
vn 0.172170 -0.023683 -0.984783
vn 0.195949 0.555279 -0.808251
vn -0.037860 -0.024866 -0.998974
vn -0.075234 0.558843 -0.825854
vn -0.246938 -0.052885 -0.967587
vn -0.246938 -0.052885 -0.967587
vn -0.343392 0.518961 -0.782791
vn -0.343392 0.518961 -0.782791
vn -0.315737 0.885780 -0.340152
vn -0.315737 0.885780 -0.340152
vn -0.085230 0.923113 -0.374965
vn -0.066893 0.987882 0.140053
vn 0.151476 0.919447 -0.362868
vn 0.068952 0.986343 0.149576
vn 0.374854 0.878677 -0.295655
vn 0.200494 0.961469 0.188096
vn 0.570896 0.799810 -0.185424
vn 0.311483 0.916767 0.250032
vn 0.719107 0.694017 -0.035004
vn 0.394530 0.855679 0.334903
vn 0.812548 0.567116 0.134703
vn 0.452033 0.778267 0.435852
vn 0.848189 0.421875 0.320307
vn 0.473352 0.695078 0.541114
vn 0.816350 0.275565 0.507579
vn 0.454671 0.610450 0.648556
vn 0.725259 0.134367 0.675237
vn 0.399716 0.529664 0.748119
vn 0.579375 0.011668 0.814978
vn 0.315431 0.458306 0.830939
vn 0.394084 -0.085552 0.915084
vn 0.203977 0.402987 0.892186
vn 0.173126 -0.143949 0.974323
vn 0.080771 0.368214 0.926226
vn -0.064221 -0.161178 0.984834
vn -0.053629 0.359151 0.931737
vn -0.296673 -0.137822 0.944982
vn -0.191324 0.372955 0.907910
vn -0.507258 -0.073579 0.858647
vn -0.321331 0.405725 0.855648
vn -0.686941 0.020452 0.726426
vn -0.423340 0.457145 0.782178
vn -0.810007 0.151701 0.566459
vn -0.491072 0.533065 0.688978
vn -0.873029 0.291508 0.390951
vn -0.522622 0.623329 0.581659
vn -0.871975 0.440736 0.213101
vn -0.518312 0.706478 0.481915
vn 0.399989 0.756215 0.517829
vn -0.166519 0.762290 0.625449
vn 0.366768 0.825940 0.428141
vn -0.151093 0.739817 0.655624
vn 0.150976 0.791731 0.591919
vn 0.127175 0.819494 0.558799
vn 0.110178 0.846851 0.520293
vn 0.033219 0.801320 0.597313
vn -0.104266 0.790946 0.602937
vn 0.017115 0.816709 0.576795
vn -0.092608 0.808349 0.581374
vn -0.006536 0.830071 0.557619
vn 0.071220 0.867547 0.492229
vn 0.023790 0.875474 0.482679
vn 0.215797 0.934408 0.283395
vn -0.110003 0.706738 0.698871
vn 0.111253 0.964366 0.240045
vn -0.074932 0.696073 0.714050
vn 0.303513 0.886924 0.348203
vn -0.135958 0.719439 0.681119
vn -0.005203 0.975497 0.219953
vn -0.036064 0.681978 0.730483
vn 0.003008 0.675157 0.737668
vn -0.123625 0.966534 0.224788
vn -0.022580 0.884895 0.465244
vn -0.072559 0.880992 0.467535
vn -0.040537 0.834507 0.549505
vn -0.072873 0.825009 0.560401
vn -0.115716 0.864889 0.488444
vn -0.160897 0.849618 0.502257
vn 0.033977 0.689181 0.723792
vn -0.234826 0.938068 0.254727
vn 0.052503 0.716833 0.695265
vn -0.330989 0.892229 0.307202
vn 0.064583 0.742838 0.666349
vn -0.404254 0.832873 0.378022
vn 0.077836 0.763442 0.641170
vn -0.449833 0.764247 0.462144
vn -0.192563 0.824184 0.532579
vn -0.202469 0.794867 0.572008
vn -0.218739 0.763871 0.607169
vn -0.207001 0.732496 0.648537
vn 0.088089 0.782353 0.616575
vn -0.464610 0.691252 0.553451
vn -0.101874 0.771760 0.627700
vn 0.090557 0.804232 0.587375
vn -0.447262 0.618643 0.645940
vn 0.087104 0.828947 0.552503
vn -0.398991 0.552304 0.731961
vn 0.072158 0.849377 0.522831
vn -0.323420 0.497701 0.804794
vn -0.188415 0.707219 0.681426
vn -0.154390 0.682317 0.714568
vn -0.117256 0.667477 0.735340
vn -0.068501 0.654525 0.752931
vn 0.039370 0.861196 0.506745
vn -0.226610 0.458616 0.859255
vn -0.002344 0.864181 0.503176
vn -0.114503 0.437747 0.891777
f 22/22/22 12/12/12 1/1/1
f 11/11/11 22/22/22 1/1/1
f 2/2/2 1/1/1 12/12/12
f 13/13/13 2/2/2 12/12/12
f 3/3/3 2/2/2 13/13/13
f 14/14/14 3/3/3 13/13/13
f 4/4/4 3/3/3 14/14/14
f 15/15/15 4/4/4 14/14/14
f 5/5/5 4/4/4 15/15/15
f 16/16/16 5/5/5 15/15/15
f 6/6/6 5/5/5 16/16/16
f 17/17/17 6/6/6 16/16/16
f 8/8/8 6/6/6 17/17/17
f 19/19/19 8/8/8 17/17/17
f 9/9/9 7/7/7 18/18/18
f 20/20/20 9/9/9 18/18/18
f 10/10/10 9/9/9 20/20/20
f 21/21/21 10/10/10 20/20/20
f 11/11/11 10/10/10 21/21/21
f 22/22/22 11/11/11 21/21/21
f 23/23/23 12/12/12 22/22/22
f 33/33/33 23/23/23 22/22/22
f 13/13/13 12/12/12 23/23/23
f 24/24/24 13/13/13 23/23/23
f 14/14/14 13/13/13 24/24/24
f 25/25/25 14/14/14 24/24/24
f 15/15/15 14/14/14 25/25/25
f 26/26/26 15/15/15 25/25/25
f 16/16/16 15/15/15 26/26/26
f 27/27/27 16/16/16 26/26/26
f 17/17/17 16/16/16 27/27/27
f 28/28/28 17/17/17 27/27/27
f 19/19/19 17/17/17 28/28/28
f 30/30/30 19/19/19 28/28/28
f 20/20/20 18/18/18 29/29/29
f 31/31/31 20/20/20 29/29/29
f 21/21/21 20/20/20 31/31/31
f 32/32/32 21/21/21 31/31/31
f 22/22/22 21/21/21 32/32/32
f 33/33/33 22/22/22 32/32/32
f 34/34/34 23/23/23 33/33/33
f 44/44/44 34/34/34 33/33/33
f 24/24/24 23/23/23 34/34/34
f 35/35/35 24/24/24 34/34/34
f 25/25/25 24/24/24 35/35/35
f 36/36/36 25/25/25 35/35/35
f 26/26/26 25/25/25 36/36/36
f 37/37/37 26/26/26 36/36/36
f 27/27/27 26/26/26 37/37/37
f 38/38/38 27/27/27 37/37/37
f 28/28/28 27/27/27 38/38/38
f 39/39/39 28/28/28 38/38/38
f 30/30/30 28/28/28 39/39/39
f 41/41/41 30/30/30 39/39/39
f 31/31/31 29/29/29 40/40/40
f 42/42/42 31/31/31 40/40/40
f 32/32/32 31/31/31 42/42/42
f 43/43/43 32/32/32 42/42/42
f 33/33/33 32/32/32 43/43/43
f 44/44/44 33/33/33 43/43/43
f 45/45/45 34/34/34 44/44/44
f 65/65/65 45/45/45 44/44/44
f 35/35/35 34/34/34 45/45/45
f 47/47/47 35/35/35 45/45/45
f 36/36/36 35/35/35 47/47/47
f 50/50/50 36/36/36 47/47/47
f 37/37/37 36/36/36 50/50/50
f 52/52/52 37/37/37 50/50/50
f 38/38/38 37/37/37 52/52/52
f 54/54/54 38/38/38 52/52/52
f 39/39/39 38/38/38 54/54/54
f 56/56/56 39/39/39 54/54/54
f 41/41/41 39/39/39 56/56/56
f 60/60/60 41/41/41 56/56/56
f 42/42/42 40/40/40 59/59/59
f 61/61/61 42/42/42 59/59/59
f 43/43/43 42/42/42 61/61/61
f 63/63/63 43/43/43 61/61/61
f 44/44/44 43/43/43 63/63/63
f 65/65/65 44/44/44 63/63/63
f 49/49/49 69/69/69 70/70/70
f 51/51/51 49/49/49 70/70/70
f 69/69/69 49/49/49 48/48/48
f 68/68/68 69/69/69 48/48/48
f 68/68/68 48/48/48 46/46/46
f 67/67/67 68/68/68 46/46/46
f 67/67/67 46/46/46 66/66/66
f 77/77/77 67/67/67 66/66/66
f 77/77/77 66/66/66 64/64/64
f 76/76/76 77/77/77 64/64/64
f 64/64/64 62/62/62 75/75/75
f 76/76/76 64/64/64 75/75/75
f 75/75/75 62/62/62 57/57/57
f 73/73/73 75/75/75 57/57/57
f 74/74/74 58/58/58 55/55/55
f 72/72/72 74/74/74 55/55/55
f 72/72/72 55/55/55 53/53/53
f 71/71/71 72/72/72 53/53/53
f 71/71/71 53/53/53 51/51/51
f 70/70/70 71/71/71 51/51/51
f 81/81/81 78/78/78 79/79/79
f 82/82/82 81/81/81 79/79/79
f 78/78/78 80/80/80 97/97/97
f 79/79/79 78/78/78 97/97/97
f 83/83/83 81/81/81 82/82/82
f 84/84/84 83/83/83 82/82/82
f 85/85/85 83/83/83 84/84/84
f 86/86/86 85/85/85 84/84/84
f 87/87/87 85/85/85 86/86/86
f 88/88/88 87/87/87 86/86/86
f 89/89/89 87/87/87 88/88/88
f 90/90/90 89/89/89 88/88/88
f 91/91/91 89/89/89 90/90/90
f 92/92/92 91/91/91 90/90/90
f 93/93/93 91/91/91 92/92/92
f 94/94/94 93/93/93 92/92/92
f 96/96/96 95/95/95 93/93/93
f 94/94/94 96/96/96 93/93/93
f 80/80/80 95/95/95 96/96/96
f 97/97/97 80/80/80 96/96/96
f 109/109/109 107/107/107 98/98/98
f 101/101/101 109/109/109 98/98/98
f 102/102/102 100/100/100 104/104/104
f 127/127/127 102/102/102 104/104/104
f 103/103/103 99/99/99 106/106/106
f 230/230/230 103/103/103 106/106/106
f 107/107/107 108/108/108 105/105/105
f 98/98/98 107/107/107 105/105/105
f 110/110/110 113/113/113 108/108/108
f 107/107/107 110/110/110 108/108/108
f 109/109/109 110/110/110 107/107/107
f 111/111/111 113/113/113 110/110/110
f 110/110/110 112/112/112 114/114/114
f 111/111/111 110/110/110 114/114/114
f 112/112/112 110/110/110 109/109/109
f 116/116/116 112/112/112 109/109/109
f 113/113/113 111/111/111 321/321/321
f 108/108/108 113/113/113 321/321/321
f 112/112/112 115/115/115 311/311/311
f 114/114/114 112/112/112 311/311/311
f 115/115/115 112/112/112 117/117/117
f 118/118/118 115/115/115 117/117/117
f 117/117/117 112/112/112 116/116/116
f 118/118/118 117/117/117 119/119/119
f 122/122/122 118/118/118 119/119/119
f 117/117/117 116/116/116 124/124/124
f 119/119/119 117/117/117 124/124/124
f 121/121/121 120/120/120 125/125/125
f 126/126/126 121/121/121 125/125/125
f 266/266/266 123/123/123 120/120/120
f 121/121/121 266/266/266 120/120/120
f 126/126/126 125/125/125 102/102/102
f 127/127/127 126/126/126 102/102/102
f 116/116/116 109/109/109 101/101/101
f 124/124/124 116/116/116 101/101/101
f 130/130/130 121/121/121 126/126/126
f 128/128/128 130/130/130 126/126/126
f 126/126/126 127/127/127 129/129/129
f 128/128/128 126/126/126 129/129/129
f 131/131/131 128/128/128 129/129/129
f 132/132/132 131/131/131 129/129/129
f 133/133/133 130/130/130 128/128/128
f 131/131/131 133/133/133 128/128/128
f 134/134/134 131/131/131 132/132/132
f 136/136/136 134/134/134 132/132/132
f 133/133/133 131/131/131 134/134/134
f 135/135/135 133/133/133 134/134/134
f 138/138/138 135/135/135 134/134/134
f 137/137/137 138/138/138 134/134/134
f 137/137/137 134/134/134 136/136/136
f 139/139/139 137/137/137 136/136/136
f 141/141/141 138/138/138 137/137/137
f 140/140/140 141/141/141 137/137/137
f 140/140/140 137/137/137 139/139/139
f 142/142/142 140/140/140 139/139/139
f 142/142/142 139/139/139 146/146/146
f 144/144/144 142/142/142 146/146/146
f 143/143/143 145/145/145 148/148/148
f 147/147/147 143/143/143 148/148/148
f 147/147/147 148/148/148 150/150/150
f 149/149/149 147/147/147 150/150/150
f 149/149/149 150/150/150 152/152/152
f 151/151/151 149/149/149 152/152/152
f 151/151/151 152/152/152 154/154/154
f 153/153/153 151/151/151 154/154/154
f 153/153/153 154/154/154 156/156/156
f 155/155/155 153/153/153 156/156/156
f 155/155/155 156/156/156 158/158/158
f 157/157/157 155/155/155 158/158/158
f 157/157/157 158/158/158 160/160/160
f 159/159/159 157/157/157 160/160/160
f 159/159/159 160/160/160 162/162/162
f 161/161/161 159/159/159 162/162/162
f 161/161/161 162/162/162 164/164/164
f 163/163/163 161/161/161 164/164/164
f 163/163/163 164/164/164 166/166/166
f 165/165/165 163/163/163 166/166/166
f 165/165/165 166/166/166 168/168/168
f 167/167/167 165/165/165 168/168/168
f 167/167/167 168/168/168 170/170/170
f 169/169/169 167/167/167 170/170/170
f 169/169/169 170/170/170 172/172/172
f 171/171/171 169/169/169 172/172/172
f 171/171/171 172/172/172 174/174/174
f 173/173/173 171/171/171 174/174/174
f 173/173/173 174/174/174 176/176/176
f 175/175/175 173/173/173 176/176/176
f 175/175/175 176/176/176 178/178/178
f 177/177/177 175/175/175 178/178/178
f 177/177/177 178/178/178 180/180/180
f 179/179/179 177/177/177 180/180/180
f 179/179/179 180/180/180 182/182/182
f 181/181/181 179/179/179 182/182/182
f 181/181/181 182/182/182 184/184/184
f 183/183/183 181/181/181 184/184/184
f 138/138/138 141/141/141 183/183/183
f 184/184/184 138/138/138 183/183/183
f 184/184/184 185/185/185 135/135/135
f 138/138/138 184/184/184 135/135/135
f 182/182/182 187/187/187 185/185/185
f 184/184/184 182/182/182 185/185/185
f 185/185/185 186/186/186 133/133/133
f 135/135/135 185/185/185 133/133/133
f 187/187/187 188/188/188 186/186/186
f 185/185/185 187/187/187 186/186/186
f 189/189/189 190/190/190 188/188/188
f 187/187/187 189/189/189 188/188/188
f 180/180/180 189/189/189 187/187/187
f 182/182/182 180/180/180 187/187/187
f 191/191/191 192/192/192 190/190/190
f 189/189/189 191/191/191 190/190/190
f 178/178/178 191/191/191 189/189/189
f 180/180/180 178/178/178 189/189/189
f 193/193/193 194/194/194 192/192/192
f 191/191/191 193/193/193 192/192/192
f 176/176/176 193/193/193 191/191/191
f 178/178/178 176/176/176 191/191/191
f 195/195/195 196/196/196 194/194/194
f 193/193/193 195/195/195 194/194/194
f 174/174/174 195/195/195 193/193/193
f 176/176/176 174/174/174 193/193/193
f 197/197/197 198/198/198 196/196/196
f 195/195/195 197/197/197 196/196/196
f 172/172/172 197/197/197 195/195/195
f 174/174/174 172/172/172 195/195/195
f 199/199/199 200/200/200 198/198/198
f 197/197/197 199/199/199 198/198/198
f 170/170/170 199/199/199 197/197/197
f 172/172/172 170/170/170 197/197/197
f 201/201/201 202/202/202 200/200/200
f 199/199/199 201/201/201 200/200/200
f 168/168/168 201/201/201 199/199/199
f 170/170/170 168/168/168 199/199/199
f 203/203/203 204/204/204 202/202/202
f 201/201/201 203/203/203 202/202/202
f 166/166/166 203/203/203 201/201/201
f 168/168/168 166/166/166 201/201/201
f 205/205/205 206/206/206 204/204/204
f 203/203/203 205/205/205 204/204/204
f 164/164/164 205/205/205 203/203/203
f 166/166/166 164/164/164 203/203/203
f 207/207/207 208/208/208 206/206/206
f 205/205/205 207/207/207 206/206/206
f 162/162/162 207/207/207 205/205/205
f 164/164/164 162/162/162 205/205/205
f 209/209/209 210/210/210 208/208/208
f 207/207/207 209/209/209 208/208/208
f 160/160/160 209/209/209 207/207/207
f 162/162/162 160/160/160 207/207/207
f 211/211/211 212/212/212 210/210/210
f 209/209/209 211/211/211 210/210/210
f 158/158/158 211/211/211 209/209/209
f 160/160/160 158/158/158 209/209/209
f 213/213/213 214/214/214 212/212/212
f 211/211/211 213/213/213 212/212/212
f 156/156/156 213/213/213 211/211/211
f 158/158/158 156/156/156 211/211/211
f 215/215/215 216/216/216 214/214/214
f 213/213/213 215/215/215 214/214/214
f 154/154/154 215/215/215 213/213/213
f 156/156/156 154/154/154 213/213/213
f 217/217/217 218/218/218 216/216/216
f 215/215/215 217/217/217 216/216/216
f 152/152/152 217/217/217 215/215/215
f 154/154/154 152/152/152 215/215/215
f 219/219/219 220/220/220 218/218/218
f 217/217/217 219/219/219 218/218/218
f 150/150/150 219/219/219 217/217/217
f 152/152/152 150/150/150 217/217/217
f 221/221/221 222/222/222 220/220/220
f 219/219/219 221/221/221 220/220/220
f 148/148/148 221/221/221 219/219/219
f 150/150/150 148/148/148 219/219/219
f 223/223/223 225/225/225 222/222/222
f 221/221/221 223/223/223 222/222/222
f 145/145/145 223/223/223 221/221/221
f 148/148/148 145/145/145 221/221/221
f 136/136/136 132/132/132 226/226/226
f 224/224/224 136/136/136 226/226/226
f 139/139/139 136/136/136 224/224/224
f 146/146/146 139/139/139 224/224/224
f 225/225/225 227/227/227 229/229/229
f 222/222/222 225/225/225 229/229/229
f 132/132/132 129/129/129 228/228/228
f 226/226/226 132/132/132 228/228/228
f 227/227/227 103/103/103 230/230/230
f 229/229/229 227/227/227 230/230/230
f 129/129/129 127/127/127 104/104/104
f 228/228/228 129/129/129 104/104/104
f 229/229/229 230/230/230 232/232/232
f 231/231/231 229/229/229 232/232/232
f 222/222/222 229/229/229 231/231/231
f 220/220/220 222/222/222 231/231/231
f 231/231/231 232/232/232 234/234/234
f 233/233/233 231/231/231 234/234/234
f 220/220/220 231/231/231 233/233/233
f 218/218/218 220/220/220 233/233/233
f 233/233/233 234/234/234 236/236/236
f 235/235/235 233/233/233 236/236/236
f 218/218/218 233/233/233 235/235/235
f 216/216/216 218/218/218 235/235/235
f 235/235/235 236/236/236 238/238/238
f 237/237/237 235/235/235 238/238/238
f 216/216/216 235/235/235 237/237/237
f 214/214/214 216/216/216 237/237/237
f 237/237/237 238/238/238 240/240/240
f 239/239/239 237/237/237 240/240/240
f 214/214/214 237/237/237 239/239/239
f 212/212/212 214/214/214 239/239/239
f 239/239/239 240/240/240 242/242/242
f 241/241/241 239/239/239 242/242/242
f 212/212/212 239/239/239 241/241/241
f 210/210/210 212/212/212 241/241/241
f 241/241/241 242/242/242 244/244/244
f 243/243/243 241/241/241 244/244/244
f 210/210/210 241/241/241 243/243/243
f 208/208/208 210/210/210 243/243/243
f 243/243/243 244/244/244 246/246/246
f 245/245/245 243/243/243 246/246/246
f 208/208/208 243/243/243 245/245/245
f 206/206/206 208/208/208 245/245/245
f 245/245/245 246/246/246 248/248/248
f 247/247/247 245/245/245 248/248/248
f 206/206/206 245/245/245 247/247/247
f 204/204/204 206/206/206 247/247/247
f 247/247/247 248/248/248 250/250/250
f 249/249/249 247/247/247 250/250/250
f 204/204/204 247/247/247 249/249/249
f 202/202/202 204/204/204 249/249/249
f 249/249/249 250/250/250 252/252/252
f 251/251/251 249/249/249 252/252/252
f 202/202/202 249/249/249 251/251/251
f 200/200/200 202/202/202 251/251/251
f 251/251/251 252/252/252 254/254/254
f 253/253/253 251/251/251 254/254/254
f 200/200/200 251/251/251 253/253/253
f 198/198/198 200/200/200 253/253/253
f 253/253/253 254/254/254 256/256/256
f 255/255/255 253/253/253 256/256/256
f 198/198/198 253/253/253 255/255/255
f 196/196/196 198/198/198 255/255/255
f 255/255/255 256/256/256 258/258/258
f 257/257/257 255/255/255 258/258/258
f 196/196/196 255/255/255 257/257/257
f 194/194/194 196/196/196 257/257/257
f 257/257/257 258/258/258 260/260/260
f 259/259/259 257/257/257 260/260/260
f 194/194/194 257/257/257 259/259/259
f 192/192/192 194/194/194 259/259/259
f 259/259/259 260/260/260 262/262/262
f 261/261/261 259/259/259 262/262/262
f 192/192/192 259/259/259 261/261/261
f 190/190/190 192/192/192 261/261/261
f 261/261/261 262/262/262 264/264/264
f 263/263/263 261/261/261 264/264/264
f 190/190/190 261/261/261 263/263/263
f 188/188/188 190/190/190 263/263/263
f 263/263/263 264/264/264 266/266/266
f 265/265/265 263/263/263 266/266/266
f 188/188/188 263/263/263 265/265/265
f 186/186/186 188/188/188 265/265/265
f 265/265/265 266/266/266 121/121/121
f 130/130/130 265/265/265 121/121/121
f 186/186/186 265/265/265 130/130/130
f 133/133/133 186/186/186 130/130/130
f 264/264/264 268/268/268 123/123/123
f 266/266/266 264/264/264 123/123/123
f 262/262/262 270/270/270 268/268/268
f 264/264/264 262/262/262 268/268/268
f 272/272/272 271/271/271 267/267/267
f 269/269/269 272/272/272 267/267/267
f 271/271/271 118/118/118 122/122/122
f 267/267/267 271/271/271 122/122/122
f 274/274/274 115/115/115 271/271/271
f 272/272/272 274/274/274 271/271/271
f 271/271/271 115/115/115 118/118/118
f 276/276/276 274/274/274 272/272/272
f 273/273/273 276/276/276 272/272/272
f 273/273/273 272/272/272 269/269/269
f 285/285/285 273/273/273 269/269/269
f 115/115/115 274/274/274 275/275/275
f 311/311/311 115/115/115 275/275/275
f 274/274/274 276/276/276 277/277/277
f 275/275/275 274/274/274 277/277/277
f 276/276/276 278/278/278 294/294/294
f 277/277/277 276/276/276 294/294/294
f 278/278/278 276/276/276 279/279/279
f 280/280/280 278/278/278 279/279/279
f 279/279/279 276/276/276 273/273/273
f 280/280/280 279/279/279 281/281/281
f 283/283/283 280/280/280 281/281/281
f 279/279/279 273/273/273 285/285/285
f 281/281/281 279/279/279 285/285/285
f 258/258/258 282/282/282 286/286/286
f 260/260/260 258/258/258 286/286/286
f 256/256/256 284/284/284 282/282/282
f 258/258/258 256/256/256 282/282/282
f 260/260/260 286/286/286 270/270/270
f 262/262/262 260/260/260 270/270/270
f 254/254/254 288/288/288 284/284/284
f 256/256/256 254/254/254 284/284/284
f 291/291/291 280/280/280 283/283/283
f 287/287/287 291/291/291 283/283/283
f 252/252/252 289/289/289 288/288/288
f 254/254/254 252/252/252 288/288/288
f 292/292/292 291/291/291 287/287/287
f 290/290/290 292/292/292 287/287/287
f 292/292/292 293/293/293 291/291/291
f 293/293/293 278/278/278 280/280/280
f 291/291/291 293/293/293 280/280/280
f 278/278/278 293/293/293 294/294/294
f 294/294/294 293/293/293 292/292/292
f 295/295/295 294/294/294 292/292/292
f 277/277/277 294/294/294 295/295/295
f 296/296/296 277/277/277 295/295/295
f 296/296/296 295/295/295 298/298/298
f 300/300/300 296/296/296 298/298/298
f 295/295/295 292/292/292 290/290/290
f 298/298/298 295/295/295 290/290/290
f 250/250/250 297/297/297 289/289/289
f 252/252/252 250/250/250 289/289/289
f 248/248/248 299/299/299 297/297/297
f 250/250/250 248/248/248 297/297/297
f 246/246/246 301/301/301 299/299/299
f 248/248/248 246/246/246 299/299/299
f 305/305/305 296/296/296 300/300/300
f 302/302/302 305/305/305 300/300/300
f 244/244/244 303/303/303 301/301/301
f 246/246/246 244/244/244 301/301/301
f 306/306/306 305/305/305 302/302/302
f 304/304/304 306/306/306 302/302/302
f 275/275/275 277/277/277 305/305/305
f 306/306/306 275/275/275 305/305/305
f 305/305/305 277/277/277 296/296/296
f 311/311/311 275/275/275 306/306/306
f 307/307/307 311/311/311 306/306/306
f 307/307/307 306/306/306 304/304/304
f 310/310/310 307/307/307 304/304/304
f 308/308/308 311/311/311 307/307/307
f 308/308/308 307/307/307 310/310/310
f 313/313/313 308/308/308 310/310/310
f 114/114/114 311/311/311 308/308/308
f 318/318/318 114/114/114 308/308/308
f 242/242/242 309/309/309 303/303/303
f 244/244/244 242/242/242 303/303/303
f 240/240/240 312/312/312 309/309/309
f 242/242/242 240/240/240 309/309/309
f 238/238/238 314/314/314 312/312/312
f 240/240/240 238/238/238 312/312/312
f 318/318/318 308/308/308 313/313/313
f 315/315/315 318/318/318 313/313/313
f 236/236/236 316/316/316 314/314/314
f 238/238/238 236/236/236 314/314/314
f 319/319/319 318/318/318 315/315/315
f 317/317/317 319/319/319 315/315/315
f 319/319/319 114/114/114 318/318/318
f 111/111/111 114/114/114 319/319/319
f 320/320/320 111/111/111 319/319/319
f 320/320/320 319/319/319 317/317/317
f 323/323/323 320/320/320 317/317/317
f 321/321/321 111/111/111 320/320/320
f 321/321/321 320/320/320 323/323/323
f 325/325/325 321/321/321 323/323/323
f 234/234/234 322/322/322 316/316/316
f 236/236/236 234/234/234 316/316/316
f 232/232/232 324/324/324 322/322/322
f 234/234/234 232/232/232 322/322/322
f 230/230/230 106/106/106 324/324/324
f 232/232/232 230/230/230 324/324/324
f 108/108/108 321/321/321 325/325/325
f 105/105/105 108/108/108 325/325/325
